<svg xmlns="http://www.w3.org/2000/svg" fill="none" viewBox="0 0 14 14" id="3d-Scale--Streamline-Flex" height="14" width="14"><desc>3d Scale Streamline Icon: https://streamlinehq.com</desc><g id="3d-scale"><path id="Vector 836" fill="#d76424" d="M4.91992 9.85997v-2.6l2.08 -1.04 2.08 1.04v2.6L6.99992 10.9l-2.08 -1.04003Z" stroke-width="1"></path><path id="Vector 837" stroke="#060644" stroke-linecap="round" stroke-linejoin="round" d="M4.9202 9.85999 2.90527 10.8837" stroke-width="1"></path><path id="Vector 838" stroke="#060644" stroke-linecap="round" stroke-linejoin="round" d="m9.0798 9.85999 2.0071 1.02321" stroke-width="1"></path><path id="Vector 839" stroke="#060644" stroke-linecap="round" stroke-linejoin="round" d="M7 6.22001V3.60376" stroke-width="1"></path><path id="Vector 841" fill="#4d6a7f" d="M0.5 12.8067v-1.7334l1.38667 -0.6933 1.38666 0.6933v1.7334L1.88667 13.5 0.5 12.8067Z" stroke-width="1"></path><path id="Vector 842" fill="#4d6a7f" d="M10.7266 12.8067v-1.7334l1.3866 -0.6933 1.3867 0.6933v1.7334l-1.3867 0.6933 -1.3866 -0.6933Z" stroke-width="1"></path><path id="Vector 843" fill="#4d6a7f" d="M5.61426 2.92667V1.19333L7.00092 0.5l1.38667 0.69333v1.73334L7.00092 3.62l-1.38666 -0.69333Z" stroke-width="1"></path><path id="Vector 844" stroke="#060644" stroke-linecap="round" stroke-linejoin="round" d="M4.91992 9.85997v-2.6l2.08 -1.04 2.08 1.04v2.6L6.99992 10.9l-2.08 -1.04003Z" stroke-width="1"></path><path id="Vector 845" stroke="#060644" stroke-linecap="round" stroke-linejoin="round" d="M0.5 12.8067v-1.7334l1.38667 -0.6933 1.38666 0.6933v1.7334L1.88667 13.5 0.5 12.8067Z" stroke-width="1"></path><path id="Vector 846" stroke="#060644" stroke-linecap="round" stroke-linejoin="round" d="M10.7266 12.8067v-1.7334l1.3866 -0.6933 1.3867 0.6933v1.7334l-1.3867 0.6933 -1.3866 -0.6933Z" stroke-width="1"></path><path id="Vector 847" stroke="#060644" stroke-linecap="round" stroke-linejoin="round" d="M5.61426 2.92667V1.19333L7.00092 0.5l1.38667 0.69333v1.73334L7.00092 3.62l-1.38666 -0.69333Z" stroke-width="1"></path></g></svg>