<svg xmlns="http://www.w3.org/2000/svg" viewBox="0 0 1536 1024" xmlns:v="https://vecta.io/nano"><style><![CDATA[.B{stroke-width:2}.C{stroke:#754538}.D{fill:#d96727}.E{stroke:#294464}.F{fill:#42657f}.G{fill:#102349}.H{stroke:#74775b}.I{fill:#d8ca6c}.J{stroke:#eca776}.K{stroke:#888587}]]></style><g fill="none" class="B"><path d="M686.89 459.58q29.93-25.75 40.52-34.16 14.05-11.15 23.99-19.5c2.64-2.22 5.05-3.88 8-2.07 6.37 3.92 12.74 9.61 22.17 17.44l46.1 38.28q8.49 7.32 15.72 14.27a1.03 1.01 43.8 0 0 1.44-.02q5.51-5.63 12.6-13.62 2.63-2.97 14.31-14.52c4.99-4.93 9.47-8.4 14.41-13.37 8.25-8.31 19.15-16.69 28.01-24.61q6.05-5.42 10.4-8.82a.94.93-36.7 0 0 .19-1.27q-11.37-15.83-.08-31.91a2.07 2.06-42.5 0 0 .1-2.22l-9.16-15.87a1.01 1.01 0 0 0-1.59-.2c-3.07 3.15-5.57 6.51-9.03 9.75q-25.94 24.34-50.92 46.67-4.56 4.07-9.33.15-64.7-53.25-74.5-60.72-3.01-2.3-5.4-3.82a2.11 2.1-48.6 0 0-2.47.16c-10.15 8.47-19.71 17.19-30.36 26.31q-29.98 25.68-69.61 58.98c-1.47 1.24-5.64 4.48-6.98 6.79q-1.19 2.06.88 2.43m-23.59-72.91q7.99-5.88 12.12-9.85c11.97-11.49 22.74-25.71 30-41.19q4.27-9.1 5.36-12.22c8.18-23.48 10.71-48.43 6.54-72.87q-1.72-10.12-2.96-14.84-7.46-28.6-25.99-52.02c-12.07-15.25-27.7-27.28-44.44-35.56q-23.26-11.51-51.1-14.19-3.98-.38-12.49-.48-9.99-.12-12.49.12-36.28 3.43-65.1 25.04-22.17 16.62-36.07 40.12-5.98 10.11-10.71 23.75-5.04 14.51-6.65 25.21c-4.44 29.6-.69 60.05 12.66 86.56 15.57 30.9 41.62 55.63 74 68.06q18.67 7.17 36.37 8.9 8.18.8 25.97.18c4.72-.16 8.78-1.38 12.89-2.11 19.05-3.37 36.39-11.05 52.09-22.61m516.28-193.62q.16.54.64 1.2 11.64 15.84 11.85 16.12 5.85 8.19 8.42 12.45 1.42 2.36 1.53 3.22a5.17 5.14-23.8 0 1-1.79 4.58l-67.41 56.7a.67.66-48 0 0 .05 1.06l3.26 2.24a3.33 3.27 4.8 0 1 1.11 1.29q2.35 4.82 1.13 9.44c-3.89 14.74-10.76 27.55-19.92 41.49a.33.31-31.2 0 0-.05.17v.3a.38.38 0 0 0 .64.28q13.2-12.25 14.68-13.74c8.58-8.63 17.02-16.26 25.02-23.96q15.25-14.68 21.82-20.69l21.49-19.83c5.24-4.67 11.44-11.66 17.93-16.53q4.15-3.11 7.86.6 8.9 8.91 22.76 20.95 1.06.92 2.1 1.35a.57.57 0 0 0 .79-.52v-77.63a1.02 1.02 0 0 0-1.02-1.02h-72.52a.38.38 0 0 0-.37.48" class="C"/><path d="M408.66 208.18a.79.79 0 0 0-.77-.95H65.15a1.09 1.08-88.9 0 0-1.08 1.05q-.24 6.2-.24 17.72l.04 299.75q-.07 29.81.21 61 .01 1.54.33 2.82a2 1.99 83.2 0 0 1.94 1.53h338.16a.87.85-77.6 0 0 .78-.51q1.33-2.94 3.36-5.73a7.38 7.31 76.3 0 0 .77-1.28q2.11-4.36 5.16-7.83a1.1 1.1 0 0 0-.67-1.82q-1.13-.15-3.91-.12l-114.99.24-183.84-.04c-8.42 0-15.36.43-23.63-.03q-2.63-.14-4.31-.87a2.81 2.79 8.7 0 1-1.69-2.28q-.4-3.63-.43-7.08l-.1-100.76q-.09-19.15-.02-53.49L80.94 240q0-1.97.57-11.64a1.9 1.89 66.4 0 1 .44-1.13l3.78-4.55a2.51 2.47-75.4 0 1 1.44-.86q3.49-.7 4.83-.7 24.49.02 84.75-.04 65.94-.07 142.75-.09 13.6 0 85.42.28a1.22 1.22 0 0 0 1.2-.98l2.54-12.11" class="E"/><path d="M93.82 233.63a.46.46 0 0 0-.44.46v327.53a1.06 1.05 0 0 0 1.06 1.05h325.24a.84.83-79.9 0 0 .78-.55c.48-1.35.87-2.96 1.68-4.47q2.19-4.09 5.17-9.45c1.65-2.97 4.23-6.29 6.69-8.22q30.93-24.28 60.7-48.29 5.48-4.41 13.17-10.85 10.66-8.91 13.42-10.57 5.04-3.02 10.3-.14 5.78 3.17 9.46 5.38a2.22 2.19-29.2 0 0 1.13.31h6.81a.43.43 0 0 0 .43-.43v-75.67a.52.52 0 0 0-.49-.52q-25.92-1.38-49.5-11.7a15.74 15.16 62.8 0 0-2.4-.82c-1.63-.41-3.17-.75-4.71-1.51q-35.07-17.17-57.68-47.28-19.01-25.33-26.27-56.95c-3.47-15.13-4.06-31.52-3.19-47.28a.56.56 0 0 0-.6-.59c-1.37.1-3.37.45-5.11.45q-127.43-.11-301.22-.04-1.06 0-4.43.15" class="K"/><path d="M966.04 358.95q-.01-.43-.28-.96-8.91-17.45-13.58-36.03a5.28 5.28 0 0 1 2.81-6.04l.19-.1a4.09 4.08 65.7 0 1 5.57 2.11q2.02 4.87 7.23 19.63 3.97 11.26 10.73 21.94a1.02 1.01 73.8 0 0 .86.48h13.07a1.95 1.95 0 0 0 1.72-1.03q6.38-11.72 12.12-26.95 1.32-3.47 5.35-16.4.59-1.89 1.8-3.63a1.81 1.79 8 0 1 .95-.71c5.64-1.75 8.76 2.14 7.15 7.5-4.09 13.57-9.36 25.93-15.82 40.09a.75.74 12.2 0 0 .68 1.05h33.06a2.8 2.79-70.8 0 0 2.19-1.06q3.49-4.39 7.94-9.3c14.52-16 27.94-33.09 37.83-51.76 4.14-7.79 8.07-15.34 8.71-23.37a.58.57-88.7 0 0-.59-.62q-10.89.33-16.61.86c-6.9.65-11.35-4.48-14.9-6.59q-19-11.34-39.7-4.58c-2.37.77-5.87 2.39-8.7 3.65-2.77 1.24-5.63 1.52-7.78-.68q-8.59-8.74-9.82-9.67-9.26-6.96-16.17-8.52-5.09-1.15-14.76-.56c-4.55.28-10.02 2.57-13.44 4.63q-9.39 5.66-18.06 13.19-3.86 3.34-7.93 2.32-17.89-4.48-32.96-.87-5.47 1.3-10.08 3.84a1.28 1.28 0 0 0-.55 1.66c6.4 13.76 15.23 28.07 23.89 41.47 5.98 9.25 15.07 25.54 22.89 37.03 2.24 3.3 3.91 6.8 5.17 9.42a1.67 1.67 0 0 0 2.01.87q4.35-1.39 8.03-1.37 11.5.07 18.96-.08a.83.83 0 0 0 .82-.86" class="C"/><path d="M934.91 373.16c-4.39 2.94-4.71 7.91-4.51 12.71a4.09 4.07-64.1 0 0 .76 2.21q3.82 5.36 9.93 7.34a2.17 2.15-36.4 0 0 .74.11q50.44-.46 95.57-.12c3.53.02 5.9-.61 9.01-1.71a5.28 5.26-85.6 0 0 2.86-2.46l2.88-5.36a2.89 2.87 62.5 0 0 .34-1.09q.54-5.12-.63-9.1c-.71-2.43-2-3.54-4.61-3.43-17.65.78-42.22.29-87.66.41-7.63.02-15.28-.44-23.35.04a2.81 2.75-63.1 0 0-1.33.45m-361.843 28.31a1.46 1.46 0 0 0-1.463-1.457l-9 .016a1.46 1.46 0 0 0-1.457 1.463l.127 72.58a1.46 1.46 0 0 0 1.463 1.458l9-.016a1.46 1.46 0 0 0 1.457-1.463l-.127-72.58" class="E"/><path d="M1010.05 828.66q-.11-32.39-.16-47.92-.02-6.71 3.8-10.9c2.51-2.74 6.85-6.13 10.53-7.87q9.75-4.63 20.23-7.65 8.82-2.54 21.29-3.59c19.87-1.69 37.66-.5 56.59 1.72a.56.55 2.8 0 0 .62-.55q-.16-50.49-.12-56.13c.04-7.06-.61-14.42.1-20.21 1.55-12.63 13.69-17.64 24.63-20.63q3.68-1.01 10.97-1.28 2.97-.11 10.98-1.28 11.86-1.74 27.56-2.43a.89.88-8.7 0 0 .82-1.11c-8.87-34.05-18.98-67.66-32.19-100.03-2.64-6.49-5.94-11.08-9.02-17.66-13.78-29.51-33.49-58.42-56.37-81.7-7.09-7.22-15.34-15.94-21.93-21.24q-9.46-7.6-28.35-20.42-1.13-.77-4.04-1.58a3.91 3.84-42.9 0 0-1.84-.05q-3.68.78-5.4.8-24.84.26-84.81.18-3.17 0-3.62.01-7.4.28-13.94-2.72a1.74 1.73-52.8 0 0-1.86.26q-30.14 25.98-43.95 38.89-5.79 5.41-22.42 22.93-11.33 11.95-20.31 24.76-14.54 20.72-25.01 41.75-4.87 9.77-6.73 12.99c-8.81 15.21-15.4 30.72-22.92 50.13q-4.85 12.52-9.46 33.63-3.02 13.85-2.95 29.28.08 17.77 1.88 29.42 3.97 25.68 15.94 48.9 9.57 18.55 21.84 32.46c10.9 12.35 23.81 23.52 38.53 31.03q14.19 7.23 23.87 10.29c16.04 5.06 32.38 9.84 49.69 12.53q38.46 5.98 77.17 5.36a.37.37 0 0 0 .36-.37m-595.55-41.4a.86.85-2.2 0 0 .86.79l45.62.04a.84.84 0 0 0 .84-.85q-.08-45.95-.06-115.94 0-6.84.23-7.57 1.13-3.65 6.02-3.65 63.68-.01 110.41.06 3 0 3.96.75c2.28 1.76 2.43 4.15 2.42 7.11q-.09 48.5-.05 119.41a.65.65 0 0 0 .65.65h47.45a.79.78-88.9 0 0 .78-.76q.07-2.26.08-8.8.08-72.75-.07-136.58-.01-5.22 1.13-7.17 1.86-3.18 5.09-5.33a1.14 1.13 59.7 0 0 .38-1.47q-8.61-16.58-34.6-67.32-1.59-3.09-5.64-8.89-2.06-2.95-7.61-7.26-1.64-1.27-16.42-14.03-38.12-32.88-46.09-39.51-3.42-2.84-7.15-5.55a2.68 2.67 49.2 0 0-2.83-.21q-2.41 1.28-5.06 3.65c-16.52 14.79-30.91 26.24-50.1 42.16q-3.17 2.63-18.02 13.54c-3.39 2.49-5 4.35-6.82 7.88l-15.9 29.7q-12.67 24.58-19.25 36.4c-2.17 3.89-3.69 8.01.34 11.33 3.03 2.49 6.43 5.27 7.46 8.41q1.25 3.8 1.26 10.25.07 87.2.26 102.75.43 35.91.43 36.01" class="C"/><path d="M545.49 488.45q19.88 17.3 31 27.33 20.72 18.68 29.98 27.46c3.91 3.71 6.57 6.94 9.19 11.36q3.46 5.84 5.88 10.6c12.15 23.93 21.02 40.09 30.76 61.34a2.4 2.38 77.6 0 0 2.17 1.4H771.2a1.22 1.22 0 0 0 1.15-.81q15.14-41.71 24.46-67.81.87-2.44 3-7.16a2.22 2.22 0 0 0-.49-2.51q-11.49-10.96-25.7-22.77-6-4.98-43.85-36c-1.99-1.62-3.7-3.16-6.25-3.15q-33.63.09-121.52-.06-47.97-.08-56.2-.04a.47.47 0 0 0-.31.82" class="E"/><path d="M1390.81 672.06q11.29.02 11.94 0 17.64-.57 33.75-4.53 10.65-2.61 20.39-7.81c3.48-1.86 5.57-4.74 3.88-8.38-1.8-3.87-6.68-6.21-10.74-7.81-18.14-7.17-38.34-9.07-58.78-9.42q-.17 0-.37 0-.2 0-.37 0c-20.44.27-40.65 2.1-58.81 9.2-4.07 1.58-8.96 3.9-10.77 7.77-1.7 3.63.37 6.52 3.85 8.39q9.72 5.24 20.36 7.89 16.09 4.02 33.73 4.66.65.02 11.94.04M713.03 781.99q.03-9.1-5.02-16.81-5.16-7.87-5.59-8.55-7.9-12.7-9.21-26.59c-1.18-12.43 2.28-26.3 8.34-37.25 2.35-4.25 9.11-13.24 14.74-12.95a2.15 2.04 60 0 1 .98.29c10.69 6.27 16.71 20.41 19.63 32.33q1.18 4.8 1.14 10.37-.06 9.23-.23 10.44c-1.64 11.3-5.76 20.71-12.36 29.89-2.74 3.8-5.75 10.22-5.83 15.4a.48.48 0 0 0 .73.42q.4-.23.57-.65 4.85-11.8 14.07-19.72c8.15-6.99 17.05-12.08 27.89-14.48 3.65-.81 6.77-.29 7.11 3.87q1.62 19.6-8.08 38.44a1.13 1.12-76.4 0 0 1 1.64h57.15a.63.63 0 0 0 .58-.87q-.18-.41-.6-.81-9.95-9.41-18.81-21.57c-4.15-5.69-7.51-12.58-10.56-17.31-7.95-12.32-12.15-25.48-16.18-39.73q-4.47-15.88-5.14-31.79-.78-18.42.87-35.77a.87.87 0 0 0-.87-.95H647.1a1.75 1.75 0 0 0-1.75 1.75v145.95a1.08 1.08 0 0 0 1.08 1.08h23.25a.69.69 0 0 0 .58-1.06q-8.8-13.77-9.93-29.79c-.29-4.13-.75-8.22.55-12.06a2.93 2.91 9 0 1 2.74-1.98q3.19-.04 6.95 1.53 10.24 4.27 12.74 5.51 4.04 1.99 11.09 6.9 8.48 5.9 13.21 15.28 1.47 2.92 4.54 9.78a.46.46 0 0 0 .88-.18" class="C"/><path d="M366.06 675.9q-.1-.54-.53-1.18-5.84-8.56-6.67-9.55c-2.77-3.3-4.75-4.44-9.62-4.46q-43.07-.13-98.22.03c-8.16.02-12.91.76-18.45 6.07-3.06 2.93-7.7 6.72-7.5 8.88a1.16 1.15 84.8 0 0 1.25 1.05q6.83-.55 10.9-.48 7.02.11 7.06.11 47.56-.2 95.97-.23 12.23 0 25.27.38a.53.53 0 0 0 .54-.62" class="E"/><path d="M1268.93 690.19c6.6-3.37 6.48-5.87 6.26-12.83-.12-3.7-2.96-5.65-6.25-7.22q-4.81-2.29-12.39-4.2-10.22-2.59-20.3-3.64c-4.37-.46-7.97-.2-12.04-.75q-3.22-.43-9.06-.51-17.24-.26-25.4.09-8.45.35-23.23 2.41-15.61 2.17-26.54 8.18-7.29 4-5.19 12.33.69 2.75 2.76 3.97c9.12 5.39 18.6 9.1 29.57 11.06q32.66 5.85 65.7 1.75c12.94-1.61 25.1-5.02 36.11-10.64m52.62-18.35l.14 17.18a4.49 4.46 19 0 0 1.72 3.5q3.74 2.91 8.37 4.97 16.56 7.35 34.98 9.18 11.32 1.13 17.49 1.13 10.32-.01 21.43-.29c12.71-.31 22.57-2.49 34.71-6.16q9.21-2.79 17.77-7.95c2.23-1.34 2.89-2.94 2.88-5.4q-.04-11.07.08-17.68a.49.49 0 0 0-.71-.44c-12.92 6.59-26.52 10.08-40.9 12.33q-5.32.83-24.9 1.64c-6.08.25-12.07-.49-17.4-.52-14.79-.07-29.77-3.34-44.3-7.74q-4.62-1.4-10.09-4.5a.85.85 0 0 0-1.27.75" class="C"/><path d="M525.8 720.89a.32.32 0 0 0 .47-.02l42.51-48.16a.32.32 0 0 0-.25-.53l-89.94.72a.32.32 0 0 0-.22.55l47.43 47.44m9.38 9.89a.32.32 0 0 0 0 .43l35.98 39.49a.32.32 0 0 0 .56-.22v-80.25a.32.32 0 0 0-.56-.22l-35.98 40.77m-19.37 0a.37.37 0 0 0-.01-.51l-40.02-40.02a.37.37 0 0 0-.63.26v83.27a.37.37 0 0 0 .64.25l40.02-43.25" class="E"/><path d="M715.21 758.56c12.53-17.17 16.13-38.65 5.08-57.51-1.04-1.77-3.16-4.38-4.56-6.7a.56.56 0 0 0-.92-.06c-15.26 19.05-13.19 44.85.02 64.26a.23.23 0 0 0 .38.01" class="H"/><path d="M1135.12 700.2a.38.37 15.5 0 0-.57.32v18.17a3.97 3.94 19.1 0 0 1.52 3.11c5.48 4.3 11.88 6.49 19.25 8.89 5.62 1.83 11.08 2.22 17.57 3.23 2.89.44 4.92 1.67 8.16 2.01q22.95 2.42 46.47 2.17c2.7-.03 7.59.32 9.2-.66q11.96-7.32 26.28-9.46 7.92-1.18 11.26-2a.85.85 0 0 0 .66-.83v-23.21a.75.75 0 0 0-1.11-.66c-10.44 5.67-22.31 8.39-33.25 10.24-5.5.93-13.42 2.46-20.8 2.6q-15.16.28-19.5.14c-24.3-.78-45.57-2.62-65.14-14.06" class="C"/><path d="M142.81 702.84c-11.35 11.51-16.15 25.07-10.16 40.79q3.16 8.3 8.73 14.8a.63.63 0 0 0 1-.06q5.84-8.66 8.89-19.24 5.95-20.59-7.83-36.27a.43.43 0 0 0-.63-.02m166.02 3.48c-13.79 15.69-14.02 33.74-2.22 50.95a.75.75 0 0 0 1.14.12c15.53-14.94 13.65-34.4 1.9-51.03a.52.52 0 0 0-.82-.04" class="H"/><path d="M1460.56 706.28q-25.63 12.13-54.59 13.38-20.35.88-32.48-.16-15.89-1.37-31.44-5.37-10.68-2.74-19.17-7.19a.61.61 0 0 0-.89.55l.13 16.35a.82.82 0 0 0 .84.81q5.8-.16 13.53.84 16.57 2.16 34.86 8.39 9.25 3.15 15.28 9.28a2.96 2.94 67 0 0 2.18.89q19.34-.44 38.67-3.6c6.05-.99 33.53-6.32 33.51-14.22q-.02-14.22.18-19.54a.43.43 0 0 0-.61-.41m-231.46 65.66v-21.85a.55.55 0 0 0-.51-.55q-4.02-.33-5.59-.34-13.95-.03-26.15-.38-8.19-.23-27.52-2.95-17.8-2.5-33.98-10.2a.52.51-77.1 0 0-.74.47v15.9a2.1 2.09-81.3 0 0 1.46 2q9.61 3.07 15.18 5.35c5.14 2.1 10.4 5.14 14.84 6.82a5.14 5.1-13.2 0 1 1.66 1.02q1.82 1.63 2.99 1.84.6.1 18.84 2c12.59 1.31 22.6 1.13 38.81 1.55a.69.68.8 0 0 .71-.68m11.011-18.185a70.18 18.94-179 0 0 69.839 20.162 70.18 18.94-179 0 0 70.5-17.712 70.18 18.94-179 0 0-69.839-20.162 70.18 18.94-179 0 0-70.5 17.712" class="C"/><path d="M565.4 785.89a1.24 1.24 0 0 0 .62-2.08q-22.09-22.26-41.46-44.26a1.09 1.09 0 0 0-1.64 0l-40.89 46.33a.83.82 20.7 0 0 .62 1.37q40.36-.04 72.6-.3 5.55-.04 10.15-1.06" class="E"/><path d="M1460.53 742.33c-9.13 4.46-17.14 7.42-27.05 9.4q-15.51 3.09-32.05 3.34c-3.13.05-5.9.37-9.2.49a.91.9 89 0 0-.87.91v22.69a.53.52-3 0 0 .58.52q4.35-.45 10.36-.51 3.74-.03 10.38-.69 16.66-1.66 30.73-5.33c4.97-1.3 11.49-3.96 15.58-6.84q2.13-1.5 2.08-5.52-.11-9.01.11-18.04a.46.45 77.6 0 0-.65-.42" class="C"/><path d="M723.78 797.79c22.73-3.16 34.79-19.23 35.36-41.49a.42.42 0 0 0-.53-.41c-18.88 5.34-29.5 23.63-35.37 41.25a.5.49 5.5 0 0 .54.65m-591.67 5.05q.04-.08-.02-.45-1.7-10.45-8.32-21.51-12.59-21.03-37.57-24.99a.42.42 0 0 0-.48.51q4.13 18.62 16.81 31.02c7.51 7.34 18.44 12.49 28.97 15.66a.53.53 0 0 0 .61-.24m539.88-45.44c-.21 5.01-.07 10.59 1.81 15.4 5.37 13.75 19.42 21.89 33.38 24.9a.66.66 0 0 0 .78-.8q-7.11-29.02-35.17-40.03a.59.59 0 0 0-.8.53m-518.62 44.32c22.1-3.58 45.09-18.54 43.52-43.97a.63.62 83 0 0-.73-.58c-22.92 3.71-37.01 23.38-43.08 44.22a.26.26 0 0 0 .29.33m146.72 3.32c-4.22-25.26-22.69-42.55-47.55-47.04a.45.45 0 0 0-.53.47c1.86 26.64 22.64 42.75 47.33 47.32a.65.64-89.7 0 0 .75-.75m22.31-2.21q.16.16.45.09c22.17-5.13 40.05-20.34 41.28-44.44q.01-.21-.18-.38-.18-.17-.39-.14c-23.94 2.99-37.8 21.94-41.29 44.43q-.04.29.13.44" class="H"/><path d="M1021.31 782.96c5.77 8.13 19.91 11.63 30.15 14.12q12.73 3.09 22.54 3.68 9.29.55 20.75 1.1 3.91.18 17.34-.96.14-.01 11.22-1.17 13.69-1.45 28.31-6.58c2.43-.86 10.73-3.89 11.43-7.1 1.04-4.83-.87-8.15-5.11-10.76q-6.05-3.72-11.52-5.46-19.18-6.1-40.44-7.7-5.61-.42-24.21-.27c-18.32.14-36.31 2.38-51.91 9.98-4.6 2.24-8.55 4.8-8.86 10.01a1.74 1.73-60.7 0 0 .31 1.11m288.77 28.16q9.93.1 14.91-.03c5.84-.14 11.97-1.04 18.11-1.68q8.82-.93 18.2-3.76 9.32-2.82 13-4.77c3.46-1.83 5.29-2.22 5.37-6.38q.23-12.36.29-20.22a.57.56 75.9 0 0-.83-.5q-7.47 4.06-16.37 6.5c-16.94 4.64-34.49 6.04-52.44 5.86-17.95-.17-35.46-1.91-52.32-6.88q-8.84-2.61-16.23-6.81a.57.56-74.8 0 0-.84.48q-.1 7.86-.11 20.22c0 4.16 1.83 4.59 5.25 6.49q3.64 2.02 12.9 5.02 9.33 3.01 18.13 4.11c6.12.76 12.24 1.78 18.07 2.03q4.98.23 14.91.32m150.5-32.05q-.53-.02-.84.14c-5.92 3.14-12 4.9-18.9 6.8q-6.04 1.67-13.22 2.63-17.02 2.29-35.33 2.8a1.12 1.12 0 0 0-1.09 1.13l.18 21.79a.87.87 0 0 0 .88.87q23.86-.06 47.61-5.37c6.43-1.44 14.67-4.2 19.42-8.01a4.8 4.78-19.5 0 0 1.79-3.73v-18.54a.51.51 0 0 0-.5-.51M1229 808.29v-23.16a.79.79 0 0 0-.78-.79q-26.15-.43-32.97-.72-9.46-.41-17.92-1.79a.85.84 4.3 0 0-.98.84l.18 22.16a1.01 1 3.3 0 0 .88.98q25.13 3.23 50.88 3.19a.71.71 0 0 0 .71-.71m-207.07-8.93v20.18a3.91 3.89-74.2 0 0 1.85 3.32c11.92 7.4 26.88 11.36 40.45 12.9 22.64 2.56 44.73 2.15 66.98-.87q11.28-1.53 22.63-6.32 5.03-2.12 8.87-4.86a3.21 3.2-17.7 0 0 1.36-2.62v-20.46a.59.59 0 0 0-.84-.53q-14.81 7.11-31.48 9.92-17.45 2.94-29.02 3.68-18.48 1.18-40.25-2.22-16.36-2.55-32.81-9.17-4.31-1.74-6.9-3.41a.55.55 0 0 0-.84.46m288.09 47.62q22.27.23 41.86-3.59 14.33-2.79 25.16-8.91 2.7-1.52 2.68-5.17-.06-10.82.33-17.31a.53.53 0 0 0-.77-.51q-12.83 6.4-26.46 8.66-11.5 1.91-18.29 2.6-10.77 1.09-24.27.95-13.5-.14-24.24-1.45-6.77-.83-18.23-2.97-13.58-2.54-26.28-9.21a.53.53 0 0 0-.78.5q.26 6.49-.02 17.31-.1 3.65 2.57 5.22 10.7 6.35 24.97 9.43 19.5 4.22 41.77 4.45m150.29-31.51q-.82-.03-1.33.22-11.24 5.39-23.56 7.7-.6.11-12.11 2.1c-10.87 1.87-20.46 2.4-31.17 2.46a.84.84 0 0 0-.83.84v25.31a1.05 1.04 88.5 0 0 1.1 1.05q15.84-.72 33.07-2.98 6.62-.86 11.08-2.07c7.18-1.93 13.96-3.79 20.09-7.71q4.57-2.92 4.4-8.59-.21-6.65-.16-17.73a.6.6 0 0 0-.58-.6m-282.63 27.77l49.23 2.15a1.62 1.62 0 0 0 1.69-1.54l.92-21.08a1.46.27-87.5 0 0-.21-1.47l-51.93-2.27a1.46.27-87.5 0 0-.33 1.44l-.92 21.08a1.62 1.62 0 0 0 1.55 1.69" class="C"/><path d="M583.95 836.25q-.12.23.03.67c4.72 14.89 16.28 26.56 32.68 26.24a.67.66-8.8 0 0 .63-.85c-4.76-15.88-16.85-24.23-32.85-26.34q-.33-.04-.49.28m228.77 27.38q.29-.24.17-.56c-5.75-15.67-16.92-25.99-34.02-27.19a.69.68 86.2 0 0-.72.83c3.39 16.62 17.79 25.65 33.89 27.04q.48.05.68-.12" class="H"/><path d="M1163.65 835.65q-.29.1-4.41 2.46-1.67.96-4.55 2.13-10.85 4.41-26.03 6.88-26.63 4.33-50.64 1.75c-9.3-1-17.2-1.27-26.05-3.13-11.1-2.34-19.69-4.5-28.73-9.75a.89.89 0 0 0-1.33.78q.09 6.26.16 16.13c.06 7.62 9.28 12.86 15.73 14.78 11.77 3.5 25.31 6.55 37.81 7.25q19.12 1.08 36.39.21 17.43-.87 34.63-6.26 5.77-1.8 10.97-5.11 6.67-4.23 6.55-12.59-.15-10.93-.01-15.15a.38.38 0 0 0-.49-.38" class="C"/><path d="M476.65 863.6q-.31-1.93-1.52-4.21-10.88-20.49-34.19-23.46a.73.73 0 0 0-.8.92c4.84 16.96 19.11 25.92 36.13 27.17a.36.36 0 0 0 .38-.42m26.79-19.2q-8.61 6.71-13.15 17.8a.7.7 0 0 0 .66.97q13.03-.16 21.72-6.93 8.68-6.77 12.02-19.37a.7.7 0 0 0-.77-.87q-11.87 1.69-20.48 8.4m164.15-8.26q-.15-.1-.55-.08-21.19.86-30.22 19.5-1.84 3.79-2.63 7.5a.7.7 0 0 0 .71.85c16.33-.59 27.09-12.56 32.92-26.86q.24-.58-.23-.91m171.84 7.46c-5.56 4.87-9 12.19-10.44 19.37a.64.63 13.6 0 0 .45.74q.23.06.67-.06 10.12-2.68 18.28-9.83 8.15-7.14 12.14-16.83.17-.42.14-.66a.64.63 83.9 0 0-.67-.54c-7.31.49-15.02 2.94-20.57 7.81" class="H"/><path d="M1240.82 846.89q.26 6.48.05 15.85-.15 6.9 5.19 10.48c13.41 8.98 31.66 11.92 47.44 12.56q20.51.82 39.74-1.06c12.88-1.26 26.33-4.01 37.63-10.3 4.95-2.76 8.06-6.58 8.49-11.88q.45-5.64.3-15.79a.79.78 74.5 0 0-1.18-.67q-7.1 4.11-14.67 6.23-22 6.16-43.38 6.53-22.53.38-35.19-1.19-22.23-2.76-43.69-11.28a.54.53-80.3 0 0-.73.52M67.4 894.78a.58.58 0 0 0 .48.9h145.41a.79.79 0 0 0 .67-1.21q-9.87-15.4-25.5-22.65-10.97-5.09-22.22-4.68-10.3.37-21.44 7.13-2.18 1.32-3.65.46-13.02-7.71-28.7-7.35c-18.64.43-34.97 12.41-45.05 27.4m310.07.29c-11.08-17.61-31.71-30.03-52.83-23.56-4.88 1.49-9.48 4.12-14.02 5.84q-2.38.89-3.91-.01c-13.36-7.92-29.6-9.34-43.87-2.5q-11.35 5.44-20.14 14.87-2.48 2.66-3.62 4.58a.92.92 0 0 0 .79 1.4h137.26a.4.4 0 0 0 .34-.62m118.17-758.24q-5.15 1.41-7.85 5.33" class="C"/><path d="M487.79 142.16q-4.19 1.68-6.64 3.49-11.67 8.64-22.18 22.57-17.36 22.99-23.94 51.54c-1.33 5.74-1.93 13.65-2.49 17.96q-.9 7.04-.57 13.54 1.22 23.96 10.92 45.65 2.21 4.94 5.02 8.7c1.44 1.92 2.07 4.15 3.51 5.83q1.54 1.81 2.85 3.85c5.68 8.86 12.72 18.06 21.2 24.99q6.55 5.36 6.59 5.39 4.54 3.33 9.65 4.7" class="J"/><path d="M491.71 350.37q1.7 3.03 5.11 3.22" class="C"/><path d="M496.82 353.59q9.08 6.33 20.22 9.82 16.15 5.07 30.57 5.99" class="J"/><path d="M547.61 369.4q4.61.89 7.4-.19" class="C"/><path d="M555.01 369.21q22.26.06 42.46-8.75 2.74-1.2 11.52-5.95" class="J"/><path d="M608.99 354.51l6.8-3.53" class="C"/><path d="M615.79 350.98q10.98-7.35 14.49-10.7 7.89-7.54 11.14-11.11 3.11-3.4 12.94-16.98c4.45-6.15 7.3-11.83 10.13-19.22q6.86-17.91 8.16-32.46.54-6.06.85-9.02.44-4.25.09-9.01-1.73-23.21-9.35-43.75-2.77-7.48-6.99-14.83-5.34-9.29-8.82-13.77-8.66-11.1-22.12-23.1-5.34-4.77-13.3-8.26a4.32 4.19-11.5 0 1-1.17-.75q-2.48-2.19-3.63-2.75-17.89-8.75-38.46-12.55c-5.4-1-11.52-.58-16.61-1.38a5.51 5.42-47.9 0 0-2.24.13q-2.17.61-6.33.57-3.42-.02-7.47.57-21.98 3.24-41.46 14.22" class="J"/><path d="M615.79 350.98q-.08-7.7-8.15-12.39c-4.31-2.5-12.01.29-7.06 6.48 2.67 3.33 5.88 5.64 8.41 9.44m-53.98 14.7q1.63-2.53 1.86-4.26.94-6.95.95-7.68c.06-3.45-.87-9.06-4.54-10.27-2.74-.91-6.12 1.33-6.34 4.25q-.64 8.42.67 18.15m-50.79-15.81q2.76-.55 3.53-1.24 6.43-5.85 11.07-12.93c3.35-5.13-4.25-10.7-8.36-5.75q-2.56 3.09-6.65 7.71-3.13 3.52-4.7 8.99m-3.92-208.21q5.1 8.29 9.73 16.29c2.33 4.03 5.67 6.33 10.15 3.03a1.57 1.55-15.9 0 0 .63-1.12q.34-4.33-.63-6.03-3.77-6.61-6.88-13.34-1.1-2.37-5.15-4.16m53.11-.7c-.03 4-.76 12.65 3.87 13.23 7.01.87 6.32-8.27 6.35-13.15.04-4.88.89-14.01-6.14-13.25-4.64.5-4.05 9.16-4.08 13.17m67.15 5.41l-4.83-3.17a2.75 2.75 0 0 0-3.81.78l-10.09 15.37a6.91 5.29-56.7 0 0 .63 8.68l.59.38a6.91 5.29-56.7 0 0 8.21-2.87l10.09-15.36a2.75 2.75 0 0 0-.79-3.81m-50.43 125.8l2.19 2.4a.46.42-2.6 0 0 .12.1c5.25 3.38 8.89 6.17 13.08 8.46q4.38 2.39 13.46 8.36 3.16 2.07 4.75 2.3c7.16 1.06 10.11-5.06 6.62-10.73q-1.24-2-4.95-4.13-13.45-7.7-22.53-13.18-2.94-1.77-4.16-4.21c-1.36-2.72-1.38-7.65-2.88-10.78-1.81-3.77-4.81-7.76-7.63-10.82-1.15-1.25-2.3-3.37-2.21-4.72q.49-8-.03-20.14-.51-11.92.33-29.3c.17-3.46-.57-9.9-5.08-10.17-4.77-.28-6.52 1.82-7.57 6.39-1.32 5.8-1.11 11.2-1.04 17.92q.03 2.88-.63 12.81-.61 9.21-.27 19.6c.1 3.1-.23 4.59-2.75 6.62q-5.5 4.43-7.09 11.82c-.91 4.26-1.31 9.46 1.89 12.73 3.86 3.94 7.35 8.15 11.65 8.61q6.53.69 12.75-.58a2.12 2.11 62.9 0 1 1.98.64m-99.48-65.52c2.85.94 8.34 1.45 8.25-3.16-.06-3.22-2.18-4.94-5.29-6.23q-7.45-3.1-14.39-5.71c-4.02-1.51-7.02 2.09-7.24 5.77a2.23 2.2-55.9 0 0 .19 1.03q1.01 2.35 2.45 2.87 4.8 1.71 16.03 5.43m192.431-12.454a5 5 0 0 0-6.542-2.683l-14.059 5.881a5 5 0 0 0-2.683 6.542l.162.387a5 5 0 0 0 6.542 2.683l14.06-5.881a5 5 0 0 0 2.683-6.542l-.162-.388m13.608 60.755l-.18-5.44a2.41 2.41 0 0 0-2.48-2.33l-12.92.43a6.93 4.79-1.9 0 0-6.77 5.02l.03.68a6.93 4.79-1.9 0 0 7.08 4.56l12.92-.43a2.41 2.41 0 0 0 2.32-2.49m-214.888-1.274a4.79 4.79 0 0 0-4.748-4.832l-14.659-.128a4.79 4.79 0 0 0-4.832 4.748l-.006.64a4.79 4.79 0 0 0 4.748 4.832l14.659.128a4.79 4.79 0 0 0 4.832-4.748l.006-.64m-2.482 62.164l17.72-5.45a2.35 2.35 0 0 0 1.55-2.94l-.49-1.6a6.41 6.09-17.1 0 0-7.92-3.94l-9.96 3.07a6.41 6.09-17.1 0 0-4.33 7.7l.49 1.61a2.35 2.35 0 0 0 2.94 1.55m193.79.57c3.53 1.64 6.83-.6 6.76-4.31-.1-5.51-15.67-14.28-19.37-8.82q-1.58 2.32-.91 5.14c.75 3.15 11.16 6.89 13.52 7.99" class="K"/><path d="M555.3 243.72c-6.55.03-12.99.76-10.41 9.45 1.39 4.65 6.8 6.84 11.06 6.34 4.09-.47 8.25-4.19 7.62-8.57-.54-3.69-4.62-7.24-8.27-7.22" class="E"/><path d="M295.61 277.54a7.35 7.35 0 0 0-7.35-7.35h-151.9a7.35 7.35 0 0 0-7.35 7.35v.18a7.35 7.35 0 0 0 7.35 7.35h151.9a7.35 7.35 0 0 0 7.35-7.35v-.18" class="J"/><path d="M400.63 327.69a9.51 9.51 0 0 0-9.51-9.51h-57.94a9.51 9.51 0 0 0-9.51 9.51v191.6a9.51 9.51 0 0 0 9.51 9.51h57.94a9.51 9.51 0 0 0 9.51-9.51v-191.6m-97.49 71.81a9.11 9.11 0 0 0-9.11-9.11h-57.66a9.11 9.11 0 0 0-9.11 9.11v120.14a9.11 9.11 0 0 0 9.11 9.11h57.66a9.11 9.11 0 0 0 9.11-9.11V399.5m-97.87 50.37a8.32 8.32 0 0 0-8.32-8.32h-58.26a8.32 8.32 0 0 0-8.32 8.32v67.34a8.32 8.32 0 0 0 8.32 8.32h58.26a8.32 8.32 0 0 0 8.32-8.32v-67.34" class="K"/><g class="C"><path d="M1227.62 320.86c-7.44 17.95-10.42 38.43-7.72 57.28 5.11 35.51 25.28 64.09 56.4 81.27q17.99 9.93 39.41 12.15c3.44.35 6.11.18 9.14.37 12.94.79 26.7-1.62 39.02-5.61q6.96-2.26 14.23-6.26c25.74-14.16 44.43-36.73 53.07-64.6q10.48-33.81-1.17-69.29c-9.78-29.78-31.01-53.3-60.06-65.64q-.58-.24-7.97-2.89c-15.83-5.68-33.88-6.66-50.84-4.43-5.31.7-8.7 1.78-15.28 3.45-18.37 4.64-36.08 17.63-48.69 31.8-8.35 9.39-14.75 20.85-19.54 32.4"/><path d="M1249.77 416.49c13.53 20.8 35.13 35.15 59.35 39.87q29.8 5.8 58.75-7.01 13.63-6.04 23.34-15.39 32.29-31.12 30.82-76.94-.3-9.43-4.44-23.9-2.38-8.34-7.7-16.85-7.04-11.29-10.71-15.45-8.04-9.12-12.58-12.67c-10.84-8.48-24.51-16.14-37.18-18.93q-18.31-4.03-39.26-.76-26.93 4.21-46.72 23.84-13.54 13.44-19.74 28.19c-5.18 12.32-8.25 23.76-9.01 37.27q-1.84 32.73 15.08 58.73"/></g><path d="M1285.589 290.691a83.13 83-120.7 0 0-28.926 113.855 83.13 83-120.7 0 0 113.809 29.104 83.13 83-120.7 0 0 28.926-113.855 83.13 83-120.7 0 0-113.809-29.104" class="E"/><path stroke="#8e6653" d="M1331.9 380.27q13.68-4.95 18.63-18.68"/><path d="M1350.53 361.59q1.19-.03 2.37-.71c1.64-.93 2.5-3.6 2.61-5.28q1.32-20.24-13.45-31.44c-23.87-18.1-57.8 1.58-54.42 30.89 1.89 16.44 14.31 28.19 30.57 30.24q5.04.64 10.03-.54 3.66-.86 3.66-4.48" class="E"/><path d="M1350.53 361.59q-2.88-1.34-2.41-4.08 3.12-18.33-11.53-28.63c-9.74-6.84-23.52-6-32.3 1.5-12.97 11.09-13.27 30.34-.3 41.61q9.55 8.3 24.25 5.79 2.39-.4 3.66 2.49" class="C"/><path d="M1376.07 381.73c.16 2.5-1.95 17.17 5.5 13.33a1.65 1.63-.8 0 0 .73-.74q.52-1.07.5-3.32-.04-10.36.05-19.84a2.5 2.49-77.6 0 0-1.46-2.29q-1.41-.65-3.64-.66-7.84-.07-17.64 0a3.97 3.96 4.9 0 0-3.87 3.25l-.06.28a2.74 2.73-83.9 0 0 2.67 3.31h11.27a.75.75 0 0 1 .53 1.28l-17.16 17.17a1.71 1.71 0 0 1-2.45-.03q-4.56-4.77-6.31-6.43c-2.28-2.16-4.1-1.24-6.15.81q-12.59 12.62-19.11 19.22a3.35 3.35 0 0 0-.14 4.57l.12.15a2.9 2.9 0 0 0 4.26.18l17.44-17.39a1.36 1.36 0 0 1 1.93.01q2.14 2.17 5.86 5.95c2.07 2.09 3.78 2.96 6.16.58q13.75-13.74 19.75-19.84a.71.71 0 0 1 1.22.45" class="E"/><path d="M388.7 331.22a1.09 1.09 0 0 0-1.09-1.09h-51.3a1.09 1.09 0 0 0-1.09 1.09v184.7a1.09 1.09 0 0 0 1.09 1.09h51.3a1.09 1.09 0 0 0 1.09-1.09v-184.7m936 .06c-.94-2.75-4.15-3.53-5.84-.85q-.34.55-1.44 2.7a1.92 1.9-89.3 0 1-.86.85q-1.55.75-2.26 1.06c-4.2 1.83-6.22 6.6-5.33 10.54 1.73 7.68 8.65 8.06 15.38 9.57q3.39.75 2.3 4.32c-.76 2.48-6.38 1.98-8.21 1.62a2.15 2.12-17 0 1-1.13-.59q-1.16-1.15-1.92-2.41a2.82 2.82 0 0 0-3-1.29c-5.45 1.18-2.74 6.75-.22 9.09 2.13 1.98 5.28 1.91 6.19 5.44.53 2.02 3.27 3.58 5.03 1.93 1.73-1.63 1.36-4.26 3.52-5.08 5.84-2.23 9.36-8.39 6.46-14.3-3.1-6.33-9.1-6.38-15.51-7.82-2.88-.64-1.98-4.3.62-4.68q3.89-.55 6.56.35a1.89 1.87-9.4 0 1 .86.61l1.9 2.46a1.8 1.7 83.4 0 0 .55.46q2.85 1.52 4.61-.69c2.37-2.96-.68-6.86-3.19-8.63q-.86-.61-3.66-1.98a1.56 1.53 3.6 0 1-.79-.88q-.12-.34-.62-1.8M291.762 403.164a1.23 1.23 0 0 0-1.232-1.228l-50.7.089a1.23 1.23 0 0 0-1.228 1.232l.197 112.68a1.23 1.23 0 0 0 1.232 1.228l50.7-.089a1.23 1.23 0 0 0 1.228-1.232l-.197-112.68M998.23 529.82q2.01-.12 5.26.83c8.74 2.57 15.92 5.89 20.59 14.02 2.71 4.74 4.49 8.88 7.99 10.31q7.65 3.13 16.22.92c9.92-2.56 6.48-11.22 3.47-17.94-8.69-19.38-29.47-31.07-49.73-33.78q-1.52-.2-3.58-.18a.77.77 0 0 1-.77-.86q1.19-10.03-1.7-18.52-.19-.56-2.11-2.82c-2.23-2.64-5.93-1.58-7.72.66-4.02 5.06-3.3 13.8-3.19 20.79a.97.97 0 0 1-.93.99c-22.02 1.11-44.99 11.28-52.21 34.08q-2.6 8.23-2.87 17.86-.26 9.63 2.32 17.9c6.65 21.39 25.14 33.82 45.62 40.77q5.4 1.83 8.69 2.94a.79.78 9.4 0 1 .54.74v68.23a.64.64 0 0 1-.76.63q-16.11-2.92-28.22-13.67c-5.58-4.94-7.2-10.41-10.11-16.64-1.53-3.25-3.51-4.75-6.83-4.94-4.07-.24-12.13-1.17-13.53 2.77q-.83 2.37-1.35 7.83a6.07 5.87 44 0 0 .05 1.5q.39 2.38 1.03 6.68c2.68 18.06 18.45 33.53 35.14 39.84q11.6 4.38 24.06 5.18a.64.64 0 0 1 .6.67q-.22 4.73.19 10.35.55 7.64 7.44 7.82c4.68.13 6.8-2.5 6.98-6.82q.24-5.74.04-11.16a.81.8 1 0 1 .86-.83q2.23.13 4.59-.17 10.67-1.38 20.34-4.63c21.92-7.36 38.71-26.11 38.71-50.16q.01-10.42-.21-14.45c-1.04-18.79-13.65-35-30.1-43.33q-13.28-6.72-27.92-9.39c-1.83-.33-4.9-1.09-6.34-1.65a1.28 1.28 0 0 1-.81-1.19l-.04-60.86a.32.32 0 0 1 .3-.32" class="C"/><path d="M1230.1 495.69c-3.28-23.58-16.52-42.27-39.56-50.22q-8.82-3.04-17.81-4.33a.61.61 0 0 0-.68.72c5.72 29.31 23.4 57.12 57.18 54.9a.94.94 0 0 0 .87-1.07m249.6-56.64c-30.92 5.89-53.82 25.26-58.58 56.93a.85.85 0 0 0 .83.98q20.6.33 35.27-11.45c13.41-10.78 21.21-28.51 23.03-45.95a.47.46 87.7 0 0-.55-.51" class="H"/><path d="M193.99 455.27a1.43 1.43 0 0 0-1.43-1.43h-49.2a1.43 1.43 0 0 0-1.43 1.43v56.7a1.43 1.43 0 0 0 1.43 1.43h49.2a1.43 1.43 0 0 0 1.43-1.43v-56.7m788.04 132.16q.61-2.6.63-6.18.15-27.35-.03-50.33a.92.92 0 0 0-1.03-.91c-7.9 1-14.05 3.02-19.34 8.96-5.4 6.08-6.39 14.55-5.42 23.01q1.77 15.5 14.57 21.82 4.08 2.01 9.85 4.06a.59.59 0 0 0 .77-.43m16.81 34.62v65.48a.56.56 0 0 0 .56.56q7.41.04 15.13-2.47c13.87-4.53 20.06-16.09 20-30.14q0-.38-.41-5.17c-.7-8.38-6.32-15.67-13.63-19.77q-10.9-6.1-21-8.98a.51.51 0 0 0-.65.49m-451.12-63.54l-47.5-.08a5.41 5.41 0 0 0-5.42 5.4l-.09 50.46a7.57 6.76-89.9 0 0 6.74 7.58l44.8.08a7.57 6.76-89.9 0 0 6.78-7.56l.09-50.46a5.41 5.41 0 0 0-5.4-5.42" class="C"/><path d="M541.655 569.711a.27.27 0 0 0-.269-.27l-34.64-.06a.27.27 0 0 0-.27.269l-.071 40.5a.27.27 0 0 0 .269.27l34.64.06a.27.27 0 0 0 .27-.269l.071-40.5" class="E"/></g><path d="M686.89 459.58q29.93-25.75 40.52-34.16 14.05-11.15 23.99-19.5c2.64-2.22 5.05-3.88 8-2.07 6.37 3.92 12.74 9.61 22.17 17.44l46.1 38.28q8.49 7.32 15.72 14.27a1.03 1.01 43.8 0 0 1.44-.02q5.51-5.63 12.6-13.62 2.63-2.97 14.31-14.52c4.99-4.93 9.47-8.4 14.41-13.37 8.25-8.31 19.15-16.69 28.01-24.61q6.05-5.42 10.4-8.82a.94.93-36.7 0 0 .19-1.27q-11.37-15.83-.08-31.91a2.07 2.06-42.5 0 0 .1-2.22l-9.16-15.87a1.01 1.01 0 0 0-1.59-.2c-3.07 3.15-5.57 6.51-9.03 9.75q-25.94 24.34-50.92 46.67-4.56 4.07-9.33.15-64.7-53.25-74.5-60.72-3.01-2.3-5.4-3.82a2.11 2.1-48.6 0 0-2.47.16c-10.15 8.47-19.71 17.19-30.36 26.31q-29.98 25.68-69.61 58.98c-1.47 1.24-5.64 4.48-6.98 6.79q-1.19 2.06.88 2.43-2.02 1.4-3.85.55c-1.95-.9-4.82-4.09-5.92-6.32a3.09 3.08 47.2 0 1 .11-2.92q1.7-2.91 4.4-5.12c12.82-10.5 22.99-19.6 36.59-31.1q25.41-21.47 60.62-52.45c2.95-2.6 8.95-8.31 14.17-10.33 3.3-1.28 7.46 1.85 10.31 4.17q17.25 14 40.68 32.68 11.82 9.43 17.54 14.22 13.12 11 17.46 14.5a1.54 1.54 0 0 0 2.05-.09q6.66-6.43 20.01-18.68 20.08-18.45 37.05-35.74a1.89 1.89 0 0 0 .31-2.23q-1.19-2.2-2.37-3.94-13.3-19.71-26.94-44.31c-5.36-9.67-12.69-22.77 2.99-27.97 3.01-.99 6.09-2.63 9.15-3.45q12.23-3.25 24.11-1.96c3.55.39 7.33 1.45 12.05 2.62a3.84 3.83 30.8 0 0 3.52-.89c5.43-4.94 8.77-8.09 14.4-11.43 7.59-4.5 15.05-7.9 23.77-8.41q3.83-.22 11.08.23c14.26.9 26.12 9.46 34.67 20.08a1.41 1.4 55.9 0 0 1.79.35c12.84-7.23 29.2-9 43.14-4.15q9.03 3.15 16.86 9.23 1.7 1.31 3.38 1.77a2.01 1.97 43.8 0 0 1.09-.01c4.38-1.28 7.85-4.74 11.96-8.28q21.43-18.46 48.61-40.58c5.39-4.39 10.45-9.16 14.84-12.47q2.25-1.69.68-3.89-5.22-7.31-6.77-9.27-.55-.7-15.12-18.35-2.47-3-4.22-6.93a3.15 3.13 39.3 0 1-.2-1.92c1.29-6.01 6.62-6.71 12.21-6.72q43.39-.07 78.99.11c4.83.02 11.84 1.19 13.05 6.44q.18.78.17 7.23 0 32.01-.05 73.59c-.01 4.64-.46 15.32-6.1 17.08-5.94 1.86-9.97-.05-14.75-3.91q-10.88-8.78-19.97-18.27a1.75 1.75 0 0 0-2.48-.06q-9.14 8.7-32.21 30.43l-53.05 49.61c-5.63 5.52-12.28 10.46-17.06 14.96-4.83 4.55-11.38 7.87-16.09 11.62q-7.92 6.3-16.41 15.28a1.76 1.76 0 0 0-.11 2.29q2.44 3.18 4.42 6.11c6.59 9.81 3.75 20.65-3.39 29.06a1.73 1.73 0 0 0 .36 2.57q23.33 15.48 42.44 34.51 23.6 23.5 38.89 45.08 18.07 25.5 29.53 49.69 12.25 25.88 21.87 50.41c9.07 23.14 16.06 45.59 18.3 68.76.08.86-.37 1.99-.38 2.74a.49.49 0 0 0 .58.5q1.32-.23 9.99.32 3.7.24 9.91.37 18.37.38 36.09 5.32c8.05 2.24 17.64 7.14 20.75 15.3q1.1 2.88 1.08 9.14-.05 19.95-.07 43.04a.46.46 0 0 0 .46.46l21.76-.18a.53.52 4.5 0 0 .52-.44c.27-1.7-.17-3.14-.17-5.33q.02-61.93.02-63.18c-.02-5.08-.11-8.96 3.17-13.79 4.09-6.03 14.61-10.16 21.42-12.01q16.77-4.56 35.79-6.07c4.05-.33 10.4-.03 15.63-.27 20.53-.93 42.37.68 62.32 7.19 8.82 2.87 21.83 8.39 24.69 18 .75 2.5 1.34 6.81 1.2 9.97q-.24 5.37-.1 41.98.24 61.06-.25 132.49-.02 3.11-.99 7.5c-1.44 6.51-8.15 12.53-13.67 15.09q-7.87 3.64-16.38 5.83-25.76 6.6-50.53 5.3a.97.97 0 0 0-1.02.93c-.37 8.74-10.15 15.53-17.31 18.98q-11.65 5.63-24.87 8.05-27.27 4.99-50.64 3.74-16.22-.87-33.09-4.42-10-2.1-19.35-6.43-8.86-4.1-13.6-10.84c-3.23-4.59-2.94-13.26-2.59-19.23a.87.86-89.1 0 0-.89-.92q-21.09.69-44.21-.76-2.74-.17-5.83-.83a1.57 1.56-78.9 0 0-1.86 1.25c-1.44 7.67-6.61 14.12-13.5 18.43-9.76 6.12-21.87 8.72-33.32 10.44q-20.8 3.14-42.62 2.75-3.61-.06-12.01-.46-22.61-1.05-42.88-8.72c-10.45-3.95-19.64-10.54-20.62-22.42-.38-4.47-.48-9.67-.29-14.85a.65.65 0 0 0-.67-.68c-15.9.52-31.57.4-46.18-.64q-7.09-.5-11.98-1.21c-5.84-.85-10.16-.95-15.97-1.89q-9.37-1.52-17.31-3.11-31.32-6.24-59.77-19.71-8.75-4.14-21.96-13.49-1.31-.92-5.33-.9-40.02.17-81.55-.09a6.56 6.54 29.9 0 0-3.42.92c-7.22 4.24-13.81 7.22-22.34 7.73a1.25 1.25 0 0 0-1.18 1.25v85.15a1.11 1.1 90 0 0 1.1 1.11h91.73a1.11 1.1 0 0 0 1.11-1.1v-20.1a1.05 1.04 2.7 0 0-.95-1.04q-8.13-.77-9.25-.9-13.98-1.64-24.3-10.33c-10.18-8.58-17.23-21.79-15.59-35.36a1.43 1.41-9.6 0 1 .81-1.12c4.87-2.26 10.88-.91 16.01-.07 14.57 2.4 28.96 13.01 34.86 26.88a.82.82 0 0 0 1.5.01c7.93-17.88 27.85-29.42 47.11-28.18 2.47.16 3.02 1.49 3.01 3.74q0 4.89-1.26 9.67c-5.34 20.19-21.51 33.48-42.3 35.15a.59.59 0 0 0-.55.59v21.47a.74.73 89.6 0 0 .74.74q39.77-.15 63.47-.01c4.43.02 8.86 1.62 8.47 6.89q-.38 5.14-5.69 5.14-808.08.01-850.06-.02c-2.78 0-5.65-1.23-6.22-4.27-1.76-9.44 11.3-8.11 16.93-7.95a1.65 1.64 13.5 0 0 1.53-.93c3.06-6.44 8.29-13.02 13.78-18.67 17.04-17.56 40.81-26.02 64.46-18.4a.9.89-81.1 0 0 1.17-.86v-43a.71.71 0 0 0-.69-.71q-15.63-.32-28.69-7.36-.28-.15-7.49-4.83c-10.7-6.95-19.42-20.89-22.17-33.1-1.57-6.95-2.84-12.58-2.31-19.25q.41-5 5.49-4.96 4.92.04 7.45.39c11.98 1.64 25.4 7.61 34.52 16.32q7.49 7.15 12.23 15.02a.63.58-87.8 0 0 .12.14l.72.6a.8.8 0 0 0 1.29-.8q-.81-3.57-1.92-6.85c-1.66-4.92-5.47-9.67-7.64-12.75-4.26-6.04-5.95-13.21-6.65-20.9-1.27-14.01 4.82-28.52 14.11-38.99 3.93-4.43 9.34-9.44 14.81-4.09q15.98 15.59 17.2 36.76.2 3.53-.27 6.01c-.54 2.86-.42 5.2-1.28 7.98q-2.89 9.47-6.11 13.72c-5.79 7.63-9.73 11.84-10.95 19.27q-.09.54.29 1.11a.68.68 0 0 0 1.11.05q3.33-4.26 9.32-10.95c4.08-4.55 9.27-8.14 14.03-11.23q12.65-8.19 28.58-9.58c3.07-.27 7.71.37 8.29 4.14 1.02 6.6-.65 14.66-2.61 21.52-7.16 25-28.75 40.52-53.96 43.37q-2.46.28-4.15.1a.93.92 2.8 0 0-1.02.92v45.04a.62.61 77.7 0 0 .87.56c7-3.2 15.7-5.45 23.4-4.93 19.98 1.35 36.48 13.05 48.24 29.12q3.47 4.75 5.86 10.81.33.84 1.16.64.21-.05.51-.51 4.7-6.96 8.78-12.23 7.74-9.99 18.51-16.23c5.61-3.25 11.5-6.14 17.87-7.59q15.6-3.56 30.44 2.16a.83.82-80.8 0 0 1.12-.81c-.09-1.84-.39-3.58-.39-5.54q-.02-12.67.16-38.37a1.4 1.39 2.4 0 0-1.29-1.4q-1.95-.14-7.54-.67c-29.54-2.81-51.83-25.36-53.81-55.08-.29-4.47-.53-7.72.61-11.41a2.95 2.94-1.5 0 1 1.82-1.91c3.93-1.41 7.23-.51 12.37.05 14.98 1.63 28.35 9.26 38.5 20.69q2.67 3.01 6.46 8.46a1.11 1.1-63.6 0 0 2.01-.68c-.26-6.04-5.03-11.77-7.92-15.96-9.31-13.53-10.43-29.58-4.1-44.82 2.73-6.57 10.21-19.2 18.28-20.01 2.94-.29 4.2 1.4 6.56 3.44q10.6 9.14 14.12 25.43 1.42 6.58 1.22 9.37-.93 13.33-7.47 24.4-3.63 6.15-6.6 11.4c-2.62 4.64-2.15 7.3-2.12 11.94q0 .46.49.63.71.23 1-.43c8.93-20.87 32.74-35.54 55.56-33.98q2.17.15 3.68 1.13a1.76 1.73 6.6 0 1 .67.83q.91 2.41.79 6.11c-.99 31.74-22.17 55.19-53.07 60.28q-3.37.55-7.9.22a.81.81 0 0 0-.87.81v45.44a.59.58-8.2 0 0 .75.56c5.48-1.59 12.4-3.42 17.99-3.67 22.3-1 42.29 13.47 52.31 32.69.83 1.59 1.04 2.81 1.48 4.32a.9.89-8.2 0 0 .86.64h89.44a1.12 1.12 0 0 0 1.12-1.12v-20.21a1.4 1.39 89.4 0 0-1.42-1.4c-7.43.17-13.82-.32-20.69-3.49q-21.59-9.94-26.87-33.61-.84-3.77-.53-7.59a3.25 3.24 78 0 1 1.68-2.59c3.84-2.07 11.23-1.05 15.86-.08q25.19 5.3 36.4 28.06a.67.67 0 0 0 1.2.02q13.44-25.27 42.14-28.85c4.57-.57 10.71-1.18 10.13 5.55q-2.34 26.83-25.28 38.46c-4.51 2.29-9.86 3.75-13.98 3.88q-5.11.15-7.88.66a1.04 1.04 0 0 0-.85 1.02v20.61a.69.69 0 0 0 .69.69h130.04a1.16 1.15 90 0 0 1.15-1.16v-20.74a.74.74 0 0 0-.78-.74c-23.51 1.05-43.32-16.84-46.28-39.95q-.47-3.69-.19-5c.75-3.63 5.47-3.74 8.5-3.54q15.01 1.04 25.26 8.27c8.14 5.76 14.92 12.24 17.91 21.45q.27.86 1.22.64.24-.05.45-.5 7.96-16.9 24.6-25.09c7.27-3.58 16.59-6.01 24.81-4.47 3.72.69 2.56 8.04 2.11 10.38-2.47 12.87-11.01 25.37-22.71 31.55q-11.22 5.93-23.85 6.21a.7.7 0 0 0-.68.7v20.73a1.27 1.27 0 0 0 1.27 1.27h79.2a1.06 1.05 90 0 0 1.05-1.06v-84.98a.84.84 0 0 0-.81-.84q-15.39-.69-28.27-9.29a3.53 3.53 0 0 0-2.51-.54q-4.09.67-9.32.68-203.86.07-255.47-.04c-9.83-.02-12.9-4.68-12.9-14.17q-.01-83.93-.18-130.6-.02-4.05-.19-6.75c-.14-2.06-.87-2.9-2.81-3.94-8.71-4.69-14.11-13.73-10.19-23.57q3.1-7.76 7.68-14.96a1.17 1.17 0 0 0-.99-1.8h-96.09a1.03 1.03 0 0 0-1.03 1.03v43.74a.89.89 0 0 0 .89.89h51.37a5.22 5.11-36.6 0 1 1.39.19q5.49 1.57 8.14 3.55 10.69 8 16.03 20.42c2.04 4.75 3.17 10.59-2.29 12.67q-1.58.6-5.81.6-124.8-.03-147.56.01c-2.66 0-7.61-.53-8.52-3.81-2.52-9.2 12.11-24.21 17.97-28.83q5.95-4.69 14.58-4.74 15.67-.1 41.5-.08a.47.46-90 0 0 .46-.47v-44.18a.85.85 0 0 0-.83-.85q-6.1-.1-10.41-.1-207.85.03-208.23.02-12.43-.1-16.14-10.89c-.97-2.85-.78-7.3-.78-9.9q0-41.19-.01-367.55 0-8.66 1.52-12.19 3.76-8.77 15.63-8.78 206.58-.04 343.7.02a1.58 1.58 0 0 0 1.49-1.06q6.33-18.29 17.29-34.21c15.19-22.07 34.45-39.89 58.64-50.88 7.23-3.28 15.9-6.78 24.2-8.61q17.31-3.8 23.18-4.3 4.19-.36 19.19-.3 10.23.04 19.07 1.69c36.37 6.74 68.71 24.68 91.94 52.96q27.21 33.11 32.77 77.22.97 7.71 1.17 21.32.16 11.67-1.35 21.3-2.68 17.15-7.48 30.73-7.22 20.42-21.83 40.62-6.37 8.82-14.16 15.94-10.7 9.78-16.2 13.94-16.76 12.66-38.05 20.2-8.31 2.94-16.11 4.1a1.78 1.77-4.4 0 0-1.51 1.75V475a.82.81 0 0 0 .82.81q46.57-.07 139.49.08 5.03 0 8.2 2.49 21.06 16.55 38.01 31.42 2.29 2.01 7.74 6.15c5.21 3.96 11.44 9.79 16.51 13.53q5.59 4.13 9.22 7.14a1.81 1.81 0 0 0 2.76-.57c8.54-16.64 18.92-34.23 29.61-49.27q.7-.98 1.26-2.77a.91.89-61.8 0 0-.28-.96l-80.2-66.57a.53.53 0 0 0-.69.01c-4.84 4.29-13 10.42-19.58 15.98q-27.65 23.38-37.36 31.24c-4.06 3.28-10.22-.84-12.81-4.13zm-54.18-98.38q7.99-5.88 12.12-9.85c11.97-11.49 22.74-25.71 30-41.19q4.27-9.1 5.36-12.22c8.18-23.48 10.71-48.43 6.54-72.87q-1.72-10.12-2.96-14.84-7.46-28.6-25.99-52.02c-12.07-15.25-27.7-27.28-44.44-35.56q-23.26-11.51-51.1-14.19-3.98-.38-12.49-.48-9.99-.12-12.49.12-36.28 3.43-65.1 25.04-22.17 16.62-36.07 40.12-5.98 10.11-10.71 23.75-5.04 14.51-6.65 25.21c-4.44 29.6-.69 60.05 12.66 86.56 15.57 30.9 41.62 55.63 74 68.06q18.67 7.17 36.37 8.9 8.18.8 25.97.18c4.72-.16 8.78-1.38 12.89-2.11 19.05-3.37 36.39-11.05 52.09-22.61zm516.28-193.62q.16.54.64 1.2 11.64 15.84 11.85 16.12 5.85 8.19 8.42 12.45 1.42 2.36 1.53 3.22a5.17 5.14-23.8 0 1-1.79 4.58l-67.41 56.7a.67.66-48 0 0 .05 1.06l3.26 2.24a3.33 3.27 4.8 0 1 1.11 1.29q2.35 4.82 1.13 9.44c-3.89 14.74-10.76 27.55-19.92 41.49a.33.31-31.2 0 0-.05.17v.3a.38.38 0 0 0 .64.28q13.2-12.25 14.68-13.74c8.58-8.63 17.02-16.26 25.02-23.96q15.25-14.68 21.82-20.69l21.49-19.83c5.24-4.67 11.44-11.66 17.93-16.53q4.15-3.11 7.86.6 8.9 8.91 22.76 20.95 1.06.92 2.1 1.35a.57.57 0 0 0 .79-.52v-77.63a1.02 1.02 0 0 0-1.02-1.02h-72.52a.38.38 0 0 0-.37.48zm-740.33 40.6a.79.79 0 0 0-.77-.95H65.15a1.09 1.08-88.9 0 0-1.08 1.05q-.24 6.2-.24 17.72l.04 299.75q-.07 29.81.21 61 .01 1.54.33 2.82a2 1.99 83.2 0 0 1.94 1.53h338.16a.87.85-77.6 0 0 .78-.51q1.33-2.94 3.36-5.73a7.38 7.31 76.3 0 0 .77-1.28q2.11-4.36 5.16-7.83a1.1 1.1 0 0 0-.67-1.82q-1.13-.15-3.91-.12l-114.99.24-183.84-.04c-8.42 0-15.36.43-23.63-.03q-2.63-.14-4.31-.87a2.81 2.79 8.7 0 1-1.69-2.28q-.4-3.63-.43-7.08l-.1-100.76q-.09-19.15-.02-53.49L80.94 240q0-1.97.57-11.64a1.9 1.89 66.4 0 1 .44-1.13l3.78-4.55a2.51 2.47-75.4 0 1 1.44-.86q3.49-.7 4.83-.7 24.49.02 84.75-.04 65.94-.07 142.75-.09 13.6 0 85.42.28a1.22 1.22 0 0 0 1.2-.98l2.54-12.11zM93.82 233.63a.46.46 0 0 0-.44.46v327.53a1.06 1.05 0 0 0 1.06 1.05h325.24a.84.83-79.9 0 0 .78-.55c.48-1.35.87-2.96 1.68-4.47q2.19-4.09 5.17-9.45c1.65-2.97 4.23-6.29 6.69-8.22q30.93-24.28 60.7-48.29 5.48-4.41 13.17-10.85 10.66-8.91 13.42-10.57 5.04-3.02 10.3-.14 5.78 3.17 9.46 5.38a2.22 2.19-29.2 0 0 1.13.31h6.81a.43.43 0 0 0 .43-.43v-75.67a.52.52 0 0 0-.49-.52q-25.92-1.38-49.5-11.7a15.74 15.16 62.8 0 0-2.4-.82c-1.63-.41-3.17-.75-4.71-1.51q-35.07-17.17-57.68-47.28-19.01-25.33-26.27-56.95c-3.47-15.13-4.06-31.52-3.19-47.28a.56.56 0 0 0-.6-.59c-1.37.1-3.37.45-5.11.45q-127.43-.11-301.22-.04-1.06 0-4.43.15zm872.22 125.32q-.01-.43-.28-.96-8.91-17.45-13.58-36.03a5.28 5.28 0 0 1 2.81-6.04l.19-.1a4.09 4.08 65.7 0 1 5.57 2.11q2.02 4.87 7.23 19.63 3.97 11.26 10.73 21.94a1.02 1.01 73.8 0 0 .86.48h13.07a1.95 1.95 0 0 0 1.72-1.03q6.38-11.72 12.12-26.95 1.32-3.47 5.35-16.4.59-1.89 1.8-3.63a1.81 1.79 8 0 1 .95-.71c5.64-1.75 8.76 2.14 7.15 7.5-4.09 13.57-9.36 25.93-15.82 40.09a.75.74 12.2 0 0 .68 1.05h33.06a2.8 2.79-70.8 0 0 2.19-1.06q3.49-4.39 7.94-9.3c14.52-16 27.94-33.09 37.83-51.76 4.14-7.79 8.07-15.34 8.71-23.37a.58.57-88.7 0 0-.59-.62q-10.89.33-16.61.86c-6.9.65-11.35-4.48-14.9-6.59q-19-11.34-39.7-4.58c-2.37.77-5.87 2.39-8.7 3.65-2.77 1.24-5.63 1.52-7.78-.68q-8.59-8.74-9.82-9.67-9.26-6.96-16.17-8.52-5.09-1.15-14.76-.56c-4.55.28-10.02 2.57-13.44 4.63q-9.39 5.66-18.06 13.19-3.86 3.34-7.93 2.32-17.89-4.48-32.96-.87-5.47 1.3-10.08 3.84a1.28 1.28 0 0 0-.55 1.66c6.4 13.76 15.23 28.07 23.89 41.47 5.98 9.25 15.07 25.54 22.89 37.03 2.24 3.3 3.91 6.8 5.17 9.42a1.67 1.67 0 0 0 2.01.87q4.35-1.39 8.03-1.37 11.5.07 18.96-.08a.83.83 0 0 0 .82-.86zm-31.13 14.21c-4.39 2.94-4.71 7.91-4.51 12.71a4.09 4.07-64.1 0 0 .76 2.21q3.82 5.36 9.93 7.34a2.17 2.15-36.4 0 0 .74.11q50.44-.46 95.57-.12c3.53.02 5.9-.61 9.01-1.71a5.28 5.26-85.6 0 0 2.86-2.46l2.88-5.36a2.89 2.87 62.5 0 0 .34-1.09q.54-5.12-.63-9.1c-.71-2.43-2-3.54-4.61-3.43-17.65.78-42.22.29-87.66.41-7.63.02-15.28-.44-23.35.04a2.81 2.75-63.1 0 0-1.33.45zm-361.843 28.31a1.46 1.46 0 0 0-1.463-1.457l-9 .016a1.46 1.46 0 0 0-1.457 1.463l.127 72.58a1.46 1.46 0 0 0 1.463 1.458l9-.016a1.46 1.46 0 0 0 1.457-1.463l-.127-72.58zm436.983 427.19q-.11-32.39-.16-47.92-.02-6.71 3.8-10.9c2.51-2.74 6.85-6.13 10.53-7.87q9.75-4.63 20.23-7.65 8.82-2.54 21.29-3.59c19.87-1.69 37.66-.5 56.59 1.72a.56.55 2.8 0 0 .62-.55q-.16-50.49-.12-56.13c.04-7.06-.61-14.42.1-20.21 1.55-12.63 13.69-17.64 24.63-20.63q3.68-1.01 10.97-1.28 2.97-.11 10.98-1.28 11.86-1.74 27.56-2.43a.89.88-8.7 0 0 .82-1.11c-8.87-34.05-18.98-67.66-32.19-100.03-2.64-6.49-5.94-11.08-9.02-17.66-13.78-29.51-33.49-58.42-56.37-81.7-7.09-7.22-15.34-15.94-21.93-21.24q-9.46-7.6-28.35-20.42-1.13-.77-4.04-1.58a3.91 3.84-42.9 0 0-1.84-.05q-3.68.78-5.4.8-24.84.26-84.81.18-3.17 0-3.62.01-7.4.28-13.94-2.72a1.74 1.73-52.8 0 0-1.86.26q-30.14 25.98-43.95 38.89-5.79 5.41-22.42 22.93-11.33 11.95-20.31 24.76-14.54 20.72-25.01 41.75-4.87 9.77-6.73 12.99c-8.81 15.21-15.4 30.72-22.92 50.13q-4.85 12.52-9.46 33.63-3.02 13.85-2.95 29.28.08 17.77 1.88 29.42 3.97 25.68 15.94 48.9 9.57 18.55 21.84 32.46c10.9 12.35 23.81 23.52 38.53 31.03q14.19 7.23 23.87 10.29c16.04 5.06 32.38 9.84 49.69 12.53q38.46 5.98 77.17 5.36a.37.37 0 0 0 .36-.37zm-595.55-41.4a.86.85-2.2 0 0 .86.79l45.62.04a.84.84 0 0 0 .84-.85q-.08-45.95-.06-115.94 0-6.84.23-7.57 1.13-3.65 6.02-3.65 63.68-.01 110.41.06 3 0 3.96.75c2.28 1.76 2.43 4.15 2.42 7.11q-.09 48.5-.05 119.41a.65.65 0 0 0 .65.65h47.45a.79.78-88.9 0 0 .78-.76q.07-2.26.08-8.8.08-72.75-.07-136.58-.01-5.22 1.13-7.17 1.86-3.18 5.09-5.33a1.14 1.13 59.7 0 0 .38-1.47q-8.61-16.58-34.6-67.32-1.59-3.09-5.64-8.89-2.06-2.95-7.61-7.26-1.64-1.27-16.42-14.03-38.12-32.88-46.09-39.51-3.42-2.84-7.15-5.55a2.68 2.67 49.2 0 0-2.83-.21q-2.41 1.28-5.06 3.65c-16.52 14.79-30.91 26.24-50.1 42.16q-3.17 2.63-18.02 13.54c-3.39 2.49-5 4.35-6.82 7.88l-15.9 29.7q-12.67 24.58-19.25 36.4c-2.17 3.89-3.69 8.01.34 11.33 3.03 2.49 6.43 5.27 7.46 8.41q1.25 3.8 1.26 10.25.07 87.2.26 102.75.43 35.91.43 36.01zm130.99-298.81q19.88 17.3 31 27.33 20.72 18.68 29.98 27.46c3.91 3.71 6.57 6.94 9.19 11.36q3.46 5.84 5.88 10.6c12.15 23.93 21.02 40.09 30.76 61.34a2.4 2.38 77.6 0 0 2.17 1.4H771.2a1.22 1.22 0 0 0 1.15-.81q15.14-41.71 24.46-67.81.87-2.44 3-7.16a2.22 2.22 0 0 0-.49-2.51q-11.49-10.96-25.7-22.77-6-4.98-43.85-36c-1.99-1.62-3.7-3.16-6.25-3.15q-33.63.09-121.52-.06-47.97-.08-56.2-.04a.47.47 0 0 0-.31.82zm845.32 183.61q11.29.02 11.94 0 17.64-.57 33.75-4.53 10.65-2.61 20.39-7.81c3.48-1.86 5.57-4.74 3.88-8.38-1.8-3.87-6.68-6.21-10.74-7.81-18.14-7.17-38.34-9.07-58.78-9.42q-.17 0-.37 0-.2 0-.37 0c-20.44.27-40.65 2.1-58.81 9.2-4.07 1.58-8.96 3.9-10.77 7.77-1.7 3.63.37 6.52 3.85 8.39q9.72 5.24 20.36 7.89 16.09 4.02 33.73 4.66.65.02 11.94.04zM713.03 781.99q.03-9.1-5.02-16.81-5.16-7.87-5.59-8.55-7.9-12.7-9.21-26.59c-1.18-12.43 2.28-26.3 8.34-37.25 2.35-4.25 9.11-13.24 14.74-12.95a2.15 2.04 60 0 1 .98.29c10.69 6.27 16.71 20.41 19.63 32.33q1.18 4.8 1.14 10.37-.06 9.23-.23 10.44c-1.64 11.3-5.76 20.71-12.36 29.89-2.74 3.8-5.75 10.22-5.83 15.4a.48.48 0 0 0 .73.42q.4-.23.57-.65 4.85-11.8 14.07-19.72c8.15-6.99 17.05-12.08 27.89-14.48 3.65-.81 6.77-.29 7.11 3.87q1.62 19.6-8.08 38.44a1.13 1.12-76.4 0 0 1 1.64h57.15a.63.63 0 0 0 .58-.87q-.18-.41-.6-.81-9.95-9.41-18.81-21.57c-4.15-5.69-7.51-12.58-10.56-17.31-7.95-12.32-12.15-25.48-16.18-39.73q-4.47-15.88-5.14-31.79-.78-18.42.87-35.77a.87.87 0 0 0-.87-.95H647.1a1.75 1.75 0 0 0-1.75 1.75v145.95a1.08 1.08 0 0 0 1.08 1.08h23.25a.69.69 0 0 0 .58-1.06q-8.8-13.77-9.93-29.79c-.29-4.13-.75-8.22.55-12.06a2.93 2.91 9 0 1 2.74-1.98q3.19-.04 6.95 1.53 10.24 4.27 12.74 5.51 4.04 1.99 11.09 6.9 8.48 5.9 13.21 15.28 1.47 2.92 4.54 9.78a.46.46 0 0 0 .88-.18zM366.06 675.9q-.1-.54-.53-1.18-5.84-8.56-6.67-9.55c-2.77-3.3-4.75-4.44-9.62-4.46q-43.07-.13-98.22.03c-8.16.02-12.91.76-18.45 6.07-3.06 2.93-7.7 6.72-7.5 8.88a1.16 1.15 84.8 0 0 1.25 1.05q6.83-.55 10.9-.48 7.02.11 7.06.11 47.56-.2 95.97-.23 12.23 0 25.27.38a.53.53 0 0 0 .54-.62zm902.87 14.29c6.6-3.37 6.48-5.87 6.26-12.83-.12-3.7-2.96-5.65-6.25-7.22q-4.81-2.29-12.39-4.2-10.22-2.59-20.3-3.64c-4.37-.46-7.97-.2-12.04-.75q-3.22-.43-9.06-.51-17.24-.26-25.4.09-8.45.35-23.23 2.41-15.61 2.17-26.54 8.18-7.29 4-5.19 12.33.69 2.75 2.76 3.97c9.12 5.39 18.6 9.1 29.57 11.06q32.66 5.85 65.7 1.75c12.94-1.61 25.1-5.02 36.11-10.64zm52.62-18.35l.14 17.18a4.49 4.46 19 0 0 1.72 3.5q3.74 2.91 8.37 4.97 16.56 7.35 34.98 9.18 11.32 1.13 17.49 1.13 10.32-.01 21.43-.29c12.71-.31 22.57-2.49 34.71-6.16q9.21-2.79 17.77-7.95c2.23-1.34 2.89-2.94 2.88-5.4q-.04-11.07.08-17.68a.49.49 0 0 0-.71-.44c-12.92 6.59-26.52 10.08-40.9 12.33q-5.32.83-24.9 1.64c-6.08.25-12.07-.49-17.4-.52-14.79-.07-29.77-3.34-44.3-7.74q-4.62-1.4-10.09-4.5a.85.85 0 0 0-1.27.75zM525.8 720.89a.32.32 0 0 0 .47-.02l42.51-48.16a.32.32 0 0 0-.25-.53l-89.94.72a.32.32 0 0 0-.22.55l47.43 47.44zm9.38 9.89a.32.32 0 0 0 0 .43l35.98 39.49a.32.32 0 0 0 .56-.22v-80.25a.32.32 0 0 0-.56-.22l-35.98 40.77zm-19.37 0a.37.37 0 0 0-.01-.51l-40.02-40.02a.37.37 0 0 0-.63.26v83.27a.37.37 0 0 0 .64.25l40.02-43.25zm199.4 27.78c12.53-17.17 16.13-38.65 5.08-57.51-1.04-1.77-3.16-4.38-4.56-6.7a.56.56 0 0 0-.92-.06c-15.26 19.05-13.19 44.85.02 64.26a.23.23 0 0 0 .38.01zm419.91-58.36a.38.37 15.5 0 0-.57.32v18.17a3.97 3.94 19.1 0 0 1.52 3.11c5.48 4.3 11.88 6.49 19.25 8.89 5.62 1.83 11.08 2.22 17.57 3.23 2.89.44 4.92 1.67 8.16 2.01q22.95 2.42 46.47 2.17c2.7-.03 7.59.32 9.2-.66q11.96-7.32 26.28-9.46 7.92-1.18 11.26-2a.85.85 0 0 0 .66-.83v-23.21a.75.75 0 0 0-1.11-.66c-10.44 5.67-22.31 8.39-33.25 10.24-5.5.93-13.42 2.46-20.8 2.6q-15.16.28-19.5.14c-24.3-.78-45.57-2.62-65.14-14.06zm-992.31 2.64c-11.35 11.51-16.15 25.07-10.16 40.79q3.16 8.3 8.73 14.8a.63.63 0 0 0 1-.06q5.84-8.66 8.89-19.24 5.95-20.59-7.83-36.27a.43.43 0 0 0-.63-.02zm166.02 3.48c-13.79 15.69-14.02 33.74-2.22 50.95a.75.75 0 0 0 1.14.12c15.53-14.94 13.65-34.4 1.9-51.03a.52.52 0 0 0-.82-.04zm1151.73-.04q-25.63 12.13-54.59 13.38-20.35.88-32.48-.16-15.89-1.37-31.44-5.37-10.68-2.74-19.17-7.19a.61.61 0 0 0-.89.55l.13 16.35a.82.82 0 0 0 .84.81q5.8-.16 13.53.84 16.57 2.16 34.86 8.39 9.25 3.15 15.28 9.28a2.96 2.94 67 0 0 2.18.89q19.34-.44 38.67-3.6c6.05-.99 33.53-6.32 33.51-14.22q-.02-14.22.18-19.54a.43.43 0 0 0-.61-.41zm-231.46 65.66v-21.85a.55.55 0 0 0-.51-.55q-4.02-.33-5.59-.34-13.95-.03-26.15-.38-8.19-.23-27.52-2.95-17.8-2.5-33.98-10.2a.52.51-77.1 0 0-.74.47v15.9a2.1 2.09-81.3 0 0 1.46 2q9.61 3.07 15.18 5.35c5.14 2.1 10.4 5.14 14.84 6.82a5.14 5.1-13.2 0 1 1.66 1.02q1.82 1.63 2.99 1.84.6.1 18.84 2c12.59 1.31 22.6 1.13 38.81 1.55a.69.68.8 0 0 .71-.68zm11.011-18.185a70.18 18.94-179 0 0 69.839 20.162 70.18 18.94-179 0 0 70.5-17.712 70.18 18.94-179 0 0-69.839-20.162 70.18 18.94-179 0 0-70.5 17.712zM565.4 785.89a1.24 1.24 0 0 0 .62-2.08q-22.09-22.26-41.46-44.26a1.09 1.09 0 0 0-1.64 0l-40.89 46.33a.83.82 20.7 0 0 .62 1.37q40.36-.04 72.6-.3 5.55-.04 10.15-1.06zm895.13-43.56c-9.13 4.46-17.14 7.42-27.05 9.4q-15.51 3.09-32.05 3.34c-3.13.05-5.9.37-9.2.49a.91.9 89 0 0-.87.91v22.69a.53.52-3 0 0 .58.52q4.35-.45 10.36-.51 3.74-.03 10.38-.69 16.66-1.66 30.73-5.33c4.97-1.3 11.49-3.96 15.58-6.84q2.13-1.5 2.08-5.52-.11-9.01.11-18.04a.46.45 77.6 0 0-.65-.42zm-736.75 55.46c22.73-3.16 34.79-19.23 35.36-41.49a.42.42 0 0 0-.53-.41c-18.88 5.34-29.5 23.63-35.37 41.25a.5.49 5.5 0 0 .54.65zm-591.67 5.05q.04-.08-.02-.45-1.7-10.45-8.32-21.51-12.59-21.03-37.57-24.99a.42.42 0 0 0-.48.51q4.13 18.62 16.81 31.02c7.51 7.34 18.44 12.49 28.97 15.66a.53.53 0 0 0 .61-.24zm539.88-45.44c-.21 5.01-.07 10.59 1.81 15.4 5.37 13.75 19.42 21.89 33.38 24.9a.66.66 0 0 0 .78-.8q-7.11-29.02-35.17-40.03a.59.59 0 0 0-.8.53zm-518.62 44.32c22.1-3.58 45.09-18.54 43.52-43.97a.63.62 83 0 0-.73-.58c-22.92 3.71-37.01 23.38-43.08 44.22a.26.26 0 0 0 .29.33zm146.72 3.32c-4.22-25.26-22.69-42.55-47.55-47.04a.45.45 0 0 0-.53.47c1.86 26.64 22.64 42.75 47.33 47.32a.65.64-89.7 0 0 .75-.75zm22.31-2.21q.16.16.45.09c22.17-5.13 40.05-20.34 41.28-44.44q.01-.21-.18-.38-.18-.17-.39-.14c-23.94 2.99-37.8 21.94-41.29 44.43q-.04.29.13.44zm698.91-19.87c5.77 8.13 19.91 11.63 30.15 14.12q12.73 3.09 22.54 3.68 9.29.55 20.75 1.1 3.91.18 17.34-.96.14-.01 11.22-1.17 13.69-1.45 28.31-6.58c2.43-.86 10.73-3.89 11.43-7.1 1.04-4.83-.87-8.15-5.11-10.76q-6.05-3.72-11.52-5.46-19.18-6.1-40.44-7.7-5.61-.42-24.21-.27c-18.32.14-36.31 2.38-51.91 9.98-4.6 2.24-8.55 4.8-8.86 10.01a1.74 1.73-60.7 0 0 .31 1.11zm288.77 28.16q9.93.1 14.91-.03c5.84-.14 11.97-1.04 18.11-1.68q8.82-.93 18.2-3.76 9.32-2.82 13-4.77c3.46-1.83 5.29-2.22 5.37-6.38q.23-12.36.29-20.22a.57.56 75.9 0 0-.83-.5q-7.47 4.06-16.37 6.5c-16.94 4.64-34.49 6.04-52.44 5.86-17.95-.17-35.46-1.91-52.32-6.88q-8.84-2.61-16.23-6.81a.57.56-74.8 0 0-.84.48q-.1 7.86-.11 20.22c0 4.16 1.83 4.59 5.25 6.49q3.64 2.02 12.9 5.02 9.33 3.01 18.13 4.11c6.12.76 12.24 1.78 18.07 2.03q4.98.23 14.91.32zm150.5-32.05q-.53-.02-.84.14c-5.92 3.14-12 4.9-18.9 6.8q-6.04 1.67-13.22 2.63-17.02 2.29-35.33 2.8a1.12 1.12 0 0 0-1.09 1.13l.18 21.79a.87.87 0 0 0 .88.87q23.86-.06 47.61-5.37c6.43-1.44 14.67-4.2 19.42-8.01a4.8 4.78-19.5 0 0 1.79-3.73v-18.54a.51.51 0 0 0-.5-.51zM1229 808.29v-23.16a.79.79 0 0 0-.78-.79q-26.15-.43-32.97-.72-9.46-.41-17.92-1.79a.85.84 4.3 0 0-.98.84l.18 22.16a1.01 1 3.3 0 0 .88.98q25.13 3.23 50.88 3.19a.71.71 0 0 0 .71-.71zm-207.07-8.93v20.18a3.91 3.89-74.2 0 0 1.85 3.32c11.92 7.4 26.88 11.36 40.45 12.9 22.64 2.56 44.73 2.15 66.98-.87q11.28-1.53 22.63-6.32 5.03-2.12 8.87-4.86a3.21 3.2-17.7 0 0 1.36-2.62v-20.46a.59.59 0 0 0-.84-.53q-14.81 7.11-31.48 9.92-17.45 2.94-29.02 3.68-18.48 1.18-40.25-2.22-16.36-2.55-32.81-9.17-4.31-1.74-6.9-3.41a.55.55 0 0 0-.84.46zm288.09 47.62q22.27.23 41.86-3.59 14.33-2.79 25.16-8.91 2.7-1.52 2.68-5.17-.06-10.82.33-17.31a.53.53 0 0 0-.77-.51q-12.83 6.4-26.46 8.66-11.5 1.91-18.29 2.6-10.77 1.09-24.27.95-13.5-.14-24.24-1.45-6.77-.83-18.23-2.97-13.58-2.54-26.28-9.21a.53.53 0 0 0-.78.5q.26 6.49-.02 17.31-.1 3.65 2.57 5.22 10.7 6.35 24.97 9.43 19.5 4.22 41.77 4.45zm150.29-31.51q-.82-.03-1.33.22-11.24 5.39-23.56 7.7-.6.11-12.11 2.1c-10.87 1.87-20.46 2.4-31.17 2.46a.84.84 0 0 0-.83.84v25.31a1.05 1.04 88.5 0 0 1.1 1.05q15.84-.72 33.07-2.98 6.62-.86 11.08-2.07c7.18-1.93 13.96-3.79 20.09-7.71q4.57-2.92 4.4-8.59-.21-6.65-.16-17.73a.6.6 0 0 0-.58-.6zm-282.63 27.77l49.23 2.15a1.62 1.62 0 0 0 1.69-1.54l.92-21.08a1.46.27-87.5 0 0-.21-1.47l-51.93-2.27a1.46.27-87.5 0 0-.33 1.44l-.92 21.08a1.62 1.62 0 0 0 1.55 1.69zm-593.73-6.99q-.12.23.03.67c4.72 14.89 16.28 26.56 32.68 26.24a.67.66-8.8 0 0 .63-.85c-4.76-15.88-16.85-24.23-32.85-26.34q-.33-.04-.49.28zm228.77 27.38q.29-.24.17-.56c-5.75-15.67-16.92-25.99-34.02-27.19a.69.68 86.2 0 0-.72.83c3.39 16.62 17.79 25.65 33.89 27.04q.48.05.68-.12zm350.93-27.98q-.29.1-4.41 2.46-1.67.96-4.55 2.13-10.85 4.41-26.03 6.88-26.63 4.33-50.64 1.75c-9.3-1-17.2-1.27-26.05-3.13-11.1-2.34-19.69-4.5-28.73-9.75a.89.89 0 0 0-1.33.78q.09 6.26.16 16.13c.06 7.62 9.28 12.86 15.73 14.78 11.77 3.5 25.31 6.55 37.81 7.25q19.12 1.08 36.39.21 17.43-.87 34.63-6.26 5.77-1.8 10.97-5.11 6.67-4.23 6.55-12.59-.15-10.93-.01-15.15a.38.38 0 0 0-.49-.38zm-687 27.95q-.31-1.93-1.52-4.21-10.88-20.49-34.19-23.46a.73.73 0 0 0-.8.92c4.84 16.96 19.11 25.92 36.13 27.17a.36.36 0 0 0 .38-.42zm26.79-19.2q-8.61 6.71-13.15 17.8a.7.7 0 0 0 .66.97q13.03-.16 21.72-6.93 8.68-6.77 12.02-19.37a.7.7 0 0 0-.77-.87q-11.87 1.69-20.48 8.4zm164.15-8.26q-.15-.1-.55-.08-21.19.86-30.22 19.5-1.84 3.79-2.63 7.5a.7.7 0 0 0 .71.85c16.33-.59 27.09-12.56 32.92-26.86q.24-.58-.23-.91zm171.84 7.46c-5.56 4.87-9 12.19-10.44 19.37a.64.63 13.6 0 0 .45.74q.23.06.67-.06 10.12-2.68 18.28-9.83 8.15-7.14 12.14-16.83.17-.42.14-.66a.64.63 83.9 0 0-.67-.54c-7.31.49-15.02 2.94-20.57 7.81zm401.39 3.29q.26 6.48.05 15.85-.15 6.9 5.19 10.48c13.41 8.98 31.66 11.92 47.44 12.56q20.51.82 39.74-1.06c12.88-1.26 26.33-4.01 37.63-10.3 4.95-2.76 8.06-6.58 8.49-11.88q.45-5.64.3-15.79a.79.78 74.5 0 0-1.18-.67q-7.1 4.11-14.67 6.23-22 6.16-43.38 6.53-22.53.38-35.19-1.19-22.23-2.76-43.69-11.28a.54.53-80.3 0 0-.73.52zM67.4 894.78a.58.58 0 0 0 .48.9h145.41a.79.79 0 0 0 .67-1.21q-9.87-15.4-25.5-22.65-10.97-5.09-22.22-4.68-10.3.37-21.44 7.13-2.18 1.32-3.65.46-13.02-7.71-28.7-7.35c-18.64.43-34.97 12.41-45.05 27.4zm310.07.29c-11.08-17.61-31.71-30.03-52.83-23.56-4.88 1.49-9.48 4.12-14.02 5.84q-2.38.89-3.91-.01c-13.36-7.92-29.6-9.34-43.87-2.5q-11.35 5.44-20.14 14.87-2.48 2.66-3.62 4.58a.92.92 0 0 0 .79 1.4h137.26a.4.4 0 0 0 .34-.62zm828.28-536.31c.63-11.39 2.25-22.61 5.93-34.06q10.81-33.59 37.09-57.36 13.59-12.29 28.75-19.02 16.63-7.38 33.89-9.68 3.62-.48 16.84-.72 12.53-.23 25.79 2.75 22.96 5.18 40.19 17.11c10.7 7.42 21.4 16.42 29.27 26.99 5.29 7.11 10.98 15.83 14.79 24.51q10.33 23.54 11.34 47.54c1.79 42.45-15.85 80.78-50.59 106.23-21.73 15.92-47.92 23.5-74.53 22.64-6.24-.21-14.35-.92-21.42-2.35q-26.79-5.42-50.66-23.73c-31.33-24.03-48.87-61.66-46.68-100.85zm21.87-37.9c-7.44 17.95-10.42 38.43-7.72 57.28 5.11 35.51 25.28 64.09 56.4 81.27q17.99 9.93 39.41 12.15c3.44.35 6.11.18 9.14.37 12.94.79 26.7-1.62 39.02-5.61q6.96-2.26 14.23-6.26c25.74-14.16 44.43-36.73 53.07-64.6q10.48-33.81-1.17-69.29c-9.78-29.78-31.01-53.3-60.06-65.64q-.58-.24-7.97-2.89c-15.83-5.68-33.88-6.66-50.84-4.43-5.31.7-8.7 1.78-15.28 3.45-18.37 4.64-36.08 17.63-48.69 31.8-8.35 9.39-14.75 20.85-19.54 32.4z" class="G"/><path d="M686.89 459.58q-6.07-5.13-11.94-10.04-7.55-6.3-14.62-13.12-1.64-1.57-4.03-2.31-2.07-.37-.88-2.43c1.34-2.31 5.51-5.55 6.98-6.79q39.63-33.3 69.61-58.98l30.36-26.31a2.11 2.1-48.6 0 1 2.47-.16q2.39 1.52 5.4 3.82 9.8 7.47 74.5 60.72 4.77 3.92 9.33-.15 24.98-22.33 50.92-46.67c3.46-3.24 5.96-6.6 9.03-9.75a1.01 1.01 0 0 1 1.59.2l9.16 15.87a2.07 2.06-42.5 0 1-.1 2.22q-11.29 16.08.08 31.91a.94.93-36.7 0 1-.19 1.27q-4.35 3.4-10.4 8.82c-8.86 7.92-19.76 16.3-28.01 24.61-4.94 4.97-9.42 8.44-14.41 13.37q-11.68 11.55-14.31 14.52-7.09 7.99-12.6 13.62a1.03 1.01 43.8 0 1-1.44.02q-7.23-6.95-15.72-14.27c-12.65-10.91-31.76-26.37-46.1-38.28-9.43-7.83-15.8-13.52-22.17-17.44-2.95-1.81-5.36-.15-8 2.07q-9.94 8.35-23.99 19.5-10.59 8.41-40.52 34.16z" class="D"/><path d="M1240.44 484.65c1.05 4.47 5.21 19.17-.41 21.11q-3.54 1.23-8.91 1.59-9.71.64-17.32.16c-23.82-1.52-39.66-25.68-47.74-45.84q-4.38-10.92-6.31-23.66c-.81-5.3.35-9.93 6.47-9.89q8.69.06 18.52 2.19c27.18 5.88 49.26 27.11 55.7 54.34zm-10.34 11.04c-3.28-23.58-16.52-42.27-39.56-50.22q-8.82-3.04-17.81-4.33a.61.61 0 0 0-.68.72c5.72 29.31 23.4 57.12 57.18 54.9a.94.94 0 0 0 .87-1.07zm258.12-67.33c3.69.11 5.95 1.51 5.91 5.71q-.05 6.82-1.97 13.8c-5.97 21.74-18.15 39.7-36.92 52.36-7.76 5.24-15.27 7.7-24.88 7.56-4.6-.07-17.95-.53-19.56-5.3q-.5-1.47-.51-2.46-.17-17.88 6.86-31.14 3.95-7.46 10.47-15.05 5.5-6.4 13.75-12.09 20.6-14.19 46.85-13.39zm-8.52 10.69c-30.92 5.89-53.82 25.26-58.58 56.93a.85.85 0 0 0 .83.98q20.6.33 35.27-11.45c13.41-10.78 21.21-28.51 23.03-45.95a.47.46 87.7 0 0-.55-.51z" class="G"/><path d="M632.71 361.2c-15.7 11.56-33.04 19.24-52.09 22.61-4.11.73-8.17 1.95-12.89 2.11q-17.79.62-25.97-.18-17.7-1.73-36.37-8.9c-32.38-12.43-58.43-37.16-74-68.06-13.35-26.51-17.1-56.96-12.66-86.56q1.61-10.7 6.65-25.21 4.73-13.64 10.71-23.75 13.9-23.5 36.07-40.12 28.82-21.61 65.1-25.04 2.5-.24 12.49-.12 8.51.1 12.49.48 27.84 2.68 51.1 14.19c16.74 8.28 32.37 20.31 44.44 35.56q18.53 23.42 25.99 52.02 1.24 4.72 2.96 14.84c4.17 24.44 1.64 49.39-6.54 72.87q-1.09 3.12-5.36 12.22c-7.26 15.48-18.03 29.7-30 41.19q-4.13 3.97-12.12 9.85zM495.64 136.83q-5.15 1.41-7.85 5.33-4.19 1.68-6.64 3.49-11.67 8.64-22.18 22.57-17.36 22.99-23.94 51.54c-1.33 5.74-1.93 13.65-2.49 17.96q-.9 7.04-.57 13.54 1.22 23.96 10.92 45.65 2.21 4.94 5.02 8.7c1.44 1.92 2.07 4.15 3.51 5.83q1.54 1.81 2.85 3.85c5.68 8.86 12.72 18.06 21.2 24.99q6.55 5.36 6.59 5.39 4.54 3.33 9.65 4.7 1.7 3.03 5.11 3.22 9.08 6.33 20.22 9.82 16.15 5.07 30.57 5.99 4.61.89 7.4-.19 22.26.06 42.46-8.75 2.74-1.2 11.52-5.95l6.8-3.53q10.98-7.35 14.49-10.7 7.89-7.54 11.14-11.11 3.11-3.4 12.94-16.98c4.45-6.15 7.3-11.83 10.13-19.22q6.86-17.91 8.16-32.46.54-6.06.85-9.02.44-4.25.09-9.01-1.73-23.21-9.35-43.75-2.77-7.48-6.99-14.83-5.34-9.29-8.82-13.77-8.66-11.1-22.12-23.1-5.34-4.77-13.3-8.26a4.32 4.19-11.5 0 1-1.17-.75q-2.48-2.19-3.63-2.75-17.89-8.75-38.46-12.55c-5.4-1-11.52-.58-16.61-1.38a5.51 5.42-47.9 0 0-2.24.13q-2.17.61-6.33.57-3.42-.02-7.47.57-21.98 3.24-41.46 14.22zm653.35 30.75a.38.38 0 0 1 .37-.48h72.52a1.02 1.02 0 0 1 1.02 1.02v77.63a.57.57 0 0 1-.79.52q-1.04-.43-2.1-1.35-13.86-12.04-22.76-20.95-3.71-3.71-7.86-.6c-6.49 4.87-12.69 11.86-17.93 16.53-8.75 7.82-12.11 11.24-21.49 19.83q-6.57 6.01-21.82 20.69l-25.02 23.96q-1.48 1.49-14.68 13.74a.38.38 0 0 1-.64-.28v-.3a.33.31-31.2 0 1 .05-.17c9.16-13.94 16.03-26.75 19.92-41.49q1.22-4.62-1.13-9.44a3.33 3.27 4.8 0 0-1.11-1.29l-3.26-2.24a.67.66-48 0 1-.05-1.06l67.41-56.7a5.17 5.14-23.8 0 0 1.79-4.58q-.11-.86-1.53-3.22-2.57-4.26-8.42-12.45-.21-.28-11.85-16.12-.48-.66-.64-1.2z" class="D"/><path d="M408.66 208.18l-2.54 12.11a1.22 1.22 0 0 1-1.2.98q-71.82-.28-85.42-.28-76.81.02-142.75.09-60.26.06-84.75.04-1.34 0-4.83.7a2.51 2.47-75.4 0 0-1.44.86l-3.78 4.55a1.9 1.89 66.4 0 0-.44 1.13q-.57 9.67-.57 11.64l.05 169.5q-.07 34.34.02 53.49l.1 100.76q.03 3.45.43 7.08a2.81 2.79 8.7 0 0 1.69 2.28q1.68.73 4.31.87c8.27.46 15.21.03 23.63.03l183.84.04 114.99-.24q2.78-.03 3.91.12a1.1 1.1 0 0 1 .67 1.82q-3.05 3.47-5.16 7.83a7.38 7.31 76.3 0 1-.77 1.28q-2.03 2.79-3.36 5.73a.87.85-77.6 0 1-.78.51H66.35a2 1.99 83.2 0 1-1.94-1.53q-.32-1.28-.33-2.82-.28-31.19-.21-61L63.83 226q0-11.52.24-17.72a1.09 1.08-88.9 0 1 1.08-1.05h342.74a.79.79 0 0 1 .77.95z" class="F"/><path fill="#ffe7c4" d="M93.82 233.63q3.37-.15 4.43-.15 173.79-.07 301.22.04c1.74 0 3.74-.35 5.11-.45a.56.56 0 0 1 .6.59c-.87 15.76-.28 32.15 3.19 47.28q7.26 31.62 26.27 56.95 22.61 30.11 57.68 47.28c1.54.76 3.08 1.1 4.71 1.51a15.74 15.16 62.8 0 1 2.4.82q23.58 10.32 49.5 11.7a.52.52 0 0 1 .49.52v75.67a.43.43 0 0 1-.43.43h-6.81a2.22 2.19-29.2 0 1-1.13-.31q-3.68-2.21-9.46-5.38-5.26-2.88-10.3.14-2.76 1.66-13.42 10.57-7.69 6.44-13.17 10.85-29.77 24.01-60.7 48.29c-2.46 1.93-5.04 5.25-6.69 8.22q-2.98 5.36-5.17 9.45c-.81 1.51-1.2 3.12-1.68 4.47a.84.83-79.9 0 1-.78.55H94.44a1.06 1.05 0 0 1-1.06-1.05V234.09a.46.46 0 0 1 .44-.46zm201.79 43.91a7.35 7.35 0 0 0-7.35-7.35h-151.9a7.35 7.35 0 0 0-7.35 7.35v.18a7.35 7.35 0 0 0 7.35 7.35h151.9a7.35 7.35 0 0 0 7.35-7.35v-.18zm105.02 50.15a9.51 9.51 0 0 0-9.51-9.51h-57.94a9.51 9.51 0 0 0-9.51 9.51v191.6a9.51 9.51 0 0 0 9.51 9.51h57.94a9.51 9.51 0 0 0 9.51-9.51v-191.6zm-97.49 71.81a9.11 9.11 0 0 0-9.11-9.11h-57.66a9.11 9.11 0 0 0-9.11 9.11v120.14a9.11 9.11 0 0 0 9.11 9.11h57.66a9.11 9.11 0 0 0 9.11-9.11V399.5zm-97.87 50.37a8.32 8.32 0 0 0-8.32-8.32h-58.26a8.32 8.32 0 0 0-8.32 8.32v67.34a8.32 8.32 0 0 0 8.32 8.32h58.26a8.32 8.32 0 0 0 8.32-8.32v-67.34z"/><path d="M966.04 358.95a.83.83 0 0 1-.82.86q-7.46.15-18.96.08-3.68-.02-8.03 1.37a1.67 1.67 0 0 1-2.01-.87c-1.26-2.62-2.93-6.12-5.17-9.42-7.82-11.49-16.91-27.78-22.89-37.03-8.66-13.4-17.49-27.71-23.89-41.47a1.28 1.28 0 0 1 .55-1.66q4.61-2.54 10.08-3.84 15.07-3.61 32.96.87 4.07 1.02 7.93-2.32 8.67-7.53 18.06-13.19c3.42-2.06 8.89-4.35 13.44-4.63q9.67-.59 14.76.56 6.91 1.56 16.17 8.52 1.23.93 9.82 9.67c2.15 2.2 5.01 1.92 7.78.68 2.83-1.26 6.33-2.88 8.7-3.65q20.7-6.76 39.7 4.58c3.55 2.11 8 7.24 14.9 6.59q5.72-.53 16.61-.86a.58.57-88.7 0 1 .59.62c-.64 8.03-4.57 15.58-8.71 23.37-9.89 18.67-23.31 35.76-37.83 51.76q-4.45 4.91-7.94 9.3a2.8 2.79-70.8 0 1-2.19 1.06h-33.06a.75.74 12.2 0 1-.68-1.05c6.46-14.16 11.73-26.52 15.82-40.09 1.61-5.36-1.51-9.25-7.15-7.5a1.81 1.79 8 0 0-.95.71q-1.21 1.74-1.8 3.63-4.03 12.93-5.35 16.4-5.74 15.23-12.12 26.95a1.95 1.95 0 0 1-1.72 1.03h-13.07a1.02 1.01 73.8 0 1-.86-.48q-6.76-10.68-10.73-21.94-5.21-14.76-7.23-19.63a4.09 4.08 65.7 0 0-5.57-2.11l-.19.1a5.28 5.28 0 0 0-2.81 6.04q4.67 18.58 13.58 36.03.27.53.28.96zm253.86 19.19c-2.7-18.85.28-39.33 7.72-57.28 4.79-11.55 11.19-23.01 19.54-32.4 12.61-14.17 30.32-27.16 48.69-31.8 6.58-1.67 9.97-2.75 15.28-3.45 16.96-2.23 35.01-1.25 50.84 4.43q7.39 2.65 7.97 2.89c29.05 12.34 50.28 35.86 60.06 65.64q11.65 35.48 1.17 69.29c-8.64 27.87-27.33 50.44-53.07 64.6q-7.27 4-14.23 6.26c-12.32 3.99-26.08 6.4-39.02 5.61-3.03-.19-5.7-.02-9.14-.37q-21.42-2.22-39.41-12.15c-31.12-17.18-51.29-45.76-56.4-81.27zm29.87 38.35c13.53 20.8 35.13 35.15 59.35 39.87q29.8 5.8 58.75-7.01 13.63-6.04 23.34-15.39 32.29-31.12 30.82-76.94-.3-9.43-4.44-23.9-2.38-8.34-7.7-16.85-7.04-11.29-10.71-15.45-8.04-9.12-12.58-12.67c-10.84-8.48-24.51-16.14-37.18-18.93q-18.31-4.03-39.26-.76-26.93 4.21-46.72 23.84-13.54 13.44-19.74 28.19c-5.18 12.32-8.25 23.76-9.01 37.27q-1.84 32.73 15.08 58.73z" class="D"/><g class="F"><path d="M934.91 373.16a2.81 2.75-63.1 0 1 1.33-.45c8.07-.48 15.72-.02 23.35-.04l87.66-.41c2.61-.11 3.9 1 4.61 3.43q1.17 3.98.63 9.1a2.89 2.87 62.5 0 1-.34 1.09l-2.88 5.36a5.28 5.26-85.6 0 1-2.86 2.46c-3.11 1.1-5.48 1.73-9.01 1.71q-45.13-.34-95.57.12a2.17 2.15-36.4 0 1-.74-.11q-6.11-1.98-9.93-7.34a4.09 4.07-64.1 0 1-.76-2.21c-.2-4.8.12-9.77 4.51-12.71z"/><rect x="-5.96" y="-37.75" transform="matrix(.999998 -.001745 .001745 .999998 567.17 437.77)" width="11.92" height="75.5" rx="1.46"/></g><path d="M1010.05 828.66a.37.37 0 0 1-.36.37q-38.71.62-77.17-5.36c-17.31-2.69-33.65-7.47-49.69-12.53q-9.68-3.06-23.87-10.29c-14.72-7.51-27.63-18.68-38.53-31.03q-12.27-13.91-21.84-32.46-11.97-23.22-15.94-48.9-1.8-11.65-1.88-29.42-.07-15.43 2.95-29.28 4.61-21.11 9.46-33.63c7.52-19.41 14.11-34.92 22.92-50.13q1.86-3.22 6.73-12.99 10.47-21.03 25.01-41.75 8.98-12.81 20.31-24.76 16.63-17.52 22.42-22.93 13.81-12.91 43.95-38.89a1.74 1.73-52.8 0 1 1.86-.26q6.54 3 13.94 2.72.45-.01 3.62-.01 59.97.08 84.81-.18 1.72-.02 5.4-.8a3.91 3.84-42.9 0 1 1.84.05q2.91.81 4.04 1.58 18.89 12.82 28.35 20.42c6.59 5.3 14.84 14.02 21.93 21.24 22.88 23.28 42.59 52.19 56.37 81.7 3.08 6.58 6.38 11.17 9.02 17.66 13.21 32.37 23.32 65.98 32.19 100.03a.89.88-8.7 0 1-.82 1.11q-15.7.69-27.56 2.43-8.01 1.17-10.98 1.28-7.29.27-10.97 1.28c-10.94 2.99-23.08 8-24.63 20.63-.71 5.79-.06 13.15-.1 20.21q-.04 5.64.12 56.13a.56.55 2.8 0 1-.62.55c-18.93-2.22-36.72-3.41-56.59-1.72q-12.47 1.05-21.29 3.59-10.48 3.02-20.23 7.65c-3.68 1.74-8.02 5.13-10.53 7.87q-3.82 4.19-3.8 10.9.05 15.53.16 47.92zm-11.82-298.84q2.01-.12 5.26.83c8.74 2.57 15.92 5.89 20.59 14.02 2.71 4.74 4.49 8.88 7.99 10.31q7.65 3.13 16.22.92c9.92-2.56 6.48-11.22 3.47-17.94-8.69-19.38-29.47-31.07-49.73-33.78q-1.52-.2-3.58-.18a.77.77 0 0 1-.77-.86q1.19-10.03-1.7-18.52-.19-.56-2.11-2.82c-2.23-2.64-5.93-1.58-7.72.66-4.02 5.06-3.3 13.8-3.19 20.79a.97.97 0 0 1-.93.99c-22.02 1.11-44.99 11.28-52.21 34.08q-2.6 8.23-2.87 17.86-.26 9.63 2.32 17.9c6.65 21.39 25.14 33.82 45.62 40.77q5.4 1.83 8.69 2.94a.79.78 9.4 0 1 .54.74v68.23a.64.64 0 0 1-.76.63q-16.11-2.92-28.22-13.67c-5.58-4.94-7.2-10.41-10.11-16.64-1.53-3.25-3.51-4.75-6.83-4.94-4.07-.24-12.13-1.17-13.53 2.77q-.83 2.37-1.35 7.83a6.07 5.87 44 0 0 .05 1.5q.39 2.38 1.03 6.68c2.68 18.06 18.45 33.53 35.14 39.84q11.6 4.38 24.06 5.18a.64.64 0 0 1 .6.67q-.22 4.73.19 10.35.55 7.64 7.44 7.82c4.68.13 6.8-2.5 6.98-6.82q.24-5.74.04-11.16a.81.8 1 0 1 .86-.83q2.23.13 4.59-.17 10.67-1.38 20.34-4.63c21.92-7.36 38.71-26.11 38.71-50.16q.01-10.42-.21-14.45c-1.04-18.79-13.65-35-30.1-43.33q-13.28-6.72-27.92-9.39c-1.83-.33-4.9-1.09-6.34-1.65a1.28 1.28 0 0 1-.81-1.19l-.04-60.86a.32.32 0 0 1 .3-.32z" class="D"/><path d="M1479.7 439.05a.47.46 87.7 0 1 .55.51c-1.82 17.44-9.62 35.17-23.03 45.95q-14.67 11.78-35.27 11.45a.85.85 0 0 1-.83-.98c4.76-31.67 27.66-51.04 58.58-56.93zm-249.6 56.64a.94.94 0 0 1-.87 1.07c-33.78 2.22-51.46-25.59-57.18-54.9a.61.61 0 0 1 .68-.72q8.99 1.29 17.81 4.33c23.04 7.95 36.28 26.64 39.56 50.22z" class="I"/><path d="M414.5 787.26q0-.1-.43-36.01-.19-15.55-.26-102.75-.01-6.45-1.26-10.25c-1.03-3.14-4.43-5.92-7.46-8.41-4.03-3.32-2.51-7.44-.34-11.33q6.58-11.82 19.25-36.4c5.63-10.92 10.33-18.9 15.9-29.7 1.82-3.53 3.43-5.39 6.82-7.88q14.85-10.91 18.02-13.54c19.19-15.92 33.58-27.37 50.1-42.16q2.65-2.37 5.06-3.65a2.68 2.67 49.2 0 1 2.83.21q3.73 2.71 7.15 5.55 7.97 6.63 46.09 39.51 14.78 12.76 16.42 14.03 5.55 4.31 7.61 7.26 4.05 5.8 5.64 8.89 25.99 50.74 34.6 67.32a1.14 1.13 59.7 0 1-.38 1.47q-3.23 2.15-5.09 5.33-1.14 1.95-1.13 7.17.15 63.83.07 136.58-.01 6.54-.08 8.8a.79.78-88.9 0 1-.78.76H585.4a.65.65 0 0 1-.65-.65q-.04-70.91.05-119.41c.01-2.96-.14-5.35-2.42-7.11q-.96-.75-3.96-.75-46.73-.07-110.41-.06-4.89 0-6.02 3.65-.23.73-.23 7.57-.02 69.99.06 115.94a.84.84 0 0 1-.84.85l-45.62-.04a.86.85-2.2 0 1-.86-.79zm133.22-228.75l-47.5-.08a5.41 5.41 0 0 0-5.42 5.4l-.09 50.46a7.57 6.76-89.9 0 0 6.74 7.58l44.8.08a7.57 6.76-89.9 0 0 6.78-7.56l.09-50.46a5.41 5.41 0 0 0-5.4-5.42z" class="D"/><path d="M545.49 488.45a.47.47 0 0 1 .31-.82q8.23-.04 56.2.04 87.89.15 121.52.06c2.55-.01 4.26 1.53 6.25 3.15q37.85 31.02 43.85 36 14.21 11.81 25.7 22.77a2.22 2.22 0 0 1 .49 2.51q-2.13 4.72-3 7.16-9.32 26.1-24.46 67.81a1.22 1.22 0 0 1-1.15.81H654.47a2.4 2.38 77.6 0 1-2.17-1.4c-9.74-21.25-18.61-37.41-30.76-61.34q-2.42-4.76-5.88-10.6c-2.62-4.42-5.28-7.65-9.19-11.36q-9.26-8.78-29.98-27.46-11.12-10.03-31-27.33z" class="F"/><path d="M1390.88 634.11q.2 0 .37 0c20.44.35 40.64 2.25 58.78 9.42 4.06 1.6 8.94 3.94 10.74 7.81 1.69 3.64-.4 6.52-3.88 8.38q-9.74 5.2-20.39 7.81-16.11 3.96-33.75 4.53-.65.02-11.94 0-11.29-.02-11.94-.04-17.64-.64-33.73-4.66-10.64-2.65-20.36-7.89c-3.48-1.87-5.55-4.76-3.85-8.39 1.81-3.87 6.7-6.19 10.77-7.77 18.16-7.1 38.37-8.93 58.81-9.2q.17 0 .37 0zM713.03 781.99a.46.46 0 0 1-.88.18q-3.07-6.86-4.54-9.78-4.73-9.38-13.21-15.28-7.05-4.91-11.09-6.9-2.5-1.24-12.74-5.51-3.76-1.57-6.95-1.53a2.93 2.91 9 0 0-2.74 1.98c-1.3 3.84-.84 7.93-.55 12.06q1.13 16.02 9.93 29.79a.69.69 0 0 1-.58 1.06h-23.25a1.08 1.08 0 0 1-1.08-1.08V641.03a1.75 1.75 0 0 1 1.75-1.75h122.25a.87.87 0 0 1 .87.95q-1.65 17.35-.87 35.77.67 15.91 5.14 31.79c4.03 14.25 8.23 27.41 16.18 39.73 3.05 4.73 6.41 11.62 10.56 17.31q8.86 12.16 18.81 21.57.42.4.6.81a.63.63 0 0 1-.58.87h-57.15a1.13 1.12-76.4 0 1-1-1.64q9.7-18.84 8.08-38.44c-.34-4.16-3.46-4.68-7.11-3.87-10.84 2.4-19.74 7.49-27.89 14.48q-9.22 7.92-14.07 19.72-.17.42-.57.65a.48.48 0 0 1-.73-.42c.08-5.18 3.09-11.6 5.83-15.4 6.6-9.18 10.72-18.59 12.36-29.89q.17-1.21.23-10.44.04-5.57-1.14-10.37c-2.92-11.92-8.94-26.06-19.63-32.33a2.15 2.04 60 0 0-.98-.29c-5.63-.29-12.39 8.7-14.74 12.95-6.06 10.95-9.52 24.82-8.34 37.25q1.31 13.89 9.21 26.59.43.68 5.59 8.55 5.05 7.71 5.02 16.81z" class="D"/><path d="M366.06 675.9a.53.53 0 0 1-.54.62q-13.04-.38-25.27-.38-48.41.03-95.97.23-.04 0-7.06-.11-4.07-.07-10.9.48a1.16 1.15 84.8 0 1-1.25-1.05c-.2-2.16 4.44-5.95 7.5-8.88 5.54-5.31 10.29-6.05 18.45-6.07q55.15-.16 98.22-.03c4.87.02 6.85 1.16 9.62 4.46q.83.99 6.67 9.55.43.64.53 1.18z" class="F"/><path d="M1275.19 677.36c.22 6.96.34 9.46-6.26 12.83-11.01 5.62-23.17 9.03-36.11 10.64q-33.04 4.1-65.7-1.75c-10.97-1.96-20.45-5.67-29.57-11.06q-2.07-1.22-2.76-3.97-2.1-8.33 5.19-12.33 10.93-6.01 26.54-8.18 14.78-2.06 23.23-2.41 8.16-.35 25.4-.09 5.84.08 9.06.51c4.07.55 7.67.29 12.04.75q10.08 1.05 20.3 3.64 7.58 1.91 12.39 4.2c3.29 1.57 6.13 3.52 6.25 7.22zm46.36-5.52a.85.85 0 0 1 1.27-.75q5.47 3.1 10.09 4.5c14.53 4.4 29.51 7.67 44.3 7.74 5.33.03 11.32.77 17.4.52q19.58-.81 24.9-1.64c14.38-2.25 27.98-5.74 40.9-12.33a.49.49 0 0 1 .71.44q-.12 6.61-.08 17.68c.01 2.46-.65 4.06-2.88 5.4q-8.56 5.16-17.77 7.95c-12.14 3.67-22 5.85-34.71 6.16q-11.11.28-21.43.29-6.17 0-17.49-1.13-18.42-1.83-34.98-9.18-4.63-2.06-8.37-4.97a4.49 4.46 19 0 1-1.72-3.5l-.14-17.18z" class="D"/><path d="M525.8 720.89l-47.43-47.44a.32.32 0 0 1 .22-.55l89.94-.72a.32.32 0 0 1 .25.53l-42.51 48.16a.32.32 0 0 1-.47.02zm9.38 9.89l35.98-40.77a.32.32 0 0 1 .56.22v80.25a.32.32 0 0 1-.56.22l-35.98-39.49a.32.32 0 0 1 0-.43zm-19.37 0l-40.02 43.25a.37.37 0 0 1-.64-.25v-83.27a.37.37 0 0 1 .63-.26l40.02 40.02a.37.37 0 0 1 .01.51z" class="F"/><path d="M715.21 758.56a.23.23 0 0 1-.38-.01c-13.21-19.41-15.28-45.21-.02-64.26a.56.56 0 0 1 .92.06c1.4 2.32 3.52 4.93 4.56 6.7 11.05 18.86 7.45 40.34-5.08 57.51z" class="I"/><path d="M1135.12 700.2c19.57 11.44 40.84 13.28 65.14 14.06q4.34.14 19.5-.14c7.38-.14 15.3-1.67 20.8-2.6 10.94-1.85 22.81-4.57 33.25-10.24a.75.75 0 0 1 1.11.66v23.21a.85.85 0 0 1-.66.83q-3.34.82-11.26 2-14.32 2.14-26.28 9.46c-1.61.98-6.5.63-9.2.66q-23.52.25-46.47-2.17c-3.24-.34-5.27-1.57-8.16-2.01-6.49-1.01-11.95-1.4-17.57-3.23-7.37-2.4-13.77-4.59-19.25-8.89a3.97 3.94 19.1 0 1-1.52-3.11v-18.17a.38.37 15.5 0 1 .57-.32z" class="D"/><path d="M142.81 702.84a.43.43 0 0 1 .63.02q13.78 15.68 7.83 36.27-3.05 10.58-8.89 19.24a.63.63 0 0 1-1 .06q-5.57-6.5-8.73-14.8c-5.99-15.72-1.19-29.28 10.16-40.79zm166.02 3.48a.52.52 0 0 1 .82.04c11.75 16.63 13.63 36.09-1.9 51.03a.75.75 0 0 1-1.14-.12c-11.8-17.21-11.57-35.26 2.22-50.95z" class="I"/><g class="D"><path d="M1460.56 706.28a.43.43 0 0 1 .61.41q-.2 5.32-.18 19.54c.02 7.9-27.46 13.23-33.51 14.22q-19.33 3.16-38.67 3.6a2.96 2.94 67 0 1-2.18-.89q-6.03-6.13-15.28-9.28-18.29-6.23-34.86-8.39-7.73-1-13.53-.84a.82.82 0 0 1-.84-.81l-.13-16.35a.61.61 0 0 1 .89-.55q8.49 4.45 19.17 7.19 15.55 4 31.44 5.37 12.13 1.04 32.48.16 28.96-1.25 54.59-13.38zm-231.46 65.66a.69.68.8 0 1-.71.68c-16.21-.42-26.22-.24-38.81-1.55q-18.24-1.9-18.84-2-1.17-.21-2.99-1.84a5.14 5.1-13.2 0 0-1.66-1.02c-4.44-1.68-9.7-4.72-14.84-6.82q-5.57-2.28-15.18-5.35a2.1 2.09-81.3 0 1-1.46-2v-15.9a.52.51-77.1 0 1 .74-.47q16.18 7.7 33.98 10.2 19.33 2.72 27.52 2.95 12.2.35 26.15.38 1.57.01 5.59.34a.55.55 0 0 1 .51.55v21.85z"/><ellipse cx="0" cy="0" transform="matrix(-.999848 -.017452 .017452 -.999848 1310.28 754.98)" rx="70.18" ry="18.94"/></g><path d="M565.4 785.89q-4.6 1.02-10.15 1.06-32.24.26-72.6.3a.83.82 20.7 0 1-.62-1.37l40.89-46.33a1.09 1.09 0 0 1 1.64 0q19.37 22 41.46 44.26a1.24 1.24 0 0 1-.62 2.08z" class="F"/><path d="M1460.53 742.33a.46.45 77.6 0 1 .65.42q-.22 9.03-.11 18.04.05 4.02-2.08 5.52c-4.09 2.88-10.61 5.54-15.58 6.84q-14.07 3.67-30.73 5.33-6.64.66-10.38.69-6.01.06-10.36.51a.53.52-3 0 1-.58-.52v-22.69a.91.9 89 0 1 .87-.91c3.3-.12 6.07-.44 9.2-.49q16.54-.25 32.05-3.34c9.91-1.98 17.92-4.94 27.05-9.4z" class="D"/><path d="M723.78 797.79a.5.49 5.5 0 1-.54-.65c5.87-17.62 16.49-35.91 35.37-41.25a.42.42 0 0 1 .53.41c-.57 22.26-12.63 38.33-35.36 41.49zm-591.67 5.05a.53.53 0 0 1-.61.24c-10.53-3.17-21.46-8.32-28.97-15.66q-12.68-12.4-16.81-31.02a.42.42 0 0 1 .48-.51q24.98 3.96 37.57 24.99 6.62 11.06 8.32 21.51.06.37.02.45zm539.88-45.44a.59.59 0 0 1 .8-.53q28.06 11.01 35.17 40.03a.66.66 0 0 1-.78.8c-13.96-3.01-28.01-11.15-33.38-24.9-1.88-4.81-2.02-10.39-1.81-15.4zm-518.62 44.32a.26.26 0 0 1-.29-.33c6.07-20.84 20.16-40.51 43.08-44.22a.63.62 83 0 1 .73.58c1.57 25.43-21.42 40.39-43.52 43.97zm146.72 3.32a.65.64-89.7 0 1-.75.75c-24.69-4.57-45.47-20.68-47.33-47.32a.45.45 0 0 1 .53-.47c24.86 4.49 43.33 21.78 47.55 47.04zm63.86-46.94q.19.17.18.38c-1.23 24.1-19.11 39.31-41.28 44.44q-.29.07-.45-.09-.17-.15-.13-.44c3.49-22.49 17.35-41.44 41.29-44.43q.21-.03.39.14z" class="I"/><path d="M1021 781.85c.31-5.21 4.26-7.77 8.86-10.01 15.6-7.6 33.59-9.84 51.91-9.98q18.6-.15 24.21.27 21.26 1.6 40.44 7.7 5.47 1.74 11.52 5.46c4.24 2.61 6.15 5.93 5.11 10.76-.7 3.21-9 6.24-11.43 7.1q-14.62 5.13-28.31 6.58-11.08 1.16-11.22 1.17-13.43 1.14-17.34.96-11.46-.55-20.75-1.1-9.81-.59-22.54-3.68c-10.24-2.49-24.38-5.99-30.15-14.12a1.74 1.73-60.7 0 1-.31-1.11zm289.32 4.29c17.95.18 35.5-1.22 52.44-5.86q8.9-2.44 16.37-6.5a.57.56 75.9 0 1 .83.5q-.06 7.86-.29 20.22c-.08 4.16-1.91 4.55-5.37 6.38q-3.68 1.95-13 4.77-9.38 2.83-18.2 3.76c-6.14.64-12.27 1.54-18.11 1.68q-4.98.13-14.91.03-9.93-.09-14.91-.32c-5.83-.25-11.95-1.27-18.07-2.03q-8.8-1.1-18.13-4.11-9.26-3-12.9-5.02c-3.42-1.9-5.25-2.33-5.25-6.49q.01-12.36.11-20.22a.57.56-74.8 0 1 .84-.48q7.39 4.2 16.23 6.81c16.86 4.97 34.37 6.71 52.32 6.88zm150.26-7.07a.51.51 0 0 1 .5.51v18.54a4.8 4.78-19.5 0 1-1.79 3.73c-4.75 3.81-12.99 6.57-19.42 8.01q-23.75 5.31-47.61 5.37a.87.87 0 0 1-.88-.87l-.18-21.79a1.12 1.12 0 0 1 1.09-1.13q18.31-.51 35.33-2.8 7.18-.96 13.22-2.63c6.9-1.9 12.98-3.66 18.9-6.8q.31-.16.84-.14zM1229 808.29a.71.71 0 0 1-.71.71q-25.75.04-50.88-3.19a1.01 1 3.3 0 1-.88-.98l-.18-22.16a.85.84 4.3 0 1 .98-.84q8.46 1.38 17.92 1.79 6.82.29 32.97.72a.79.79 0 0 1 .78.79v23.16zm-207.07-8.93a.55.55 0 0 1 .84-.46q2.59 1.67 6.9 3.41 16.45 6.62 32.81 9.17 21.77 3.4 40.25 2.22 11.57-.74 29.02-3.68 16.67-2.81 31.48-9.92a.59.59 0 0 1 .84.53v20.46a3.21 3.2-17.7 0 1-1.36 2.62q-3.84 2.74-8.87 4.86-11.35 4.79-22.63 6.32c-22.25 3.02-44.34 3.43-66.98.87-13.57-1.54-28.53-5.5-40.45-12.9a3.91 3.89-74.2 0 1-1.85-3.32v-20.18zm288.33 24.34q13.5.14 24.27-.95 6.79-.69 18.29-2.6 13.63-2.26 26.46-8.66a.53.53 0 0 1 .77.51q-.39 6.49-.33 17.31.02 3.65-2.68 5.17-10.83 6.12-25.16 8.91-19.59 3.82-41.86 3.59-22.27-.23-41.77-4.45-14.27-3.08-24.97-9.43-2.67-1.57-2.57-5.22.28-10.82.02-17.31a.53.53 0 0 1 .78-.5q12.7 6.67 26.28 9.21 11.46 2.14 18.23 2.97 10.74 1.31 24.24 1.45zm150.05-8.23a.6.6 0 0 1 .58.6q-.05 11.08.16 17.73.17 5.67-4.4 8.59c-6.13 3.92-12.91 5.78-20.09 7.71q-4.46 1.21-11.08 2.07-17.23 2.26-33.07 2.98a1.05 1.04 88.5 0 1-1.1-1.05v-25.31a.84.84 0 0 1 .83-.84c10.71-.06 20.3-.59 31.17-2.46q11.51-1.99 12.11-2.1 12.32-2.31 23.56-7.7.51-.25 1.33-.22zm-282.63 27.77a1.62 1.62 0 0 1-1.55-1.69l.92-21.08a1.46.27-87.5 0 1 .33-1.44l51.93 2.27a1.46.27-87.5 0 1 .21 1.47l-.92 21.08a1.62 1.62 0 0 1-1.69 1.54l-49.23-2.15z" class="D"/><path d="M583.95 836.25q.16-.32.49-.28c16 2.11 28.09 10.46 32.85 26.34a.67.66-8.8 0 1-.63.85c-16.4.32-27.96-11.35-32.68-26.24q-.15-.44-.03-.67zm228.77 27.38q-.2.17-.68.12c-16.1-1.39-30.5-10.42-33.89-27.04a.69.68 86.2 0 1 .72-.83c17.1 1.2 28.27 11.52 34.02 27.19q.12.32-.17.56z" class="I"/><path d="M1163.65 835.65a.38.38 0 0 1 .49.38q-.14 4.22.01 15.15.12 8.36-6.55 12.59-5.2 3.31-10.97 5.11-17.2 5.39-34.63 6.26-17.27.87-36.39-.21c-12.5-.7-26.04-3.75-37.81-7.25-6.45-1.92-15.67-7.16-15.73-14.78q-.07-9.87-.16-16.13a.89.89 0 0 1 1.33-.78c9.04 5.25 17.63 7.41 28.73 9.75 8.85 1.86 16.75 2.13 26.05 3.13q24.01 2.58 50.64-1.75 15.18-2.47 26.03-6.88 2.88-1.17 4.55-2.13 4.12-2.36 4.41-2.46z" class="D"/><path d="M476.65 863.6a.36.36 0 0 1-.38.42c-17.02-1.25-31.29-10.21-36.13-27.17a.73.73 0 0 1 .8-.92q23.31 2.97 34.19 23.46 1.21 2.28 1.52 4.21zm36.02-7.36q-8.69 6.77-21.72 6.93a.7.7 0 0 1-.66-.97q4.54-11.09 13.15-17.8 8.61-6.71 20.48-8.4a.7.7 0 0 1 .77.87q-3.34 12.6-12.02 19.37zm154.92-20.1q.47.33.23.91c-5.83 14.3-16.59 26.27-32.92 26.86a.7.7 0 0 1-.71-.85q.79-3.71 2.63-7.5 9.03-18.64 30.22-19.5.4-.02.55.08zm180.8 17.68q-8.16 7.15-18.28 9.83-.44.12-.67.06a.64.63 13.6 0 1-.45-.74c1.44-7.18 4.88-14.5 10.44-19.37 5.55-4.87 13.26-7.32 20.57-7.81a.64.63 83.9 0 1 .67.54q.03.24-.14.66-3.99 9.69-12.14 16.83z" class="I"/><path d="M1240.82 846.89a.54.53-80.3 0 1 .73-.52q21.46 8.52 43.69 11.28 12.66 1.57 35.19 1.19 21.38-.37 43.38-6.53 7.57-2.12 14.67-6.23a.79.78 74.5 0 1 1.18.67q.15 10.15-.3 15.79c-.43 5.3-3.54 9.12-8.49 11.88-11.3 6.29-24.75 9.04-37.63 10.3q-19.23 1.88-39.74 1.06c-15.78-.64-34.03-3.58-47.44-12.56q-5.34-3.58-5.19-10.48.21-9.37-.05-15.85zM67.4 894.78c10.08-14.99 26.41-26.97 45.05-27.4q15.68-.36 28.7 7.35 1.47.86 3.65-.46 11.14-6.76 21.44-7.13 11.25-.41 22.22 4.68 15.63 7.25 25.5 22.65a.79.79 0 0 1-.67 1.21H67.88a.58.58 0 0 1-.48-.9zm310.07.29a.4.4 0 0 1-.34.62H239.87a.92.92 0 0 1-.79-1.4q1.14-1.92 3.62-4.58 8.79-9.43 20.14-14.87c14.27-6.84 30.51-5.42 43.87 2.5q1.53.9 3.91.01c4.54-1.72 9.14-4.35 14.02-5.84 21.12-6.47 41.75 5.95 52.83 23.56z" class="D"/><path fill="#ffe7c4" d="M615.79 350.98q-.08-7.7-8.15-12.39c-4.31-2.5-12.01.29-7.06 6.48 2.67 3.33 5.88 5.64 8.41 9.44q-8.78 4.75-11.52 5.95-20.2 8.81-42.46 8.75 1.63-2.53 1.86-4.26.94-6.95.95-7.68c.06-3.45-.87-9.06-4.54-10.27-2.74-.91-6.12 1.33-6.34 4.25q-.64 8.42.67 18.15-14.42-.92-30.57-5.99-11.14-3.49-20.22-9.82 2.76-.55 3.53-1.24 6.43-5.85 11.07-12.93c3.35-5.13-4.25-10.7-8.36-5.75q-2.56 3.09-6.65 7.71-3.13 3.52-4.7 8.99-5.11-1.37-9.65-4.7-.04-.03-6.59-5.39c-8.48-6.93-15.52-16.13-21.2-24.99q-1.31-2.04-2.85-3.85c-1.44-1.68-2.07-3.91-3.51-5.83q-2.81-3.76-5.02-8.7-9.7-21.69-10.92-45.65-.33-6.5.57-13.54c.56-4.31 1.16-12.22 2.49-17.96q6.58-28.55 23.94-51.54 10.51-13.93 22.18-22.57 2.45-1.81 6.64-3.49 5.1 8.29 9.73 16.29c2.33 4.03 5.67 6.33 10.15 3.03a1.57 1.55-15.9 0 0 .63-1.12q.34-4.33-.63-6.03-3.77-6.61-6.88-13.34-1.1-2.37-5.15-4.16 19.48-10.98 41.46-14.22 4.05-.59 7.47-.57 4.16.04 6.33-.57a5.51 5.42-47.9 0 1 2.24-.13c5.09.8 11.21.38 16.61 1.38q20.57 3.8 38.46 12.55 1.15.56 3.63 2.75a4.32 4.19-11.5 0 0 1.17.75q7.96 3.49 13.3 8.26 13.46 12 22.12 23.1 3.48 4.48 8.82 13.77 4.22 7.35 6.99 14.83 7.62 20.54 9.35 43.75.35 4.76-.09 9.01-.31 2.96-.85 9.02-1.3 14.55-8.16 32.46c-2.83 7.39-5.68 13.07-10.13 19.22q-9.83 13.58-12.94 16.98-3.25 3.57-11.14 11.11-3.51 3.35-14.49 10.7zm-67.04-214.85c-.03 4-.76 12.65 3.87 13.23 7.01.87 6.32-8.27 6.35-13.15.04-4.88.89-14.01-6.14-13.25-4.64.5-4.05 9.16-4.08 13.17zm67.15 5.41l-4.83-3.17a2.75 2.75 0 0 0-3.81.78l-10.09 15.37a6.91 5.29-56.7 0 0 .63 8.68l.59.38a6.91 5.29-56.7 0 0 8.21-2.87l10.09-15.36a2.75 2.75 0 0 0-.79-3.81zm-50.43 125.8l2.19 2.4a.46.42-2.6 0 0 .12.1c5.25 3.38 8.89 6.17 13.08 8.46q4.38 2.39 13.46 8.36 3.16 2.07 4.75 2.3c7.16 1.06 10.11-5.06 6.62-10.73q-1.24-2-4.95-4.13-13.45-7.7-22.53-13.18-2.94-1.77-4.16-4.21c-1.36-2.72-1.38-7.65-2.88-10.78-1.81-3.77-4.81-7.76-7.63-10.82-1.15-1.25-2.3-3.37-2.21-4.72q.49-8-.03-20.14-.51-11.92.33-29.3c.17-3.46-.57-9.9-5.08-10.17-4.77-.28-6.52 1.82-7.57 6.39-1.32 5.8-1.11 11.2-1.04 17.92q.03 2.88-.63 12.81-.61 9.21-.27 19.6c.1 3.1-.23 4.59-2.75 6.62q-5.5 4.43-7.09 11.82c-.91 4.26-1.31 9.46 1.89 12.73 3.86 3.94 7.35 8.15 11.65 8.61q6.53.69 12.75-.58a2.12 2.11 62.9 0 1 1.98.64zm-99.48-65.52c2.85.94 8.34 1.45 8.25-3.16-.06-3.22-2.18-4.94-5.29-6.23q-7.45-3.1-14.39-5.71c-4.02-1.51-7.02 2.09-7.24 5.77a2.23 2.2-55.9 0 0 .19 1.03q1.01 2.35 2.45 2.87 4.8 1.71 16.03 5.43zm192.431-12.454a5 5 0 0 0-6.542-2.683l-14.059 5.881a5 5 0 0 0-2.683 6.542l.162.387a5 5 0 0 0 6.542 2.683l14.06-5.881a5 5 0 0 0 2.683-6.542l-.162-.388zm13.609 60.754l-.18-5.44a2.41 2.41 0 0 0-2.48-2.33l-12.92.43a6.93 4.79-1.9 0 0-6.77 5.02l.03.68a6.93 4.79-1.9 0 0 7.08 4.56l12.92-.43a2.41 2.41 0 0 0 2.32-2.49zm-214.888-1.274a4.79 4.79 0 0 0-4.748-4.832l-14.659-.128a4.79 4.79 0 0 0-4.832 4.748l-.006.64a4.79 4.79 0 0 0 4.748 4.832l14.659.128a4.79 4.79 0 0 0 4.832-4.748l.006-.64zm-2.482 62.164l17.72-5.45a2.35 2.35 0 0 0 1.55-2.94l-.49-1.6a6.41 6.09-17.1 0 0-7.92-3.94l-9.96 3.07a6.41 6.09-17.1 0 0-4.33 7.7l.49 1.61a2.35 2.35 0 0 0 2.94 1.55zm193.79.57c3.53 1.64 6.83-.6 6.76-4.31-.1-5.51-15.67-14.28-19.37-8.82q-1.58 2.32-.91 5.14c.75 3.15 11.16 6.89 13.52 7.99z"/><path d="M495.64 136.83q4.05 1.79 5.15 4.16 3.11 6.73 6.88 13.34.97 1.7.63 6.03a1.57 1.55-15.9 0 1-.63 1.12c-4.48 3.3-7.82 1-10.15-3.03q-4.63-8-9.73-16.29 2.7-3.92 7.85-5.33zm754.13 279.66q-16.92-26-15.08-58.73c.76-13.51 3.83-24.95 9.01-37.27q6.2-14.75 19.74-28.19 19.79-19.63 46.72-23.84 20.95-3.27 39.26.76c12.67 2.79 26.34 10.45 37.18 18.93q4.54 3.55 12.58 12.67 3.67 4.16 10.71 15.45 5.32 8.51 7.7 16.85 4.14 14.47 4.44 23.9 1.47 45.82-30.82 76.94-9.71 9.35-23.34 15.39-28.95 12.81-58.75 7.01c-24.22-4.72-45.82-19.07-59.35-39.87zm35.819-125.8a83.13 83-120.7 0 0-28.926 113.855 83.13 83-120.7 0 0 113.809 29.104 83.13 83-120.7 0 0 28.926-113.855 83.13 83-120.7 0 0-113.809-29.104z" class="G"/><rect x="129.01" y="270.19" width="166.6" height="14.88" rx="7.35" class="D"/><g class="G"><path d="M400.63 519.29a9.51 9.51 0 0 1-9.51 9.51h-57.94a9.51 9.51 0 0 1-9.51-9.51v-191.6a9.51 9.51 0 0 1 9.51-9.51h57.94a9.51 9.51 0 0 1 9.51 9.51v191.6zM388.7 331.22a1.09 1.09 0 0 0-1.09-1.09h-51.3a1.09 1.09 0 0 0-1.09 1.09v184.7a1.09 1.09 0 0 0 1.09 1.09h51.3a1.09 1.09 0 0 0 1.09-1.09v-184.7zm108.12 22.37q-3.41-.19-5.11-3.22 1.57-5.47 4.7-8.99 4.09-4.62 6.65-7.71c4.11-4.95 11.71.62 8.36 5.75q-4.64 7.08-11.07 12.93-.77.69-3.53 1.24zm118.97-2.61l-6.8 3.53c-2.53-3.8-5.74-6.11-8.41-9.44-4.95-6.19 2.75-8.98 7.06-6.48q8.07 4.69 8.15 12.39zm-60.78 18.23q-2.79 1.08-7.4.19-1.31-9.73-.67-18.15c.22-2.92 3.6-5.16 6.34-4.25 3.67 1.21 4.6 6.82 4.54 10.27q-.01.73-.95 7.68-.23 1.73-1.86 4.26zM303.14 519.64a9.11 9.11 0 0 1-9.11 9.11h-57.66a9.11 9.11 0 0 1-9.11-9.11V399.5a9.11 9.11 0 0 1 9.11-9.11h57.66a9.11 9.11 0 0 1 9.11 9.11v120.14zm-11.378-116.476a1.23 1.23 0 0 0-1.232-1.228l-50.7.089a1.23 1.23 0 0 0-1.228 1.232l.197 112.68a1.23 1.23 0 0 0 1.232 1.228l50.7-.089a1.23 1.23 0 0 0 1.228-1.232l-.197-112.68zM205.27 517.21a8.32 8.32 0 0 1-8.32 8.32h-58.26a8.32 8.32 0 0 1-8.32-8.32v-67.34a8.32 8.32 0 0 1 8.32-8.32h58.26a8.32 8.32 0 0 1 8.32 8.32v67.34zm-11.28-61.94a1.43 1.43 0 0 0-1.43-1.43h-49.2a1.43 1.43 0 0 0-1.43 1.43v56.7a1.43 1.43 0 0 0 1.43 1.43h49.2a1.43 1.43 0 0 0 1.43-1.43v-56.7zm804.24 74.55a.32.32 0 0 0-.3.32l.04 60.86a1.28 1.28 0 0 0 .81 1.19c1.44.56 4.51 1.32 6.34 1.65q14.64 2.67 27.92 9.39c16.45 8.33 29.06 24.54 30.1 43.33q.22 4.03.21 14.45c0 24.05-16.79 42.8-38.71 50.16q-9.67 3.25-20.34 4.63-2.36.3-4.59.17a.81.8 1 0 0-.86.83q.2 5.42-.04 11.16c-.18 4.32-2.3 6.95-6.98 6.82q-6.89-.18-7.44-7.82-.41-5.62-.19-10.35a.64.64 0 0 0-.6-.67q-12.46-.8-24.06-5.18c-16.69-6.31-32.46-21.78-35.14-39.84q-.64-4.3-1.03-6.68a6.07 5.87 44 0 1-.05-1.5q.52-5.46 1.35-7.83c1.4-3.94 9.46-3.01 13.53-2.77 3.32.19 5.3 1.69 6.83 4.94 2.91 6.23 4.53 11.7 10.11 16.64q12.11 10.75 28.22 13.67a.64.64 0 0 0 .76-.63v-68.23a.79.78 9.4 0 0-.54-.74q-3.29-1.11-8.69-2.94c-20.48-6.95-38.97-19.38-45.62-40.77q-2.58-8.27-2.32-17.9.27-9.63 2.87-17.86c7.22-22.8 30.19-32.97 52.21-34.08a.97.97 0 0 0 .93-.99c-.11-6.99-.83-15.73 3.19-20.79 1.79-2.24 5.49-3.3 7.72-.66q1.92 2.26 2.11 2.82 2.89 8.49 1.7 18.52a.77.77 0 0 0 .77.86q2.06-.02 3.58.18c20.26 2.71 41.04 14.4 49.73 33.78 3.01 6.72 6.45 15.38-3.47 17.94q-8.57 2.21-16.22-.92c-3.5-1.43-5.28-5.57-7.99-10.31-4.67-8.13-11.85-11.45-20.59-14.02q-3.25-.95-5.26-.83zm-16.2 57.61q.61-2.6.63-6.18.15-27.35-.03-50.33a.92.92 0 0 0-1.03-.91c-7.9 1-14.05 3.02-19.34 8.96-5.4 6.08-6.39 14.55-5.42 23.01q1.77 15.5 14.57 21.82 4.08 2.01 9.85 4.06a.59.59 0 0 0 .77-.43zm16.81 34.62v65.48a.56.56 0 0 0 .56.56q7.41.04 15.13-2.47c13.87-4.53 20.06-16.09 20-30.14q0-.38-.41-5.17c-.7-8.38-6.32-15.67-13.63-19.77q-10.9-6.1-21-8.98a.51.51 0 0 0-.65.49zm-451.12-63.54a5.41 5.41 0 0 1 5.4 5.42l-.09 50.46a7.57 6.76-89.9 0 1-6.78 7.56l-44.8-.08a7.57 6.76-89.9 0 1-6.74-7.58l.09-50.46a5.41 5.41 0 0 1 5.42-5.4l47.5.08zm-6.065 11.201a.27.27 0 0 0-.269-.27l-34.64-.06a.27.27 0 0 0-.27.269l-.071 40.5a.27.27 0 0 0 .269.27l34.64.06a.27.27 0 0 0 .27-.269l.071-40.5zM558.97 136.21c-.03 4.88.66 14.02-6.35 13.15-4.63-.58-3.9-9.23-3.87-13.23.03-4.01-.56-12.67 4.08-13.17 7.03-.76 6.18 8.37 6.14 13.25zm56.93 5.33a2.75 2.75 0 0 1 .79 3.81l-10.09 15.36a6.91 5.29-56.7 0 1-8.21 2.87l-.59-.38a6.91 5.29-56.7 0 1-.63-8.68l10.09-15.37a2.75 2.75 0 0 1 3.81-.78l4.83 3.17zm-50.43 125.8a2.12 2.11 62.9 0 0-1.98-.64q-6.22 1.27-12.75.58c-4.3-.46-7.79-4.67-11.65-8.61-3.2-3.27-2.8-8.47-1.89-12.73q1.59-7.39 7.09-11.82c2.52-2.03 2.85-3.52 2.75-6.62q-.34-10.39.27-19.6.66-9.93.63-12.81c-.07-6.72-.28-12.12 1.04-17.92 1.05-4.57 2.8-6.67 7.57-6.39 4.51.27 5.25 6.71 5.08 10.17q-.84 17.38-.33 29.3.52 12.14.03 20.14c-.09 1.35 1.06 3.47 2.21 4.72 2.82 3.06 5.82 7.05 7.63 10.82 1.5 3.13 1.52 8.06 2.88 10.78q1.22 2.44 4.16 4.21 9.08 5.48 22.53 13.18 3.71 2.13 4.95 4.13c3.49 5.67.54 11.79-6.62 10.73q-1.59-.23-4.75-2.3-9.08-5.97-13.46-8.36c-4.19-2.29-7.83-5.08-13.08-8.46a.46.42-2.6 0 1-.12-.1l-2.19-2.4zm-10.17-23.62c-6.55.03-12.99.76-10.41 9.45 1.39 4.65 6.8 6.84 11.06 6.34 4.09-.47 8.25-4.19 7.62-8.57-.54-3.69-4.62-7.24-8.27-7.22zm-81.06-45.06c.09 4.61-5.4 4.1-8.25 3.16q-11.23-3.72-16.03-5.43-1.44-.52-2.45-2.87a2.23 2.2-55.9 0 1-.19-1.03c.22-3.68 3.22-7.28 7.24-5.77q6.94 2.61 14.39 5.71c3.11 1.29 5.23 3.01 5.29 6.23z"/><rect x="-12.62" y="-5.21" transform="matrix(.922538 -.385906 .385906 .922538 646.86 194.43)" width="25.24" height="10.42" rx="5"/><path d="M672.03 250.12a2.41 2.41 0 0 1-2.32 2.49l-12.92.43a6.93 4.79-1.9 0 1-7.08-4.56l-.03-.68a6.93 4.79-1.9 0 1 6.77-5.02l12.92-.43a2.41 2.41 0 0 1 2.48 2.33l.18 5.44z"/><rect x="-12.12" y="-5.11" transform="matrix(.999962 .008727 -.008727 .999962 445.02 249.06)" width="24.24" height="10.22" rx="4.79"/></g><path d="M1285.589 290.691a83.13 83-120.7 0 1 113.809 29.104 83.13 83-120.7 0 1-28.926 113.855 83.13 83-120.7 0 1-113.809-29.104 83.13 83-120.7 0 1 28.926-113.855zm46.311 89.58q13.68-4.95 18.63-18.68 1.19-.03 2.37-.71c1.64-.93 2.5-3.6 2.61-5.28q1.32-20.24-13.45-31.44c-23.87-18.1-57.8 1.58-54.42 30.89 1.89 16.44 14.31 28.19 30.57 30.24q5.04.64 10.03-.54 3.66-.86 3.66-4.48zm44.17 1.46c.16 2.5-1.95 17.17 5.5 13.33a1.65 1.63-.8 0 0 .73-.74q.52-1.07.5-3.32-.04-10.36.05-19.84a2.5 2.49-77.6 0 0-1.46-2.29q-1.41-.65-3.64-.66-7.84-.07-17.64 0a3.97 3.96 4.9 0 0-3.87 3.25l-.06.28a2.74 2.73-83.9 0 0 2.67 3.31h11.27a.75.75 0 0 1 .53 1.28l-17.16 17.17a1.71 1.71 0 0 1-2.45-.03q-4.56-4.77-6.31-6.43c-2.28-2.16-4.1-1.24-6.15.81q-12.59 12.62-19.11 19.22a3.35 3.35 0 0 0-.14 4.57l.12.15a2.9 2.9 0 0 0 4.26.18l17.44-17.39a1.36 1.36 0 0 1 1.93.01q2.14 2.17 5.86 5.95c2.07 2.09 3.78 2.96 6.16.58q13.75-13.74 19.75-19.84a.71.71 0 0 1 1.22.45z" class="F"/><path d="M454.66 311.01a2.35 2.35 0 0 1-2.94-1.55l-.49-1.61a6.41 6.09-17.1 0 1 4.33-7.7l9.96-3.07a6.41 6.09-17.1 0 1 7.92 3.94l.49 1.6a2.35 2.35 0 0 1-1.55 2.94l-17.72 5.45zm200.55-3.74c.07 3.71-3.23 5.95-6.76 4.31-2.36-1.1-12.77-4.84-13.52-7.99q-.67-2.82.91-5.14c3.7-5.46 19.27 3.31 19.37 8.82z" class="G"/><g class="D"><rect x="335.22" y="330.13" width="53.48" height="186.88" rx="1.09"/><rect x="-26.58" y="-57.57" transform="matrix(.999998 -.001745 .001745 .999998 265.28 459.55)" width="53.16" height="115.14" rx="1.23"/><rect x="141.93" y="453.84" width="52.06" height="59.56" rx="1.43"/><path d="M982.03 587.43a.59.59 0 0 1-.77.43q-5.77-2.05-9.85-4.06-12.8-6.32-14.57-21.82c-.97-8.46.02-16.93 5.42-23.01 5.29-5.94 11.44-7.96 19.34-8.96a.92.92 0 0 1 1.03.91q.18 22.98.03 50.33-.02 3.58-.63 6.18z"/></g><rect x="-17.59" y="-20.52" transform="matrix(.999998 .001745 -.001745 .999998 524.03 589.93)" width="35.18" height="41.04" rx=".27" class="F"/><path d="M999.49 621.56q10.1 2.88 21 8.98c7.31 4.1 12.93 11.39 13.63 19.77q.41 4.79.41 5.17c.06 14.05-6.13 25.61-20 30.14q-7.72 2.51-15.13 2.47a.56.56 0 0 1-.56-.56v-65.48a.51.51 0 0 1 .65-.49z" class="D"/><path d="M544.89 253.17c-2.58-8.69 3.86-9.42 10.41-9.45 3.65-.02 7.73 3.53 8.27 7.22.63 4.38-3.53 8.1-7.62 8.57-4.26.5-9.67-1.69-11.06-6.34z" class="F"/><path d="M1350.53 361.59q-2.88-1.34-2.41-4.08 3.12-18.33-11.53-28.63c-9.74-6.84-23.52-6-32.3 1.5-12.97 11.09-13.27 30.34-.3 41.61q9.55 8.3 24.25 5.79 2.39-.4 3.66 2.49 0 3.62-3.66 4.48-4.99 1.18-10.03.54c-16.26-2.05-28.68-13.8-30.57-30.24-3.38-29.31 30.55-48.99 54.42-30.89q14.77 11.2 13.45 31.44c-.11 1.68-.97 4.35-2.61 5.28q-1.18.68-2.37.71z" class="G"/><path d="M1350.53 361.59q-4.95 13.73-18.63 18.68-1.27-2.89-3.66-2.49-14.7 2.51-24.25-5.79c-12.97-11.27-12.67-30.52.3-41.61 8.78-7.5 22.56-8.34 32.3-1.5q14.65 10.3 11.53 28.63-.47 2.74 2.41 4.08zm-25.83-30.31c-.94-2.75-4.15-3.53-5.84-.85q-.34.55-1.44 2.7a1.92 1.9-89.3 0 1-.86.85q-1.55.75-2.26 1.06c-4.2 1.83-6.22 6.6-5.33 10.54 1.73 7.68 8.65 8.06 15.38 9.57q3.39.75 2.3 4.32c-.76 2.48-6.38 1.98-8.21 1.62a2.15 2.12-17 0 1-1.13-.59q-1.16-1.15-1.92-2.41a2.82 2.82 0 0 0-3-1.29c-5.45 1.18-2.74 6.75-.22 9.09 2.13 1.98 5.28 1.91 6.19 5.44.53 2.02 3.27 3.58 5.03 1.93 1.73-1.63 1.36-4.26 3.52-5.08 5.84-2.23 9.36-8.39 6.46-14.3-3.1-6.33-9.1-6.38-15.51-7.82-2.88-.64-1.98-4.3.62-4.68q3.89-.55 6.56.35a1.89 1.87-9.4 0 1 .86.61l1.9 2.46a1.8 1.7 83.4 0 0 .55.46q2.85 1.52 4.61-.69c2.37-2.96-.68-6.86-3.19-8.63q-.86-.61-3.66-1.98a1.56 1.53 3.6 0 1-.79-.88q-.12-.34-.62-1.8z" class="D"/><path d="M1376.07 381.73a.71.71 0 0 0-1.22-.45q-6 6.1-19.75 19.84c-2.38 2.38-4.09 1.51-6.16-.58q-3.72-3.78-5.86-5.95a1.36 1.36 0 0 0-1.93-.01l-17.44 17.39a2.9 2.9 0 0 1-4.26-.18l-.12-.15a3.35 3.35 0 0 1 .14-4.57q6.52-6.6 19.11-19.22c2.05-2.05 3.87-2.97 6.15-.81q1.75 1.66 6.31 6.43a1.71 1.71 0 0 0 2.45.03l17.16-17.17a.75.75 0 0 0-.53-1.28h-11.27a2.74 2.73-83.9 0 1-2.67-3.31l.06-.28a3.97 3.96 4.9 0 1 3.87-3.25q9.8-.07 17.64 0 2.23.01 3.64.66a2.5 2.49-77.6 0 1 1.46 2.29q-.09 9.48-.05 19.84.02 2.25-.5 3.32a1.65 1.63-.8 0 1-.73.74c-7.45 3.84-5.34-10.83-5.5-13.33zm-57.21-51.3c1.69-2.68 4.9-1.9 5.84.85q.5 1.46.62 1.8a1.56 1.53 3.6 0 0 .79.88q2.8 1.37 3.66 1.98c2.51 1.77 5.56 5.67 3.19 8.63q-1.76 2.21-4.61.69a1.8 1.7 83.4 0 1-.55-.46l-1.9-2.46a1.89 1.87-9.4 0 0-.86-.61q-2.67-.9-6.56-.35c-2.6.38-3.5 4.04-.62 4.68 6.41 1.44 12.41 1.49 15.51 7.82 2.9 5.91-.62 12.07-6.46 14.3-2.16.82-1.79 3.45-3.52 5.08-1.76 1.65-4.5.09-5.03-1.93-.91-3.53-4.06-3.46-6.19-5.44-2.52-2.34-5.23-7.91.22-9.09a2.82 2.82 0 0 1 3 1.29q.76 1.26 1.92 2.41a2.15 2.12-17 0 0 1.13.59c1.83.36 7.45.86 8.21-1.62q1.09-3.57-2.3-4.32c-6.73-1.51-13.65-1.89-15.38-9.57-.89-3.94 1.13-8.71 5.33-10.54q.71-.31 2.26-1.06a1.92 1.9-89.3 0 0 .86-.85q1.1-2.15 1.44-2.7z" class="G"/></svg>