<?xml version="1.0" encoding="UTF-8" standalone="no"?>
<!DOCTYPE svg PUBLIC "-//W3C//DTD SVG 1.1//EN" "http://www.w3.org/Graphics/SVG/1.1/DTD/svg11.dtd">
<svg xmlns="http://www.w3.org/2000/svg" version="1.1" viewBox="0.00 0.00 500.00 176.00">
<path fill="#060644" d="
  M 54.20 0.00
  L 93.46 29.74
  A 0.55 0.54 -40.2 0 1 93.38 30.66
  C 88.93 32.95 86.06 36.57 84.71 41.44
  A 0.47 0.47 0.0 0 1 83.98 41.69
  L 72.03 32.61
  A 1.97 1.97 0.0 0 1 71.25 31.04
  L 71.25 26.16
  A 1.75 1.73 -71.6 0 0 70.56 24.77
  L 54.62 12.67
  A 0.73 0.73 0.0 0 0 53.74 12.67
  L 37.75 24.83
  A 1.60 1.59 -18.7 0 0 37.12 26.10
  L 37.12 31.53
  A 1.20 1.17 -19.2 0 1 36.65 32.47
  L 24.40 41.78
  A 0.42 0.42 0.0 0 1 23.74 41.56
  Q 21.66 34.16 14.93 30.76
  A 0.46 0.46 0.0 0 1 14.86 29.98
  L 54.19 0.00
  Q 54.19 0.01 54.20 0.00
  Z"
/>
<path fill="#060644" d="
  M 0.00 78.48
  L 0.00 62.50
  Q 3.44 63.62 5.81 61.81
  Q 48.53 29.18 53.80 25.19
  A 0.65 0.63 -44.5 0 1 54.57 25.19
  Q 91.61 53.43 102.72 61.80
  Q 104.80 63.37 107.86 62.61
  A 0.43 0.42 82.8 0 1 108.39 63.03
  L 108.39 77.94
  A 0.23 0.23 0.0 0 1 108.02 78.12
  L 84.29 60.11
  A 0.12 0.12 0.0 0 0 84.10 60.20
  L 84.10 118.25
  A 1.27 1.27 0.0 0 1 83.60 119.26
  L 66.18 132.51
  A 0.41 0.41 0.0 0 1 65.53 132.18
  L 65.53 122.25
  A 2.97 2.94 -18.9 0 1 66.69 119.91
  L 70.70 116.86
  A 1.14 1.10 -19.1 0 0 71.15 115.97
  L 71.15 50.78
  A 1.43 1.42 18.6 0 0 70.58 49.64
  L 61.00 42.37
  A 0.25 0.25 0.0 0 0 60.60 42.57
  L 60.60 144.02
  A 0.25 0.24 -19.2 0 0 61.00 144.21
  L 89.71 122.39
  A 0.87 0.84 -19.7 0 0 90.04 121.72
  L 90.04 74.33
  A 0.17 0.17 0.0 0 1 90.31 74.20
  L 107.63 87.36
  A 0.45 0.45 0.0 0 1 107.60 88.10
  Q 102.68 91.25 102.63 97.00
  Q 102.54 106.88 102.61 128.10
  A 1.30 1.29 -18.8 0 1 102.10 129.13
  L 54.56 165.27
  A 0.56 0.55 44.5 0 1 53.87 165.27
  L 6.25 129.12
  A 1.10 1.09 18.8 0 1 5.82 128.25
  Q 5.80 108.57 5.81 97.52
  Q 5.82 91.34 0.78 88.11
  A 0.44 0.44 0.0 0 1 0.75 87.39
  L 18.07 74.22
  A 0.17 0.17 0.0 0 1 18.34 74.36
  L 18.34 121.58
  A 1.15 1.13 -71.7 0 0 18.79 122.49
  L 47.36 144.18
  A 0.26 0.26 0.0 0 0 47.78 143.97
  L 47.78 42.60
  A 0.28 0.28 0.0 0 0 47.33 42.38
  L 37.77 49.64
  A 1.42 1.40 71.6 0 0 37.22 50.76
  L 37.22 115.94
  A 1.17 1.17 0.0 0 0 37.68 116.87
  L 41.77 119.97
  A 2.85 2.83 -71.6 0 1 42.90 122.24
  L 42.90 131.92
  A 0.56 0.55 18.6 0 1 42.01 132.36
  L 24.75 119.25
  A 1.20 1.19 18.8 0 1 24.28 118.30
  L 24.28 60.21
  A 0.19 0.19 0.0 0 0 23.97 60.06
  L 0.00 78.48
  Z"
/>
<path fill="#060644" d="
  M 157.03 42.12
  C 162.09 42.12 167.30 41.62 170.89 43.02
  Q 179.48 46.37 179.61 56.57
  Q 179.79 71.92 179.71 119.12
  A 0.73 0.73 0.0 0 1 178.98 119.85
  L 163.33 119.85
  A 0.48 0.48 0.0 0 1 162.85 119.37
  L 162.85 94.86
  A 0.65 0.64 -1.3 0 0 162.17 94.22
  Q 160.39 94.31 157.07 94.31
  Q 153.74 94.31 151.96 94.23
  A 0.65 0.64 1.2 0 0 151.28 94.87
  L 151.31 119.38
  A 0.48 0.48 0.0 0 1 150.83 119.86
  L 135.18 119.88
  A 0.73 0.73 0.0 0 1 134.45 119.15
  Q 134.31 71.95 134.48 56.60
  Q 134.59 46.40 143.18 43.04
  C 146.77 41.63 151.98 42.12 157.03 42.12
  Z
  M 151.60 81.15
  L 162.64 81.15
  A 0.27 0.27 0.0 0 0 162.91 80.88
  L 162.91 56.38
  A 2.65 2.39 90.0 0 0 160.52 53.73
  L 153.72 53.73
  A 2.65 2.39 -90.0 0 0 151.33 56.38
  L 151.33 80.88
  A 0.27 0.27 0.0 0 0 151.60 81.15
  Z"
/>
<path fill="#060644" d="
  M 221.74 42.12
  C 227.76 42.12 231.27 41.76 235.31 43.12
  C 241.67 45.27 243.85 51.40 243.86 57.75
  Q 243.94 97.71 243.89 119.18
  A 0.68 0.68 0.0 0 1 243.21 119.86
  L 227.72 119.86
  A 0.74 0.74 0.0 0 1 226.98 119.12
  L 226.98 56.55
  A 2.32 2.32 0.0 0 0 224.52 54.23
  Q 223.40 54.30 221.74 54.30
  Q 220.08 54.30 218.96 54.23
  A 2.32 2.32 0.0 0 0 216.50 56.55
  L 216.53 119.12
  A 0.74 0.74 0.0 0 1 215.79 119.86
  L 200.30 119.87
  A 0.68 0.68 0.0 0 1 199.62 119.19
  Q 199.56 97.72 199.62 57.76
  C 199.63 51.41 201.81 45.28 208.17 43.12
  C 212.20 41.76 215.71 42.12 221.74 42.12
  Z"
/>
<path fill="#060644" d="
  M 291.05 64.52
  L 291.05 55.87
  A 2.09 2.09 0.0 0 0 288.96 53.78
  L 281.31 53.78
  A 1.73 1.73 0.0 0 0 279.58 55.51
  L 279.58 107.47
  A 1.76 1.75 -90.0 0 0 281.33 109.23
  L 289.07 109.23
  A 1.99 1.98 -90.0 0 0 291.05 107.24
  L 291.05 95.77
  A 0.61 0.60 -0.0 0 1 291.66 95.17
  L 306.39 95.17
  A 0.57 0.57 0.0 0 1 306.96 95.74
  Q 306.94 103.33 306.95 103.89
  C 307.17 110.50 305.90 116.68 299.82 119.55
  C 294.54 122.04 285.48 120.72 279.95 120.98
  Q 273.75 121.27 270.23 119.67
  Q 262.83 116.27 262.77 106.48
  Q 262.53 66.34 262.87 57.50
  Q 262.92 56.27 262.97 54.49
  C 263.14 47.69 268.32 42.95 274.58 42.35
  Q 277.58 42.06 289.20 42.06
  Q 297.36 42.06 300.54 43.96
  C 307.89 48.34 307.01 56.12 306.92 64.61
  A 0.60 0.60 0.0 0 1 306.32 65.21
  L 291.73 65.21
  A 0.69 0.68 -90.0 0 1 291.05 64.52
  Z"
/>
<path fill="#060644" d="
  M 435.93 107.69
  A 13.27 13.27 0.0 0 1 422.66 120.96
  L 404.08 120.96
  A 13.27 13.27 0.0 0 1 390.81 107.69
  L 390.81 55.43
  A 13.27 13.27 0.0 0 1 404.08 42.16
  L 422.66 42.16
  A 13.27 13.27 0.0 0 1 435.93 55.43
  L 435.93 107.69
  Z
  M 419.11 55.62
  A 1.84 1.84 0.0 0 0 417.27 53.78
  L 409.51 53.78
  A 1.84 1.84 0.0 0 0 407.67 55.62
  L 407.67 107.40
  A 1.84 1.84 0.0 0 0 409.51 109.24
  L 417.27 109.24
  A 1.84 1.84 0.0 0 0 419.11 107.40
  L 419.11 55.62
  Z"
/>
<path fill="#060644" d="
  M 347.97 75.16
  Q 352.16 75.16 353.74 75.05
  A 0.58 0.58 0.0 0 0 354.28 74.47
  L 354.28 44.04
  A 0.83 0.83 0.0 0 1 355.11 43.21
  L 370.54 43.21
  A 0.57 0.56 -90.0 0 1 371.10 43.78
  L 371.10 119.35
  A 0.51 0.50 -90.0 0 1 370.60 119.86
  L 354.98 119.86
  A 0.70 0.70 0.0 0 1 354.28 119.16
  L 354.28 90.30
  A 0.37 0.37 0.0 0 0 353.92 89.93
  Q 353.52 89.93 347.97 89.93
  Q 342.42 89.93 342.02 89.93
  A 0.37 0.37 0.0 0 0 341.66 90.30
  L 341.66 119.16
  A 0.70 0.70 0.0 0 1 340.96 119.86
  L 325.34 119.86
  A 0.51 0.50 90.0 0 1 324.84 119.35
  L 324.84 43.78
  A 0.57 0.56 90.0 0 1 325.40 43.21
  L 340.83 43.21
  A 0.83 0.83 0.0 0 1 341.66 44.04
  L 341.66 74.47
  A 0.58 0.58 0.0 0 0 342.20 75.05
  Q 343.78 75.16 347.97 75.16
  Z"
/>
<path fill="#060644" d="
  M 500.00 54.26
  L 500.00 71.92
  Q 498.65 77.30 494.24 79.60
  A 0.29 0.29 0.0 0 0 494.24 80.12
  Q 499.18 82.63 499.27 88.27
  Q 499.45 99.55 499.33 119.29
  A 0.57 0.57 0.0 0 1 498.76 119.86
  L 483.18 119.86
  A 0.72 0.72 0.0 0 1 482.46 119.14
  L 482.46 90.12
  A 1.41 1.40 90.0 0 0 481.06 88.71
  L 473.76 88.71
  A 0.94 0.93 -90.0 0 0 472.83 89.65
  L 472.83 119.12
  A 0.74 0.74 0.0 0 1 472.09 119.86
  L 456.63 119.86
  A 0.60 0.60 0.0 0 1 456.03 119.26
  L 456.03 43.97
  A 0.75 0.74 -0.4 0 1 456.77 43.23
  Q 472.53 43.17 486.25 43.27
  Q 497.29 43.35 500.00 54.26
  Z
  M 472.86 55.18
  L 472.78 76.50
  A 0.32 0.32 0.0 0 0 473.10 76.82
  L 480.82 76.85
  A 2.56 2.42 -89.8 0 0 483.25 74.30
  L 483.31 57.46
  A 2.56 2.42 -89.8 0 0 480.90 54.89
  L 473.18 54.86
  A 0.32 0.32 0.0 0 0 472.86 55.18
  Z"
/>
<path fill="#060644" d="
  M 274.55 176.00
  L 266.85 176.00
  L 266.84 165.06
  A 0.25 0.25 0.0 0 0 266.59 164.81
  L 262.05 164.81
  A 0.25 0.25 0.0 0 0 261.80 165.06
  L 261.82 176.00
  L 254.10 176.00
  Q 254.03 161.50 254.08 147.00
  Q 254.09 143.05 258.72 141.20
  A 1.31 1.15 30.4 0 1 259.19 141.11
  L 269.37 141.11
  A 1.21 1.03 49.7 0 1 269.73 141.17
  Q 274.44 142.73 274.49 147.50
  Q 274.57 154.11 274.55 176.00
  Z
  M 266.8195 147.2343
  A 0.66 0.66 0.0 0 0 266.1606 146.5732
  L 262.5206 146.5668
  A 0.66 0.66 0.0 0 0 261.8595 147.2257
  L 261.8405 158.0857
  A 0.66 0.66 0.0 0 0 262.4994 158.7468
  L 266.1394 158.7532
  A 0.66 0.66 0.0 0 0 266.8005 158.0943
  L 266.8195 147.2343
  Z"
/>
<path fill="#060644" d="
  M 380.93 176.00
  L 373.11 176.00
  L 373.12 163.99
  A 2.92 2.86 -55.1 0 0 372.96 163.04
  L 365.83 141.94
  A 0.20 0.20 0.0 0 1 366.02 141.68
  L 372.73 141.68
  A 0.45 0.44 -7.7 0 1 373.16 142.00
  L 375.84 151.19
  A 0.13 0.04 61.8 0 1 375.85 151.24
  Q 376.06 153.33 376.74 154.95
  A 0.30 0.30 0.0 0 0 377.31 154.91
  L 380.82 142.06
  A 0.52 0.51 7.2 0 1 381.32 141.68
  L 388.05 141.68
  A 0.20 0.19 -80.3 0 1 388.23 141.94
  L 381.09 163.02
  A 2.51 2.23 58.3 0 0 380.97 163.71
  L 380.93 176.00
  Z"
/>
<path fill="#060644" d="
  M 235.98 176.00
  L 227.17 176.00
  L 220.11 142.18
  A 0.42 0.42 0.0 0 1 220.52 141.68
  L 227.03 141.68
  A 0.66 0.66 0.0 0 1 227.68 142.23
  L 231.43 164.96
  A 0.14 0.14 0.0 0 0 231.71 164.96
  L 235.48 142.24
  A 0.66 0.66 0.0 0 1 236.13 141.69
  L 242.63 141.69
  A 0.43 0.42 6.0 0 1 243.05 142.20
  L 235.98 176.00
  Z"
/>
<path fill="#060644" d="
  M 303.02 176.00
  L 287.25 176.00
  L 287.22 142.37
  A 0.69 0.68 -90.0 0 1 287.90 141.68
  L 294.32 141.68
  A 0.64 0.64 0.0 0 1 294.96 142.32
  L 294.96 169.08
  A 0.56 0.56 0.0 0 0 295.52 169.64
  L 302.32 169.64
  A 0.63 0.63 0.0 0 1 302.95 170.26
  L 303.02 176.00
  Z"
/>
<path fill="#060644" d="
  M 329.75 176.00
  L 314.02 176.00
  L 313.99 142.34
  A 0.67 0.66 0.0 0 1 314.66 141.68
  L 321.10 141.68
  A 0.69 0.68 90.0 0 1 321.78 142.37
  L 321.78 169.23
  A 0.42 0.42 0.0 0 0 322.20 169.65
  L 329.10 169.65
  A 0.64 0.64 0.0 0 1 329.74 170.29
  L 329.75 176.00
  Z"
/>
<path fill="#060644" d="
  M 356.48 176.00
  L 340.55 176.00
  L 340.52 142.02
  A 0.34 0.33 -90.0 0 1 340.85 141.68
  L 356.07 141.68
  A 0.51 0.51 0.0 0 1 356.58 142.19
  L 356.58 147.36
  A 0.56 0.56 0.0 0 1 356.02 147.92
  L 348.70 147.92
  A 0.40 0.40 0.0 0 0 348.30 148.32
  L 348.30 155.39
  A 0.37 0.36 -0.0 0 0 348.67 155.75
  L 355.33 155.75
  A 0.63 0.62 -90.0 0 1 355.95 156.38
  L 355.95 161.30
  A 0.62 0.62 0.0 0 1 355.33 161.92
  L 348.72 161.92
  A 0.42 0.42 0.0 0 0 348.30 162.34
  L 348.30 169.30
  A 0.46 0.45 90.0 0 0 348.75 169.76
  L 355.87 169.76
  A 0.57 0.56 0.0 0 1 356.44 170.32
  L 356.48 176.00
  Z"
/>
<rect fill="#060644" x="133.01" y="156.06" width="64.98" height="5.90" rx="0.76"/>
<path fill="#060644" d="
  M 500.00 156.08
  L 500.00 161.92
  L 409.82 161.95
  A 0.78 0.77 90.0 0 1 409.05 161.17
  L 409.05 156.85
  A 0.76 0.76 0.0 0 1 409.81 156.09
  L 500.00 156.08
  Z"
/>
</svg>
