<svg xmlns="http://www.w3.org/2000/svg" fill="none" viewBox="-10.715 -10.715 300 300" id="Brightness-4--Streamline-Flex" height="300" width="300"><desc>Brightness 4 Streamline Icon: https://streamlinehq.com</desc><g id="brightness-4--bright-adjust-brightness-adjustment-sun-raise-controls-dot"><path id="Vector" stroke="#060644" stroke-linecap="round" stroke-linejoin="round" d="m47.83066797857143 47.83066797857143 7.6212772428571425 7.6212772428571425" stroke-width="21.43"></path><path id="Vector_2" stroke="#060644" stroke-linecap="round" stroke-linejoin="round" d="m223.12064149999998 223.12263128571428 7.6208792857142855 7.6208792857142855" stroke-width="21.43"></path><path id="Vector_3" stroke="#060644" stroke-linecap="round" stroke-linejoin="round" d="m139.28738774285713 9.94892857142857 0 10.778072278571427" stroke-width="21.43"></path><path id="Vector_4" stroke="#060644" stroke-linecap="round" stroke-linejoin="round" d="m139.28738774285713 257.84439199999997 0 10.776679428571427" stroke-width="21.43"></path><path id="Vector_5" stroke="#060644" stroke-linecap="round" stroke-linejoin="round" d="m268.6230612142857 139.285 -10.776679428571427 0" stroke-width="21.43"></path><path id="Vector_6" stroke="#060644" stroke-linecap="round" stroke-linejoin="round" d="M20.728592678571427 139.285 9.950520399999998 139.285" stroke-width="21.43"></path><path id="Vector_7" stroke="#060644" stroke-linecap="round" stroke-linejoin="round" d="m230.74152078571424 47.83066797857143 -7.6208792857142855 7.6212772428571425" stroke-width="21.43"></path><path id="Vector_8" stroke="#060644" stroke-linecap="round" stroke-linejoin="round" d="m55.452741135714284 223.12263128571428 -7.6212772428571425 7.6208792857142855" stroke-width="21.43"></path><path id="Vector 82" fill="#d76424" d="M139.285 185.8404143142857C100.48875507857142 185.8404143142857 92.72958568571428 162.56270715714285 92.72958568571428 139.285S100.48875507857142 92.72958568571428 139.285 92.72958568571428c38.79624492142857 0 46.555414314285706 23.277707157142853 46.555414314285706 46.555414314285706S178.08124492142855 185.8404143142857 139.285 185.8404143142857Z" stroke-width="21.43"></path><path id="Vector 83" stroke="#060644" stroke-linecap="round" stroke-linejoin="round" d="M139.285 185.8404143142857C100.48875507857142 185.8404143142857 92.72958568571428 162.56270715714285 92.72958568571428 139.285S100.48875507857142 92.72958568571428 139.285 92.72958568571428c38.79624492142857 0 46.555414314285706 23.277707157142853 46.555414314285706 46.555414314285706S178.08124492142855 185.8404143142857 139.285 185.8404143142857Z" stroke-width="21.43"></path></g></svg>