<svg xmlns="http://www.w3.org/2000/svg" fill="none" viewBox="0 0 14 14" id="Browser-Code-2--Streamline-Flex" height="14" width="14"><desc>Browser Code 2 Streamline Icon: https://streamlinehq.com</desc><g id="browser-code-2--code-browser-tags-angle-bracket"><path id="Intersect" fill="#4d6a7f" d="M0.927203 10.2878C1.08217 11.737 2.24714 12.9026 3.69488 13.064c2.22376 0.248 4.38648 0.248 6.61022 0 1.4478 -0.1614 2.6127 -1.327 2.7677 -2.7762 0.2363 -2.20944 0.2363 -4.36616 0 -6.57564 -0.155 -1.44916 -1.3199 -2.61471 -2.7677 -2.776165 -2.22374 -0.247993 -4.38646 -0.247993 -6.61022 0C2.24714 1.09745 1.08217 2.263 0.927203 3.71216c-0.236271 2.20948 -0.236271 4.3662 0 6.57564Z" stroke-width="1"></path><path id="Intersect_2" stroke="#060644" stroke-linecap="round" stroke-linejoin="round" d="M0.927203 10.2878C1.08217 11.737 2.24714 12.9026 3.69488 13.064c2.22376 0.248 4.38648 0.248 6.61022 0 1.4478 -0.1614 2.6127 -1.327 2.7677 -2.7762 0.2363 -2.20944 0.2363 -4.36616 0 -6.57564 -0.155 -1.44916 -1.3199 -2.61471 -2.7677 -2.776165 -2.22374 -0.247993 -4.38646 -0.247993 -6.61022 0C2.24714 1.09745 1.08217 2.263 0.927203 3.71216c-0.236271 2.20948 -0.236271 4.3662 0 6.57564Z" stroke-width="1"></path><path id="Intersect_3" fill="#d76424" d="m13.1013 3.98228 -12.202374 0c0.009309 -0.09024 0.018791 -0.18028 0.028398 -0.27012C1.08229 2.263 2.24726 1.09745 3.695 0.935995c2.22376 -0.247993 4.38648 -0.247993 6.6102 0C11.753 1.09745 12.918 2.263 13.0729 3.71216c0.0096 0.08984 0.0191 0.17988 0.0284 0.27012Z" stroke-width="1"></path><path id="Intersect_4" stroke="#060644" stroke-linecap="round" stroke-linejoin="round" d="m13.1013 3.98228 -12.202374 0c0.009309 -0.09024 0.018791 -0.18028 0.028398 -0.27012C1.08229 2.263 2.24726 1.09745 3.695 0.935995c2.22376 -0.247993 4.38648 -0.247993 6.6102 0C11.753 1.09745 12.918 2.263 13.0729 3.71216c0.0096 0.08984 0.0191 0.17988 0.0284 0.27012Z" stroke-width="1"></path><path id="Vector" stroke="#060644" stroke-linecap="round" stroke-linejoin="round" d="m6.25 10.4497 1.5 -4.49999" stroke-width="1"></path><path id="Vector_2" stroke="#060644" stroke-linecap="round" stroke-linejoin="round" d="M4.5 9.94971c-0.6 -0.3 -1.2 -0.9 -1.5 -1.49998 0.3 -0.60002 0.9 -1.20002 1.5 -1.50002" stroke-width="1"></path><path id="Vector_3" stroke="#060644" stroke-linecap="round" stroke-linejoin="round" d="M9.5 9.94971c0.6 -0.3 1.2 -0.9 1.5 -1.49998 -0.3 -0.60002 -0.9 -1.20002 -1.5 -1.50002" stroke-width="1"></path></g></svg>