<svg xmlns="http://www.w3.org/2000/svg" fill="none" viewBox="-10.715 -10.715 300 300" id="Business-Progress-Bar-2--Streamline-Flex" height="300" width="300"><desc>Business Progress Bar 2 Streamline Icon: https://streamlinehq.com</desc><g id="business-progress-bar-2--business-production-arrow-workflow-money-flag-timeline"><path id="Ellipse 135" fill="#d76424" d="M86.65516785714286 209.3851507142857a38.164089999999995 38.164089999999995 0 1 0 76.32817999999999 0 38.164089999999995 38.164089999999995 0 1 0 -76.32817999999999 0" stroke-width="21.43"></path><path id="Vector 245" fill="#4d6a7f" d="M124.82880882857143 29.846785714285712v89.80320783571428s73.49213842142856 0 118.92790031428571 -32.71665365c8.518272642857141 -6.133912421428571 8.508323714285714 -18.35756402142857 -0.01989785714285714 -24.477945899999998C198.3006514357143 29.846785714285712 124.82880882857143 29.846785714285712 124.82880882857143 29.846785714285712Z" stroke-width="21.43"></path><g id="Group"><path id="Vector" stroke="#060644" stroke-linecap="round" stroke-linejoin="round" d="m162.98573559999997 209.38913028571426 105.63533582857143 0" stroke-width="21.43"></path></g><path id="Vector_2" stroke="#060644" stroke-linecap="round" stroke-linejoin="round" d="M229.57948592857142 248.72321428571428c17.259401285714283 -14.139417285714284 25.588644285714285 -22.761158785714283 39.0415855 -39.334084 -13.452941214285714 -16.574119085714287 -21.782184214285714 -25.195860585714282 -39.0415855 -39.335675828571425" stroke-width="21.43"></path><path id="Ellipse 134" stroke="#060644" stroke-linecap="round" stroke-linejoin="round" d="M86.65516785714286 209.3851507142857a38.164089999999995 38.164089999999995 0 1 0 76.32817999999999 0 38.164089999999995 38.164089999999995 0 1 0 -76.32817999999999 0" stroke-width="21.43"></path><path id="Vector 242" stroke="#060644" stroke-linecap="round" stroke-linejoin="round" d="m86.67208103571429 209.38913028571426 -76.72315246428572 0" stroke-width="21.43"></path><path id="Vector 243" stroke="#060644" stroke-linecap="round" stroke-linejoin="round" d="M124.82880882857143 171.23280044999998V29.846785714285712" stroke-width="21.43"></path><path id="Vector 244" stroke="#060644" stroke-linecap="round" stroke-linejoin="round" d="M124.82880882857143 29.846785714285712v89.80320783571428s73.49213842142856 0 118.92790031428571 -32.71665365c8.518272642857141 -6.133912421428571 8.508323714285714 -18.35756402142857 -0.01989785714285714 -24.477945899999998C198.3006514357143 29.846785714285712 124.82880882857143 29.846785714285712 124.82880882857143 29.846785714285712Z" stroke-width="21.43"></path></g></svg>