<svg xmlns="http://www.w3.org/2000/svg" fill="none" viewBox="0 0 14 14" height="14" width="14"><g id="chart-profit-growth-through-the-roof--chart-profit-growth-through-the-roof-over-perform"><path id="Subtract" fill="#d76424" fill-rule="evenodd" d="M7.40771 1.01122V1.75c0 0.9665 0.78351 1.75 1.75 1.75 0.19011 0 0.37314 -0.03031 0.54452 -0.08637 0.08108 0.26469 0.22632 0.51394 0.43567 0.72333 0.1569 0.15687 0.3361 0.27774 0.5275 0.36259 -0.1061 0.22569 -0.1654 0.47773 -0.1654 0.74361 0 0.9665 0.7835 1.75 1.75 1.75h0.7483c0.0011 0.08549 0.0017 0.1711 0.0017 0.25684 0 1.11315 -0.0961 2.20502 -0.2099 3.2685 -0.1541 1.4407 -1.3128 2.5994 -2.7528 2.7599 -1.0695 0.1192 -2.16767 0.2216 -3.2873 0.2216s-2.21779 -0.1024 -3.28734 -0.2216C2.0227 13.1179 0.864 11.9592 0.709867 10.5185 0.596084 9.45502 0.5 8.36315 0.5 7.25c0 -1.11316 0.096083 -2.20502 0.209867 -3.26853C0.863999 2.54082 2.0227 1.38211 3.46266 1.22161 4.53221 1.10239 5.63037 1 6.75 1c0.22009 0 0.43934 0.00396 0.65771 0.01122Z" clip-rule="evenodd" stroke-width="1"></path><path id="Intersect" stroke="#060644" stroke-linecap="round" stroke-linejoin="round" d="M13 7.25c0 1.11315 -0.0961 2.20502 -0.2099 3.2685 -0.1541 1.4407 -1.3128 2.5994 -2.7528 2.7599 -1.06951 0.1192 -2.16767 0.2216 -3.2873 0.2216s-2.21779 -0.1024 -3.28734 -0.2216C2.0227 13.1179 0.864 11.9592 0.709867 10.5185 0.596084 9.45502 0.5 8.36315 0.5 7.25c0 -1.11316 0.096083 -2.20502 0.209867 -3.26853C0.863999 2.54082 2.0227 1.38211 3.46266 1.22161 4.53221 1.10239 5.63037 1 6.75 1" stroke-width="1"></path><path id="Vector 4148" stroke="#060644" stroke-linecap="round" stroke-linejoin="round" d="M9.15771 0.5v1.25" stroke-width="1"></path><path id="Vector 4150" stroke="#060644" stroke-linecap="round" stroke-linejoin="round" d="m13.5 5.24316 -1.25 0" stroke-width="1"></path><path id="Vector 4149" stroke="#060644" stroke-linecap="round" stroke-linejoin="round" d="m12.436 1.83887 -1.0606 1.06066" stroke-width="1"></path><path id="Vector" stroke="#060644" stroke-linecap="round" stroke-linejoin="round" d="M8.89629 5.20241C5.66803 8.16202 3.27754 9.61717 0.505934 8.17601" stroke-width="1"></path><path id="Vector_2" stroke="#060644" stroke-linecap="round" stroke-linejoin="round" d="M8.9903 7.74485c0.3094 -0.80935 0.35694 -1.90433 0.11887 -2.73744 -0.80937 -0.30942 -1.90436 -0.35696 -2.73748 -0.11886" stroke-width="1"></path></g></svg>