<svg xmlns="http://www.w3.org/2000/svg" fill="none" viewBox="0 0 14 14" id="Combine--Streamline-Flex" height="14" width="14"><desc>Combine Streamline Icon: https://streamlinehq.com</desc><g id="combine--combine-action-layers-group-object"><path id="Intersect" fill="#d76424" d="M0.542723 4.20706c0.078103 0.96269 0.865077 1.73654 1.830137 1.77575 0.5963 0.02422 1.15798 0.02422 1.75428 0 0.96506 -0.03921 1.75203 -0.81306 1.83014 -1.77575C5.98277 3.89287 6 3.57389 6 3.25098c0 -0.32292 -0.01723 -0.64189 -0.04272 -0.95609C5.87917 1.3322 5.0922 0.558355 4.12714 0.519146c-0.5963 -0.024226 -1.15798 -0.024226 -1.75428 0C1.4078 0.558355 0.620826 1.3322 0.542723 2.29489 0.517233 2.60909 0.5 2.92806 0.5 3.25098c0 0.32291 0.017233 0.64189 0.042723 0.95608Z" stroke-width="1"></path><path id="Intersect_2" fill="#4d6a7f" d="M8.04272 11.7061c0.07811 0.9627 0.86508 1.7365 1.83014 1.7757 0.59634 0.0243 1.15794 0.0243 1.75424 0 0.9651 -0.0392 1.7521 -0.813 1.8302 -1.7757 0.0255 -0.3142 0.0427 -0.6332 0.0427 -0.9561 0 -0.3229 -0.0172 -0.6419 -0.0427 -0.95608 -0.0781 -0.9627 -0.8651 -1.73654 -1.8302 -1.77575 -0.5963 -0.02423 -1.1579 -0.02423 -1.75424 0 -0.96506 0.03921 -1.75203 0.81305 -1.83014 1.77575C8.01723 10.1081 8 10.4271 8 10.75c0 0.3229 0.01723 0.6419 0.04272 0.9561Z" stroke-width="1"></path><path id="Intersect_3" stroke="#060644" stroke-linecap="round" stroke-linejoin="round" d="M0.542723 4.20706c0.078103 0.96269 0.865077 1.73654 1.830137 1.77575 0.5963 0.02422 1.15798 0.02422 1.75428 0 0.96506 -0.03921 1.75203 -0.81306 1.83014 -1.77575C5.98277 3.89287 6 3.57389 6 3.25098c0 -0.32292 -0.01723 -0.64189 -0.04272 -0.95609C5.87917 1.3322 5.0922 0.558355 4.12714 0.519146c-0.5963 -0.024226 -1.15798 -0.024226 -1.75428 0C1.4078 0.558355 0.620826 1.3322 0.542723 2.29489 0.517233 2.60909 0.5 2.92806 0.5 3.25098c0 0.32291 0.017233 0.64189 0.042723 0.95608Z" stroke-width="1"></path><path id="Subtract" fill="#d76424" fill-rule="evenodd" d="M7.15466 6.0008c0.23819 -0.00177 0.47742 -0.00763 0.72251 -0.01759 0.96506 -0.03921 1.75203 -0.81305 1.83013 -1.77575 0.02549 -0.31419 0.04272 -0.63317 0.04272 -0.95608 0 -0.32292 -0.01723 -0.64189 -0.04272 -0.95609C9.6292 1.3326 8.84223 0.558756 7.87717 0.519547 7.63209 0.50959 7.39285 0.503725 7.15466 0.501953c0.30465 0.488622 0.49825 1.052017 0.54691 1.651827 0.02798 0.3449 0.04845 0.71347 0.04845 1.0976 0 0.38412 -0.02047 0.75269 -0.04845 1.09759 -0.04866 0.59982 -0.24226 1.16321 -0.54691 1.65183Z" clip-rule="evenodd" stroke-width="1"></path><path id="Subtract_2" fill="#d76424" fill-rule="evenodd" d="M10.9047 6.0008c0.2382 -0.00177 0.4774 -0.00763 0.7225 -0.01759 0.965 -0.03921 1.752 -0.81305 1.8301 -1.77575 0.0255 -0.31419 0.0427 -0.63317 0.0427 -0.95608 0 -0.32292 -0.0172 -0.64189 -0.0427 -0.95609 -0.0781 -0.96269 -0.8651 -1.736534 -1.8301 -1.775743 -0.2451 -0.009957 -0.4843 -0.015822 -0.7225 -0.017594 0.3046 0.488622 0.4982 1.052017 0.5469 1.651827 0.028 0.3449 0.0484 0.71347 0.0484 1.0976 0 0.38412 -0.0204 0.75269 -0.0484 1.09759 -0.0487 0.59982 -0.2423 1.16321 -0.5469 1.65183Z" clip-rule="evenodd" stroke-width="1"></path><path id="Intersect_4" stroke="#060644" stroke-linecap="round" stroke-linejoin="round" d="M7.25 0.500977c0.28949 0 0.32899 0.006056 0.62714 0.018169 0.96506 0.039209 1.75203 0.813054 1.83014 1.775744 0.02549 0.3142 0.04272 0.63317 0.04272 0.95609 0 0.32291 -0.01723 0.64189 -0.04272 0.95608 -0.07811 0.96269 -0.86508 1.73654 -1.83014 1.77575 -0.29815 0.01211 -0.33765 0.01817 -0.62714 0.01817" stroke-width="1"></path><path id="Intersect_5" stroke="#060644" stroke-linecap="round" stroke-linejoin="round" d="M11 0.500977c0.2895 0 0.329 0.006056 0.6271 0.018169 0.9651 0.039209 1.7521 0.813054 1.8302 1.775744 0.0255 0.3142 0.0427 0.63317 0.0427 0.95609 0 0.32291 -0.0172 0.64189 -0.0427 0.95608 -0.0781 0.96269 -0.8651 1.73654 -1.8302 1.77575 -0.2981 0.01211 -0.3376 0.01817 -0.6271 0.01817" stroke-width="1"></path><path id="Intersect_6" stroke="#060644" stroke-linecap="round" stroke-linejoin="round" d="M11 0.500977c0.2895 0 0.329 0.006056 0.6271 0.018169 0.9651 0.039209 1.7521 0.813054 1.8302 1.775744 0.0255 0.3142 0.0427 0.63317 0.0427 0.95609 0 0.32291 -0.0172 0.64189 -0.0427 0.95608 -0.0781 0.96269 -0.8651 1.73654 -1.8302 1.77575 -0.2981 0.01211 -0.3376 0.01817 -0.6271 0.01817" stroke-width="1"></path><path id="Intersect_7" stroke="#060644" stroke-linecap="round" stroke-linejoin="round" d="M8.04272 11.7061c0.07811 0.9627 0.86508 1.7365 1.83014 1.7757 0.59634 0.0243 1.15794 0.0243 1.75424 0 0.9651 -0.0392 1.7521 -0.813 1.8302 -1.7757 0.0255 -0.3142 0.0427 -0.6332 0.0427 -0.9561 0 -0.3229 -0.0172 -0.6419 -0.0427 -0.95608 -0.0781 -0.9627 -0.8651 -1.73654 -1.8302 -1.77575 -0.5963 -0.02423 -1.1579 -0.02423 -1.75424 0 -0.96506 0.03921 -1.75203 0.81305 -1.83014 1.77575C8.01723 10.1081 8 10.4271 8 10.75c0 0.3229 0.01723 0.6419 0.04272 0.9561Z" stroke-width="1"></path><path id="ellipse 52" stroke="#060644" stroke-linecap="round" stroke-linejoin="round" d="M1.23059 8.26789c0 1.61623 1.31022 2.92641 2.92645 2.92641 0.28071 0 0.5522 -0.0395 0.80918 -0.1133l0.7761 -0.2674" stroke-width="1"></path><path id="Vector" stroke="#060644" stroke-linecap="round" stroke-linejoin="round" d="M4.5051 12.6885c0.59796 -0.299 1.19592 -0.897 1.4949 -1.4949 -0.29898 -0.598 -0.89694 -1.19595 -1.4949 -1.49493" stroke-width="1"></path></g></svg>