<svg xmlns="http://www.w3.org/2000/svg" fill="none" viewBox="0 0 14 14" height="14" width="14"><g id="concierge-receptionist--wayfinder-concierge-receptionist-hotel-service-representative-hospitality"><path id="Vector 112" fill="#d76424" d="m3.3389 4.45406 3.93761 -0.70612 4.07849 0.968c0.6598 0.15658 1.3241 -0.24094 1.498 -0.89632 0.1615 -0.60876 -0.1547 -1.24267 -0.7382 -1.47974L8.85241 1.01437C7.26545 0.369584 5.49712 0.329206 3.88239 0.900884L0.5 2.09838S0.25 3.69223 0.25 4.72111c0 1.02888 0.25 2.62273 0.25 2.62273l0.90477 0.05146c0.80969 0.04605 1.62167 -0.03129 2.40812 -0.22936l1.20356 -0.30313c0.64298 -0.16194 1.06961 -0.77134 1.00176 -1.43093 -0.07943 -0.77212 -0.79842 -1.31389 -1.56252 -1.17736l-1.11679 0.19954Z" stroke-width="1"></path><path id="Subtract" fill="#4d6a7f" d="M5.69824 13.2277c0 -1.0161 0.3736 -1.9906 1.03862 -2.7091 0.66502 -0.71847 1.56697 -1.12212 2.50744 -1.12212 0.9405 0 1.8424 0.40365 2.5074 1.12212 0.6651 0.7185 1.0387 1.693 1.0387 2.7091v0.0725c-2.7612 0.2682 -4.51731 0.26 -7.09216 0.0023v-0.0748Z" stroke-width="1"></path><path id="Vector 111" stroke="#060644" stroke-linecap="round" stroke-linejoin="round" d="m0.671814 7.34491 0.712946 0.04412c0.82279 0.05091 1.64851 -0.02566 2.44791 -0.227l1.18378 -0.29815c0.64299 -0.16194 1.06961 -0.77133 1.00176 -1.43092 -0.07943 -0.77213 -0.79842 -1.31389 -1.56252 -1.17736l-1.11679 0.19954 3.93761 -0.70612 4.07849 0.968c0.6598 0.15658 1.3241 -0.24095 1.498 -0.89633 0.1615 -0.60875 -0.1547 -1.24266 -0.7382 -1.47974L8.85241 1.01544C7.26545 0.37066 5.49712 0.330282 3.88239 0.90196L0.5 2.09946" stroke-width="1"></path><path id="Vector 4318" stroke="#060644" stroke-linecap="round" stroke-linejoin="round" d="m0.671814 7.34491 0.712946 0.04412c0.82279 0.05091 1.64851 -0.02566 2.44791 -0.227l1.18378 -0.29815c0.64299 -0.16194 1.06961 -0.77133 1.00176 -1.43092 -0.07943 -0.77213 -0.79842 -1.31389 -1.56252 -1.17736l-1.11679 0.19954 3.93761 -0.70612 4.07849 0.968c0.6598 0.15658 1.3241 -0.24095 1.498 -0.89633 0.1615 -0.60875 -0.1547 -1.24266 -0.7382 -1.47974L8.85241 1.01544C7.26545 0.37066 5.49712 0.330282 3.88239 0.90196L0.5 2.09946" stroke-width="1"></path><path id="Vector" stroke="#060644" stroke-linecap="round" stroke-linejoin="round" d="M4.98926 13.2285c3.20598 0.3539 5.06384 0.3685 8.51054 0" stroke-width="1"></path><path id="Subtract_2" stroke="#060644" stroke-linecap="round" stroke-linejoin="round" d="M5.69824 13.2277c0 -1.0161 0.3736 -1.9906 1.03862 -2.7091 0.66502 -0.71847 1.56697 -1.12212 2.50744 -1.12212 0.9405 0 1.8424 0.40365 2.5074 1.12212 0.6651 0.7185 1.0387 1.693 1.0387 2.7091v0.0725c-2.7612 0.2682 -4.51731 0.26 -7.09216 0.0023v-0.0748Z" stroke-width="1"></path><path id="Vector 4317" stroke="#060644" stroke-linecap="round" d="M9.24463 9.34961V8.01562" stroke-width="1"></path></g></svg>