<svg xmlns="http://www.w3.org/2000/svg" viewBox="0 0 1305 872" xmlns:v="https://vecta.io/nano"><style><![CDATA[.B{stroke-width:2}.C{stroke:#743c3a}.D{stroke:#8b7f8a}.E{fill:#d26225}.F{fill:#ffe7c4}.G{fill:#16164f}]]></style><g fill="none" class="B"><path d="M679.711 30.577a110.44 103.99-85.2 0 0-112.867 101.351 110.44 103.99-85.2 0 0 94.384 118.754 110.44 103.99-85.2 0 0 112.867-101.351 110.44 103.99-85.2 0 0-94.384-118.754M722.18 245.81a.39.39 0 0 0 .5.17c5.21-2.34 11.59-4.72 16.05-7.5q24.87-15.52 38.48-38.8c23.36-39.99 20.78-91.94-8.87-128.53q-11.02-13.6-26-22.84a.6.59 37.7 0 0-.74.09l-.02.02a.46.46 0 0 0 .04.68q15.34 12.3 24.27 27.77 11.53 19.97 15.1 44.69c1.14 7.91 1.05 16.97.77 24.94-.83 23.34-9.05 45.84-22.43 65.08q-9.52 13.69-21.7 23.03-8.17 6.26-15.32 10.67a.39.39 0 0 0-.14.51l.01.02M89.773 173.426a2.42 2.42 0 0 0-2.424-2.416l-56.98.1a2.42 2.42 0 0 0-2.416 2.424l.055 31.18a2.42 2.42 0 0 0 2.424 2.416l56.98-.1a2.42 2.42 0 0 0 2.416-2.424l-.055-31.18m59.967 90.534q16.89.11 69.6-.07 2.91-.01 5.5-1.47 11.03-6.25 11.25-18.86.12-6.79 0-31.29c-.02-4.33-2.06-6.62-5.02-9.74q-5.77-6.09-21.8-22.01c-3.63-3.6-6.85-9.43-12.77-9.44q-34.25-.07-46.59.02a1.11 1.11 0 0 0-1.1 1.11v90.82a.93.93 0 0 0 .93.93m946.07-54.21a1.21 1.21 0 0 0-1.21-1.21h-51.08a1.21 1.21 0 0 0-1.21 1.21v34.12a1.21 1.21 0 0 0 1.21 1.21h51.08a1.21 1.21 0 0 0 1.21-1.21v-34.12m-.216 45.114a1.33 1.33 0 0 0-1.332-1.328l-84.28.147a1.33 1.33 0 0 0-1.328 1.332l.012 6.96a1.33 1.33 0 0 0 1.332 1.328l84.28-.147a1.33 1.33 0 0 0 1.328-1.332l-.012-6.96M367.17 378.86q.65-.16 1.36-.84 5.29-5.08 14.87-14.97a5.17 5.16 67.1 0 0 1.45-3.59q0-3.77-.25-56.46-.03-6.9.47-17.01c.26-5.41 4.23-5.78 8.51-6.1a.55.55 0 0 0 .51-.55l.05-18.14a1.03 1.03 0 0 0-1.02-1.04q-10.08-.07-18.15.07c-7.51.13-8.31 2.79-8.36 9.6q-.25 35.95.28 101.67.03 2.93-.24 6.93a.42.42 0 0 0 .52.43m562.97 192.02a.92.91 0 0 0 .92-.91q.14-117.95.06-304.21c-.01-2.18-.08-3.75-2.09-4.63q-1.85-.81-4.03-.85-17.2-.26-57.5-.25-233.03.09-461.75-.02-.85 0-1.15.15a1.28 1.27 76.9 0 0-.69 1.12l-.01 17.95a.79.79 0 0 0 .79.79l489.31-.1q8.23 0 15.25.27c4.35.17 4.76 2.22 4.81 6.06q.04 3.2-.07 283.98a.65.65 0 0 0 .65.65h15.5m93.18-296.03a1.18 1.18 0 0 0-1.18-1.18H1010a1.18 1.18 0 0 0-1.18 1.18v27.8a1.18 1.18 0 0 0 1.18 1.18h12.14a1.18 1.18 0 0 0 1.18-1.18v-27.8" class="C"/><path d="M394.98 289.32a1 1 0 0 0-1-1h-.02a1 1 0 0 0-1 1v47.28a1 1 0 0 0 1 1h.02a1 1 0 0 0 1-1v-47.28m143.51 329.79c4.64 8.54 5.07 16.77 5.72 28.51a.5.5 0 0 0 .5.47h276.35a2.83 2.82-79.6 0 0 2.64-1.83l10.21-26.82a.42.41 10.2 0 0-.39-.56q-23.86-.03-33.75.03c-6.19.04-10.79.88-10.84-6.65q-.04-5.79-.06-189.25c0-4.4 1.06-9.39 6.16-9.42q28.04-.15 50.72-.02 4.44.03 7.51.37c4.23.47 4.88 2.78 4.88 6.96q-.03 119.18.01 149.25a.4.4 0 0 0 .41.4q22.12-.77 45.97-.05a.33.33 0 0 0 .34-.33v-280.9a.45.45 0 0 0-.45-.45H404.76a.6.6 0 0 0-.6.6v45.37a1.36 1.33-72.6 0 0 .56 1.1c7.32 5.23 11.58 11.15 5.92 19.87a1.19 1.18-52.1 0 0 .18 1.5c11.55 10.94 22.34 25.23 31.9 35.28 1.59 1.67 2.42 3.68 2.43 5.94q.14 30.99.03 42.37c-.04 4.53-1.14 8.14-5.97 8.21q-12.6.16-45.51.06a.24.24 0 0 0-.24.24v101.77a.71.71 0 0 0 .7.71q8.02.1 14.41-.04c13.97-.3 26.42 4.54 34.13 16.36q3.14 4.81 5.31 13 1.29 4.82 1.24 13.91-.05 10.47-.12 14.19a.59.59 0 0 0 .59.6h43.29a.5.5 0 0 0 .5-.5q-.1-22.08-.08-44.61c.01-7.06 4.05-7.89 10.35-7.89q42.33-.03 47.19 0c6.13.04 10.47.38 10.46 7.66q-.04 29.07-.24 43.67c-.08 5.96.31 10.81-6.7 10.82q-7.89.02-12.5-.03-1.05-.02-3.11-.39a.36.36 0 0 0-.39.52m535.33 35.53q104.19-.04 118.93.1c4.96.05 6.74 1.37 10.15 4.26a.6.6 0 0 0 .99-.46V313.96a.73.72 90 0 0-.72-.73h-194.61a.44.44 0 0 0-.44.44v138.4a.6.6 0 0 0 .6.6q67.38.05 80.53.01 4.1-.02 5.47.9 5.13 3.42 19.29 14.67.32.25 2.91 2.94a4.2 4.19-67.1 0 1 1.18 2.92v96.77a1.09 1.08-2 0 0 1.16 1.08c8.02-.56 17.99.84 24.55 4.95q12.05 7.54 15.04 21.19c3.2 14.55-2.65 28.65-16.48 35.03q-4.42 2.04-7.39 2.04-38.53.1-53.57-.12a.56.55-78.8 0 0-.53.36l-7.34 18.83a.3.3 0 0 0 .28.4" class="D"/><path d="M404.23 348.36a4.44 4.44 0 0 0-8.88 0 4.44 4.44 0 0 0 8.88 0" class="C"/><path d="M393.8 362.08a.31.31 0 0 0-.31.31l-.09 28.56a.31.31 0 0 0 .31.31l34.72.11a.31.31 0 0 0 .23-.52l-25.35-28.64a.31.31 0 0 0-.23-.1l-9.28-.03" class="D"/><path d="M384.67 375.44a.32.32 0 0 0-.55-.23l-16.05 15.99a.32.32 0 0 0 .23.55l16.01.01a.32.32 0 0 0 .32-.31l.04-16.01m51.507 25.723a1.23 1.23 0 0 0-1.232-1.228l-74 .129a1.23 1.23 0 0 0-1.228 1.232l.066 38.04a1.23 1.23 0 0 0 1.232 1.228l74-.129a1.23 1.23 0 0 0 1.228-1.232l-.066-38.04M798.25 609.33a.71.71 0 0 0 .71.71h37.71a2.19 2.19 0 0 0 2.04-1.4q3.57-9.23 8.53-22.64 2.01-5.43 2.02-9.74.12-57.82-.02-152.8a1.2 1.19 89.8 0 0-1.19-1.19h-48.54a1.26 1.26 0 0 0-1.26 1.26v185.8M384.572 450.034a1.02 1.02 0 0 0-1.022-1.018l-15.96.028a1.02 1.02 0 0 0-1.018 1.022l.176 100.98a1.02 1.02 0 0 0 1.022 1.018l15.96-.028a1.02 1.02 0 0 0 1.018-1.022l-.176-100.98m701.468 12.216a1.25 1.25 0 0 0-1.25-1.25H951.81a1.25 1.25 0 0 0-1.25 1.25v16.4a1.25 1.25 0 0 0 1.25 1.25h132.98a1.25 1.25 0 0 0 1.25-1.25v-16.4" class="C"/><path d="M1085.391 489.688a.42.42 0 0 0-.419-.421l-134.34-.234a.42.42 0 0 0-.421.419l-.142 81.16a.42.42 0 0 0 .419.421l134.34.235a.42.42 0 0 0 .421-.419l.142-81.16" class="D"/><path d="M440.73 609.59c.67-17.76 1.47-39.07-18.3-47.28-4.72-1.96-11.6-1.98-16.43-1.99q-47.37-.13-91.76.06-9.82.04-13.48 1.36-17.64 6.34-19.43 24.56-.75 7.7-.29 22.95a.88.87 89 0 0 .87.85l14.8.05a1.43 1.43 0 0 0 1.43-1.43q.01-2.09.05-12.95.03-8.44 1.64-11.15 2.57-4.33 7.02-6.52 2.19-1.08 9.45-1.05 39.39.19 85.7 0c1.85-.01 6.51-.24 8.96.63 14.63 5.19 12.91 19.06 13.04 31.76a.74.73 89.6 0 0 .73.73h15.39a.61.6 1 0 0 .61-.58m111.367-42.557a1.13 1.13 0 0 0-1.128-1.132l-46.86-.082a1.13 1.13 0 0 0-1.132 1.128l-.073 41.92a1.13 1.13 0 0 0 1.128 1.132l46.86.082a1.13 1.13 0 0 0 1.132-1.128l.073-41.92" class="C"/><path d="M778.76 785.89q24.09-.11 39.24.1 60.81.84 136.75.92c15.43.02 21.46 13.71 16.67 26.72-1.23 3.35-3.42 5.15-6.91 5.1q-22.21-.28-26.91-.5a.53.52-2.3 0 0-.55.59q.58 4.73 2.82 8.71c3.47 6.14 11.72 10.02 18.4 10.25q3.1.11 9.37.18 6 .06 9.26-.88c13.54-3.93 20.36-12.91 25.34-25.61l48.49-123.11q18.99-48.68 34.96-87.92 4.22-10.38 10.93-18.61a.52.52 0 0 0-.41-.84q-18.33.29-38.46.05-41.17-.5-114.16-.91-22.78-.13-40.18-.45-34.31-.61-40.16-.41c-4.05.14-6.2 5.15-7.58 8.66l-77.24 197.48a.35.35 0 0 0 .33.48m317.38-186.12q2.58.09 26.14.08c4.63 0 5.2 2.93 3.92 6.74-2.31 6.85-6.25 13.89 1.28 19.01 1.77 1.21 4.93 1.68 6.88 1.26q12.49-2.67 15.72-14.47c3.47-12.71-3.4-25.12-14.96-29.71-8.43-3.36-19.53-3.25-27.42 2q-7.82 5.21-11.99 14.4a.49.49 0 0 0 .43.69" class="D"/><path d="M384.719 586.571a1.15 1.15 0 0 0-1.146-1.154l-15.58-.054a1.15 1.15 0 0 0-1.154 1.146l-.078 22.42a1.15 1.15 0 0 0 1.146 1.154l15.58.054a1.15 1.15 0 0 0 1.154-1.146l.078-22.42" class="C"/><path d="M393.19 586.63v22.7a.63.62-90 0 0 .62.63h20.57a.55.55 0 0 0 .55-.55q.01-3.81.03-11.36c.01-4.94-.96-7.55-4.35-10.31q-2.26-1.84-8.22-1.77-5.1.06-8.34-.15a.81.81 0 0 0-.86.81m692.06 39.85l31.04.42a.66.65 77.5 0 0 .59-.94l-1.5-3.15a1.99 1.9 29.7 0 1-.16-.54q-1.06-7.12.94-13.31a.8.8 0 0 0-.75-1.04l-21.76-.29a1.26 1.23-61.3 0 0-.75.23q-1.25.86-2.07 2.75-2.92 6.72-6.11 15.09a.57.57 0 0 0 .53.78" class="D"/><path d="M375.74 742.15q24.81-5.8 51.96-13.1l42.26-11.07q20.58-5.62 27.72-8.34c8.29-3.15 14.11-7.09 14.25-16.45q.34-22.06-.92-46.6a2.12 2.11 88.6 0 0-2.11-2.01h-.89a1.92 1.91-89.8 0 0-1.91 1.91q-.21 28.64-.29 44.76c-.04 6.9-5.04 10.72-11.06 12.49q-41.61 12.26-80.12 21.69l-35.52 9.16q-.45.1-3.41 1.14a2.4 2.39-9.5 0 0-1.6 2.23l-.04 2.84a1.37 1.37 0 0 0 1.68 1.35m443.14-83.86a1 1 0 0 0-.94-1.34H544.91a1 1 0 0 0-1 1v17.59a1 1 0 0 0 1 1l266.29.81a1 1 0 0 0 .94-.66l6.74-18.4m369.94 5.34a.56.56 0 0 0-.56-.56H1070.4a1.65 1.65 0 0 0-1.54 1.05l-35.12 90.21a.88.88 0 0 0 .82 1.2h12.12a2.13 2.13 0 0 1 2.13 2.11q.15 16.79.04 32.94-.02 2.41-2.57 2.44-13.2.16-26.8.04a2.08 2.07 10.5 0 0-1.96 1.34q-2.89 7.68-6.82 18.06c-3.76 9.96-8.54 18.56-17.52 24.48a.64.64 0 0 0 .35 1.17h194.65a.64.63 0 0 0 .64-.63V663.63m-871.55 75.64l.01-3.44a1.92 1.91 6.8 0 0-1.48-1.87q-45.74-10.89-90.52-23.69c-5.78-1.65-11.28-3.69-17.71-5.76a1.65 1.65 0 0 0-2.13 1.3l-.31 1.91a3.11 3.11 0 0 0 1.65 3.29c7.02 3.6 12.83 4.86 23.11 7.91q6.81 2.03 13.17 3.66 35.32 9.09 72.61 17.96a1.3 1.3 0 0 0 1.6-1.27m48.48-27.44a1.04 1.04 0 0 0-1.04-1.05l-38.27-.12a1.04 1.04 0 0 0-1.04 1.07l.61 22.36a1.04 1.04 0 0 0 1.04 1.01h37.36a1.04 1.04 0 0 0 1.04-1.03l.3-22.24m314.356 3.041a1.68 1.68 0 0 0-1.677-1.683l-43.78-.076a1.68 1.68 0 0 0-1.683 1.677l-.152 87.04a1.68 1.68 0 0 0 1.677 1.683l43.78.076a1.68 1.68 0 0 0 1.683-1.677l.152-87.04m-168.836 9.734a2.21 2.21 0 0 0-2.206-2.214l-1.6-.003a2.21 2.21 0 0 0-2.214 2.206l-.18 102.9a2.21 2.21 0 0 0 2.206 2.214l1.6.003a2.21 2.21 0 0 0 2.214-2.206l.18-102.9M364.98 744.03l-37.92-.14a1.23 1.23 0 0 0-1.23 1.23l-.03 6.63a15.92 15.4-89.8 0 0 15.35 15.97l9.58.04a15.92 15.4-89.8 0 0 15.45-15.87l.03-6.63a1.23 1.23 0 0 0-1.23-1.23M198 794.04a1.14 1.14 0 0 0-1.14-1.14h-92.82a1.14 1.14 0 0 0-1.14 1.14v24.42a1.14 1.14 0 0 0 1.14 1.14h92.82a1.14 1.14 0 0 0 1.14-1.14v-24.42" class="C"/><path d="M937.84 837.49c-12.32-11.29-11.54-26.71-6.12-41.24a.71.71 0 0 0-.69-.96q-9.35.28-17.03.18-37.69-.51-75.07-.44c-40.87.07-82.03-.55-123.68-.69q-.81-.01-9.66-.27a1.89 1.89 0 0 0-1.9 1.45q-1.81 7.61-2.5 15.98c-.57 6.94 1.33 15.54 6.75 19.96q3.66 2.98 7.54 4.58 2.34.96 8.67 1.01 109.12.84 213.55.8a.21.21 0 0 0 .14-.36m.11-26.93l25.56.44a.24.24 0 0 0 .24-.23l.09-4.86a9.62 5.31-89 0 0-5.14-9.71l-15.42-.27a9.62 5.31-89 0 0-5.48 9.52l-.08 4.86a.24.24 0 0 0 .23.25" class="D"/><g class="C"><path d="M701.39 836.3q-.73-1.17-2.13-3.03-6.43-8.49-6.14-19.21a1.74 1.74 0 0 0-1.76-1.79q-32 .31-65.1-.23-7.32-.13-38.01.43-11.38.2-15.5 8.59c-2.41 4.91-1.97 10.39-1.75 15.78a.61.61 0 0 0 .61.59q65.06.06 125.39-.04 1.8-.01 4.15-.52a.38.38 0 0 0 .24-.57M678.91 96.52c5.95 2.18 10.59 8.37 14.37 12.61a2.81 2.58-2.5 0 0 .63.53q4.5 2.78 8.84.48c5.83-3.1 4.92-10.63 1.67-15.58q-9.28-14.17-26.45-16.59a1.01 1.01 0 0 1-.86-1q.02-3.83-.38-7.43c-.55-4.87-6.14-8.17-10.82-5.37-3.67 2.18-3.88 8.63-3.73 12.69a.85.84 84.7 0 1-.72.87q-9.81 1.43-17.33 7.84-9.6 8.17-10.91 21.94c-.98 10.22 1.45 18.35 8.33 25.64q8.23 8.72 19.24 12.18a1.6 1.59-81.3 0 1 1.11 1.52v36.14a1.33 1.33 0 0 1-1.86 1.22c-6.17-2.69-8.83-6.52-14.06-12.61-2.97-3.46-9.04-5.08-12.46-1.42q-2.34 2.53-2.23 5.1c.72 16.21 16.15 26.1 30.53 29.48a1.62 1.61-83.2 0 1 1.25 1.6c-.04 2.16-.43 6.14.71 8.17 1.68 3 4.46 5.2 7.84 3.88 5.41-2.1 5.49-7.25 6.02-12.36a2.02 2.01 86.1 0 1 1.51-1.74q13.05-3.25 21.11-12.39c9.77-11.08 12.56-25.48 6.03-38.78-4.94-10.06-16.74-18.26-27.22-22.48a1.77 1.76 11.2 0 1-1.11-1.65l.09-31.9a.64.63 10.3 0 1 .86-.59"/><path d="M650.89 110.7c.04 5.69 5.06 11.03 9.74 13.75a.8.8 0 0 0 1.19-.52c.52-2.32.16-6.9.12-13.31-.05-6.4.26-10.98-.3-13.3a.8.8 0 0 0-1.19-.5c-4.65 2.78-9.6 8.19-9.56 13.88m27.07 57.05q.06 14.93.06 16a.85.84-13.7 0 0 1.24.75c6.49-3.44 12.4-9.39 12.37-16.8-.03-7.42-5.99-13.32-12.51-16.71a.85.84 13.3 0 0-1.24.76q.02 1.07.08 16m-457.53 57.98q3.22-6.23-1.51-11.41-10.65-11.66-24.63-25.49-2.47-2.44-5.37-2.74-7.45-.78-16.67-.37c-3.7.16-6.82.5-6.87 4.78q-.23 21.44-.21 22.25c.11 6.14-.45 11.11 4.42 13.98q1.75 1.02 6.61 1.12 22.9.45 40.32-.04 2.87-.08 3.91-2.08"/></g><path stroke="#a1a6a2" d="M533.65 507.11q9.05 9.37 14.75 15c3.46 3.43 7.45 6.07 11.9 1.93q14.62-13.6 26.99-25 13.94-12.84 19.55-17.87c6.18-5.54 11.62-11.5 16.73-15.65 4.27-3.46 7.52-7.34 11.82-11.07q3.87-3.36 8.96-8.2 11.4-10.82 23.03-21.39 19.29-17.54 19.89-18.07 3.95-3.48 13.3-12.81a.61.61 0 0 1 .87.01q1.33 1.38 30.6 30.77c4.4 4.42 8.42 7.69 13.64 2.84q12.02-11.18 19.32-17.52c4.58-3.98 8.6-8.24 13.21-12.11 3.96-3.33 8.88-8.76 12.45-11.56 3.38-2.65 5.96-5.93 8.89-8.2q2.73-2.13 6.85-5.98 3.44-3.23 9.3-8a.48.47-39.4 0 1 .67.06q4.49 5.24 8.6 10.18c4.1 4.94 9.77 2.44 11.72-2.81q8.33-22.48 14.57-37.03 2.06-4.83 1.81-6.25-.61-3.33-3.63-5.33a2.49 2.41 61 0 0-1.35-.41q-6.04-.06-7.86.28-33.88 6.35-38.9 7.13c-6.6 1.03-6.95 8.05-2.92 12.03q6.26 6.17 7.99 7.87a.81.81 0 0 1-.02 1.17l-65.73 60.28a.4.39 45.5 0 1-.54-.01q-24.95-24.62-33.14-33.13c-2.87-2.98-6.65-4.94-10.16-1.71q-13.83 12.72-26.89 24.95-5.8 5.44-7.72 7.11c-5.59 4.84-9.22 8.82-15.71 14.62-4.13 3.69-8.42 8.29-13.35 12.49-4.87 4.16-9.48 9.17-13.97 13.11-6.15 5.38-11.41 11.28-16.53 15.62-6.59 5.59-12.59 12.05-18.28 17.14-8.54 7.65-15.93 16.09-24.91 23.55q-2.01 1.67-4.72 4.66a.65.64 47.6 0 1-.99-.05q-1.61-2.18-2.08-2.65-4.81-4.81-11.66-11.87c-3.5-3.61-6.44-5.81-11.08-3.34q-2.75 1.47-5.67 4.36-11.96 11.85-14.93 14.73c-1.54 1.49-3.59 2.94-5.03 4.31q-17.69 16.96-43.1 41.36c-3.21 3.08-3.09 6.62.3 9.47q5.33 4.49 11.41-1.47 6.11-6 23.91-22.36 25.49-23.45 30.21-27.77 3.7-3.38 7.04-7.39a.4.39 42.7 0 1 .59-.02"/><path d="M578.01 336.135a6.37 6.37 0 0 0-6.381-6.359l-107.8.188a6.37 6.37 0 0 0-6.359 6.381v.18a6.37 6.37 0 0 0 6.381 6.359l107.8-.188a6.37 6.37 0 0 0 6.359-6.381v-.18m-33.179 29.771a6.02 6.02 0 0 0-6.01-6.031l-75.52-.132a6.02 6.02 0 0 0-6.031 6.01l-.001.68a6.02 6.02 0 0 0 6.01 6.03l75.52.132a6.02 6.02 0 0 0 6.03-6.009l.001-.68M757.27 456.7a5.32 5.32 0 0 0-5.32-5.32h-57.74a5.32 5.32 0 0 0-5.32 5.32v156.94a5.32 5.32 0 0 0 5.32 5.32h57.74a5.32 5.32 0 0 0 5.32-5.32V456.7m-97.54 54.42a5.21 5.21 0 0 0-5.201-5.219l-58.48-.102A5.21 5.21 0 0 0 590.83 511l-.179 102.7a5.21 5.21 0 0 0 5.201 5.219l58.48.102a5.21 5.21 0 0 0 5.219-5.201l.179-102.7m526.5-141.34l-.06-37.6a3.39 3.39 0 0 0-3.4-3.38l-34.48.06a5.53 4.01 89.9 0 0-4 5.54l.06 33.32a5.53 4.01 89.9 0 0 4.02 5.52l34.48-.06a3.39 3.39 0 0 0 3.38-3.4m-119.099-36.392a4.44 4.44 0 0 0-4.432-4.448l-34.26-.06a4.44 4.44 0 0 0-4.448 4.432l-.062 35.46a4.44 4.44 0 0 0 4.432 4.448l34.26.06a4.44 4.44 0 0 0 4.448-4.432l.062-35.46m59.292-.881a3.52 3.52 0 0 0-3.514-3.526l-35.08-.061a3.52 3.52 0 0 0-3.526 3.514l-.065 37.24a3.52 3.52 0 0 0 3.514 3.526l35.08.061a3.52 3.52 0 0 0 3.526-3.514l.065-37.24m-.281 65.85a3.9 3.9 0 0 0-3.893-3.907l-34.16-.06a3.9 3.9 0 0 0-3.907 3.893l-.065 37a3.9 3.9 0 0 0 3.893 3.907l34.16.06a3.9 3.9 0 0 0 3.907-3.893l.065-37m-59.56.23a3.98 3.98 0 0 0-3.973-3.987l-34.68-.06a3.98 3.98 0 0 0-3.987 3.973l-.064 36.66a3.98 3.98 0 0 0 3.973 3.987l34.68.06a3.98 3.98 0 0 0 3.987-3.973l.064-36.66m119.568-.657a3.51 3.51 0 0 0-3.51-3.51h-34.98a3.51 3.51 0 0 0-3.51 3.51v37.78a3.51 3.51 0 0 0 3.51 3.51h34.98a3.51 3.51 0 0 0 3.51-3.51v-37.78m-.062 65.753a4.39 4.39 0 0 0-4.398-4.382l-33.38.058a4.39 4.39 0 0 0-4.382 4.398l.064 36.98a4.39 4.39 0 0 0 4.398 4.382l33.38-.058a4.39 4.39 0 0 0 4.382-4.398l-.064-36.98m.055 65.174a4 4 0 0 0-3.993-4.007l-34.2-.06a4 4 0 0 0-4.007 3.993l-.066 37.98a4 4 0 0 0 3.993 4.007l34.2.06a4 4 0 0 0 4.007-3.993l.066-37.98" class="D"/><path d="M749.09 461.11a.83.83 0 0 0-.83-.83h-49.5a.83.83 0 0 0-.83.83v148.1a.83.83 0 0 0 .83.83h49.5a.83.83 0 0 0 .83-.83v-148.1" class="C"/><path d="M1061.13 519.829a3.15 3.15 0 0 0-3.144-3.155l-26.92-.047a3.15 3.15 0 0 0-3.156 3.144l-.06 34.12a3.15 3.15 0 0 0 3.144 3.156l26.92.047a3.15 3.15 0 0 0 3.156-3.144l.06-34.12m-56.78.09a3.07 3.07 0 0 0-3.065-3.075l-28.24-.049a3.07 3.07 0 0 0-3.075 3.065l-.059 34.08a3.07 3.07 0 0 0 3.065 3.075l28.24.049a3.07 3.07 0 0 0 3.075-3.065l.059-34.08" class="D"/><path d="M650.762 515.555a1 1 0 0 0-.998-1.002l-49.2-.086a1 1 0 0 0-1.002.998l-.163 93.56a1 1 0 0 0 .998 1.002l49.2.086a1 1 0 0 0 1.002-.998l.163-93.56" class="C"/><g stroke="#a1a6a2"><path d="M1031.4 616.92a.17.17 0 0 1 .16.24l-53.62 137.7a.44.44 0 0 1-.41.28l-22.95-.3a.58.58 0 0 1-.51-.84q1.47-2.93 2.39-5.28 11.09-28.33 23.74-62.45a1.99 1.99 0 0 1 1.93-1.29c3.53.11 9.84-.14 12.13-3.58a2.9 2.85 44.6 0 0-.05-3.24q-18.45-26.47-33.58-48.53-1.79-2.63-3.72-4.31a2.43 2.42-40.2 0 0-2.86-.24q-10.44 6.35-22.51 13.23-26.79 15.28-55.77 32.88c-3.48 2.12-7.89 4.09-10.77 6.6q-1.72 1.5-1.55 4.62a1.7 1.69 88.7 0 0 1.67 1.6l10.78.15a.65.65 0 0 1 .6.87l-24.68 67.42a1.13 1.13 0 0 1-1.08.75l-28.34-.38a4.42 4.41-84.7 0 0-4.41 3.67l-.13.79a3.47 3.47 0 0 0 3.19 4.09q10.7.7 13.95.66 21.16-.25 39.97.48c23.23.89 51.57-.04 74.96.76q14.82.5 30.83.98 2.91.08 4.06-2.94 4.56-12.01 9.11-23.95 18.43-48.36 42.5-109.16 2.67-6.76 5.16-13.67.89-2.47.42-4.67a2.44 2.43-6.4 0 0-2.44-1.94c-16.09.36-31.1-1.16-46.5-1.08q-44.67.22-61.79-.25-35.74-.98-50.28-.52c-4.29.13-7.04.72-8.5 4.72-6.68 18.32-12.9 33.14-19.07 49.76q-16.84 45.41-26.4 71.3a3.87 3.87 0 0 0 2.55 5.06l.24.07a4.47 4.47 0 0 0 5.45-2.76q11.29-31.05 25.88-69.93 3.6-9.6 5.41-14.02c4.97-12.07 8.39-22.78 13.38-34.63a1.16 1.16 0 0 1 1.09-.72l150.37 2"/><path d="M885.68 676.05c6.29.3 12.16-.2 19.09-.2q55.15 0 72.21.57 1.99.07 4.2.6a.54.54 0 0 0 .57-.83l-27.54-39.91a.79.79 0 0 0-1.04-.24l-67.71 39.09a.49.49 0 0 0 .22.92m38.74 78.43l19.94.26a1.34 1.33 10.8 0 0 1.28-.86l25.91-68.11a.61.6-79.6 0 0-.56-.82h-85.26a.55.54 10 0 0-.51.35l-24.88 67.97a.61.61 0 0 0 .61.82q9.15-.62 20.6-.01 2.26.12 2.6-1.45.26-1.16.28-1.2 7.24-18.82 14.9-39.32c1.14-3.05 1.63-5.08 4.92-5.11q13.42-.11 33.46.83 2.1.1 2.12 2.89a1.38 1.36 54.9 0 1-.09.54L924.09 754a.36.36 0 0 0 .33.48m-9.79-.47a.78.78 0 0 0 .74-.51l13.38-36.56a.78.78 0 0 0-.74-1.05h-20.9a.78.78 0 0 0-.74.51l-13.38 36.56a.78.78 0 0 0 .74 1.05h20.9"/></g><path d="M1104.957 698.013a2.23 2.23 0 0 0-2.222-2.238l-25.76-.09a2.23 2.23 0 0 0-2.238 2.222l-.114 32.66a2.23 2.23 0 0 0 2.222 2.238l25.76.09a2.23 2.23 0 0 0 2.238-2.222l.114-32.66m57.083-.183a2.02 2.02 0 0 0-2.02-2.02h-27.36a2.02 2.02 0 0 0-2.02 2.02v33.04a2.02 2.02 0 0 0 2.02 2.02h27.36a2.02 2.02 0 0 0 2.02-2.02v-33.04m-56.072 60.107a2.6 2.6 0 0 0-2.595-2.605l-26.06-.046a2.6 2.6 0 0 0-2.604 2.595l-.057 32.48a2.6 2.6 0 0 0 2.595 2.605l26.06.045a2.6 2.6 0 0 0 2.604-2.595l.057-32.48m56.241-.139a2.44 2.44 0 0 0-2.436-2.444l-26.48-.046a2.44 2.44 0 0 0-2.444 2.436l-.057 32.82a2.44 2.44 0 0 0 2.436 2.444l26.48.046a2.44 2.44 0 0 0 2.444-2.436l.057-32.82" class="C"/></g><path d="M733.67 250.67a.29.29 0 0 0 .25.43q170.8.02 201.64-.03 8.11-.02 11.15 1.45c7.22 3.48 9.81 9.68 9.81 17.48q-.04 140.81-.06 181.12a.92.91 0 0 0 .92.91l40.76.01a.87.87 0 0 0 .87-.91q-.01-.24.01-190.63c0-6.51-.63-12.79 4.44-15.45q1.67-.87 7.13-.67 7.88.28 21.52.27a.9.89 90 0 0 .89-.9q-.09-13.09-.04-34.59.01-5.13 1.09-6.59c1.97-2.65 4.44-3.54 7.91-3.54q21.79.04 50.52-.06c6.92-.03 11.53 1.12 11.56 8.77q.22 45.37.01 95.12a1.09 1.09 0 0 0 1.09 1.09h85.25a1.41 1.41 0 0 0 1.41-1.51q-.1-1.43-.11-2.2-.2-8.07-.22-51.74 0-1.31.9-3.45a1.28 1.24 1.8 0 1 .78-.71q4.61-1.47 8.44.13a1.59 1.54 88.1 0 1 .81.78q1.39 3.02 1.39 5.75-.02 44.42-.08 51.4a1.42 1.42 0 0 0 1.49 1.43q10.4-.49 21.78.18 6.87.41 6.87 7.51.12 101.1.14 364.93a2.08 2.08 0 0 0 1.89 2.07c3.04.28 6.35.21 9.25 1.71 6.78 3.49 5.8 8.16 5.81 16.15q0 26.34.05 140.31a1.16 1.15-90 0 0 1.15 1.16h35.57a4.03 4.03 0 0 1 3.99 4.56l-.04.31a4.89 4.89 0 0 1-4.85 4.26q-90.1.12-224.81.02-95.97-.07-725.5-.05c-94.16 0-186.49-.77-284.5-.94q-2.15-.01-3.59-.27a2.57 2.55 87 0 1-2.01-1.82c-1.44-5.1 1.58-6.78 6.1-6.81q16.14-.11 23.17-.09a1.31 1.31 0 0 0 1.32-1.36q-.16-4.71.1-8.87c.29-4.56 3.15-5.76 7.58-5.76q6.61-.01 8.58.02a.92.92 0 0 0 .94-.94q-.26-13.93-.07-28.32c.12-9.57 6.35-8.85 14.67-8.89q18.45-.1 30.51.08a.77.77 0 0 0 .78-.77V218.16a1.12 1.12 0 0 0-1.12-1.12H92.95a.99.99 0 0 0-.99.98q-.06 8.1 0 14.52c.08 8.14-1.79 13.48-10.67 13.48q-24.74-.01-37.51-.07c-6.41-.03-8.36-4.73-8.44-10.19q-.16-10.58-.04-17.83a.79.78 89 0 0-.82-.8q-2.48.1-5.68-.17c-7.71-.65-9.31-7.41-9.46-14.06q-.33-14.22-.04-29.63.2-10.59 10.75-11.06 5.9-.25 12.95-.12 2.08.04 3.9-1.46 37.1-30.71 67.75-56.2 5.21-4.34 40.11-33.42 2.02-1.69 4.33-2.7a3.52 3.52 0 0 1 1.4-.29q17.08-.03 26.01.12 2.03.03 6.62 2.03l41.04 17.79c7.23 3.33 14.03 5.79 21.18 9.06q9.95 4.55 26.41 11.55 41.86 17.82 120.8 52.49 1.89.83 3.59.87 10.83.23 19.2.14a4.87 4.81 61.1 0 1 2.74.81q3.35 2.24 6.78 5.63 18.73 18.5 37.62 36.56c2.61 2.5 5.28 5 4.5 8.97-.46 2.38-3.41 2.9-5.48 2.91q-3.85.01-66.76-.01a.85.84 90 0 0-.84.85v32.79a.52.51 90 0 0 .51.52h217.77a.68.68 0 0 0 .3-1.29c-34.08-17.32-56.68-49.2-62.83-86.87q-2.01-12.32-1.66-27.86c.08-3.54.59-6.21 1.14-11.06q2.42-21.23 13.57-42.44c14.07-26.74 38.84-47.16 67.7-56.17q21.11-6.59 41.55-5 9.4.74 23.33 3.8c24.24 5.33 46.11 16.38 63.3 33.87q16.33 16.62 25.37 40.37 11.41 30.04 6.56 61.02c-2.11 13.44-5.88 26-12.27 38.22q-17.92 34.28-53.98 52.36-.34.17-.59.62zM679.711 30.577a110.44 103.99-85.2 0 0-112.867 101.351 110.44 103.99-85.2 0 0 94.384 118.754 110.44 103.99-85.2 0 0 112.867-101.351 110.44 103.99-85.2 0 0-94.384-118.754zM722.18 245.81a.39.39 0 0 0 .5.17c5.21-2.34 11.59-4.72 16.05-7.5q24.87-15.52 38.48-38.8c23.36-39.99 20.78-91.94-8.87-128.53q-11.02-13.6-26-22.84a.6.59 37.7 0 0-.74.09l-.02.02a.46.46 0 0 0 .04.68q15.34 12.3 24.27 27.77 11.53 19.97 15.1 44.69c1.14 7.91 1.05 16.97.77 24.94-.83 23.34-9.05 45.84-22.43 65.08q-9.52 13.69-21.7 23.03-8.17 6.26-15.32 10.67a.39.39 0 0 0-.14.51l.01.02zM165.37 77.95a.91.91 0 0 0-.9.76l-4.3 26.03a.91.91 0 0 0 .89 1.06h24.23a.91.91 0 0 0 .9-1.06l-4.41-26.03a.91.91 0 0 0-.9-.76h-15.51zm213.89 84.12a.32.32 0 0 0 .13-.61L192.56 80.89a.32.32 0 0 0-.44.35l13.65 80.56a.32.32 0 0 0 .32.27h173.17zm-239.93.02a.65.65 0 0 0 .64-.53l14.07-74.71a.65.65 0 0 0-1.05-.62l-90.61 74.71a.65.65 0 0 0 .41 1.15h76.54zm12.34-7.59a.57.57 0 0 0 .91.15q14.87-14.52 33.12-32.94c1.23-1.23 2.61-2.45 2.82-4.12a1.43 1.42-86.3 0 0-1.41-1.61l-27.85-.08a1.07 1.06 5.4 0 0-1.06.87q-4.39 23.16-6.61 36.99-.07.42.08.74zm8.6 7.6h34.56a.92.91 85.2 0 0 .9-1.07l-5.08-30a.44.44 0 0 0-.82-.15q-.74 1.28-1.68 2.26-12.88 13.45-28.4 27.63a.77.77 0 0 0 .52 1.33zm-70.497 11.326a2.42 2.42 0 0 0-2.424-2.416l-56.98.1a2.42 2.42 0 0 0-2.416 2.424l.055 31.18a2.42 2.42 0 0 0 2.424 2.416l56.98-.1a2.42 2.42 0 0 0 2.416-2.424l-.055-31.18zm59.967 90.534q16.89.11 69.6-.07 2.91-.01 5.5-1.47 11.03-6.25 11.25-18.86.12-6.79 0-31.29c-.02-4.33-2.06-6.62-5.02-9.74q-5.77-6.09-21.8-22.01c-3.63-3.6-6.85-9.43-12.77-9.44q-34.25-.07-46.59.02a1.11 1.11 0 0 0-1.1 1.11v90.82a.93.93 0 0 0 .93.93zm270.32-91.6a.31.31 0 0 0-.31-.31H388.2a.31.31 0 0 0-.2.55l31.55 26.41a.31.31 0 0 0 .51-.23v-26.42zm-156.8.52l39.54 29.15a.7.7 0 0 0 1.12-.56l.08-28.17a.75.75 0 0 0-.76-.75q-13.73.21-32.09.08c-2.75-.03-4.97-.48-7.56-.64a.5.49-24.8 0 0-.33.89zm101.93.05a.31.31 0 0 0-.31-.31l-38.6-.12a.31.31 0 0 0-.19.56l38.51 29.55a.31.31 0 0 0 .5-.25l.09-29.43zm-226.73 29.79a.88.88 0 0 0 1.59-.53v-28.52a.9.89 0 0 0-.9-.89h-29.89a.97.97 0 0 0-.63 1.7q12.78 11.17 26.87 24.51c1.5 1.42 2.05 2.53 2.96 3.73zm78.1-30.16a.65.65 0 0 0-.46 1.11l27.9 27.9a.65.65 0 0 0 1.11-.46l-.14-27.76a.65.65 0 0 0-.65-.65l-27.76-.14zm96.5 34.04a.71.71 0 0 0 .71.71h39.3a.71.71 0 0 0 .43-1.27l-39.3-30.16a.71.71 0 0 0-1.14.56v30.16zm61.79-.34a1.03 1.03 0 0 0 1.03 1.03l35.75.11a1.03 1.03 0 0 0 .67-1.82l-35.67-29.87a1.03 1.03 0 0 0-1.69.79l-.09 29.76zm54.11.23a.78.78 0 0 0 .78.78l28.24.08a.78.78 0 0 0 .55-1.33l-28.15-28.15a.78.78 0 0 0-1.34.55l-.08 28.07zm-137.46.86a.76.76 0 0 0 .45-1.37l-36.69-27.05a.76.76 0 0 0-1.21.61l-.09 26.94a.76.76 0 0 0 .76.76l36.78.11zm-191.69-.9a.7.7 0 0 0 .7.7l27.68.08a.7.7 0 0 0 .48-1.21l-27.6-25.96a.7.7 0 0 0-1.18.51l-.08 25.88zm996 3.3a1.21 1.21 0 0 0-1.21-1.21h-51.08a1.21 1.21 0 0 0-1.21 1.21v34.12a1.21 1.21 0 0 0 1.21 1.21h51.08a1.21 1.21 0 0 0 1.21-1.21v-34.12zM217.47 610.08h54.45a.72.71 89.6 0 0 .71-.73q-.17-7.22-.18-15.42-.01-10.16 1.33-15.29 4.04-15.51 19.43-23.41 6.14-3.16 11.55-3.16 35.61 0 52.19-.03a1.31 1.3-3.5 0 0 1.29-1.45q-.11-.93-.12-1.84-.11-24.19.03-74.88c.02-7.42-.48-13.98-.88-21.44a1.51 1.48-76.9 0 0-.73-1.2q-4.47-2.61-4.97-8.45c-1.02-11.77-.7-24.07-.37-39.28q.1-4.28.7-7.06c.72-3.34 2.73-4.46 5.47-5.83a1.19 1.19 0 0 0 .65-1.06q-.02-47.82.02-119.65 0-6.86 1.35-9.72 3.23-6.83 11.03-8.92a5.05 5.04-52.2 0 1 1.26-.16h22.45a.91.91 0 0 0 .91-.91v-32.06a1.17 1.17 0 0 0-1.17-1.17H246.3a1.1 1.1 0 0 0-1.1 1.11q.17 14.2.1 25.21c-.1 13.7-7.96 25.44-20.85 29.89-2.1.73-4.25.77-6.48.78a.96.96 0 0 0-.96.96q.07 177.25.01 326.34 0 3.77-.39 7.9a.85.84-87.2 0 0 .84.93zm878.124-355.216a1.33 1.33 0 0 0-1.332-1.328l-84.28.147a1.33 1.33 0 0 0-1.328 1.332l.012 6.96a1.33 1.33 0 0 0 1.332 1.328l84.28-.147a1.33 1.33 0 0 0 1.328-1.332l-.012-6.96zM367.17 378.86q.65-.16 1.36-.84 5.29-5.08 14.87-14.97a5.17 5.16 67.1 0 0 1.45-3.59q0-3.77-.25-56.46-.03-6.9.47-17.01c.26-5.41 4.23-5.78 8.51-6.1a.55.55 0 0 0 .51-.55l.05-18.14a1.03 1.03 0 0 0-1.02-1.04q-10.08-.07-18.15.07c-7.51.13-8.31 2.79-8.36 9.6q-.25 35.95.28 101.67.03 2.93-.24 6.93a.42.42 0 0 0 .52.43zm562.97 192.02a.92.91 0 0 0 .92-.91q.14-117.95.06-304.21c-.01-2.18-.08-3.75-2.09-4.63q-1.85-.81-4.03-.85-17.2-.26-57.5-.25-233.03.09-461.75-.02-.85 0-1.15.15a1.28 1.27 76.9 0 0-.69 1.12l-.01 17.95a.79.79 0 0 0 .79.79l489.31-.1q8.23 0 15.25.27c4.35.17 4.76 2.22 4.81 6.06q.04 3.2-.07 283.98a.65.65 0 0 0 .65.65h15.5zm164.91-297.9a1.03 1.03 0 0 0-1.03-1.03h-61.8a1.03 1.03 0 0 0-1.03 1.03v30a1.03 1.03 0 0 0 1.03 1.03h61.8a1.03 1.03 0 0 0 1.03-1.03v-30zm-71.73 1.87a1.18 1.18 0 0 0-1.18-1.18H1010a1.18 1.18 0 0 0-1.18 1.18v27.8a1.18 1.18 0 0 0 1.18 1.18h12.14a1.18 1.18 0 0 0 1.18-1.18v-27.8zm-873-.9a.33.33 0 0 0-.33.33v40.9a.33.33 0 0 0 .55.24l46.96-40.89a.33.33 0 0 0-.22-.58h-46.96zm56.02 48.03a.71.71 0 0 0 .71-.71v-40.54a.71.71 0 0 0-1.18-.54l-46.55 40.54a.71.71 0 0 0 .47 1.25h46.55zm188.64-32.66a1 1 0 0 0-1-1h-.02a1 1 0 0 0-1 1v47.28a1 1 0 0 0 1 1h.02a1 1 0 0 0 1-1v-47.28zm143.51 329.79c4.64 8.54 5.07 16.77 5.72 28.51a.5.5 0 0 0 .5.47h276.35a2.83 2.82-79.6 0 0 2.64-1.83l10.21-26.82a.42.41 10.2 0 0-.39-.56q-23.86-.03-33.75.03c-6.19.04-10.79.88-10.84-6.65q-.04-5.79-.06-189.25c0-4.4 1.06-9.39 6.16-9.42q28.04-.15 50.72-.02 4.44.03 7.51.37c4.23.47 4.88 2.78 4.88 6.96q-.03 119.18.01 149.25a.4.4 0 0 0 .41.4q22.12-.77 45.97-.05a.33.33 0 0 0 .34-.33v-280.9a.45.45 0 0 0-.45-.45H404.76a.6.6 0 0 0-.6.6v45.37a1.36 1.33-72.6 0 0 .56 1.1c7.32 5.23 11.58 11.15 5.92 19.87a1.19 1.18-52.1 0 0 .18 1.5c11.55 10.94 22.34 25.23 31.9 35.28 1.59 1.67 2.42 3.68 2.43 5.94q.14 30.99.03 42.37c-.04 4.53-1.14 8.14-5.97 8.21q-12.6.16-45.51.06a.24.24 0 0 0-.24.24v101.77a.71.71 0 0 0 .7.71q8.02.1 14.41-.04c13.97-.3 26.42 4.54 34.13 16.36q3.14 4.81 5.31 13 1.29 4.82 1.24 13.91-.05 10.47-.12 14.19a.59.59 0 0 0 .59.6h43.29a.5.5 0 0 0 .5-.5q-.1-22.08-.08-44.61c.01-7.06 4.05-7.89 10.35-7.89q42.33-.03 47.19 0c6.13.04 10.47.38 10.46 7.66q-.04 29.07-.24 43.67c-.08 5.96.31 10.81-6.7 10.82q-7.89.02-12.5-.03-1.05-.02-3.11-.39a.36.36 0 0 0-.39.52zm535.33 35.53q104.19-.04 118.93.1c4.96.05 6.74 1.37 10.15 4.26a.6.6 0 0 0 .99-.46V313.96a.73.72 90 0 0-.72-.73h-194.61a.44.44 0 0 0-.44.44v138.4a.6.6 0 0 0 .6.6q67.38.05 80.53.01 4.1-.02 5.47.9 5.13 3.42 19.29 14.67.32.25 2.91 2.94a4.2 4.19-67.1 0 1 1.18 2.92v96.77a1.09 1.08-2 0 0 1.16 1.08c8.02-.56 17.99.84 24.55 4.95q12.05 7.54 15.04 21.19c3.2 14.55-2.65 28.65-16.48 35.03q-4.42 2.04-7.39 2.04-38.53.1-53.57-.12a.56.55-78.8 0 0-.53.36l-7.34 18.83a.3.3 0 0 0 .28.4zM150.39 331.35a.38.38 0 0 0-.38.38v41.36a.38.38 0 0 0 .63.28l47.48-41.35a.38.38 0 0 0-.24-.67h-47.49zm56.03 48.64a.61.61 0 0 0 .61-.61v-40.59a.61.61 0 0 0-1.01-.46l-46.61 40.59a.61.61 0 0 0 .4 1.07h46.61zm197.81-31.63a4.44 4.44 0 0 0-8.88 0 4.44 4.44 0 0 0 8.88 0zm-10.43 13.72a.31.31 0 0 0-.31.31l-.09 28.56a.31.31 0 0 0 .31.31l34.72.11a.31.31 0 0 0 .23-.52l-25.35-28.64a.31.31 0 0 0-.23-.1l-9.28-.03zm-9.13 13.36a.32.32 0 0 0-.55-.23l-16.05 15.99a.32.32 0 0 0 .23.55l16.01.01a.32.32 0 0 0 .32-.31l.04-16.01zm-234.23 14.49a.4.4 0 0 0-.4.4v41.65a.4.4 0 0 0 .66.3l47.82-41.65a.4.4 0 0 0-.26-.7h-47.82zm55.99 50.1a.62.62 0 0 0 .62-.62v-42a.62.62 0 0 0-1.03-.47l-47.46 42.01a.62.62 0 0 0 .41 1.08h47.46zm229.747-38.867a1.23 1.23 0 0 0-1.232-1.228l-74 .129a1.23 1.23 0 0 0-1.228 1.232l.066 38.04a1.23 1.23 0 0 0 1.232 1.228l74-.129a1.23 1.23 0 0 0 1.228-1.232l-.066-38.04zM798.25 609.33a.71.71 0 0 0 .71.71h37.71a2.19 2.19 0 0 0 2.04-1.4q3.57-9.23 8.53-22.64 2.01-5.43 2.02-9.74.12-57.82-.02-152.8a1.2 1.19 89.8 0 0-1.19-1.19h-48.54a1.26 1.26 0 0 0-1.26 1.26v185.8zM384.572 450.034a1.02 1.02 0 0 0-1.022-1.018l-15.96.028a1.02 1.02 0 0 0-1.018 1.022l.176 100.98a1.02 1.02 0 0 0 1.022 1.018l15.96-.028a1.02 1.02 0 0 0 1.018-1.022l-.176-100.98zm-234.122-.054a.34.34 0 0 0-.34.34l-.13 42.54a.34.34 0 0 0 .57.26l47.89-42.4a.34.34 0 0 0-.22-.59l-47.77-.15zm56.35 52a.38.38 0 0 0 .38-.38v-44.73a.38.38 0 0 0-.63-.28l-50.54 44.73a.38.38 0 0 0 .25.66h50.54zm879.24-39.73a1.25 1.25 0 0 0-1.25-1.25H951.81a1.25 1.25 0 0 0-1.25 1.25v16.4a1.25 1.25 0 0 0 1.25 1.25h132.98a1.25 1.25 0 0 0 1.25-1.25v-16.4zm-.649 27.438a.42.42 0 0 0-.419-.421l-134.34-.234a.42.42 0 0 0-.421.419l-.142 81.16a.42.42 0 0 0 .419.421l134.34.235a.42.42 0 0 0 .421-.419l.142-81.16zM199.99 513.29a.66.66 0 0 0-.47-1.13h-48.4a1.05 1.04 0 0 0-1.05 1.04v41.95a.8.8 0 0 0 1.16.72q.92-.45 1.29-.85c4.4-4.79 10.3-9.36 14.81-13.55q11.35-10.54 26.46-23.4c2.22-1.89 4.5-3.1 6.2-4.78zm7.09 50.32a.3.3 0 0 0 .3-.3v-43.78a.3.3 0 0 0-.5-.23l-49.46 43.79a.3.3 0 0 0 .2.52h49.46zm233.65 45.98c.67-17.76 1.47-39.07-18.3-47.28-4.72-1.96-11.6-1.98-16.43-1.99q-47.37-.13-91.76.06-9.82.04-13.48 1.36-17.64 6.34-19.43 24.56-.75 7.7-.29 22.95a.88.87 89 0 0 .87.85l14.8.05a1.43 1.43 0 0 0 1.43-1.43q.01-2.09.05-12.95.03-8.44 1.64-11.15 2.57-4.33 7.02-6.52 2.19-1.08 9.45-1.05 39.39.19 85.7 0c1.85-.01 6.51-.24 8.96.63 14.63 5.19 12.91 19.06 13.04 31.76a.74.73 89.6 0 0 .73.73h15.39a.61.6 1 0 0 .61-.58zm111.366-42.557a1.13 1.13 0 0 0-1.128-1.132l-46.86-.082a1.13 1.13 0 0 0-1.132 1.128l-.073 41.92a1.13 1.13 0 0 0 1.128 1.132l46.86.082a1.13 1.13 0 0 0 1.132-1.128l.073-41.92zM150.37 573.69a.31.31 0 0 0-.31.31v42.15a.31.31 0 0 0 .52.23l47.62-42.15a.31.31 0 0 0-.21-.54h-47.62zm628.39 212.2q24.09-.11 39.24.1 60.81.84 136.75.92c15.43.02 21.46 13.71 16.67 26.72-1.23 3.35-3.42 5.15-6.91 5.1q-22.21-.28-26.91-.5a.53.52-2.3 0 0-.55.59q.58 4.73 2.82 8.71c3.47 6.14 11.72 10.02 18.4 10.25q3.1.11 9.37.18 6 .06 9.26-.88c13.54-3.93 20.36-12.91 25.34-25.61l48.49-123.11q18.99-48.68 34.96-87.92 4.22-10.38 10.93-18.61a.52.52 0 0 0-.41-.84q-18.33.29-38.46.05-41.17-.5-114.16-.91-22.78-.13-40.18-.45-34.31-.61-40.16-.41c-4.05.14-6.2 5.15-7.58 8.66l-77.24 197.48a.35.35 0 0 0 .33.48zm-620.99-162.4a.58.58 0 0 0 .41.98h34.48a1.95 1.94 7 0 0 1.89-1.47c1.83-7.23 5.1-9.48 12.28-12.52a.45.43 79.3 0 0 .27-.41v-30.03a.61.61 0 0 0-1.06-.41q-1.56 1.7-2.54 2.62-6 5.68-39.14 35.79c-2.32 2.11-5 3.81-6.59 5.45zm938.37-23.72q2.58.09 26.14.08c4.63 0 5.2 2.93 3.92 6.74-2.31 6.85-6.25 13.89 1.28 19.01 1.77 1.21 4.93 1.68 6.88 1.26q12.49-2.67 15.72-14.47c3.47-12.71-3.4-25.12-14.96-29.71-8.43-3.36-19.53-3.25-27.42 2q-7.82 5.21-11.99 14.4a.49.49 0 0 0 .43.69zm-711.421-13.199a1.15 1.15 0 0 0-1.146-1.154l-15.58-.054a1.15 1.15 0 0 0-1.154 1.146l-.078 22.42a1.15 1.15 0 0 0 1.146 1.154l15.58.054a1.15 1.15 0 0 0 1.154-1.146l.078-22.42zm8.471.059v22.7a.63.62-90 0 0 .62.63h20.57a.55.55 0 0 0 .55-.55q.01-3.81.03-11.36c.01-4.94-.96-7.55-4.35-10.31q-2.26-1.84-8.22-1.77-5.1.06-8.34-.15a.81.81 0 0 0-.86.81zm-80.16 23.28q.22.25.56.25 27.56 0 43.99.03a.59.59 0 0 0 .59-.59v-22.46a1.16 1.16 0 0 0-1.16-1.16q-21.91.02-35.19.12c-3.49.02-6.77-.39-8.32 2.96q-.72 1.57-.78 8.41-.05 5.99.09 11.79.01.4.22.65zm772.22 16.57l31.04.42a.66.65 77.5 0 0 .59-.94l-1.5-3.15a1.99 1.9 29.7 0 1-.16-.54q-1.06-7.12.94-13.31a.8.8 0 0 0-.75-1.04l-21.76-.29a1.26 1.23-61.3 0 0-.75.23q-1.25.86-2.07 2.75-2.92 6.72-6.11 15.09a.57.57 0 0 0 .53.78zm-891.5 9.02a.86.86 0 0 0-.81-1.16h-41.96a.86.86 0 0 0-.86.86v40.11a.86.86 0 0 0 1.43.64l40.36-35.72a.86.86 0 0 0 .23-.34l1.61-4.39zm181.99 106.65q24.81-5.8 51.96-13.1l42.26-11.07q20.58-5.62 27.72-8.34c8.29-3.15 14.11-7.09 14.25-16.45q.34-22.06-.92-46.6a2.12 2.11 88.6 0 0-2.11-2.01h-.89a1.92 1.91-89.8 0 0-1.91 1.91q-.21 28.64-.29 44.76c-.04 6.9-5.04 10.72-11.06 12.49q-41.61 12.26-80.12 21.69l-35.52 9.16q-.45.1-3.41 1.14a2.4 2.39-9.5 0 0-1.6 2.23l-.04 2.84a1.37 1.37 0 0 0 1.68 1.35zm-215.86-60.49a.38.38 0 0 0 .25.67h28.78a1.1 1.1 0 0 0 1.1-1.18q-1-13.85.35-25.2a.37.36 72.9 0 0-.6-.32l-29.88 26.03zm659-23.37a1 1 0 0 0-.94-1.34H544.91a1 1 0 0 0-1 1v17.59a1 1 0 0 0 1 1l266.29.81a1 1 0 0 0 .94-.66l6.74-18.4zm369.94 5.34a.56.56 0 0 0-.56-.56H1070.4a1.65 1.65 0 0 0-1.54 1.05l-35.12 90.21a.88.88 0 0 0 .82 1.2h12.12a2.13 2.13 0 0 1 2.13 2.11q.15 16.79.04 32.94-.02 2.41-2.57 2.44-13.2.16-26.8.04a2.08 2.07 10.5 0 0-1.96 1.34q-2.89 7.68-6.82 18.06c-3.76 9.96-8.54 18.56-17.52 24.48a.64.64 0 0 0 .35 1.17h194.65a.64.63 0 0 0 .64-.63V663.63zM539.13 836.97l21.83.06a.83.83 0 0 0 .83-.91c-1.36-13.75 3.73-26.62 17.3-31.37q5.24-1.83 15.01-1.7 7.83.11 29.12.05a.81.81 0 0 0 .81-.81V687.27a1.1 1.1 0 0 0-1.09-1.1l-78.47-.24a.58.58 0 0 0-.58.58q.04 44.75.1 125.24c.01 9.32.95 16.32-5.5 23.82a.85.85 0 0 0 .64 1.4zm229.56-51.91a.5.5 0 0 0 .46-.32l37.84-97.18a.5.5 0 0 0-.46-.68h-96.02a.5.5 0 0 0-.5.5v97.18a.5.5 0 0 0 .5.5h58.18zm-617.27-51.28l41.27-36.53a3.72 3.68-7.8 0 0 .82-1.07q.79-1.55.67-2.69a1.62 1.61 86.8 0 0-1.6-1.44h-41.25a1.2 1.2 0 0 0-1.2 1.2v39.95a.78.78 0 0 0 1.29.58zm165.85 5.49l.01-3.44a1.92 1.91 6.8 0 0-1.48-1.87q-45.74-10.89-90.52-23.69c-5.78-1.65-11.28-3.69-17.71-5.76a1.65 1.65 0 0 0-2.13 1.3l-.31 1.91a3.11 3.11 0 0 0 1.65 3.29c7.02 3.6 12.83 4.86 23.11 7.91q6.81 2.03 13.17 3.66 35.32 9.09 72.61 17.96a1.3 1.3 0 0 0 1.6-1.27zM198.35 741a.58.58 0 0 0 .58-.58l.11-34.03a.58.58 0 0 0-.96-.44l-38.95 33.91a.58.58 0 0 0 .38 1.01l38.84.13zm167.4-29.17a1.04 1.04 0 0 0-1.04-1.05l-38.27-.12a1.04 1.04 0 0 0-1.04 1.07l.61 22.36a1.04 1.04 0 0 0 1.04 1.01h37.36a1.04 1.04 0 0 0 1.04-1.03l.3-22.24zm314.356 3.041a1.68 1.68 0 0 0-1.677-1.683l-43.78-.076a1.68 1.68 0 0 0-1.683 1.677l-.152 87.04a1.68 1.68 0 0 0 1.677 1.683l43.78.076a1.68 1.68 0 0 0 1.683-1.677l.152-87.04zm-168.836 9.734a2.21 2.21 0 0 0-2.206-2.214l-1.6-.003a2.21 2.21 0 0 0-2.214 2.206l-.18 102.9a2.21 2.21 0 0 0 2.206 2.214l1.6.003a2.21 2.21 0 0 0 2.214-2.206l.18-102.9zM364.98 744.03l-37.92-.14a1.23 1.23 0 0 0-1.23 1.23l-.03 6.63a15.92 15.4-89.8 0 0 15.35 15.97l9.58.04a15.92 15.4-89.8 0 0 15.45-15.87l.03-6.63a1.23 1.23 0 0 0-1.23-1.23zm-204.27 38.85a.62.62 0 0 0 .41-.15l35.26-30.71a.62.62 0 0 0-.41-1.09h-45.28a.62.62 0 0 0-.62.62v30.71a.62.62 0 0 0 .62.62h10.02zm37.54-19.61q-10.86 10.79-21.47 19.12a.32.32 0 0 0 .2.58h21.27a.81.81 0 0 0 .81-.81V763.6a.48.47-22.5 0 0-.81-.33zm-.25 30.77a1.14 1.14 0 0 0-1.14-1.14h-92.82a1.14 1.14 0 0 0-1.14 1.14v24.42a1.14 1.14 0 0 0 1.14 1.14h92.82a1.14 1.14 0 0 0 1.14-1.14v-24.42zm739.84 43.45c-12.32-11.29-11.54-26.71-6.12-41.24a.71.71 0 0 0-.69-.96q-9.35.28-17.03.18-37.69-.51-75.07-.44c-40.87.07-82.03-.55-123.68-.69q-.81-.01-9.66-.27a1.89 1.89 0 0 0-1.9 1.45q-1.81 7.61-2.5 15.98c-.57 6.94 1.33 15.54 6.75 19.96q3.66 2.98 7.54 4.58 2.34.96 8.67 1.01 109.12.84 213.55.8a.21.21 0 0 0 .14-.36zm.11-26.93l25.56.44a.24.24 0 0 0 .24-.23l.09-4.86a9.62 5.31-89 0 0-5.14-9.71l-15.42-.27a9.62 5.31-89 0 0-5.48 9.52l-.08 4.86a.24.24 0 0 0 .23.25zM701.39 836.3q-.73-1.17-2.13-3.03-6.43-8.49-6.14-19.21a1.74 1.74 0 0 0-1.76-1.79q-32 .31-65.1-.23-7.32-.13-38.01.43-11.38.2-15.5 8.59c-2.41 4.91-1.97 10.39-1.75 15.78a.61.61 0 0 0 .61.59q65.06.06 125.39-.04 1.8-.01 4.15-.52a.38.38 0 0 0 .24-.57z" class="G"/><g class="E"><path d="M870.46 144.84c4.31 2.11 4.39 5.88 2.57 9.96q-3.68 8.2-6.52 15.74c-3.16 8.38-8.38 20.87-11.3 27.91-1.24 2.97-3.54 6.12-6.97 6.38q-3.45.26-5.27-2.89-2.39-4.15-.25-9.73 5.94-15.51 14.06-34.44c2.25-5.23 4.43-17.45 13.68-12.93z"/><rect x="-7.29" y="-42.54" transform="matrix(.799685 .60042 -.60042 .799685 892.28 181.73)" width="14.58" height="85.08" rx="7.13"/><path d="M895.75 233.73a2.42 2.42 0 0 1-1.81-.07q-5.58-2.56-5.03-8.37c.24-2.54 2.22-4.14 4.21-5.43q9.89-6.39 23.69-14.55 4.67-2.76 10.09-4.94c8.78-3.52 12.57 7.2 5.1 11.91q-12.8 8.05-14 8.73-8.23 4.65-14.8 8.93-3.85 2.5-7.45 3.79zM679.711 30.577a110.44 103.99-85.2 0 1 94.384 118.754 110.44 103.99-85.2 0 1-112.867 101.351 110.44 103.99-85.2 0 1-94.384-118.754A110.44 103.99-85.2 0 1 679.711 30.577zm-.801 65.943c5.95 2.18 10.59 8.37 14.37 12.61a2.81 2.58-2.5 0 0 .63.53q4.5 2.78 8.84.48c5.83-3.1 4.92-10.63 1.67-15.58q-9.28-14.17-26.45-16.59a1.01 1.01 0 0 1-.86-1q.02-3.83-.38-7.43c-.55-4.87-6.14-8.17-10.82-5.37-3.67 2.18-3.88 8.63-3.73 12.69a.85.84 84.7 0 1-.72.87q-9.81 1.43-17.33 7.84-9.6 8.17-10.91 21.94c-.98 10.22 1.45 18.35 8.33 25.64q8.23 8.72 19.24 12.18a1.6 1.59-81.3 0 1 1.11 1.52v36.14a1.33 1.33 0 0 1-1.86 1.22c-6.17-2.69-8.83-6.52-14.06-12.61-2.97-3.46-9.04-5.08-12.46-1.42q-2.34 2.53-2.23 5.1c.72 16.21 16.15 26.1 30.53 29.48a1.62 1.61-83.2 0 1 1.25 1.6c-.04 2.16-.43 6.14.71 8.17 1.68 3 4.46 5.2 7.84 3.88 5.41-2.1 5.49-7.25 6.02-12.36a2.02 2.01 86.1 0 1 1.51-1.74q13.05-3.25 21.11-12.39c9.77-11.08 12.56-25.48 6.03-38.78-4.94-10.06-16.74-18.26-27.22-22.48a1.77 1.76 11.2 0 1-1.11-1.65l.09-31.9a.64.63 10.3 0 1 .86-.59zm43.27 149.29l-.01-.02a.39.39 0 0 1 .14-.51q7.15-4.41 15.32-10.67 12.18-9.34 21.7-23.03c13.38-19.24 21.6-41.74 22.43-65.08.28-7.97.37-17.03-.77-24.94q-3.57-24.72-15.1-44.69-8.93-15.47-24.27-27.77a.46.46 0 0 1-.04-.68l.02-.02a.6.59 37.7 0 1 .74-.09q14.98 9.24 26 22.84c29.65 36.59 32.23 88.54 8.87 128.53q-13.61 23.28-38.48 38.8c-4.46 2.78-10.84 5.16-16.05 7.5a.39.39 0 0 1-.5-.17z"/><rect x="-30.91" y="-18.01" transform="matrix(.999998 -.001745 .001745 .999998 58.89 189.07)" width="61.82" height="36.02" rx="2.42"/><path d="M149.74 263.96a.93.93 0 0 1-.93-.93v-90.82a1.11 1.11 0 0 1 1.1-1.11q12.34-.09 46.59-.02c5.92.01 9.14 5.84 12.77 9.44q16.03 15.92 21.8 22.01c2.96 3.12 5 5.41 5.02 9.74q.12 24.5 0 31.29-.22 12.61-11.25 18.86-2.59 1.46-5.5 1.47-52.71.18-69.6.07zm70.69-38.23q3.22-6.23-1.51-11.41-10.65-11.66-24.63-25.49-2.47-2.44-5.37-2.74-7.45-.78-16.67-.37c-3.7.16-6.82.5-6.87 4.78q-.23 21.44-.21 22.25c.11 6.14-.45 11.11 4.42 13.98q1.75 1.02 6.61 1.12 22.9.45 40.32-.04 2.87-.08 3.91-2.08z"/><rect x="1042.31" y="208.54" width="53.5" height="36.54" rx="1.21"/><rect x="-43.47" y="-4.81" transform="matrix(.999998 -.001745 .001745 .999998 1052.13 258.42)" width="86.94" height="9.62" rx="1.33"/><path d="M367.17 378.86a.42.42 0 0 1-.52-.43q.27-4 .24-6.93-.53-65.72-.28-101.67c.05-6.81.85-9.47 8.36-9.6q8.07-.14 18.15-.07a1.03 1.03 0 0 1 1.02 1.04l-.05 18.14a.55.55 0 0 1-.51.55c-4.28.32-8.25.69-8.51 6.1q-.5 10.11-.47 17.01.25 52.69.25 56.46a5.17 5.16 67.1 0 1-1.45 3.59q-9.58 9.89-14.87 14.97-.71.68-1.36.84zm562.97 192.02h-15.5a.65.65 0 0 1-.65-.65q.11-280.78.07-283.98c-.05-3.84-.46-5.89-4.81-6.06q-7.02-.27-15.25-.27c-167.42-.01-343.25-.1-489.31.1a.79.79 0 0 1-.79-.79l.01-17.95a1.28 1.27 76.9 0 1 .69-1.12q.3-.15 1.15-.15 228.72.11 461.75.02 40.3-.01 57.5.25 2.18.04 4.03.85c2.01.88 2.08 2.45 2.09 4.63q.08 186.26-.06 304.21a.92.91 0 0 1-.92.91z"/><rect x="1008.82" y="273.67" width="14.5" height="30.16" rx="1.18"/></g><g class="F"><rect x="392.96" y="288.32" width="2.02" height="49.28" rx="1"/><path d="M538.49 619.11a.36.36 0 0 1 .39-.52q2.06.37 3.11.39 4.61.05 12.5.03c7.01-.01 6.62-4.86 6.7-10.82q.2-14.6.24-43.67c.01-7.28-4.33-7.62-10.46-7.66q-4.86-.03-47.19 0c-6.3 0-10.34.83-10.35 7.89q-.02 22.53.08 44.61a.5.5 0 0 1-.5.5h-43.29a.59.59 0 0 1-.59-.6q.07-3.72.12-14.19.05-9.09-1.24-13.91-2.17-8.19-5.31-13c-7.71-11.82-20.16-16.66-34.13-16.36q-6.39.14-14.41.04a.71.71 0 0 1-.7-.71V449.36a.24.24 0 0 1 .24-.24q32.91.1 45.51-.06c4.83-.07 5.93-3.68 5.97-8.21q.11-11.38-.03-42.37c-.01-2.26-.84-4.27-2.43-5.94-9.56-10.05-20.35-24.34-31.9-35.28a1.19 1.18-52.1 0 1-.18-1.5c5.66-8.72 1.4-14.64-5.92-19.87a1.36 1.33-72.6 0 1-.56-1.1v-45.37a.6.6 0 0 1 .6-.6h499.66a.45.45 0 0 1 .45.45v280.9a.33.33 0 0 1-.34.33q-23.85-.72-45.97.05a.4.4 0 0 1-.41-.4q-.04-30.07-.01-149.25c0-4.18-.65-6.49-4.88-6.96q-3.07-.34-7.51-.37-22.68-.13-50.72.02c-5.1.03-6.16 5.02-6.16 9.42q.02 183.46.06 189.25c.05 7.53 4.65 6.69 10.84 6.65q9.89-.06 33.75-.03a.42.41 10.2 0 1 .39.56l-10.21 26.82a2.83 2.82-79.6 0 1-2.64 1.83H544.71a.5.5 0 0 1-.5-.47c-.65-11.74-1.08-19.97-5.72-28.51zm-4.84-112q9.05 9.37 14.75 15c3.46 3.43 7.45 6.07 11.9 1.93q14.62-13.6 26.99-25 13.94-12.84 19.55-17.87c6.18-5.54 11.62-11.5 16.73-15.65 4.27-3.46 7.52-7.34 11.82-11.07q3.87-3.36 8.96-8.2 11.4-10.82 23.03-21.39 19.29-17.54 19.89-18.07 3.95-3.48 13.3-12.81a.61.61 0 0 1 .87.01q1.33 1.38 30.6 30.77c4.4 4.42 8.42 7.69 13.64 2.84q12.02-11.18 19.32-17.52c4.58-3.98 8.6-8.24 13.21-12.11 3.96-3.33 8.88-8.76 12.45-11.56 3.38-2.65 5.96-5.93 8.89-8.2q2.73-2.13 6.85-5.98 3.44-3.23 9.3-8a.48.47-39.4 0 1 .67.06q4.49 5.24 8.6 10.18c4.1 4.94 9.77 2.44 11.72-2.81q8.33-22.48 14.57-37.03 2.06-4.83 1.81-6.25-.61-3.33-3.63-5.33a2.49 2.41 61 0 0-1.35-.41q-6.04-.06-7.86.28-33.88 6.35-38.9 7.13c-6.6 1.03-6.95 8.05-2.92 12.03q6.26 6.17 7.99 7.87a.81.81 0 0 1-.02 1.17l-65.73 60.28a.4.39 45.5 0 1-.54-.01q-24.95-24.62-33.14-33.13c-2.87-2.98-6.65-4.94-10.16-1.71q-13.83 12.72-26.89 24.95-5.8 5.44-7.72 7.11c-5.59 4.84-9.22 8.82-15.71 14.62-4.13 3.69-8.42 8.29-13.35 12.49-4.87 4.16-9.48 9.17-13.97 13.11-6.15 5.38-11.41 11.28-16.53 15.62-6.59 5.59-12.59 12.05-18.28 17.14-8.54 7.65-15.93 16.09-24.91 23.55q-2.01 1.67-4.72 4.66a.65.64 47.6 0 1-.99-.05q-1.61-2.18-2.08-2.65-4.81-4.81-11.66-11.87c-3.5-3.61-6.44-5.81-11.08-3.34q-2.75 1.47-5.67 4.36-11.96 11.85-14.93 14.73c-1.54 1.49-3.59 2.94-5.03 4.31q-17.69 16.96-43.1 41.36c-3.21 3.08-3.09 6.62.3 9.47q5.33 4.49 11.41-1.47 6.11-6 23.91-22.36 25.49-23.45 30.21-27.77 3.7-3.38 7.04-7.39a.4.39 42.7 0 1 .59-.02zm44.36-170.975a6.37 6.37 0 0 0-6.381-6.359l-107.8.188a6.37 6.37 0 0 0-6.359 6.381v.18a6.37 6.37 0 0 0 6.381 6.359l107.8-.188a6.37 6.37 0 0 0 6.359-6.381v-.18zm-33.179 29.772a6.02 6.02 0 0 0-6.01-6.031l-75.52-.132a6.02 6.02 0 0 0-6.031 6.01l-.001.68a6.02 6.02 0 0 0 6.01 6.03l75.52.132a6.02 6.02 0 0 0 6.03-6.009l.001-.68zM757.27 456.7a5.32 5.32 0 0 0-5.32-5.32h-57.74a5.32 5.32 0 0 0-5.32 5.32v156.94a5.32 5.32 0 0 0 5.32 5.32h57.74a5.32 5.32 0 0 0 5.32-5.32V456.7zm-97.54 54.42a5.21 5.21 0 0 0-5.201-5.219l-58.48-.102A5.21 5.21 0 0 0 590.83 511l-.179 102.7a5.21 5.21 0 0 0 5.201 5.219l58.48.102a5.21 5.21 0 0 0 5.219-5.201l.179-102.7zm414.09 143.52a.3.3 0 0 1-.28-.4l7.34-18.83a.56.55-78.8 0 1 .53-.36q15.04.22 53.57.12 2.97 0 7.39-2.04c13.83-6.38 19.68-20.48 16.48-35.03q-2.99-13.65-15.04-21.19c-6.56-4.11-16.53-5.51-24.55-4.95a1.09 1.08-2 0 1-1.16-1.08v-96.77a4.2 4.19-67.1 0 0-1.18-2.92q-2.59-2.69-2.91-2.94-14.16-11.25-19.29-14.67-1.37-.92-5.47-.9-13.15.04-80.53-.01a.6.6 0 0 1-.6-.6v-138.4a.44.44 0 0 1 .44-.44h194.61a.73.72-90 0 1 .72.73v344.58a.6.6 0 0 1-.99.46c-3.41-2.89-5.19-4.21-10.15-4.26q-14.74-.14-118.93-.1zm112.41-284.86l-.06-37.6a3.39 3.39 0 0 0-3.4-3.38l-34.48.06a5.53 4.01 89.9 0 0-4 5.54l.06 33.32a5.53 4.01 89.9 0 0 4.02 5.52l34.48-.06a3.39 3.39 0 0 0 3.38-3.4zm-119.099-36.392a4.44 4.44 0 0 0-4.432-4.448l-34.26-.06a4.44 4.44 0 0 0-4.448 4.432l-.062 35.46a4.44 4.44 0 0 0 4.432 4.448l34.26.06a4.44 4.44 0 0 0 4.448-4.432l.062-35.46zm59.292-.881a3.52 3.52 0 0 0-3.514-3.526l-35.08-.061a3.52 3.52 0 0 0-3.526 3.514l-.065 37.24a3.52 3.52 0 0 0 3.514 3.526l35.08.061a3.52 3.52 0 0 0 3.526-3.514l.065-37.24zm-.28 65.85a3.9 3.9 0 0 0-3.893-3.907l-34.16-.06a3.9 3.9 0 0 0-3.907 3.893l-.065 37a3.9 3.9 0 0 0 3.893 3.907l34.16.06a3.9 3.9 0 0 0 3.907-3.893l.065-37zm-59.56.231a3.98 3.98 0 0 0-3.973-3.987l-34.68-.06a3.98 3.98 0 0 0-3.987 3.973l-.064 36.66a3.98 3.98 0 0 0 3.973 3.987l34.68.06a3.98 3.98 0 0 0 3.987-3.973l.064-36.66zm119.568-.657a3.51 3.51 0 0 0-3.51-3.51h-34.98a3.51 3.51 0 0 0-3.51 3.51v37.78a3.51 3.51 0 0 0 3.51 3.51h34.98a3.51 3.51 0 0 0 3.51-3.51v-37.78zm-.062 65.753a4.39 4.39 0 0 0-4.398-4.382l-33.38.058a4.39 4.39 0 0 0-4.382 4.398l.064 36.98a4.39 4.39 0 0 0 4.398 4.382l33.38-.058a4.39 4.39 0 0 0 4.382-4.398l-.064-36.98zm.055 65.174a4 4 0 0 0-3.993-4.007l-34.2-.06a4 4 0 0 0-4.007 3.993l-.066 37.98a4 4 0 0 0 3.993 4.007l34.2.06a4 4 0 0 0 4.007-3.993l.066-37.98z"/></g><circle cx="399.79" cy="348.36" r="4.44" class="E"/><path d="M393.8 362.08l9.28.03a.31.31 0 0 1 .23.1l25.35 28.64a.31.31 0 0 1-.23.52l-34.72-.11a.31.31 0 0 1-.31-.31l.09-28.56a.31.31 0 0 1 .31-.31z" class="F"/><g class="E"><path d="M384.67 375.44l-.04 16.01a.32.32 0 0 1-.32.31l-16.01-.01a.32.32 0 0 1-.23-.55l16.05-15.99a.32.32 0 0 1 .55.23z"/><rect x="-38.23" y="-20.25" transform="matrix(.999998 -.001745 .001745 .999998 397.98 420.25)" width="76.46" height="40.5" rx="1.23"/><path d="M798.25 609.33v-185.8a1.26 1.26 0 0 1 1.26-1.26h48.54a1.2 1.19 89.8 0 1 1.19 1.19q.14 94.98.02 152.8-.01 4.31-2.02 9.74-4.96 13.41-8.53 22.64a2.19 2.19 0 0 1-2.04 1.4h-37.71a.71.71 0 0 1-.71-.71z"/><rect x="-9" y="-51.51" transform="matrix(.999998 -.001745 .001745 .999998 375.66 500.54)" width="18" height="103.02" rx="1.02"/><rect x="950.56" y="461" width="135.48" height="18.9" rx="1.25"/></g><path d="M1085.249 570.848a.42.42 0 0 1-.421.419l-134.34-.235a.42.42 0 0 1-.419-.421l.142-81.16a.42.42 0 0 1 .421-.419l134.34.234a.42.42 0 0 1 .419.421l-.142 81.16zm-24.119-51.019a3.15 3.15 0 0 0-3.144-3.155l-26.92-.047a3.15 3.15 0 0 0-3.156 3.144l-.06 34.12a3.15 3.15 0 0 0 3.144 3.156l26.92.047a3.15 3.15 0 0 0 3.156-3.144l.06-34.12zm-56.78.091a3.07 3.07 0 0 0-3.065-3.075l-28.24-.049a3.07 3.07 0 0 0-3.075 3.065l-.059 34.08a3.07 3.07 0 0 0 3.065 3.075l28.24.049a3.07 3.07 0 0 0 3.075-3.065l.059-34.08z" class="F"/><g class="E"><path d="M440.73 609.59a.61.6 1 0 1-.61.58h-15.39a.74.73 89.6 0 1-.73-.73c-.13-12.7 1.59-26.57-13.04-31.76-2.45-.87-7.11-.64-8.96-.63q-46.31.19-85.7 0-7.26-.03-9.45 1.05-4.45 2.19-7.02 6.52-1.61 2.71-1.64 11.15-.04 10.86-.05 12.95a1.43 1.43 0 0 1-1.43 1.43l-14.8-.05a.88.87 89 0 1-.87-.85q-.46-15.25.29-22.95 1.79-18.22 19.43-24.56 3.66-1.32 13.48-1.36 44.39-.19 91.76-.06c4.83.01 11.71.03 16.43 1.99 19.77 8.21 18.97 29.52 18.3 47.28z"/><rect x="-24.56" y="-22.09" transform="matrix(.999998 .001745 -.001745 .999998 527.5 587.95)" width="49.12" height="44.18" rx="1.13"/></g><path d="M778.76 785.89a.35.35 0 0 1-.33-.48l77.24-197.48c1.38-3.51 3.53-8.52 7.58-8.66q5.85-.2 40.16.41 17.4.32 40.18.45 72.99.41 114.16.91 20.13.24 38.46-.05a.52.52 0 0 1 .41.84q-6.71 8.23-10.93 18.61-15.97 39.24-34.96 87.92l-48.49 123.11c-4.98 12.7-11.8 21.68-25.34 25.61q-3.26.94-9.26.88-6.27-.07-9.37-.18c-6.68-.23-14.93-4.11-18.4-10.25q-2.24-3.98-2.82-8.71a.53.52-2.3 0 1 .55-.59q4.7.22 26.91.5c3.49.05 5.68-1.75 6.91-5.1 4.79-13.01-1.24-26.7-16.67-26.72q-75.94-.08-136.75-.92-15.15-.21-39.24-.1zm252.64-168.97a.17.17 0 0 1 .16.24l-53.62 137.7a.44.44 0 0 1-.41.28l-22.95-.3a.58.58 0 0 1-.51-.84q1.47-2.93 2.39-5.28 11.09-28.33 23.74-62.45a1.99 1.99 0 0 1 1.93-1.29c3.53.11 9.84-.14 12.13-3.58a2.9 2.85 44.6 0 0-.05-3.24q-18.45-26.47-33.58-48.53-1.79-2.63-3.72-4.31a2.43 2.42-40.2 0 0-2.86-.24q-10.44 6.35-22.51 13.23-26.79 15.28-55.77 32.88c-3.48 2.12-7.89 4.09-10.77 6.6q-1.72 1.5-1.55 4.62a1.7 1.69 88.7 0 0 1.67 1.6l10.78.15a.65.65 0 0 1 .6.87l-24.68 67.42a1.13 1.13 0 0 1-1.08.75l-28.34-.38a4.42 4.41-84.7 0 0-4.41 3.67l-.13.79a3.47 3.47 0 0 0 3.19 4.09q10.7.7 13.95.66 21.16-.25 39.97.48c23.23.89 51.57-.04 74.96.76q14.82.5 30.83.98 2.91.08 4.06-2.94 4.56-12.01 9.11-23.95 18.43-48.36 42.5-109.16 2.67-6.76 5.16-13.67.89-2.47.42-4.67a2.44 2.43-6.4 0 0-2.44-1.94c-16.09.36-31.1-1.16-46.5-1.08q-44.67.22-61.79-.25-35.74-.98-50.28-.52c-4.29.13-7.04.72-8.5 4.72-6.68 18.32-12.9 33.14-19.07 49.76q-16.84 45.41-26.4 71.3a3.87 3.87 0 0 0 2.55 5.06l.24.07a4.47 4.47 0 0 0 5.45-2.76q11.29-31.05 25.88-69.93 3.6-9.6 5.41-14.02c4.97-12.07 8.39-22.78 13.38-34.63a1.16 1.16 0 0 1 1.09-.72l150.37 2zm64.74-17.15a.49.49 0 0 1-.43-.69q4.17-9.19 11.99-14.4c7.89-5.25 18.99-5.36 27.42-2 11.56 4.59 18.43 17 14.96 29.71q-3.23 11.8-15.72 14.47c-1.95.42-5.11-.05-6.88-1.26-7.53-5.12-3.59-12.16-1.28-19.01 1.28-3.81.71-6.74-3.92-6.74q-23.56.01-26.14-.08z" class="F"/><rect x="-8.94" y="-12.36" transform="matrix(.999994 .003491 -.003491 .999994 375.74 597.75)" width="17.88" height="24.72" rx="1.15" class="E"/><path d="M394.05 585.82q3.24.21 8.34.15 5.96-.07 8.22 1.77c3.39 2.76 4.36 5.37 4.35 10.31q-.02 7.55-.03 11.36a.55.55 0 0 1-.55.55h-20.57a.63.62-90 0 1-.62-.63v-22.7a.81.81 0 0 1 .86-.81zm691.2 40.66a.57.57 0 0 1-.53-.78q3.19-8.37 6.11-15.09.82-1.89 2.07-2.75a1.26 1.23-61.3 0 1 .75-.23l21.76.29a.8.8 0 0 1 .75 1.04q-2 6.19-.94 13.31a1.99 1.9 29.7 0 0 .16.54l1.5 3.15a.66.65 77.5 0 1-.59.94l-31.04-.42z" class="F"/><g class="E"><path d="M375.74 742.15a1.37 1.37 0 0 1-1.68-1.35l.04-2.84a2.4 2.39-9.5 0 1 1.6-2.23q2.96-1.04 3.41-1.14c11.75-2.64 24.79-6.54 35.52-9.16q38.51-9.43 80.12-21.69c6.02-1.77 11.02-5.59 11.06-12.49q.08-16.12.29-44.76a1.92 1.91-89.8 0 1 1.91-1.91h.89a2.12 2.11 88.6 0 1 2.11 2.01q1.26 24.54.92 46.6c-.14 9.36-5.96 13.3-14.25 16.45q-7.14 2.72-27.72 8.34l-42.26 11.07q-27.15 7.3-51.96 13.1zm443.14-83.86l-6.74 18.4a1 1 0 0 1-.94.66l-266.29-.81a1 1 0 0 1-1-1v-17.59a1 1 0 0 1 1-1h273.03a1 1 0 0 1 .94 1.34zm369.94 5.34v173.85a.64.63 0 0 1-.64.63H993.53a.64.64 0 0 1-.35-1.17c8.98-5.92 13.76-14.52 17.52-24.48q3.93-10.38 6.82-18.06a2.08 2.07 10.5 0 1 1.96-1.34q13.6.12 26.8-.04 2.55-.03 2.57-2.44.11-16.15-.04-32.94a2.13 2.13 0 0 0-2.13-2.11h-12.12a.88.88 0 0 1-.82-1.2l35.12-90.21a1.65 1.65 0 0 1 1.54-1.05h117.86a.56.56 0 0 1 .56.56zm-83.863 34.383a2.23 2.23 0 0 0-2.222-2.238l-25.76-.09a2.23 2.23 0 0 0-2.238 2.222l-.114 32.66a2.23 2.23 0 0 0 2.222 2.238l25.76.09a2.23 2.23 0 0 0 2.238-2.222l.114-32.66zm57.083-.183a2.02 2.02 0 0 0-2.02-2.02h-27.36a2.02 2.02 0 0 0-2.02 2.02v33.04a2.02 2.02 0 0 0 2.02 2.02h27.36a2.02 2.02 0 0 0 2.02-2.02v-33.04zm-56.072 60.107a2.6 2.6 0 0 0-2.595-2.605l-26.06-.046a2.6 2.6 0 0 0-2.604 2.595l-.057 32.48a2.6 2.6 0 0 0 2.595 2.605l26.06.045a2.6 2.6 0 0 0 2.604-2.595l.057-32.48zm56.24-.14a2.44 2.44 0 0 0-2.436-2.444l-26.48-.046a2.44 2.44 0 0 0-2.444 2.436l-.057 32.82a2.44 2.44 0 0 0 2.436 2.444l26.48.046a2.44 2.44 0 0 0 2.444-2.436l.057-32.82zM317.27 739.27a1.3 1.3 0 0 1-1.6 1.27q-37.29-8.87-72.61-17.96-6.36-1.63-13.17-3.66c-10.28-3.05-16.09-4.31-23.11-7.91a3.11 3.11 0 0 1-1.65-3.29l.31-1.91a1.65 1.65 0 0 1 2.13-1.3c6.43 2.07 11.93 4.11 17.71 5.76q44.78 12.8 90.52 23.69a1.92 1.91 6.8 0 1 1.48 1.87l-.01 3.44zm48.48-27.44l-.3 22.24a1.04 1.04 0 0 1-1.04 1.03h-37.36a1.04 1.04 0 0 1-1.04-1.01l-.61-22.36a1.04 1.04 0 0 1 1.04-1.07l38.27.12a1.04 1.04 0 0 1 1.04 1.05z"/><rect x="-23.57" y="-45.2" transform="matrix(.999998 .001745 -.001745 .999998 656.46 758.35)" width="47.14" height="90.4" rx="1.68"/><rect x="-3.01" y="-53.66" transform="matrix(.999998 .001745 -.001745 .999998 508.17 776.05)" width="6.02" height="107.32" rx="2.21"/><path d="M364.98 744.03a1.23 1.23 0 0 1 1.23 1.23l-.03 6.63a15.92 15.4-89.8 0 1-15.45 15.87l-9.58-.04a15.92 15.4-89.8 0 1-15.35-15.97l.03-6.63a1.23 1.23 0 0 1 1.23-1.23l37.92.14z"/><rect x="102.9" y="792.9" width="95.1" height="26.7" rx="1.14"/></g><path d="M937.84 837.49a.21.21 0 0 1-.14.36q-104.43.04-213.55-.8-6.33-.05-8.67-1.01-3.88-1.6-7.54-4.58c-5.42-4.42-7.32-13.02-6.75-19.96q.69-8.37 2.5-15.98a1.89 1.89 0 0 1 1.9-1.45q8.85.26 9.66.27l123.68.69q37.38-.07 75.07.44 7.68.1 17.03-.18a.71.71 0 0 1 .69.96c-5.42 14.53-6.2 29.95 6.12 41.24zm.11-26.93a.24.24 0 0 1-.23-.25l.08-4.86a9.62 5.31-89 0 1 5.48-9.52l15.42.27a9.62 5.31-89 0 1 5.14 9.71l-.09 4.86a.24.24 0 0 1-.24.23l-25.56-.44z" class="F"/><path d="M701.15 836.87q-2.35.51-4.15.52-60.33.1-125.39.04a.61.61 0 0 1-.61-.59c-.22-5.39-.66-10.87 1.75-15.78q4.12-8.39 15.5-8.59 30.69-.56 38.01-.43 33.1.54 65.1.23a1.74 1.74 0 0 1 1.76 1.79q-.29 10.72 6.14 19.21 1.4 1.86 2.13 3.03a.38.38 0 0 1-.24.57z" class="E"/><path d="M678.91 96.52a.64.63 10.3 0 0-.86.59l-.09 31.9a1.77 1.76 11.2 0 0 1.11 1.65c10.48 4.22 22.28 12.42 27.22 22.48 6.53 13.3 3.74 27.7-6.03 38.78q-8.06 9.14-21.11 12.39a2.02 2.01 86.1 0 0-1.51 1.74c-.53 5.11-.61 10.26-6.02 12.36-3.38 1.32-6.16-.88-7.84-3.88-1.14-2.03-.75-6.01-.71-8.17a1.62 1.61-83.2 0 0-1.25-1.6c-14.38-3.38-29.81-13.27-30.53-29.48q-.11-2.57 2.23-5.1c3.42-3.66 9.49-2.04 12.46 1.42 5.23 6.09 7.89 9.92 14.06 12.61a1.33 1.33 0 0 0 1.86-1.22v-36.14a1.6 1.59-81.3 0 0-1.11-1.52q-11.01-3.46-19.24-12.18c-6.88-7.29-9.31-15.42-8.33-25.64q1.31-13.77 10.91-21.94 7.52-6.41 17.33-7.84a.85.84 84.7 0 0 .72-.87c-.15-4.06.06-10.51 3.73-12.69 4.68-2.8 10.27.5 10.82 5.37q.4 3.6.38 7.43a1.01 1.01 0 0 0 .86 1q17.17 2.42 26.45 16.59c3.25 4.95 4.16 12.48-1.67 15.58q-4.34 2.3-8.84-.48a2.81 2.58-2.5 0 1-.63-.53c-3.78-4.24-8.42-10.43-14.37-12.61zm-28.02 14.18c.04 5.69 5.06 11.03 9.74 13.75a.8.8 0 0 0 1.19-.52c.52-2.32.16-6.9.12-13.31-.05-6.4.26-10.98-.3-13.3a.8.8 0 0 0-1.19-.5c-4.65 2.78-9.6 8.19-9.56 13.88zm27.07 57.05q.06 14.93.06 16a.85.84-13.7 0 0 1.24.75c6.49-3.44 12.4-9.39 12.37-16.8-.03-7.42-5.99-13.32-12.51-16.71a.85.84 13.3 0 0-1.24.76q.02 1.07.08 16zm-457.53 57.98q-1.04 2-3.91 2.08-17.42.49-40.32.04-4.86-.1-6.61-1.12c-4.87-2.87-4.31-7.84-4.42-13.98q-.02-.81.21-22.25c.05-4.28 3.17-4.62 6.87-4.78q9.22-.41 16.67.37 2.9.3 5.37 2.74 13.98 13.83 24.63 25.49 4.73 5.18 1.51 11.41z" class="G"/><path fill="#42657f" d="M533.65 507.11a.4.39 42.7 0 0-.59.02q-3.34 4.01-7.04 7.39-4.72 4.32-30.21 27.77-17.8 16.36-23.91 22.36-6.08 5.96-11.41 1.47c-3.39-2.85-3.51-6.39-.3-9.47q25.41-24.4 43.1-41.36c1.44-1.37 3.49-2.82 5.03-4.31q2.97-2.88 14.93-14.73 2.92-2.89 5.67-4.36c4.64-2.47 7.58-.27 11.08 3.34q6.85 7.06 11.66 11.87.47.47 2.08 2.65a.65.64 47.6 0 0 .99.05q2.71-2.99 4.72-4.66c8.98-7.46 16.37-15.9 24.91-23.55 5.69-5.09 11.69-11.55 18.28-17.14 5.12-4.34 10.38-10.24 16.53-15.62 4.49-3.94 9.1-8.95 13.97-13.11 4.93-4.2 9.22-8.8 13.35-12.49 6.49-5.8 10.12-9.78 15.71-14.62q1.92-1.67 7.72-7.11 13.06-12.23 26.89-24.95c3.51-3.23 7.29-1.27 10.16 1.71q8.19 8.51 33.14 33.13a.4.39 45.5 0 0 .54.01l65.73-60.28a.81.81 0 0 0 .02-1.17q-1.73-1.7-7.99-7.87c-4.03-3.98-3.68-11 2.92-12.03q5.02-.78 38.9-7.13 1.82-.34 7.86-.28a2.49 2.41 61 0 1 1.35.41q3.02 2 3.63 5.33.25 1.42-1.81 6.25-6.24 14.55-14.57 37.03c-1.95 5.25-7.62 7.75-11.72 2.81q-4.11-4.94-8.6-10.18a.48.47-39.4 0 0-.67-.06q-5.86 4.77-9.3 8-4.12 3.85-6.85 5.98c-2.93 2.27-5.51 5.55-8.89 8.2-3.57 2.8-8.49 8.23-12.45 11.56-4.61 3.87-8.63 8.13-13.21 12.11q-7.3 6.34-19.32 17.52c-5.22 4.85-9.24 1.58-13.64-2.84q-29.27-29.39-30.6-30.77a.61.61 0 0 0-.87-.01q-9.35 9.33-13.3 12.81-.6.53-19.89 18.07-11.63 10.57-23.03 21.39-5.09 4.84-8.96 8.2c-4.3 3.73-7.55 7.61-11.82 11.07-5.11 4.15-10.55 10.11-16.73 15.65q-5.61 5.03-19.55 17.87-12.37 11.4-26.99 25c-4.45 4.14-8.44 1.5-11.9-1.93q-5.7-5.63-14.75-15z"/><g class="G"><path d="M1186.23 369.78a3.39 3.39 0 0 1-3.38 3.4l-34.48.06a5.53 4.01 89.9 0 1-4.02-5.52l-.06-33.32a5.53 4.01 89.9 0 1 4-5.54l34.48-.06a3.39 3.39 0 0 1 3.4 3.38l.06 37.6z"/><rect x="-21.57" y="-22.17" transform="matrix(.999998 .001745 -.001745 .999998 1045.53 351.08)" width="43.14" height="44.34" rx="4.44"/><rect x="-21.06" y="-22.14" transform="matrix(.999998 .001745 -.001745 .999998 1105.33 351.09)" width="42.12" height="44.28" rx="3.52"/><rect x="-60.27" y="-6.46" transform="matrix(.999998 -.001745 .001745 .999998 517.74 336.33)" width="120.54" height="12.92" rx="6.37"/><rect x="-43.78" y="-6.36" transform="matrix(.999998 .001745 -.001745 .999998 501.05 366.17)" width="87.56" height="12.72" rx="6.02"/><rect x="-20.98" y="-22.4" transform="matrix(.999998 .001745 -.001745 .999998 1105.13 416.82)" width="41.96" height="44.8" rx="3.9"/><rect x="-21.32" y="-22.31" transform="matrix(.999998 .001745 -.001745 .999998 1045.23 416.88)" width="42.64" height="44.62" rx="3.98"/><rect x="1144.15" y="394.42" width="42" height="44.8" rx="3.51"/><path d="M757.27 613.64a5.32 5.32 0 0 1-5.32 5.32h-57.74a5.32 5.32 0 0 1-5.32-5.32V456.7a5.32 5.32 0 0 1 5.32-5.32h57.74a5.32 5.32 0 0 1 5.32 5.32v156.94zm-8.18-152.53a.83.83 0 0 0-.83-.83h-49.5a.83.83 0 0 0-.83.83v148.1a.83.83 0 0 0 .83.83h49.5a.83.83 0 0 0 .83-.83v-148.1z"/><rect x="-21.08" y="-22.88" transform="matrix(.999998 -.001745 .001745 .999998 1165.04 482.21)" width="42.16" height="45.76" rx="4.39"/><path d="M659.55 613.82a5.21 5.21 0 0 1-5.219 5.201l-58.48-.102a5.21 5.21 0 0 1-5.201-5.219l.179-102.7a5.21 5.21 0 0 1 5.219-5.201l58.48.102a5.21 5.21 0 0 1 5.201 5.219l-.179 102.7zm-8.789-98.265a1 1 0 0 0-.998-1.002l-49.2-.086a1 1 0 0 0-1.002.998l-.163 93.56a1 1 0 0 0 .998 1.002l49.2.086a1 1 0 0 0 1.002-.998l.163-93.56z"/><rect x="-16.61" y="-20.21" transform="matrix(.999998 .001745 -.001745 .999998 1044.49 536.86)" width="33.22" height="40.42" rx="3.15"/><rect x="-17.19" y="-20.11" transform="matrix(.999998 .001745 -.001745 .999998 987.13 536.93)" width="34.38" height="40.22" rx="3.07"/><rect x="-21.1" y="-22.99" transform="matrix(.999998 .001745 -.001745 .999998 1165.01 547.81)" width="42.2" height="45.98" rx="4"/></g><path fill="#42657f" d="M1031.4 616.92l-150.37-2a1.16 1.16 0 0 0-1.09.72c-4.99 11.85-8.41 22.56-13.38 34.63q-1.81 4.42-5.41 14.02-14.59 38.88-25.88 69.93a4.47 4.47 0 0 1-5.45 2.76l-.24-.07a3.87 3.87 0 0 1-2.55-5.06q9.56-25.89 26.4-71.3l19.07-49.76c1.46-4 4.21-4.59 8.5-4.72q14.54-.46 50.28.52 17.12.47 61.79.25c15.4-.08 30.41 1.44 46.5 1.08a2.44 2.43-6.4 0 1 2.44 1.94q.47 2.2-.42 4.67-2.49 6.91-5.16 13.67-24.07 60.8-42.5 109.16-4.55 11.94-9.11 23.95-1.15 3.02-4.06 2.94-16.01-.48-30.83-.98c-23.39-.8-51.73.13-74.96-.76q-18.81-.73-39.97-.48-3.25.04-13.95-.66a3.47 3.47 0 0 1-3.19-4.09l.13-.79a4.42 4.41-84.7 0 1 4.41-3.67l28.34.38a1.13 1.13 0 0 0 1.08-.75l24.68-67.42a.65.65 0 0 0-.6-.87l-10.78-.15a1.7 1.69 88.7 0 1-1.67-1.6q-.17-3.12 1.55-4.62c2.88-2.51 7.29-4.48 10.77-6.6q28.98-17.6 55.77-32.88 12.07-6.88 22.51-13.23a2.43 2.42-40.2 0 1 2.86.24q1.93 1.68 3.72 4.31 15.13 22.06 33.58 48.53a2.9 2.85 44.6 0 1 .05 3.24c-2.29 3.44-8.6 3.69-12.13 3.58a1.99 1.99 0 0 0-1.93 1.29q-12.65 34.12-23.74 62.45-.92 2.35-2.39 5.28a.58.58 0 0 0 .51.84l22.95.3a.44.44 0 0 0 .41-.28l53.62-137.7a.17.17 0 0 0-.16-.24zm-145.72 59.13c6.29.3 12.16-.2 19.09-.2q55.15 0 72.21.57 1.99.07 4.2.6a.54.54 0 0 0 .57-.83l-27.54-39.91a.79.79 0 0 0-1.04-.24l-67.71 39.09a.49.49 0 0 0 .22.92zm38.74 78.43l19.94.26a1.34 1.33 10.8 0 0 1.28-.86l25.91-68.11a.61.6-79.6 0 0-.56-.82h-85.26a.55.54 10 0 0-.51.35l-24.88 67.97a.61.61 0 0 0 .61.82q9.15-.62 20.6-.01 2.26.12 2.6-1.45.26-1.16.28-1.2 7.24-18.82 14.9-39.32c1.14-3.05 1.63-5.08 4.92-5.11q13.42-.11 33.46.83 2.1.1 2.12 2.89a1.38 1.36 54.9 0 1-.09.54L924.09 754a.36.36 0 0 0 .33.48zm-9.79-.47a.78.78 0 0 0 .74-.51l13.38-36.56a.78.78 0 0 0-.74-1.05h-20.9a.78.78 0 0 0-.74.51l-13.38 36.56a.78.78 0 0 0 .74 1.05h20.9z"/><g class="G"><rect x="-15.11" y="-18.56" transform="matrix(.999994 .003491 -.003491 .999994 1089.79 714.29)" width="30.22" height="37.12" rx="2.23"/><rect x="1130.64" y="695.81" width="31.4" height="37.08" rx="2.02"/><rect x="-15.63" y="-18.84" transform="matrix(.999998 .001745 -.001745 .999998 1090.31 774.15)" width="31.26" height="37.68" rx="2.6"/><rect x="-15.68" y="-18.85" transform="matrix(.999998 .001745 -.001745 .999998 1146.5 774.18)" width="31.36" height="37.7" rx="2.44"/></g><g class="E"><path d="M661.94 110.62c.04 6.41.4 10.99-.12 13.31a.8.8 0 0 1-1.19.52c-4.68-2.72-9.7-8.06-9.74-13.75s4.91-11.1 9.56-13.88a.8.8 0 0 1 1.19.5c.56 2.32.25 6.9.3 13.3zm29.69 57.08c.03 7.41-5.88 13.36-12.37 16.8a.85.84-13.7 0 1-1.24-.75q0-1.07-.06-16-.06-14.93-.08-16a.85.84 13.3 0 1 1.24-.76c6.52 3.39 12.48 9.29 12.51 16.71z"/><rect x="697.93" y="460.28" width="51.16" height="149.76" rx=".83"/><rect x="-25.6" y="-47.78" transform="matrix(.999998 .001745 -.001745 .999998 625.08 562.29)" width="51.2" height="95.56" rx="1"/></g><path d="M885.68 676.05a.49.49 0 0 1-.22-.92l67.71-39.09a.79.79 0 0 1 1.04.24l27.54 39.91a.54.54 0 0 1-.57.83q-2.21-.53-4.2-.6-17.06-.57-72.21-.57c-6.93 0-12.8.5-19.09.2zm38.74 78.43a.36.36 0 0 1-.33-.48l15.65-42.74a1.38 1.36 54.9 0 0 .09-.54q-.02-2.79-2.12-2.89-20.04-.94-33.46-.83c-3.29.03-3.78 2.06-4.92 5.11q-7.66 20.5-14.9 39.32-.02.04-.28 1.2-.34 1.57-2.6 1.45-11.45-.61-20.6.01a.61.61 0 0 1-.61-.82l24.88-67.97a.55.54 10 0 1 .51-.35h85.26a.61.6-79.6 0 1 .56.82l-25.91 68.11a1.34 1.33 10.8 0 1-1.28.86l-19.94-.26zm-9.79-.47h-20.9a.78.78 0 0 1-.74-1.05l13.38-36.56a.78.78 0 0 1 .74-.51h20.9a.78.78 0 0 1 .74 1.05l-13.38 36.56a.78.78 0 0 1-.74.51z" class="F"/></svg>