<svg xmlns="http://www.w3.org/2000/svg" fill="none" viewBox="-10.715 -10.715 300 300" height="300" width="300"><g id="deployment-workflow-collaboration--deployment-workflow-collaboration-circle-operation-develop"><path id="Vector_2" fill="#d76424" d="M139.285 69.6425c15.918285714285714 0 24.872321428571425 -8.954035714285714 24.872321428571425 -24.872321428571425S155.2032857142857 19.89785714285714 139.285 19.89785714285714s-24.872321428571425 8.954035714285714 -24.872321428571425 24.872321428571425S123.36671428571428 69.6425 139.285 69.6425Z" stroke-width="21.43"></path><path id="Vector_2_2" fill="#d76424" d="M34.82125 225.71731185714285c15.918285714285714 0 24.872321428571425 -8.956025499999999 24.872321428571425 -24.872321428571425 0 -15.919280607142857 -8.954035714285714 -24.87331632142857 -24.872321428571425 -24.87331632142857S9.94892857142857 184.92570982142854 9.94892857142857 200.8449904285714c0 15.916295928571428 8.954035714285714 24.872321428571425 24.872321428571425 24.872321428571425Z" stroke-width="21.43"></path><path id="Vector_2_3" fill="#d76424" d="M243.74874999999997 225.71731185714285c15.918285714285714 0 24.872321428571425 -8.956025499999999 24.872321428571425 -24.872321428571425 0 -15.919280607142857 -8.954035714285714 -24.87331632142857 -24.872321428571425 -24.87331632142857s-24.872321428571425 8.954035714285714 -24.872321428571425 24.87331632142857c0 15.916295928571428 8.954035714285714 24.872321428571425 24.872321428571425 24.872321428571425Z" stroke-width="21.43"></path><path id="Vector_2_4" stroke="#060644" stroke-linecap="round" stroke-linejoin="round" d="M74.98527362142856 58.030110571428565C46.43543023571428 75.48232209285713 31.090401785714285 107.0098798 31.090401785714285 150.4723712c0 9.033030207142856 0.6627976214285713 17.550506935714285 1.9692909214285714 25.533129264285712M246.66378607142855 133.7032531142857c-5.103800357142857 -50.58234264285714 -34.00742764285714 -81.85142718571427 -82.45791387142856 -89.55488257857142M81.83968744999999 246.70756135714282c15.775618078571428 7.875571857142856 35.02201937857142 11.958612142857142 57.44531255 11.958612142857142 40.01598356428571 0 69.91510064285714 -13.007229214285712 88.0261302142857 -37.35225742857143" stroke-width="21.43"></path><path id="Vector_2_5" stroke="#060644" stroke-linecap="round" stroke-linejoin="round" d="M139.285 69.6425c15.918285714285714 0 24.872321428571425 -8.954035714285714 24.872321428571425 -24.872321428571425S155.2032857142857 19.89785714285714 139.285 19.89785714285714s-24.872321428571425 8.954035714285714 -24.872321428571425 24.872321428571425S123.36671428571428 69.6425 139.285 69.6425Z" stroke-width="21.43"></path><path id="Vector_2_6" stroke="#060644" stroke-linecap="round" stroke-linejoin="round" d="M34.82125 225.71731185714285c15.918285714285714 0 24.872321428571425 -8.954035714285714 24.872321428571425 -24.872321428571425 0 -15.919280607142857 -8.954035714285714 -24.87331632142857 -24.872321428571425 -24.87331632142857S9.94892857142857 184.92570982142854 9.94892857142857 200.8449904285714c0 15.918285714285714 8.954035714285714 24.872321428571425 24.872321428571425 24.872321428571425Z" stroke-width="21.43"></path><path id="Vector_2_7" stroke="#060644" stroke-linecap="round" stroke-linejoin="round" d="M243.74874999999997 225.71731185714285c15.918285714285714 0 24.872321428571425 -8.954035714285714 24.872321428571425 -24.872321428571425 0 -15.919280607142857 -8.954035714285714 -24.87331632142857 -24.872321428571425 -24.87331632142857s-24.872321428571425 8.954035714285714 -24.872321428571425 24.87331632142857c0 15.918285714285714 8.954035714285714 24.872321428571425 24.872321428571425 24.872321428571425Z" stroke-width="21.43"></path></g></svg>