<svg xmlns="http://www.w3.org/2000/svg" fill="none" viewBox="0 0 14 14" id="Description--Streamline-Flex" height="14" width="14"><desc>Description Streamline Icon: https://streamlinehq.com</desc><g id="description"><path id="Union" fill="#d76424" d="M2.59312 0.788978C4.0129 0.627086 5.57047 0.5 6.99925 0.5c1.42893 0 2.98774 0.127111 4.40825 0.289026 0.9779 0.111457 1.7454 0.890784 1.852 1.875124 0 0 0.2405 1.12587 0.2405 3.31922s-0.2404 3.31923 -0.2404 3.31923c-0.1066 0.9843 -0.8742 1.7637 -1.852 1.8751 -1.2939 0.1475 -2.7025 0.2661 -4.02318 0.2861l-1.72798 1.7386c-0.6318 0.6357 -1.71209 0.1855 -1.71209 -0.7135v-1.1734c-0.45833 -0.0408 -0.91136 -0.0876 -1.35118 -0.1377 -0.97783 -0.1115 -1.745427 -0.8909 -1.852406 -1.87516 0 0 -0.240764 -1.12535 -0.240764 -3.31898C0.5 3.79002 0.740706 2.6641 0.740706 2.6641 0.847684 1.6798 1.61528 0.900476 2.59312 0.788978Z" stroke-width="1"></path><path id="Union_2" stroke="#060644" stroke-linecap="round" stroke-linejoin="round" d="M2.59312 0.788978C4.0129 0.627086 5.57047 0.5 6.99925 0.5c1.42893 0 2.98774 0.127111 4.40825 0.289026 0.9779 0.111457 1.7454 0.890784 1.852 1.875124 0 0 0.2405 1.12587 0.2405 3.31922s-0.2404 3.31923 -0.2404 3.31923c-0.1066 0.9843 -0.8742 1.7637 -1.852 1.8751 -1.2939 0.1475 -2.7025 0.2661 -4.02318 0.2861l-1.72798 1.7386c-0.6318 0.6357 -1.71209 0.1855 -1.71209 -0.7135v-1.1734c-0.45833 -0.0408 -0.91136 -0.0876 -1.35118 -0.1377 -0.97783 -0.1115 -1.745427 -0.8909 -1.852406 -1.87516 0 0 -0.240764 -1.12535 -0.240764 -3.31898C0.5 3.79002 0.740706 2.6641 0.740706 2.6641 0.847684 1.6798 1.61528 0.900476 2.59312 0.788978Z" stroke-width="1"></path><path id="Vector_2" fill="#4d6a7f" d="M9.04964 3.9384c-0.78573 0 -1.2277 0.44197 -1.2277 1.2277s0.44197 1.2277 1.2277 1.2277 1.22766 -0.44197 1.22766 -1.2277 -0.44193 -1.2277 -1.22766 -1.2277Z" stroke-width="1"></path><path id="Vector_2_2" fill="#4d6a7f" d="M4.84261 3.9384c-0.78573 0 -1.2277 0.44197 -1.2277 1.2277s0.44197 1.2277 1.2277 1.2277 1.2277 -0.44197 1.2277 -1.2277 -0.44197 -1.2277 -1.2277 -1.2277Z" stroke-width="1"></path><path id="Vector_2_3" stroke="#060644" stroke-linecap="round" stroke-linejoin="round" d="M9.04964 3.9384c-0.78573 0 -1.2277 0.44197 -1.2277 1.2277s0.44197 1.2277 1.2277 1.2277 1.22766 -0.44197 1.22766 -1.2277 -0.44193 -1.2277 -1.22766 -1.2277Z" stroke-width="1"></path><path id="Vector_2_4" stroke="#060644" stroke-linecap="round" stroke-linejoin="round" d="M4.84261 3.9384c-0.78573 0 -1.2277 0.44197 -1.2277 1.2277s0.44197 1.2277 1.2277 1.2277 1.2277 -0.44197 1.2277 -1.2277 -0.44197 -1.2277 -1.2277 -1.2277Z" stroke-width="1"></path><path id="Vector_2_5" stroke="#060644" stroke-linecap="round" stroke-linejoin="round" d="M9.30342 8.08496c0.70298 -0.39023 1.08228 -1.14355 1.08228 -2.20239 0 -0.41096 -0.0718 -0.88992 -0.1829 -1.20547" stroke-width="1"></path><path id="Vector_2_6" stroke="#060644" stroke-linecap="round" stroke-linejoin="round" d="M5.09541 8.08496c0.70302 -0.39023 1.08232 -1.14355 1.08232 -2.20239 0 -0.41096 -0.07188 -0.88992 -0.18291 -1.20547" stroke-width="1"></path></g></svg>