<svg xmlns="http://www.w3.org/2000/svg" fill="none" viewBox="-10.715 -10.715 300 300" height="300" width="300"><g id="dimension-vertical--dimension-vertical-edit-transform-enlarge"><path id="Subtract" fill="#d76424" fill-rule="evenodd" d="M134.3105357142857 14.923392857142856c-22.149498657142853 0 -43.87517295714286 1.9118458078571428 -65.03674300714286 4.1759035849999995C40.607944814285716 22.166212857142856 17.55213856 45.22205890714285 14.358452897142856 73.87397829999999 11.98630996 95.15573140714285 9.94892857142857 117.00676220714286 9.94892857142857 139.285s2.0373813885714283 44.12926859285714 4.409544223571428 65.41022578571429c3.193665765 28.65291428571428 26.24947201928571 51.708561357142855 54.91531991214285 54.77482114285714 21.161570049999998 2.2643761428571425 42.887244349999996 4.176560214285714 65.03674300714286 4.176560214285714 12.81819957142857 0 25.494726399999998 -0.6407109999999999 38.00212144285714 -1.6176957857142855 -3.511772807142857 -4.859056714285714 -6.599721257142856 -9.897194142857142 -9.154606114285713 -15.006963857142855 -8.600450792857142 -17.19970771428571 -1.6284406285714284 -38.11633514285714 15.572659935714286 -46.71618899999999 5.752271521428571 -2.876832185714285 11.9200103 -4.011407999999999 17.9036939 -3.6042978428571426l0 -31.56158304285714c0 -11.68441967142857 5.754659264285714 -22.02473909285714 14.585328264285714 -28.340915885714285 -8.830668999999999 -6.316176792857142 -14.585328264285714 -16.656297235714284 -14.585328264285714 -28.340716907142856l0 -26.587118757142854c-5.983683599999999 0.4071101571428571 -12.151422378571427 -0.7274656571428572 -17.9036939 -3.6037009071428567 -17.201100564285714 -8.600450792857142 -24.173110728571427 -29.51668026428571 -15.572659935714286 -46.717581849999995 2.5550838357142855 -5.109968692857142 5.643231264285713 -10.148703057142857 9.155203049999999 -15.006963857142855C159.80566007142855 15.56414365285714 147.12913324285714 14.923392857142856 134.3105357142857 14.923392857142856Z" clip-rule="evenodd" stroke-width="21.43"></path><path id="Vector" stroke="#060644" stroke-linecap="round" stroke-linejoin="round" d="m231.4478947142857 108.46660192142856 0 -94.1650171" stroke-width="21.43"></path><path id="Vector_2" stroke="#060644" stroke-linecap="round" stroke-linejoin="round" d="M268.6210714285714 47.11136044285713C261.18922178571427 32.24646728571428 246.3235327142857 17.381434843571427 231.45983342857141 9.94892857142857c-14.86568907142857 7.432506272142857 -29.73137814285714 22.297538714285714 -37.16382472142857 37.16243187142857" stroke-width="21.43"></path><path id="Vector_3" stroke="#060644" stroke-linecap="round" stroke-linejoin="round" d="m231.4478947142857 165.12893379285714 0 94.16402220714286" stroke-width="21.43"></path><path id="Vector_4" stroke="#060644" stroke-linecap="round" stroke-linejoin="round" d="M268.6210714285714 231.45784364285714c-7.431849642857142 14.86568907142857 -22.297538714285714 29.73137814285714 -37.161238 37.163227785714284 -14.86568907142857 -7.431849642857142 -29.73137814285714 -22.297538714285714 -37.16382472142857 -37.163227785714284" stroke-width="21.43"></path><path id="Intersect" stroke="#060644" stroke-linecap="round" stroke-linejoin="round" d="M162.27379027142857 262.7332955c-9.237580178571427 0.5690787142857142 -18.56231297142857 0.9133116428571428 -27.963254557142857 0.9133116428571428 -22.149498657142853 0 -43.87517295714286 -1.9121840714285714 -65.03674300714286 -4.176560214285714C40.607944814285716 256.4037871428571 17.55213856 233.34814007142856 14.358472794999997 204.69522578571429 11.98630996 183.41426859285716 9.94892857142857 161.56323779285714 9.94892857142857 139.285s2.0373813885714283 -44.12926859285714 4.409524325714285 -65.41102169999999C17.55213856 45.221859928571426 40.607944814285716 22.166212857142856 69.27379270714285 19.099296442142855 90.43536275714284 16.835258562857142 112.16103705714285 14.923392857142856 134.3105357142857 14.923392857142856c9.400941585714286 0 18.725674378571426 0.3446308857142857 27.963254557142857 0.9144657185714284" stroke-width="21.43"></path></g></svg>