<svg xmlns="http://www.w3.org/2000/svg" fill="none" viewBox="-7.145 -7.145 200 200" id="Electrical-Circuit--Streamline-Core" height="200" width="200"><desc>Electrical Circuit Streamline Icon: https://streamlinehq.com</desc><g id="electrical-circuit"><path id="Vector" fill="#d76424" d="M159.18 13.265H26.53c-7.3259942 0 -13.265 5.9390058 -13.265 13.265v132.65c0 7.326259500000001 5.9390058 13.265 13.265 13.265h132.65c7.326259500000001 0 13.265 -5.9387405 13.265 -13.265V26.53c0 -7.3259942 -5.9387405 -13.265 -13.265 -13.265Z" stroke-width="14.29"></path><path id="Vector_2" stroke="#060644" stroke-linecap="round" stroke-linejoin="round" d="M159.18 13.265H26.53c-7.3259942 0 -13.265 5.9390058 -13.265 13.265v132.65c0 7.326259500000001 5.9390058 13.265 13.265 13.265h132.65c7.326259500000001 0 13.265 -5.9387405 13.265 -13.265V26.53c0 -7.3259942 -5.9387405 -13.265 -13.265 -13.265Z" stroke-width="14.29"></path><path id="Ellipse 1761" fill="#42657f" d="M59.6925 72.95750000000001a13.265 13.265 0 1 0 26.53 0 13.265 13.265 0 1 0 -26.53 0" stroke-width="14.29"></path><path id="Ellipse 1762" fill="#42657f" d="M92.855 132.65a13.265 13.265 0 1 0 26.53 0 13.265 13.265 0 1 0 -26.53 0" stroke-width="14.29"></path><path id="Ellipse 1763" stroke="#060644" stroke-linecap="round" stroke-linejoin="round" d="M59.6925 72.95750000000001a13.265 13.265 0 1 0 26.53 0 13.265 13.265 0 1 0 -26.53 0" stroke-width="14.29"></path><path id="Ellipse 1764" stroke="#060644" stroke-linecap="round" stroke-linejoin="round" d="M92.855 132.65a13.265 13.265 0 1 0 26.53 0 13.265 13.265 0 1 0 -26.53 0" stroke-width="14.29"></path><path id="Vector 3678" stroke="#060644" stroke-linecap="round" stroke-linejoin="round" d="M59.6925 172.445V126.01750000000001L13.265 79.59" stroke-width="14.29"></path><path id="Vector 3679" stroke="#060644" stroke-linecap="round" stroke-linejoin="round" d="M46.4275 13.265v33.1625l17.150185850000003 17.150185850000003" stroke-width="14.29"></path><path id="Vector 3680" stroke="#060644" stroke-linecap="round" stroke-linejoin="round" d="M132.65 13.265v59.6925l-26.53 26.53V119.385" stroke-width="14.29"></path><path id="Vector 3681" stroke="#060644" stroke-linecap="round" stroke-linejoin="round" d="m132.65 72.95750000000001 39.795 39.795" stroke-width="14.29"></path></g></svg>