<?xml version="1.0" encoding="UTF-8" standalone="no"?>
<!DOCTYPE svg PUBLIC "-//W3C//DTD SVG 1.0//EN" "http://www.w3.org/TR/2001/REC-SVG-20010904/DTD/svg10.dtd">
<svg xmlns="http://www.w3.org/2000/svg" version="1.0" viewBox="0.00 0.00 1451.00 1024.00">
<g stroke-width="2.00" fill="none" stroke-linecap="butt">
<path stroke="#743638" d="
  M 572.07 231.86
  Q 571.65 252.04 571.82 273.13
  Q 571.83 274.20 572.50 274.31"
/>
<path stroke="#743638" d="
  M 1348.95 165.37
  Q 1354.64 169.80 1358.33 176.90"
/>
<path stroke="#847991" d="
  M 1358.33 176.90
  Q 1361.80 186.72 1358.97 197.15
  A 0.69 0.69 0.0 0 0 1359.63 198.02
  L 1418.35 198.02
  A 1.55 1.55 0.0 0 0 1419.85 196.87
  Q 1426.40 172.70 1420.08 148.40
  Q 1413.15 121.83 1390.99 103.55
  C 1376.22 91.36 1357.19 84.85 1337.22 84.91
  Q 1328.68 84.93 1326.70 85.15
  Q 1294.17 88.62 1272.54 112.80
  Q 1258.16 128.88 1253.15 149.61
  Q 1250.53 160.48 1250.16 168.02
  Q 1249.43 183.10 1254.28 197.19
  A 1.26 1.26 0.0 0 0 1255.47 198.04
  L 1314.00 198.04
  A 0.54 0.53 80.0 0 0 1314.50 197.32
  C 1310.28 185.48 1314.25 170.99 1325.89 164.88
  Q 1337.38 158.85 1348.95 165.37"
/>
<path stroke="#efa77a" d="
  M 1358.33 176.90
  Q 1360.58 176.41 1361.56 175.30
  Q 1372.82 162.42 1385.08 150.33
  C 1387.50 147.95 1394.08 141.88 1389.62 137.93
  C 1387.42 135.98 1384.20 137.75 1382.24 139.25
  Q 1372.41 146.82 1361.83 153.82
  C 1355.35 158.11 1351.36 160.00 1348.95 165.37"
/>
<path stroke="#847991" d="
  M 1328.17 108.45
  C 1328.18 113.36 1328.95 120.75 1335.72 120.73
  C 1342.48 120.71 1343.21 113.31 1343.19 108.40
  C 1343.18 103.49 1342.41 96.09 1335.64 96.11
  C 1328.88 96.13 1328.15 103.54 1328.17 108.45"
/>
<path stroke="#847991" d="
  M 1304.13 129.14
  C 1304.52 125.00 1300.22 119.41 1297.75 116.41
  Q 1293.76 111.55 1288.27 113.51
  C 1283.93 115.06 1284.38 120.80 1286.68 123.76
  C 1288.58 126.20 1293.19 131.72 1296.59 132.61
  C 1299.31 133.33 1303.80 132.62 1304.13 129.14"
/>
<path stroke="#847991" d="
  M 1367.43 125.69
  C 1363.90 131.02 1369.72 134.56 1373.97 132.51
  Q 1378.96 130.10 1383.37 126.15
  C 1385.41 124.32 1388.58 120.14 1387.23 117.46
  C 1383.37 109.86 1375.57 112.82 1372.03 118.54
  Q 1370.21 121.48 1367.43 125.69"
/>
<path stroke="#847991" d="
  M 1283.8348 160.9583
  A 6.13 6.13 0.0 0 0 1280.3641 153.0142
  L 1269.1355 148.6138
  A 6.13 6.13 0.0 0 0 1261.1915 152.0845
  L 1260.9652 152.6617
  A 6.13 6.13 0.0 0 0 1264.4359 160.6058
  L 1275.6645 165.0062
  A 6.13 6.13 0.0 0 0 1283.6085 161.5355
  L 1283.8348 160.9583"
/>
<path stroke="#847991" d="
  M 1412.0052 152.4989
  A 6.35 6.35 0.0 0 0 1403.8796 148.6753
  L 1394.0945 152.1981
  A 6.35 6.35 0.0 0 0 1390.2709 160.3237
  L 1390.5148 161.0011
  A 6.35 6.35 0.0 0 0 1398.6404 164.8247
  L 1408.4255 161.3019
  A 6.35 6.35 0.0 0 0 1412.2491 153.1763
  L 1412.0052 152.4989"
/>
<path stroke="#2c4171" d="
  M 1101.8407 186.8802
  A 39.81 39.12 -12.8 0 0 1054.3530 157.5522
  A 39.81 39.12 -12.8 0 0 1024.1993 204.5198
  A 39.81 39.12 -12.8 0 0 1071.6870 233.8478
  A 39.81 39.12 -12.8 0 0 1101.8407 186.8802"
/>
<path stroke="#847991" d="
  M 1215.7477 320.0377
  A 39.50 38.72 -11.2 0 0 1169.4792 289.7274
  A 39.50 38.72 -11.2 0 0 1138.2523 335.3823
  A 39.50 38.72 -11.2 0 0 1184.5208 365.6926
  A 39.50 38.72 -11.2 0 0 1215.7477 320.0377"
/>
<path stroke="#847991" d="
  M 643.76 458.43
  Q 644.74 469.06 642.83 480.06
  Q 635.00 525.31 601.97 558.58
  C 598.09 562.49 593.41 561.30 590.19 557.63
  C 586.14 553.02 583.81 550.01 578.68 547.80
  Q 566.67 542.63 557.92 552.19
  C 549.59 561.29 550.71 576.58 555.50 587.14
  A 1.20 1.20 0.0 0 0 557.38 587.55
  C 563.50 582.22 570.67 576.78 577.87 574.13
  C 585.84 571.21 595.57 572.04 599.56 580.74
  C 604.47 591.47 598.86 601.17 591.55 608.81
  Q 584.24 616.47 581.15 619.32
  A 0.81 0.81 0.0 0 0 581.58 620.71
  C 587.74 621.65 592.77 622.66 596.37 628.33
  Q 600.70 635.14 599.92 643.15
  A 1.82 1.80 -73.7 0 0 600.88 644.92
  Q 611.88 650.70 612.32 663.48
  C 612.46 667.27 612.07 671.15 614.53 674.51
  C 616.98 677.86 619.72 682.08 622.76 685.29
  C 639.14 702.59 660.30 713.40 683.97 716.72
  C 699.34 718.88 714.94 718.63 730.49 714.74
  Q 753.06 709.10 770.68 694.41
  C 796.71 672.69 808.98 638.08 813.64 605.65
  C 819.73 563.37 814.72 520.73 794.15 483.46
  A 1.10 1.09 -21.8 0 0 792.90 482.93
  Q 777.53 487.06 761.00 487.29
  Q 744.38 487.53 735.50 486.78
  Q 717.57 485.26 698.78 479.96
  Q 670.02 471.86 644.00 458.27
  A 0.16 0.16 0.0 0 0 643.76 458.43"
/>
<path stroke="#847991" d="
  M 591.14 689.74
  Q 597.00 686.12 598.93 679.42
  C 601.02 672.15 602.56 663.31 597.94 657.32
  C 595.27 653.86 587.38 653.74 583.86 654.61
  Q 583.62 654.67 574.00 656.88
  C 567.12 658.46 563.71 650.85 569.49 646.99
  Q 571.58 645.59 575.51 644.95
  Q 585.29 643.36 587.39 643.56
  A 2.33 2.33 0.0 0 0 589.72 640.27
  L 588.68 638.02
  A 7.04 7.02 78.1 0 0 582.45 633.95
  Q 576.89 633.83 575.26 633.91
  C 571.46 634.09 568.28 634.97 564.48 635.03
  C 560.45 635.10 558.66 630.10 560.76 627.24
  Q 567.69 617.79 575.21 610.32
  Q 577.45 608.10 580.07 604.98
  C 583.60 600.78 592.84 590.85 588.48 585.09
  A 3.54 3.04 -23.5 0 0 585.03 584.03
  C 572.26 587.10 559.90 600.23 552.48 610.88
  C 535.40 635.37 525.69 665.12 521.16 695.14
  Q 520.71 698.14 518.72 714.54
  A 1.71 1.70 15.8 0 0 519.72 716.31
  L 554.91 732.11
  A 1.20 1.19 -56.5 0 0 556.29 731.82
  Q 564.03 723.38 571.11 716.37
  Q 573.93 713.58 574.66 710.68
  Q 577.00 701.47 580.30 680.28
  C 581.13 675.02 583.42 668.13 589.89 669.99
  A 3.21 2.78 -87.3 0 1 591.93 672.59
  Q 592.28 675.30 591.89 677.47
  Q 590.62 684.52 590.40 689.31
  A 0.49 0.48 -14.7 0 0 591.14 689.74"
/>
<path stroke="#847991" d="
  M 591.42 703.09
  C 597.36 701.67 604.43 699.72 609.11 695.96
  A 2.37 2.36 74.9 0 0 609.99 694.42
  L 610.73 689.12
  A 1.00 1.00 0.0 0 0 608.99 688.33
  C 603.89 694.22 600.40 697.00 592.36 699.38
  A 3.07 3.06 -0.9 0 0 590.26 701.54
  L 590.18 701.82
  A 1.03 1.03 0.0 0 0 591.42 703.09"
/>
<path stroke="#847991" d="
  M 620.03 701.64
  A 0.44 0.44 0.0 0 0 619.33 702.08
  Q 621.82 712.79 626.16 726.16
  Q 633.77 749.58 642.96 773.15
  A 0.89 0.89 0.0 0 0 644.47 773.40
  Q 655.24 760.41 663.96 751.56
  C 669.85 745.60 676.80 737.34 683.12 731.37
  Q 683.33 731.17 683.99 730.20
  A 0.49 0.49 0.0 0 0 683.67 729.44
  C 672.80 727.49 660.16 724.77 650.23 720.32
  Q 633.77 712.94 620.03 701.64"
/>
<path stroke="#847991" d="
  M 565.08 748.68
  A 1.13 1.13 0.0 0 0 564.44 747.28
  L 505.39 723.01
  A 1.13 1.13 0.0 0 0 503.99 723.49
  L 498.37 733.23
  A 1.13 1.13 0.0 0 0 498.88 734.82
  L 559.40 762.00
  A 1.13 1.13 0.0 0 0 560.94 761.32
  L 565.08 748.68"
/>
<path stroke="#847991" d="
  M 737.08 768.33
  L 743.17 724.86
  A 0.55 0.55 0.0 0 0 742.46 724.26
  Q 724.06 730.13 705.18 730.43
  A 0.36 0.35 -20.3 0 0 704.91 731.01
  L 736.55 768.48
  A 0.30 0.30 0.0 0 0 737.08 768.33"
/>
<path stroke="#743638" d="
  M 676.84 756.06
  Q 676.91 757.45 677.26 758.24
  Q 678.81 761.83 684.10 773.85
  C 684.72 775.28 685.30 776.93 687.03 777.00
  Q 692.96 777.24 701.01 778.12
  Q 704.01 778.45 704.67 775.48
  Q 706.17 768.70 708.85 756.20
  A 3.76 3.76 0.0 0 0 707.85 752.78
  Q 702.75 747.63 698.50 742.57
  Q 696.50 740.19 694.57 739.03
  A 2.21 2.20 -52.9 0 0 691.83 739.42
  L 677.25 754.94
  A 1.55 1.52 65.5 0 0 676.84 756.06"
/>
<path stroke="#847991" d="
  M 667.86 838.38
  A 0.68 0.68 0.0 0 0 668.70 837.75
  Q 668.80 834.30 669.19 831.45
  Q 672.79 804.66 676.44 785.98
  A 1.46 1.38 39.5 0 0 676.33 785.10
  L 668.20 767.20
  A 0.93 0.93 0.0 0 0 666.71 766.91
  L 648.18 784.63
  A 1.15 1.15 0.0 0 0 647.91 785.89
  Q 657.83 810.40 667.39 837.86
  Q 667.55 838.31 667.86 838.38"
/>
<path stroke="#743638" d="
  M 713.69 853.92
  Q 713.24 852.71 713.23 852.68
  A 1.76 1.76 0.0 0 1 712.92 851.75
  C 712.81 848.47 711.40 844.25 710.86 840.69
  Q 707.76 820.12 704.78 803.16
  C 704.25 800.18 703.23 796.38 702.50 792.48
  A 1.91 1.89 88.7 0 0 700.90 790.94
  L 687.76 789.10
  A 0.76 0.76 0.0 0 0 686.91 789.71
  C 685.04 799.28 684.58 808.97 683.24 818.67
  Q 680.66 837.45 679.03 854.85
  C 678.56 859.82 677.65 865.31 678.65 868.92
  Q 681.26 878.37 691.61 903.78
  C 692.69 906.43 693.27 908.91 694.49 911.23
  A 0.89 0.89 0.0 0 0 696.11 911.14
  Q 706.08 885.25 713.56 864.87
  C 714.90 861.22 714.99 859.12 713.89 855.65
  Q 713.72 855.10 713.74 854.86
  A 1.58 0.33 -81.2 0 0 713.69 853.92"
/>
<path stroke="#847991" d="
  M 683.20 499.68
  C 676.47 507.70 670.40 513.91 661.25 517.48
  Q 659.00 518.36 652.04 520.52
  C 648.00 521.78 645.44 523.65 645.98 527.93
  C 646.41 531.34 651.21 532.96 653.79 532.69
  Q 665.04 531.51 674.94 525.67
  C 682.03 521.49 693.89 512.91 694.92 505.75
  C 695.87 499.15 689.22 495.48 683.83 499.11
  A 3.31 3.07 -85.0 0 0 683.20 499.68"
/>
<path stroke="#847991" d="
  M 767.78 511.23
  C 765.54 509.47 762.41 509.40 760.87 511.96
  C 758.53 515.86 759.83 519.72 762.67 523.11
  C 769.44 531.19 779.91 537.07 790.06 538.86
  C 794.15 539.58 798.17 538.26 798.87 533.97
  C 799.33 531.15 797.29 528.55 794.79 527.66
  C 786.21 524.57 778.19 521.74 772.20 515.49
  Q 769.20 512.35 767.78 511.23"
/>
<path stroke="#847991" d="
  M 677.9892 582.7294
  A 15.95 12.44 89.5 0 0 690.2895 566.6714
  A 15.95 12.44 89.5 0 0 677.7108 550.8306
  A 15.95 12.44 89.5 0 0 665.4105 566.8886
  A 15.95 12.44 89.5 0 0 677.9892 582.7294"
/>
<path stroke="#847991" d="
  M 768.4900 581.7800
  A 15.50 11.82 90.0 0 0 780.3100 566.2800
  A 15.50 11.82 90.0 0 0 768.4900 550.7800
  A 15.50 11.82 90.0 0 0 756.6700 566.2800
  A 15.50 11.82 90.0 0 0 768.4900 581.7800"
/>
<path stroke="#847991" d="
  M 728.70 575.67
  C 723.89 579.46 727.74 584.92 731.29 588.11
  C 737.23 593.43 742.05 597.78 744.55 604.25
  C 745.81 607.51 744.69 612.79 740.61 613.65
  C 736.84 614.44 734.09 614.19 729.16 613.86
  A 2.85 2.83 -56.0 0 0 727.66 614.16
  Q 725.82 615.10 724.69 617.49
  C 722.99 621.09 726.24 623.60 729.42 624.42
  Q 734.58 625.75 741.28 624.78
  Q 748.22 623.76 753.56 617.40
  C 759.82 609.94 756.67 598.82 751.58 591.64
  C 748.15 586.78 736.63 573.69 730.00 575.07
  A 3.18 3.17 20.1 0 0 728.70 575.67"
/>
<path stroke="#847991" d="
  M 681.67 666.89
  Q 683.93 670.40 687.69 670.70
  A 3.40 3.39 27.8 0 0 690.06 669.97
  Q 692.87 667.75 697.81 664.08
  C 708.10 656.44 722.71 654.76 734.73 660.03
  C 739.45 662.10 742.12 665.44 745.42 669.15
  Q 747.89 671.94 751.80 670.47
  Q 756.10 668.84 755.05 663.67
  C 754.07 658.87 748.93 653.68 744.79 651.26
  Q 735.71 645.93 724.63 645.18
  C 708.64 644.09 695.06 647.58 683.81 659.48
  Q 680.91 662.55 681.29 665.82
  A 2.42 2.40 25.7 0 0 681.67 666.89"
/>
<path stroke="#2c4171" d="
  M 129.92 611.68
  L 250.41 611.68
  A 2.24 2.22 16.8 0 0 252.26 610.70
  C 255.21 606.34 259.91 599.19 264.91 594.76
  C 271.13 589.25 277.04 584.66 285.16 582.60
  A 1.83 1.82 -89.4 0 0 286.47 581.31
  L 300.94 527.16
  A 1.31 1.31 0.0 0 0 300.09 525.58
  Q 294.49 523.70 290.20 520.86
  C 284.07 516.80 279.20 508.13 277.45 501.32
  A 1.31 1.31 0.0 0 0 276.18 500.33
  L 161.12 500.33
  A 1.72 1.71 -78.2 0 0 159.55 501.36
  C 154.59 512.58 144.16 524.12 131.43 525.69
  A 1.57 1.55 6.0 0 0 130.15 526.71
  C 127.92 532.96 125.37 537.84 123.43 543.80
  C 119.33 556.40 115.53 569.90 112.14 580.73
  A 1.21 1.20 -73.7 0 0 112.97 582.25
  L 117.65 583.50
  A 5.10 4.96 69.2 0 1 119.28 584.26
  C 128.57 590.78 130.21 599.84 129.01 610.66
  A 0.92 0.92 0.0 0 0 129.92 611.68"
/>
<path stroke="#2c4171" d="
  M 380.34 554.18
  C 369.76 555.07 362.55 537.94 360.97 529.73
  A 0.99 0.99 0.0 0 0 360.00 528.92
  L 323.09 528.92
  A 1.50 1.49 -82.4 0 0 321.65 530.03
  L 318.50 541.81
  A 1.64 1.63 -70.9 0 0 319.42 543.72
  Q 321.07 544.45 322.20 545.77
  C 326.91 551.27 329.00 556.59 329.16 564.30
  Q 329.63 587.27 315.68 605.58
  C 313.45 608.50 309.71 611.70 307.50 613.85
  C 305.11 616.17 303.32 616.94 299.97 618.73
  A 3.77 3.74 -6.7 0 0 298.11 621.07
  L 294.18 635.80
  A 0.57 0.57 0.0 0 0 294.75 636.52
  Q 308.55 636.14 328.52 636.44
  Q 331.60 636.49 332.62 635.08
  C 339.11 626.07 344.78 618.01 354.27 614.50
  Q 356.25 613.77 362.67 612.26
  A 1.27 1.26 -79.0 0 0 363.43 611.74
  Q 364.66 609.92 365.48 607.23
  Q 372.71 583.54 376.19 572.49
  Q 379.50 561.93 381.15 555.12
  A 0.77 0.77 0.0 0 0 380.34 554.18"
/>
<path stroke="#2c4171" d="
  M 168.60 660.94
  A 1.02 1.01 7.6 0 0 169.58 662.22
  L 383.82 662.22
  A 2.04 2.04 0.0 0 0 385.81 660.63
  Q 387.49 653.19 388.99 648.48
  Q 399.86 614.45 410.34 580.15
  Q 412.59 572.82 413.39 569.65
  A 0.99 0.99 0.0 0 0 412.43 568.42
  L 400.63 568.42
  A 2.06 2.06 0.0 0 0 398.65 569.91
  Q 388.89 603.24 379.13 635.88
  C 377.62 640.95 375.79 649.15 372.12 649.32
  Q 364.62 649.64 340.21 649.45
  Q 315.46 649.25 308.29 649.33
  C 278.76 649.68 256.61 649.37 226.57 649.61
  Q 207.62 649.75 179.25 649.37
  Q 176.74 649.34 172.86 649.48
  A 1.63 1.63 0.0 0 0 171.34 650.69
  L 168.60 660.94"
/>
<path stroke="#2c4171" d="
  M 136.02 635.19
  A 1.06 1.06 0.0 0 0 137.04 636.52
  L 276.45 636.52
  A 1.06 1.06 0.0 0 0 277.47 635.73
  L 280.29 625.16
  A 1.06 1.06 0.0 0 0 279.27 623.83
  L 139.86 623.83
  A 1.06 1.06 0.0 0 0 138.84 624.62
  L 136.02 635.19"
/>
<path stroke="#2c4171" d="
  M 1089.99 584.48
  L 1115.57 584.47"
/>
<path stroke="#743638" d="
  M 1115.57 584.47
  Q 1136.84 584.78 1158.18 584.28
  Q 1161.13 584.21 1162.22 582.82
  Q 1167.77 575.73 1161.22 569.69
  A 1.75 1.68 71.8 0 0 1160.41 569.26
  C 1159.20 568.98 1157.15 568.65 1155.70 568.64
  Q 1126.41 568.43 1094.85 568.69
  C 1090.72 568.72 1087.77 569.14 1086.54 573.24
  C 1085.44 576.88 1085.76 582.67 1089.99 584.48"
/>
<path stroke="#986f5a" d="
  M 1115.57 584.47
  L 1089.99 584.48"
/>
<path stroke="#847991" d="
  M 1139.03 651.59
  A 0.92 0.92 0.0 0 1 1138.32 650.52
  C 1139.33 645.37 1139.37 635.39 1135.07 631.53
  C 1129.86 626.84 1122.29 628.69 1119.10 634.63
  C 1116.36 639.70 1116.88 645.68 1116.92 650.81
  A 1.43 1.43 0.0 0 1 1115.75 652.23
  Q 1100.91 654.98 1090.57 665.36
  C 1079.61 676.36 1076.09 692.36 1084.20 706.04
  C 1092.98 720.84 1114.60 726.51 1131.29 730.57
  Q 1136.25 731.78 1141.29 734.30
  C 1154.69 741.01 1151.59 757.45 1138.85 762.31
  C 1129.53 765.86 1118.94 765.24 1109.13 762.64
  Q 1102.84 760.98 1099.93 759.07
  C 1093.57 754.90 1088.68 750.83 1082.17 754.21
  C 1076.51 757.16 1074.34 764.08 1077.69 769.84
  C 1083.87 780.46 1101.61 786.31 1113.07 787.26
  A 0.95 0.94 -87.1 0 1 1113.94 788.23
  Q 1113.72 794.65 1114.90 801.13
  C 1116.02 807.30 1119.68 812.19 1126.59 812.03
  C 1138.96 811.75 1138.44 795.46 1138.07 787.13
  A 0.73 0.73 0.0 0 1 1138.66 786.39
  C 1154.80 783.32 1169.66 773.08 1174.41 756.84
  C 1177.51 746.21 1175.41 734.28 1168.36 725.87
  C 1155.40 710.41 1136.54 707.17 1117.58 702.20
  C 1113.88 701.23 1109.69 699.64 1107.40 697.60
  C 1101.86 692.65 1102.29 683.64 1107.62 678.69
  Q 1111.82 674.80 1118.77 674.11
  C 1131.09 672.88 1140.40 676.49 1152.37 681.27
  Q 1158.47 683.70 1163.19 679.46
  C 1172.65 670.97 1167.24 663.41 1158.32 658.69
  Q 1148.86 653.69 1139.03 651.59"
/>
<path stroke="#2c4171" d="
  M 187.58 602.57
  Q 200.33 604.25 210.49 599.86
  Q 220.73 595.43 229.71 586.68
  Q 238.36 578.25 243.63 565.57
  Q 245.61 560.80 247.85 550.53
  Q 251.10 535.56 243.54 523.22
  C 237.96 514.09 227.69 509.58 217.56 509.04
  C 209.43 508.61 203.19 509.23 196.24 513.48
  Q 188.57 518.16 182.89 523.63
  Q 181.53 524.94 175.14 533.62
  C 168.70 542.35 164.84 552.54 163.22 563.15
  Q 162.86 565.45 162.93 566.88
  C 163.07 570.22 162.76 573.21 163.29 576.29
  C 164.80 585.13 169.11 593.35 176.59 598.22
  Q 182.18 601.86 187.58 602.57"
/>
<path stroke="#2c4171" d="
  M 261.8666 567.5267
  A 13.95 7.99 112.3 0 0 274.5524 557.6519
  A 13.95 7.99 112.3 0 0 272.4534 541.7133
  A 13.95 7.99 112.3 0 0 259.7676 551.5881
  A 13.95 7.99 112.3 0 0 261.8666 567.5267"
/>
<path stroke="#2c4171" d="
  M 140.0623 567.2901
  A 13.53 7.66 112.5 0 0 152.3169 557.7214
  A 13.53 7.66 112.5 0 0 150.4177 542.2899
  A 13.53 7.66 112.5 0 0 138.1631 551.8586
  A 13.53 7.66 112.5 0 0 140.0623 567.2901"
/>
<path stroke="#743638" d="
  M 186.88 578.79
  L 191.59 580.93
  A 1.84 1.82 -69.0 0 1 192.57 583.15
  Q 191.73 585.77 191.85 588.81
  A 1.09 1.08 20.8 0 0 192.18 589.54
  L 194.22 591.58
  A 1.26 1.25 67.3 0 0 195.11 591.95
  L 199.44 591.95
  A 3.31 3.31 0.0 0 0 202.64 589.50
  L 204.03 584.28
  A 2.58 2.58 0.0 0 1 206.61 582.37
  Q 219.45 582.80 224.63 571.12
  Q 225.63 568.88 225.99 564.27
  Q 226.37 559.40 223.71 556.32
  C 219.54 551.46 213.16 550.25 208.36 548.29
  Q 202.43 545.86 205.35 539.87
  C 206.56 537.38 210.93 538.02 212.94 538.87
  Q 218.06 541.04 223.35 542.71
  Q 229.27 544.58 231.64 539.24
  C 233.18 535.79 230.82 534.02 227.99 533.24
  Q 225.60 532.58 223.42 531.48
  A 2.74 2.73 13.4 0 1 221.92 529.04
  L 221.92 523.16
  A 0.90 0.88 -59.8 0 0 221.81 522.73
  Q 220.08 519.67 217.54 519.09
  A 2.02 1.97 -45.8 0 0 216.52 519.12
  C 213.15 520.14 212.26 522.73 210.23 525.15
  A 2.62 2.57 76.1 0 0 209.78 525.91
  Q 209.05 527.88 207.61 528.37
  C 202.87 529.98 200.23 530.42 197.38 533.65
  Q 190.90 540.97 193.69 550.74
  A 0.35 0.23 34.1 0 0 193.73 550.84
  L 196.05 554.25
  A 2.25 2.04 5.3 0 0 196.49 554.73
  Q 202.32 559.37 210.39 561.84
  C 213.57 562.82 216.19 566.00 214.15 569.22
  Q 212.84 571.28 210.74 571.81
  Q 205.06 573.24 198.98 570.82
  Q 196.12 569.68 191.98 567.23
  A 2.27 2.17 -26.3 0 0 191.02 566.93
  Q 187.52 566.64 184.50 570.66
  Q 182.65 573.14 183.17 575.23
  A 2.11 2.09 12.8 0 0 183.88 576.34
  L 186.76 578.71
  A 0.41 0.34 -5.7 0 0 186.88 578.79"
/>
<path stroke="#2c4171" d="
  M 341.9813 598.1530
  A 14.68 8.11 112.8 0 0 355.1463 587.7628
  A 14.68 8.11 112.8 0 0 353.3587 571.0870
  A 14.68 8.11 112.8 0 0 340.1937 581.4772
  A 14.68 8.11 112.8 0 0 341.9813 598.1530"
/>
<path stroke="#2c4171" d="
  M 212.34 731.09
  A 0.83 0.83 0.0 0 0 211.65 730.05
  L 170.95 724.35
  A 0.47 0.45 -80.8 0 0 170.44 724.73
  L 167.48 742.13
  A 2.14 2.06 -43.9 0 0 167.46 742.63
  L 167.90 747.77
  A 2.76 2.75 6.2 0 0 169.83 750.16
  C 173.92 751.42 178.71 752.22 183.41 751.67
  C 195.24 750.27 208.91 743.55 212.34 731.09"
/>
<path stroke="#743638" d="
  M 168.13 847.98
  Q 168.27 848.00 174.44 851.91
  Q 183.82 857.87 191.66 862.31
  Q 200.30 867.21 205.79 869.18
  Q 218.07 873.58 231.12 876.87
  Q 232.67 877.26 243.79 879.16
  Q 249.50 880.14 256.24 880.35
  Q 266.64 880.66 268.77 880.70
  C 280.80 880.92 291.86 879.09 305.72 876.89
  C 317.48 875.03 330.53 870.92 339.95 863.76
  A 2.54 2.51 87.2 0 0 340.55 863.09
  Q 341.34 861.85 341.34 859.25
  Q 341.33 852.52 341.67 847.50
  A 0.52 0.52 0.0 0 0 340.96 846.99
  Q 330.43 851.28 321.26 852.27
  Q 316.04 852.83 304.11 852.90
  C 298.34 852.94 292.09 852.18 286.83 850.89
  Q 283.47 850.06 278.94 847.29
  A 2.19 2.10 89.9 0 1 278.18 846.50
  Q 275.15 841.06 280.96 838.38
  A 2.65 2.59 30.1 0 1 281.91 838.14
  Q 283.65 838.03 285.90 839.11
  Q 288.81 840.51 295.51 840.98
  Q 300.20 841.30 313.16 841.22
  C 323.34 841.15 331.90 839.49 339.95 836.19
  A 1.96 1.94 -11.3 0 0 341.16 834.39
  L 341.16 816.28
  A 0.41 0.41 0.0 0 0 340.66 815.88
  Q 335.19 817.05 329.91 817.99
  C 322.59 819.29 316.68 818.73 309.00 818.88
  Q 304.69 818.96 299.02 818.41
  Q 290.90 817.62 287.79 816.94
  Q 281.02 815.47 278.79 813.89
  Q 275.85 811.80 276.71 808.33
  Q 278.20 802.30 283.27 803.65
  Q 286.02 804.37 286.51 804.45
  Q 304.05 807.34 322.76 805.84
  C 326.26 805.56 338.76 803.56 340.39 800.37
  A 0.96 0.95 -30.6 0 0 340.49 799.99
  L 341.07 782.13
  A 0.52 0.52 0.0 0 0 340.41 781.61
  Q 327.17 785.39 313.09 783.13
  Q 303.71 781.63 301.29 780.89
  Q 280.13 774.43 270.00 754.47
  Q 268.95 752.41 268.77 751.99
  Q 267.01 747.98 266.83 745.25
  Q 266.58 741.48 266.15 738.87
  A 1.73 1.72 -0.7 0 0 264.67 737.43
  L 227.06 732.16
  A 1.03 1.02 -76.3 0 0 225.96 732.83
  C 222.55 742.37 216.61 750.74 207.57 755.82
  Q 201.33 759.31 194.48 761.26
  C 185.31 763.86 174.76 763.25 165.61 761.53
  A 0.59 0.59 0.0 0 0 164.91 762.09
  L 164.22 783.29
  A 1.37 1.37 0.0 0 0 165.39 784.69
  Q 170.85 785.47 174.50 785.99
  Q 175.96 786.20 183.50 786.45
  Q 187.67 786.59 192.48 787.29
  Q 196.62 787.89 197.10 791.96
  Q 197.60 796.16 194.71 797.67
  C 191.17 799.52 187.77 798.68 184.10 798.47
  Q 173.86 797.86 165.29 795.84
  A 0.95 0.94 6.8 0 0 164.12 796.75
  L 164.12 817.31
  A 1.59 1.59 0.0 0 0 165.42 818.87
  Q 173.40 820.36 181.74 821.20
  C 186.27 821.65 194.20 823.19 193.70 828.90
  Q 193.41 832.18 190.42 833.68
  Q 187.71 835.04 184.42 834.39
  Q 175.23 832.57 167.91 830.52
  C 166.83 830.22 166.37 829.80 165.35 829.54
  A 0.39 0.38 7.1 0 0 164.87 829.91
  L 164.87 845.51
  A 0.90 0.90 0.0 0 0 165.40 846.33
  Q 167.29 847.16 167.45 847.50
  A 0.82 0.82 0.0 0 0 168.13 847.98"
/>
<path stroke="#2c4171" d="
  M 278.08 740.45
  Q 279.67 750.43 286.25 757.87
  C 288.96 760.95 295.06 765.32 298.29 766.72
  Q 310.87 772.18 323.25 772.60
  Q 329.13 772.79 335.48 770.18
  C 342.29 767.37 343.05 758.12 341.22 752.06
  Q 340.40 749.31 338.78 748.48
  Q 335.47 746.77 330.34 746.22
  C 320.00 745.11 307.62 743.28 296.18 742.21
  Q 287.50 741.40 279.37 739.28
  A 1.04 1.04 0.0 0 0 278.08 740.45"
/>
<path stroke="#2c4171" d="
  M 144.78 796.86
  C 137.31 798.45 130.39 800.56 123.25 795.40
  C 112.26 787.44 111.71 776.13 117.74 764.25
  A 0.64 0.64 0.0 0 0 117.02 763.34
  L 67.59 775.12
  A 2.47 2.46 0.4 0 0 65.79 776.89
  C 64.71 781.00 66.44 782.43 69.98 784.59
  Q 89.24 796.37 96.09 801.18
  Q 109.56 810.62 123.26 818.85
  A 4.43 4.40 53.6 0 0 126.56 819.36
  L 144.26 815.14
  A 1.90 1.90 0.0 0 0 145.72 813.29
  L 145.72 797.63
  A 0.79 0.78 84.1 0 0 144.78 796.86"
/>
<path stroke="#2c4171" d="
  M 63.96 795.52
  L 63.96 806.72
  A 1.34 1.32 -74.1 0 0 64.58 807.85
  C 73.54 813.50 82.18 819.82 91.04 825.16
  Q 92.13 825.82 105.40 834.88
  Q 108.66 837.11 120.46 844.29
  C 121.82 845.12 123.83 846.53 125.30 846.11
  Q 135.34 843.28 146.61 840.82
  A 2.09 2.08 -8.3 0 0 148.24 838.64
  L 147.45 828.04
  A 0.93 0.93 0.0 0 0 146.30 827.20
  L 125.87 832.06
  A 5.25 5.25 0.0 0 1 121.76 831.34
  L 65.93 794.46
  A 1.27 1.27 0.0 0 0 63.96 795.52"
/>
<path stroke="#2c4171" d="
  M 65.44 821.05
  A 0.68 0.68 0.0 0 0 64.39 821.68
  L 65.24 833.26
  A 3.25 3.25 0.0 0 0 66.92 835.87
  Q 72.21 838.79 75.95 841.38
  C 83.32 846.51 91.11 851.02 98.76 856.17
  Q 103.31 859.22 121.58 871.17
  Q 124.17 872.87 127.64 871.67
  Q 138.02 868.09 148.27 865.87
  A 1.76 1.76 0.0 0 0 149.66 864.01
  L 148.84 852.94
  A 1.35 1.35 0.0 0 0 147.10 851.75
  Q 134.97 855.57 127.95 857.65
  C 125.79 858.29 124.11 858.06 122.23 857.00
  Q 116.43 853.73 110.70 850.03
  Q 91.09 837.39 65.44 821.05"
/>
<path stroke="#2c4171" d="
  M 66.46 847.18
  A 0.65 0.64 13.1 0 0 65.47 847.79
  Q 66.06 852.95 65.75 857.58
  C 65.62 859.46 66.29 860.70 67.80 861.46
  Q 71.09 863.09 75.58 865.93
  Q 103.87 883.80 125.53 897.10
  A 3.67 3.66 52.5 0 0 128.48 897.49
  L 161.45 887.72
  A 2.07 2.07 0.0 0 0 162.92 885.84
  Q 163.20 879.95 158.61 876.95
  Q 156.56 875.60 154.76 876.00
  Q 147.70 877.57 133.25 882.00
  C 128.06 883.59 124.01 884.60 119.11 881.41
  Q 83.98 858.55 66.46 847.18"
/>
<path stroke="#743638" d="
  M 234.58 848.38
  Q 239.96 848.30 245.23 846.88
  Q 253.99 844.53 258.09 837.02
  Q 263.08 827.89 259.20 819.28
  Q 257.72 815.98 254.43 812.74
  Q 251.03 809.38 247.90 807.85
  Q 243.68 805.79 233.23 801.45
  Q 229.02 799.71 226.91 797.60
  Q 223.74 794.41 225.81 789.90
  C 227.58 786.04 232.63 785.32 236.64 785.62
  Q 241.20 785.97 243.95 787.87
  Q 247.83 790.56 251.71 791.85
  Q 255.78 793.21 258.28 790.11
  Q 261.12 786.60 258.96 782.84
  C 256.44 778.45 250.98 775.84 246.35 774.71
  A 1.73 1.72 20.4 0 1 245.22 772.26
  Q 246.40 769.96 246.42 767.49
  C 246.48 760.15 238.03 757.66 233.91 763.46
  Q 232.17 765.91 231.95 770.64
  A 1.58 1.54 65.6 0 1 231.63 771.53
  Q 230.94 772.45 229.01 772.65
  Q 221.59 773.42 216.08 778.21
  C 214.16 779.88 213.04 781.77 211.43 784.01
  A 3.59 3.56 73.9 0 0 211.02 784.76
  Q 208.39 791.43 209.97 798.49
  C 211.54 805.47 219.95 811.80 225.65 813.85
  Q 229.37 815.19 237.49 818.24
  Q 242.38 820.07 244.82 823.83
  Q 246.84 826.95 244.93 831.24
  A 2.16 2.12 -7.1 0 1 244.28 832.06
  Q 240.64 834.77 236.76 835.08
  Q 227.47 835.84 218.51 832.46
  Q 217.20 831.97 212.05 829.85
  C 207.11 827.82 204.48 831.31 203.96 835.76
  A 2.64 2.63 41.3 0 0 204.02 836.67
  Q 204.88 840.12 208.48 842.30
  Q 212.41 844.68 213.79 844.63
  A 0.32 0.24 -26.6 0 1 213.90 844.65
  L 220.88 847.74
  A 0.80 0.80 0.0 0 1 221.32 848.72
  L 219.37 854.81
  A 0.54 0.47 -40.9 0 0 219.35 854.95
  Q 219.38 857.73 220.18 858.91
  C 222.98 862.99 229.22 864.25 232.62 859.88
  Q 236.41 855.02 234.02 849.21
  A 0.61 0.60 -11.2 0 1 234.58 848.38"
/>
</g>
<g>
<path fill="#08084f" d="
  M 1437.05 177.99
  C 1436.76 185.08 1434.25 212.08 1423.98 212.08
  Q 1341.33 212.06 1268.50 212.10
  Q 1258.28 212.10 1251.95 212.05
  Q 1247.48 212.02 1245.87 211.01
  C 1241.25 208.12 1239.16 200.46 1238.07 195.43
  C 1231.07 163.07 1239.36 130.96 1260.79 105.78
  Q 1263.71 102.36 1270.01 96.32
  C 1293.62 73.74 1329.97 66.07 1361.47 74.06
  Q 1399.99 83.83 1421.73 117.69
  C 1433.18 135.53 1437.91 156.85 1437.05 177.99
  Z
  M 1348.95 165.37
  Q 1354.64 169.80 1358.33 176.90
  Q 1361.80 186.72 1358.97 197.15
  A 0.69 0.69 0.0 0 0 1359.63 198.02
  L 1418.35 198.02
  A 1.55 1.55 0.0 0 0 1419.85 196.87
  Q 1426.40 172.70 1420.08 148.40
  Q 1413.15 121.83 1390.99 103.55
  C 1376.22 91.36 1357.19 84.85 1337.22 84.91
  Q 1328.68 84.93 1326.70 85.15
  Q 1294.17 88.62 1272.54 112.80
  Q 1258.16 128.88 1253.15 149.61
  Q 1250.53 160.48 1250.16 168.02
  Q 1249.43 183.10 1254.28 197.19
  A 1.26 1.26 0.0 0 0 1255.47 198.04
  L 1314.00 198.04
  A 0.54 0.53 80.0 0 0 1314.50 197.32
  C 1310.28 185.48 1314.25 170.99 1325.89 164.88
  Q 1337.38 158.85 1348.95 165.37
  Z"
/>
<path fill="#08084f" d="
  M 572.07 231.86
  Q 571.65 252.04 571.82 273.13
  Q 571.83 274.20 572.50 274.31
  Q 572.00 276.19 572.01 277.25
  Q 572.13 306.57 571.99 347.00
  Q 571.99 347.73 572.41 348.23
  A 0.51 0.50 48.0 0 0 573.15 348.27
  Q 574.49 346.99 575.84 345.58
  Q 606.09 313.84 630.49 289.25
  Q 631.86 287.87 636.58 283.59
  Q 640.18 280.32 644.52 280.88
  Q 647.83 281.31 651.77 283.72
  Q 653.65 284.87 660.88 289.12
  Q 664.43 291.21 693.35 309.65
  Q 699.96 313.86 707.92 318.02
  A 1.97 1.97 0.0 0 0 710.25 317.63
  Q 711.77 316.01 714.49 312.75
  Q 723.90 301.52 733.68 290.74
  C 740.77 282.93 747.14 274.82 754.81 267.79
  C 760.79 262.31 765.98 265.67 770.91 270.52
  Q 781.97 281.38 798.36 296.63
  A 1.41 1.41 0.0 0 0 800.43 296.47
  Q 833.48 254.70 839.82 246.82
  C 844.39 241.11 849.18 235.31 856.42 242.04
  Q 877.62 261.74 900.47 284.53
  Q 902.90 286.95 905.17 288.87
  A 1.30 1.30 0.0 0 0 906.92 288.81
  Q 909.43 286.36 914.24 281.25
  C 915.88 279.50 918.79 276.71 921.49 277.14
  C 925.68 277.80 927.53 281.15 928.22 285.05
  Q 932.30 308.28 936.69 329.85
  C 937.58 334.24 937.51 339.36 931.50 339.22
  Q 928.22 339.15 917.85 337.54
  Q 912.12 336.65 883.15 331.61
  C 878.09 330.73 875.28 326.36 878.31 321.73
  Q 880.92 317.74 886.64 309.98
  A 1.87 1.86 40.9 0 0 886.46 307.56
  L 853.39 274.50
  A 1.47 1.46 -38.6 0 0 851.56 274.30
  Q 849.67 275.51 848.15 277.40
  Q 828.98 301.17 809.85 325.60
  C 802.57 334.91 797.00 331.12 789.89 324.35
  Q 773.02 308.25 765.68 301.56
  Q 764.20 300.21 762.42 298.90
  A 1.01 1.01 0.0 0 0 761.49 298.77
  Q 759.93 299.35 758.50 301.01
  Q 742.15 320.03 726.67 338.67
  Q 723.56 342.43 719.97 346.20
  C 715.78 350.61 710.75 349.27 705.95 346.30
  Q 672.73 325.82 649.01 310.24
  Q 648.56 309.95 646.45 308.32
  A 1.18 1.18 0.0 0 0 645.08 308.28
  Q 643.06 309.65 641.39 311.39
  Q 621.01 332.55 601.83 352.08
  Q 597.78 356.19 592.39 360.83
  A 0.58 0.57 24.5 0 0 592.77 361.84
  Q 745.82 361.80 924.46 361.82
  C 930.72 361.82 935.19 362.17 934.98 369.27
  C 934.82 374.60 930.49 376.69 925.76 377.04
  Q 922.42 377.29 910.25 377.29
  Q 732.76 377.38 573.25 377.29
  C 561.78 377.28 555.68 375.90 555.69 363.03
  Q 555.73 139.94 555.64 102.31
  C 555.63 98.01 555.69 93.81 557.08 90.13
  C 558.38 86.66 562.84 85.49 566.20 86.73
  Q 571.88 88.82 571.91 95.76
  Q 572.08 132.87 571.88 225.25
  Q 571.88 228.24 572.07 231.86
  Z"
/>
<path fill="#08084f" d="
  M 190.93 217.18
  A 0.37 0.36 -0.0 0 0 190.56 216.82
  Q 147.12 216.81 146.78 216.81
  Q 137.06 217.03 133.96 215.22
  Q 128.31 211.93 128.24 203.70
  Q 128.12 188.38 128.22 158.88
  C 128.25 152.26 128.34 146.31 135.18 143.04
  Q 136.67 142.33 141.08 142.35
  Q 194.59 142.69 204.75 142.92
  C 208.78 143.01 214.34 144.35 215.63 148.60
  C 217.08 153.32 217.29 161.59 211.84 163.67
  Q 210.49 164.19 202.60 164.15
  Q 191.90 164.11 153.86 164.09
  A 1.84 1.84 0.0 0 0 152.02 165.93
  L 152.02 193.39
  A 0.73 0.72 90.0 0 0 152.74 194.12
  Q 179.59 194.05 205.02 194.15
  C 213.87 194.18 214.95 199.80 214.60 207.56
  Q 214.40 211.91 214.50 219.00
  Q 214.78 238.72 214.51 247.24
  A 0.91 0.90 0.9 0 0 215.42 248.17
  L 238.54 248.17
  A 1.39 1.39 0.0 0 0 239.93 246.76
  Q 239.85 242.46 239.96 200.47
  Q 239.98 195.62 241.27 193.88
  C 245.99 187.52 260.26 188.60 261.02 197.81
  Q 261.11 198.84 261.35 199.41
  A 0.89 0.87 -10.8 0 0 262.17 199.96
  L 292.17 199.96
  A 0.87 0.86 -0.0 0 0 293.04 199.10
  Q 293.04 198.30 292.95 153.46
  Q 292.93 143.87 301.23 142.21
  A 6.40 5.69 -42.8 0 1 302.09 142.11
  Q 308.44 141.83 356.17 142.33
  C 365.29 142.43 366.29 148.61 366.14 156.55
  Q 366.13 156.95 366.21 184.63
  C 366.24 194.86 360.24 196.28 351.49 195.90
  Q 342.26 195.49 342.16 186.12
  Q 342.04 174.36 342.26 165.27
  A 1.22 1.22 0.0 0 0 341.04 164.02
  L 317.19 164.02
  A 0.97 0.96 -0.3 0 0 316.22 164.99
  Q 316.34 198.55 316.42 208.54
  C 316.48 215.16 316.06 219.26 310.63 222.05
  Q 308.87 222.95 304.49 222.94
  Q 276.10 222.92 262.02 222.87
  A 1.10 1.10 0.0 0 0 260.92 223.97
  L 260.92 247.65
  A 0.70 0.69 -89.6 0 0 261.60 248.35
  Q 281.96 248.67 286.26 248.54
  Q 293.70 248.33 296.53 249.77
  C 303.79 253.49 303.20 259.54 303.26 268.27
  Q 303.50 301.74 303.04 335.73
  A 0.62 0.61 89.1 0 0 303.67 336.35
  Q 308.45 336.27 349.68 336.05
  Q 356.30 336.01 358.69 337.45
  Q 363.27 340.20 363.35 347.26
  Q 363.66 372.65 363.43 399.94
  A 0.95 0.95 0.0 0 0 364.38 400.90
  L 393.26 400.90
  A 0.83 0.82 -90.0 0 0 394.08 400.07
  L 394.08 114.84
  A 0.87 0.87 0.0 0 0 393.22 113.97
  Q 376.72 113.83 374.68 113.87
  Q 368.35 113.99 356.86 113.39
  Q 350.18 113.04 339.00 113.02
  Q 296.06 112.96 263.66 113.00
  A 0.91 0.91 0.0 0 0 262.75 113.93
  Q 262.97 124.19 262.92 160.36
  Q 262.91 168.55 256.19 170.90
  Q 254.36 171.53 248.54 170.64
  C 241.87 169.62 241.17 163.64 239.90 157.65
  A 2.23 2.20 44.7 0 1 239.89 156.79
  L 240.52 153.14
  A 3.59 3.56 -48.2 0 0 240.44 151.60
  Q 239.87 149.56 240.31 146.98
  C 240.95 143.24 240.68 138.79 240.31 135.30
  C 239.58 128.33 239.98 121.21 241.00 114.31
  A 1.01 1.00 6.7 0 0 240.09 113.16
  Q 238.11 112.99 235.26 112.99
  C 192.77 112.97 168.75 112.67 147.82 113.49
  C 132.00 114.10 114.23 113.90 100.70 113.87
  A 0.87 0.86 0.0 0 0 99.83 114.73
  L 99.83 246.69
  A 0.73 0.73 0.0 0 0 100.56 247.42
  Q 141.49 247.32 154.23 247.25
  C 159.31 247.22 162.75 251.01 163.70 255.98
  C 164.67 260.99 162.14 270.81 155.31 270.84
  Q 124.07 270.95 100.65 270.75
  A 0.83 0.82 -89.7 0 0 99.82 271.58
  L 99.82 327.96
  A 1.14 1.14 0.0 0 0 100.97 329.10
  Q 118.80 328.92 126.72 329.11
  C 138.12 329.38 139.19 347.86 129.94 351.67
  Q 127.68 352.60 122.25 352.57
  Q 112.74 352.53 100.64 352.73
  A 0.86 0.85 -0.7 0 0 99.80 353.58
  L 99.80 400.08
  A 0.89 0.88 -0.0 0 0 100.69 400.96
  Q 150.59 400.87 159.25 400.96
  Q 165.86 401.04 168.65 407.41
  Q 169.45 409.24 169.15 414.77
  Q 168.58 425.13 158.26 425.24
  Q 145.17 425.39 93.50 425.26
  C 90.17 425.25 86.07 425.12 83.15 423.29
  C 77.03 419.43 76.41 414.34 76.42 406.80
  Q 76.48 287.69 76.43 106.75
  Q 76.43 93.09 89.22 89.29
  A 3.65 3.56 -52.9 0 1 90.28 89.13
  Q 215.01 89.07 398.67 89.08
  Q 403.85 89.08 406.26 89.94
  C 411.87 91.95 416.51 96.40 416.51 102.76
  C 416.54 271.90 416.45 369.95 416.75 410.19
  Q 416.83 420.74 406.99 424.47
  Q 404.96 425.24 398.25 425.26
  Q 361.79 425.36 211.25 425.30
  C 205.20 425.30 200.26 424.40 198.71 417.57
  C 197.02 410.14 199.64 401.32 208.52 401.02
  Q 215.87 400.77 231.88 400.88
  A 1.14 1.13 0.0 0 0 233.02 399.75
  Q 232.98 348.27 232.95 308.75
  C 232.95 302.57 236.12 298.76 242.26 298.50
  C 248.40 298.24 253.59 300.38 254.50 306.99
  Q 254.72 308.61 254.73 314.75
  Q 254.79 359.22 254.64 399.86
  A 1.05 1.05 0.0 0 0 255.69 400.91
  L 341.25 400.91
  A 1.24 1.23 -0.0 0 0 342.49 399.68
  L 342.49 358.15
  A 1.06 1.06 0.0 0 0 341.44 357.09
  Q 325.54 356.91 290.75 357.10
  Q 287.61 357.12 285.83 356.51
  C 281.78 355.14 279.28 349.72 279.29 345.99
  Q 279.33 316.98 279.40 271.49
  A 0.67 0.67 0.0 0 0 278.73 270.82
  Q 242.79 270.90 200.76 270.85
  C 198.40 270.85 195.57 269.41 193.91 267.56
  Q 190.95 264.29 190.97 258.00
  Q 191.03 224.21 190.93 217.18
  Z"
/>
<path fill="#df6321" d="
  M 572.50 274.31
  Q 571.83 274.20 571.82 273.13
  Q 571.65 252.04 572.07 231.86
  Q 600.97 202.49 629.33 173.33
  C 635.81 166.68 639.35 169.86 644.75 175.12
  Q 647.45 177.75 662.29 192.83
  A 1.18 1.18 0.0 0 0 663.97 192.83
  Q 704.13 152.16 715.71 140.46
  Q 725.65 130.41 728.91 127.66
  C 733.07 124.15 737.05 126.71 739.79 130.56
  Q 771.01 174.39 794.53 206.05
  A 0.52 0.52 0.0 0 0 795.33 206.10
  Q 827.83 173.11 862.20 141.49
  A 1.16 1.15 -41.1 0 0 862.31 139.91
  Q 855.62 131.83 847.09 123.59
  C 839.26 116.01 847.14 112.80 853.96 111.63
  Q 915.22 101.16 928.58 99.18
  Q 932.55 98.59 936.39 99.06
  A 3.94 3.94 0.0 0 1 939.62 101.62
  Q 940.58 104.23 939.38 107.35
  Q 928.29 136.10 913.55 176.05
  C 912.31 179.41 910.29 183.88 906.85 185.49
  C 901.49 188.02 898.82 183.70 895.33 179.66
  Q 890.86 174.49 885.62 167.90
  A 0.77 0.76 -39.2 0 0 884.52 167.79
  Q 877.59 173.68 865.90 184.40
  Q 821.47 225.15 798.92 246.40
  C 793.18 251.80 788.32 249.00 784.42 243.24
  C 769.64 221.44 754.32 199.96 739.10 178.16
  Q 735.99 173.71 731.51 168.73
  Q 729.91 166.96 728.00 168.75
  C 719.53 176.69 712.88 184.30 704.60 192.68
  Q 671.09 226.62 666.02 231.52
  C 663.43 234.01 658.51 235.84 655.63 232.87
  Q 654.78 231.99 636.38 212.19
  A 0.60 0.59 46.3 0 0 635.52 212.17
  L 572.50 274.31
  Z"
/>
<path fill="#08084f" d="
  M 1114.46 162.92
  Q 1115.68 164.17 1120.26 164.57
  C 1130.37 165.47 1141.56 164.77 1142.21 178.47
  C 1142.45 183.42 1140.36 186.70 1135.93 189.65
  C 1129.46 193.94 1119.48 199.79 1126.58 208.27
  C 1128.72 210.83 1133.27 213.25 1135.61 215.38
  Q 1141.18 220.44 1139.30 227.71
  Q 1136.97 236.69 1128.05 236.95
  Q 1123.73 237.08 1117.12 237.10
  C 1111.23 237.12 1107.18 237.56 1105.33 243.34
  C 1104.23 246.76 1106.05 251.05 1106.61 254.14
  Q 1107.13 257.01 1107.02 260.78
  C 1106.74 270.51 1096.95 273.63 1088.76 271.42
  C 1086.40 270.78 1084.71 269.46 1083.10 267.38
  Q 1078.02 260.77 1077.07 259.70
  C 1074.61 256.91 1072.18 256.48 1068.21 257.19
  Q 1062.43 258.22 1056.53 258.05
  C 1052.24 257.93 1049.35 258.85 1046.63 261.63
  C 1041.27 267.11 1038.46 272.22 1029.51 272.14
  C 1021.23 272.06 1018.18 268.10 1016.56 260.65
  C 1015.71 256.72 1017.69 251.99 1019.14 247.19
  Q 1020.15 243.85 1018.10 241.44
  C 1014.43 237.11 1011.45 236.46 1005.48 236.89
  C 995.91 237.58 986.50 239.66 984.06 227.42
  Q 982.81 221.12 986.99 216.49
  Q 990.03 213.13 994.98 209.52
  Q 997.40 207.76 998.95 204.48
  A 2.92 2.91 -34.7 0 0 999.22 203.01
  C 998.58 194.90 993.06 191.66 986.20 188.08
  C 980.27 184.99 979.33 176.74 982.42 171.13
  C 985.05 166.33 988.17 165.27 993.95 164.95
  C 998.18 164.72 1006.97 164.63 1009.47 160.98
  Q 1011.88 157.45 1010.79 154.19
  C 1008.26 146.70 1006.60 143.22 1006.94 136.74
  C 1007.38 128.45 1017.29 126.00 1023.29 129.50
  C 1028.13 132.33 1033.28 136.38 1039.02 135.03
  C 1043.97 133.86 1047.29 131.89 1048.66 126.87
  C 1050.40 120.49 1051.50 113.72 1058.26 111.88
  C 1067.35 109.42 1071.97 114.42 1074.14 122.34
  C 1074.99 125.42 1075.95 130.61 1079.25 132.51
  Q 1084.62 135.60 1090.44 133.89
  C 1093.88 132.88 1096.96 129.92 1099.68 128.70
  Q 1109.07 124.49 1115.85 130.39
  C 1119.58 133.63 1119.18 137.75 1117.18 142.38
  Q 1116.03 145.05 1112.91 152.15
  Q 1110.13 158.47 1114.46 162.92
  Z
  M 1101.8407 186.8802
  A 39.81 39.12 -12.8 0 0 1054.3530 157.5522
  A 39.81 39.12 -12.8 0 0 1024.1993 204.5198
  A 39.81 39.12 -12.8 0 0 1071.6870 233.8478
  A 39.81 39.12 -12.8 0 0 1101.8407 186.8802
  Z"
/>
<path fill="#df6321" d="
  M 359.34 227.90
  C 361.55 228.99 363.40 229.41 365.84 230.41
  Q 370.52 232.33 373.03 233.90
  C 376.78 236.26 374.89 243.25 372.89 246.03
  C 370.72 249.06 365.19 248.16 362.27 247.06
  Q 357.33 245.20 351.65 243.88
  C 347.52 242.92 344.40 243.79 342.62 247.65
  C 338.92 255.63 355.88 258.74 360.66 260.07
  C 373.62 263.67 380.73 272.11 378.75 286.25
  C 377.30 296.65 369.41 302.55 359.13 306.63
  A 1.11 1.09 88.5 0 0 358.49 307.32
  C 357.70 309.80 358.53 312.95 356.65 315.86
  C 353.83 320.21 344.76 318.14 343.98 312.99
  Q 343.71 311.17 343.78 307.52
  A 1.30 1.30 0.0 0 0 342.59 306.19
  C 335.64 305.57 328.38 304.10 324.92 297.39
  C 322.40 292.53 325.59 287.19 330.23 285.37
  Q 331.83 284.74 334.03 285.87
  Q 342.66 290.31 349.05 290.80
  Q 354.34 291.20 359.41 288.18
  C 363.99 285.46 363.67 280.49 359.33 277.67
  C 354.60 274.59 346.63 272.94 341.00 271.03
  Q 336.54 269.52 331.92 264.71
  Q 323.33 255.77 326.88 243.64
  C 329.15 235.84 334.37 230.76 342.13 228.51
  A 2.17 2.17 0.0 0 0 343.60 225.77
  Q 342.09 220.93 345.89 217.37
  Q 348.36 215.06 351.57 215.01
  C 357.63 214.92 359.98 221.22 358.63 226.34
  A 1.36 1.36 0.0 0 0 359.34 227.90
  Z"
/>
<path fill="#08084f" d="
  M 1228.46 294.92
  Q 1229.68 296.17 1234.26 296.57
  C 1244.37 297.47 1255.56 296.77 1256.21 310.47
  C 1256.45 315.42 1254.36 318.70 1249.93 321.65
  C 1243.46 325.94 1233.48 331.79 1240.58 340.27
  C 1242.72 342.83 1247.27 345.25 1249.61 347.38
  Q 1255.18 352.44 1253.30 359.71
  Q 1250.97 368.69 1242.05 368.95
  Q 1237.73 369.08 1231.12 369.10
  C 1225.23 369.12 1221.18 369.56 1219.33 375.34
  C 1218.23 378.76 1220.05 383.05 1220.61 386.14
  Q 1221.13 389.01 1221.02 392.78
  C 1220.74 402.51 1210.95 405.63 1202.76 403.42
  C 1200.40 402.78 1198.71 401.46 1197.10 399.38
  Q 1192.02 392.77 1191.07 391.70
  C 1188.61 388.91 1186.18 388.48 1182.21 389.19
  Q 1176.43 390.22 1170.53 390.05
  C 1166.24 389.93 1163.35 390.85 1160.63 393.63
  C 1155.27 399.11 1152.46 404.22 1143.51 404.14
  C 1135.23 404.06 1132.18 400.10 1130.56 392.65
  C 1129.71 388.72 1131.69 383.99 1133.14 379.19
  Q 1134.15 375.85 1132.10 373.44
  C 1128.43 369.11 1125.45 368.46 1119.48 368.89
  C 1109.91 369.58 1100.50 371.66 1098.06 359.42
  Q 1096.81 353.12 1100.99 348.49
  Q 1104.03 345.13 1108.98 341.52
  Q 1111.40 339.76 1112.95 336.48
  A 2.92 2.91 -34.7 0 0 1113.22 335.01
  C 1112.58 326.90 1107.06 323.66 1100.20 320.08
  C 1094.27 316.99 1093.33 308.74 1096.42 303.13
  C 1099.05 298.33 1102.17 297.27 1107.95 296.95
  C 1112.18 296.72 1120.97 296.63 1123.47 292.98
  Q 1125.88 289.45 1124.79 286.19
  C 1122.26 278.70 1120.60 275.22 1120.94 268.74
  C 1121.38 260.45 1131.29 258.00 1137.29 261.50
  C 1142.13 264.33 1147.28 268.38 1153.02 267.03
  C 1157.97 265.86 1161.29 263.89 1162.66 258.87
  C 1164.40 252.49 1165.50 245.72 1172.26 243.88
  C 1181.35 241.42 1185.97 246.42 1188.14 254.34
  C 1188.99 257.42 1189.95 262.61 1193.25 264.51
  Q 1198.62 267.60 1204.44 265.89
  C 1207.88 264.88 1210.96 261.92 1213.68 260.70
  Q 1223.07 256.49 1229.85 262.39
  C 1233.58 265.63 1233.18 269.75 1231.18 274.38
  Q 1230.03 277.05 1226.91 284.15
  Q 1224.13 290.47 1228.46 294.92
  Z
  M 1215.7477 320.0377
  A 39.50 38.72 -11.2 0 0 1169.4792 289.7274
  A 39.50 38.72 -11.2 0 0 1138.2523 335.3823
  A 39.50 38.72 -11.2 0 0 1184.5208 365.6926
  A 39.50 38.72 -11.2 0 0 1215.7477 320.0377
  Z"
/>
<path fill="#df6321" d="
  M 176.57 300.29
  A 0.97 0.96 79.0 0 0 177.29 299.22
  Q 177.21 298.62 177.04 296.06
  C 176.65 290.27 180.91 287.12 186.52 288.27
  Q 190.27 289.03 192.36 293.72
  A 3.07 3.01 30.4 0 1 192.62 294.68
  L 193.04 299.07
  A 1.27 1.27 0.0 0 0 194.05 300.19
  C 198.89 301.18 200.57 301.47 204.07 303.35
  C 211.66 307.44 207.78 321.28 198.24 318.74
  C 192.15 317.11 177.28 310.14 173.89 321.11
  C 172.95 324.15 177.37 326.84 179.87 327.21
  Q 189.85 328.71 197.94 331.82
  Q 210.36 336.59 212.56 348.87
  C 214.99 362.46 205.28 373.40 193.12 377.22
  A 0.97 0.97 0.0 0 0 192.44 378.06
  C 192.17 380.65 192.87 384.10 191.50 386.16
  C 188.49 390.64 181.93 391.59 178.41 386.89
  C 177.14 385.20 177.25 382.18 176.88 380.13
  A 1.91 1.91 0.0 0 0 175.36 378.59
  Q 169.85 377.55 164.15 375.42
  C 159.12 373.54 154.89 370.37 156.13 364.31
  C 156.99 360.12 160.70 355.81 165.46 357.55
  C 174.16 360.74 184.95 365.23 193.41 359.72
  C 199.04 356.06 196.51 349.01 190.78 346.96
  Q 185.41 345.03 176.17 343.11
  C 159.09 339.54 153.15 322.41 163.13 308.66
  Q 167.57 302.54 176.57 300.29
  Z"
/>
<path fill="#08084f" d="
  M 534.71 901.27
  A 0.91 0.91 0.0 0 0 533.20 901.13
  Q 528.52 906.97 522.87 911.54
  C 502.75 927.82 475.48 933.43 452.05 920.27
  C 432.96 909.55 426.68 887.82 428.80 867.25
  C 430.73 848.47 436.90 832.12 445.08 814.11
  Q 453.35 795.86 460.57 781.81
  Q 472.10 759.35 493.20 718.71
  Q 495.54 714.19 496.75 712.25
  C 498.81 708.92 502.14 709.16 505.68 709.01
  A 1.64 1.64 0.0 0 0 507.25 707.48
  C 509.34 676.73 518.14 645.70 532.79 618.52
  Q 538.59 607.75 545.56 598.81
  A 1.27 1.27 0.0 0 0 545.54 597.21
  Q 543.90 595.24 542.90 592.60
  Q 537.13 577.34 539.06 562.54
  C 540.82 549.09 549.71 536.67 563.35 532.99
  A 1.37 1.37 0.0 0 0 564.33 531.38
  Q 562.61 523.35 562.45 515.27
  C 562.09 497.38 564.96 478.46 572.51 461.87
  C 580.66 443.97 594.79 430.23 614.48 427.81
  A 4.46 4.44 -72.4 0 0 617.26 426.36
  Q 622.06 421.05 628.39 416.67
  C 637.24 410.56 646.30 405.02 656.93 401.93
  C 679.20 395.44 701.09 396.30 724.22 401.03
  Q 740.41 404.35 755.89 408.93
  C 771.05 413.41 786.68 417.40 801.83 420.54
  Q 807.58 421.74 814.27 423.73
  C 821.16 425.77 826.13 429.06 825.97 436.79
  Q 825.82 444.93 818.71 448.91
  A 1.56 1.56 0.0 0 0 818.23 451.21
  Q 826.96 462.68 831.06 476.47
  Q 832.10 479.99 833.16 488.29
  C 834.49 498.64 834.56 507.29 829.97 516.26
  Q 826.73 522.57 826.19 524.14
  Q 824.42 529.29 825.03 537.00
  C 825.81 547.04 827.35 556.50 827.29 565.89
  C 827.24 573.07 827.06 580.50 827.69 587.92
  Q 827.96 591.20 827.99 596.23
  Q 828.03 601.76 826.72 607.15
  C 825.78 611.00 825.19 616.36 824.00 621.61
  C 819.69 640.55 813.02 659.29 803.78 674.32
  C 794.80 688.91 782.41 703.22 767.71 711.59
  A 0.88 0.88 0.0 0 0 767.75 713.15
  Q 776.22 717.31 784.20 721.65
  C 792.72 726.28 802.53 733.79 809.31 741.00
  Q 819.69 752.03 827.57 765.39
  Q 834.26 776.73 839.13 793.86
  C 843.90 810.68 846.17 826.60 848.44 845.36
  Q 849.95 857.92 850.63 866.72
  Q 853.08 898.70 854.10 935.75
  Q 854.22 940.01 853.53 944.04
  Q 852.67 949.01 847.27 949.06
  Q 832.73 949.20 818.08 949.13
  Q 815.46 949.12 814.55 948.87
  A 0.94 0.94 0.0 0 1 813.88 948.16
  Q 813.66 947.10 813.64 944.74
  Q 813.05 863.85 812.76 849.76
  Q 812.63 843.00 811.61 835.27
  A 0.85 0.84 -26.3 0 0 810.17 834.79
  L 809.73 835.23
  A 2.68 2.66 67.7 0 0 808.95 837.12
  L 808.95 947.40
  A 1.66 1.66 0.0 0 1 807.82 948.97
  Q 807.24 949.16 806.53 949.16
  Q 805.19 949.14 542.80 949.16
  Q 539.45 949.16 536.85 948.32
  A 3.45 3.43 2.1 0 1 534.57 945.88
  Q 533.85 943.00 533.82 939.77
  Q 533.76 930.13 534.12 922.78
  Q 535.07 903.62 535.02 902.53
  Q 534.99 901.80 534.71 901.27
  Z
  M 643.76 458.43
  Q 644.74 469.06 642.83 480.06
  Q 635.00 525.31 601.97 558.58
  C 598.09 562.49 593.41 561.30 590.19 557.63
  C 586.14 553.02 583.81 550.01 578.68 547.80
  Q 566.67 542.63 557.92 552.19
  C 549.59 561.29 550.71 576.58 555.50 587.14
  A 1.20 1.20 0.0 0 0 557.38 587.55
  C 563.50 582.22 570.67 576.78 577.87 574.13
  C 585.84 571.21 595.57 572.04 599.56 580.74
  C 604.47 591.47 598.86 601.17 591.55 608.81
  Q 584.24 616.47 581.15 619.32
  A 0.81 0.81 0.0 0 0 581.58 620.71
  C 587.74 621.65 592.77 622.66 596.37 628.33
  Q 600.70 635.14 599.92 643.15
  A 1.82 1.80 -73.7 0 0 600.88 644.92
  Q 611.88 650.70 612.32 663.48
  C 612.46 667.27 612.07 671.15 614.53 674.51
  C 616.98 677.86 619.72 682.08 622.76 685.29
  C 639.14 702.59 660.30 713.40 683.97 716.72
  C 699.34 718.88 714.94 718.63 730.49 714.74
  Q 753.06 709.10 770.68 694.41
  C 796.71 672.69 808.98 638.08 813.64 605.65
  C 819.73 563.37 814.72 520.73 794.15 483.46
  A 1.10 1.09 -21.8 0 0 792.90 482.93
  Q 777.53 487.06 761.00 487.29
  Q 744.38 487.53 735.50 486.78
  Q 717.57 485.26 698.78 479.96
  Q 670.02 471.86 644.00 458.27
  A 0.16 0.16 0.0 0 0 643.76 458.43
  Z
  M 591.14 689.74
  Q 597.00 686.12 598.93 679.42
  C 601.02 672.15 602.56 663.31 597.94 657.32
  C 595.27 653.86 587.38 653.74 583.86 654.61
  Q 583.62 654.67 574.00 656.88
  C 567.12 658.46 563.71 650.85 569.49 646.99
  Q 571.58 645.59 575.51 644.95
  Q 585.29 643.36 587.39 643.56
  A 2.33 2.33 0.0 0 0 589.72 640.27
  L 588.68 638.02
  A 7.04 7.02 78.1 0 0 582.45 633.95
  Q 576.89 633.83 575.26 633.91
  C 571.46 634.09 568.28 634.97 564.48 635.03
  C 560.45 635.10 558.66 630.10 560.76 627.24
  Q 567.69 617.79 575.21 610.32
  Q 577.45 608.10 580.07 604.98
  C 583.60 600.78 592.84 590.85 588.48 585.09
  A 3.54 3.04 -23.5 0 0 585.03 584.03
  C 572.26 587.10 559.90 600.23 552.48 610.88
  C 535.40 635.37 525.69 665.12 521.16 695.14
  Q 520.71 698.14 518.72 714.54
  A 1.71 1.70 15.8 0 0 519.72 716.31
  L 554.91 732.11
  A 1.20 1.19 -56.5 0 0 556.29 731.82
  Q 564.03 723.38 571.11 716.37
  Q 573.93 713.58 574.66 710.68
  Q 577.00 701.47 580.30 680.28
  C 581.13 675.02 583.42 668.13 589.89 669.99
  A 3.21 2.78 -87.3 0 1 591.93 672.59
  Q 592.28 675.30 591.89 677.47
  Q 590.62 684.52 590.40 689.31
  A 0.49 0.48 -14.7 0 0 591.14 689.74
  Z
  M 591.42 703.09
  C 597.36 701.67 604.43 699.72 609.11 695.96
  A 2.37 2.36 74.9 0 0 609.99 694.42
  L 610.73 689.12
  A 1.00 1.00 0.0 0 0 608.99 688.33
  C 603.89 694.22 600.40 697.00 592.36 699.38
  A 3.07 3.06 -0.9 0 0 590.26 701.54
  L 590.18 701.82
  A 1.03 1.03 0.0 0 0 591.42 703.09
  Z
  M 620.03 701.64
  A 0.44 0.44 0.0 0 0 619.33 702.08
  Q 621.82 712.79 626.16 726.16
  Q 633.77 749.58 642.96 773.15
  A 0.89 0.89 0.0 0 0 644.47 773.40
  Q 655.24 760.41 663.96 751.56
  C 669.85 745.60 676.80 737.34 683.12 731.37
  Q 683.33 731.17 683.99 730.20
  A 0.49 0.49 0.0 0 0 683.67 729.44
  C 672.80 727.49 660.16 724.77 650.23 720.32
  Q 633.77 712.94 620.03 701.64
  Z
  M 565.08 748.68
  A 1.13 1.13 0.0 0 0 564.44 747.28
  L 505.39 723.01
  A 1.13 1.13 0.0 0 0 503.99 723.49
  L 498.37 733.23
  A 1.13 1.13 0.0 0 0 498.88 734.82
  L 559.40 762.00
  A 1.13 1.13 0.0 0 0 560.94 761.32
  L 565.08 748.68
  Z
  M 737.08 768.33
  L 743.17 724.86
  A 0.55 0.55 0.0 0 0 742.46 724.26
  Q 724.06 730.13 705.18 730.43
  A 0.36 0.35 -20.3 0 0 704.91 731.01
  L 736.55 768.48
  A 0.30 0.30 0.0 0 0 737.08 768.33
  Z
  M 676.84 756.06
  Q 676.91 757.45 677.26 758.24
  Q 678.81 761.83 684.10 773.85
  C 684.72 775.28 685.30 776.93 687.03 777.00
  Q 692.96 777.24 701.01 778.12
  Q 704.01 778.45 704.67 775.48
  Q 706.17 768.70 708.85 756.20
  A 3.76 3.76 0.0 0 0 707.85 752.78
  Q 702.75 747.63 698.50 742.57
  Q 696.50 740.19 694.57 739.03
  A 2.21 2.20 -52.9 0 0 691.83 739.42
  L 677.25 754.94
  A 1.55 1.52 65.5 0 0 676.84 756.06
  Z
  M 722.56 832.48
  A 0.56 0.56 0.0 0 0 723.62 832.37
  Q 729.01 809.50 733.20 790.54
  C 734.01 786.84 735.03 785.31 732.37 782.74
  Q 727.49 778.03 719.81 769.05
  Q 718.79 767.85 718.28 766.22
  A 0.49 0.49 0.0 0 0 717.33 766.28
  Q 716.22 772.56 713.90 779.60
  Q 712.56 783.66 713.00 786.25
  Q 714.54 795.34 720.08 820.92
  C 721.00 825.15 720.98 829.08 722.56 832.48
  Z
  M 667.86 838.38
  A 0.68 0.68 0.0 0 0 668.70 837.75
  Q 668.80 834.30 669.19 831.45
  Q 672.79 804.66 676.44 785.98
  A 1.46 1.38 39.5 0 0 676.33 785.10
  L 668.20 767.20
  A 0.93 0.93 0.0 0 0 666.71 766.91
  L 648.18 784.63
  A 1.15 1.15 0.0 0 0 647.91 785.89
  Q 657.83 810.40 667.39 837.86
  Q 667.55 838.31 667.86 838.38
  Z
  M 713.69 853.92
  Q 713.24 852.71 713.23 852.68
  A 1.76 1.76 0.0 0 1 712.92 851.75
  C 712.81 848.47 711.40 844.25 710.86 840.69
  Q 707.76 820.12 704.78 803.16
  C 704.25 800.18 703.23 796.38 702.50 792.48
  A 1.91 1.89 88.7 0 0 700.90 790.94
  L 687.76 789.10
  A 0.76 0.76 0.0 0 0 686.91 789.71
  C 685.04 799.28 684.58 808.97 683.24 818.67
  Q 680.66 837.45 679.03 854.85
  C 678.56 859.82 677.65 865.31 678.65 868.92
  Q 681.26 878.37 691.61 903.78
  C 692.69 906.43 693.27 908.91 694.49 911.23
  A 0.89 0.89 0.0 0 0 696.11 911.14
  Q 706.08 885.25 713.56 864.87
  C 714.90 861.22 714.99 859.12 713.89 855.65
  Q 713.72 855.10 713.74 854.86
  A 1.58 0.33 -81.2 0 0 713.69 853.92
  Z
  M 527.73 881.69
  Q 528.74 880.89 529.13 880.38
  Q 534.90 872.79 539.13 863.42
  Q 545.71 848.85 550.41 836.45
  C 551.24 834.25 551.85 831.35 549.38 830.22
  A 1.81 1.81 0.0 0 0 547.14 830.84
  Q 545.36 833.43 544.61 835.12
  C 541.47 842.17 536.73 854.29 531.77 864.74
  C 528.96 870.66 525.58 876.67 525.99 880.96
  A 1.07 1.07 0.0 0 0 527.73 881.69
  Z"
/>
<path fill="#08084f" d="
  M 123.76 625.65
  A 0.71 0.71 0.0 0 0 123.05 624.97
  Q 108.77 625.08 95.25 625.06
  C 90.95 625.05 86.51 623.25 87.57 618.04
  C 88.81 611.98 91.52 604.61 93.62 597.74
  Q 93.94 596.71 123.32 498.31
  Q 124.10 495.72 126.32 489.54
  Q 127.73 485.59 131.98 485.59
  Q 164.15 485.56 316.75 485.59
  C 321.51 485.59 322.53 488.74 321.51 492.75
  Q 318.54 504.39 315.91 515.71
  A 0.99 0.99 0.0 0 0 316.88 516.92
  Q 342.24 516.89 398.31 516.87
  C 400.67 516.87 405.00 517.83 405.12 520.84
  Q 405.28 524.51 404.19 528.44
  Q 400.69 541.16 396.67 553.69
  A 1.03 1.02 8.6 0 0 397.66 555.03
  Q 410.89 554.78 424.49 554.99
  C 429.98 555.07 430.42 558.12 429.27 562.57
  Q 428.10 567.14 428.07 567.27
  C 412.92 615.86 404.09 643.37 397.06 668.05
  C 395.75 672.68 392.00 673.89 387.53 673.91
  Q 299.36 674.14 159.02 673.87
  C 152.40 673.86 151.00 668.56 152.58 663.06
  Q 154.31 657.03 156.15 651.22
  A 0.92 0.91 8.4 0 0 155.26 650.03
  Q 142.26 650.18 130.25 650.18
  Q 125.18 650.18 121.31 649.27
  A 2.92 2.91 89.6 0 1 119.16 647.14
  Q 118.60 644.90 119.15 642.43
  Q 120.84 634.95 123.54 627.01
  Q 123.79 626.27 123.76 625.65
  Z
  M 129.92 611.68
  L 250.41 611.68
  A 2.24 2.22 16.8 0 0 252.26 610.70
  C 255.21 606.34 259.91 599.19 264.91 594.76
  C 271.13 589.25 277.04 584.66 285.16 582.60
  A 1.83 1.82 -89.4 0 0 286.47 581.31
  L 300.94 527.16
  A 1.31 1.31 0.0 0 0 300.09 525.58
  Q 294.49 523.70 290.20 520.86
  C 284.07 516.80 279.20 508.13 277.45 501.32
  A 1.31 1.31 0.0 0 0 276.18 500.33
  L 161.12 500.33
  A 1.72 1.71 -78.2 0 0 159.55 501.36
  C 154.59 512.58 144.16 524.12 131.43 525.69
  A 1.57 1.55 6.0 0 0 130.15 526.71
  C 127.92 532.96 125.37 537.84 123.43 543.80
  C 119.33 556.40 115.53 569.90 112.14 580.73
  A 1.21 1.20 -73.7 0 0 112.97 582.25
  L 117.65 583.50
  A 5.10 4.96 69.2 0 1 119.28 584.26
  C 128.57 590.78 130.21 599.84 129.01 610.66
  A 0.92 0.92 0.0 0 0 129.92 611.68
  Z
  M 380.34 554.18
  C 369.76 555.07 362.55 537.94 360.97 529.73
  A 0.99 0.99 0.0 0 0 360.00 528.92
  L 323.09 528.92
  A 1.50 1.49 -82.4 0 0 321.65 530.03
  L 318.50 541.81
  A 1.64 1.63 -70.9 0 0 319.42 543.72
  Q 321.07 544.45 322.20 545.77
  C 326.91 551.27 329.00 556.59 329.16 564.30
  Q 329.63 587.27 315.68 605.58
  C 313.45 608.50 309.71 611.70 307.50 613.85
  C 305.11 616.17 303.32 616.94 299.97 618.73
  A 3.77 3.74 -6.7 0 0 298.11 621.07
  L 294.18 635.80
  A 0.57 0.57 0.0 0 0 294.75 636.52
  Q 308.55 636.14 328.52 636.44
  Q 331.60 636.49 332.62 635.08
  C 339.11 626.07 344.78 618.01 354.27 614.50
  Q 356.25 613.77 362.67 612.26
  A 1.27 1.26 -79.0 0 0 363.43 611.74
  Q 364.66 609.92 365.48 607.23
  Q 372.71 583.54 376.19 572.49
  Q 379.50 561.93 381.15 555.12
  A 0.77 0.77 0.0 0 0 380.34 554.18
  Z
  M 168.60 660.94
  A 1.02 1.01 7.6 0 0 169.58 662.22
  L 383.82 662.22
  A 2.04 2.04 0.0 0 0 385.81 660.63
  Q 387.49 653.19 388.99 648.48
  Q 399.86 614.45 410.34 580.15
  Q 412.59 572.82 413.39 569.65
  A 0.99 0.99 0.0 0 0 412.43 568.42
  L 400.63 568.42
  A 2.06 2.06 0.0 0 0 398.65 569.91
  Q 388.89 603.24 379.13 635.88
  C 377.62 640.95 375.79 649.15 372.12 649.32
  Q 364.62 649.64 340.21 649.45
  Q 315.46 649.25 308.29 649.33
  C 278.76 649.68 256.61 649.37 226.57 649.61
  Q 207.62 649.75 179.25 649.37
  Q 176.74 649.34 172.86 649.48
  A 1.63 1.63 0.0 0 0 171.34 650.69
  L 168.60 660.94
  Z
  M 136.02 635.19
  A 1.06 1.06 0.0 0 0 137.04 636.52
  L 276.45 636.52
  A 1.06 1.06 0.0 0 0 277.47 635.73
  L 280.29 625.16
  A 1.06 1.06 0.0 0 0 279.27 623.83
  L 139.86 623.83
  A 1.06 1.06 0.0 0 0 138.84 624.62
  L 136.02 635.19
  Z"
/>
<path fill="#08084f" d="
  M 1078.86 589.53
  C 1073.68 584.42 1072.08 575.81 1076.00 569.62
  C 1076.95 568.13 1078.60 566.59 1079.34 565.51
  A 1.07 1.07 0.0 0 0 1079.42 564.44
  C 1078.92 563.42 1077.40 562.04 1076.42 560.65
  Q 1060.52 538.02 1049.57 521.67
  Q 1046.74 517.43 1045.98 512.78
  C 1044.82 505.63 1050.49 502.78 1056.52 502.19
  C 1069.50 500.93 1079.95 506.11 1093.65 511.23
  Q 1103.11 514.77 1112.48 511.53
  Q 1121.55 508.39 1127.58 506.60
  Q 1130.50 505.74 1134.27 506.23
  Q 1139.85 506.97 1149.13 509.41
  Q 1152.28 510.24 1157.05 509.31
  C 1165.26 507.71 1173.99 502.66 1180.30 501.31
  C 1185.33 500.24 1189.19 499.55 1193.62 500.68
  C 1198.36 501.88 1201.42 504.72 1200.97 510.01
  C 1200.74 512.76 1197.48 518.71 1196.43 520.41
  C 1185.63 537.87 1178.97 549.67 1170.86 561.38
  A 1.25 1.25 0.0 0 0 1170.86 562.80
  C 1172.30 564.84 1174.44 567.52 1175.31 569.98
  Q 1177.85 577.08 1174.94 583.86
  C 1174.28 585.40 1172.46 587.27 1171.53 588.82
  A 0.93 0.92 -61.0 0 0 1171.90 590.12
  Q 1180.16 594.39 1188.85 601.65
  Q 1199.12 610.21 1204.13 614.88
  Q 1217.32 627.16 1229.57 643.47
  Q 1244.07 662.75 1252.56 680.18
  C 1265.27 706.25 1272.17 735.02 1270.88 764.50
  C 1269.58 794.11 1255.84 820.39 1231.29 836.52
  C 1209.90 850.57 1184.09 857.29 1158.23 859.62
  Q 1133.41 861.85 1110.02 860.60
  Q 1102.51 860.20 1089.02 858.45
  Q 1065.55 855.41 1045.75 848.21
  C 1020.92 839.18 998.81 822.23 987.27 798.04
  C 973.80 769.78 974.88 737.60 985.04 707.78
  Q 994.79 679.18 1011.75 654.99
  C 1020.71 642.23 1031.15 629.09 1043.55 617.35
  Q 1055.69 605.85 1068.27 596.54
  Q 1073.47 592.69 1078.71 590.37
  A 0.52 0.52 0.0 0 0 1078.86 589.53
  Z
  M 1089.99 584.48
  L 1115.57 584.47
  Q 1136.84 584.78 1158.18 584.28
  Q 1161.13 584.21 1162.22 582.82
  Q 1167.77 575.73 1161.22 569.69
  A 1.75 1.68 71.8 0 0 1160.41 569.26
  C 1159.20 568.98 1157.15 568.65 1155.70 568.64
  Q 1126.41 568.43 1094.85 568.69
  C 1090.72 568.72 1087.77 569.14 1086.54 573.24
  C 1085.44 576.88 1085.76 582.67 1089.99 584.48
  Z
  M 1139.03 651.59
  A 0.92 0.92 0.0 0 1 1138.32 650.52
  C 1139.33 645.37 1139.37 635.39 1135.07 631.53
  C 1129.86 626.84 1122.29 628.69 1119.10 634.63
  C 1116.36 639.70 1116.88 645.68 1116.92 650.81
  A 1.43 1.43 0.0 0 1 1115.75 652.23
  Q 1100.91 654.98 1090.57 665.36
  C 1079.61 676.36 1076.09 692.36 1084.20 706.04
  C 1092.98 720.84 1114.60 726.51 1131.29 730.57
  Q 1136.25 731.78 1141.29 734.30
  C 1154.69 741.01 1151.59 757.45 1138.85 762.31
  C 1129.53 765.86 1118.94 765.24 1109.13 762.64
  Q 1102.84 760.98 1099.93 759.07
  C 1093.57 754.90 1088.68 750.83 1082.17 754.21
  C 1076.51 757.16 1074.34 764.08 1077.69 769.84
  C 1083.87 780.46 1101.61 786.31 1113.07 787.26
  A 0.95 0.94 -87.1 0 1 1113.94 788.23
  Q 1113.72 794.65 1114.90 801.13
  C 1116.02 807.30 1119.68 812.19 1126.59 812.03
  C 1138.96 811.75 1138.44 795.46 1138.07 787.13
  A 0.73 0.73 0.0 0 1 1138.66 786.39
  C 1154.80 783.32 1169.66 773.08 1174.41 756.84
  C 1177.51 746.21 1175.41 734.28 1168.36 725.87
  C 1155.40 710.41 1136.54 707.17 1117.58 702.20
  C 1113.88 701.23 1109.69 699.64 1107.40 697.60
  C 1101.86 692.65 1102.29 683.64 1107.62 678.69
  Q 1111.82 674.80 1118.77 674.11
  C 1131.09 672.88 1140.40 676.49 1152.37 681.27
  Q 1158.47 683.70 1163.19 679.46
  C 1172.65 670.97 1167.24 663.41 1158.32 658.69
  Q 1148.86 653.69 1139.03 651.59
  Z"
/>
<path fill="#08084f" d="
  M 355.52 818.77
  Q 375.11 820.73 395.92 824.13
  Q 398.33 824.52 400.66 825.70
  A 1.68 1.66 -0.4 0 1 401.39 826.41
  C 403.80 830.90 398.72 836.31 395.59 839.61
  C 384.91 850.88 374.60 861.32 362.62 870.63
  C 347.19 882.61 329.78 888.66 310.48 891.40
  Q 284.55 895.07 259.51 893.71
  C 257.16 893.58 254.95 893.14 252.83 893.08
  Q 247.36 892.94 240.00 891.76
  Q 223.65 889.12 209.56 884.65
  C 206.10 883.56 204.12 884.30 200.81 885.57
  Q 153.03 903.88 132.56 911.32
  C 125.54 913.87 121.59 910.61 114.84 906.22
  Q 86.43 887.77 63.57 871.52
  Q 58.21 867.71 56.10 865.16
  C 53.25 861.70 54.40 853.99 53.68 849.39
  C 52.87 844.31 53.13 839.16 52.65 833.88
  Q 51.81 824.68 50.93 810.00
  Q 50.66 805.65 49.36 790.26
  Q 49.00 785.96 48.94 782.72
  C 48.89 779.97 47.79 775.93 48.30 772.72
  Q 49.15 767.28 55.20 765.90
  Q 82.22 759.74 109.32 752.81
  C 112.30 752.04 115.98 751.42 119.94 750.42
  Q 138.74 745.63 152.79 742.51
  C 154.87 742.05 155.22 739.60 155.55 737.60
  Q 157.67 724.80 158.60 718.97
  C 159.36 714.18 160.80 710.89 166.03 711.33
  C 178.79 712.40 193.69 715.20 207.49 716.95
  Q 223.44 718.98 225.95 719.36
  Q 251.46 723.31 256.64 723.79
  C 262.72 724.36 267.04 725.50 272.71 725.98
  Q 274.21 726.11 279.14 726.79
  Q 311.86 731.30 344.24 735.99
  Q 352.77 737.23 352.99 745.74
  Q 353.91 781.55 354.20 817.33
  A 1.46 1.46 0.0 0 0 355.52 818.77
  Z
  M 212.34 731.09
  A 0.83 0.83 0.0 0 0 211.65 730.05
  L 170.95 724.35
  A 0.47 0.45 -80.8 0 0 170.44 724.73
  L 167.48 742.13
  A 2.14 2.06 -43.9 0 0 167.46 742.63
  L 167.90 747.77
  A 2.76 2.75 6.2 0 0 169.83 750.16
  C 173.92 751.42 178.71 752.22 183.41 751.67
  C 195.24 750.27 208.91 743.55 212.34 731.09
  Z
  M 168.13 847.98
  Q 168.27 848.00 174.44 851.91
  Q 183.82 857.87 191.66 862.31
  Q 200.30 867.21 205.79 869.18
  Q 218.07 873.58 231.12 876.87
  Q 232.67 877.26 243.79 879.16
  Q 249.50 880.14 256.24 880.35
  Q 266.64 880.66 268.77 880.70
  C 280.80 880.92 291.86 879.09 305.72 876.89
  C 317.48 875.03 330.53 870.92 339.95 863.76
  A 2.54 2.51 87.2 0 0 340.55 863.09
  Q 341.34 861.85 341.34 859.25
  Q 341.33 852.52 341.67 847.50
  A 0.52 0.52 0.0 0 0 340.96 846.99
  Q 330.43 851.28 321.26 852.27
  Q 316.04 852.83 304.11 852.90
  C 298.34 852.94 292.09 852.18 286.83 850.89
  Q 283.47 850.06 278.94 847.29
  A 2.19 2.10 89.9 0 1 278.18 846.50
  Q 275.15 841.06 280.96 838.38
  A 2.65 2.59 30.1 0 1 281.91 838.14
  Q 283.65 838.03 285.90 839.11
  Q 288.81 840.51 295.51 840.98
  Q 300.20 841.30 313.16 841.22
  C 323.34 841.15 331.90 839.49 339.95 836.19
  A 1.96 1.94 -11.3 0 0 341.16 834.39
  L 341.16 816.28
  A 0.41 0.41 0.0 0 0 340.66 815.88
  Q 335.19 817.05 329.91 817.99
  C 322.59 819.29 316.68 818.73 309.00 818.88
  Q 304.69 818.96 299.02 818.41
  Q 290.90 817.62 287.79 816.94
  Q 281.02 815.47 278.79 813.89
  Q 275.85 811.80 276.71 808.33
  Q 278.20 802.30 283.27 803.65
  Q 286.02 804.37 286.51 804.45
  Q 304.05 807.34 322.76 805.84
  C 326.26 805.56 338.76 803.56 340.39 800.37
  A 0.96 0.95 -30.6 0 0 340.49 799.99
  L 341.07 782.13
  A 0.52 0.52 0.0 0 0 340.41 781.61
  Q 327.17 785.39 313.09 783.13
  Q 303.71 781.63 301.29 780.89
  Q 280.13 774.43 270.00 754.47
  Q 268.95 752.41 268.77 751.99
  Q 267.01 747.98 266.83 745.25
  Q 266.58 741.48 266.15 738.87
  A 1.73 1.72 -0.7 0 0 264.67 737.43
  L 227.06 732.16
  A 1.03 1.02 -76.3 0 0 225.96 732.83
  C 222.55 742.37 216.61 750.74 207.57 755.82
  Q 201.33 759.31 194.48 761.26
  C 185.31 763.86 174.76 763.25 165.61 761.53
  A 0.59 0.59 0.0 0 0 164.91 762.09
  L 164.22 783.29
  A 1.37 1.37 0.0 0 0 165.39 784.69
  Q 170.85 785.47 174.50 785.99
  Q 175.96 786.20 183.50 786.45
  Q 187.67 786.59 192.48 787.29
  Q 196.62 787.89 197.10 791.96
  Q 197.60 796.16 194.71 797.67
  C 191.17 799.52 187.77 798.68 184.10 798.47
  Q 173.86 797.86 165.29 795.84
  A 0.95 0.94 6.8 0 0 164.12 796.75
  L 164.12 817.31
  A 1.59 1.59 0.0 0 0 165.42 818.87
  Q 173.40 820.36 181.74 821.20
  C 186.27 821.65 194.20 823.19 193.70 828.90
  Q 193.41 832.18 190.42 833.68
  Q 187.71 835.04 184.42 834.39
  Q 175.23 832.57 167.91 830.52
  C 166.83 830.22 166.37 829.80 165.35 829.54
  A 0.39 0.38 7.1 0 0 164.87 829.91
  L 164.87 845.51
  A 0.90 0.90 0.0 0 0 165.40 846.33
  Q 167.29 847.16 167.45 847.50
  A 0.82 0.82 0.0 0 0 168.13 847.98
  Z
  M 278.08 740.45
  Q 279.67 750.43 286.25 757.87
  C 288.96 760.95 295.06 765.32 298.29 766.72
  Q 310.87 772.18 323.25 772.60
  Q 329.13 772.79 335.48 770.18
  C 342.29 767.37 343.05 758.12 341.22 752.06
  Q 340.40 749.31 338.78 748.48
  Q 335.47 746.77 330.34 746.22
  C 320.00 745.11 307.62 743.28 296.18 742.21
  Q 287.50 741.40 279.37 739.28
  A 1.04 1.04 0.0 0 0 278.08 740.45
  Z
  M 144.78 796.86
  C 137.31 798.45 130.39 800.56 123.25 795.40
  C 112.26 787.44 111.71 776.13 117.74 764.25
  A 0.64 0.64 0.0 0 0 117.02 763.34
  L 67.59 775.12
  A 2.47 2.46 0.4 0 0 65.79 776.89
  C 64.71 781.00 66.44 782.43 69.98 784.59
  Q 89.24 796.37 96.09 801.18
  Q 109.56 810.62 123.26 818.85
  A 4.43 4.40 53.6 0 0 126.56 819.36
  L 144.26 815.14
  A 1.90 1.90 0.0 0 0 145.72 813.29
  L 145.72 797.63
  A 0.79 0.78 84.1 0 0 144.78 796.86
  Z
  M 63.96 795.52
  L 63.96 806.72
  A 1.34 1.32 -74.1 0 0 64.58 807.85
  C 73.54 813.50 82.18 819.82 91.04 825.16
  Q 92.13 825.82 105.40 834.88
  Q 108.66 837.11 120.46 844.29
  C 121.82 845.12 123.83 846.53 125.30 846.11
  Q 135.34 843.28 146.61 840.82
  A 2.09 2.08 -8.3 0 0 148.24 838.64
  L 147.45 828.04
  A 0.93 0.93 0.0 0 0 146.30 827.20
  L 125.87 832.06
  A 5.25 5.25 0.0 0 1 121.76 831.34
  L 65.93 794.46
  A 1.27 1.27 0.0 0 0 63.96 795.52
  Z
  M 65.44 821.05
  A 0.68 0.68 0.0 0 0 64.39 821.68
  L 65.24 833.26
  A 3.25 3.25 0.0 0 0 66.92 835.87
  Q 72.21 838.79 75.95 841.38
  C 83.32 846.51 91.11 851.02 98.76 856.17
  Q 103.31 859.22 121.58 871.17
  Q 124.17 872.87 127.64 871.67
  Q 138.02 868.09 148.27 865.87
  A 1.76 1.76 0.0 0 0 149.66 864.01
  L 148.84 852.94
  A 1.35 1.35 0.0 0 0 147.10 851.75
  Q 134.97 855.57 127.95 857.65
  C 125.79 858.29 124.11 858.06 122.23 857.00
  Q 116.43 853.73 110.70 850.03
  Q 91.09 837.39 65.44 821.05
  Z
  M 66.46 847.18
  A 0.65 0.64 13.1 0 0 65.47 847.79
  Q 66.06 852.95 65.75 857.58
  C 65.62 859.46 66.29 860.70 67.80 861.46
  Q 71.09 863.09 75.58 865.93
  Q 103.87 883.80 125.53 897.10
  A 3.67 3.66 52.5 0 0 128.48 897.49
  L 161.45 887.72
  A 2.07 2.07 0.0 0 0 162.92 885.84
  Q 163.20 879.95 158.61 876.95
  Q 156.56 875.60 154.76 876.00
  Q 147.70 877.57 133.25 882.00
  C 128.06 883.59 124.01 884.60 119.11 881.41
  Q 83.98 858.55 66.46 847.18
  Z"
/>
</g>
<g>
<path fill="#ffead2" d="
  M 1358.33 176.90
  Q 1360.58 176.41 1361.56 175.30
  Q 1372.82 162.42 1385.08 150.33
  C 1387.50 147.95 1394.08 141.88 1389.62 137.93
  C 1387.42 135.98 1384.20 137.75 1382.24 139.25
  Q 1372.41 146.82 1361.83 153.82
  C 1355.35 158.11 1351.36 160.00 1348.95 165.37
  Q 1337.38 158.85 1325.89 164.88
  C 1314.25 170.99 1310.28 185.48 1314.50 197.32
  A 0.54 0.53 80.0 0 1 1314.00 198.04
  L 1255.47 198.04
  A 1.26 1.26 0.0 0 1 1254.28 197.19
  Q 1249.43 183.10 1250.16 168.02
  Q 1250.53 160.48 1253.15 149.61
  Q 1258.16 128.88 1272.54 112.80
  Q 1294.17 88.62 1326.70 85.15
  Q 1328.68 84.93 1337.22 84.91
  C 1357.19 84.85 1376.22 91.36 1390.99 103.55
  Q 1413.15 121.83 1420.08 148.40
  Q 1426.40 172.70 1419.85 196.87
  A 1.55 1.55 0.0 0 1 1418.35 198.02
  L 1359.63 198.02
  A 0.69 0.69 0.0 0 1 1358.97 197.15
  Q 1361.80 186.72 1358.33 176.90
  Z
  M 1328.17 108.45
  C 1328.18 113.36 1328.95 120.75 1335.72 120.73
  C 1342.48 120.71 1343.21 113.31 1343.19 108.40
  C 1343.18 103.49 1342.41 96.09 1335.64 96.11
  C 1328.88 96.13 1328.15 103.54 1328.17 108.45
  Z
  M 1304.13 129.14
  C 1304.52 125.00 1300.22 119.41 1297.75 116.41
  Q 1293.76 111.55 1288.27 113.51
  C 1283.93 115.06 1284.38 120.80 1286.68 123.76
  C 1288.58 126.20 1293.19 131.72 1296.59 132.61
  C 1299.31 133.33 1303.80 132.62 1304.13 129.14
  Z
  M 1367.43 125.69
  C 1363.90 131.02 1369.72 134.56 1373.97 132.51
  Q 1378.96 130.10 1383.37 126.15
  C 1385.41 124.32 1388.58 120.14 1387.23 117.46
  C 1383.37 109.86 1375.57 112.82 1372.03 118.54
  Q 1370.21 121.48 1367.43 125.69
  Z
  M 1283.8348 160.9583
  A 6.13 6.13 0.0 0 0 1280.3641 153.0142
  L 1269.1355 148.6138
  A 6.13 6.13 0.0 0 0 1261.1915 152.0845
  L 1260.9652 152.6617
  A 6.13 6.13 0.0 0 0 1264.4359 160.6058
  L 1275.6645 165.0062
  A 6.13 6.13 0.0 0 0 1283.6085 161.5355
  L 1283.8348 160.9583
  Z
  M 1412.0052 152.4989
  A 6.35 6.35 0.0 0 0 1403.8796 148.6753
  L 1394.0945 152.1981
  A 6.35 6.35 0.0 0 0 1390.2709 160.3237
  L 1390.5148 161.0011
  A 6.35 6.35 0.0 0 0 1398.6404 164.8247
  L 1408.4255 161.3019
  A 6.35 6.35 0.0 0 0 1412.2491 153.1763
  L 1412.0052 152.4989
  Z"
/>
<path fill="#df6321" d="
  M 1358.33 176.90
  Q 1354.64 169.80 1348.95 165.37
  C 1351.36 160.00 1355.35 158.11 1361.83 153.82
  Q 1372.41 146.82 1382.24 139.25
  C 1384.20 137.75 1387.42 135.98 1389.62 137.93
  C 1394.08 141.88 1387.50 147.95 1385.08 150.33
  Q 1372.82 162.42 1361.56 175.30
  Q 1360.58 176.41 1358.33 176.90
  Z"
/>
<ellipse fill="#507a92" cx="0.00" cy="0.00" transform="translate(1063.02,195.70) rotate(-12.8)" rx="39.81" ry="39.12"/>
<ellipse fill="#ffead2" cx="0.00" cy="0.00" transform="translate(1177.00,327.71) rotate(-11.2)" rx="39.50" ry="38.72"/>
<path fill="#ffead2" d="
  M 643.76 458.43
  A 0.16 0.16 0.0 0 1 644.00 458.27
  Q 670.02 471.86 698.78 479.96
  Q 717.57 485.26 735.50 486.78
  Q 744.38 487.53 761.00 487.29
  Q 777.53 487.06 792.90 482.93
  A 1.10 1.09 -21.8 0 1 794.15 483.46
  C 814.72 520.73 819.73 563.37 813.64 605.65
  C 808.98 638.08 796.71 672.69 770.68 694.41
  Q 753.06 709.10 730.49 714.74
  C 714.94 718.63 699.34 718.88 683.97 716.72
  C 660.30 713.40 639.14 702.59 622.76 685.29
  C 619.72 682.08 616.98 677.86 614.53 674.51
  C 612.07 671.15 612.46 667.27 612.32 663.48
  Q 611.88 650.70 600.88 644.92
  A 1.82 1.80 -73.7 0 1 599.92 643.15
  Q 600.70 635.14 596.37 628.33
  C 592.77 622.66 587.74 621.65 581.58 620.71
  A 0.81 0.81 0.0 0 1 581.15 619.32
  Q 584.24 616.47 591.55 608.81
  C 598.86 601.17 604.47 591.47 599.56 580.74
  C 595.57 572.04 585.84 571.21 577.87 574.13
  C 570.67 576.78 563.50 582.22 557.38 587.55
  A 1.20 1.20 0.0 0 1 555.50 587.14
  C 550.71 576.58 549.59 561.29 557.92 552.19
  Q 566.67 542.63 578.68 547.80
  C 583.81 550.01 586.14 553.02 590.19 557.63
  C 593.41 561.30 598.09 562.49 601.97 558.58
  Q 635.00 525.31 642.83 480.06
  Q 644.74 469.06 643.76 458.43
  Z
  M 683.20 499.68
  C 676.47 507.70 670.40 513.91 661.25 517.48
  Q 659.00 518.36 652.04 520.52
  C 648.00 521.78 645.44 523.65 645.98 527.93
  C 646.41 531.34 651.21 532.96 653.79 532.69
  Q 665.04 531.51 674.94 525.67
  C 682.03 521.49 693.89 512.91 694.92 505.75
  C 695.87 499.15 689.22 495.48 683.83 499.11
  A 3.31 3.07 -85.0 0 0 683.20 499.68
  Z
  M 767.78 511.23
  C 765.54 509.47 762.41 509.40 760.87 511.96
  C 758.53 515.86 759.83 519.72 762.67 523.11
  C 769.44 531.19 779.91 537.07 790.06 538.86
  C 794.15 539.58 798.17 538.26 798.87 533.97
  C 799.33 531.15 797.29 528.55 794.79 527.66
  C 786.21 524.57 778.19 521.74 772.20 515.49
  Q 769.20 512.35 767.78 511.23
  Z
  M 677.9892 582.7294
  A 15.95 12.44 89.5 0 0 690.2895 566.6714
  A 15.95 12.44 89.5 0 0 677.7108 550.8306
  A 15.95 12.44 89.5 0 0 665.4105 566.8886
  A 15.95 12.44 89.5 0 0 677.9892 582.7294
  Z
  M 768.4900 581.7800
  A 15.50 11.82 90.0 0 0 780.3100 566.2800
  A 15.50 11.82 90.0 0 0 768.4900 550.7800
  A 15.50 11.82 90.0 0 0 756.6700 566.2800
  A 15.50 11.82 90.0 0 0 768.4900 581.7800
  Z
  M 728.70 575.67
  C 723.89 579.46 727.74 584.92 731.29 588.11
  C 737.23 593.43 742.05 597.78 744.55 604.25
  C 745.81 607.51 744.69 612.79 740.61 613.65
  C 736.84 614.44 734.09 614.19 729.16 613.86
  A 2.85 2.83 -56.0 0 0 727.66 614.16
  Q 725.82 615.10 724.69 617.49
  C 722.99 621.09 726.24 623.60 729.42 624.42
  Q 734.58 625.75 741.28 624.78
  Q 748.22 623.76 753.56 617.40
  C 759.82 609.94 756.67 598.82 751.58 591.64
  C 748.15 586.78 736.63 573.69 730.00 575.07
  A 3.18 3.17 20.1 0 0 728.70 575.67
  Z
  M 681.67 666.89
  Q 683.93 670.40 687.69 670.70
  A 3.40 3.39 27.8 0 0 690.06 669.97
  Q 692.87 667.75 697.81 664.08
  C 708.10 656.44 722.71 654.76 734.73 660.03
  C 739.45 662.10 742.12 665.44 745.42 669.15
  Q 747.89 671.94 751.80 670.47
  Q 756.10 668.84 755.05 663.67
  C 754.07 658.87 748.93 653.68 744.79 651.26
  Q 735.71 645.93 724.63 645.18
  C 708.64 644.09 695.06 647.58 683.81 659.48
  Q 680.91 662.55 681.29 665.82
  A 2.42 2.40 25.7 0 0 681.67 666.89
  Z"
/>
<path fill="#507a92" d="
  M 129.92 611.68
  A 0.92 0.92 0.0 0 1 129.01 610.66
  C 130.21 599.84 128.57 590.78 119.28 584.26
  A 5.10 4.96 69.2 0 0 117.65 583.50
  L 112.97 582.25
  A 1.21 1.20 -73.7 0 1 112.14 580.73
  C 115.53 569.90 119.33 556.40 123.43 543.80
  C 125.37 537.84 127.92 532.96 130.15 526.71
  A 1.57 1.55 6.0 0 1 131.43 525.69
  C 144.16 524.12 154.59 512.58 159.55 501.36
  A 1.72 1.71 -78.2 0 1 161.12 500.33
  L 276.18 500.33
  A 1.31 1.31 0.0 0 1 277.45 501.32
  C 279.20 508.13 284.07 516.80 290.20 520.86
  Q 294.49 523.70 300.09 525.58
  A 1.31 1.31 0.0 0 1 300.94 527.16
  L 286.47 581.31
  A 1.83 1.82 -89.4 0 1 285.16 582.60
  C 277.04 584.66 271.13 589.25 264.91 594.76
  C 259.91 599.19 255.21 606.34 252.26 610.70
  A 2.24 2.22 16.8 0 1 250.41 611.68
  L 129.92 611.68
  Z
  M 187.58 602.57
  Q 200.33 604.25 210.49 599.86
  Q 220.73 595.43 229.71 586.68
  Q 238.36 578.25 243.63 565.57
  Q 245.61 560.80 247.85 550.53
  Q 251.10 535.56 243.54 523.22
  C 237.96 514.09 227.69 509.58 217.56 509.04
  C 209.43 508.61 203.19 509.23 196.24 513.48
  Q 188.57 518.16 182.89 523.63
  Q 181.53 524.94 175.14 533.62
  C 168.70 542.35 164.84 552.54 163.22 563.15
  Q 162.86 565.45 162.93 566.88
  C 163.07 570.22 162.76 573.21 163.29 576.29
  C 164.80 585.13 169.11 593.35 176.59 598.22
  Q 182.18 601.86 187.58 602.57
  Z
  M 261.8666 567.5267
  A 13.95 7.99 112.3 0 0 274.5524 557.6519
  A 13.95 7.99 112.3 0 0 272.4534 541.7133
  A 13.95 7.99 112.3 0 0 259.7676 551.5881
  A 13.95 7.99 112.3 0 0 261.8666 567.5267
  Z
  M 140.0623 567.2901
  A 13.53 7.66 112.5 0 0 152.3169 557.7214
  A 13.53 7.66 112.5 0 0 150.4177 542.2899
  A 13.53 7.66 112.5 0 0 138.1631 551.8586
  A 13.53 7.66 112.5 0 0 140.0623 567.2901
  Z"
/>
<path fill="#507a92" d="
  M 380.34 554.18
  A 0.77 0.77 0.0 0 1 381.15 555.12
  Q 379.50 561.93 376.19 572.49
  Q 372.71 583.54 365.48 607.23
  Q 364.66 609.92 363.43 611.74
  A 1.27 1.26 -79.0 0 1 362.67 612.26
  Q 356.25 613.77 354.27 614.50
  C 344.78 618.01 339.11 626.07 332.62 635.08
  Q 331.60 636.49 328.52 636.44
  Q 308.55 636.14 294.75 636.52
  A 0.57 0.57 0.0 0 1 294.18 635.80
  L 298.11 621.07
  A 3.77 3.74 -6.7 0 1 299.97 618.73
  C 303.32 616.94 305.11 616.17 307.50 613.85
  C 309.71 611.70 313.45 608.50 315.68 605.58
  Q 329.63 587.27 329.16 564.30
  C 329.00 556.59 326.91 551.27 322.20 545.77
  Q 321.07 544.45 319.42 543.72
  A 1.64 1.63 -70.9 0 1 318.50 541.81
  L 321.65 530.03
  A 1.50 1.49 -82.4 0 1 323.09 528.92
  L 360.00 528.92
  A 0.99 0.99 0.0 0 1 360.97 529.73
  C 362.55 537.94 369.76 555.07 380.34 554.18
  Z
  M 341.9813 598.1530
  A 14.68 8.11 112.8 0 0 355.1463 587.7628
  A 14.68 8.11 112.8 0 0 353.3587 571.0870
  A 14.68 8.11 112.8 0 0 340.1937 581.4772
  A 14.68 8.11 112.8 0 0 341.9813 598.1530
  Z"
/>
<path fill="#507a92" d="
  M 168.60 660.94
  L 171.34 650.69
  A 1.63 1.63 0.0 0 1 172.86 649.48
  Q 176.74 649.34 179.25 649.37
  Q 207.62 649.75 226.57 649.61
  C 256.61 649.37 278.76 649.68 308.29 649.33
  Q 315.46 649.25 340.21 649.45
  Q 364.62 649.64 372.12 649.32
  C 375.79 649.15 377.62 640.95 379.13 635.88
  Q 388.89 603.24 398.65 569.91
  A 2.06 2.06 0.0 0 1 400.63 568.42
  L 412.43 568.42
  A 0.99 0.99 0.0 0 1 413.39 569.65
  Q 412.59 572.82 410.34 580.15
  Q 399.86 614.45 388.99 648.48
  Q 387.49 653.19 385.81 660.63
  A 2.04 2.04 0.0 0 1 383.82 662.22
  L 169.58 662.22
  A 1.02 1.01 7.6 0 1 168.60 660.94
  Z"
/>
<path fill="#df6321" d="
  M 1115.57 584.47
  L 1089.99 584.48
  C 1085.76 582.67 1085.44 576.88 1086.54 573.24
  C 1087.77 569.14 1090.72 568.72 1094.85 568.69
  Q 1126.41 568.43 1155.70 568.64
  C 1157.15 568.65 1159.20 568.98 1160.41 569.26
  A 1.75 1.68 71.8 0 1 1161.22 569.69
  Q 1167.77 575.73 1162.22 582.82
  Q 1161.13 584.21 1158.18 584.28
  Q 1136.84 584.78 1115.57 584.47
  Z"
/>
<path fill="#ffead2" d="
  M 591.14 689.74
  A 0.49 0.48 -14.7 0 1 590.40 689.31
  Q 590.62 684.52 591.89 677.47
  Q 592.28 675.30 591.93 672.59
  A 3.21 2.78 -87.3 0 0 589.89 669.99
  C 583.42 668.13 581.13 675.02 580.30 680.28
  Q 577.00 701.47 574.66 710.68
  Q 573.93 713.58 571.11 716.37
  Q 564.03 723.38 556.29 731.82
  A 1.20 1.19 -56.5 0 1 554.91 732.11
  L 519.72 716.31
  A 1.71 1.70 15.8 0 1 518.72 714.54
  Q 520.71 698.14 521.16 695.14
  C 525.69 665.12 535.40 635.37 552.48 610.88
  C 559.90 600.23 572.26 587.10 585.03 584.03
  A 3.54 3.04 -23.5 0 1 588.48 585.09
  C 592.84 590.85 583.60 600.78 580.07 604.98
  Q 577.45 608.10 575.21 610.32
  Q 567.69 617.79 560.76 627.24
  C 558.66 630.10 560.45 635.10 564.48 635.03
  C 568.28 634.97 571.46 634.09 575.26 633.91
  Q 576.89 633.83 582.45 633.95
  A 7.04 7.02 78.1 0 1 588.68 638.02
  L 589.72 640.27
  A 2.33 2.33 0.0 0 1 587.39 643.56
  Q 585.29 643.36 575.51 644.95
  Q 571.58 645.59 569.49 646.99
  C 563.71 650.85 567.12 658.46 574.00 656.88
  Q 583.62 654.67 583.86 654.61
  C 587.38 653.74 595.27 653.86 597.94 657.32
  C 602.56 663.31 601.02 672.15 598.93 679.42
  Q 597.00 686.12 591.14 689.74
  Z"
/>
<path fill="#507a92" d="
  M 1115.57 584.47
  L 1089.99 584.48
  L 1115.57 584.47
  Z"
/>
<path fill="#507a92" d="
  M 136.02 635.19
  L 138.84 624.62
  A 1.06 1.06 0.0 0 1 139.86 623.83
  L 279.27 623.83
  A 1.06 1.06 0.0 0 1 280.29 625.16
  L 277.47 635.73
  A 1.06 1.06 0.0 0 1 276.45 636.52
  L 137.04 636.52
  A 1.06 1.06 0.0 0 1 136.02 635.19
  Z"
/>
<path fill="#ffead2" d="
  M 1139.03 651.59
  Q 1148.86 653.69 1158.32 658.69
  C 1167.24 663.41 1172.65 670.97 1163.19 679.46
  Q 1158.47 683.70 1152.37 681.27
  C 1140.40 676.49 1131.09 672.88 1118.77 674.11
  Q 1111.82 674.80 1107.62 678.69
  C 1102.29 683.64 1101.86 692.65 1107.40 697.60
  C 1109.69 699.64 1113.88 701.23 1117.58 702.20
  C 1136.54 707.17 1155.40 710.41 1168.36 725.87
  C 1175.41 734.28 1177.51 746.21 1174.41 756.84
  C 1169.66 773.08 1154.80 783.32 1138.66 786.39
  A 0.73 0.73 0.0 0 0 1138.07 787.13
  C 1138.44 795.46 1138.96 811.75 1126.59 812.03
  C 1119.68 812.19 1116.02 807.30 1114.90 801.13
  Q 1113.72 794.65 1113.94 788.23
  A 0.95 0.94 -87.1 0 0 1113.07 787.26
  C 1101.61 786.31 1083.87 780.46 1077.69 769.84
  C 1074.34 764.08 1076.51 757.16 1082.17 754.21
  C 1088.68 750.83 1093.57 754.90 1099.93 759.07
  Q 1102.84 760.98 1109.13 762.64
  C 1118.94 765.24 1129.53 765.86 1138.85 762.31
  C 1151.59 757.45 1154.69 741.01 1141.29 734.30
  Q 1136.25 731.78 1131.29 730.57
  C 1114.60 726.51 1092.98 720.84 1084.20 706.04
  C 1076.09 692.36 1079.61 676.36 1090.57 665.36
  Q 1100.91 654.98 1115.75 652.23
  A 1.43 1.43 0.0 0 0 1116.92 650.81
  C 1116.88 645.68 1116.36 639.70 1119.10 634.63
  C 1122.29 628.69 1129.86 626.84 1135.07 631.53
  C 1139.37 635.39 1139.33 645.37 1138.32 650.52
  A 0.92 0.92 0.0 0 0 1139.03 651.59
  Z"
/>
<path fill="#ffead2" d="
  M 591.42 703.09
  A 1.03 1.03 0.0 0 1 590.18 701.82
  L 590.26 701.54
  A 3.07 3.06 -0.9 0 1 592.36 699.38
  C 600.40 697.00 603.89 694.22 608.99 688.33
  A 1.00 1.00 0.0 0 1 610.73 689.12
  L 609.99 694.42
  A 2.37 2.36 74.9 0 1 609.11 695.96
  C 604.43 699.72 597.36 701.67 591.42 703.09
  Z"
/>
<path fill="#ffead2" d="
  M 620.03 701.64
  Q 633.77 712.94 650.23 720.32
  C 660.16 724.77 672.80 727.49 683.67 729.44
  A 0.49 0.49 0.0 0 1 683.99 730.20
  Q 683.33 731.17 683.12 731.37
  C 676.80 737.34 669.85 745.60 663.96 751.56
  Q 655.24 760.41 644.47 773.40
  A 0.89 0.89 0.0 0 1 642.96 773.15
  Q 633.77 749.58 626.16 726.16
  Q 621.82 712.79 619.33 702.08
  A 0.44 0.44 0.0 0 1 620.03 701.64
  Z"
/>
<path fill="#ffead2" d="
  M 565.08 748.68
  L 560.94 761.32
  A 1.13 1.13 0.0 0 1 559.40 762.00
  L 498.88 734.82
  A 1.13 1.13 0.0 0 1 498.37 733.23
  L 503.99 723.49
  A 1.13 1.13 0.0 0 1 505.39 723.01
  L 564.44 747.28
  A 1.13 1.13 0.0 0 1 565.08 748.68
  Z"
/>
<path fill="#507a92" d="
  M 212.34 731.09
  C 208.91 743.55 195.24 750.27 183.41 751.67
  C 178.71 752.22 173.92 751.42 169.83 750.16
  A 2.76 2.75 6.2 0 1 167.90 747.77
  L 167.46 742.63
  A 2.14 2.06 -43.9 0 1 167.48 742.13
  L 170.44 724.73
  A 0.47 0.45 -80.8 0 1 170.95 724.35
  L 211.65 730.05
  A 0.83 0.83 0.0 0 1 212.34 731.09
  Z"
/>
<path fill="#ffead2" d="
  M 737.08 768.33
  A 0.30 0.30 0.0 0 1 736.55 768.48
  L 704.91 731.01
  A 0.36 0.35 -20.3 0 1 705.18 730.43
  Q 724.06 730.13 742.46 724.26
  A 0.55 0.55 0.0 0 1 743.17 724.86
  L 737.08 768.33
  Z"
/>
<path fill="#df6321" d="
  M 167.45 847.50
  Q 167.29 847.16 165.40 846.33
  A 0.90 0.90 0.0 0 1 164.87 845.51
  L 164.87 829.91
  A 0.39 0.38 7.1 0 1 165.35 829.54
  C 166.37 829.80 166.83 830.22 167.91 830.52
  Q 175.23 832.57 184.42 834.39
  Q 187.71 835.04 190.42 833.68
  Q 193.41 832.18 193.70 828.90
  C 194.20 823.19 186.27 821.65 181.74 821.20
  Q 173.40 820.36 165.42 818.87
  A 1.59 1.59 0.0 0 1 164.12 817.31
  L 164.12 796.75
  A 0.95 0.94 6.8 0 1 165.29 795.84
  Q 173.86 797.86 184.10 798.47
  C 187.77 798.68 191.17 799.52 194.71 797.67
  Q 197.60 796.16 197.10 791.96
  Q 196.62 787.89 192.48 787.29
  Q 187.67 786.59 183.50 786.45
  Q 175.96 786.20 174.50 785.99
  Q 170.85 785.47 165.39 784.69
  A 1.37 1.37 0.0 0 1 164.22 783.29
  L 164.91 762.09
  A 0.59 0.59 0.0 0 1 165.61 761.53
  C 174.76 763.25 185.31 763.86 194.48 761.26
  Q 201.33 759.31 207.57 755.82
  C 216.61 750.74 222.55 742.37 225.96 732.83
  A 1.03 1.02 -76.3 0 1 227.06 732.16
  L 264.67 737.43
  A 1.73 1.72 -0.7 0 1 266.15 738.87
  Q 266.58 741.48 266.83 745.25
  Q 267.01 747.98 268.77 751.99
  Q 268.95 752.41 270.00 754.47
  Q 280.13 774.43 301.29 780.89
  Q 303.71 781.63 313.09 783.13
  Q 327.17 785.39 340.41 781.61
  A 0.52 0.52 0.0 0 1 341.07 782.13
  L 340.49 799.99
  A 0.96 0.95 -30.6 0 1 340.39 800.37
  C 338.76 803.56 326.26 805.56 322.76 805.84
  Q 304.05 807.34 286.51 804.45
  Q 286.02 804.37 283.27 803.65
  Q 278.20 802.30 276.71 808.33
  Q 275.85 811.80 278.79 813.89
  Q 281.02 815.47 287.79 816.94
  Q 290.90 817.62 299.02 818.41
  Q 304.69 818.96 309.00 818.88
  C 316.68 818.73 322.59 819.29 329.91 817.99
  Q 335.19 817.05 340.66 815.88
  A 0.41 0.41 0.0 0 1 341.16 816.28
  L 341.16 834.39
  A 1.96 1.94 -11.3 0 1 339.95 836.19
  C 331.90 839.49 323.34 841.15 313.16 841.22
  Q 300.20 841.30 295.51 840.98
  Q 288.81 840.51 285.90 839.11
  Q 283.65 838.03 281.91 838.14
  A 2.65 2.59 30.1 0 0 280.96 838.38
  Q 275.15 841.06 278.18 846.50
  A 2.19 2.10 89.9 0 0 278.94 847.29
  Q 283.47 850.06 286.83 850.89
  C 292.09 852.18 298.34 852.94 304.11 852.90
  Q 316.04 852.83 321.26 852.27
  Q 330.43 851.28 340.96 846.99
  A 0.52 0.52 0.0 0 1 341.67 847.50
  Q 341.33 852.52 341.34 859.25
  Q 341.34 861.85 340.55 863.09
  A 2.54 2.51 87.2 0 1 339.95 863.76
  C 330.53 870.92 317.48 875.03 305.72 876.89
  C 291.86 879.09 280.80 880.92 268.77 880.70
  Q 266.64 880.66 256.24 880.35
  Q 249.50 880.14 243.79 879.16
  Q 232.67 877.26 231.12 876.87
  Q 218.07 873.58 205.79 869.18
  Q 200.30 867.21 191.66 862.31
  Q 183.82 857.87 174.44 851.91
  Q 168.27 848.00 168.13 847.98
  A 0.82 0.82 0.0 0 1 167.45 847.50
  Z
  M 234.58 848.38
  Q 239.96 848.30 245.23 846.88
  Q 253.99 844.53 258.09 837.02
  Q 263.08 827.89 259.20 819.28
  Q 257.72 815.98 254.43 812.74
  Q 251.03 809.38 247.90 807.85
  Q 243.68 805.79 233.23 801.45
  Q 229.02 799.71 226.91 797.60
  Q 223.74 794.41 225.81 789.90
  C 227.58 786.04 232.63 785.32 236.64 785.62
  Q 241.20 785.97 243.95 787.87
  Q 247.83 790.56 251.71 791.85
  Q 255.78 793.21 258.28 790.11
  Q 261.12 786.60 258.96 782.84
  C 256.44 778.45 250.98 775.84 246.35 774.71
  A 1.73 1.72 20.4 0 1 245.22 772.26
  Q 246.40 769.96 246.42 767.49
  C 246.48 760.15 238.03 757.66 233.91 763.46
  Q 232.17 765.91 231.95 770.64
  A 1.58 1.54 65.6 0 1 231.63 771.53
  Q 230.94 772.45 229.01 772.65
  Q 221.59 773.42 216.08 778.21
  C 214.16 779.88 213.04 781.77 211.43 784.01
  A 3.59 3.56 73.9 0 0 211.02 784.76
  Q 208.39 791.43 209.97 798.49
  C 211.54 805.47 219.95 811.80 225.65 813.85
  Q 229.37 815.19 237.49 818.24
  Q 242.38 820.07 244.82 823.83
  Q 246.84 826.95 244.93 831.24
  A 2.16 2.12 -7.1 0 1 244.28 832.06
  Q 240.64 834.77 236.76 835.08
  Q 227.47 835.84 218.51 832.46
  Q 217.20 831.97 212.05 829.85
  C 207.11 827.82 204.48 831.31 203.96 835.76
  A 2.64 2.63 41.3 0 0 204.02 836.67
  Q 204.88 840.12 208.48 842.30
  Q 212.41 844.68 213.79 844.63
  A 0.32 0.24 -26.6 0 1 213.90 844.65
  L 220.88 847.74
  A 0.80 0.80 0.0 0 1 221.32 848.72
  L 219.37 854.81
  A 0.54 0.47 -40.9 0 0 219.35 854.95
  Q 219.38 857.73 220.18 858.91
  C 222.98 862.99 229.22 864.25 232.62 859.88
  Q 236.41 855.02 234.02 849.21
  A 0.61 0.60 -11.2 0 1 234.58 848.38
  Z"
/>
<path fill="#df6321" d="
  M 676.84 756.06
  A 1.55 1.52 65.5 0 1 677.25 754.94
  L 691.83 739.42
  A 2.21 2.20 -52.9 0 1 694.57 739.03
  Q 696.50 740.19 698.50 742.57
  Q 702.75 747.63 707.85 752.78
  A 3.76 3.76 0.0 0 1 708.85 756.20
  Q 706.17 768.70 704.67 775.48
  Q 704.01 778.45 701.01 778.12
  Q 692.96 777.24 687.03 777.00
  C 685.30 776.93 684.72 775.28 684.10 773.85
  Q 678.81 761.83 677.26 758.24
  Q 676.91 757.45 676.84 756.06
  Z"
/>
<path fill="#507a92" d="
  M 278.08 740.45
  A 1.04 1.04 0.0 0 1 279.37 739.28
  Q 287.50 741.40 296.18 742.21
  C 307.62 743.28 320.00 745.11 330.34 746.22
  Q 335.47 746.77 338.78 748.48
  Q 340.40 749.31 341.22 752.06
  C 343.05 758.12 342.29 767.37 335.48 770.18
  Q 329.13 772.79 323.25 772.60
  Q 310.87 772.18 298.29 766.72
  C 295.06 765.32 288.96 760.95 286.25 757.87
  Q 279.67 750.43 278.08 740.45
  Z"
/>
<path fill="#507a92" d="
  M 144.78 796.86
  A 0.79 0.78 84.1 0 1 145.72 797.63
  L 145.72 813.29
  A 1.90 1.90 0.0 0 1 144.26 815.14
  L 126.56 819.36
  A 4.43 4.40 53.6 0 1 123.26 818.85
  Q 109.56 810.62 96.09 801.18
  Q 89.24 796.37 69.98 784.59
  C 66.44 782.43 64.71 781.00 65.79 776.89
  A 2.47 2.46 0.4 0 1 67.59 775.12
  L 117.02 763.34
  A 0.64 0.64 0.0 0 1 117.74 764.25
  C 111.71 776.13 112.26 787.44 123.25 795.40
  C 130.39 800.56 137.31 798.45 144.78 796.86
  Z"
/>
<path fill="#ffead2" d="
  M 667.86 838.38
  Q 667.55 838.31 667.39 837.86
  Q 657.83 810.40 647.91 785.89
  A 1.15 1.15 0.0 0 1 648.18 784.63
  L 666.71 766.91
  A 0.93 0.93 0.0 0 1 668.20 767.20
  L 676.33 785.10
  A 1.46 1.38 39.5 0 1 676.44 785.98
  Q 672.79 804.66 669.19 831.45
  Q 668.80 834.30 668.70 837.75
  A 0.68 0.68 0.0 0 1 667.86 838.38
  Z"
/>
<path fill="#df6321" d="
  M 713.74 854.86
  Q 713.72 855.10 713.89 855.65
  C 714.99 859.12 714.90 861.22 713.56 864.87
  Q 706.08 885.25 696.11 911.14
  A 0.89 0.89 0.0 0 1 694.49 911.23
  C 693.27 908.91 692.69 906.43 691.61 903.78
  Q 681.26 878.37 678.65 868.92
  C 677.65 865.31 678.56 859.82 679.03 854.85
  Q 680.66 837.45 683.24 818.67
  C 684.58 808.97 685.04 799.28 686.91 789.71
  A 0.76 0.76 0.0 0 1 687.76 789.10
  L 700.90 790.94
  A 1.91 1.89 88.7 0 1 702.50 792.48
  C 703.23 796.38 704.25 800.18 704.78 803.16
  Q 707.76 820.12 710.86 840.69
  C 711.40 844.25 712.81 848.47 712.92 851.75
  A 1.76 1.76 0.0 0 0 713.23 852.68
  Q 713.24 852.71 713.69 853.92
  A 1.58 0.33 -81.2 0 1 713.74 854.86
  Z"
/>
<path fill="#507a92" d="
  M 63.96 795.52
  A 1.27 1.27 0.0 0 1 65.93 794.46
  L 121.76 831.34
  A 5.25 5.25 0.0 0 0 125.87 832.06
  L 146.30 827.20
  A 0.93 0.93 0.0 0 1 147.45 828.04
  L 148.24 838.64
  A 2.09 2.08 -8.3 0 1 146.61 840.82
  Q 135.34 843.28 125.30 846.11
  C 123.83 846.53 121.82 845.12 120.46 844.29
  Q 108.66 837.11 105.40 834.88
  Q 92.13 825.82 91.04 825.16
  C 82.18 819.82 73.54 813.50 64.58 807.85
  A 1.34 1.32 -74.1 0 1 63.96 806.72
  L 63.96 795.52
  Z"
/>
<path fill="#507a92" d="
  M 65.44 821.05
  Q 91.09 837.39 110.70 850.03
  Q 116.43 853.73 122.23 857.00
  C 124.11 858.06 125.79 858.29 127.95 857.65
  Q 134.97 855.57 147.10 851.75
  A 1.35 1.35 0.0 0 1 148.84 852.94
  L 149.66 864.01
  A 1.76 1.76 0.0 0 1 148.27 865.87
  Q 138.02 868.09 127.64 871.67
  Q 124.17 872.87 121.58 871.17
  Q 103.31 859.22 98.76 856.17
  C 91.11 851.02 83.32 846.51 75.95 841.38
  Q 72.21 838.79 66.92 835.87
  A 3.25 3.25 0.0 0 1 65.24 833.26
  L 64.39 821.68
  A 0.68 0.68 0.0 0 1 65.44 821.05
  Z"
/>
<path fill="#507a92" d="
  M 66.46 847.18
  Q 83.98 858.55 119.11 881.41
  C 124.01 884.60 128.06 883.59 133.25 882.00
  Q 147.70 877.57 154.76 876.00
  Q 156.56 875.60 158.61 876.95
  Q 163.20 879.95 162.92 885.84
  A 2.07 2.07 0.0 0 1 161.45 887.72
  L 128.48 897.49
  A 3.67 3.66 52.5 0 1 125.53 897.10
  Q 103.87 883.80 75.58 865.93
  Q 71.09 863.09 67.80 861.46
  C 66.29 860.70 65.62 859.46 65.75 857.58
  Q 66.06 852.95 65.47 847.79
  A 0.65 0.64 13.1 0 1 66.46 847.18
  Z"
/>
</g>
<g>
<path fill="#08084f" d="
  M 1335.64 96.11
  C 1342.41 96.09 1343.18 103.49 1343.19 108.40
  C 1343.21 113.31 1342.48 120.71 1335.72 120.73
  C 1328.95 120.75 1328.18 113.36 1328.17 108.45
  C 1328.15 103.54 1328.88 96.13 1335.64 96.11
  Z"
/>
<path fill="#08084f" d="
  M 1304.13 129.14
  C 1303.80 132.62 1299.31 133.33 1296.59 132.61
  C 1293.19 131.72 1288.58 126.20 1286.68 123.76
  C 1284.38 120.80 1283.93 115.06 1288.27 113.51
  Q 1293.76 111.55 1297.75 116.41
  C 1300.22 119.41 1304.52 125.00 1304.13 129.14
  Z"
/>
<path fill="#08084f" d="
  M 1373.97 132.51
  C 1369.72 134.56 1363.90 131.02 1367.43 125.69
  Q 1370.21 121.48 1372.03 118.54
  C 1375.57 112.82 1383.37 109.86 1387.23 117.46
  C 1388.58 120.14 1385.41 124.32 1383.37 126.15
  Q 1378.96 130.10 1373.97 132.51
  Z"
/>
<rect fill="#08084f" x="-12.16" y="-6.44" transform="translate(1272.40,156.81) rotate(21.4)" width="24.32" height="12.88" rx="6.13"/>
<rect fill="#08084f" x="-11.55" y="-6.71" transform="translate(1401.26,156.75) rotate(-19.8)" width="23.10" height="13.42" rx="6.35"/>
<path fill="#08084f" d="
  M 683.83 499.11
  C 689.22 495.48 695.87 499.15 694.92 505.75
  C 693.89 512.91 682.03 521.49 674.94 525.67
  Q 665.04 531.51 653.79 532.69
  C 651.21 532.96 646.41 531.34 645.98 527.93
  C 645.44 523.65 648.00 521.78 652.04 520.52
  Q 659.00 518.36 661.25 517.48
  C 670.40 513.91 676.47 507.70 683.20 499.68
  A 3.31 3.07 -85.0 0 1 683.83 499.11
  Z"
/>
<path fill="#08084f" d="
  M 187.58 602.57
  Q 182.18 601.86 176.59 598.22
  C 169.11 593.35 164.80 585.13 163.29 576.29
  C 162.76 573.21 163.07 570.22 162.93 566.88
  Q 162.86 565.45 163.22 563.15
  C 164.84 552.54 168.70 542.35 175.14 533.62
  Q 181.53 524.94 182.89 523.63
  Q 188.57 518.16 196.24 513.48
  C 203.19 509.23 209.43 508.61 217.56 509.04
  C 227.69 509.58 237.96 514.09 243.54 523.22
  Q 251.10 535.56 247.85 550.53
  Q 245.61 560.80 243.63 565.57
  Q 238.36 578.25 229.71 586.68
  Q 220.73 595.43 210.49 599.86
  Q 200.33 604.25 187.58 602.57
  Z
  M 186.88 578.79
  L 191.59 580.93
  A 1.84 1.82 -69.0 0 1 192.57 583.15
  Q 191.73 585.77 191.85 588.81
  A 1.09 1.08 20.8 0 0 192.18 589.54
  L 194.22 591.58
  A 1.26 1.25 67.3 0 0 195.11 591.95
  L 199.44 591.95
  A 3.31 3.31 0.0 0 0 202.64 589.50
  L 204.03 584.28
  A 2.58 2.58 0.0 0 1 206.61 582.37
  Q 219.45 582.80 224.63 571.12
  Q 225.63 568.88 225.99 564.27
  Q 226.37 559.40 223.71 556.32
  C 219.54 551.46 213.16 550.25 208.36 548.29
  Q 202.43 545.86 205.35 539.87
  C 206.56 537.38 210.93 538.02 212.94 538.87
  Q 218.06 541.04 223.35 542.71
  Q 229.27 544.58 231.64 539.24
  C 233.18 535.79 230.82 534.02 227.99 533.24
  Q 225.60 532.58 223.42 531.48
  A 2.74 2.73 13.4 0 1 221.92 529.04
  L 221.92 523.16
  A 0.90 0.88 -59.8 0 0 221.81 522.73
  Q 220.08 519.67 217.54 519.09
  A 2.02 1.97 -45.8 0 0 216.52 519.12
  C 213.15 520.14 212.26 522.73 210.23 525.15
  A 2.62 2.57 76.1 0 0 209.78 525.91
  Q 209.05 527.88 207.61 528.37
  C 202.87 529.98 200.23 530.42 197.38 533.65
  Q 190.90 540.97 193.69 550.74
  A 0.35 0.23 34.1 0 0 193.73 550.84
  L 196.05 554.25
  A 2.25 2.04 5.3 0 0 196.49 554.73
  Q 202.32 559.37 210.39 561.84
  C 213.57 562.82 216.19 566.00 214.15 569.22
  Q 212.84 571.28 210.74 571.81
  Q 205.06 573.24 198.98 570.82
  Q 196.12 569.68 191.98 567.23
  A 2.27 2.17 -26.3 0 0 191.02 566.93
  Q 187.52 566.64 184.50 570.66
  Q 182.65 573.14 183.17 575.23
  A 2.11 2.09 12.8 0 0 183.88 576.34
  L 186.76 578.71
  A 0.41 0.34 -5.7 0 0 186.88 578.79
  Z"
/>
<path fill="#08084f" d="
  M 760.87 511.96
  C 762.41 509.40 765.54 509.47 767.78 511.23
  Q 769.20 512.35 772.20 515.49
  C 778.19 521.74 786.21 524.57 794.79 527.66
  C 797.29 528.55 799.33 531.15 798.87 533.97
  C 798.17 538.26 794.15 539.58 790.06 538.86
  C 779.91 537.07 769.44 531.19 762.67 523.11
  C 759.83 519.72 758.53 515.86 760.87 511.96
  Z"
/>
<ellipse fill="#08084f" cx="0.00" cy="0.00" transform="translate(267.16,554.62) rotate(112.3)" rx="13.95" ry="7.99"/>
<ellipse fill="#08084f" cx="0.00" cy="0.00" transform="translate(145.24,554.79) rotate(112.5)" rx="13.53" ry="7.66"/>
<ellipse fill="#08084f" cx="0.00" cy="0.00" transform="translate(677.85,566.78) rotate(89.5)" rx="15.95" ry="12.44"/>
<ellipse fill="#08084f" cx="0.00" cy="0.00" transform="translate(768.49,566.28) rotate(90.0)" rx="15.50" ry="11.82"/>
<ellipse fill="#08084f" cx="0.00" cy="0.00" transform="translate(347.67,584.62) rotate(112.8)" rx="14.68" ry="8.11"/>
<path fill="#08084f" d="
  M 730.00 575.07
  C 736.63 573.69 748.15 586.78 751.58 591.64
  C 756.67 598.82 759.82 609.94 753.56 617.40
  Q 748.22 623.76 741.28 624.78
  Q 734.58 625.75 729.42 624.42
  C 726.24 623.60 722.99 621.09 724.69 617.49
  Q 725.82 615.10 727.66 614.16
  A 2.85 2.83 -56.0 0 1 729.16 613.86
  C 734.09 614.19 736.84 614.44 740.61 613.65
  C 744.69 612.79 745.81 607.51 744.55 604.25
  C 742.05 597.78 737.23 593.43 731.29 588.11
  C 727.74 584.92 723.89 579.46 728.70 575.67
  A 3.18 3.17 20.1 0 1 730.00 575.07
  Z"
/>
<path fill="#08084f" d="
  M 681.29 665.82
  Q 680.91 662.55 683.81 659.48
  C 695.06 647.58 708.64 644.09 724.63 645.18
  Q 735.71 645.93 744.79 651.26
  C 748.93 653.68 754.07 658.87 755.05 663.67
  Q 756.10 668.84 751.80 670.47
  Q 747.89 671.94 745.42 669.15
  C 742.12 665.44 739.45 662.10 734.73 660.03
  C 722.71 654.76 708.10 656.44 697.81 664.08
  Q 692.87 667.75 690.06 669.97
  A 3.40 3.39 27.8 0 1 687.69 670.70
  Q 683.93 670.40 681.67 666.89
  A 2.42 2.40 25.7 0 1 681.29 665.82
  Z"
/>
<path fill="#08084f" d="
  M 234.58 848.38
  A 0.61 0.60 -11.2 0 0 234.02 849.21
  Q 236.41 855.02 232.62 859.88
  C 229.22 864.25 222.98 862.99 220.18 858.91
  Q 219.38 857.73 219.35 854.95
  A 0.54 0.47 -40.9 0 1 219.37 854.81
  L 221.32 848.72
  A 0.80 0.80 0.0 0 0 220.88 847.74
  L 213.90 844.65
  A 0.32 0.24 -26.6 0 0 213.79 844.63
  Q 212.41 844.68 208.48 842.30
  Q 204.88 840.12 204.02 836.67
  A 2.64 2.63 41.3 0 1 203.96 835.76
  C 204.48 831.31 207.11 827.82 212.05 829.85
  Q 217.20 831.97 218.51 832.46
  Q 227.47 835.84 236.76 835.08
  Q 240.64 834.77 244.28 832.06
  A 2.16 2.12 -7.1 0 0 244.93 831.24
  Q 246.84 826.95 244.82 823.83
  Q 242.38 820.07 237.49 818.24
  Q 229.37 815.19 225.65 813.85
  C 219.95 811.80 211.54 805.47 209.97 798.49
  Q 208.39 791.43 211.02 784.76
  A 3.59 3.56 73.9 0 1 211.43 784.01
  C 213.04 781.77 214.16 779.88 216.08 778.21
  Q 221.59 773.42 229.01 772.65
  Q 230.94 772.45 231.63 771.53
  A 1.58 1.54 65.6 0 0 231.95 770.64
  Q 232.17 765.91 233.91 763.46
  C 238.03 757.66 246.48 760.15 246.42 767.49
  Q 246.40 769.96 245.22 772.26
  A 1.73 1.72 20.4 0 0 246.35 774.71
  C 250.98 775.84 256.44 778.45 258.96 782.84
  Q 261.12 786.60 258.28 790.11
  Q 255.78 793.21 251.71 791.85
  Q 247.83 790.56 243.95 787.87
  Q 241.20 785.97 236.64 785.62
  C 232.63 785.32 227.58 786.04 225.81 789.90
  Q 223.74 794.41 226.91 797.60
  Q 229.02 799.71 233.23 801.45
  Q 243.68 805.79 247.90 807.85
  Q 251.03 809.38 254.43 812.74
  Q 257.72 815.98 259.20 819.28
  Q 263.08 827.89 258.09 837.02
  Q 253.99 844.53 245.23 846.88
  Q 239.96 848.30 234.58 848.38
  Z"
/>
</g>
<path fill="#df6321" d="
  M 186.76 578.71
  L 183.88 576.34
  A 2.11 2.09 12.8 0 1 183.17 575.23
  Q 182.65 573.14 184.50 570.66
  Q 187.52 566.64 191.02 566.93
  A 2.27 2.17 -26.3 0 1 191.98 567.23
  Q 196.12 569.68 198.98 570.82
  Q 205.06 573.24 210.74 571.81
  Q 212.84 571.28 214.15 569.22
  C 216.19 566.00 213.57 562.82 210.39 561.84
  Q 202.32 559.37 196.49 554.73
  A 2.25 2.04 5.3 0 1 196.05 554.25
  L 193.73 550.84
  A 0.35 0.23 34.1 0 1 193.69 550.74
  Q 190.90 540.97 197.38 533.65
  C 200.23 530.42 202.87 529.98 207.61 528.37
  Q 209.05 527.88 209.78 525.91
  A 2.62 2.57 76.1 0 1 210.23 525.15
  C 212.26 522.73 213.15 520.14 216.52 519.12
  A 2.02 1.97 -45.8 0 1 217.54 519.09
  Q 220.08 519.67 221.81 522.73
  A 0.90 0.88 -59.8 0 1 221.92 523.16
  L 221.92 529.04
  A 2.74 2.73 13.4 0 0 223.42 531.48
  Q 225.60 532.58 227.99 533.24
  C 230.82 534.02 233.18 535.79 231.64 539.24
  Q 229.27 544.58 223.35 542.71
  Q 218.06 541.04 212.94 538.87
  C 210.93 538.02 206.56 537.38 205.35 539.87
  Q 202.43 545.86 208.36 548.29
  C 213.16 550.25 219.54 551.46 223.71 556.32
  Q 226.37 559.40 225.99 564.27
  Q 225.63 568.88 224.63 571.12
  Q 219.45 582.80 206.61 582.37
  A 2.58 2.58 0.0 0 0 204.03 584.28
  L 202.64 589.50
  A 3.31 3.31 0.0 0 1 199.44 591.95
  L 195.11 591.95
  A 1.26 1.25 67.3 0 1 194.22 591.58
  L 192.18 589.54
  A 1.09 1.08 20.8 0 1 191.85 588.81
  Q 191.73 585.77 192.57 583.15
  A 1.84 1.82 -69.0 0 0 191.59 580.93
  L 186.88 578.79
  A 0.41 0.34 -5.7 0 1 186.76 578.71
  Z"
/>
</svg>
