<?xml version="1.0" encoding="UTF-8" standalone="no"?>
<!DOCTYPE svg PUBLIC "-//W3C//DTD SVG 1.0//EN" "http://www.w3.org/TR/2001/REC-SVG-20010904/DTD/svg10.dtd">
<svg xmlns="http://www.w3.org/2000/svg" version="1.0" viewBox="0.00 0.00 1024.00 696.00">
<g stroke-width="2.00" fill="none" stroke-linecap="butt">
<path stroke="#6b383c" d="
  M 730.00 256.29
  L 721.21 256.17
  A 1.06 1.05 -89.7 0 0 720.14 257.24
  Q 720.20 261.56 720.21 265.00
  Q 720.44 428.40 720.51 437.50
  Q 720.57 444.19 719.85 451.51
  A 1.88 1.88 0.0 0 1 717.98 453.21
  L 247.87 453.21
  A 2.11 2.11 0.0 0 1 245.80 451.49
  Q 245.33 448.94 245.33 445.50
  Q 245.22 398.99 245.17 185.25
  Q 245.16 164.02 245.44 139.81
  A 1.32 1.31 -1.2 0 1 246.70 138.51
  C 257.23 138.07 269.68 138.51 282.42 138.45
  Q 478.70 137.54 588.01 138.08
  Q 598.75 138.13 607.49 138.51
  A 1.01 1.01 0.0 0 0 608.55 137.56
  Q 608.79 133.27 608.66 129.56
  Q 608.64 129.01 608.21 128.54"
/>
<path stroke="#e1a479" d="
  M 625.47 142.62
  C 625.18 162.57 630.90 181.78 641.83 198.46
  C 654.18 217.30 674.15 232.42 696.32 237.23
  C 715.26 241.34 734.43 240.24 752.27 233.04
  Q 783.26 220.53 799.67 191.71
  C 807.95 177.18 811.85 161.90 812.09 145.34
  C 812.33 128.79 808.88 113.39 801.03 98.63
  Q 785.47 69.34 754.86 55.93
  C 737.23 48.21 718.10 46.55 699.05 50.11
  C 676.75 54.27 656.35 68.80 643.46 87.27
  C 632.05 103.63 625.76 122.66 625.47 142.62"
/>
<path stroke="#e1a479" d="
  M 693.28 253.79
  Q 692.88 253.52 692.01 253.31
  C 652.84 243.85 623.70 212.92 612.54 174.46
  Q 611.36 170.41 609.64 161.88"
/>
<path stroke="#6b383c" d="
  M 609.64 161.88
  L 608.63 153.98
  A 0.69 0.68 86.7 0 0 607.95 153.37
  C 516.25 153.66 453.51 153.42 373.43 154.05
  Q 350.79 154.23 292.25 154.23
  Q 272.47 154.23 267.50 154.44
  C 262.13 154.68 261.57 159.26 261.58 163.54
  Q 261.72 208.72 261.50 365.51
  Q 261.45 406.91 261.62 425.89
  C 261.68 431.67 261.04 436.55 267.73 436.64
  Q 271.18 436.68 310.75 436.68
  Q 690.60 436.60 691.00 436.62
  C 695.48 436.81 701.62 437.21 702.46 431.45
  Q 702.92 428.36 702.90 419.68
  Q 702.79 355.68 702.91 256.18
  A 1.54 1.53 1.8 0 0 701.47 254.65
  Q 697.86 254.43 693.97 253.51
  Q 693.79 253.46 693.57 253.54
  Q 693.34 253.63 693.28 253.79"
/>
<path stroke="#7f798c" d="
  M 609.64 161.88
  L 271.32 162.98
  A 0.48 0.48 0.0 0 0 270.84 163.46
  L 270.84 425.91
  A 1.60 1.59 90.0 0 0 272.43 427.51
  L 692.08 427.51
  A 1.50 1.50 0.0 0 0 693.58 426.01
  L 693.28 253.79"
/>
<path stroke="#e1a479" d="
  M 722.9032 60.3518
  A 3.27 3.27 0.0 0 0 719.6446 57.0704
  L 719.4446 57.0697
  A 3.27 3.27 0.0 0 0 716.1632 60.3283
  L 716.0968 79.3482
  A 3.27 3.27 0.0 0 0 719.3554 82.6296
  L 719.5554 82.6303
  A 3.27 3.27 0.0 0 0 722.8368 79.3717
  L 722.9032 60.3518"
/>
<path stroke="#e1a479" d="
  M 678.6020 73.8744
  A 3.32 3.32 0.0 0 0 673.9978 72.9544
  L 673.8314 73.0654
  A 3.32 3.32 0.0 0 0 672.9114 77.6695
  L 679.8580 88.0856
  A 3.32 3.32 0.0 0 0 684.4622 89.0056
  L 684.6286 88.8946
  A 3.32 3.32 0.0 0 0 685.5486 84.2905
  L 678.6020 73.8744"
/>
<path stroke="#e1a479" d="
  M 755.9453 90.8395
  A 9.89 3.65 124.1 0 0 764.5124 84.6963
  A 9.89 3.65 124.1 0 0 767.0347 74.4605
  A 9.89 3.65 124.1 0 0 758.4676 80.6037
  A 9.89 3.65 124.1 0 0 755.9453 90.8395"
/>
<path stroke="#7f798c" d="
  M 725.35 155.12
  L 751.48 178.55
  A 4.35 4.34 44.7 0 0 757.31 178.53
  L 757.42 178.44
  A 3.53 3.52 43.7 0 0 757.30 173.49
  Q 744.12 160.76 736.34 154.18
  Q 729.91 148.75 729.52 148.30
  A 15.80 8.41 52.6 0 1 728.10 146.58
  Q 727.93 146.35 724.57 138.53
  Q 723.07 135.03 722.98 126.99
  Q 722.83 112.62 722.87 107.25
  Q 722.90 103.69 721.84 100.53
  A 2.05 2.03 83.5 0 0 720.11 99.14
  Q 715.12 98.66 714.88 104.29
  Q 714.39 115.92 714.90 133.29
  A 1.87 1.82 -32.1 0 1 714.66 134.27
  C 713.40 136.52 711.01 138.60 710.06 141.04
  C 707.36 147.94 710.94 154.67 717.95 156.65
  Q 719.24 157.02 720.33 156.86
  C 721.82 156.65 723.51 154.93 724.76 154.90
  A 0.84 0.83 -24.5 0 1 725.35 155.12"
/>
<path stroke="#e1a479" d="
  M 659.5782 116.5134
  A 3.04 3.04 0.0 0 0 658.2283 112.4316
  L 645.9534 106.2580
  A 3.04 3.04 0.0 0 0 641.8716 107.6079
  L 641.7818 107.7866
  A 3.04 3.04 0.0 0 0 643.1317 111.8684
  L 655.4066 118.0420
  A 3.04 3.04 0.0 0 0 659.4884 116.6921
  L 659.5782 116.5134"
/>
<path stroke="#e1a479" d="
  M 796.0916 109.1297
  A 9.16 3.49 -24.1 0 0 786.3049 109.6842
  A 9.16 3.49 -24.1 0 0 779.3684 116.6103
  A 9.16 3.49 -24.1 0 0 789.1551 116.0558
  A 9.16 3.49 -24.1 0 0 796.0916 109.1297"
/>
<path stroke="#e1a479" d="
  M 658.0606 145.9005
  A 3.09 3.09 0.0 0 0 655.0032 142.7783
  L 638.1641 142.6020
  A 3.09 3.09 0.0 0 0 635.0419 145.6595
  L 635.0394 145.8995
  A 3.09 3.09 0.0 0 0 638.0968 149.0217
  L 654.9359 149.1980
  A 3.09 3.09 0.0 0 0 658.0581 146.1405
  L 658.0606 145.9005"
/>
<path stroke="#e1a479" d="
  M 803.9103 147.1914
  A 3.10 3.10 0.0 0 0 800.8212 144.0806
  L 783.2813 144.0194
  A 3.10 3.10 0.0 0 0 780.1705 147.1086
  L 780.1697 147.3286
  A 3.10 3.10 0.0 0 0 783.2588 150.4394
  L 800.7987 150.5006
  A 3.10 3.10 0.0 0 0 803.9095 147.4114
  L 803.9103 147.1914"
/>
<path stroke="#e1a479" d="
  M 796.71 184.11
  L 778.81 174.95
  A 0.24 0.24 0.0 0 0 778.49 175.06
  L 777.64 176.73
  A 5.81 4.12 27.1 0 0 780.93 183.05
  L 788.91 187.13
  A 5.81 4.12 27.1 0 0 795.96 186.11
  L 796.81 184.43
  A 0.24 0.24 0.0 0 0 796.71 184.11"
/>
<path stroke="#e1a479" d="
  M 659.6572 177.7183
  A 3.05 3.05 0.0 0 0 655.4948 176.5874
  L 643.5543 183.4257
  A 3.05 3.05 0.0 0 0 642.4234 187.5882
  L 642.5228 187.7617
  A 3.05 3.05 0.0 0 0 646.6852 188.8926
  L 658.6257 182.0543
  A 3.05 3.05 0.0 0 0 659.7566 177.8918
  L 659.6572 177.7183"
/>
<path stroke="#e1a479" d="
  M 684.6231 207.1358
  A 3.17 3.17 0.0 0 0 683.8909 202.7129
  L 683.7121 202.5849
  A 3.17 3.17 0.0 0 0 679.2892 203.3171
  L 672.3969 212.9442
  A 3.17 3.17 0.0 0 0 673.1291 217.3671
  L 673.3079 217.4951
  A 3.17 3.17 0.0 0 0 677.7308 216.7629
  L 684.6231 207.1358"
/>
<path stroke="#e1a479" d="
  M 758.2586 203.0214
  A 3.30 3.30 0.0 0 0 753.6479 202.2993
  L 753.4863 202.4172
  A 3.30 3.30 0.0 0 0 752.7643 207.0279
  L 760.3414 217.4186
  A 3.30 3.30 0.0 0 0 764.9521 218.1407
  L 765.1137 218.0228
  A 3.30 3.30 0.0 0 0 765.8357 213.4121
  L 758.2586 203.0214"
/>
<path stroke="#e1a479" d="
  M 715.89 219.03
  C 715.93 223.05 715.41 232.45 719.56 232.41
  C 723.71 232.37 722.98 222.97 722.94 218.95
  C 722.90 214.93 723.43 205.53 719.28 205.57
  C 715.13 205.61 715.85 215.01 715.89 219.03"
/>
<path stroke="#e1a479" d="
  M 432.92 200.24
  A 5.22 5.22 0.0 0 0 427.70 195.02
  L 304.68 195.02
  A 5.22 5.22 0.0 0 0 299.46 200.24
  L 299.46 200.80
  A 5.22 5.22 0.0 0 0 304.68 206.02
  L 427.70 206.02
  A 5.22 5.22 0.0 0 0 432.92 200.80
  L 432.92 200.24"
/>
<path stroke="#e1a479" d="
  M 398.92 225.90
  A 5.32 5.32 0.0 0 0 393.60 220.58
  L 304.92 220.58
  A 5.32 5.32 0.0 0 0 299.60 225.90
  L 299.60 226.04
  A 5.32 5.32 0.0 0 0 304.92 231.36
  L 393.60 231.36
  A 5.32 5.32 0.0 0 0 398.92 226.04
  L 398.92 225.90"
/>
<path stroke="#e1a479" d="
  M 358.67 272.53
  A 4.61 4.61 0.0 0 0 354.06 267.92
  L 304.92 267.92
  A 4.61 4.61 0.0 0 0 300.31 272.53
  L 300.31 393.95
  A 4.61 4.61 0.0 0 0 304.92 398.56
  L 354.06 398.56
  A 4.61 4.61 0.0 0 0 358.67 393.95
  L 358.67 272.53"
/>
<path stroke="#e1a479" d="
  M 636.39 284.10
  A 5.41 5.41 0.0 0 0 630.98 278.69
  L 549.78 278.69
  A 5.41 5.41 0.0 0 0 544.37 284.10
  L 544.37 284.26
  A 5.41 5.41 0.0 0 0 549.78 289.67
  L 630.98 289.67
  A 5.41 5.41 0.0 0 0 636.39 284.26
  L 636.39 284.10"
/>
<path stroke="#e1a479" d="
  M 432.81 306.43
  A 5.04 5.04 0.0 0 0 427.77 301.39
  L 384.39 301.39
  A 5.04 5.04 0.0 0 0 379.35 306.43
  L 379.35 393.53
  A 5.04 5.04 0.0 0 0 384.39 398.57
  L 427.77 398.57
  A 5.04 5.04 0.0 0 0 432.81 393.53
  L 432.81 306.43"
/>
<path stroke="#e1a479" d="
  M 636.17 312.70
  A 5.00 5.00 0.0 0 0 631.17 307.70
  L 549.71 307.70
  A 5.00 5.00 0.0 0 0 544.71 312.70
  L 544.71 313.64
  A 5.00 5.00 0.0 0 0 549.71 318.64
  L 631.17 318.64
  A 5.00 5.00 0.0 0 0 636.17 313.64
  L 636.17 312.70"
/>
<path stroke="#e1a479" d="
  M 636.5101 342.3702
  A 5.29 5.29 0.0 0 0 631.2293 337.0710
  L 549.9094 336.9290
  A 5.29 5.29 0.0 0 0 544.6102 342.2098
  L 544.6099 342.3698
  A 5.29 5.29 0.0 0 0 549.8907 347.6690
  L 631.2106 347.8110
  A 5.29 5.29 0.0 0 0 636.5098 342.5302
  L 636.5101 342.3702"
/>
<path stroke="#e1a479" d="
  M 501.8549 342.1341
  A 4.64 4.64 0.0 0 0 497.2230 337.4860
  L 455.9830 337.4141
  A 4.64 4.64 0.0 0 0 451.3349 342.0460
  L 451.2451 393.4859
  A 4.64 4.64 0.0 0 0 455.8770 398.1340
  L 497.1170 398.2059
  A 4.64 4.64 0.0 0 0 501.7651 393.5740
  L 501.8549 342.1341"
/>
<path stroke="#e1a479" d="
  M 636.5801 371.3603
  A 5.31 5.31 0.0 0 0 631.2793 366.0411
  L 549.8595 365.8990
  A 5.31 5.31 0.0 0 0 544.5402 371.1997
  L 544.5399 371.3397
  A 5.31 5.31 0.0 0 0 549.8407 376.6589
  L 631.2605 376.8010
  A 5.31 5.31 0.0 0 0 636.5798 371.5003
  L 636.5801 371.3603"
/>
<path stroke="#6b383c" d="
  M 530.87 696.00
  L 529.51 598.70
  A 1.29 1.28 -88.3 0 0 528.33 597.44
  Q 524.23 597.10 521.00 597.10
  C 504.60 597.10 494.93 597.12 487.01 597.58
  A 1.54 1.53 -1.6 0 0 485.57 599.10
  L 485.21 696.00"
/>
<path stroke="#6b383c" d="
  M 957.49 464.01
  C 958.48 458.67 956.26 454.72 951.10 453.71
  Q 933.57 450.27 917.21 448.38
  C 907.52 447.27 902.79 449.58 900.55 459.31
  Q 897.91 470.71 891.31 506.57
  Q 889.85 514.46 889.55 519.57
  Q 888.92 530.51 899.84 532.18
  Q 915.72 534.62 932.50 535.01
  C 940.73 535.20 941.77 530.85 943.80 524.30
  Q 945.79 517.86 948.45 505.46
  C 951.39 491.74 954.98 477.57 957.49 464.01"
/>
<path stroke="#6b383c" d="
  M 77.16 542.30
  Q 80.24 543.74 82.44 543.86
  Q 98.65 544.74 111.43 543.74
  Q 123.58 542.80 126.72 540.99
  Q 133.44 537.13 132.09 527.25
  Q 128.67 502.13 121.12 469.13
  Q 119.73 463.07 117.71 458.75
  Q 114.36 451.61 105.88 451.97
  Q 83.56 452.90 64.87 458.78
  Q 59.50 460.47 59.22 465.49
  Q 58.92 470.87 59.50 474.00
  Q 64.71 501.89 71.71 532.04
  Q 72.88 537.07 76.38 541.67
  A 2.11 2.06 -5.5 0 0 77.16 542.30"
/>
<path stroke="#7f798c" d="
  M 422.4185 499.4017
  A 15.16 2.60 0.8 0 0 407.2963 496.5903
  A 15.16 2.60 0.8 0 0 392.1015 498.9783
  A 15.16 2.60 0.8 0 0 407.2237 501.7897
  A 15.16 2.60 0.8 0 0 422.4185 499.4017"
/>
<path stroke="#6b383c" d="
  M 722.10 573.12
  Q 720.82 580.92 720.57 588.78
  Q 720.18 600.76 731.75 601.93
  Q 751.33 603.91 771.55 602.70
  C 777.95 602.32 781.93 600.56 783.92 594.67
  Q 785.18 590.96 785.38 589.88
  C 787.75 577.14 790.19 561.32 792.65 548.69
  Q 796.11 530.92 797.90 519.94
  C 798.91 513.77 799.29 507.07 794.22 502.75
  C 791.43 500.36 786.11 499.63 782.53 499.38
  Q 767.60 498.33 753.27 498.35
  C 746.68 498.35 737.80 499.10 735.10 505.57
  Q 732.69 511.36 731.21 519.74
  Q 726.49 546.41 722.10 573.12"
/>
<path stroke="#6b383c" d="
  M 273.58 587.12
  Q 271.68 574.79 264.16 531.36
  Q 262.95 524.33 261.57 518.26
  C 259.79 510.37 258.00 504.10 248.99 503.45
  Q 231.30 502.18 212.62 505.85
  Q 208.48 506.67 205.89 507.88
  C 199.80 510.72 198.92 519.56 199.86 525.38
  C 203.34 546.85 206.00 561.27 208.81 578.71
  Q 210.25 587.65 211.96 595.52
  C 213.38 602.04 215.03 611.09 222.42 612.30
  Q 229.34 613.43 236.26 613.54
  Q 252.51 613.79 264.28 613.01
  C 275.26 612.27 274.94 604.53 274.48 596.02
  Q 274.23 591.31 273.58 587.12"
/>
<path stroke="#6b383c" d="
  M 388.10 506.09
  A 0.49 0.48 -16.7 0 0 387.89 506.47
  Q 387.42 520.04 388.79 532.48
  C 389.82 541.80 396.04 545.91 405.01 546.17
  C 412.01 546.37 420.65 544.90 422.40 536.85
  Q 424.02 529.39 423.84 519.00
  Q 423.70 510.06 423.86 507.01
  A 0.93 0.93 0.0 0 0 422.57 506.11
  Q 418.43 507.89 414.01 508.27
  Q 401.45 509.35 388.75 505.90
  Q 388.47 505.82 388.10 506.09"
/>
<path stroke="#7f798c" d="
  M 431.92 507.55
  L 431.52 530.61
  A 0.69 0.69 0.0 0 0 432.20 531.31
  L 433.86 531.34
  A 7.89 7.71 -89.0 0 0 441.70 523.59
  L 441.85 514.93
  A 7.89 7.71 -89.0 0 0 434.28 506.91
  L 432.62 506.88
  A 0.69 0.69 0.0 0 0 431.92 507.55"
/>
<path stroke="#7f798c" d="
  M 716.82 547.13
  A 0.45 0.45 0.0 0 0 717.59 546.90
  L 723.26 515.78
  A 0.74 0.74 0.0 0 0 722.53 514.91
  L 450.87 514.91
  A 0.68 0.67 -87.7 0 0 450.20 515.54
  C 450.08 517.29 450.53 519.40 450.46 521.37
  Q 450.01 534.60 437.75 538.47
  C 435.46 539.20 432.18 539.20 430.25 539.59
  A 1.12 1.11 7.2 0 0 429.48 540.18
  Q 429.06 541.01 428.53 542.40
  C 423.90 554.51 406.67 554.61 396.47 552.48
  C 389.84 551.10 382.07 545.18 381.12 538.16
  Q 379.81 528.44 379.90 515.54
  A 0.96 0.95 0.3 0 0 378.94 514.58
  L 270.40 514.58
  A 0.33 0.32 85.5 0 0 270.08 514.96
  L 275.16 546.59
  A 0.43 0.42 -27.1 0 0 275.88 546.82
  Q 287.57 535.12 297.24 524.19
  Q 299.28 521.88 303.46 521.86
  Q 336.22 521.73 358.44 522.00
  C 365.00 522.08 366.73 525.87 362.86 531.10
  Q 350.02 548.46 346.98 552.23
  C 344.00 555.93 341.62 558.87 337.43 558.88
  Q 294.97 558.89 281.57 558.82
  Q 280.07 558.81 278.04 558.34
  A 0.43 0.43 0.0 0 0 277.52 558.82
  L 278.51 564.96
  A 1.61 1.60 85.3 0 0 280.09 566.31
  L 714.05 566.31
  A 0.81 0.81 0.0 0 0 714.85 565.62
  L 716.18 556.29
  A 1.14 1.13 13.9 0 0 715.43 555.05
  Q 715.25 554.98 714.75 554.98
  Q 664.48 555.08 647.60 555.00
  Q 645.58 554.99 644.39 553.80
  Q 636.05 545.48 633.87 543.63
  Q 627.34 538.06 621.30 531.72
  C 619.74 530.09 617.72 528.29 617.41 526.37
  C 616.89 523.06 619.34 522.16 622.44 522.07
  C 638.74 521.55 658.24 521.84 686.76 521.98
  A 3.88 3.86 -24.5 0 1 689.24 522.90
  Q 698.90 531.12 707.80 538.69
  Q 712.83 542.97 716.82 547.13"
/>
<path stroke="#7f798c" d="
  M 353.75 529.86
  A 0.32 0.32 0.0 0 0 353.49 529.35
  L 304.01 529.35
  A 0.32 0.32 0.0 0 0 303.78 529.45
  L 283.76 550.58
  A 0.32 0.32 0.0 0 0 283.99 551.12
  L 337.29 551.12
  A 0.32 0.32 0.0 0 0 337.55 550.99
  L 353.75 529.86"
/>
<path stroke="#7f798c" d="
  M 649.59 547.95
  A 0.61 0.61 0.0 0 0 650.01 548.12
  L 704.74 548.00
  A 0.61 0.61 0.0 0 0 705.13 546.93
  L 684.66 529.49
  A 0.61 0.61 0.0 0 0 684.26 529.34
  L 631.60 529.46
  A 0.61 0.61 0.0 0 0 631.18 530.51
  L 649.59 547.95"
/>
<path stroke="#6b383c" d="
  M 901.36 576.35
  A 2.19 2.19 0.0 0 0 899.17 574.16
  L 798.73 574.16
  A 2.19 2.19 0.0 0 0 796.60 575.84
  L 794.15 586.04
  A 2.19 2.19 0.0 0 0 796.28 588.74
  L 899.20 588.51
  A 2.19 2.19 0.0 0 0 901.39 586.32
  L 901.36 576.35"
/>
<path stroke="#6b383c" d="
  M 133.44 588.47
  A 1.64 1.64 0.0 0 0 135.08 590.11
  L 200.47 590.11
  A 1.64 1.64 0.0 0 0 202.08 588.21
  L 200.08 575.76
  A 1.64 1.64 0.0 0 0 198.46 574.38
  L 135.08 574.38
  A 1.64 1.64 0.0 0 0 133.44 576.02
  L 133.44 588.47"
/>
<path stroke="#6b383c" d="
  M 712.78 574.56
  Q 712.61 574.32 712.35 574.32
  Q 544.21 574.57 285.75 574.46
  Q 283.16 574.46 281.06 574.62
  A 1.19 1.18 83.5 0 0 279.98 575.99
  L 282.05 588.83
  A 1.60 1.60 0.0 0 0 283.63 590.18
  L 710.69 589.24
  A 1.26 1.26 0.0 0 0 711.95 588.03
  Q 712.20 581.54 712.93 575.26
  Q 712.97 574.86 712.78 574.56"
/>
<path stroke="#6b383c" d="
  M 910.84 580.60
  A 0.88 0.88 0.0 0 0 909.87 581.40
  Q 909.46 585.87 908.75 589.25
  C 907.68 594.30 903.47 595.14 899.00 595.53
  Q 897.69 595.65 849.00 595.41
  Q 841.35 595.38 836.52 595.80
  Q 835.02 595.93 834.28 596.58
  A 2.49 2.39 50.2 0 0 834.05 599.94
  Q 837.63 604.45 843.25 605.89
  Q 852.31 608.20 857.35 608.69
  Q 877.09 610.60 894.24 609.43
  Q 908.76 608.43 920.68 604.42
  C 926.67 602.40 931.16 598.79 930.29 592.02
  C 929.12 582.90 918.54 581.37 910.84 580.60"
/>
<path stroke="#6b383c" d="
  M 171.43 622.87
  C 177.32 621.81 189.42 619.79 188.46 611.01
  Q 187.43 601.63 177.75 599.24
  Q 171.02 597.58 163.72 597.40
  Q 152.53 597.13 128.00 596.90
  Q 114.54 596.78 102.44 599.97
  C 96.51 601.54 92.37 605.58 93.41 612.22
  C 94.90 621.76 105.92 623.29 114.21 624.62
  C 133.01 627.63 152.11 626.36 171.43 622.87"
/>
<path stroke="#6b383c" d="
  M 756.40 640.77
  L 754.97 639.55
  A 2.22 2.22 0.0 0 0 751.32 641.14
  Q 750.95 649.39 749.24 650.69
  C 747.00 652.41 743.07 652.09 742.89 648.69
  Q 742.67 644.39 742.51 634.89
  A 2.17 2.16 9.9 0 0 741.10 632.89
  Q 737.64 631.60 733.24 631.25
  Q 719.39 630.17 701.25 630.54
  Q 682.61 630.92 675.00 631.43
  C 667.23 631.95 652.69 631.87 651.36 642.07
  C 649.75 654.39 659.15 657.87 669.04 659.71
  C 690.27 663.66 708.47 662.89 736.04 662.20
  C 745.44 661.97 760.63 659.12 759.28 646.25
  A 8.31 8.30 -72.8 0 0 756.40 640.77"
/>
<path stroke="#6b383c" d="
  M 324.11 667.87
  C 332.91 667.03 349.94 663.46 350.56 652.54
  Q 350.89 646.60 350.51 645.24
  C 348.80 639.12 342.99 637.98 337.75 637.50
  Q 327.07 636.54 310.01 635.43
  Q 290.53 634.17 259.67 638.06
  C 252.41 638.97 240.63 643.75 242.50 652.91
  Q 244.35 661.97 253.85 664.97
  Q 262.65 667.75 272.24 668.46
  Q 297.90 670.37 324.11 667.87"
/>
</g>
<g>
<path fill="#080d4e" d="
  M 926.51 696.00
  L 910.88 696.00
  L 878.86 676.31
  A 1.49 1.49 0.0 0 0 877.30 676.31
  L 845.26 696.00
  L 829.82 696.00
  L 826.10 695.39
  A 0.25 0.25 0.0 0 1 826.03 694.92
  Q 831.06 692.38 832.44 691.44
  Q 842.88 684.28 854.21 677.71
  Q 854.95 677.28 854.98 677.21
  A 0.75 0.75 0.0 0 0 854.23 676.17
  Q 852.66 676.30 844.50 676.43
  Q 778.39 677.41 710.75 677.09
  A 0.77 0.77 0.0 0 0 709.97 677.86
  L 709.97 694.99
  A 0.67 0.66 80.9 0 1 709.52 695.62
  L 708.36 696.00
  L 700.56 696.00
  L 699.45 695.68
  A 0.52 0.51 8.4 0 1 699.08 695.19
  L 699.08 677.40
  A 0.35 0.35 0.0 0 0 698.73 677.05
  L 539.66 677.05
  A 0.37 0.36 -90.0 0 0 539.30 677.42
  L 539.30 695.08
  A 0.53 0.52 -10.6 0 1 538.96 695.57
  L 537.85 696.00
  L 530.87 696.00
  L 529.51 598.70
  A 1.29 1.28 -88.3 0 0 528.33 597.44
  Q 524.23 597.10 521.00 597.10
  C 504.60 597.10 494.93 597.12 487.01 597.58
  A 1.54 1.53 -1.6 0 0 485.57 599.10
  L 485.21 696.00
  L 477.53 696.00
  L 476.39 695.60
  A 0.65 0.64 9.5 0 1 475.95 694.99
  L 475.95 677.64
  A 0.66 0.66 0.0 0 0 475.29 676.98
  Q 405.31 676.92 331.46 677.08
  C 321.44 677.10 311.74 678.01 303.85 677.96
  A 0.85 0.85 0.0 0 0 303.00 678.81
  L 303.00 694.96
  A 0.71 0.70 -10.1 0 1 302.53 695.62
  L 301.50 696.00
  L 293.36 696.00
  L 292.40 695.69
  A 0.50 0.48 -81.1 0 1 292.07 695.22
  L 292.07 679.00
  A 1.00 0.99 0.6 0 0 291.09 678.01
  C 281.51 677.77 277.11 678.06 267.25 677.35
  Q 261.61 676.95 245.25 676.97
  Q 216.38 677.00 149.68 676.98
  A 1.53 1.53 0.0 0 0 148.15 678.51
  L 148.15 683.89
  A 1.73 1.73 0.0 0 0 148.95 685.35
  L 164.52 695.23
  A 0.13 0.13 0.0 0 1 164.47 695.47
  L 161.29 696.00
  L 123.03 696.00
  L 119.75 695.36
  A 0.21 0.21 0.0 0 1 119.69 694.97
  Q 130.56 688.66 137.41 683.65
  C 139.02 682.48 138.90 679.70 138.41 678.22
  Q 138.01 677.02 136.51 677.01
  Q 76.94 676.80 45.76 677.02
  Q 42.70 677.05 39.49 676.49
  A 2.74 2.74 0.0 0 1 37.25 674.24
  C 36.42 669.28 38.06 667.48 43.01 667.46
  Q 83.56 667.27 137.58 667.32
  A 1.37 1.36 88.2 0 0 138.94 665.87
  Q 138.05 651.88 138.69 636.68
  A 1.63 1.63 0.0 0 0 137.04 634.98
  C 124.94 635.13 113.27 634.06 101.52 631.01
  C 93.88 629.03 87.62 624.60 85.28 616.70
  C 81.04 602.38 89.39 593.10 102.69 590.71
  A 0.92 0.92 0.0 0 0 103.44 589.65
  L 97.76 554.28
  A 1.53 1.52 -5.2 0 0 96.22 553.00
  Q 87.74 553.22 82.30 553.07
  C 70.89 552.75 66.80 547.94 63.87 537.39
  Q 61.13 527.49 58.97 517.02
  Q 56.47 504.85 51.15 477.37
  C 48.98 466.15 48.32 454.88 60.57 450.28
  Q 65.60 448.39 70.68 447.41
  Q 76.53 446.28 90.51 444.10
  Q 100.13 442.59 108.67 442.85
  Q 119.58 443.18 125.24 453.05
  Q 127.20 456.46 129.39 465.34
  Q 136.30 493.37 140.71 523.51
  C 141.29 527.44 141.52 532.69 140.38 536.44
  C 136.00 550.75 121.86 552.03 109.30 552.64
  A 1.39 1.39 0.0 0 0 108.00 554.25
  L 113.46 588.25
  A 0.83 0.83 0.0 0 0 114.28 588.95
  L 121.77 588.95
  A 1.60 1.59 0.9 0 0 123.37 587.41
  L 123.93 571.28
  A 5.52 5.46 -27.0 0 1 124.91 568.32
  Q 127.04 565.27 130.65 562.65
  Q 149.80 548.78 179.76 528.26
  Q 185.42 524.37 189.07 522.25
  C 191.25 520.99 191.83 519.50 191.85 517.15
  C 191.94 501.89 202.51 497.80 215.28 496.15
  Q 227.18 494.61 241.25 494.28
  C 247.88 494.13 255.79 494.04 260.68 497.47
  Q 265.53 500.88 267.15 506.01
  A 0.63 0.63 0.0 0 0 267.75 506.45
  L 378.91 506.45
  A 1.25 1.25 0.0 0 0 380.14 504.99
  C 378.89 497.66 383.78 492.18 390.53 490.19
  C 398.36 487.89 424.18 486.87 428.95 493.80
  Q 430.61 496.20 431.38 497.19
  A 1.91 1.88 -7.9 0 0 432.19 497.79
  Q 434.13 498.52 436.26 498.94
  C 440.51 499.78 443.98 501.79 446.52 505.04
  A 3.50 3.46 -18.7 0 0 449.27 506.38
  L 724.63 506.38
  A 1.08 1.08 0.0 0 0 725.63 505.70
  C 726.88 502.63 727.89 499.92 729.67 497.74
  Q 735.09 491.08 743.33 490.43
  Q 762.41 488.93 787.81 490.82
  C 790.98 491.06 796.46 492.53 799.27 494.26
  Q 805.78 498.27 807.22 506.79
  A 3.03 3.02 -83.6 0 0 809.04 509.08
  Q 812.38 510.46 815.68 512.09
  C 844.81 526.49 874.08 544.38 905.59 563.85
  Q 906.77 564.58 907.46 563.79
  A 0.99 0.99 0.0 0 0 907.70 563.30
  L 911.05 543.65
  A 1.36 1.36 0.0 0 0 909.75 542.06
  C 897.43 541.65 882.84 538.40 880.75 524.06
  Q 880.24 520.57 881.26 514.00
  Q 884.49 493.18 890.74 461.49
  C 893.25 448.81 897.43 438.22 912.72 439.29
  Q 931.25 440.58 949.97 444.25
  Q 958.47 445.92 961.02 447.85
  C 966.79 452.20 968.02 459.55 966.52 466.53
  Q 959.17 500.72 952.38 527.38
  Q 951.49 530.86 949.07 535.82
  C 943.97 546.27 932.06 543.78 922.65 542.92
  A 1.71 1.71 0.0 0 0 920.81 544.37
  L 916.90 570.69
  A 1.03 1.02 -77.1 0 0 917.60 571.82
  C 924.41 574.04 929.49 575.60 934.32 580.50
  Q 938.21 584.45 938.94 590.19
  Q 940.40 601.58 931.78 608.51
  C 927.08 612.29 920.38 614.04 913.05 615.63
  Q 908.57 616.61 903.43 617.09
  Q 892.62 618.10 885.13 618.12
  A 1.14 1.14 0.0 0 0 883.99 619.26
  L 883.99 663.99
  A 2.62 2.62 0.0 0 0 885.68 666.44
  Q 888.08 667.35 890.43 667.33
  Q 941.03 666.91 982.49 667.36
  A 4.63 4.63 0.0 0 1 987.07 672.02
  L 987.07 672.22
  A 4.65 4.64 0.1 0 1 982.44 676.83
  Q 933.49 677.05 907.10 676.89
  Q 905.33 676.88 902.34 676.46
  A 0.55 0.54 65.1 0 0 901.98 677.46
  L 929.52 694.95
  A 0.25 0.25 0.0 0 1 929.44 695.40
  L 926.51 696.00
  Z
  M 957.49 464.01
  C 958.48 458.67 956.26 454.72 951.10 453.71
  Q 933.57 450.27 917.21 448.38
  C 907.52 447.27 902.79 449.58 900.55 459.31
  Q 897.91 470.71 891.31 506.57
  Q 889.85 514.46 889.55 519.57
  Q 888.92 530.51 899.84 532.18
  Q 915.72 534.62 932.50 535.01
  C 940.73 535.20 941.77 530.85 943.80 524.30
  Q 945.79 517.86 948.45 505.46
  C 951.39 491.74 954.98 477.57 957.49 464.01
  Z
  M 77.16 542.30
  Q 80.24 543.74 82.44 543.86
  Q 98.65 544.74 111.43 543.74
  Q 123.58 542.80 126.72 540.99
  Q 133.44 537.13 132.09 527.25
  Q 128.67 502.13 121.12 469.13
  Q 119.73 463.07 117.71 458.75
  Q 114.36 451.61 105.88 451.97
  Q 83.56 452.90 64.87 458.78
  Q 59.50 460.47 59.22 465.49
  Q 58.92 470.87 59.50 474.00
  Q 64.71 501.89 71.71 532.04
  Q 72.88 537.07 76.38 541.67
  A 2.11 2.06 -5.5 0 0 77.16 542.30
  Z
  M 422.4185 499.4017
  A 15.16 2.60 0.8 0 0 407.2963 496.5903
  A 15.16 2.60 0.8 0 0 392.1015 498.9783
  A 15.16 2.60 0.8 0 0 407.2237 501.7897
  A 15.16 2.60 0.8 0 0 422.4185 499.4017
  Z
  M 722.10 573.12
  Q 720.82 580.92 720.57 588.78
  Q 720.18 600.76 731.75 601.93
  Q 751.33 603.91 771.55 602.70
  C 777.95 602.32 781.93 600.56 783.92 594.67
  Q 785.18 590.96 785.38 589.88
  C 787.75 577.14 790.19 561.32 792.65 548.69
  Q 796.11 530.92 797.90 519.94
  C 798.91 513.77 799.29 507.07 794.22 502.75
  C 791.43 500.36 786.11 499.63 782.53 499.38
  Q 767.60 498.33 753.27 498.35
  C 746.68 498.35 737.80 499.10 735.10 505.57
  Q 732.69 511.36 731.21 519.74
  Q 726.49 546.41 722.10 573.12
  Z
  M 273.58 587.12
  Q 271.68 574.79 264.16 531.36
  Q 262.95 524.33 261.57 518.26
  C 259.79 510.37 258.00 504.10 248.99 503.45
  Q 231.30 502.18 212.62 505.85
  Q 208.48 506.67 205.89 507.88
  C 199.80 510.72 198.92 519.56 199.86 525.38
  C 203.34 546.85 206.00 561.27 208.81 578.71
  Q 210.25 587.65 211.96 595.52
  C 213.38 602.04 215.03 611.09 222.42 612.30
  Q 229.34 613.43 236.26 613.54
  Q 252.51 613.79 264.28 613.01
  C 275.26 612.27 274.94 604.53 274.48 596.02
  Q 274.23 591.31 273.58 587.12
  Z
  M 388.10 506.09
  A 0.49 0.48 -16.7 0 0 387.89 506.47
  Q 387.42 520.04 388.79 532.48
  C 389.82 541.80 396.04 545.91 405.01 546.17
  C 412.01 546.37 420.65 544.90 422.40 536.85
  Q 424.02 529.39 423.84 519.00
  Q 423.70 510.06 423.86 507.01
  A 0.93 0.93 0.0 0 0 422.57 506.11
  Q 418.43 507.89 414.01 508.27
  Q 401.45 509.35 388.75 505.90
  Q 388.47 505.82 388.10 506.09
  Z
  M 431.92 507.55
  L 431.52 530.61
  A 0.69 0.69 0.0 0 0 432.20 531.31
  L 433.86 531.34
  A 7.89 7.71 -89.0 0 0 441.70 523.59
  L 441.85 514.93
  A 7.89 7.71 -89.0 0 0 434.28 506.91
  L 432.62 506.88
  A 0.69 0.69 0.0 0 0 431.92 507.55
  Z
  M 716.82 547.13
  A 0.45 0.45 0.0 0 0 717.59 546.90
  L 723.26 515.78
  A 0.74 0.74 0.0 0 0 722.53 514.91
  L 450.87 514.91
  A 0.68 0.67 -87.7 0 0 450.20 515.54
  C 450.08 517.29 450.53 519.40 450.46 521.37
  Q 450.01 534.60 437.75 538.47
  C 435.46 539.20 432.18 539.20 430.25 539.59
  A 1.12 1.11 7.2 0 0 429.48 540.18
  Q 429.06 541.01 428.53 542.40
  C 423.90 554.51 406.67 554.61 396.47 552.48
  C 389.84 551.10 382.07 545.18 381.12 538.16
  Q 379.81 528.44 379.90 515.54
  A 0.96 0.95 0.3 0 0 378.94 514.58
  L 270.40 514.58
  A 0.33 0.32 85.5 0 0 270.08 514.96
  L 275.16 546.59
  A 0.43 0.42 -27.1 0 0 275.88 546.82
  Q 287.57 535.12 297.24 524.19
  Q 299.28 521.88 303.46 521.86
  Q 336.22 521.73 358.44 522.00
  C 365.00 522.08 366.73 525.87 362.86 531.10
  Q 350.02 548.46 346.98 552.23
  C 344.00 555.93 341.62 558.87 337.43 558.88
  Q 294.97 558.89 281.57 558.82
  Q 280.07 558.81 278.04 558.34
  A 0.43 0.43 0.0 0 0 277.52 558.82
  L 278.51 564.96
  A 1.61 1.60 85.3 0 0 280.09 566.31
  L 714.05 566.31
  A 0.81 0.81 0.0 0 0 714.85 565.62
  L 716.18 556.29
  A 1.14 1.13 13.9 0 0 715.43 555.05
  Q 715.25 554.98 714.75 554.98
  Q 664.48 555.08 647.60 555.00
  Q 645.58 554.99 644.39 553.80
  Q 636.05 545.48 633.87 543.63
  Q 627.34 538.06 621.30 531.72
  C 619.74 530.09 617.72 528.29 617.41 526.37
  C 616.89 523.06 619.34 522.16 622.44 522.07
  C 638.74 521.55 658.24 521.84 686.76 521.98
  A 3.88 3.86 -24.5 0 1 689.24 522.90
  Q 698.90 531.12 707.80 538.69
  Q 712.83 542.97 716.82 547.13
  Z
  M 889.72 565.05
  A 0.37 0.37 0.0 0 0 889.63 564.48
  C 860.67 547.15 843.00 536.23 817.18 522.58
  Q 811.52 519.59 808.59 518.42
  A 0.99 0.99 0.0 0 0 807.24 519.16
  L 798.96 564.60
  A 1.24 1.23 -85.0 0 0 800.18 566.06
  Q 828.98 566.00 885.94 565.98
  Q 886.20 565.98 887.06 566.04
  Q 888.78 566.14 889.72 565.05
  Z
  M 353.75 529.86
  A 0.32 0.32 0.0 0 0 353.49 529.35
  L 304.01 529.35
  A 0.32 0.32 0.0 0 0 303.78 529.45
  L 283.76 550.58
  A 0.32 0.32 0.0 0 0 283.99 551.12
  L 337.29 551.12
  A 0.32 0.32 0.0 0 0 337.55 550.99
  L 353.75 529.86
  Z
  M 649.59 547.95
  A 0.61 0.61 0.0 0 0 650.01 548.12
  L 704.74 548.00
  A 0.61 0.61 0.0 0 0 705.13 546.93
  L 684.66 529.49
  A 0.61 0.61 0.0 0 0 684.26 529.34
  L 631.60 529.46
  A 0.61 0.61 0.0 0 0 631.18 530.51
  L 649.59 547.95
  Z
  M 141.24 565.48
  A 0.40 0.40 0.0 0 0 141.47 566.21
  L 197.33 566.08
  A 0.40 0.40 0.0 0 0 197.73 565.62
  L 192.18 531.09
  A 0.40 0.40 0.0 0 0 191.56 530.82
  L 141.24 565.48
  Z
  M 901.36 576.35
  A 2.19 2.19 0.0 0 0 899.17 574.16
  L 798.73 574.16
  A 2.19 2.19 0.0 0 0 796.60 575.84
  L 794.15 586.04
  A 2.19 2.19 0.0 0 0 796.28 588.74
  L 899.20 588.51
  A 2.19 2.19 0.0 0 0 901.39 586.32
  L 901.36 576.35
  Z
  M 133.44 588.47
  A 1.64 1.64 0.0 0 0 135.08 590.11
  L 200.47 590.11
  A 1.64 1.64 0.0 0 0 202.08 588.21
  L 200.08 575.76
  A 1.64 1.64 0.0 0 0 198.46 574.38
  L 135.08 574.38
  A 1.64 1.64 0.0 0 0 133.44 576.02
  L 133.44 588.47
  Z
  M 712.78 574.56
  Q 712.61 574.32 712.35 574.32
  Q 544.21 574.57 285.75 574.46
  Q 283.16 574.46 281.06 574.62
  A 1.19 1.18 83.5 0 0 279.98 575.99
  L 282.05 588.83
  A 1.60 1.60 0.0 0 0 283.63 590.18
  L 710.69 589.24
  A 1.26 1.26 0.0 0 0 711.95 588.03
  Q 712.20 581.54 712.93 575.26
  Q 712.97 574.86 712.78 574.56
  Z
  M 910.84 580.60
  A 0.88 0.88 0.0 0 0 909.87 581.40
  Q 909.46 585.87 908.75 589.25
  C 907.68 594.30 903.47 595.14 899.00 595.53
  Q 897.69 595.65 849.00 595.41
  Q 841.35 595.38 836.52 595.80
  Q 835.02 595.93 834.28 596.58
  A 2.49 2.39 50.2 0 0 834.05 599.94
  Q 837.63 604.45 843.25 605.89
  Q 852.31 608.20 857.35 608.69
  Q 877.09 610.60 894.24 609.43
  Q 908.76 608.43 920.68 604.42
  C 926.67 602.40 931.16 598.79 930.29 592.02
  C 929.12 582.90 918.54 581.37 910.84 580.60
  Z
  M 171.43 622.87
  C 177.32 621.81 189.42 619.79 188.46 611.01
  Q 187.43 601.63 177.75 599.24
  Q 171.02 597.58 163.72 597.40
  Q 152.53 597.13 128.00 596.90
  Q 114.54 596.78 102.44 599.97
  C 96.51 601.54 92.37 605.58 93.41 612.22
  C 94.90 621.76 105.92 623.29 114.21 624.62
  C 133.01 627.63 152.11 626.36 171.43 622.87
  Z
  M 751.25 667.66
  C 754.85 668.49 759.79 667.68 764.30 667.64
  Q 807.32 667.20 851.75 667.28
  Q 859.79 667.29 865.92 667.74
  C 868.83 667.95 870.40 667.35 872.85 665.95
  A 2.19 2.19 0.0 0 0 873.95 664.05
  L 873.95 618.75
  A 0.57 0.56 -89.5 0 0 873.40 618.18
  Q 860.78 617.94 848.51 615.75
  C 837.55 613.79 825.76 610.58 823.01 598.34
  A 1.44 1.43 -6.3 0 0 821.61 597.22
  L 794.18 597.22
  A 1.59 1.59 0.0 0 0 792.69 598.25
  Q 789.26 607.56 779.76 610.02
  C 772.55 611.87 764.16 611.30 757.07 611.10
  A 1.24 1.23 -86.5 0 0 755.81 612.22
  Q 755.28 618.28 753.98 624.96
  Q 753.69 626.46 754.12 628.92
  A 1.03 1.01 -86.1 0 0 754.79 629.70
  C 762.55 632.42 768.36 639.20 768.29 647.70
  C 768.22 655.53 764.38 660.93 757.67 664.45
  Q 753.97 666.39 751.24 667.12
  A 0.28 0.28 0.0 0 0 751.25 667.66
  Z
  M 663.22 667.37
  Q 663.00 667.13 662.54 666.98
  C 659.98 666.11 656.27 665.48 653.89 664.12
  Q 648.03 660.77 645.78 656.76
  Q 641.91 649.83 642.64 641.53
  C 644.17 624.29 661.31 624.07 674.05 623.13
  Q 696.90 621.46 720.02 622.23
  Q 725.88 622.42 732.25 623.05
  C 735.98 623.42 739.25 624.35 742.21 624.13
  A 1.03 1.01 2.9 0 0 743.14 623.30
  L 745.11 612.47
  A 0.81 0.80 5.6 0 0 744.32 611.52
  Q 737.05 611.48 729.00 610.53
  Q 717.19 609.15 712.73 598.58
  A 1.90 1.90 0.0 0 0 710.96 597.41
  L 540.25 597.78
  A 1.36 1.35 89.8 0 0 538.90 599.15
  L 539.04 666.55
  A 0.96 0.96 0.0 0 0 540.01 667.50
  Q 600.52 666.92 653.76 667.70
  C 656.62 667.74 660.21 668.44 662.79 668.39
  A 0.61 0.60 -22.4 0 0 663.22 667.37
  Z
  M 240.32 666.65
  Q 233.73 659.82 233.74 650.20
  C 233.75 642.70 236.91 638.18 243.10 634.32
  A 1.82 1.80 -20.7 0 0 243.93 632.50
  L 242.62 624.37
  A 1.96 1.96 0.0 0 0 240.72 622.72
  Q 235.54 622.62 229.16 622.34
  Q 221.51 622.00 217.67 620.52
  C 207.58 616.62 206.24 609.14 204.21 599.37
  A 1.74 1.74 0.0 0 0 202.51 597.99
  L 191.57 597.99
  A 0.20 0.20 0.0 0 0 191.43 598.34
  Q 197.82 604.57 197.07 614.01
  C 196.20 625.07 185.56 629.07 176.22 630.99
  Q 162.93 633.71 149.49 634.19
  A 1.43 1.43 0.0 0 0 148.11 635.62
  L 148.11 666.56
  A 0.82 0.81 -0.0 0 0 148.93 667.37
  L 240.01 667.37
  A 0.43 0.42 -21.9 0 0 240.32 666.65
  Z
  M 350.60 667.31
  Q 350.80 667.51 351.25 667.50
  Q 404.20 666.84 475.19 667.42
  A 0.83 0.83 0.0 0 0 476.03 666.59
  L 476.03 599.65
  A 1.12 1.12 0.0 0 0 474.91 598.53
  L 284.71 598.53
  A 0.82 0.82 0.0 0 0 283.89 599.42
  C 284.76 610.01 278.99 619.53 268.27 621.72
  Q 265.78 622.23 254.31 622.36
  A 1.43 1.43 0.0 0 0 252.89 623.79
  L 252.89 629.20
  A 1.48 1.48 0.0 0 0 254.68 630.65
  Q 262.05 629.10 271.44 628.16
  Q 291.74 626.13 311.30 627.26
  C 323.02 627.94 333.32 627.92 343.83 629.67
  C 358.23 632.08 363.00 644.92 358.55 657.78
  Q 356.39 664.01 350.68 666.83
  A 0.31 0.30 -35.8 0 0 350.60 667.31
  Z
  M 756.40 640.77
  L 754.97 639.55
  A 2.22 2.22 0.0 0 0 751.32 641.14
  Q 750.95 649.39 749.24 650.69
  C 747.00 652.41 743.07 652.09 742.89 648.69
  Q 742.67 644.39 742.51 634.89
  A 2.17 2.16 9.9 0 0 741.10 632.89
  Q 737.64 631.60 733.24 631.25
  Q 719.39 630.17 701.25 630.54
  Q 682.61 630.92 675.00 631.43
  C 667.23 631.95 652.69 631.87 651.36 642.07
  C 649.75 654.39 659.15 657.87 669.04 659.71
  C 690.27 663.66 708.47 662.89 736.04 662.20
  C 745.44 661.97 760.63 659.12 759.28 646.25
  A 8.31 8.30 -72.8 0 0 756.40 640.77
  Z
  M 324.11 667.87
  C 332.91 667.03 349.94 663.46 350.56 652.54
  Q 350.89 646.60 350.51 645.24
  C 348.80 639.12 342.99 637.98 337.75 637.50
  Q 327.07 636.54 310.01 635.43
  Q 290.53 634.17 259.67 638.06
  C 252.41 638.97 240.63 643.75 242.50 652.91
  Q 244.35 661.97 253.85 664.97
  Q 262.65 667.75 272.24 668.46
  Q 297.90 670.37 324.11 667.87
  Z"
/>
<path fill="#cd6229" d="
  M 530.87 696.00
  L 485.21 696.00
  L 485.57 599.10
  A 1.54 1.53 -1.6 0 1 487.01 597.58
  C 494.93 597.12 504.60 597.10 521.00 597.10
  Q 524.23 597.10 528.33 597.44
  A 1.29 1.28 -88.3 0 1 529.51 598.70
  L 530.87 696.00
  Z"
/>
</g>
<g>
<path fill="#cd6229" d="
  M 730.00 256.29
  L 721.21 256.17
  A 1.06 1.05 -89.7 0 0 720.14 257.24
  Q 720.20 261.56 720.21 265.00
  Q 720.44 428.40 720.51 437.50
  Q 720.57 444.19 719.85 451.51
  A 1.88 1.88 0.0 0 1 717.98 453.21
  L 247.87 453.21
  A 2.11 2.11 0.0 0 1 245.80 451.49
  Q 245.33 448.94 245.33 445.50
  Q 245.22 398.99 245.17 185.25
  Q 245.16 164.02 245.44 139.81
  A 1.32 1.31 -1.2 0 1 246.70 138.51
  C 257.23 138.07 269.68 138.51 282.42 138.45
  Q 478.70 137.54 588.01 138.08
  Q 598.75 138.13 607.49 138.51
  A 1.01 1.01 0.0 0 0 608.55 137.56
  Q 608.79 133.27 608.66 129.56
  Q 608.64 129.01 608.21 128.54
  Q 609.36 127.18 609.46 126.41
  C 613.35 96.23 630.15 68.42 654.43 50.59
  C 715.32 5.88 800.05 36.33 824.07 106.10
  Q 828.97 120.33 829.82 134.24
  C 830.97 153.01 828.24 173.02 819.81 190.57
  Q 804.62 222.20 777.22 239.97
  Q 756.94 253.12 730.00 256.29
  Z
  M 625.47 142.62
  C 625.18 162.57 630.90 181.78 641.83 198.46
  C 654.18 217.30 674.15 232.42 696.32 237.23
  C 715.26 241.34 734.43 240.24 752.27 233.04
  Q 783.26 220.53 799.67 191.71
  C 807.95 177.18 811.85 161.90 812.09 145.34
  C 812.33 128.79 808.88 113.39 801.03 98.63
  Q 785.47 69.34 754.86 55.93
  C 737.23 48.21 718.10 46.55 699.05 50.11
  C 676.75 54.27 656.35 68.80 643.46 87.27
  C 632.05 103.63 625.76 122.66 625.47 142.62
  Z
  M 693.28 253.79
  Q 692.88 253.52 692.01 253.31
  C 652.84 243.85 623.70 212.92 612.54 174.46
  Q 611.36 170.41 609.64 161.88
  L 608.63 153.98
  A 0.69 0.68 86.7 0 0 607.95 153.37
  C 516.25 153.66 453.51 153.42 373.43 154.05
  Q 350.79 154.23 292.25 154.23
  Q 272.47 154.23 267.50 154.44
  C 262.13 154.68 261.57 159.26 261.58 163.54
  Q 261.72 208.72 261.50 365.51
  Q 261.45 406.91 261.62 425.89
  C 261.68 431.67 261.04 436.55 267.73 436.64
  Q 271.18 436.68 310.75 436.68
  Q 690.60 436.60 691.00 436.62
  C 695.48 436.81 701.62 437.21 702.46 431.45
  Q 702.92 428.36 702.90 419.68
  Q 702.79 355.68 702.91 256.18
  A 1.54 1.53 1.8 0 0 701.47 254.65
  Q 697.86 254.43 693.97 253.51
  Q 693.79 253.46 693.57 253.54
  Q 693.34 253.63 693.28 253.79
  Z"
/>
<path fill="#080d4e" d="
  M 608.21 128.54
  Q 608.64 129.01 608.66 129.56
  Q 608.79 133.27 608.55 137.56
  A 1.01 1.01 0.0 0 1 607.49 138.51
  Q 598.75 138.13 588.01 138.08
  Q 478.70 137.54 282.42 138.45
  C 269.68 138.51 257.23 138.07 246.70 138.51
  A 1.32 1.31 -1.2 0 0 245.44 139.81
  Q 245.16 164.02 245.17 185.25
  Q 245.22 398.99 245.33 445.50
  Q 245.33 448.94 245.80 451.49
  A 2.11 2.11 0.0 0 0 247.87 453.21
  L 717.98 453.21
  A 1.88 1.88 0.0 0 0 719.85 451.51
  Q 720.57 444.19 720.51 437.50
  Q 720.44 428.40 720.21 265.00
  Q 720.20 261.56 720.14 257.24
  A 1.06 1.05 -89.7 0 1 721.21 256.17
  L 730.00 256.29
  Q 729.87 353.45 729.79 450.75
  Q 729.78 458.31 722.77 461.77
  Q 721.17 462.56 714.75 462.56
  Q 526.04 462.37 250.81 462.57
  C 244.93 462.58 238.73 461.54 236.42 455.79
  Q 235.80 454.27 235.82 444.10
  Q 236.07 309.77 235.94 140.00
  Q 235.93 133.34 240.68 130.67
  Q 243.41 129.13 250.47 129.11
  Q 429.34 128.68 608.21 128.54
  Z"
/>
<path fill="#cd6229" d="
  M 205.01 272.96
  C 202.24 275.44 194.97 271.41 189.89 269.15
  Q 180.32 264.90 148.53 247.44
  Q 144.07 244.99 143.89 240.35
  C 143.65 234.31 149.23 234.17 153.60 236.37
  Q 177.84 248.55 202.78 262.49
  C 204.70 263.57 206.67 264.78 207.01 267.09
  Q 207.54 270.69 205.01 272.96
  Z"
/>
<path fill="#cd6229" d="
  M 800.75 288.30
  C 790.63 291.19 779.76 294.48 770.27 296.27
  Q 764.83 297.29 763.17 292.31
  A 2.65 2.65 0.0 0 1 763.03 291.20
  Q 763.41 286.75 767.20 285.30
  C 776.53 281.74 786.87 278.98 797.25 276.02
  C 807.62 273.06 817.86 269.94 827.67 268.04
  Q 831.65 267.27 834.32 270.85
  A 2.65 2.65 0.0 0 1 834.79 271.86
  Q 836.01 276.97 830.85 278.97
  C 821.84 282.47 810.87 285.41 800.75 288.30
  Z"
/>
<rect fill="#cd6229" x="-31.43" y="-6.38" transform="translate(172.34,319.25) rotate(3.7)" width="62.86" height="12.76" rx="6.23"/>
<rect fill="#cd6229" x="-34.01" y="-6.34" transform="translate(796.28,345.22) rotate(15.8)" width="68.02" height="12.68" rx="6.21"/>
<path fill="#cd6229" d="
  M 203.36 365.85
  Q 205.65 368.18 204.91 371.61
  C 204.44 373.81 202.47 374.85 200.56 375.77
  Q 175.73 387.61 151.68 397.80
  C 147.35 399.64 141.99 399.16 142.60 393.37
  Q 143.06 388.92 147.50 386.85
  Q 179.13 372.05 188.59 368.57
  C 193.61 366.71 200.85 363.29 203.36 365.85
  Z"
/>
<rect fill="#cd6229" x="-30.54" y="-6.10" transform="translate(786.85,399.44) rotate(30.7)" width="61.08" height="12.20" rx="5.99"/>
<path fill="#cd6229" d="
  M 951.10 453.71
  C 956.26 454.72 958.48 458.67 957.49 464.01
  C 954.98 477.57 951.39 491.74 948.45 505.46
  Q 945.79 517.86 943.80 524.30
  C 941.77 530.85 940.73 535.20 932.50 535.01
  Q 915.72 534.62 899.84 532.18
  Q 888.92 530.51 889.55 519.57
  Q 889.85 514.46 891.31 506.57
  Q 897.91 470.71 900.55 459.31
  C 902.79 449.58 907.52 447.27 917.21 448.38
  Q 933.57 450.27 951.10 453.71
  Z"
/>
<path fill="#cd6229" d="
  M 76.38 541.67
  Q 72.88 537.07 71.71 532.04
  Q 64.71 501.89 59.50 474.00
  Q 58.92 470.87 59.22 465.49
  Q 59.50 460.47 64.87 458.78
  Q 83.56 452.90 105.88 451.97
  Q 114.36 451.61 117.71 458.75
  Q 119.73 463.07 121.12 469.13
  Q 128.67 502.13 132.09 527.25
  Q 133.44 537.13 126.72 540.99
  Q 123.58 542.80 111.43 543.74
  Q 98.65 544.74 82.44 543.86
  Q 80.24 543.74 77.16 542.30
  A 2.11 2.06 -5.5 0 1 76.38 541.67
  Z"
/>
<ellipse fill="#f5e5c9" cx="0.00" cy="0.00" transform="translate(407.26,499.19) rotate(0.8)" rx="15.16" ry="2.60"/>
<path fill="#cd6229" d="
  M 722.10 573.12
  Q 726.49 546.41 731.21 519.74
  Q 732.69 511.36 735.10 505.57
  C 737.80 499.10 746.68 498.35 753.27 498.35
  Q 767.60 498.33 782.53 499.38
  C 786.11 499.63 791.43 500.36 794.22 502.75
  C 799.29 507.07 798.91 513.77 797.90 519.94
  Q 796.11 530.92 792.65 548.69
  C 790.19 561.32 787.75 577.14 785.38 589.88
  Q 785.18 590.96 783.92 594.67
  C 781.93 600.56 777.95 602.32 771.55 602.70
  Q 751.33 603.91 731.75 601.93
  Q 720.18 600.76 720.57 588.78
  Q 720.82 580.92 722.10 573.12
  Z"
/>
<path fill="#cd6229" d="
  M 273.58 587.12
  Q 274.23 591.31 274.48 596.02
  C 274.94 604.53 275.26 612.27 264.28 613.01
  Q 252.51 613.79 236.26 613.54
  Q 229.34 613.43 222.42 612.30
  C 215.03 611.09 213.38 602.04 211.96 595.52
  Q 210.25 587.65 208.81 578.71
  C 206.00 561.27 203.34 546.85 199.86 525.38
  C 198.92 519.56 199.80 510.72 205.89 507.88
  Q 208.48 506.67 212.62 505.85
  Q 231.30 502.18 248.99 503.45
  C 258.00 504.10 259.79 510.37 261.57 518.26
  Q 262.95 524.33 264.16 531.36
  Q 271.68 574.79 273.58 587.12
  Z"
/>
<path fill="#cd6229" d="
  M 388.10 506.09
  Q 388.47 505.82 388.75 505.90
  Q 401.45 509.35 414.01 508.27
  Q 418.43 507.89 422.57 506.11
  A 0.93 0.93 0.0 0 1 423.86 507.01
  Q 423.70 510.06 423.84 519.00
  Q 424.02 529.39 422.40 536.85
  C 420.65 544.90 412.01 546.37 405.01 546.17
  C 396.04 545.91 389.82 541.80 388.79 532.48
  Q 387.42 520.04 387.89 506.47
  A 0.49 0.48 -16.7 0 1 388.10 506.09
  Z"
/>
<path fill="#f5e5c9" d="
  M 431.92 507.55
  A 0.69 0.69 0.0 0 1 432.62 506.88
  L 434.28 506.91
  A 7.89 7.71 -89.0 0 1 441.85 514.93
  L 441.70 523.59
  A 7.89 7.71 -89.0 0 1 433.86 531.34
  L 432.20 531.31
  A 0.69 0.69 0.0 0 1 431.52 530.61
  L 431.92 507.55
  Z"
/>
<path fill="#f5e5c9" d="
  M 716.82 547.13
  Q 712.83 542.97 707.80 538.69
  Q 698.90 531.12 689.24 522.90
  A 3.88 3.86 -24.5 0 0 686.76 521.98
  C 658.24 521.84 638.74 521.55 622.44 522.07
  C 619.34 522.16 616.89 523.06 617.41 526.37
  C 617.72 528.29 619.74 530.09 621.30 531.72
  Q 627.34 538.06 633.87 543.63
  Q 636.05 545.48 644.39 553.80
  Q 645.58 554.99 647.60 555.00
  Q 664.48 555.08 714.75 554.98
  Q 715.25 554.98 715.43 555.05
  A 1.14 1.13 13.9 0 1 716.18 556.29
  L 714.85 565.62
  A 0.81 0.81 0.0 0 1 714.05 566.31
  L 280.09 566.31
  A 1.61 1.60 85.3 0 1 278.51 564.96
  L 277.52 558.82
  A 0.43 0.43 0.0 0 1 278.04 558.34
  Q 280.07 558.81 281.57 558.82
  Q 294.97 558.89 337.43 558.88
  C 341.62 558.87 344.00 555.93 346.98 552.23
  Q 350.02 548.46 362.86 531.10
  C 366.73 525.87 365.00 522.08 358.44 522.00
  Q 336.22 521.73 303.46 521.86
  Q 299.28 521.88 297.24 524.19
  Q 287.57 535.12 275.88 546.82
  A 0.43 0.42 -27.1 0 1 275.16 546.59
  L 270.08 514.96
  A 0.33 0.32 85.5 0 1 270.40 514.58
  L 378.94 514.58
  A 0.96 0.95 0.3 0 1 379.90 515.54
  Q 379.81 528.44 381.12 538.16
  C 382.07 545.18 389.84 551.10 396.47 552.48
  C 406.67 554.61 423.90 554.51 428.53 542.40
  Q 429.06 541.01 429.48 540.18
  A 1.12 1.11 7.2 0 1 430.25 539.59
  C 432.18 539.20 435.46 539.20 437.75 538.47
  Q 450.01 534.60 450.46 521.37
  C 450.53 519.40 450.08 517.29 450.20 515.54
  A 0.68 0.67 -87.7 0 1 450.87 514.91
  L 722.53 514.91
  A 0.74 0.74 0.0 0 1 723.26 515.78
  L 717.59 546.90
  A 0.45 0.45 0.0 0 1 716.82 547.13
  Z"
/>
<path fill="#f5e5c9" d="
  M 353.75 529.86
  L 337.55 550.99
  A 0.32 0.32 0.0 0 1 337.29 551.12
  L 283.99 551.12
  A 0.32 0.32 0.0 0 1 283.76 550.58
  L 303.78 529.45
  A 0.32 0.32 0.0 0 1 304.01 529.35
  L 353.49 529.35
  A 0.32 0.32 0.0 0 1 353.75 529.86
  Z"
/>
<path fill="#f5e5c9" d="
  M 649.59 547.95
  L 631.18 530.51
  A 0.61 0.61 0.0 0 1 631.60 529.46
  L 684.26 529.34
  A 0.61 0.61 0.0 0 1 684.66 529.49
  L 705.13 546.93
  A 0.61 0.61 0.0 0 1 704.74 548.00
  L 650.01 548.12
  A 0.61 0.61 0.0 0 1 649.59 547.95
  Z"
/>
<path fill="#cd6229" d="
  M 901.36 576.35
  L 901.39 586.32
  A 2.19 2.19 0.0 0 1 899.20 588.51
  L 796.28 588.74
  A 2.19 2.19 0.0 0 1 794.15 586.04
  L 796.60 575.84
  A 2.19 2.19 0.0 0 1 798.73 574.16
  L 899.17 574.16
  A 2.19 2.19 0.0 0 1 901.36 576.35
  Z"
/>
<path fill="#cd6229" d="
  M 133.44 588.47
  L 133.44 576.02
  A 1.64 1.64 0.0 0 1 135.08 574.38
  L 198.46 574.38
  A 1.64 1.64 0.0 0 1 200.08 575.76
  L 202.08 588.21
  A 1.64 1.64 0.0 0 1 200.47 590.11
  L 135.08 590.11
  A 1.64 1.64 0.0 0 1 133.44 588.47
  Z"
/>
<path fill="#cd6229" d="
  M 712.78 574.56
  Q 712.97 574.86 712.93 575.26
  Q 712.20 581.54 711.95 588.03
  A 1.26 1.26 0.0 0 1 710.69 589.24
  L 283.63 590.18
  A 1.60 1.60 0.0 0 1 282.05 588.83
  L 279.98 575.99
  A 1.19 1.18 83.5 0 1 281.06 574.62
  Q 283.16 574.46 285.75 574.46
  Q 544.21 574.57 712.35 574.32
  Q 712.61 574.32 712.78 574.56
  Z"
/>
<path fill="#cd6229" d="
  M 910.84 580.60
  C 918.54 581.37 929.12 582.90 930.29 592.02
  C 931.16 598.79 926.67 602.40 920.68 604.42
  Q 908.76 608.43 894.24 609.43
  Q 877.09 610.60 857.35 608.69
  Q 852.31 608.20 843.25 605.89
  Q 837.63 604.45 834.05 599.94
  A 2.49 2.39 50.2 0 1 834.28 596.58
  Q 835.02 595.93 836.52 595.80
  Q 841.35 595.38 849.00 595.41
  Q 897.69 595.65 899.00 595.53
  C 903.47 595.14 907.68 594.30 908.75 589.25
  Q 909.46 585.87 909.87 581.40
  A 0.88 0.88 0.0 0 1 910.84 580.60
  Z"
/>
<path fill="#cd6229" d="
  M 188.46 611.01
  C 189.42 619.79 177.32 621.81 171.43 622.87
  C 152.11 626.36 133.01 627.63 114.21 624.62
  C 105.92 623.29 94.90 621.76 93.41 612.22
  C 92.37 605.58 96.51 601.54 102.44 599.97
  Q 114.54 596.78 128.00 596.90
  Q 152.53 597.13 163.72 597.40
  Q 171.02 597.58 177.75 599.24
  Q 187.43 601.63 188.46 611.01
  Z"
/>
<path fill="#cd6229" d="
  M 756.40 640.77
  A 8.31 8.30 -72.8 0 1 759.28 646.25
  C 760.63 659.12 745.44 661.97 736.04 662.20
  C 708.47 662.89 690.27 663.66 669.04 659.71
  C 659.15 657.87 649.75 654.39 651.36 642.07
  C 652.69 631.87 667.23 631.95 675.00 631.43
  Q 682.61 630.92 701.25 630.54
  Q 719.39 630.17 733.24 631.25
  Q 737.64 631.60 741.10 632.89
  A 2.17 2.16 9.9 0 1 742.51 634.89
  Q 742.67 644.39 742.89 648.69
  C 743.07 652.09 747.00 652.41 749.24 650.69
  Q 750.95 649.39 751.32 641.14
  A 2.22 2.22 0.0 0 1 754.97 639.55
  L 756.40 640.77
  Z"
/>
<path fill="#cd6229" d="
  M 324.11 667.87
  Q 297.90 670.37 272.24 668.46
  Q 262.65 667.75 253.85 664.97
  Q 244.35 661.97 242.50 652.91
  C 240.63 643.75 252.41 638.97 259.67 638.06
  Q 290.53 634.17 310.01 635.43
  Q 327.07 636.54 337.75 637.50
  C 342.99 637.98 348.80 639.12 350.51 645.24
  Q 350.89 646.60 350.56 652.54
  C 349.94 663.46 332.91 667.03 324.11 667.87
  Z"
/>
</g>
<g>
<path fill="#f5e5c9" d="
  M 812.09 145.34
  C 811.85 161.90 807.95 177.18 799.67 191.71
  Q 783.26 220.53 752.27 233.04
  C 734.43 240.24 715.26 241.34 696.32 237.23
  C 674.15 232.42 654.18 217.30 641.83 198.46
  C 630.90 181.78 625.18 162.57 625.47 142.62
  C 625.76 122.66 632.05 103.63 643.46 87.27
  C 656.35 68.80 676.75 54.27 699.05 50.11
  C 718.10 46.55 737.23 48.21 754.86 55.93
  Q 785.47 69.34 801.03 98.63
  C 808.88 113.39 812.33 128.79 812.09 145.34
  Z
  M 722.9032 60.3518
  A 3.27 3.27 0.0 0 0 719.6446 57.0704
  L 719.4446 57.0697
  A 3.27 3.27 0.0 0 0 716.1632 60.3283
  L 716.0968 79.3482
  A 3.27 3.27 0.0 0 0 719.3554 82.6296
  L 719.5554 82.6303
  A 3.27 3.27 0.0 0 0 722.8368 79.3717
  L 722.9032 60.3518
  Z
  M 678.6020 73.8744
  A 3.32 3.32 0.0 0 0 673.9978 72.9544
  L 673.8314 73.0654
  A 3.32 3.32 0.0 0 0 672.9114 77.6695
  L 679.8580 88.0856
  A 3.32 3.32 0.0 0 0 684.4622 89.0056
  L 684.6286 88.8946
  A 3.32 3.32 0.0 0 0 685.5486 84.2905
  L 678.6020 73.8744
  Z
  M 755.9453 90.8395
  A 9.89 3.65 124.1 0 0 764.5124 84.6963
  A 9.89 3.65 124.1 0 0 767.0347 74.4605
  A 9.89 3.65 124.1 0 0 758.4676 80.6037
  A 9.89 3.65 124.1 0 0 755.9453 90.8395
  Z
  M 725.35 155.12
  L 751.48 178.55
  A 4.35 4.34 44.7 0 0 757.31 178.53
  L 757.42 178.44
  A 3.53 3.52 43.7 0 0 757.30 173.49
  Q 744.12 160.76 736.34 154.18
  Q 729.91 148.75 729.52 148.30
  A 15.80 8.41 52.6 0 1 728.10 146.58
  Q 727.93 146.35 724.57 138.53
  Q 723.07 135.03 722.98 126.99
  Q 722.83 112.62 722.87 107.25
  Q 722.90 103.69 721.84 100.53
  A 2.05 2.03 83.5 0 0 720.11 99.14
  Q 715.12 98.66 714.88 104.29
  Q 714.39 115.92 714.90 133.29
  A 1.87 1.82 -32.1 0 1 714.66 134.27
  C 713.40 136.52 711.01 138.60 710.06 141.04
  C 707.36 147.94 710.94 154.67 717.95 156.65
  Q 719.24 157.02 720.33 156.86
  C 721.82 156.65 723.51 154.93 724.76 154.90
  A 0.84 0.83 -24.5 0 1 725.35 155.12
  Z
  M 659.5782 116.5134
  A 3.04 3.04 0.0 0 0 658.2283 112.4316
  L 645.9534 106.2580
  A 3.04 3.04 0.0 0 0 641.8716 107.6079
  L 641.7818 107.7866
  A 3.04 3.04 0.0 0 0 643.1317 111.8684
  L 655.4066 118.0420
  A 3.04 3.04 0.0 0 0 659.4884 116.6921
  L 659.5782 116.5134
  Z
  M 796.0916 109.1297
  A 9.16 3.49 -24.1 0 0 786.3049 109.6842
  A 9.16 3.49 -24.1 0 0 779.3684 116.6103
  A 9.16 3.49 -24.1 0 0 789.1551 116.0558
  A 9.16 3.49 -24.1 0 0 796.0916 109.1297
  Z
  M 658.0606 145.9005
  A 3.09 3.09 0.0 0 0 655.0032 142.7783
  L 638.1641 142.6020
  A 3.09 3.09 0.0 0 0 635.0419 145.6595
  L 635.0394 145.8995
  A 3.09 3.09 0.0 0 0 638.0968 149.0217
  L 654.9359 149.1980
  A 3.09 3.09 0.0 0 0 658.0581 146.1405
  L 658.0606 145.9005
  Z
  M 803.9103 147.1914
  A 3.10 3.10 0.0 0 0 800.8212 144.0806
  L 783.2813 144.0194
  A 3.10 3.10 0.0 0 0 780.1705 147.1086
  L 780.1697 147.3286
  A 3.10 3.10 0.0 0 0 783.2588 150.4394
  L 800.7987 150.5006
  A 3.10 3.10 0.0 0 0 803.9095 147.4114
  L 803.9103 147.1914
  Z
  M 796.71 184.11
  L 778.81 174.95
  A 0.24 0.24 0.0 0 0 778.49 175.06
  L 777.64 176.73
  A 5.81 4.12 27.1 0 0 780.93 183.05
  L 788.91 187.13
  A 5.81 4.12 27.1 0 0 795.96 186.11
  L 796.81 184.43
  A 0.24 0.24 0.0 0 0 796.71 184.11
  Z
  M 659.6572 177.7183
  A 3.05 3.05 0.0 0 0 655.4948 176.5874
  L 643.5543 183.4257
  A 3.05 3.05 0.0 0 0 642.4234 187.5882
  L 642.5228 187.7617
  A 3.05 3.05 0.0 0 0 646.6852 188.8926
  L 658.6257 182.0543
  A 3.05 3.05 0.0 0 0 659.7566 177.8918
  L 659.6572 177.7183
  Z
  M 684.6231 207.1358
  A 3.17 3.17 0.0 0 0 683.8909 202.7129
  L 683.7121 202.5849
  A 3.17 3.17 0.0 0 0 679.2892 203.3171
  L 672.3969 212.9442
  A 3.17 3.17 0.0 0 0 673.1291 217.3671
  L 673.3079 217.4951
  A 3.17 3.17 0.0 0 0 677.7308 216.7629
  L 684.6231 207.1358
  Z
  M 758.2586 203.0214
  A 3.30 3.30 0.0 0 0 753.6479 202.2993
  L 753.4863 202.4172
  A 3.30 3.30 0.0 0 0 752.7643 207.0279
  L 760.3414 217.4186
  A 3.30 3.30 0.0 0 0 764.9521 218.1407
  L 765.1137 218.0228
  A 3.30 3.30 0.0 0 0 765.8357 213.4121
  L 758.2586 203.0214
  Z
  M 715.89 219.03
  C 715.93 223.05 715.41 232.45 719.56 232.41
  C 723.71 232.37 722.98 222.97 722.94 218.95
  C 722.90 214.93 723.43 205.53 719.28 205.57
  C 715.13 205.61 715.85 215.01 715.89 219.03
  Z"
/>
<path fill="#080d4e" d="
  M 609.64 161.88
  L 271.32 162.98
  A 0.48 0.48 0.0 0 0 270.84 163.46
  L 270.84 425.91
  A 1.60 1.59 90.0 0 0 272.43 427.51
  L 692.08 427.51
  A 1.50 1.50 0.0 0 0 693.58 426.01
  L 693.28 253.79
  Q 693.34 253.63 693.57 253.54
  Q 693.79 253.46 693.97 253.51
  Q 697.86 254.43 701.47 254.65
  A 1.54 1.53 1.8 0 1 702.91 256.18
  Q 702.79 355.68 702.90 419.68
  Q 702.92 428.36 702.46 431.45
  C 701.62 437.21 695.48 436.81 691.00 436.62
  Q 690.60 436.60 310.75 436.68
  Q 271.18 436.68 267.73 436.64
  C 261.04 436.55 261.68 431.67 261.62 425.89
  Q 261.45 406.91 261.50 365.51
  Q 261.72 208.72 261.58 163.54
  C 261.57 159.26 262.13 154.68 267.50 154.44
  Q 272.47 154.23 292.25 154.23
  Q 350.79 154.23 373.43 154.05
  C 453.51 153.42 516.25 153.66 607.95 153.37
  A 0.69 0.68 86.7 0 1 608.63 153.98
  L 609.64 161.88
  Z"
/>
<path fill="#f5e5c9" d="
  M 609.64 161.88
  Q 611.36 170.41 612.54 174.46
  C 623.70 212.92 652.84 243.85 692.01 253.31
  Q 692.88 253.52 693.28 253.79
  L 693.58 426.01
  A 1.50 1.50 0.0 0 1 692.08 427.51
  L 272.43 427.51
  A 1.60 1.59 90.0 0 1 270.84 425.91
  L 270.84 163.46
  A 0.48 0.48 0.0 0 1 271.32 162.98
  L 609.64 161.88
  Z
  M 432.92 200.24
  A 5.22 5.22 0.0 0 0 427.70 195.02
  L 304.68 195.02
  A 5.22 5.22 0.0 0 0 299.46 200.24
  L 299.46 200.80
  A 5.22 5.22 0.0 0 0 304.68 206.02
  L 427.70 206.02
  A 5.22 5.22 0.0 0 0 432.92 200.80
  L 432.92 200.24
  Z
  M 398.92 225.90
  A 5.32 5.32 0.0 0 0 393.60 220.58
  L 304.92 220.58
  A 5.32 5.32 0.0 0 0 299.60 225.90
  L 299.60 226.04
  A 5.32 5.32 0.0 0 0 304.92 231.36
  L 393.60 231.36
  A 5.32 5.32 0.0 0 0 398.92 226.04
  L 398.92 225.90
  Z
  M 358.67 272.53
  A 4.61 4.61 0.0 0 0 354.06 267.92
  L 304.92 267.92
  A 4.61 4.61 0.0 0 0 300.31 272.53
  L 300.31 393.95
  A 4.61 4.61 0.0 0 0 304.92 398.56
  L 354.06 398.56
  A 4.61 4.61 0.0 0 0 358.67 393.95
  L 358.67 272.53
  Z
  M 636.39 284.10
  A 5.41 5.41 0.0 0 0 630.98 278.69
  L 549.78 278.69
  A 5.41 5.41 0.0 0 0 544.37 284.10
  L 544.37 284.26
  A 5.41 5.41 0.0 0 0 549.78 289.67
  L 630.98 289.67
  A 5.41 5.41 0.0 0 0 636.39 284.26
  L 636.39 284.10
  Z
  M 432.81 306.43
  A 5.04 5.04 0.0 0 0 427.77 301.39
  L 384.39 301.39
  A 5.04 5.04 0.0 0 0 379.35 306.43
  L 379.35 393.53
  A 5.04 5.04 0.0 0 0 384.39 398.57
  L 427.77 398.57
  A 5.04 5.04 0.0 0 0 432.81 393.53
  L 432.81 306.43
  Z
  M 636.17 312.70
  A 5.00 5.00 0.0 0 0 631.17 307.70
  L 549.71 307.70
  A 5.00 5.00 0.0 0 0 544.71 312.70
  L 544.71 313.64
  A 5.00 5.00 0.0 0 0 549.71 318.64
  L 631.17 318.64
  A 5.00 5.00 0.0 0 0 636.17 313.64
  L 636.17 312.70
  Z
  M 636.5101 342.3702
  A 5.29 5.29 0.0 0 0 631.2293 337.0710
  L 549.9094 336.9290
  A 5.29 5.29 0.0 0 0 544.6102 342.2098
  L 544.6099 342.3698
  A 5.29 5.29 0.0 0 0 549.8907 347.6690
  L 631.2106 347.8110
  A 5.29 5.29 0.0 0 0 636.5098 342.5302
  L 636.5101 342.3702
  Z
  M 501.8549 342.1341
  A 4.64 4.64 0.0 0 0 497.2230 337.4860
  L 455.9830 337.4141
  A 4.64 4.64 0.0 0 0 451.3349 342.0460
  L 451.2451 393.4859
  A 4.64 4.64 0.0 0 0 455.8770 398.1340
  L 497.1170 398.2059
  A 4.64 4.64 0.0 0 0 501.7651 393.5740
  L 501.8549 342.1341
  Z
  M 636.5801 371.3603
  A 5.31 5.31 0.0 0 0 631.2793 366.0411
  L 549.8595 365.8990
  A 5.31 5.31 0.0 0 0 544.5402 371.1997
  L 544.5399 371.3397
  A 5.31 5.31 0.0 0 0 549.8407 376.6589
  L 631.2605 376.8010
  A 5.31 5.31 0.0 0 0 636.5798 371.5003
  L 636.5801 371.3603
  Z"
/>
</g>
<g>
<rect fill="#cd6229" x="-3.37" y="-12.78" transform="translate(719.50,69.85) rotate(0.2)" width="6.74" height="25.56" rx="3.27"/>
<rect fill="#cd6229" x="-3.42" y="-9.58" transform="translate(679.23,80.98) rotate(-33.7)" width="6.84" height="19.16" rx="3.32"/>
<ellipse fill="#cd6229" cx="0.00" cy="0.00" transform="translate(761.49,82.65) rotate(124.1)" rx="9.89" ry="3.65"/>
<path fill="#080d4e" d="
  M 724.76 154.90
  C 723.51 154.93 721.82 156.65 720.33 156.86
  Q 719.24 157.02 717.95 156.65
  C 710.94 154.67 707.36 147.94 710.06 141.04
  C 711.01 138.60 713.40 136.52 714.66 134.27
  A 1.87 1.82 -32.1 0 0 714.90 133.29
  Q 714.39 115.92 714.88 104.29
  Q 715.12 98.66 720.11 99.14
  A 2.05 2.03 83.5 0 1 721.84 100.53
  Q 722.90 103.69 722.87 107.25
  Q 722.83 112.62 722.98 126.99
  Q 723.07 135.03 724.57 138.53
  Q 727.93 146.35 728.10 146.58
  A 15.80 8.41 52.6 0 0 729.52 148.30
  Q 729.91 148.75 736.34 154.18
  Q 744.12 160.76 757.30 173.49
  A 3.53 3.52 43.7 0 1 757.42 178.44
  L 757.31 178.53
  A 4.35 4.34 44.7 0 1 751.48 178.55
  L 725.35 155.12
  A 0.84 0.83 -24.5 0 0 724.76 154.90
  Z"
/>
<rect fill="#cd6229" x="-9.91" y="-3.14" transform="translate(650.68,112.15) rotate(26.7)" width="19.82" height="6.28" rx="3.04"/>
<ellipse fill="#cd6229" cx="0.00" cy="0.00" transform="translate(787.73,112.87) rotate(-24.1)" rx="9.16" ry="3.49"/>
<rect fill="#cd6229" x="-11.51" y="-3.21" transform="translate(646.55,145.90) rotate(0.6)" width="23.02" height="6.42" rx="3.09"/>
<rect fill="#cd6229" x="-11.87" y="-3.21" transform="translate(792.04,147.26) rotate(0.2)" width="23.74" height="6.42" rx="3.10"/>
<path fill="#cd6229" d="
  M 796.71 184.11
  A 0.24 0.24 0.0 0 1 796.81 184.43
  L 795.96 186.11
  A 5.81 4.12 27.1 0 1 788.91 187.13
  L 780.93 183.05
  A 5.81 4.12 27.1 0 1 777.64 176.73
  L 778.49 175.06
  A 0.24 0.24 0.0 0 1 778.81 174.95
  L 796.71 184.11
  Z"
/>
<rect fill="#cd6229" x="-9.93" y="-3.15" transform="translate(651.09,182.74) rotate(-29.8)" width="19.86" height="6.30" rx="3.05"/>
<rect fill="#cd6229" x="299.46" y="195.02" width="133.46" height="11.00" rx="5.22"/>
<rect fill="#cd6229" x="-3.28" y="-9.09" transform="translate(678.51,210.04) rotate(35.6)" width="6.56" height="18.18" rx="3.17"/>
<rect fill="#cd6229" x="-3.40" y="-9.73" transform="translate(759.30,210.22) rotate(-36.1)" width="6.80" height="19.46" rx="3.30"/>
<path fill="#cd6229" d="
  M 719.28 205.57
  C 723.43 205.53 722.90 214.93 722.94 218.95
  C 722.98 222.97 723.71 232.37 719.56 232.41
  C 715.41 232.45 715.93 223.05 715.89 219.03
  C 715.85 215.01 715.13 205.61 719.28 205.57
  Z"
/>
<rect fill="#cd6229" x="299.60" y="220.58" width="99.32" height="10.78" rx="5.32"/>
<rect fill="#cd6229" x="300.31" y="267.92" width="58.36" height="130.64" rx="4.61"/>
<rect fill="#cd6229" x="544.37" y="278.69" width="92.02" height="10.98" rx="5.41"/>
<rect fill="#cd6229" x="379.35" y="301.39" width="53.46" height="97.18" rx="5.04"/>
<rect fill="#cd6229" x="544.71" y="307.70" width="91.46" height="10.94" rx="5.00"/>
<rect fill="#cd6229" x="-45.95" y="-5.37" transform="translate(590.56,342.37) rotate(0.1)" width="91.90" height="10.74" rx="5.29"/>
<rect fill="#cd6229" x="-25.26" y="-30.36" transform="translate(476.55,367.81) rotate(0.1)" width="50.52" height="60.72" rx="4.64"/>
<rect fill="#cd6229" x="-46.02" y="-5.38" transform="translate(590.56,371.35) rotate(0.1)" width="92.04" height="10.76" rx="5.31"/>
</g>
</svg>
