<?xml version="1.0" encoding="UTF-8" standalone="no"?>
<!DOCTYPE svg PUBLIC "-//W3C//DTD SVG 1.0//EN" "http://www.w3.org/TR/2001/REC-SVG-20010904/DTD/svg10.dtd">
<svg xmlns="http://www.w3.org/2000/svg" version="1.0" viewBox="0.00 0.00 800.00 800.00">
<g stroke-width="2.00" fill="none" stroke-linecap="butt">
<path stroke="#703a3c" d="
  M 426.22 397.95
  L 422.67 390.96"
/>
<path stroke="#703a3c" d="
  M 401.45 352.33
  L 397.91 345.63"
/>
<path stroke="#703a3c" d="
  M 361.50 277.61
  Q 356.65 270.26 352.93 262.05"
/>
<path stroke="#703a3c" d="
  M 286.60 215.55
  Q 281.23 207.20 277.54 198.29"
/>
<path stroke="#703a3c" d="
  M 215.85 190.33
  L 209.11 193.58"
/>
<path stroke="#703a3c" d="
  M 141.86 132.88
  L 131.55 121.13"
/>
<path stroke="#703a3c" d="
  M 88.09 120.58
  L 85.16 127.63"
/>
<path stroke="#703a3c" d="
  M 63.87 194.17
  Q 62.11 201.85 59.35 210.01
  C 58.32 213.07 56.79 219.37 59.50 221.75
  Q 61.86 223.83 63.71 225.54"
/>
<path stroke="#703a3c" d="
  M 76.70 205.54
  L 78.76 198.28"
/>
<path stroke="#703a3c" d="
  M 135.16 152.18
  Q 139.92 157.13 142.29 161.33"
/>
<path stroke="#703a3c" d="
  M 174.10 198.17
  L 180.27 205.06"
/>
<path stroke="#703a3c" d="
  M 209.02 214.90
  L 215.76 211.07"
/>
<path stroke="#703a3c" d="
  M 280.28 246.03
  Q 285.00 251.93 286.70 258.41"
/>
<path stroke="#703a3c" d="
  M 293.26 271.71
  L 296.35 277.82"
/>
<path stroke="#703a3c" d="
  M 352.90 301.80
  L 359.62 314.04"
/>
<path stroke="#703a3c" d="
  M 376.55 345.90
  L 379.84 352.30"
/>
<path stroke="#703a3c" d="
  M 259.64 390.82
  L 262.94 398.62"
/>
<path stroke="#703a3c" d="
  M 528.33 589.10
  L 543.61 618.06"
/>
<path stroke="#703a3c" d="
  M 526.03 632.63
  L 507.57 598.38"
/>
<path stroke="#703a3c" d="
  M 404.05 398.33
  L 399.93 390.79"
/>
<path stroke="#703a3c" d="
  M 340.35 278.04
  Q 338.78 273.94 336.09 270.78"
/>
<path stroke="#703a3c" d="
  M 331.62 270.98
  Q 328.51 273.73 326.23 278.03"
/>
<path stroke="#703a3c" d="
  M 260.87 205.22
  L 256.28 197.20"
/>
<path stroke="#703a3c" d="
  M 241.12 197.67
  Q 233.66 200.40 226.70 205.41"
/>
<path stroke="#703a3c" d="
  M 113.61 127.53
  L 107.37 121.15
  A 1.20 1.20 0.0 0 0 105.40 121.53
  L 102.86 127.77"
/>
<path stroke="#703a3c" d="
  M 303.52 390.78
  L 304.67 398.34"
/>
<path stroke="#703a3c" d="
  M 318.83 484.98
  Q 318.39 481.64 319.26 476.25
  C 320.00 471.66 319.76 464.99 319.04 459.25
  Q 317.71 448.60 312.44 431.83
  Q 311.73 429.57 310.69 428.34
  A 2.02 2.02 0.0 0 0 308.76 427.67
  Q 299.63 429.43 288.28 432.07
  Q 279.03 434.22 259.29 435.55
  C 255.21 435.82 253.95 438.12 255.72 441.76
  Q 259.40 449.30 263.89 457.36
  Q 265.33 459.95 264.89 462.37"
/>
<path stroke="#703a3c" d="
  M 270.36 391.03
  L 273.69 398.35"
/>
<path stroke="#703a3c" d="
  M 286.51 398.45
  L 285.21 390.70"
/>
<path stroke="#703a3c" d="
  M 668.66 441.96
  C 667.00 437.62 665.49 433.24 663.63 429.38
  Q 654.56 410.58 640.15 393.87
  Q 636.62 389.78 631.15 385.34
  Q 628.71 383.35 626.83 385.85
  C 618.37 397.12 611.04 407.99 601.88 418.61
  Q 592.02 430.04 579.26 438.10"
/>
<path stroke="#703a3c" d="
  M 550.19 513.78
  Q 553.40 502.53 557.83 491.90
  C 558.79 489.62 560.27 485.33 557.82 483.66
  Q 556.17 482.54 551.52 481.00
  C 545.44 478.99 538.87 477.18 532.48 474.43
  Q 524.42 470.97 516.99 468.02
  Q 511.46 465.83 505.84 465.80
  A 1.74 1.67 -59.7 0 0 504.89 466.07
  Q 503.56 466.90 503.00 468.54
  Q 500.68 475.34 499.39 479.83
  Q 499.13 480.74 498.64 480.55"
/>
<path stroke="#7e7686" d="
  M 538.72 535.51
  Q 539.08 522.86 543.77 511.04
  Q 548.15 499.99 553.01 488.91
  A 1.20 1.19 -71.5 0 0 552.20 487.27
  Q 545.34 485.60 540.17 483.68
  Q 531.98 480.64 510.32 472.03
  A 1.65 1.65 0.0 0 0 508.16 473.00
  Q 501.44 491.46 509.73 509.47
  A 1.93 1.93 0.0 0 1 508.89 511.98
  Q 507.60 512.67 508.14 513.05"
/>
<path stroke="#703a3c" d="
  M 416.36 533.41
  Q 415.13 531.54 414.62 530.35
  Q 408.06 514.82 401.72 501.28
  Q 400.77 499.27 399.07 496.66
  C 397.15 493.73 395.61 493.66 393.08 495.61
  C 387.52 499.90 377.19 509.65 370.18 514.28
  Q 357.83 522.46 343.45 527.71
  A 1.99 1.97 -77.3 0 0 342.73 528.17
  Q 340.87 530.09 341.59 532.64
  Q 344.71 543.60 344.97 553.40"
/>
<path stroke="#7e7686" d="
  M 370.07 583.19
  C 376.28 579.70 382.84 577.46 388.51 573.02
  Q 402.32 562.21 411.26 547.22
  C 412.74 544.74 413.16 543.02 412.12 540.39
  C 407.35 528.38 402.19 515.09 395.54 503.03
  A 1.26 1.26 0.0 0 0 393.58 502.71
  C 385.91 509.80 378.11 516.66 369.08 522.16
  Q 359.26 528.15 349.04 532.09
  A 1.17 1.17 0.0 0 0 348.34 533.52
  Q 349.64 537.82 350.71 543.30
  C 352.32 551.55 351.64 558.82 349.72 566.74
  C 349.16 569.06 347.74 569.58 345.53 569.13"
/>
<path stroke="#703a3c" d="
  M 345.53 569.13
  Q 344.90 569.02 344.32 569.11"
/>
<path stroke="#e1a172" d="
  M 344.74 569.43
  Q 345.30 569.30 345.53 569.13"
/>
<path stroke="#703a3c" d="
  M 695.41 564.57
  C 692.66 557.79 690.31 550.23 687.18 544.27
  Q 684.21 538.61 675.77 522.46
  Q 673.06 517.29 672.19 516.79
  A 7.70 1.36 28.6 0 0 671.24 516.26
  C 666.41 513.64 653.80 522.03 645.93 526.46
  Q 637.93 530.96 631.11 536.37
  Q 623.41 542.48 616.32 549.51"
/>
<path stroke="#7e7686" d="
  M 639.57 601.80
  Q 639.50 598.81 641.37 597.63
  Q 657.43 587.48 673.31 576.38
  C 678.08 573.05 683.00 570.48 688.17 568.96
  A 1.09 1.09 0.0 0 0 688.94 567.82
  C 688.32 560.50 684.53 552.73 680.89 545.36
  Q 679.60 542.76 669.09 522.84
  A 1.69 1.69 0.0 0 0 666.86 522.11
  Q 655.31 527.74 643.77 535.03
  Q 629.42 544.08 618.16 557.73
  A 1.60 1.60 0.0 0 0 618.25 559.87
  Q 620.68 562.33 622.53 564.72
  C 629.10 573.17 630.37 582.92 630.17 593.50
  Q 630.11 596.96 628.81 599.53"
/>
<path stroke="#703a3c" d="
  M 314.44 613.25
  Q 303.83 608.84 293.38 604.32
  Q 281.53 599.19 277.17 598.07
  C 263.57 594.59 248.59 594.31 235.04 597.04
  Q 232.96 597.46 232.00 598.76
  Q 229.86 601.70 228.80 606.41
  Q 227.55 611.96 226.44 617.66"
/>
<path stroke="#7e7686" d="
  M 630.19 392.42
  A 0.91 0.91 0.0 0 0 629.10 392.76
  Q 619.68 406.70 609.26 419.03
  C 601.46 428.26 594.78 435.07 585.88 440.98
  A 1.59 1.59 0.0 0 0 585.35 443.04
  Q 586.12 444.52 586.67 445.32
  Q 591.53 452.49 598.96 464.24
  C 602.98 470.62 605.54 476.92 607.47 483.76
  A 1.76 1.76 0.0 0 0 609.98 484.84
  Q 622.84 478.14 633.32 467.56
  Q 646.85 453.92 660.47 442.48
  C 662.81 440.52 661.61 438.59 660.53 436.35
  Q 648.88 412.08 630.71 392.80
  Q 630.43 392.51 630.19 392.42"
/>
<path stroke="#7e7686" d="
  M 648.23 437.15
  A 2.29 2.29 0.0 0 1 647.86 439.92
  C 645.30 442.45 640.37 446.36 640.00 449.97
  A 1.23 1.19 87.2 0 0 641.43 451.31
  Q 641.85 451.22 642.04 451.05
  Q 645.68 447.83 652.22 441.10
  A 4.05 4.05 0.0 0 0 653.18 437.07
  Q 652.57 435.14 650.83 432.18
  Q 644.49 421.40 638.08 412.04
  A 1.70 1.70 0.0 0 0 635.47 411.80
  L 632.70 414.57
  A 3.14 3.12 32.3 0 1 629.43 415.30
  L 624.55 413.54
  A 1.45 1.44 28.9 0 0 622.93 414.00
  Q 614.30 424.88 603.99 435.24
  Q 602.28 436.97 596.33 441.69
  C 594.48 443.16 593.37 444.73 594.87 446.87
  C 598.34 451.85 601.01 455.09 603.69 460.27
  Q 608.68 469.88 609.99 471.90
  A 1.12 1.12 0.0 0 0 611.99 471.65
  L 612.02 471.56
  A 6.15 6.15 0.0 0 0 611.91 467.28
  Q 607.20 455.53 601.21 447.76
  A 2.49 2.48 50.6 0 1 601.54 444.36
  Q 614.00 433.52 623.91 420.49
  A 2.06 2.05 35.5 0 1 626.69 420.03
  C 630.14 422.35 632.66 420.32 635.25 418.12
  A 1.47 1.47 0.0 0 1 637.47 418.51
  L 648.23 437.15"
/>
<path stroke="#7e7686" d="
  M 616.5306 461.7802
  A 12.26 10.42 113.3 0 0 630.9502 454.6416
  A 12.26 10.42 113.3 0 0 626.2294 439.2598
  A 12.26 10.42 113.3 0 0 611.8098 446.3984
  A 12.26 10.42 113.3 0 0 616.5306 461.7802"
/>
<path stroke="#7e7686" d="
  M 262.78 442.51
  Q 265.64 447.26 268.80 452.95
  C 273.08 460.64 275.31 470.18 278.59 481.98
  Q 280.74 489.69 287.10 496.91
  Q 293.11 503.72 302.25 505.32
  A 2.07 2.07 0.0 0 0 304.50 504.13
  C 308.95 494.20 313.36 482.21 313.54 471.18
  C 313.76 458.06 310.69 447.59 307.15 435.28
  A 1.54 1.53 74.3 0 0 305.27 434.22
  Q 284.95 439.80 263.31 441.48
  A 0.68 0.68 0.0 0 0 262.78 442.51"
/>
<path stroke="#7e7686" d="
  M 273.15 447.20
  Q 273.10 447.92 273.23 448.24
  Q 275.87 454.61 277.43 461.06
  Q 277.67 462.08 278.84 462.21
  A 1.80 1.74 -86.9 0 0 280.78 460.41
  Q 280.79 457.11 279.04 452.38
  A 1.58 1.58 0.0 0 1 280.26 450.28
  L 293.76 447.96
  A 1.02 1.01 80.2 0 1 294.94 448.80
  C 295.31 450.98 295.87 453.32 297.98 454.31
  C 301.43 455.93 304.19 455.92 304.55 460.51
  Q 305.14 467.99 306.05 471.95
  Q 306.29 472.99 306.83 473.11
  A 1.89 1.80 -80.8 0 0 309.00 471.46
  Q 309.84 464.28 307.54 456.59
  C 306.44 452.90 304.27 451.39 301.04 450.11
  A 2.17 2.15 -89.8 0 1 299.80 448.85
  L 297.89 443.70
  A 1.62 1.61 74.9 0 0 296.11 442.67
  L 273.78 446.51
  A 0.76 0.75 -3.0 0 0 273.15 447.20"
/>
<path stroke="#7e7686" d="
  M 298.6017 465.8475
  A 9.50 9.12 -42.7 0 0 285.4352 465.5876
  A 9.50 9.12 -42.7 0 0 284.6383 478.7325
  A 9.50 9.12 -42.7 0 0 297.8048 478.9924
  A 9.50 9.12 -42.7 0 0 298.6017 465.8475"
/>
<path stroke="#7e7686" d="
  M 618.5293 457.7030
  A 7.58 6.22 112.5 0 0 627.1765 453.0803
  A 7.58 6.22 112.5 0 0 624.3307 443.6970
  A 7.58 6.22 112.5 0 0 615.6835 448.3197
  A 7.58 6.22 112.5 0 0 618.5293 457.7030"
/>
<path stroke="#7e7686" d="
  M 295.2513 469.7118
  A 4.71 4.52 -36.6 0 0 288.7751 468.8913
  A 4.71 4.52 -36.6 0 0 287.6887 475.3282
  A 4.71 4.52 -36.6 0 0 294.1649 476.1487
  A 4.71 4.52 -36.6 0 0 295.2513 469.7118"
/>
<path stroke="#7e7686" d="
  M 512.94 491.66
  L 515.82 486.68
  A 1.58 1.58 0.0 0 1 517.79 486.01
  Q 526.77 489.69 536.04 493.45
  Q 539.06 494.67 536.87 500.88
  A 1.70 1.70 0.0 0 0 538.11 503.10
  L 538.45 503.18
  A 2.30 2.29 -77.5 0 0 541.18 501.44
  L 542.61 494.97
  A 3.44 3.43 -64.4 0 0 541.42 491.57
  Q 538.98 489.59 535.39 488.10
  Q 528.73 485.33 515.08 480.75
  A 1.49 1.48 27.5 0 0 513.42 481.27
  Q 509.91 485.99 511.05 491.36
  A 1.03 1.02 -35.9 0 0 512.94 491.66"
/>
<path stroke="#7e7686" d="
  M 530.2219 518.2998
  A 10.30 9.83 63.4 0 0 534.3995 504.6885
  A 10.30 9.83 63.4 0 0 520.9981 499.8802
  A 10.30 9.83 63.4 0 0 516.8205 513.4915
  A 10.30 9.83 63.4 0 0 530.2219 518.2998"
/>
<path stroke="#7e7686" d="
  M 529.0498 513.9316
  A 5.93 5.44 54.9 0 0 530.0907 505.9520
  A 5.93 5.44 54.9 0 0 522.2302 504.2284
  A 5.93 5.44 54.9 0 0 521.1893 512.2080
  A 5.93 5.44 54.9 0 0 529.0498 513.9316"
/>
<path stroke="#7e7686" d="
  M 390.06 563.77
  L 390.29 563.70
  A 2.10 2.05 -76.1 0 0 391.05 563.23
  Q 399.84 554.53 405.69 544.93
  A 4.33 4.33 0.0 0 0 405.98 541.00
  L 398.46 523.19
  A 2.00 2.00 0.0 0 0 395.89 522.11
  C 394.98 522.41 393.75 523.21 392.63 523.14
  C 389.84 522.96 388.10 520.41 386.56 518.17
  A 1.65 1.65 0.0 0 0 384.19 517.78
  C 374.46 525.23 366.28 530.88 356.58 535.77
  A 3.06 3.06 0.0 0 0 354.92 538.87
  Q 355.48 543.44 355.74 547.45
  Q 355.83 548.79 357.02 549.38
  A 1.29 1.21 -69.3 0 0 358.75 548.53
  Q 359.74 545.01 359.34 540.84
  A 1.66 1.65 73.3 0 1 360.21 539.21
  Q 372.62 532.69 383.02 524.54
  A 1.97 1.96 52.3 0 1 385.79 524.90
  Q 389.42 529.64 394.54 528.29
  A 1.33 1.32 72.3 0 1 396.12 529.11
  L 401.11 542.52
  A 2.48 2.47 52.5 0 1 400.81 544.82
  Q 399.00 547.34 391.46 556.70
  Q 389.22 559.47 388.44 562.24
  A 1.26 1.26 0.0 0 0 390.06 563.77"
/>
<path stroke="#7e7686" d="
  M 368.0277 568.3034
  A 12.86 10.96 111.4 0 0 382.9244 560.3290
  A 12.86 10.96 111.4 0 0 377.4123 544.3566
  A 12.86 10.96 111.4 0 0 362.5156 552.3310
  A 12.86 10.96 111.4 0 0 368.0277 568.3034"
/>
<path stroke="#7e7686" d="
  M 663.32 573.65
  A 1.38 1.38 0.0 0 0 665.67 574.42
  C 669.09 570.88 673.52 566.06 679.09 563.27
  A 2.21 2.21 0.0 0 0 680.18 560.54
  Q 677.81 554.01 673.40 544.40
  Q 672.61 542.68 671.40 541.85
  A 1.98 1.93 -24.3 0 0 670.49 541.52
  Q 668.09 541.28 667.44 541.23
  C 663.41 540.95 662.34 537.46 661.00 534.28
  A 1.87 1.87 0.0 0 0 658.76 533.20
  Q 657.19 533.65 655.12 534.85
  Q 640.20 543.53 628.11 555.22
  A 2.84 2.82 52.5 0 0 627.66 558.71
  L 627.71 558.79
  A 1.83 1.83 0.0 0 0 630.54 559.17
  Q 642.94 547.42 656.48 539.38
  A 1.41 1.40 -27.3 0 1 658.47 540.01
  Q 659.97 543.33 662.94 545.08
  C 664.47 545.99 666.74 545.86 668.10 546.24
  A 2.41 2.28 70.8 0 1 668.99 546.70
  Q 669.74 547.33 670.55 549.22
  Q 673.79 556.84 674.73 559.17
  A 2.09 2.09 0.0 0 1 673.72 561.82
  Q 667.50 564.92 664.18 570.88
  Q 663.19 572.65 663.32 573.65"
/>
<path stroke="#7e7686" d="
  M 641.0864 583.7075
  A 12.63 11.05 109.2 0 0 655.6754 575.4140
  A 12.63 11.05 109.2 0 0 649.3936 559.8525
  A 12.63 11.05 109.2 0 0 634.8046 568.1460
  A 12.63 11.05 109.2 0 0 641.0864 583.7075"
/>
<path stroke="#7e7686" d="
  M 369.5387 563.8195
  A 8.14 6.66 112.7 0 0 378.8241 558.8801
  A 8.14 6.66 112.7 0 0 375.8213 548.8005
  A 8.14 6.66 112.7 0 0 366.5359 553.7399
  A 8.14 6.66 112.7 0 0 369.5387 563.8195"
/>
<path stroke="#7e7686" d="
  M 642.3623 579.2833
  A 7.93 6.81 111.2 0 0 651.5791 574.3527
  A 7.93 6.81 111.2 0 0 648.0977 564.4967
  A 7.93 6.81 111.2 0 0 638.8809 569.4273
  A 7.93 6.81 111.2 0 0 642.3623 579.2833"
/>
<path stroke="#7e7686" d="
  M 239.30 646.41
  Q 248.76 646.57 255.66 648.35
  C 263.39 650.35 272.27 654.73 280.72 656.73
  A 1.60 1.59 16.4 0 0 282.58 655.72
  Q 286.88 643.80 296.93 636.49
  C 302.68 632.30 310.75 627.43 316.96 623.49
  A 1.04 1.03 53.1 0 0 317.18 621.92
  Q 316.95 621.67 316.53 621.49
  Q 301.43 614.73 289.19 609.08
  Q 273.59 601.87 257.01 601.45
  C 250.98 601.29 245.62 602.02 237.00 602.63
  A 1.30 1.30 0.0 0 0 235.86 603.50
  C 231.03 617.91 234.73 631.43 238.37 645.68
  A 0.97 0.96 -6.6 0 0 239.30 646.41"
/>
<path stroke="#7e7686" d="
  M 304.81 623.68
  C 288.87 614.95 272.69 606.82 254.02 607.23
  Q 251.91 607.27 251.09 607.72
  A 1.95 1.90 -5.4 0 0 250.20 608.77
  L 247.43 616.56
  A 2.30 2.29 87.8 0 1 246.20 617.89
  L 242.62 619.48
  A 0.54 0.44 6.0 0 0 242.45 619.59
  C 238.18 623.17 238.96 626.89 240.20 631.87
  Q 240.97 634.96 241.90 636.99
  A 1.88 1.80 64.2 0 0 244.39 637.92
  Q 245.12 637.55 245.04 636.23
  Q 244.77 632.26 243.39 627.58
  C 241.79 622.13 249.91 623.75 251.48 619.21
  Q 252.65 615.83 253.31 613.53
  A 2.03 2.03 0.0 0 1 255.39 612.06
  C 271.79 612.97 284.83 618.25 299.51 626.49
  A 4.60 4.60 0.0 0 0 303.56 626.72
  L 304.68 626.24
  A 1.43 1.42 48.0 0 0 304.81 623.68"
/>
<path stroke="#7e7686" d="
  M 282.6355 634.8889
  A 13.33 12.31 9.8 0 0 271.5953 620.4896
  A 13.33 12.31 9.8 0 0 256.3645 630.3511
  A 13.33 12.31 9.8 0 0 267.4047 644.7504
  A 13.33 12.31 9.8 0 0 282.6355 634.8889"
/>
<path stroke="#7e7686" d="
  M 278.2781 634.5180
  A 8.87 7.94 11.3 0 0 271.1358 624.9939
  A 8.87 7.94 11.3 0 0 260.8819 631.0420
  A 8.87 7.94 11.3 0 0 268.0242 640.5661
  A 8.87 7.94 11.3 0 0 278.2781 634.5180"
/>
</g>
<g>
<path fill="#0d0f50" d="
  M 426.22 397.95
  L 422.67 390.96
  Q 424.68 390.42 426.00 390.41
  Q 478.94 390.12 545.49 390.03
  A 1.42 1.42 0.0 0 0 546.91 388.61
  Q 546.81 229.15 545.45 53.50
  Q 545.44 52.41 545.25 50.31
  A 1.24 1.23 87.2 0 0 544.01 49.18
  L 500.20 49.45
  A 0.95 0.95 0.0 0 0 499.26 50.40
  L 499.69 118.34
  A 1.40 1.39 89.6 0 0 501.09 119.73
  L 524.91 119.58
  A 2.82 2.82 0.0 0 1 527.75 122.38
  L 527.75 123.62
  A 2.86 2.85 89.7 0 1 524.91 126.50
  L 500.96 126.65
  A 1.37 1.37 0.0 0 0 499.60 128.03
  L 500.02 195.71
  A 1.21 1.20 89.5 0 0 501.23 196.91
  L 524.83 196.76
  A 3.26 3.26 0.0 0 1 528.11 200.00
  L 528.12 200.71
  A 2.83 2.83 0.0 0 1 525.30 203.56
  L 501.24 203.71
  A 1.50 1.50 0.0 0 0 499.75 205.22
  L 500.15 269.20
  A 1.26 1.25 89.5 0 0 501.41 270.45
  L 525.51 270.30
  A 2.66 2.65 -0.3 0 1 528.19 272.94
  L 528.21 274.82
  A 2.36 2.36 0.0 0 1 525.87 277.19
  L 500.79 277.34
  A 1.03 1.03 0.0 0 0 499.77 278.37
  L 500.18 344.22
  A 1.15 1.15 0.0 0 0 501.34 345.36
  L 525.58 345.21
  A 2.57 2.57 0.0 0 1 528.16 347.76
  L 528.17 349.43
  A 2.20 2.20 0.0 0 1 525.98 351.64
  L 500.92 351.80
  A 0.95 0.94 -90.0 0 0 499.98 352.75
  L 500.08 368.55
  A 3.30 3.30 0.0 0 1 496.80 371.87
  L 496.26 371.87
  A 3.25 3.25 0.0 0 1 492.99 368.64
  L 492.89 352.90
  A 1.22 1.22 0.0 0 0 491.66 351.68
  L 432.59 352.04
  A 1.38 1.37 89.8 0 0 431.23 353.42
  L 431.23 368.98
  A 3.98 3.97 85.0 0 1 427.95 372.90
  L 427.66 372.97
  A 2.87 2.87 0.0 0 1 424.12 370.19
  L 424.01 353.29
  A 1.12 1.12 0.0 0 0 422.89 352.18
  L 401.45 352.33
  L 397.91 345.63
  L 422.80 345.43
  A 1.45 1.44 -0.6 0 0 424.23 343.98
  L 423.82 278.44
  A 1.02 1.02 0.0 0 0 422.80 277.43
  L 361.50 277.61
  Q 356.65 270.26 352.93 262.05
  L 352.77 205.71
  A 1.23 1.22 -0.2 0 0 351.53 204.49
  L 288.33 204.88
  A 1.49 1.48 0.6 0 0 286.85 206.32
  L 286.60 215.55
  Q 281.23 207.20 277.54 198.29
  Q 279.50 198.55 280.12 196.63
  A 1.48 1.27 -40.7 0 0 280.18 196.23
  L 279.76 128.31
  A 1.20 1.20 0.0 0 0 278.55 127.12
  L 216.75 127.50
  A 1.11 1.11 0.0 0 0 215.65 128.61
  L 215.85 190.33
  L 209.11 193.58
  L 208.78 128.25
  A 1.11 1.10 0.0 0 0 207.67 127.15
  L 143.69 127.55
  A 1.31 1.31 0.0 0 0 142.40 128.69
  L 141.86 132.88
  L 131.55 121.13
  Q 134.85 120.61 134.84 118.50
  Q 134.63 83.25 134.54 51.57
  A 1.03 1.03 0.0 0 0 133.50 50.54
  L 64.66 50.96
  A 1.56 1.55 89.6 0 0 63.12 52.53
  L 63.53 119.20
  A 1.41 1.41 0.0 0 0 64.94 120.60
  L 88.09 120.58
  L 85.16 127.63
  L 64.64 127.73
  A 1.30 1.30 0.0 0 0 63.34 129.04
  Q 63.47 157.69 63.36 186.00
  Q 63.34 189.95 63.87 194.17
  Q 62.11 201.85 59.35 210.01
  C 58.32 213.07 56.79 219.37 59.50 221.75
  Q 61.86 223.83 63.71 225.54
  L 64.11 271.54
  A 1.28 1.28 0.0 0 0 65.40 272.80
  L 134.21 272.37
  A 1.05 1.05 0.0 0 0 135.26 271.31
  L 134.86 206.86
  A 1.25 1.24 0.0 0 0 133.62 205.63
  L 76.70 205.54
  L 78.76 198.28
  L 133.77 198.17
  A 1.19 1.18 -90.0 0 0 134.95 196.98
  L 135.16 152.18
  Q 139.92 157.13 142.29 161.33
  L 142.26 196.70
  A 1.54 1.53 -0.0 0 0 143.80 198.23
  L 174.10 198.17
  L 180.27 205.06
  Q 176.62 205.58 175.00 205.58
  Q 161.18 205.53 144.69 205.54
  Q 143.19 205.54 142.73 206.31
  Q 142.24 207.12 142.24 208.50
  Q 142.33 233.83 142.30 270.92
  A 1.31 1.30 89.8 0 0 143.61 272.23
  L 208.16 271.83
  A 0.96 0.96 0.0 0 0 209.11 270.87
  L 209.02 214.90
  L 215.76 211.07
  L 215.66 270.44
  A 1.62 1.61 -0.0 0 0 217.29 272.06
  L 278.66 271.68
  A 1.68 1.68 0.0 0 0 280.33 270.00
  L 280.28 246.03
  Q 285.00 251.93 286.70 258.41
  L 286.89 269.64
  A 1.78 1.78 0.0 0 0 287.88 271.20
  Q 289.98 272.21 293.26 271.71
  L 296.35 277.82
  Q 292.50 278.70 288.93 278.28
  A 1.78 1.78 0.0 0 0 286.95 280.06
  L 287.35 344.79
  A 1.16 1.15 -76.4 0 0 287.95 345.79
  Q 288.97 346.35 290.75 346.34
  Q 310.76 346.23 351.99 346.09
  A 1.02 1.02 0.0 0 0 353.01 345.06
  L 352.90 301.80
  L 359.62 314.04
  L 359.53 344.44
  A 1.46 1.46 0.0 0 0 360.99 345.90
  L 376.55 345.90
  L 379.84 352.30
  L 361.05 352.51
  A 1.42 1.42 0.0 0 0 359.64 353.94
  L 359.74 369.79
  A 3.34 3.34 0.0 0 1 356.67 373.14
  L 356.17 373.18
  A 2.89 2.89 0.0 0 1 353.04 370.32
  L 352.94 353.90
  A 1.22 1.22 0.0 0 0 351.72 352.69
  L 217.00 353.53
  A 1.19 1.19 0.0 0 0 215.82 354.73
  L 215.92 371.68
  A 3.41 3.41 0.0 0 1 212.84 375.10
  L 212.40 375.14
  A 2.86 2.85 -2.9 0 1 209.27 372.32
  L 209.16 354.58
  A 1.11 1.10 0.0 0 0 208.05 353.48
  L 143.51 353.88
  A 1.07 1.07 0.0 0 0 142.45 354.96
  L 142.55 371.78
  A 3.13 3.12 89.6 0 1 139.45 374.93
  L 138.97 374.93
  A 3.63 3.62 -0.3 0 1 135.32 371.33
  L 135.22 355.26
  A 1.22 1.21 89.5 0 0 134.00 354.05
  L 66.04 354.47
  A 1.24 1.24 0.0 0 0 64.81 355.72
  L 65.02 390.38
  A 1.06 1.05 89.5 0 0 66.08 391.43
  L 259.64 390.82
  L 262.94 398.62
  Q 162.80 399.26 63.07 399.14
  C 55.82 399.13 57.26 391.62 57.11 386.84
  Q 56.34 362.21 56.33 356.50
  C 56.26 310.13 55.63 267.35 55.63 221.84
  Q 55.63 157.18 54.91 48.51
  C 54.86 42.08 59.87 42.31 65.36 42.30
  Q 228.12 42.07 262.50 41.95
  Q 421.84 41.38 549.75 41.61
  C 551.72 41.61 553.29 41.99 553.81 44.11
  Q 554.55 47.10 554.56 48.50
  C 554.74 177.64 555.52 290.16 555.37 390.56
  Q 555.36 397.64 548.00 397.67
  Q 487.81 397.96 426.22 397.95
  Z
  M 492.0911 50.4229
  A 1.13 1.13 0.0 0 0 490.9571 49.2969
  L 431.7375 49.5036
  A 1.13 1.13 0.0 0 0 430.6114 50.6375
  L 430.8489 118.6771
  A 1.13 1.13 0.0 0 0 431.9829 119.8031
  L 491.2025 119.5964
  A 1.13 1.13 0.0 0 0 492.3286 118.4625
  L 492.0911 50.4229
  Z
  M 423.3311 50.6783
  A 1.16 1.16 0.0 0 0 422.1671 49.5224
  L 360.3675 49.7381
  A 1.16 1.16 0.0 0 0 359.2115 50.9021
  L 359.4489 118.9017
  A 1.16 1.16 0.0 0 0 360.6129 120.0576
  L 422.4125 119.8419
  A 1.16 1.16 0.0 0 0 423.5685 118.6779
  L 423.3311 50.6783
  Z
  M 352.3312 51.0153
  A 1.22 1.22 0.0 0 0 351.1069 49.7996
  L 287.7273 50.0208
  A 1.22 1.22 0.0 0 0 286.5116 51.2451
  L 286.7488 119.2047
  A 1.22 1.22 0.0 0 0 287.9731 120.4204
  L 351.3527 120.1992
  A 1.22 1.22 0.0 0 0 352.5684 118.9749
  L 352.3312 51.0153
  Z
  M 208.6208 51.3720
  A 1.25 1.25 0.0 0 0 207.3687 50.1242
  L 143.3488 50.2359
  A 1.25 1.25 0.0 0 0 142.1009 51.4881
  L 142.2192 119.2280
  A 1.25 1.25 0.0 0 0 143.4713 120.4758
  L 207.4912 120.3641
  A 1.25 1.25 0.0 0 0 208.7391 119.1119
  L 208.6208 51.3720
  Z
  M 279.6910 51.3539
  A 1.34 1.34 0.0 0 0 278.3486 50.0163
  L 216.7087 50.1238
  A 1.34 1.34 0.0 0 0 215.3711 51.4662
  L 215.4890 119.0661
  A 1.34 1.34 0.0 0 0 216.8314 120.4037
  L 278.4713 120.2962
  A 1.34 1.34 0.0 0 0 279.8089 118.9538
  L 279.6910 51.3539
  Z
  M 492.4211 127.6529
  A 1.09 1.09 0.0 0 0 491.3273 126.5667
  L 432.0077 126.7737
  A 1.09 1.09 0.0 0 0 430.9215 127.8675
  L 431.1589 195.8871
  A 1.09 1.09 0.0 0 0 432.2527 196.9733
  L 491.5723 196.7663
  A 1.09 1.09 0.0 0 0 492.6585 195.6725
  L 492.4211 127.6529
  Z
  M 423.6410 127.7878
  A 1.03 1.03 0.0 0 0 422.6074 126.7614
  L 360.2478 126.9791
  A 1.03 1.03 0.0 0 0 359.2214 128.0126
  L 359.4590 196.0922
  A 1.03 1.03 0.0 0 0 360.4926 197.1186
  L 422.8522 196.9009
  A 1.03 1.03 0.0 0 0 423.8786 195.8674
  L 423.6410 127.7878
  Z
  M 352.6214 128.2551
  A 1.23 1.23 0.0 0 0 351.3871 127.0294
  L 287.9075 127.2510
  A 1.23 1.23 0.0 0 0 286.6818 128.4853
  L 286.9186 196.3449
  A 1.23 1.23 0.0 0 0 288.1529 197.5706
  L 351.6325 197.3490
  A 1.23 1.23 0.0 0 0 352.8582 196.1147
  L 352.6214 128.2551
  Z
  M 492.6281 205.1028
  A 1.24 1.24 0.0 0 0 491.3838 203.8671
  L 432.3042 204.0733
  A 1.24 1.24 0.0 0 0 431.0685 205.3176
  L 431.2919 269.2972
  A 1.24 1.24 0.0 0 0 432.5362 270.5329
  L 491.6158 270.3267
  A 1.24 1.24 0.0 0 0 492.8515 269.0824
  L 492.6281 205.1028
  Z
  M 423.8182 205.3976
  A 1.23 1.23 0.0 0 0 422.5840 204.1719
  L 360.5443 204.3885
  A 1.23 1.23 0.0 0 0 359.3186 205.6228
  L 359.5418 269.5424
  A 1.23 1.23 0.0 0 0 360.7760 270.7681
  L 422.8157 270.5515
  A 1.23 1.23 0.0 0 0 424.0414 269.3172
  L 423.8182 205.3976
  Z
  M 492.8827 278.5362
  A 1.20 1.20 0.0 0 0 491.6806 277.3383
  L 432.3407 277.4418
  A 1.20 1.20 0.0 0 0 431.1428 278.6439
  L 431.2573 344.2238
  A 1.20 1.20 0.0 0 0 432.4594 345.4217
  L 491.7993 345.3182
  A 1.20 1.20 0.0 0 0 492.9972 344.1161
  L 492.8827 278.5362
  Z
  M 280.1286 279.9716
  A 1.13 1.13 0.0 0 0 278.9927 278.8476
  L 216.7736 279.1734
  A 1.13 1.13 0.0 0 0 215.6495 280.3093
  L 215.9914 345.6084
  A 1.13 1.13 0.0 0 0 217.1273 346.7324
  L 279.3464 346.4066
  A 1.13 1.13 0.0 0 0 280.4705 345.2707
  L 280.1286 279.9716
  Z
  M 209.0554 280.2135
  A 1.02 1.02 0.0 0 0 208.0318 279.1971
  L 143.2322 279.4233
  A 1.02 1.02 0.0 0 0 142.2158 280.4469
  L 142.4446 346.0065
  A 1.02 1.02 0.0 0 0 143.4682 347.0229
  L 208.2678 346.7967
  A 1.02 1.02 0.0 0 0 209.2842 345.7731
  L 209.0554 280.2135
  Z
  M 134.9582 280.6250
  A 1.16 1.16 0.0 0 0 133.7922 279.4711
  L 65.2931 279.8298
  A 1.16 1.16 0.0 0 0 64.1392 280.9959
  L 64.4818 346.4150
  A 1.16 1.16 0.0 0 0 65.6478 347.5689
  L 134.1469 347.2102
  A 1.16 1.16 0.0 0 0 135.3008 346.0441
  L 134.9582 280.6250
  Z"
/>
<path fill="#d26528" d="
  M 131.55 121.13
  L 141.86 132.88
  Q 143.00 135.70 145.49 138.50
  Q 172.06 168.36 199.00 198.43
  A 1.26 1.26 0.0 0 0 200.58 198.67
  L 209.11 193.58
  L 215.85 190.33
  Q 232.04 182.03 247.49 173.76
  Q 250.97 171.89 255.15 170.11
  Q 261.21 167.54 264.30 173.23
  Q 269.09 182.05 274.50 193.23
  Q 275.32 194.90 277.54 198.29
  Q 281.23 207.20 286.60 215.55
  Q 287.33 218.76 289.07 222.19
  Q 299.26 242.21 311.49 266.42
  A 0.64 0.64 0.0 0 0 312.59 266.49
  Q 319.52 256.42 327.95 246.69
  C 332.41 241.54 337.36 237.87 342.10 245.21
  C 345.62 250.65 348.57 257.07 352.93 262.05
  Q 356.65 270.26 361.50 277.61
  Q 362.53 280.82 363.91 283.32
  Q 381.27 314.64 397.91 345.63
  L 401.45 352.33
  L 422.67 390.96
  L 426.22 397.95
  Q 443.80 430.21 461.11 462.27
  C 482.22 501.37 505.25 545.55 523.74 581.49
  Q 525.92 585.74 528.33 589.10
  L 543.61 618.06
  Q 544.24 620.47 544.84 621.64
  Q 559.26 649.87 572.84 675.47
  C 574.66 678.90 577.27 684.65 574.44 688.20
  Q 570.44 693.21 563.76 693.12
  C 557.51 693.02 555.07 689.05 552.59 684.14
  Q 539.46 658.20 526.03 632.63
  L 507.57 598.38
  Q 506.74 595.44 504.24 590.73
  Q 495.57 574.41 474.69 533.30
  Q 453.09 490.79 404.05 398.33
  L 399.93 390.79
  Q 390.45 370.62 379.84 352.30
  L 376.55 345.90
  Q 368.94 329.34 359.62 314.04
  L 352.90 301.80
  Q 347.84 289.66 340.35 278.04
  Q 338.78 273.94 336.09 270.78
  Q 336.01 269.06 335.22 268.00
  A 1.42 1.41 -42.2 0 0 333.05 267.90
  Q 332.04 268.98 331.62 270.98
  Q 328.51 273.73 326.23 278.03
  Q 321.28 283.96 317.44 291.17
  Q 313.75 298.11 306.98 295.37
  Q 304.99 294.56 303.99 292.66
  Q 300.08 285.22 296.35 277.82
  L 293.26 271.71
  Q 291.15 264.70 286.70 258.41
  Q 285.00 251.93 280.28 246.03
  Q 279.73 243.01 278.07 239.66
  Q 269.36 222.07 260.87 205.22
  L 256.28 197.20
  Q 255.40 193.15 253.30 190.74
  A 0.61 0.60 -33.0 0 0 252.58 190.59
  Q 246.59 193.41 241.12 197.67
  Q 233.66 200.40 226.70 205.41
  Q 220.26 207.03 215.76 211.07
  L 209.02 214.90
  Q 204.21 217.07 199.02 219.54
  Q 194.53 221.67 191.52 217.75
  Q 188.43 213.73 180.27 205.06
  L 174.10 198.17
  Q 164.93 186.46 149.44 168.55
  Q 145.42 163.89 142.29 161.33
  Q 139.92 157.13 135.16 152.18
  Q 125.72 138.94 113.61 127.53
  L 107.37 121.15
  A 1.20 1.20 0.0 0 0 105.40 121.53
  L 102.86 127.77
  Q 90.02 162.71 78.76 198.28
  L 76.70 205.54
  Q 74.43 211.70 71.78 219.05
  Q 69.72 224.75 63.71 225.54
  Q 61.86 223.83 59.50 221.75
  C 56.79 219.37 58.32 213.07 59.35 210.01
  Q 62.11 201.85 63.87 194.17
  Q 67.25 187.26 69.27 180.23
  C 73.75 164.72 78.87 149.40 83.77 134.02
  Q 84.95 130.32 85.16 127.63
  L 88.09 120.58
  Q 91.59 110.83 94.99 100.77
  C 96.35 96.73 99.68 89.53 105.39 93.05
  Q 108.32 94.86 113.15 100.59
  Q 122.10 111.19 131.55 121.13
  Z"
/>
<path fill="#0d0f50" d="
  M 113.61 127.53
  L 102.86 127.77
  L 105.40 121.53
  A 1.20 1.20 0.0 0 1 107.37 121.15
  L 113.61 127.53
  Z"
/>
<path fill="#0d0f50" d="
  M 260.87 205.22
  L 226.70 205.41
  Q 233.66 200.40 241.12 197.67
  L 256.28 197.20
  L 260.87 205.22
  Z"
/>
<path fill="#0d0f50" d="
  M 340.35 278.04
  L 326.23 278.03
  Q 328.51 273.73 331.62 270.98
  Q 333.96 271.47 336.09 270.78
  Q 338.78 273.94 340.35 278.04
  Z"
/>
<path fill="#d26528" d="
  M 668.66 441.96
  C 667.00 437.62 665.49 433.24 663.63 429.38
  Q 654.56 410.58 640.15 393.87
  Q 636.62 389.78 631.15 385.34
  Q 628.71 383.35 626.83 385.85
  C 618.37 397.12 611.04 407.99 601.88 418.61
  Q 592.02 430.04 579.26 438.10
  Q 576.02 428.36 577.51 419.59
  C 578.49 413.76 581.92 407.01 584.41 400.94
  Q 585.08 399.32 586.60 397.77
  A 0.68 0.67 39.2 0 1 587.46 397.69
  C 591.24 400.24 591.63 410.36 597.53 407.08
  C 604.02 403.48 603.28 396.08 601.34 389.86
  C 598.87 381.93 597.19 375.39 598.63 367.79
  C 599.34 364.10 605.66 352.76 608.82 351.80
  A 2.23 2.06 76.8 0 1 611.48 353.59
  Q 611.97 356.35 611.43 359.87
  C 610.71 364.57 611.43 369.19 614.11 371.97
  Q 617.94 375.94 621.53 373.80
  C 625.64 371.34 627.01 365.63 626.54 360.98
  C 626.08 356.47 624.67 351.48 625.53 347.44
  Q 626.51 342.84 627.74 341.22
  C 631.22 336.61 634.21 333.52 635.00 329.07
  Q 636.19 322.43 637.35 320.50
  A 1.25 1.25 0.0 0 1 639.38 320.35
  C 640.36 321.52 640.92 323.24 641.51 324.54
  C 644.97 332.15 643.88 337.89 642.26 346.24
  Q 641.62 349.54 643.07 355.73
  C 644.05 359.94 647.78 364.96 648.86 369.65
  Q 649.59 372.78 649.32 378.13
  Q 649.15 381.53 651.46 383.36
  A 1.63 1.60 59.4 0 0 652.69 383.69
  C 661.16 382.43 654.07 370.05 658.71 365.79
  A 1.21 1.20 -33.1 0 1 660.63 366.19
  Q 662.24 369.88 664.40 377.05
  Q 667.44 387.16 663.93 396.44
  C 661.44 403.05 659.18 407.05 660.15 412.35
  Q 661.15 417.83 663.37 422.70
  A 0.91 0.90 -29.9 0 0 664.72 423.06
  Q 667.07 421.34 667.93 420.79
  C 673.26 417.32 673.40 426.59 673.28 429.51
  Q 673.11 433.69 668.66 441.96
  Z"
/>
<path fill="#d26528" d="
  M 303.52 390.78
  L 304.67 398.34
  C 302.96 406.27 303.84 414.80 310.91 419.83
  Q 312.40 420.89 313.25 421.19
  C 316.35 422.27 317.64 417.36 317.29 415.45
  C 316.36 410.29 314.37 403.76 317.05 399.88
  A 1.80 1.80 0.0 0 1 320.04 399.93
  Q 323.85 405.87 327.81 413.19
  C 332.75 422.35 329.42 432.74 327.16 441.93
  C 326.05 446.43 327.03 451.49 327.85 455.93
  C 328.64 460.24 328.46 466.37 327.72 470.24
  C 326.56 476.32 323.11 480.34 318.83 484.98
  Q 318.39 481.64 319.26 476.25
  C 320.00 471.66 319.76 464.99 319.04 459.25
  Q 317.71 448.60 312.44 431.83
  Q 311.73 429.57 310.69 428.34
  A 2.02 2.02 0.0 0 0 308.76 427.67
  Q 299.63 429.43 288.28 432.07
  Q 279.03 434.22 259.29 435.55
  C 255.21 435.82 253.95 438.12 255.72 441.76
  Q 259.40 449.30 263.89 457.36
  Q 265.33 459.95 264.89 462.37
  Q 259.45 459.37 254.25 456.46
  C 242.34 449.80 240.96 436.31 249.59 426.33
  Q 256.03 418.89 259.16 414.68
  Q 264.58 407.42 262.94 398.62
  L 259.64 390.82
  L 262.59 388.95
  A 2.37 2.34 39.3 0 1 264.75 388.75
  L 270.36 391.03
  L 273.69 398.35
  Q 274.03 403.99 275.33 409.21
  C 275.70 410.70 275.85 412.55 277.28 413.30
  C 278.89 414.13 281.54 412.76 282.58 411.56
  Q 286.98 406.50 286.51 398.45
  L 285.21 390.70
  Q 284.78 386.69 282.39 382.87
  Q 279.87 378.82 275.50 371.23
  C 273.87 368.41 271.85 362.50 274.87 359.94
  A 2.54 2.03 47.3 0 1 277.98 360.42
  Q 282.76 365.37 285.55 367.73
  Q 285.58 367.75 291.95 372.20
  Q 301.37 378.78 303.52 390.78
  Z"
/>
<path fill="#0d0f50" d="
  M 668.66 441.96
  Q 652.89 456.90 636.84 472.40
  Q 628.21 480.74 624.36 483.21
  Q 615.98 488.59 609.80 491.02
  Q 607.41 491.96 604.75 492.21
  A 2.16 2.15 79.9 0 1 602.48 490.62
  Q 597.81 473.18 587.50 458.26
  Q 584.79 454.34 579.73 447.01
  Q 577.72 444.08 577.40 442.51
  Q 576.84 439.75 579.26 438.10
  Q 592.02 430.04 601.88 418.61
  C 611.04 407.99 618.37 397.12 626.83 385.85
  Q 628.71 383.35 631.15 385.34
  Q 636.62 389.78 640.15 393.87
  Q 654.56 410.58 663.63 429.38
  C 665.49 433.24 667.00 437.62 668.66 441.96
  Z
  M 630.19 392.42
  A 0.91 0.91 0.0 0 0 629.10 392.76
  Q 619.68 406.70 609.26 419.03
  C 601.46 428.26 594.78 435.07 585.88 440.98
  A 1.59 1.59 0.0 0 0 585.35 443.04
  Q 586.12 444.52 586.67 445.32
  Q 591.53 452.49 598.96 464.24
  C 602.98 470.62 605.54 476.92 607.47 483.76
  A 1.76 1.76 0.0 0 0 609.98 484.84
  Q 622.84 478.14 633.32 467.56
  Q 646.85 453.92 660.47 442.48
  C 662.81 440.52 661.61 438.59 660.53 436.35
  Q 648.88 412.08 630.71 392.80
  Q 630.43 392.51 630.19 392.42
  Z"
/>
<path fill="#0d0f50" d="
  M 285.21 390.70
  L 286.51 398.45
  L 273.69 398.35
  L 270.36 391.03
  L 285.21 390.70
  Z"
/>
<path fill="#0d0f50" d="
  M 399.93 390.79
  L 404.05 398.33
  L 304.67 398.34
  L 303.52 390.78
  L 399.93 390.79
  Z"
/>
<path fill="#d26528" d="
  M 550.19 513.78
  Q 553.40 502.53 557.83 491.90
  C 558.79 489.62 560.27 485.33 557.82 483.66
  Q 556.17 482.54 551.52 481.00
  C 545.44 478.99 538.87 477.18 532.48 474.43
  Q 524.42 470.97 516.99 468.02
  Q 511.46 465.83 505.84 465.80
  A 1.74 1.67 -59.7 0 0 504.89 466.07
  Q 503.56 466.90 503.00 468.54
  Q 500.68 475.34 499.39 479.83
  Q 499.13 480.74 498.64 480.55
  C 490.37 474.82 490.53 465.75 494.73 457.54
  C 496.17 454.72 499.20 451.90 500.77 449.19
  A 5.38 4.92 71.0 0 0 501.22 448.15
  C 502.25 444.78 501.37 440.82 503.63 437.75
  A 2.64 2.44 -55.3 0 1 507.03 436.99
  C 510.30 439.09 512.07 446.96 512.50 450.67
  C 513.05 455.49 514.57 458.18 519.00 459.22
  Q 521.09 459.71 522.57 457.56
  C 526.56 451.74 523.46 445.34 520.60 438.09
  C 519.95 436.44 520.34 432.04 521.13 429.76
  C 523.28 423.58 527.84 415.45 533.85 412.27
  A 1.35 1.35 0.0 0 1 535.83 413.37
  C 536.08 416.69 534.56 420.49 534.40 423.02
  C 533.95 430.20 537.43 434.29 542.15 440.57
  Q 545.07 444.44 545.99 449.90
  C 546.77 454.48 544.36 458.67 545.07 463.13
  C 545.72 467.21 550.56 471.64 553.45 466.07
  C 554.39 464.25 553.32 458.56 553.32 457.76
  C 553.34 454.55 554.45 447.60 557.14 445.63
  A 1.25 1.25 0.0 0 1 559.04 446.16
  Q 559.68 447.71 560.51 452.22
  C 561.05 455.14 562.68 458.09 564.87 461.24
  Q 575.15 476.04 569.68 494.76
  C 567.21 503.21 561.04 506.39 554.05 510.46
  A 3.07 2.98 -79.5 0 0 553.67 510.73
  L 550.19 513.78
  Z"
/>
<path fill="#0d0f50" d="
  M 318.83 484.98
  Q 316.82 489.64 315.13 494.96
  Q 312.47 503.30 309.04 509.75
  C 307.77 512.14 305.81 513.19 302.97 512.53
  C 292.59 510.12 283.54 505.54 278.02 496.52
  C 272.81 488.02 271.11 480.16 268.49 469.30
  Q 267.84 466.61 264.89 462.37
  Q 265.33 459.95 263.89 457.36
  Q 259.40 449.30 255.72 441.76
  C 253.95 438.12 255.21 435.82 259.29 435.55
  Q 279.03 434.22 288.28 432.07
  Q 299.63 429.43 308.76 427.67
  A 2.02 2.02 0.0 0 1 310.69 428.34
  Q 311.73 429.57 312.44 431.83
  Q 317.71 448.60 319.04 459.25
  C 319.76 464.99 320.00 471.66 319.26 476.25
  Q 318.39 481.64 318.83 484.98
  Z
  M 262.78 442.51
  Q 265.64 447.26 268.80 452.95
  C 273.08 460.64 275.31 470.18 278.59 481.98
  Q 280.74 489.69 287.10 496.91
  Q 293.11 503.72 302.25 505.32
  A 2.07 2.07 0.0 0 0 304.50 504.13
  C 308.95 494.20 313.36 482.21 313.54 471.18
  C 313.76 458.06 310.69 447.59 307.15 435.28
  A 1.54 1.53 74.3 0 0 305.27 434.22
  Q 284.95 439.80 263.31 441.48
  A 0.68 0.68 0.0 0 0 262.78 442.51
  Z"
/>
<path fill="#d26528" d="
  M 416.36 533.41
  Q 415.13 531.54 414.62 530.35
  Q 408.06 514.82 401.72 501.28
  Q 400.77 499.27 399.07 496.66
  C 397.15 493.73 395.61 493.66 393.08 495.61
  C 387.52 499.90 377.19 509.65 370.18 514.28
  Q 357.83 522.46 343.45 527.71
  A 1.99 1.97 -77.3 0 0 342.73 528.17
  Q 340.87 530.09 341.59 532.64
  Q 344.71 543.60 344.97 553.40
  Q 334.76 547.03 332.58 537.16
  C 329.81 524.59 330.98 510.54 340.13 501.07
  Q 345.18 495.85 347.18 493.52
  Q 353.08 486.65 351.27 477.88
  C 350.91 476.17 350.86 473.97 351.55 472.58
  A 1.77 1.76 23.6 0 1 353.75 471.72
  C 358.82 473.61 361.12 482.15 361.54 486.96
  C 361.84 490.29 360.75 494.60 360.06 497.19
  Q 359.16 500.53 359.84 502.34
  C 361.44 506.61 366.49 507.41 369.09 503.58
  C 373.00 497.80 371.68 492.08 370.73 485.71
  C 369.66 478.51 370.77 472.56 375.91 466.97
  Q 376.02 466.85 377.84 464.80
  C 382.54 459.47 388.69 453.55 386.65 445.11
  C 386.03 442.53 384.82 437.17 388.35 436.43
  A 1.93 1.91 50.2 0 1 389.48 436.54
  Q 390.59 437.00 392.69 439.79
  Q 396.31 444.59 398.32 449.23
  Q 401.27 456.03 398.78 463.21
  C 395.86 471.65 390.41 481.95 399.08 489.20
  C 401.65 491.35 404.27 489.24 404.85 486.53
  Q 406.11 480.58 406.88 477.40
  Q 407.47 474.96 409.08 474.18
  A 2.43 2.16 67.8 0 1 412.16 475.70
  Q 414.94 483.60 417.84 488.46
  Q 421.12 493.96 422.29 497.74
  C 426.01 509.84 421.86 522.34 416.36 533.41
  Z"
/>
<path fill="#0d0f50" d="
  M 550.19 513.78
  Q 546.39 522.65 544.82 532.66
  Q 544.12 537.12 538.72 535.51
  Q 539.08 522.86 543.77 511.04
  Q 548.15 499.99 553.01 488.91
  A 1.20 1.19 -71.5 0 0 552.20 487.27
  Q 545.34 485.60 540.17 483.68
  Q 531.98 480.64 510.32 472.03
  A 1.65 1.65 0.0 0 0 508.16 473.00
  Q 501.44 491.46 509.73 509.47
  A 1.93 1.93 0.0 0 1 508.89 511.98
  Q 507.60 512.67 508.14 513.05
  Q 504.87 512.71 502.71 507.83
  Q 497.14 495.28 498.88 483.05
  A 4.94 4.93 42.9 0 0 498.82 481.40
  L 498.64 480.55
  Q 499.13 480.74 499.39 479.83
  Q 500.68 475.34 503.00 468.54
  Q 503.56 466.90 504.89 466.07
  A 1.74 1.67 -59.7 0 1 505.84 465.80
  Q 511.46 465.83 516.99 468.02
  Q 524.42 470.97 532.48 474.43
  C 538.87 477.18 545.44 478.99 551.52 481.00
  Q 556.17 482.54 557.82 483.66
  C 560.27 485.33 558.79 489.62 557.83 491.90
  Q 553.40 502.53 550.19 513.78
  Z"
/>
<path fill="#d26528" d="
  M 695.41 564.57
  C 692.66 557.79 690.31 550.23 687.18 544.27
  Q 684.21 538.61 675.77 522.46
  Q 673.06 517.29 672.19 516.79
  A 7.70 1.36 28.6 0 0 671.24 516.26
  C 666.41 513.64 653.80 522.03 645.93 526.46
  Q 637.93 530.96 631.11 536.37
  Q 623.41 542.48 616.32 549.51
  Q 616.38 546.57 615.20 540.26
  Q 614.21 534.96 615.22 527.43
  C 616.43 518.49 622.15 510.29 628.06 503.80
  Q 630.14 501.51 631.58 500.93
  A 1.47 1.42 40.9 0 1 632.53 500.88
  Q 634.89 501.58 634.97 504.54
  Q 635.16 511.54 635.31 513.48
  C 635.52 516.19 637.72 521.66 641.34 520.01
  C 646.59 517.62 646.67 511.36 645.86 506.32
  Q 645.01 501.05 645.11 499.87
  C 645.87 490.44 653.60 485.78 660.81 480.83
  Q 662.22 479.86 663.63 477.39
  Q 665.26 474.52 667.33 471.05
  A 1.76 1.75 -58.9 0 1 669.75 470.45
  Q 670.90 471.16 671.76 473.00
  Q 675.16 480.28 673.11 488.07
  Q 671.04 495.97 670.46 498.22
  A 5.05 5.00 46.8 0 0 670.40 500.56
  Q 671.82 507.41 677.83 510.45
  Q 678.64 510.86 680.31 510.44
  C 683.41 509.64 685.16 505.33 684.99 502.50
  C 684.87 500.36 683.35 495.93 685.94 493.60
  A 2.00 1.85 46.9 0 1 688.61 493.79
  Q 697.56 503.03 697.31 516.05
  Q 697.21 521.32 694.31 529.83
  Q 693.80 531.36 693.33 536.95
  A 9.79 9.59 42.7 0 0 693.46 539.54
  C 694.01 542.44 695.92 547.59 696.08 551.66
  Q 696.12 552.87 695.63 555.83
  Q 694.93 560.03 695.41 564.57
  Z"
/>
<path fill="#efdcbc" d="
  M 538.72 535.51
  Q 532.03 533.85 526.75 529.50
  Q 517.07 521.52 508.14 513.05
  Q 507.60 512.67 508.89 511.98
  A 1.93 1.93 0.0 0 0 509.73 509.47
  Q 501.44 491.46 508.16 473.00
  A 1.65 1.65 0.0 0 1 510.32 472.03
  Q 531.98 480.64 540.17 483.68
  Q 545.34 485.60 552.20 487.27
  A 1.20 1.19 -71.5 0 1 553.01 488.91
  Q 548.15 499.99 543.77 511.04
  Q 539.08 522.86 538.72 535.51
  Z
  M 512.94 491.66
  L 515.82 486.68
  A 1.58 1.58 0.0 0 1 517.79 486.01
  Q 526.77 489.69 536.04 493.45
  Q 539.06 494.67 536.87 500.88
  A 1.70 1.70 0.0 0 0 538.11 503.10
  L 538.45 503.18
  A 2.30 2.29 -77.5 0 0 541.18 501.44
  L 542.61 494.97
  A 3.44 3.43 -64.4 0 0 541.42 491.57
  Q 538.98 489.59 535.39 488.10
  Q 528.73 485.33 515.08 480.75
  A 1.49 1.48 27.5 0 0 513.42 481.27
  Q 509.91 485.99 511.05 491.36
  A 1.03 1.02 -35.9 0 0 512.94 491.66
  Z
  M 530.2219 518.2998
  A 10.30 9.83 63.4 0 0 534.3995 504.6885
  A 10.30 9.83 63.4 0 0 520.9981 499.8802
  A 10.30 9.83 63.4 0 0 516.8205 513.4915
  A 10.30 9.83 63.4 0 0 530.2219 518.2998
  Z"
/>
<path fill="#0d0f50" d="
  M 416.36 533.41
  Q 417.94 537.53 419.74 541.75
  C 421.15 545.07 417.74 549.65 415.85 552.36
  Q 409.20 561.87 401.81 569.55
  C 393.96 577.71 385.73 584.23 375.47 586.74
  A 3.00 2.97 -28.2 0 1 372.57 585.88
  L 370.07 583.19
  C 376.28 579.70 382.84 577.46 388.51 573.02
  Q 402.32 562.21 411.26 547.22
  C 412.74 544.74 413.16 543.02 412.12 540.39
  C 407.35 528.38 402.19 515.09 395.54 503.03
  A 1.26 1.26 0.0 0 0 393.58 502.71
  C 385.91 509.80 378.11 516.66 369.08 522.16
  Q 359.26 528.15 349.04 532.09
  A 1.17 1.17 0.0 0 0 348.34 533.52
  Q 349.64 537.82 350.71 543.30
  C 352.32 551.55 351.64 558.82 349.72 566.74
  C 349.16 569.06 347.74 569.58 345.53 569.13
  Q 344.90 569.02 344.32 569.11
  C 342.54 568.56 341.73 567.59 342.39 565.65
  Q 343.34 562.84 343.99 560.02
  Q 344.74 556.72 344.97 553.40
  Q 344.71 543.60 341.59 532.64
  Q 340.87 530.09 342.73 528.17
  A 1.99 1.97 -77.3 0 1 343.45 527.71
  Q 357.83 522.46 370.18 514.28
  C 377.19 509.65 387.52 499.90 393.08 495.61
  C 395.61 493.66 397.15 493.73 399.07 496.66
  Q 400.77 499.27 401.72 501.28
  Q 408.06 514.82 414.62 530.35
  Q 415.13 531.54 416.36 533.41
  Z"
/>
<path fill="#efdcbc" d="
  M 370.07 583.19
  C 365.27 581.61 359.52 580.23 355.39 577.27
  Q 350.03 573.42 344.74 569.43
  Q 345.30 569.30 345.53 569.13
  C 347.74 569.58 349.16 569.06 349.72 566.74
  C 351.64 558.82 352.32 551.55 350.71 543.30
  Q 349.64 537.82 348.34 533.52
  A 1.17 1.17 0.0 0 1 349.04 532.09
  Q 359.26 528.15 369.08 522.16
  C 378.11 516.66 385.91 509.80 393.58 502.71
  A 1.26 1.26 0.0 0 1 395.54 503.03
  C 402.19 515.09 407.35 528.38 412.12 540.39
  C 413.16 543.02 412.74 544.74 411.26 547.22
  Q 402.32 562.21 388.51 573.02
  C 382.84 577.46 376.28 579.70 370.07 583.19
  Z
  M 390.06 563.77
  L 390.29 563.70
  A 2.10 2.05 -76.1 0 0 391.05 563.23
  Q 399.84 554.53 405.69 544.93
  A 4.33 4.33 0.0 0 0 405.98 541.00
  L 398.46 523.19
  A 2.00 2.00 0.0 0 0 395.89 522.11
  C 394.98 522.41 393.75 523.21 392.63 523.14
  C 389.84 522.96 388.10 520.41 386.56 518.17
  A 1.65 1.65 0.0 0 0 384.19 517.78
  C 374.46 525.23 366.28 530.88 356.58 535.77
  A 3.06 3.06 0.0 0 0 354.92 538.87
  Q 355.48 543.44 355.74 547.45
  Q 355.83 548.79 357.02 549.38
  A 1.29 1.21 -69.3 0 0 358.75 548.53
  Q 359.74 545.01 359.34 540.84
  A 1.66 1.65 73.3 0 1 360.21 539.21
  Q 372.62 532.69 383.02 524.54
  A 1.97 1.96 52.3 0 1 385.79 524.90
  Q 389.42 529.64 394.54 528.29
  A 1.33 1.32 72.3 0 1 396.12 529.11
  L 401.11 542.52
  A 2.48 2.47 52.5 0 1 400.81 544.82
  Q 399.00 547.34 391.46 556.70
  Q 389.22 559.47 388.44 562.24
  A 1.26 1.26 0.0 0 0 390.06 563.77
  Z
  M 368.0277 568.3034
  A 12.86 10.96 111.4 0 0 382.9244 560.3290
  A 12.86 10.96 111.4 0 0 377.4123 544.3566
  A 12.86 10.96 111.4 0 0 362.5156 552.3310
  A 12.86 10.96 111.4 0 0 368.0277 568.3034
  Z"
/>
<path fill="#0d0f50" d="
  M 695.41 564.57
  Q 695.95 566.98 696.26 569.77
  Q 696.70 573.80 692.71 574.75
  C 684.68 576.67 679.24 579.62 671.85 585.01
  C 662.29 591.97 653.85 598.15 644.14 602.54
  A 2.55 2.51 36.0 0 1 642.82 602.74
  Q 641.05 602.53 639.57 601.80
  Q 639.50 598.81 641.37 597.63
  Q 657.43 587.48 673.31 576.38
  C 678.08 573.05 683.00 570.48 688.17 568.96
  A 1.09 1.09 0.0 0 0 688.94 567.82
  C 688.32 560.50 684.53 552.73 680.89 545.36
  Q 679.60 542.76 669.09 522.84
  A 1.69 1.69 0.0 0 0 666.86 522.11
  Q 655.31 527.74 643.77 535.03
  Q 629.42 544.08 618.16 557.73
  A 1.60 1.60 0.0 0 0 618.25 559.87
  Q 620.68 562.33 622.53 564.72
  C 629.10 573.17 630.37 582.92 630.17 593.50
  Q 630.11 596.96 628.81 599.53
  L 625.00 598.03
  A 2.27 2.25 10.1 0 1 623.56 595.99
  C 623.42 590.08 623.93 583.83 622.53 579.11
  C 620.41 571.88 615.50 566.28 611.14 561.80
  Q 608.73 559.33 610.80 556.62
  Q 613.66 552.88 616.32 549.51
  Q 623.41 542.48 631.11 536.37
  Q 637.93 530.96 645.93 526.46
  C 653.80 522.03 666.41 513.64 671.24 516.26
  A 7.70 1.36 28.6 0 1 672.19 516.79
  Q 673.06 517.29 675.77 522.46
  Q 684.21 538.61 687.18 544.27
  C 690.31 550.23 692.66 557.79 695.41 564.57
  Z"
/>
<path fill="#efdcbc" d="
  M 639.57 601.80
  C 638.18 601.34 637.36 601.10 635.81 601.34
  Q 631.78 601.98 628.81 599.53
  Q 630.11 596.96 630.17 593.50
  C 630.37 582.92 629.10 573.17 622.53 564.72
  Q 620.68 562.33 618.25 559.87
  A 1.60 1.60 0.0 0 1 618.16 557.73
  Q 629.42 544.08 643.77 535.03
  Q 655.31 527.74 666.86 522.11
  A 1.69 1.69 0.0 0 1 669.09 522.84
  Q 679.60 542.76 680.89 545.36
  C 684.53 552.73 688.32 560.50 688.94 567.82
  A 1.09 1.09 0.0 0 1 688.17 568.96
  C 683.00 570.48 678.08 573.05 673.31 576.38
  Q 657.43 587.48 641.37 597.63
  Q 639.50 598.81 639.57 601.80
  Z
  M 663.32 573.65
  A 1.38 1.38 0.0 0 0 665.67 574.42
  C 669.09 570.88 673.52 566.06 679.09 563.27
  A 2.21 2.21 0.0 0 0 680.18 560.54
  Q 677.81 554.01 673.40 544.40
  Q 672.61 542.68 671.40 541.85
  A 1.98 1.93 -24.3 0 0 670.49 541.52
  Q 668.09 541.28 667.44 541.23
  C 663.41 540.95 662.34 537.46 661.00 534.28
  A 1.87 1.87 0.0 0 0 658.76 533.20
  Q 657.19 533.65 655.12 534.85
  Q 640.20 543.53 628.11 555.22
  A 2.84 2.82 52.5 0 0 627.66 558.71
  L 627.71 558.79
  A 1.83 1.83 0.0 0 0 630.54 559.17
  Q 642.94 547.42 656.48 539.38
  A 1.41 1.40 -27.3 0 1 658.47 540.01
  Q 659.97 543.33 662.94 545.08
  C 664.47 545.99 666.74 545.86 668.10 546.24
  A 2.41 2.28 70.8 0 1 668.99 546.70
  Q 669.74 547.33 670.55 549.22
  Q 673.79 556.84 674.73 559.17
  A 2.09 2.09 0.0 0 1 673.72 561.82
  Q 667.50 564.92 664.18 570.88
  Q 663.19 572.65 663.32 573.65
  Z
  M 641.0864 583.7075
  A 12.63 11.05 109.2 0 0 655.6754 575.4140
  A 12.63 11.05 109.2 0 0 649.3936 559.8525
  A 12.63 11.05 109.2 0 0 634.8046 568.1460
  A 12.63 11.05 109.2 0 0 641.0864 583.7075
  Z"
/>
<path fill="#d26528" d="
  M 314.44 613.25
  Q 303.83 608.84 293.38 604.32
  Q 281.53 599.19 277.17 598.07
  C 263.57 594.59 248.59 594.31 235.04 597.04
  Q 232.96 597.46 232.00 598.76
  Q 229.86 601.70 228.80 606.41
  Q 227.55 611.96 226.44 617.66
  Q 224.82 615.96 223.28 614.41
  C 218.80 609.92 216.64 604.75 215.92 598.25
  Q 214.22 582.92 220.88 569.11
  Q 221.46 567.92 222.35 567.37
  A 1.45 1.45 0.0 0 1 224.50 568.24
  Q 225.55 572.25 225.86 576.40
  Q 226.32 582.51 232.14 585.48
  Q 233.55 586.20 234.87 585.65
  C 238.89 583.96 237.60 579.20 237.01 575.85
  C 236.25 571.50 237.72 566.56 239.57 562.69
  C 241.68 558.26 243.07 554.31 241.86 550.07
  Q 240.31 544.59 239.42 541.01
  A 0.99 0.98 89.4 0 1 240.59 539.81
  C 248.74 541.68 253.17 548.89 255.06 556.63
  C 255.99 560.43 255.17 565.96 255.87 569.30
  Q 257.88 578.91 267.13 581.88
  Q 268.75 582.40 271.51 581.47
  Q 275.53 580.10 274.63 575.87
  C 273.90 572.45 272.60 569.17 272.49 566.25
  C 272.38 563.39 273.66 552.39 277.45 552.22
  A 2.04 2.03 -12.7 0 1 279.41 553.45
  C 280.65 556.35 280.54 559.92 281.28 562.84
  Q 283.07 569.84 289.49 573.99
  Q 294.11 576.97 299.58 580.94
  Q 309.85 588.41 312.19 601.12
  Q 313.24 606.84 314.44 613.25
  Z"
/>
<path fill="#0d0f50" d="
  M 507.57 598.38
  L 526.03 632.63
  Q 522.46 633.02 520.00 632.83
  Q 493.53 630.77 463.44 629.09
  A 0.83 0.82 -87.3 0 0 462.57 629.89
  L 461.51 660.02
  A 2.00 2.00 0.0 0 1 459.67 661.95
  Q 455.74 662.26 449.27 662.69
  Q 424.18 664.36 400.16 671.61
  A 0.46 0.46 0.0 0 0 400.13 672.48
  L 401.50 672.97
  A 0.40 0.35 -30.1 0 0 401.65 673.00
  L 431.68 673.43
  A 2.22 2.22 0.0 0 1 433.78 675.06
  Q 435.89 682.60 438.69 691.40
  Q 439.66 694.44 437.61 697.33
  C 431.22 706.31 424.12 715.77 418.44 725.55
  Q 414.28 732.72 412.45 735.30
  A 0.83 0.76 31.1 0 0 412.79 736.46
  Q 413.10 736.62 413.63 736.38
  Q 489.53 701.42 498.49 697.24
  A 3.81 3.79 -47.5 0 1 501.38 697.11
  L 629.97 743.44
  A 0.91 0.91 0.0 0 0 631.15 742.31
  Q 619.23 705.81 610.19 677.81
  Q 609.59 675.97 610.00 674.87
  A 2.66 2.65 10.9 0 1 612.56 673.14
  Q 617.69 673.27 634.93 674.05
  Q 649.19 674.69 664.00 675.26
  Q 678.22 675.80 689.22 675.72
  A 0.55 0.55 0.0 0 0 689.53 674.71
  Q 686.68 672.76 664.36 658.28
  C 660.61 655.84 658.08 654.98 653.76 654.94
  Q 620.37 654.65 576.52 654.69
  A 1.36 1.35 77.9 0 1 575.28 653.88
  Q 574.30 651.63 573.85 649.87
  Q 567.41 624.70 562.17 604.80
  A 1.03 1.03 0.0 0 0 560.53 604.26
  L 543.61 618.06
  L 528.33 589.10
  Q 541.39 575.61 554.40 562.40
  Q 557.92 558.83 560.85 556.56
  A 1.15 1.14 -36.5 0 1 562.49 556.80
  Q 563.44 558.12 563.91 560.11
  Q 571.35 591.03 578.61 618.71
  A 0.68 0.67 -7.5 0 0 579.28 619.22
  Q 615.46 618.49 657.56 618.82
  C 659.37 618.83 662.87 620.10 664.85 621.27
  Q 677.59 628.76 680.04 630.47
  Q 713.82 654.16 746.02 678.02
  Q 748.13 679.58 749.16 681.44
  A 1.73 1.72 -29.9 0 1 748.53 683.76
  Q 746.36 685.03 743.76 685.03
  C 724.53 685.04 698.10 683.62 684.34 683.59
  C 677.67 683.57 669.17 682.75 661.57 682.77
  Q 657.83 682.78 652.45 682.47
  Q 644.58 682.03 621.61 681.03
  A 1.31 1.31 0.0 0 0 620.33 682.80
  Q 622.10 687.55 622.43 688.57
  Q 631.37 716.51 640.26 745.47
  C 641.14 748.34 642.80 752.78 638.75 753.63
  Q 636.60 754.08 632.89 752.76
  Q 597.57 740.20 566.03 728.63
  Q 549.92 722.72 501.75 705.65
  A 3.95 3.94 42.2 0 0 498.79 705.79
  Q 471.66 718.42 418.71 742.72
  Q 416.54 743.71 406.15 748.17
  Q 404.82 748.75 403.25 749.03
  C 399.90 749.62 397.89 746.77 399.26 743.72
  Q 410.69 718.22 423.54 691.29
  Q 423.96 690.40 424.20 689.49
  A 0.91 0.91 0.0 0 0 423.32 688.34
  Q 404.25 688.33 392.82 687.85
  C 379.00 687.26 367.99 687.38 353.38 686.90
  Q 347.73 686.72 337.60 686.65
  Q 323.49 686.55 306.39 685.39
  Q 303.92 685.22 302.30 683.65
  A 0.95 0.95 0.0 0 1 302.05 682.75
  C 302.67 680.30 307.99 678.33 311.06 676.83
  Q 334.91 665.22 382.47 642.73
  A 0.53 0.53 0.0 0 0 382.34 641.73
  Q 380.60 641.40 378.84 640.79
  Q 365.24 636.06 346.23 628.79
  C 344.55 628.15 341.44 626.26 342.95 624.17
  C 344.74 621.69 349.96 622.08 352.96 622.13
  Q 428.86 623.29 438.48 623.37
  Q 438.79 623.37 439.84 623.17
  A 0.26 0.25 -30.6 0 0 439.96 622.72
  Q 422.82 609.36 406.83 598.19
  Q 405.57 597.31 405.55 596.26
  A 1.93 1.85 -1.6 0 1 407.41 594.38
  C 414.68 594.13 422.48 595.09 428.57 595.20
  Q 435.42 595.31 443.90 595.69
  Q 475.61 597.08 507.57 598.38
  Z"
/>
<path fill="#d26528" d="
  M 345.53 569.13
  Q 345.30 569.30 344.74 569.43
  Q 344.46 569.28 344.32 569.11
  Q 344.90 569.02 345.53 569.13
  Z"
/>
<path fill="#0d0f50" d="
  M 314.44 613.25
  Q 319.13 614.57 323.41 616.54
  Q 325.95 617.71 327.46 619.73
  A 2.31 2.31 0.0 0 1 327.46 622.49
  Q 325.62 624.98 322.40 627.16
  Q 318.25 629.96 304.58 638.81
  Q 295.25 644.85 290.48 654.44
  C 289.31 656.78 288.51 660.62 287.75 662.38
  A 2.74 2.74 0.0 0 1 285.07 664.01
  Q 280.05 663.69 274.49 661.75
  Q 269.89 660.14 256.51 655.30
  Q 246.77 651.78 237.28 653.34
  C 233.40 653.98 232.72 650.50 231.97 647.27
  Q 229.80 637.91 227.81 628.72
  Q 227.25 626.14 226.95 623.21
  Q 226.66 620.38 226.44 617.66
  Q 227.55 611.96 228.80 606.41
  Q 229.86 601.70 232.00 598.76
  Q 232.96 597.46 235.04 597.04
  C 248.59 594.31 263.57 594.59 277.17 598.07
  Q 281.53 599.19 293.38 604.32
  Q 303.83 608.84 314.44 613.25
  Z
  M 239.30 646.41
  Q 248.76 646.57 255.66 648.35
  C 263.39 650.35 272.27 654.73 280.72 656.73
  A 1.60 1.59 16.4 0 0 282.58 655.72
  Q 286.88 643.80 296.93 636.49
  C 302.68 632.30 310.75 627.43 316.96 623.49
  A 1.04 1.03 53.1 0 0 317.18 621.92
  Q 316.95 621.67 316.53 621.49
  Q 301.43 614.73 289.19 609.08
  Q 273.59 601.87 257.01 601.45
  C 250.98 601.29 245.62 602.02 237.00 602.63
  A 1.30 1.30 0.0 0 0 235.86 603.50
  C 231.03 617.91 234.73 631.43 238.37 645.68
  A 0.97 0.96 -6.6 0 0 239.30 646.41
  Z"
/>
</g>
<g>
<path fill="#efdcbc" d="
  M 630.19 392.42
  Q 630.43 392.51 630.71 392.80
  Q 648.88 412.08 660.53 436.35
  C 661.61 438.59 662.81 440.52 660.47 442.48
  Q 646.85 453.92 633.32 467.56
  Q 622.84 478.14 609.98 484.84
  A 1.76 1.76 0.0 0 1 607.47 483.76
  C 605.54 476.92 602.98 470.62 598.96 464.24
  Q 591.53 452.49 586.67 445.32
  Q 586.12 444.52 585.35 443.04
  A 1.59 1.59 0.0 0 1 585.88 440.98
  C 594.78 435.07 601.46 428.26 609.26 419.03
  Q 619.68 406.70 629.10 392.76
  A 0.91 0.91 0.0 0 1 630.19 392.42
  Z
  M 648.23 437.15
  A 2.29 2.29 0.0 0 1 647.86 439.92
  C 645.30 442.45 640.37 446.36 640.00 449.97
  A 1.23 1.19 87.2 0 0 641.43 451.31
  Q 641.85 451.22 642.04 451.05
  Q 645.68 447.83 652.22 441.10
  A 4.05 4.05 0.0 0 0 653.18 437.07
  Q 652.57 435.14 650.83 432.18
  Q 644.49 421.40 638.08 412.04
  A 1.70 1.70 0.0 0 0 635.47 411.80
  L 632.70 414.57
  A 3.14 3.12 32.3 0 1 629.43 415.30
  L 624.55 413.54
  A 1.45 1.44 28.9 0 0 622.93 414.00
  Q 614.30 424.88 603.99 435.24
  Q 602.28 436.97 596.33 441.69
  C 594.48 443.16 593.37 444.73 594.87 446.87
  C 598.34 451.85 601.01 455.09 603.69 460.27
  Q 608.68 469.88 609.99 471.90
  A 1.12 1.12 0.0 0 0 611.99 471.65
  L 612.02 471.56
  A 6.15 6.15 0.0 0 0 611.91 467.28
  Q 607.20 455.53 601.21 447.76
  A 2.49 2.48 50.6 0 1 601.54 444.36
  Q 614.00 433.52 623.91 420.49
  A 2.06 2.05 35.5 0 1 626.69 420.03
  C 630.14 422.35 632.66 420.32 635.25 418.12
  A 1.47 1.47 0.0 0 1 637.47 418.51
  L 648.23 437.15
  Z
  M 616.5306 461.7802
  A 12.26 10.42 113.3 0 0 630.9502 454.6416
  A 12.26 10.42 113.3 0 0 626.2294 439.2598
  A 12.26 10.42 113.3 0 0 611.8098 446.3984
  A 12.26 10.42 113.3 0 0 616.5306 461.7802
  Z"
/>
<path fill="#efdcbc" d="
  M 262.78 442.51
  A 0.68 0.68 0.0 0 1 263.31 441.48
  Q 284.95 439.80 305.27 434.22
  A 1.54 1.53 74.3 0 1 307.15 435.28
  C 310.69 447.59 313.76 458.06 313.54 471.18
  C 313.36 482.21 308.95 494.20 304.50 504.13
  A 2.07 2.07 0.0 0 1 302.25 505.32
  Q 293.11 503.72 287.10 496.91
  Q 280.74 489.69 278.59 481.98
  C 275.31 470.18 273.08 460.64 268.80 452.95
  Q 265.64 447.26 262.78 442.51
  Z
  M 273.15 447.20
  Q 273.10 447.92 273.23 448.24
  Q 275.87 454.61 277.43 461.06
  Q 277.67 462.08 278.84 462.21
  A 1.80 1.74 -86.9 0 0 280.78 460.41
  Q 280.79 457.11 279.04 452.38
  A 1.58 1.58 0.0 0 1 280.26 450.28
  L 293.76 447.96
  A 1.02 1.01 80.2 0 1 294.94 448.80
  C 295.31 450.98 295.87 453.32 297.98 454.31
  C 301.43 455.93 304.19 455.92 304.55 460.51
  Q 305.14 467.99 306.05 471.95
  Q 306.29 472.99 306.83 473.11
  A 1.89 1.80 -80.8 0 0 309.00 471.46
  Q 309.84 464.28 307.54 456.59
  C 306.44 452.90 304.27 451.39 301.04 450.11
  A 2.17 2.15 -89.8 0 1 299.80 448.85
  L 297.89 443.70
  A 1.62 1.61 74.9 0 0 296.11 442.67
  L 273.78 446.51
  A 0.76 0.75 -3.0 0 0 273.15 447.20
  Z
  M 298.6017 465.8475
  A 9.50 9.12 -42.7 0 0 285.4352 465.5876
  A 9.50 9.12 -42.7 0 0 284.6383 478.7325
  A 9.50 9.12 -42.7 0 0 297.8048 478.9924
  A 9.50 9.12 -42.7 0 0 298.6017 465.8475
  Z"
/>
<path fill="#0d0f50" d="
  M 512.94 491.66
  A 1.03 1.02 -35.9 0 1 511.05 491.36
  Q 509.91 485.99 513.42 481.27
  A 1.49 1.48 27.5 0 1 515.08 480.75
  Q 528.73 485.33 535.39 488.10
  Q 538.98 489.59 541.42 491.57
  A 3.44 3.43 -64.4 0 1 542.61 494.97
  L 541.18 501.44
  A 2.30 2.29 -77.5 0 1 538.45 503.18
  L 538.11 503.10
  A 1.70 1.70 0.0 0 1 536.87 500.88
  Q 539.06 494.67 536.04 493.45
  Q 526.77 489.69 517.79 486.01
  A 1.58 1.58 0.0 0 0 515.82 486.68
  L 512.94 491.66
  Z"
/>
<path fill="#0d0f50" d="
  M 530.2219 518.2998
  A 10.30 9.83 63.4 0 1 516.8205 513.4915
  A 10.30 9.83 63.4 0 1 520.9981 499.8802
  A 10.30 9.83 63.4 0 1 534.3995 504.6885
  A 10.30 9.83 63.4 0 1 530.2219 518.2998
  Z
  M 529.0498 513.9316
  A 5.93 5.44 54.9 0 0 530.0907 505.9520
  A 5.93 5.44 54.9 0 0 522.2302 504.2284
  A 5.93 5.44 54.9 0 0 521.1893 512.2080
  A 5.93 5.44 54.9 0 0 529.0498 513.9316
  Z"
/>
<path fill="#0d0f50" d="
  M 390.06 563.77
  A 1.26 1.26 0.0 0 1 388.44 562.24
  Q 389.22 559.47 391.46 556.70
  Q 399.00 547.34 400.81 544.82
  A 2.48 2.47 52.5 0 0 401.11 542.52
  L 396.12 529.11
  A 1.33 1.32 72.3 0 0 394.54 528.29
  Q 389.42 529.64 385.79 524.90
  A 1.97 1.96 52.3 0 0 383.02 524.54
  Q 372.62 532.69 360.21 539.21
  A 1.66 1.65 73.3 0 0 359.34 540.84
  Q 359.74 545.01 358.75 548.53
  A 1.29 1.21 -69.3 0 1 357.02 549.38
  Q 355.83 548.79 355.74 547.45
  Q 355.48 543.44 354.92 538.87
  A 3.06 3.06 0.0 0 1 356.58 535.77
  C 366.28 530.88 374.46 525.23 384.19 517.78
  A 1.65 1.65 0.0 0 1 386.56 518.17
  C 388.10 520.41 389.84 522.96 392.63 523.14
  C 393.75 523.21 394.98 522.41 395.89 522.11
  A 2.00 2.00 0.0 0 1 398.46 523.19
  L 405.98 541.00
  A 4.33 4.33 0.0 0 1 405.69 544.93
  Q 399.84 554.53 391.05 563.23
  A 2.10 2.05 -76.1 0 1 390.29 563.70
  L 390.06 563.77
  Z"
/>
<path fill="#0d0f50" d="
  M 663.32 573.65
  Q 663.19 572.65 664.18 570.88
  Q 667.50 564.92 673.72 561.82
  A 2.09 2.09 0.0 0 0 674.73 559.17
  Q 673.79 556.84 670.55 549.22
  Q 669.74 547.33 668.99 546.70
  A 2.41 2.28 70.8 0 0 668.10 546.24
  C 666.74 545.86 664.47 545.99 662.94 545.08
  Q 659.97 543.33 658.47 540.01
  A 1.41 1.40 -27.3 0 0 656.48 539.38
  Q 642.94 547.42 630.54 559.17
  A 1.83 1.83 0.0 0 1 627.71 558.79
  L 627.66 558.71
  A 2.84 2.82 52.5 0 1 628.11 555.22
  Q 640.20 543.53 655.12 534.85
  Q 657.19 533.65 658.76 533.20
  A 1.87 1.87 0.0 0 1 661.00 534.28
  C 662.34 537.46 663.41 540.95 667.44 541.23
  Q 668.09 541.28 670.49 541.52
  A 1.98 1.93 -24.3 0 1 671.40 541.85
  Q 672.61 542.68 673.40 544.40
  Q 677.81 554.01 680.18 560.54
  A 2.21 2.21 0.0 0 1 679.09 563.27
  C 673.52 566.06 669.09 570.88 665.67 574.42
  A 1.38 1.38 0.0 0 1 663.32 573.65
  Z"
/>
<path fill="#0d0f50" d="
  M 368.0277 568.3034
  A 12.86 10.96 111.4 0 1 362.5156 552.3310
  A 12.86 10.96 111.4 0 1 377.4123 544.3566
  A 12.86 10.96 111.4 0 1 382.9244 560.3290
  A 12.86 10.96 111.4 0 1 368.0277 568.3034
  Z
  M 369.5387 563.8195
  A 8.14 6.66 112.7 0 0 378.8241 558.8801
  A 8.14 6.66 112.7 0 0 375.8213 548.8005
  A 8.14 6.66 112.7 0 0 366.5359 553.7399
  A 8.14 6.66 112.7 0 0 369.5387 563.8195
  Z"
/>
<path fill="#0d0f50" d="
  M 641.0864 583.7075
  A 12.63 11.05 109.2 0 1 634.8046 568.1460
  A 12.63 11.05 109.2 0 1 649.3936 559.8525
  A 12.63 11.05 109.2 0 1 655.6754 575.4140
  A 12.63 11.05 109.2 0 1 641.0864 583.7075
  Z
  M 642.3623 579.2833
  A 7.93 6.81 111.2 0 0 651.5791 574.3527
  A 7.93 6.81 111.2 0 0 648.0977 564.4967
  A 7.93 6.81 111.2 0 0 638.8809 569.4273
  A 7.93 6.81 111.2 0 0 642.3623 579.2833
  Z"
/>
<path fill="#efdcbc" d="
  M 239.30 646.41
  A 0.97 0.96 -6.6 0 1 238.37 645.68
  C 234.73 631.43 231.03 617.91 235.86 603.50
  A 1.30 1.30 0.0 0 1 237.00 602.63
  C 245.62 602.02 250.98 601.29 257.01 601.45
  Q 273.59 601.87 289.19 609.08
  Q 301.43 614.73 316.53 621.49
  Q 316.95 621.67 317.18 621.92
  A 1.04 1.03 53.1 0 1 316.96 623.49
  C 310.75 627.43 302.68 632.30 296.93 636.49
  Q 286.88 643.80 282.58 655.72
  A 1.60 1.59 16.4 0 1 280.72 656.73
  C 272.27 654.73 263.39 650.35 255.66 648.35
  Q 248.76 646.57 239.30 646.41
  Z
  M 304.81 623.68
  C 288.87 614.95 272.69 606.82 254.02 607.23
  Q 251.91 607.27 251.09 607.72
  A 1.95 1.90 -5.4 0 0 250.20 608.77
  L 247.43 616.56
  A 2.30 2.29 87.8 0 1 246.20 617.89
  L 242.62 619.48
  A 0.54 0.44 6.0 0 0 242.45 619.59
  C 238.18 623.17 238.96 626.89 240.20 631.87
  Q 240.97 634.96 241.90 636.99
  A 1.88 1.80 64.2 0 0 244.39 637.92
  Q 245.12 637.55 245.04 636.23
  Q 244.77 632.26 243.39 627.58
  C 241.79 622.13 249.91 623.75 251.48 619.21
  Q 252.65 615.83 253.31 613.53
  A 2.03 2.03 0.0 0 1 255.39 612.06
  C 271.79 612.97 284.83 618.25 299.51 626.49
  A 4.60 4.60 0.0 0 0 303.56 626.72
  L 304.68 626.24
  A 1.43 1.42 48.0 0 0 304.81 623.68
  Z
  M 282.6355 634.8889
  A 13.33 12.31 9.8 0 0 271.5953 620.4896
  A 13.33 12.31 9.8 0 0 256.3645 630.3511
  A 13.33 12.31 9.8 0 0 267.4047 644.7504
  A 13.33 12.31 9.8 0 0 282.6355 634.8889
  Z"
/>
</g>
<g>
<path fill="#0d0f50" d="
  M 648.23 437.15
  L 637.47 418.51
  A 1.47 1.47 0.0 0 0 635.25 418.12
  C 632.66 420.32 630.14 422.35 626.69 420.03
  A 2.06 2.05 35.5 0 0 623.91 420.49
  Q 614.00 433.52 601.54 444.36
  A 2.49 2.48 50.6 0 0 601.21 447.76
  Q 607.20 455.53 611.91 467.28
  A 6.15 6.15 0.0 0 1 612.02 471.56
  L 611.99 471.65
  A 1.12 1.12 0.0 0 1 609.99 471.90
  Q 608.68 469.88 603.69 460.27
  C 601.01 455.09 598.34 451.85 594.87 446.87
  C 593.37 444.73 594.48 443.16 596.33 441.69
  Q 602.28 436.97 603.99 435.24
  Q 614.30 424.88 622.93 414.00
  A 1.45 1.44 28.9 0 1 624.55 413.54
  L 629.43 415.30
  A 3.14 3.12 32.3 0 0 632.70 414.57
  L 635.47 411.80
  A 1.70 1.70 0.0 0 1 638.08 412.04
  Q 644.49 421.40 650.83 432.18
  Q 652.57 435.14 653.18 437.07
  A 4.05 4.05 0.0 0 1 652.22 441.10
  Q 645.68 447.83 642.04 451.05
  Q 641.85 451.22 641.43 451.31
  A 1.23 1.19 87.2 0 1 640.00 449.97
  C 640.37 446.36 645.30 442.45 647.86 439.92
  A 2.29 2.29 0.0 0 0 648.23 437.15
  Z"
/>
<path fill="#0d0f50" d="
  M 616.5306 461.7802
  A 12.26 10.42 113.3 0 1 611.8098 446.3984
  A 12.26 10.42 113.3 0 1 626.2294 439.2598
  A 12.26 10.42 113.3 0 1 630.9502 454.6416
  A 12.26 10.42 113.3 0 1 616.5306 461.7802
  Z
  M 618.5293 457.7030
  A 7.58 6.22 112.5 0 0 627.1765 453.0803
  A 7.58 6.22 112.5 0 0 624.3307 443.6970
  A 7.58 6.22 112.5 0 0 615.6835 448.3197
  A 7.58 6.22 112.5 0 0 618.5293 457.7030
  Z"
/>
<path fill="#0d0f50" d="
  M 273.15 447.20
  A 0.76 0.75 -3.0 0 1 273.78 446.51
  L 296.11 442.67
  A 1.62 1.61 74.9 0 1 297.89 443.70
  L 299.80 448.85
  A 2.17 2.15 -89.8 0 0 301.04 450.11
  C 304.27 451.39 306.44 452.90 307.54 456.59
  Q 309.84 464.28 309.00 471.46
  A 1.89 1.80 -80.8 0 1 306.83 473.11
  Q 306.29 472.99 306.05 471.95
  Q 305.14 467.99 304.55 460.51
  C 304.19 455.92 301.43 455.93 297.98 454.31
  C 295.87 453.32 295.31 450.98 294.94 448.80
  A 1.02 1.01 80.2 0 0 293.76 447.96
  L 280.26 450.28
  A 1.58 1.58 0.0 0 0 279.04 452.38
  Q 280.79 457.11 280.78 460.41
  A 1.80 1.74 -86.9 0 1 278.84 462.21
  Q 277.67 462.08 277.43 461.06
  Q 275.87 454.61 273.23 448.24
  Q 273.10 447.92 273.15 447.20
  Z"
/>
<path fill="#0d0f50" d="
  M 298.6017 465.8475
  A 9.50 9.12 -42.7 0 1 297.8048 478.9924
  A 9.50 9.12 -42.7 0 1 284.6383 478.7325
  A 9.50 9.12 -42.7 0 1 285.4352 465.5876
  A 9.50 9.12 -42.7 0 1 298.6017 465.8475
  Z
  M 295.2513 469.7118
  A 4.71 4.52 -36.6 0 0 288.7751 468.8913
  A 4.71 4.52 -36.6 0 0 287.6887 475.3282
  A 4.71 4.52 -36.6 0 0 294.1649 476.1487
  A 4.71 4.52 -36.6 0 0 295.2513 469.7118
  Z"
/>
<ellipse fill="#efdcbc" cx="0.00" cy="0.00" transform="translate(525.64,509.08) rotate(54.9)" rx="5.93" ry="5.44"/>
<ellipse fill="#efdcbc" cx="0.00" cy="0.00" transform="translate(372.68,556.31) rotate(112.7)" rx="8.14" ry="6.66"/>
<ellipse fill="#efdcbc" cx="0.00" cy="0.00" transform="translate(645.23,571.89) rotate(111.2)" rx="7.93" ry="6.81"/>
<path fill="#0d0f50" d="
  M 304.81 623.68
  A 1.43 1.42 48.0 0 1 304.68 626.24
  L 303.56 626.72
  A 4.60 4.60 0.0 0 1 299.51 626.49
  C 284.83 618.25 271.79 612.97 255.39 612.06
  A 2.03 2.03 0.0 0 0 253.31 613.53
  Q 252.65 615.83 251.48 619.21
  C 249.91 623.75 241.79 622.13 243.39 627.58
  Q 244.77 632.26 245.04 636.23
  Q 245.12 637.55 244.39 637.92
  A 1.88 1.80 64.2 0 1 241.90 636.99
  Q 240.97 634.96 240.20 631.87
  C 238.96 626.89 238.18 623.17 242.45 619.59
  A 0.54 0.44 6.0 0 1 242.62 619.48
  L 246.20 617.89
  A 2.30 2.29 87.8 0 0 247.43 616.56
  L 250.20 608.77
  A 1.95 1.90 -5.4 0 1 251.09 607.72
  Q 251.91 607.27 254.02 607.23
  C 272.69 606.82 288.87 614.95 304.81 623.68
  Z"
/>
<path fill="#0d0f50" d="
  M 282.6355 634.8889
  A 13.33 12.31 9.8 0 1 267.4047 644.7504
  A 13.33 12.31 9.8 0 1 256.3645 630.3511
  A 13.33 12.31 9.8 0 1 271.5953 620.4896
  A 13.33 12.31 9.8 0 1 282.6355 634.8889
  Z
  M 278.2781 634.5180
  A 8.87 7.94 11.3 0 0 271.1358 624.9939
  A 8.87 7.94 11.3 0 0 260.8819 631.0420
  A 8.87 7.94 11.3 0 0 268.0242 640.5661
  A 8.87 7.94 11.3 0 0 278.2781 634.5180
  Z"
/>
</g>
<g>
<ellipse fill="#efdcbc" cx="0.00" cy="0.00" transform="translate(621.43,450.70) rotate(112.5)" rx="7.58" ry="6.22"/>
<ellipse fill="#efdcbc" cx="0.00" cy="0.00" transform="translate(291.47,472.52) rotate(-36.6)" rx="4.71" ry="4.52"/>
<ellipse fill="#efdcbc" cx="0.00" cy="0.00" transform="translate(269.58,632.78) rotate(11.3)" rx="8.87" ry="7.94"/>
</g>
</svg>
