<?xml version="1.0" encoding="UTF-8" standalone="no"?>
<!DOCTYPE svg PUBLIC "-//W3C//DTD SVG 1.0//EN" "http://www.w3.org/TR/2001/REC-SVG-20010904/DTD/svg10.dtd">
<svg xmlns="http://www.w3.org/2000/svg" version="1.0" viewBox="0.00 0.00 800.00 736.00">
<g stroke-width="2.00" fill="none" stroke-linecap="butt">
<path stroke="#6c363a" d="
  M 545.25 172.86
  Q 544.67 170.50 544.38 168.58
  Q 543.37 161.85 541.96 155.11
  Q 541.50 152.90 540.61 151.55
  A 2.72 2.71 68.4 0 0 537.87 150.36
  L 504.66 156.12"
/>
<path stroke="#e19c6c" d="
  M 504.66 156.12
  C 502.95 149.79 501.03 143.38 502.52 136.34
  Q 503.26 132.89 503.52 130.53
  A 0.83 0.83 0.0 0 0 502.46 129.64
  C 496.19 131.47 493.73 139.86 491.75 145.22
  Q 489.17 152.20 488.66 156.33
  A 1.05 1.04 29.6 0 1 486.80 156.84
  C 482.58 151.47 480.86 144.52 478.94 137.09
  Q 477.13 130.11 470.52 127.35
  A 1.11 1.11 0.0 0 0 469.02 128.65
  Q 470.98 136.35 470.37 143.48
  Q 470.16 145.87 468.31 152.53
  Q 467.09 156.90 465.97 161.52"
/>
<path stroke="#6c363a" d="
  M 465.97 161.52
  L 456.14 162.70
  A 2.72 2.72 0.0 0 0 453.74 165.47
  Q 453.99 176.61 455.94 190.16
  Q 456.51 194.09 457.67 209.50
  Q 458.02 214.29 456.74 216.94"
/>
<path stroke="#7c6f7e" d="
  M 504.66 156.12
  Q 485.95 159.47 465.97 161.52"
/>
<path stroke="#6c363a" d="
  M 689.66 313.94
  Q 688.45 311.76 687.42 308.34
  Q 686.24 304.44 682.19 306.02
  Q 674.95 308.86 667.41 310.55"
/>
<path stroke="#6c363a" d="
  M 613.73 328.12
  Q 613.71 328.90 611.98 329.26
  C 608.54 329.99 602.60 330.76 602.54 334.76
  Q 602.50 336.91 603.19 341.98"
/>
<path stroke="#6c363a" d="
  M 668.44 633.68
  L 670.15 631.72
  A 5.94 5.73 1.1 0 1 670.99 630.94
  Q 676.84 626.55 680.56 622.65
  Q 681.97 621.18 681.78 619.20
  A 1.37 1.35 -71.8 0 0 681.35 618.33
  Q 678.93 616.09 678.07 615.43
  Q 661.32 602.74 647.74 588.07
  C 639.98 579.68 633.61 570.47 627.26 560.79
  Q 625.94 558.77 624.18 558.06
  A 1.65 1.65 0.0 0 0 623.12 558.00
  L 611.07 561.41"
/>
<path stroke="#6c363a" d="
  M 168.30 263.92
  L 228.15 175.72
  A 2.24 2.23 61.6 0 0 228.53 174.44
  Q 228.49 171.69 225.92 169.26
  A 1.26 1.26 0.0 0 0 224.54 169.02
  L 156.92 198.74
  A 5.22 5.17 -76.7 0 0 155.67 199.52
  Q 154.61 200.36 151.88 205.12
  Q 146.63 214.24 144.99 217.40
  A 4.34 4.33 45.2 0 0 144.98 221.41
  L 166.86 263.84
  A 0.84 0.84 0.0 0 0 168.30 263.92"
/>
<path stroke="#6c363a" d="
  M 232.91 180.26
  A 0.73 0.73 0.0 0 0 231.66 180.20
  L 170.49 270.37
  A 0.73 0.73 0.0 0 0 170.46 271.13
  L 189.45 305.40
  A 0.73 0.73 0.0 0 0 190.70 305.46
  L 251.88 215.29
  A 0.73 0.73 0.0 0 0 251.91 214.53
  L 232.91 180.26"
/>
<path stroke="#6c363a" d="
  M 255.70 220.93
  A 0.57 0.57 0.0 0 0 254.73 220.89
  L 192.85 312.09
  A 0.57 0.57 0.0 0 0 192.82 312.69
  L 212.10 347.45
  A 0.57 0.57 0.0 0 0 213.07 347.49
  L 274.55 255.54
  A 0.57 0.57 0.0 0 0 274.57 254.95
  L 255.70 220.93"
/>
<path stroke="#6c363a" d="
  M 277.92 261.17
  A 0.35 0.35 0.0 0 0 277.32 261.15
  L 215.68 353.36
  A 0.35 0.35 0.0 0 0 215.66 353.73
  L 235.11 388.81
  A 0.35 0.35 0.0 0 0 235.71 388.84
  L 296.94 295.87
  A 0.35 0.35 0.0 0 0 296.96 295.50
  L 277.92 261.17"
/>
<path stroke="#6c363a" d="
  M 300.07 301.83
  A 0.34 0.34 0.0 0 0 299.49 301.81
  L 238.54 394.34
  A 0.34 0.34 0.0 0 0 238.53 394.69
  L 258.98 431.56
  A 0.34 0.34 0.0 0 0 259.56 431.58
  L 320.51 339.06
  A 0.34 0.34 0.0 0 0 320.52 338.71
  L 300.07 301.83"
/>
<path stroke="#6c363a" d="
  M 153.99 308.75
  A 0.33 0.33 0.0 0 0 153.43 308.73
  L 103.35 383.66
  A 0.33 0.33 0.0 0 0 103.31 383.96
  L 118.98 423.07
  A 0.33 0.33 0.0 0 0 119.57 423.12
  L 172.15 341.86
  A 0.33 0.33 0.0 0 0 172.16 341.52
  L 153.99 308.75"
/>
<path stroke="#6c363a" d="
  M 100.79 375.84
  A 0.68 0.68 0.0 0 0 101.99 375.97
  L 144.64 312.16
  A 0.68 0.68 0.0 0 0 143.82 311.15
  L 109.09 325.07
  A 0.68 0.68 0.0 0 0 108.74 325.37
  L 92.66 354.90
  A 0.68 0.68 0.0 0 0 92.63 355.48
  L 100.79 375.84"
/>
<path stroke="#6c363a" d="
  M 352.34 371.00
  Q 352.35 371.33 352.25 371.49
  Q 348.99 376.60 286.08 475.10
  Q 284.79 477.13 285.71 478.83
  Q 301.29 507.67 303.93 512.34
  A 1.07 1.06 45.8 0 0 305.77 512.37
  Q 315.96 495.49 327.32 477.73
  C 340.07 457.80 349.41 442.37 361.12 423.97
  Q 366.64 415.30 370.27 408.19
  Q 371.39 406.01 378.86 392.05
  Q 379.46 390.93 380.57 389.32
  Q 381.04 388.64 382.26 386.57
  Q 406.54 345.12 420.40 321.64
  Q 421.23 320.23 421.63 319.19
  A 1.34 1.34 0.0 0 0 420.44 317.37
  Q 399.76 316.54 388.47 315.50
  Q 386.60 315.33 385.07 317.83
  Q 369.14 343.91 357.67 362.42
  Q 353.34 369.42 352.62 370.24
  A 1.13 1.10 -25.7 0 0 352.34 371.00"
/>
<path stroke="#6c363a" d="
  M 426.29 322.62
  A 0.33 0.33 0.0 0 0 425.76 322.68
  L 387.92 388.24
  A 0.33 0.33 0.0 0 0 387.94 388.60
  L 413.22 423.49
  A 0.33 0.33 0.0 0 0 413.77 423.46
  L 453.29 352.61
  A 0.33 0.33 0.0 0 0 453.25 352.22
  L 426.29 322.62"
/>
<path stroke="#6c363a" d="
  M 324.37 345.21
  A 0.81 0.81 0.0 0 0 322.98 345.16
  L 262.35 437.21
  A 0.81 0.81 0.0 0 0 262.32 438.05
  L 280.67 471.13
  A 0.81 0.81 0.0 0 0 282.06 471.18
  L 341.85 377.62
  A 0.81 0.81 0.0 0 0 341.88 376.79
  L 324.37 345.21"
/>
<path stroke="#6c363a" d="
  M 175.57 348.69
  A 0.52 0.52 0.0 0 0 174.68 348.66
  L 121.31 429.67
  A 0.52 0.52 0.0 0 0 121.26 430.15
  L 137.10 469.69
  A 0.52 0.52 0.0 0 0 138.02 469.78
  L 193.91 382.32
  A 0.52 0.52 0.0 0 0 193.93 381.79
  L 175.57 348.69"
/>
<path stroke="#6c363a" d="
  M 457.73 357.06
  A 0.84 0.84 0.0 0 0 456.39 357.24
  L 417.56 428.52
  A 0.84 0.84 0.0 0 0 417.63 429.43
  L 441.55 460.71
  A 0.84 0.84 0.0 0 0 442.96 460.60
  L 483.80 385.60
  A 0.84 0.84 0.0 0 0 483.67 384.63
  L 457.73 357.06"
/>
<path stroke="#6c363a" d="
  M 197.15 388.35
  A 0.36 0.36 0.0 0 0 196.52 388.32
  L 140.19 476.47
  A 0.36 0.36 0.0 0 0 140.16 476.80
  L 156.44 517.43
  A 0.36 0.36 0.0 0 0 157.08 517.49
  L 215.52 424.35
  A 0.36 0.36 0.0 0 0 215.54 424.00
  L 197.15 388.35"
/>
<path stroke="#6c363a" d="
  M 488.52 390.30
  A 0.71 0.71 0.0 0 0 487.37 390.44
  L 446.34 465.78
  A 0.71 0.71 0.0 0 0 446.41 466.56
  L 473.01 500.04
  A 0.71 0.71 0.0 0 0 474.20 499.93
  L 515.95 421.10
  A 0.71 0.71 0.0 0 0 515.84 420.29
  L 488.52 390.30"
/>
<path stroke="#6c363a" d="
  M 366.79 425.11
  L 308.76 517.56
  A 2.86 2.85 -42.3 0 0 308.62 520.33
  Q 310.20 523.55 310.74 524.49
  Q 316.53 534.45 325.20 550.33
  Q 325.86 551.52 327.49 552.70
  A 1.31 1.30 57.3 0 0 328.48 552.92
  Q 330.67 552.53 331.84 550.61
  Q 354.06 514.07 374.33 482.56
  C 377.37 477.84 381.21 470.98 384.84 466.11
  Q 386.59 463.77 385.96 462.54
  Q 383.32 457.39 367.55 425.15
  A 0.44 0.43 47.8 0 0 366.79 425.11"
/>
<path stroke="#6c363a" d="
  M 520.01 425.93
  A 0.32 0.32 0.0 0 0 519.49 426.00
  L 477.60 505.09
  A 0.32 0.32 0.0 0 0 477.63 505.43
  L 500.89 534.71
  A 0.32 0.32 0.0 0 0 501.42 534.67
  L 545.64 453.48
  A 0.32 0.32 0.0 0 0 545.59 453.11
  L 520.01 425.93"
/>
<path stroke="#6c363a" d="
  M 218.81 430.36
  A 0.80 0.78 22.8 0 0 217.96 430.70
  L 159.68 523.56
  A 3.07 3.07 0.0 0 0 159.42 526.27
  Q 166.74 545.31 173.97 560.04
  Q 174.73 561.59 176.07 562.10
  A 2.34 2.28 25.8 0 0 178.86 561.17
  Q 204.63 518.30 233.98 470.74
  C 234.77 469.47 235.45 467.70 236.46 466.26
  A 2.28 2.27 49.0 0 0 236.62 463.94
  Q 228.28 447.51 219.32 430.65
  Q 219.22 430.45 218.81 430.36"
/>
<path stroke="#6c363a" d="
  M 549.07 459.49
  Q 545.48 465.08 543.63 468.42
  Q 534.49 484.90 525.55 501.62
  Q 524.25 504.05 523.00 506.44
  Q 515.90 520.00 505.87 537.69
  A 2.28 2.27 -47.9 0 0 505.99 540.11
  Q 507.56 542.34 510.12 544.33
  Q 512.10 545.87 514.80 544.07
  Q 546.13 523.04 552.18 519.20
  Q 554.56 517.69 554.68 515.70
  Q 556.12 492.33 559.36 471.27
  A 2.88 2.85 -61.9 0 0 558.65 468.90
  L 550.01 459.41
  A 0.60 0.59 -49.8 0 0 549.07 459.49"
/>
<path stroke="#6c363a" d="
  M 343.45 541.94
  A 0.70 0.69 81.1 0 0 344.46 542.68
  Q 375.89 526.04 405.68 508.41
  Q 407.90 507.09 406.67 504.40
  Q 398.84 487.33 389.89 470.16
  A 0.71 0.71 0.0 0 0 388.66 470.10
  Q 375.73 490.29 344.22 540.48
  Q 343.51 541.62 343.45 541.94"
/>
<path stroke="#6c363a" d="
  M 187.28 558.72
  A 0.57 0.57 0.0 0 0 187.89 559.51
  Q 191.86 558.88 196.13 557.33
  Q 214.68 550.58 242.07 538.79
  Q 244.28 537.84 245.00 536.24
  Q 252.75 519.15 258.48 507.73
  A 1.69 1.68 44.8 0 0 258.47 506.21
  L 240.73 471.81
  A 0.61 0.61 0.0 0 0 239.67 471.77
  Q 220.05 503.72 191.06 551.31
  Q 189.44 553.97 187.28 558.72"
/>
<path stroke="#6c363a" d="
  M 246.91 672.05
  A 0.76 0.75 6.0 0 0 247.69 671.42
  Q 248.16 668.64 249.01 665.75
  Q 263.62 615.96 278.40 569.86
  A 1.19 1.18 -73.7 0 0 277.58 568.35
  L 257.60 563.09
  A 3.68 3.67 -52.1 0 0 254.84 563.44
  C 251.70 565.21 247.66 567.93 246.60 571.59
  Q 238.04 601.31 230.43 625.19
  C 228.09 632.56 226.03 640.94 223.57 648.20
  A 2.13 2.12 35.6 0 0 223.90 650.17
  Q 225.27 651.91 226.11 652.66
  Q 234.38 659.98 246.06 671.69
  Q 246.40 672.03 246.91 672.05"
/>
<path stroke="#6c363a" d="
  M 298.82 618.18
  C 299.77 616.04 300.99 614.18 301.82 611.89
  Q 307.53 596.09 312.67 579.18
  A 0.70 0.69 17.5 0 0 312.21 578.31
  L 285.63 570.20
  A 1.66 1.65 -72.6 0 0 283.57 571.28
  C 274.11 601.24 265.31 630.60 256.08 660.07
  A 0.70 0.70 0.0 0 0 256.85 660.97
  Q 257.12 660.93 257.40 660.65
  Q 261.19 656.75 265.80 652.80
  Q 276.65 643.50 285.05 636.57
  Q 286.64 635.26 287.66 633.66
  Q 292.46 626.12 298.32 618.99
  A 3.34 3.25 -14.0 0 0 298.82 618.18"
/>
<path stroke="#6c363a" d="
  M 239.57 576.89
  A 0.70 0.70 0.0 0 0 238.48 576.12
  L 186.92 614.53
  A 0.70 0.70 0.0 0 0 186.85 615.60
  L 217.74 644.90
  A 0.70 0.70 0.0 0 0 218.89 644.60
  L 239.57 576.89"
/>
<path stroke="#6c363a" d="
  M 305.68 617.20
  A 0.63 0.63 0.0 0 0 306.34 618.03
  Q 312.50 617.46 318.56 616.06
  Q 322.14 615.24 324.13 614.10
  Q 329.87 610.78 336.33 605.83
  Q 338.18 604.42 339.00 601.75
  Q 339.93 598.75 343.20 589.23
  A 1.61 1.60 -71.4 0 0 342.19 587.19
  L 319.88 579.71
  A 1.55 1.54 18.5 0 0 317.92 580.68
  L 305.68 617.20"
/>
<path stroke="#6c363a" d="
  M 345.62 597.49
  A 0.83 0.83 0.0 0 0 346.93 598.40
  L 353.97 592.81
  A 1.30 1.29 41.6 0 0 353.84 590.70
  Q 351.68 589.37 349.35 589.30
  A 1.31 1.31 0.0 0 0 348.07 590.19
  L 345.62 597.49"
/>
<path stroke="#6c363a" d="
  M 245.28 679.62
  A 0.86 0.86 0.0 0 0 245.00 678.97
  L 186.21 624.43
  A 0.86 0.86 0.0 0 0 184.77 625.04
  L 184.12 649.73
  A 0.86 0.86 0.0 0 0 184.39 650.37
  L 243.14 706.10
  A 0.86 0.86 0.0 0 0 244.59 705.50
  L 245.28 679.62"
/>
<path stroke="#7c6f7e" d="
  M 442.56 258.72
  A 0.43 0.43 0.0 0 0 442.65 259.37
  Q 465.96 273.80 489.25 287.50
  Q 494.95 290.85 499.65 293.20
  A 2.23 2.21 -51.6 0 0 502.07 292.91
  Q 517.56 279.85 528.50 260.95
  Q 547.40 228.33 540.90 189.55
  Q 536.97 166.14 535.80 157.69
  A 0.75 0.74 80.5 0 0 534.92 157.06
  Q 523.04 159.26 509.22 161.92
  Q 485.07 166.58 460.80 168.79
  A 1.03 1.02 84.0 0 0 459.88 169.94
  Q 461.56 184.01 463.32 199.79
  C 465.40 218.47 463.50 235.40 451.53 249.71
  C 448.71 253.08 445.16 255.85 442.56 258.72"
/>
<path stroke="#7c6f7e" d="
  M 476.76 175.99
  C 478.09 182.18 477.62 189.48 470.30 191.04
  A 1.14 1.14 0.0 0 0 469.41 192.30
  Q 470.77 203.51 470.37 215.49
  C 469.88 230.10 464.29 244.59 455.78 257.72
  A 1.38 1.38 0.0 0 0 456.19 259.63
  Q 469.35 268.16 484.65 275.34
  Q 489.49 277.61 493.73 278.86
  A 1.63 1.62 -64.6 0 0 495.54 278.21
  C 498.27 274.22 503.43 268.06 508.91 270.22
  Q 508.96 270.24 512.24 271.16
  A 1.49 1.49 0.0 0 0 513.86 270.57
  C 519.06 263.09 523.61 256.75 527.07 248.80
  C 535.78 228.78 537.13 206.78 532.33 185.39
  A 0.97 0.97 0.0 0 0 531.50 184.64
  C 525.89 183.93 522.28 182.67 520.24 176.72
  Q 519.16 173.57 519.24 169.86
  A 1.14 1.13 86.2 0 0 517.93 168.71
  L 477.43 175.01
  A 0.81 0.81 0.0 0 0 476.76 175.99"
/>
<path stroke="#7c6f7e" d="
  M 493.41 272.01
  C 498.13 266.73 502.27 262.39 509.89 265.00
  A 1.54 1.53 26.9 0 0 511.64 264.43
  C 517.66 255.79 522.73 247.07 525.74 236.79
  Q 532.39 214.09 527.97 191.01
  A 1.74 1.72 5.5 0 0 526.91 189.74
  C 520.23 187.06 515.50 183.44 514.21 175.92
  A 1.06 1.06 0.0 0 0 512.98 175.06
  L 483.93 180.12
  A 1.07 1.07 0.0 0 0 483.04 181.10
  C 482.62 187.04 480.74 192.20 475.55 195.46
  A 1.27 1.26 -19.6 0 0 474.96 196.69
  Q 476.89 212.03 474.34 227.63
  C 472.66 237.90 468.02 247.28 462.85 256.28
  A 1.11 1.11 0.0 0 0 463.24 257.78
  Q 477.12 266.13 491.73 272.38
  A 1.48 1.46 32.3 0 0 493.41 272.01"
/>
<path stroke="#7c6f7e" d="
  M 498.7074 249.7535
  A 22.34 18.70 97.0 0 0 519.9906 229.8590
  A 22.34 18.70 97.0 0 0 504.1526 205.4065
  A 22.34 18.70 97.0 0 0 482.8694 225.3010
  A 22.34 18.70 97.0 0 0 498.7074 249.7535"
/>
<path stroke="#7c6f7e" d="
  M 499.4674 244.0528
  A 16.66 13.33 96.8 0 0 514.6762 229.0883
  A 16.66 13.33 96.8 0 0 503.4126 210.9672
  A 16.66 13.33 96.8 0 0 488.2038 225.9317
  A 16.66 13.33 96.8 0 0 499.4674 244.0528"
/>
<path stroke="#7c6f7e" d="
  M 725.52 380.67
  A 0.78 0.77 -63.9 0 0 725.28 379.95
  C 706.09 361.84 692.23 338.89 682.47 314.21
  A 1.48 1.48 0.0 0 0 680.41 313.44
  Q 678.51 314.42 675.86 315.34
  Q 641.71 327.14 610.88 336.62
  A 1.74 1.73 74.5 0 0 609.71 338.70
  C 616.54 365.45 628.86 393.17 647.49 412.85
  C 653.03 418.71 657.71 422.14 665.16 427.63
  Q 667.87 429.62 670.64 427.93
  Q 689.57 416.37 706.58 400.06
  Q 712.47 394.41 724.50 382.25
  Q 725.39 381.35 725.52 380.67"
/>
<path stroke="#7c6f7e" d="
  M 667.48 325.85
  L 629.47 338.05
  A 1.18 1.18 0.0 0 0 628.65 339.24
  C 628.77 341.68 629.76 344.04 629.65 346.81
  Q 629.37 354.00 623.40 356.13
  A 0.92 0.91 70.0 0 0 622.85 357.32
  Q 627.35 369.29 632.46 379.74
  Q 639.63 394.38 650.95 407.23
  Q 654.31 411.04 658.48 414.59
  A 2.45 2.44 50.0 0 0 661.29 414.84
  C 664.79 412.79 668.31 411.00 672.42 412.42
  Q 672.52 412.46 677.06 414.20
  A 2.20 2.18 -51.6 0 0 679.08 413.96
  C 691.77 405.34 701.88 394.53 714.77 381.65
  A 0.84 0.84 0.0 0 0 714.83 380.54
  Q 709.49 373.80 703.84 366.90
  C 697.55 359.22 691.04 347.75 685.11 337.33
  A 2.39 2.38 -11.9 0 0 683.26 336.13
  C 676.09 335.43 671.56 334.26 669.12 326.69
  A 1.30 1.30 0.0 0 0 667.48 325.85"
/>
<path stroke="#7c6f7e" d="
  M 707.71 380.39
  Q 707.60 379.93 707.34 379.65
  C 697.06 368.24 688.90 355.51 681.74 342.58
  A 2.42 2.42 0.0 0 0 679.80 341.33
  Q 670.72 340.68 666.28 333.04
  A 1.07 1.07 0.0 0 0 665.03 332.56
  L 635.86 341.93
  A 1.13 1.11 -11.0 0 0 635.08 343.07
  C 635.48 348.98 634.54 354.55 630.30 358.90
  A 1.82 1.82 0.0 0 0 629.94 360.92
  C 634.80 371.77 638.51 381.27 644.66 390.16
  Q 651.42 399.96 659.12 408.22
  A 1.86 1.86 0.0 0 0 661.19 408.67
  Q 664.18 407.44 666.73 406.70
  C 670.10 405.73 674.14 407.62 676.75 408.34
  A 1.86 1.84 -55.9 0 0 678.36 408.02
  C 688.70 400.08 698.46 390.50 707.51 381.13
  A 0.79 0.77 -30.7 0 0 707.71 380.39"
/>
<path stroke="#7c6f7e" d="
  M 651.69 357.13
  C 640.81 368.61 648.99 385.98 660.66 392.61
  C 669.09 397.40 678.80 396.14 685.46 389.11
  C 692.11 382.09 692.84 372.32 687.60 364.17
  C 680.35 352.87 662.56 345.65 651.69 357.13"
/>
<path stroke="#7c6f7e" d="
  M 681.3913 385.9630
  A 17.90 14.77 44.8 0 0 679.0974 362.8696
  A 17.90 14.77 44.8 0 0 655.9887 360.7370
  A 17.90 14.77 44.8 0 0 658.2826 383.8304
  A 17.90 14.77 44.8 0 0 681.3913 385.9630"
/>
<path stroke="#7c6f7e" d="
  M 486.51 611.64
  Q 499.37 651.53 516.55 690.35
  A 1.68 1.67 79.4 0 0 518.00 691.35
  Q 529.54 691.96 539.12 691.37
  C 571.34 689.38 599.07 677.43 624.43 657.92
  C 647.06 640.52 660.68 630.08 673.00 621.26
  A 1.09 1.09 0.0 0 0 673.03 619.50
  Q 651.21 603.06 634.16 582.25
  C 630.20 577.41 626.91 572.40 622.77 566.20
  A 1.23 1.22 64.4 0 0 621.40 565.71
  Q 598.01 572.87 576.36 585.62
  Q 565.51 592.01 555.81 597.04
  C 534.60 608.05 510.32 612.03 486.87 611.18
  A 0.36 0.35 -7.4 0 0 486.51 611.64"
/>
<path stroke="#7c6f7e" d="
  M 653.95 615.91
  A 1.08 1.06 -68.6 0 0 653.64 615.18
  L 629.20 590.49
  A 1.48 1.48 0.0 0 0 627.72 590.12
  C 619.96 592.44 614.85 584.64 610.98 579.08
  A 1.90 1.89 -28.3 0 0 608.72 578.41
  C 601.88 581.13 593.56 584.99 585.89 589.19
  C 568.99 598.44 557.33 605.42 543.32 610.31
  Q 527.43 615.86 511.10 616.84
  A 0.79 0.78 88.8 0 0 510.36 617.62
  C 510.27 622.69 509.74 627.81 506.75 631.70
  A 2.45 2.40 -83.3 0 1 505.86 632.42
  L 502.87 633.87
  A 1.33 1.33 0.0 0 0 502.20 635.52
  Q 506.79 648.09 511.72 660.53
  Q 513.79 665.74 516.05 670.17
  A 1.89 1.89 0.0 0 0 517.81 671.20
  C 524.61 670.96 531.45 671.41 535.16 677.84
  Q 536.55 680.26 537.18 681.70
  A 2.07 2.06 -12.2 0 0 539.08 682.92
  C 564.24 682.62 588.48 674.04 608.75 659.73
  Q 617.47 653.58 630.62 642.87
  Q 638.38 636.56 644.54 632.64
  A 1.31 1.31 0.0 0 0 645.13 631.31
  C 644.56 627.92 643.64 624.26 646.80 621.54
  Q 649.29 619.41 653.61 616.54
  A 0.69 0.69 0.0 0 0 653.86 616.20
  Q 653.95 615.94 653.95 615.91"
/>
<path stroke="#7c6f7e" d="
  M 607.45 585.16
  Q 603.93 586.43 600.61 588.10
  C 586.06 595.45 574.08 602.73 558.68 610.23
  Q 549.03 614.94 543.91 616.50
  C 534.87 619.27 527.36 620.54 516.92 622.06
  A 1.33 1.32 -3.1 0 0 515.78 623.32
  Q 515.47 631.85 510.05 636.82
  A 2.26 2.25 57.9 0 0 509.48 639.32
  L 519.66 664.74
  A 1.37 1.36 80.1 0 0 520.88 665.60
  C 527.42 665.84 533.18 666.34 537.65 671.61
  Q 539.70 674.03 541.48 676.52
  A 2.01 2.01 0.0 0 0 543.27 677.35
  Q 579.56 674.63 608.68 652.65
  Q 617.68 645.86 632.05 634.55
  Q 634.07 632.96 637.85 630.53
  A 1.83 1.81 71.8 0 0 638.68 628.86
  C 638.19 621.74 639.93 620.24 644.83 615.74
  A 1.23 1.23 0.0 0 0 644.87 613.96
  L 627.63 596.72
  A 2.37 2.35 65.7 0 0 625.86 596.04
  C 618.19 596.45 612.18 592.07 608.45 585.53
  A 0.82 0.82 0.0 0 0 607.45 585.16"
/>
<path stroke="#7c6f7e" d="
  M 605.0852 624.4130
  A 29.03 25.15 -19.2 0 0 569.3990 610.2089
  A 29.03 25.15 -19.2 0 0 550.2548 643.5070
  A 29.03 25.15 -19.2 0 0 585.9410 657.7111
  A 29.03 25.15 -19.2 0 0 605.0852 624.4130"
/>
<path stroke="#7c6f7e" d="
  M 599.4412 626.2318
  A 23.11 19.38 -19.3 0 0 571.2246 615.5791
  A 23.11 19.38 -19.3 0 0 555.8188 641.5082
  A 23.11 19.38 -19.3 0 0 584.0354 652.1609
  A 23.11 19.38 -19.3 0 0 599.4412 626.2318"
/>
</g>
<g>
<path fill="#d16227" d="
  M 557.92 16.79
  A 1.16 1.15 -63.5 0 1 558.46 18.42
  Q 556.10 22.54 553.96 25.95
  C 549.68 32.75 548.93 39.47 548.42 47.38
  C 547.78 57.32 543.09 65.95 534.74 70.96
  Q 532.94 72.05 531.59 72.15
  A 1.28 1.28 0.0 0 1 530.24 70.63
  Q 530.81 67.72 531.57 63.89
  C 532.73 58.01 531.79 52.15 532.11 45.56
  C 532.75 32.16 541.47 18.73 555.13 16.65
  Q 556.97 16.37 557.92 16.79
  Z"
/>
<path fill="#d16227" d="
  M 431.06 111.45
  A 1.24 1.23 -89.5 0 1 429.59 112.90
  C 419.42 110.68 413.72 100.92 413.09 90.93
  Q 412.79 86.10 412.55 81.43
  C 411.98 70.08 405.86 62.19 397.11 55.68
  C 395.02 54.12 392.61 51.36 394.00 48.67
  C 396.04 44.69 408.32 49.98 411.11 51.79
  Q 428.19 62.85 427.35 84.49
  Q 427.30 85.84 426.90 89.83
  C 426.26 96.33 427.84 102.66 430.53 109.55
  Q 430.83 110.29 431.06 111.45
  Z"
/>
<path fill="#d16227" d="
  M 545.25 172.86
  Q 544.67 170.50 544.38 168.58
  Q 543.37 161.85 541.96 155.11
  Q 541.50 152.90 540.61 151.55
  A 2.72 2.71 68.4 0 0 537.87 150.36
  L 504.66 156.12
  C 502.95 149.79 501.03 143.38 502.52 136.34
  Q 503.26 132.89 503.52 130.53
  A 0.83 0.83 0.0 0 0 502.46 129.64
  C 496.19 131.47 493.73 139.86 491.75 145.22
  Q 489.17 152.20 488.66 156.33
  A 1.05 1.04 29.6 0 1 486.80 156.84
  C 482.58 151.47 480.86 144.52 478.94 137.09
  Q 477.13 130.11 470.52 127.35
  A 1.11 1.11 0.0 0 0 469.02 128.65
  Q 470.98 136.35 470.37 143.48
  Q 470.16 145.87 468.31 152.53
  Q 467.09 156.90 465.97 161.52
  L 456.14 162.70
  A 2.72 2.72 0.0 0 0 453.74 165.47
  Q 453.99 176.61 455.94 190.16
  Q 456.51 194.09 457.67 209.50
  Q 458.02 214.29 456.74 216.94
  C 449.76 209.08 442.98 202.88 433.13 198.88
  C 422.62 194.62 414.19 190.73 408.80 180.96
  C 404.36 172.90 401.99 163.10 400.66 153.45
  Q 398.30 136.44 397.61 133.14
  Q 395.76 124.35 394.14 121.08
  Q 390.49 113.72 389.53 111.79
  Q 388.68 110.08 389.60 109.03
  C 390.75 107.72 393.45 108.52 394.71 109.09
  C 408.01 115.07 411.61 127.27 416.83 140.19
  C 419.11 145.84 423.17 152.57 428.65 155.06
  C 432.23 156.69 436.08 155.39 437.87 151.76
  Q 438.70 150.08 438.44 144.98
  Q 437.71 130.43 446.05 118.50
  Q 451.38 110.87 452.82 108.04
  C 458.31 97.23 455.13 86.16 448.53 76.68
  Q 448.25 76.28 448.11 75.53
  A 1.51 1.50 77.6 0 1 449.21 73.80
  Q 452.40 72.98 456.11 73.94
  C 466.54 76.65 475.51 85.50 477.64 96.38
  Q 477.97 98.07 479.16 107.30
  C 479.46 109.58 481.09 114.01 483.64 114.69
  C 490.48 116.51 492.35 104.45 492.28 100.47
  Q 492.23 97.09 490.80 84.03
  Q 488.78 65.69 504.70 57.22
  Q 509.44 54.70 514.20 56.04
  Q 516.02 56.55 515.10 59.16
  Q 514.67 60.38 511.88 65.56
  A 8.01 7.64 -25.2 0 0 511.21 67.29
  C 508.70 77.28 514.04 83.66 519.38 91.88
  C 527.31 104.10 525.35 115.99 522.61 129.53
  C 522.22 131.46 523.27 136.81 526.08 137.12
  C 535.19 138.13 534.45 123.59 534.24 117.52
  C 534.01 111.27 535.69 99.35 541.17 96.06
  A 1.57 1.56 73.7 0 1 543.54 97.36
  C 543.74 103.72 543.92 107.56 545.95 112.76
  C 548.31 118.78 551.09 124.39 553.57 131.24
  C 558.83 145.76 553.97 160.89 545.25 172.86
  Z"
/>
<path fill="#07094c" d="
  M 406.71 430.27
  L 406.54 430.59
  A 0.84 0.82 44.3 0 0 406.56 431.39
  Q 407.83 433.52 408.04 433.95
  Q 422.50 464.05 429.22 479.12
  Q 430.29 481.52 431.25 483.91
  Q 431.91 485.55 430.74 487.24
  Q 429.68 488.78 418.81 505.59
  Q 415.11 511.33 410.54 514.05
  Q 368.75 538.94 329.70 559.20
  Q 326.78 560.72 325.52 560.58
  C 320.81 560.07 317.79 553.74 314.79 548.73
  Q 314.34 547.96 290.14 503.90
  Q 286.87 497.95 283.35 492.56
  A 0.36 0.36 0.0 0 0 282.69 492.67
  Q 281.65 497.08 280.41 500.43
  Q 273.18 519.89 271.29 524.79
  Q 270.62 526.51 268.88 528.12
  Q 262.10 534.40 250.98 542.23
  Q 247.10 544.96 244.03 546.27
  Q 223.97 554.86 208.48 560.95
  A 0.39 0.39 0.0 0 0 208.62 561.71
  L 239.60 561.66
  A 5.93 5.91 30.5 0 0 242.45 560.93
  C 247.70 558.08 253.11 554.27 259.00 555.76
  Q 272.90 559.26 280.33 560.47
  Q 287.64 561.65 300.82 561.64
  Q 400.08 561.56 560.46 562.39
  Q 562.98 562.40 564.45 562.74
  C 567.67 563.47 567.21 567.99 564.33 568.83
  Q 562.51 569.37 561.76 569.37
  C 487.99 569.54 411.08 569.33 323.75 568.85
  Q 316.88 568.81 313.03 569.13
  A 0.79 0.79 0.0 0 0 312.54 570.48
  Q 312.57 570.51 312.92 570.60
  Q 319.32 572.14 323.79 573.47
  Q 341.13 578.64 362.93 585.31
  Q 368.96 587.16 368.92 593.11
  Q 368.80 610.84 368.89 621.77
  Q 368.91 623.98 367.37 625.38
  Q 353.17 638.33 333.13 655.39
  C 330.05 658.01 326.86 660.72 323.13 660.86
  Q 318.19 661.05 312.03 661.00
  Q 310.37 660.99 308.70 662.46
  Q 284.27 683.98 251.21 714.46
  Q 248.74 716.74 246.98 717.31
  A 1.65 1.65 0.0 0 1 245.53 717.09
  Q 242.02 714.65 239.24 712.05
  Q 214.63 688.95 184.63 661.35
  C 180.81 657.85 176.40 654.32 176.68 649.24
  Q 177.39 636.54 177.37 617.52
  C 177.36 612.20 179.72 610.74 184.17 607.42
  Q 196.16 598.47 209.88 588.63
  C 218.51 582.44 226.69 575.78 234.76 570.53
  Q 235.29 570.18 235.43 569.62
  A 0.69 0.67 -83.3 0 0 234.77 568.77
  Q 214.01 568.90 186.86 568.65
  A 1.18 1.17 1.0 0 0 185.67 569.79
  L 185.19 587.86
  A 3.12 3.12 0.0 0 1 181.98 590.90
  L 181.50 590.89
  A 3.40 3.40 0.0 0 1 178.20 587.49
  L 178.17 569.83
  A 1.12 1.11 -0.0 0 0 177.05 568.72
  L 149.46 568.76
  A 0.97 0.96 -0.6 0 0 148.50 569.73
  L 148.52 587.07
  A 3.84 3.83 86.4 0 1 145.16 590.89
  L 144.61 590.96
  A 2.90 2.90 0.0 0 1 141.35 588.09
  L 141.32 569.84
  A 1.18 1.18 0.0 0 0 140.13 568.66
  L 112.87 568.70
  A 1.13 1.12 0.5 0 0 111.74 569.80
  L 111.26 587.61
  A 3.44 3.44 0.0 0 1 108.25 590.93
  L 107.82 590.99
  A 2.72 2.72 0.0 0 1 104.76 588.29
  L 104.73 570.15
  A 1.55 1.54 0.0 0 0 103.18 568.61
  L 74.80 568.66
  A 1.30 1.29 -0.2 0 0 73.50 569.96
  L 73.56 607.82
  A 4.51 4.51 0.0 0 1 69.78 612.27
  L 69.16 612.37
  A 3.01 3.01 0.0 0 1 65.67 609.41
  L 65.61 569.83
  A 1.20 1.20 0.0 0 0 64.41 568.63
  L 39.16 568.68
  A 3.27 3.27 0.0 0 1 35.90 565.10
  L 35.95 564.57
  A 3.88 3.88 0.0 0 1 39.81 561.06
  L 64.65 561.02
  A 0.98 0.97 90.0 0 0 65.62 560.04
  L 65.56 522.94
  A 1.14 1.13 0.0 0 0 64.42 521.81
  L 44.20 521.84
  A 3.70 3.69 89.8 0 1 40.50 518.15
  L 40.50 517.62
  A 3.54 3.53 89.9 0 1 44.02 514.08
  L 64.02 514.05
  A 1.49 1.49 0.0 0 0 65.51 512.56
  L 65.45 479.75
  A 1.73 1.73 0.0 0 0 63.72 478.02
  L 44.78 478.05
  A 3.96 3.96 0.0 0 1 40.81 474.14
  L 40.80 473.81
  A 3.54 3.54 0.0 0 1 44.33 470.22
  L 63.97 470.19
  A 1.42 1.42 0.0 0 0 65.39 468.77
  L 65.33 435.74
  A 1.37 1.37 0.0 0 0 63.96 434.37
  L 44.23 434.40
  A 3.76 3.76 0.0 0 1 40.46 430.65
  L 40.46 430.22
  A 3.54 3.53 -0.2 0 1 43.99 426.68
  L 63.72 426.65
  A 1.47 1.46 -0.2 0 0 65.18 425.19
  L 65.12 391.96
  A 1.32 1.32 0.0 0 0 63.80 390.64
  L 44.52 390.67
  A 3.64 3.64 0.0 0 1 40.87 386.93
  L 40.89 386.35
  A 3.57 3.56 -89.3 0 1 44.45 382.87
  L 63.77 382.84
  A 1.43 1.42 -1.0 0 0 65.19 381.38
  Q 65.11 378.91 65.10 350.25
  Q 65.10 348.54 64.67 347.48
  A 0.98 0.97 78.7 0 0 63.77 346.87
  L 43.65 346.90
  A 3.37 3.36 -86.8 0 1 40.30 343.15
  L 40.35 342.74
  A 4.11 4.11 0.0 0 1 44.43 339.11
  L 63.89 339.07
  A 1.27 1.27 0.0 0 0 65.16 337.80
  L 65.10 304.49
  A 1.42 1.42 0.0 0 0 63.68 303.07
  L 44.47 303.10
  A 3.81 3.81 0.0 0 1 40.65 299.30
  L 40.65 298.94
  A 3.59 3.59 0.0 0 1 44.23 295.35
  L 63.34 295.32
  A 1.71 1.71 0.0 0 0 65.05 293.60
  L 65.00 260.53
  A 1.11 1.11 0.0 0 0 63.83 259.42
  Q 56.01 259.78 45.49 259.61
  C 38.59 259.50 38.28 252.40 45.29 252.19
  Q 55.37 251.89 63.88 252.15
  A 1.08 1.07 0.8 0 0 64.99 251.08
  L 64.93 216.52
  A 0.97 0.96 -0.6 0 0 63.94 215.56
  Q 55.70 215.76 46.25 215.59
  C 44.01 215.55 41.40 215.09 40.58 212.93
  C 39.17 209.21 43.16 207.93 46.26 207.93
  Q 59.39 207.93 63.82 207.91
  A 1.12 1.11 -0.3 0 0 64.93 206.80
  Q 65.00 184.03 64.98 175.26
  Q 64.98 173.21 64.60 172.35
  A 0.91 0.90 -13.0 0 0 63.74 171.82
  Q 60.54 171.96 45.04 171.94
  C 43.37 171.94 41.22 171.32 40.53 169.70
  C 38.90 165.86 43.07 164.56 46.26 164.44
  Q 52.39 164.22 63.89 164.41
  A 1.14 1.14 0.0 0 0 65.05 163.26
  L 64.98 117.21
  A 3.59 3.59 0.0 0 1 68.57 113.61
  L 69.25 113.61
  A 3.32 3.32 0.0 0 1 72.58 116.92
  L 73.30 560.11
  A 1.15 1.15 0.0 0 0 74.46 561.25
  L 164.81 561.11
  A 0.54 0.54 0.0 0 0 165.30 560.35
  C 156.42 540.62 150.22 524.21 137.97 493.87
  C 119.34 447.75 98.81 394.23 84.61 356.85
  Q 84.10 355.51 84.47 353.75
  A 2.34 2.25 67.0 0 1 84.68 353.20
  Q 96.63 331.29 101.36 322.21
  C 103.05 318.95 104.34 317.59 107.86 316.09
  Q 135.67 304.22 169.84 288.44
  A 1.22 1.22 0.0 0 0 170.40 286.75
  Q 154.93 258.24 138.95 226.54
  Q 137.43 223.52 135.76 219.64
  A 2.33 2.30 -51.1 0 1 135.62 218.25
  Q 135.90 216.90 136.80 215.29
  Q 139.69 210.18 148.16 195.91
  C 149.44 193.76 150.79 192.50 153.21 191.43
  Q 204.90 168.53 252.20 146.34
  A 1.85 1.83 55.4 0 1 254.31 146.74
  Q 255.66 148.15 257.32 151.19
  Q 272.75 179.53 353.81 324.13
  C 356.43 328.80 360.19 334.11 361.92 338.96
  A 0.67 0.67 0.0 0 0 362.88 339.32
  Q 363.40 339.03 363.84 338.33
  Q 375.76 319.17 380.82 310.06
  C 382.32 307.36 385.62 306.64 388.75 306.02
  Q 411.30 301.56 438.93 295.16
  A 2.70 2.68 58.0 0 1 441.25 295.71
  Q 444.53 298.42 445.06 298.94
  Q 477.55 330.31 509.24 363.75
  Q 530.59 386.26 563.18 422.85
  C 570.25 430.79 576.32 437.16 582.15 444.09
  C 584.41 446.77 584.65 450.36 584.79 454.25
  Q 585.52 475.34 586.65 496.69
  C 586.83 499.99 585.76 501.65 583.42 503.68
  Q 564.01 520.44 542.63 534.62
  Q 522.05 548.26 513.36 554.13
  Q 509.94 556.44 507.34 553.79
  Q 503.38 549.74 499.74 545.35
  Q 461.28 499.07 407.57 430.20
  A 0.52 0.51 40.1 0 0 406.71 430.27
  Z
  M 168.30 263.92
  L 228.15 175.72
  A 2.24 2.23 61.6 0 0 228.53 174.44
  Q 228.49 171.69 225.92 169.26
  A 1.26 1.26 0.0 0 0 224.54 169.02
  L 156.92 198.74
  A 5.22 5.17 -76.7 0 0 155.67 199.52
  Q 154.61 200.36 151.88 205.12
  Q 146.63 214.24 144.99 217.40
  A 4.34 4.33 45.2 0 0 144.98 221.41
  L 166.86 263.84
  A 0.84 0.84 0.0 0 0 168.30 263.92
  Z
  M 232.91 180.26
  A 0.73 0.73 0.0 0 0 231.66 180.20
  L 170.49 270.37
  A 0.73 0.73 0.0 0 0 170.46 271.13
  L 189.45 305.40
  A 0.73 0.73 0.0 0 0 190.70 305.46
  L 251.88 215.29
  A 0.73 0.73 0.0 0 0 251.91 214.53
  L 232.91 180.26
  Z
  M 255.70 220.93
  A 0.57 0.57 0.0 0 0 254.73 220.89
  L 192.85 312.09
  A 0.57 0.57 0.0 0 0 192.82 312.69
  L 212.10 347.45
  A 0.57 0.57 0.0 0 0 213.07 347.49
  L 274.55 255.54
  A 0.57 0.57 0.0 0 0 274.57 254.95
  L 255.70 220.93
  Z
  M 277.92 261.17
  A 0.35 0.35 0.0 0 0 277.32 261.15
  L 215.68 353.36
  A 0.35 0.35 0.0 0 0 215.66 353.73
  L 235.11 388.81
  A 0.35 0.35 0.0 0 0 235.71 388.84
  L 296.94 295.87
  A 0.35 0.35 0.0 0 0 296.96 295.50
  L 277.92 261.17
  Z
  M 300.07 301.83
  A 0.34 0.34 0.0 0 0 299.49 301.81
  L 238.54 394.34
  A 0.34 0.34 0.0 0 0 238.53 394.69
  L 258.98 431.56
  A 0.34 0.34 0.0 0 0 259.56 431.58
  L 320.51 339.06
  A 0.34 0.34 0.0 0 0 320.52 338.71
  L 300.07 301.83
  Z
  M 153.99 308.75
  A 0.33 0.33 0.0 0 0 153.43 308.73
  L 103.35 383.66
  A 0.33 0.33 0.0 0 0 103.31 383.96
  L 118.98 423.07
  A 0.33 0.33 0.0 0 0 119.57 423.12
  L 172.15 341.86
  A 0.33 0.33 0.0 0 0 172.16 341.52
  L 153.99 308.75
  Z
  M 100.79 375.84
  A 0.68 0.68 0.0 0 0 101.99 375.97
  L 144.64 312.16
  A 0.68 0.68 0.0 0 0 143.82 311.15
  L 109.09 325.07
  A 0.68 0.68 0.0 0 0 108.74 325.37
  L 92.66 354.90
  A 0.68 0.68 0.0 0 0 92.63 355.48
  L 100.79 375.84
  Z
  M 352.34 371.00
  Q 352.35 371.33 352.25 371.49
  Q 348.99 376.60 286.08 475.10
  Q 284.79 477.13 285.71 478.83
  Q 301.29 507.67 303.93 512.34
  A 1.07 1.06 45.8 0 0 305.77 512.37
  Q 315.96 495.49 327.32 477.73
  C 340.07 457.80 349.41 442.37 361.12 423.97
  Q 366.64 415.30 370.27 408.19
  Q 371.39 406.01 378.86 392.05
  Q 379.46 390.93 380.57 389.32
  Q 381.04 388.64 382.26 386.57
  Q 406.54 345.12 420.40 321.64
  Q 421.23 320.23 421.63 319.19
  A 1.34 1.34 0.0 0 0 420.44 317.37
  Q 399.76 316.54 388.47 315.50
  Q 386.60 315.33 385.07 317.83
  Q 369.14 343.91 357.67 362.42
  Q 353.34 369.42 352.62 370.24
  A 1.13 1.10 -25.7 0 0 352.34 371.00
  Z
  M 426.29 322.62
  A 0.33 0.33 0.0 0 0 425.76 322.68
  L 387.92 388.24
  A 0.33 0.33 0.0 0 0 387.94 388.60
  L 413.22 423.49
  A 0.33 0.33 0.0 0 0 413.77 423.46
  L 453.29 352.61
  A 0.33 0.33 0.0 0 0 453.25 352.22
  L 426.29 322.62
  Z
  M 324.37 345.21
  A 0.81 0.81 0.0 0 0 322.98 345.16
  L 262.35 437.21
  A 0.81 0.81 0.0 0 0 262.32 438.05
  L 280.67 471.13
  A 0.81 0.81 0.0 0 0 282.06 471.18
  L 341.85 377.62
  A 0.81 0.81 0.0 0 0 341.88 376.79
  L 324.37 345.21
  Z
  M 175.57 348.69
  A 0.52 0.52 0.0 0 0 174.68 348.66
  L 121.31 429.67
  A 0.52 0.52 0.0 0 0 121.26 430.15
  L 137.10 469.69
  A 0.52 0.52 0.0 0 0 138.02 469.78
  L 193.91 382.32
  A 0.52 0.52 0.0 0 0 193.93 381.79
  L 175.57 348.69
  Z
  M 457.73 357.06
  A 0.84 0.84 0.0 0 0 456.39 357.24
  L 417.56 428.52
  A 0.84 0.84 0.0 0 0 417.63 429.43
  L 441.55 460.71
  A 0.84 0.84 0.0 0 0 442.96 460.60
  L 483.80 385.60
  A 0.84 0.84 0.0 0 0 483.67 384.63
  L 457.73 357.06
  Z
  M 197.15 388.35
  A 0.36 0.36 0.0 0 0 196.52 388.32
  L 140.19 476.47
  A 0.36 0.36 0.0 0 0 140.16 476.80
  L 156.44 517.43
  A 0.36 0.36 0.0 0 0 157.08 517.49
  L 215.52 424.35
  A 0.36 0.36 0.0 0 0 215.54 424.00
  L 197.15 388.35
  Z
  M 488.52 390.30
  A 0.71 0.71 0.0 0 0 487.37 390.44
  L 446.34 465.78
  A 0.71 0.71 0.0 0 0 446.41 466.56
  L 473.01 500.04
  A 0.71 0.71 0.0 0 0 474.20 499.93
  L 515.95 421.10
  A 0.71 0.71 0.0 0 0 515.84 420.29
  L 488.52 390.30
  Z
  M 366.79 425.11
  L 308.76 517.56
  A 2.86 2.85 -42.3 0 0 308.62 520.33
  Q 310.20 523.55 310.74 524.49
  Q 316.53 534.45 325.20 550.33
  Q 325.86 551.52 327.49 552.70
  A 1.31 1.30 57.3 0 0 328.48 552.92
  Q 330.67 552.53 331.84 550.61
  Q 354.06 514.07 374.33 482.56
  C 377.37 477.84 381.21 470.98 384.84 466.11
  Q 386.59 463.77 385.96 462.54
  Q 383.32 457.39 367.55 425.15
  A 0.44 0.43 47.8 0 0 366.79 425.11
  Z
  M 520.01 425.93
  A 0.32 0.32 0.0 0 0 519.49 426.00
  L 477.60 505.09
  A 0.32 0.32 0.0 0 0 477.63 505.43
  L 500.89 534.71
  A 0.32 0.32 0.0 0 0 501.42 534.67
  L 545.64 453.48
  A 0.32 0.32 0.0 0 0 545.59 453.11
  L 520.01 425.93
  Z
  M 218.81 430.36
  A 0.80 0.78 22.8 0 0 217.96 430.70
  L 159.68 523.56
  A 3.07 3.07 0.0 0 0 159.42 526.27
  Q 166.74 545.31 173.97 560.04
  Q 174.73 561.59 176.07 562.10
  A 2.34 2.28 25.8 0 0 178.86 561.17
  Q 204.63 518.30 233.98 470.74
  C 234.77 469.47 235.45 467.70 236.46 466.26
  A 2.28 2.27 49.0 0 0 236.62 463.94
  Q 228.28 447.51 219.32 430.65
  Q 219.22 430.45 218.81 430.36
  Z
  M 549.07 459.49
  Q 545.48 465.08 543.63 468.42
  Q 534.49 484.90 525.55 501.62
  Q 524.25 504.05 523.00 506.44
  Q 515.90 520.00 505.87 537.69
  A 2.28 2.27 -47.9 0 0 505.99 540.11
  Q 507.56 542.34 510.12 544.33
  Q 512.10 545.87 514.80 544.07
  Q 546.13 523.04 552.18 519.20
  Q 554.56 517.69 554.68 515.70
  Q 556.12 492.33 559.36 471.27
  A 2.88 2.85 -61.9 0 0 558.65 468.90
  L 550.01 459.41
  A 0.60 0.59 -49.8 0 0 549.07 459.49
  Z
  M 343.45 541.94
  A 0.70 0.69 81.1 0 0 344.46 542.68
  Q 375.89 526.04 405.68 508.41
  Q 407.90 507.09 406.67 504.40
  Q 398.84 487.33 389.89 470.16
  A 0.71 0.71 0.0 0 0 388.66 470.10
  Q 375.73 490.29 344.22 540.48
  Q 343.51 541.62 343.45 541.94
  Z
  M 187.28 558.72
  A 0.57 0.57 0.0 0 0 187.89 559.51
  Q 191.86 558.88 196.13 557.33
  Q 214.68 550.58 242.07 538.79
  Q 244.28 537.84 245.00 536.24
  Q 252.75 519.15 258.48 507.73
  A 1.69 1.68 44.8 0 0 258.47 506.21
  L 240.73 471.81
  A 0.61 0.61 0.0 0 0 239.67 471.77
  Q 220.05 503.72 191.06 551.31
  Q 189.44 553.97 187.28 558.72
  Z
  M 246.91 672.05
  A 0.76 0.75 6.0 0 0 247.69 671.42
  Q 248.16 668.64 249.01 665.75
  Q 263.62 615.96 278.40 569.86
  A 1.19 1.18 -73.7 0 0 277.58 568.35
  L 257.60 563.09
  A 3.68 3.67 -52.1 0 0 254.84 563.44
  C 251.70 565.21 247.66 567.93 246.60 571.59
  Q 238.04 601.31 230.43 625.19
  C 228.09 632.56 226.03 640.94 223.57 648.20
  A 2.13 2.12 35.6 0 0 223.90 650.17
  Q 225.27 651.91 226.11 652.66
  Q 234.38 659.98 246.06 671.69
  Q 246.40 672.03 246.91 672.05
  Z
  M 298.82 618.18
  C 299.77 616.04 300.99 614.18 301.82 611.89
  Q 307.53 596.09 312.67 579.18
  A 0.70 0.69 17.5 0 0 312.21 578.31
  L 285.63 570.20
  A 1.66 1.65 -72.6 0 0 283.57 571.28
  C 274.11 601.24 265.31 630.60 256.08 660.07
  A 0.70 0.70 0.0 0 0 256.85 660.97
  Q 257.12 660.93 257.40 660.65
  Q 261.19 656.75 265.80 652.80
  Q 276.65 643.50 285.05 636.57
  Q 286.64 635.26 287.66 633.66
  Q 292.46 626.12 298.32 618.99
  A 3.34 3.25 -14.0 0 0 298.82 618.18
  Z
  M 239.57 576.89
  A 0.70 0.70 0.0 0 0 238.48 576.12
  L 186.92 614.53
  A 0.70 0.70 0.0 0 0 186.85 615.60
  L 217.74 644.90
  A 0.70 0.70 0.0 0 0 218.89 644.60
  L 239.57 576.89
  Z
  M 305.68 617.20
  A 0.63 0.63 0.0 0 0 306.34 618.03
  Q 312.50 617.46 318.56 616.06
  Q 322.14 615.24 324.13 614.10
  Q 329.87 610.78 336.33 605.83
  Q 338.18 604.42 339.00 601.75
  Q 339.93 598.75 343.20 589.23
  A 1.61 1.60 -71.4 0 0 342.19 587.19
  L 319.88 579.71
  A 1.55 1.54 18.5 0 0 317.92 580.68
  L 305.68 617.20
  Z
  M 345.62 597.49
  A 0.83 0.83 0.0 0 0 346.93 598.40
  L 353.97 592.81
  A 1.30 1.29 41.6 0 0 353.84 590.70
  Q 351.68 589.37 349.35 589.30
  A 1.31 1.31 0.0 0 0 348.07 590.19
  L 345.62 597.49
  Z
  M 245.28 679.62
  A 0.86 0.86 0.0 0 0 245.00 678.97
  L 186.21 624.43
  A 0.86 0.86 0.0 0 0 184.77 625.04
  L 184.12 649.73
  A 0.86 0.86 0.0 0 0 184.39 650.37
  L 243.14 706.10
  A 0.86 0.86 0.0 0 0 244.59 705.50
  L 245.28 679.62
  Z"
/>
<path fill="#f0d5b0" d="
  M 504.66 156.12
  Q 485.95 159.47 465.97 161.52
  Q 467.09 156.90 468.31 152.53
  Q 470.16 145.87 470.37 143.48
  Q 470.98 136.35 469.02 128.65
  A 1.11 1.11 0.0 0 1 470.52 127.35
  Q 477.13 130.11 478.94 137.09
  C 480.86 144.52 482.58 151.47 486.80 156.84
  A 1.05 1.04 29.6 0 0 488.66 156.33
  Q 489.17 152.20 491.75 145.22
  C 493.73 139.86 496.19 131.47 502.46 129.64
  A 0.83 0.83 0.0 0 1 503.52 130.53
  Q 503.26 132.89 502.52 136.34
  C 501.03 143.38 502.95 149.79 504.66 156.12
  Z"
/>
<path fill="#07094c" d="
  M 545.25 172.86
  Q 547.31 184.60 548.73 196.73
  Q 550.25 209.63 549.44 218.32
  Q 548.24 231.08 544.03 243.05
  Q 532.14 276.88 504.27 300.03
  C 502.20 301.75 500.82 302.07 498.30 300.83
  Q 492.34 297.89 486.09 294.15
  Q 453.33 274.56 436.66 264.63
  Q 433.45 262.72 432.49 260.03
  A 1.79 1.77 48.5 0 1 432.57 258.63
  C 434.22 255.29 436.80 253.68 440.32 250.57
  Q 454.46 238.11 456.96 218.99
  A 3.05 2.75 -49.2 0 0 456.94 218.03
  L 456.74 216.94
  Q 458.02 214.29 457.67 209.50
  Q 456.51 194.09 455.94 190.16
  Q 453.99 176.61 453.74 165.47
  A 2.72 2.72 0.0 0 1 456.14 162.70
  L 465.97 161.52
  Q 485.95 159.47 504.66 156.12
  L 537.87 150.36
  A 2.72 2.71 68.4 0 1 540.61 151.55
  Q 541.50 152.90 541.96 155.11
  Q 543.37 161.85 544.38 168.58
  Q 544.67 170.50 545.25 172.86
  Z
  M 442.56 258.72
  A 0.43 0.43 0.0 0 0 442.65 259.37
  Q 465.96 273.80 489.25 287.50
  Q 494.95 290.85 499.65 293.20
  A 2.23 2.21 -51.6 0 0 502.07 292.91
  Q 517.56 279.85 528.50 260.95
  Q 547.40 228.33 540.90 189.55
  Q 536.97 166.14 535.80 157.69
  A 0.75 0.74 80.5 0 0 534.92 157.06
  Q 523.04 159.26 509.22 161.92
  Q 485.07 166.58 460.80 168.79
  A 1.03 1.02 84.0 0 0 459.88 169.94
  Q 461.56 184.01 463.32 199.79
  C 465.40 218.47 463.50 235.40 451.53 249.71
  C 448.71 253.08 445.16 255.85 442.56 258.72
  Z"
/>
<path fill="#d16227" d="
  M 674.37 237.09
  Q 673.30 236.98 673.32 235.80
  Q 673.46 229.33 673.37 221.25
  Q 673.34 218.67 672.72 216.26
  C 669.62 204.16 665.68 192.92 675.27 182.12
  C 677.75 179.33 686.67 170.99 690.41 173.02
  A 2.09 1.98 -61.0 0 1 691.13 175.81
  C 687.57 182.18 684.80 186.43 684.22 192.99
  Q 683.99 195.48 685.18 200.94
  C 687.61 212.09 688.20 221.78 681.73 231.44
  C 680.47 233.32 676.89 237.35 674.37 237.09
  Z"
/>
<path fill="#d16227" d="
  M 689.66 313.94
  Q 688.45 311.76 687.42 308.34
  Q 686.24 304.44 682.19 306.02
  Q 674.95 308.86 667.41 310.55
  Q 668.52 305.14 670.30 300.30
  Q 673.09 292.76 669.66 285.32
  Q 669.29 284.52 668.74 284.01
  A 1.49 1.38 -58.8 0 0 666.44 284.67
  Q 663.91 291.36 661.69 295.69
  C 660.28 298.44 653.33 309.59 650.07 302.43
  Q 649.42 301.00 649.20 297.89
  A 2.16 2.11 82.1 0 0 646.66 295.92
  C 643.53 296.57 639.04 305.88 637.01 309.77
  C 635.24 313.15 632.13 316.96 628.07 316.28
  C 625.69 315.88 621.22 310.67 620.02 309.44
  A 2.01 2.01 0.0 0 0 617.24 309.35
  Q 609.02 316.77 613.73 328.12
  Q 613.71 328.90 611.98 329.26
  C 608.54 329.99 602.60 330.76 602.54 334.76
  Q 602.50 336.91 603.19 341.98
  Q 600.71 340.52 598.77 339.15
  Q 590.13 333.08 589.80 322.49
  Q 589.48 312.14 594.08 302.84
  Q 598.49 293.93 603.97 283.72
  C 606.60 278.83 608.63 273.42 608.57 267.62
  C 608.55 264.77 607.36 262.30 606.48 259.13
  A 2.41 2.20 72.0 0 1 607.76 256.32
  Q 608.73 255.94 610.17 256.40
  C 620.83 259.79 621.05 274.14 619.84 283.92
  C 619.63 285.65 620.16 290.13 621.77 291.43
  C 624.48 293.61 627.40 290.69 628.19 288.14
  Q 629.52 283.84 629.30 278.00
  C 629.00 270.09 629.07 262.28 631.65 254.64
  C 634.24 246.96 642.77 231.23 640.15 221.31
  Q 639.92 220.45 638.13 214.87
  C 637.50 212.93 637.38 210.66 640.05 210.79
  C 654.56 211.45 658.93 230.53 658.56 242.01
  Q 658.49 243.97 657.78 252.25
  C 657.48 255.76 658.53 262.88 661.93 265.05
  A 2.41 2.41 0.0 0 0 665.07 264.57
  C 667.25 261.95 670.19 257.28 673.79 256.91
  A 2.43 2.43 0.0 0 1 676.43 258.90
  Q 677.15 262.97 677.85 265.32
  C 678.90 268.86 683.43 278.50 688.31 273.69
  C 693.17 268.91 693.70 263.15 694.25 256.34
  C 695.11 245.97 699.97 237.34 709.07 232.12
  Q 711.79 230.56 714.66 230.61
  A 1.69 1.57 2.3 0 1 716.33 232.29
  C 716.21 233.95 713.61 236.94 712.71 238.15
  C 703.83 250.18 711.17 264.14 710.57 275.97
  Q 710.02 286.59 704.30 295.79
  Q 698.23 305.54 689.66 313.94
  Z"
/>
<path fill="#07094c" d="
  M 689.66 313.94
  Q 697.27 332.42 708.23 349.20
  C 712.75 356.12 718.24 362.88 723.29 368.72
  Q 727.37 373.45 733.36 378.20
  A 2.60 2.59 -59.7 0 1 734.15 381.22
  Q 733.74 382.19 732.72 383.24
  Q 707.28 409.25 695.60 418.88
  Q 685.94 426.86 673.02 434.50
  C 668.37 437.25 664.86 436.16 660.62 433.21
  C 642.89 420.88 629.48 404.65 620.02 385.97
  Q 609.30 364.82 603.19 341.98
  Q 602.50 336.91 602.54 334.76
  C 602.60 330.76 608.54 329.99 611.98 329.26
  Q 613.71 328.90 613.73 328.12
  Q 618.04 326.85 622.35 325.65
  Q 626.92 324.38 630.94 323.01
  Q 643.24 318.84 655.60 314.84
  Q 658.95 313.75 667.41 310.55
  Q 674.95 308.86 682.19 306.02
  Q 686.24 304.44 687.42 308.34
  Q 688.45 311.76 689.66 313.94
  Z
  M 725.52 380.67
  A 0.78 0.77 -63.9 0 0 725.28 379.95
  C 706.09 361.84 692.23 338.89 682.47 314.21
  A 1.48 1.48 0.0 0 0 680.41 313.44
  Q 678.51 314.42 675.86 315.34
  Q 641.71 327.14 610.88 336.62
  A 1.74 1.73 74.5 0 0 609.71 338.70
  C 616.54 365.45 628.86 393.17 647.49 412.85
  C 653.03 418.71 657.71 422.14 665.16 427.63
  Q 667.87 429.62 670.64 427.93
  Q 689.57 416.37 706.58 400.06
  Q 712.47 394.41 724.50 382.25
  Q 725.39 381.35 725.52 380.67
  Z"
/>
<path fill="#d16227" d="
  M 668.44 633.68
  L 670.15 631.72
  A 5.94 5.73 1.1 0 1 670.99 630.94
  Q 676.84 626.55 680.56 622.65
  Q 681.97 621.18 681.78 619.20
  A 1.37 1.35 -71.8 0 0 681.35 618.33
  Q 678.93 616.09 678.07 615.43
  Q 661.32 602.74 647.74 588.07
  C 639.98 579.68 633.61 570.47 627.26 560.79
  Q 625.94 558.77 624.18 558.06
  A 1.65 1.65 0.0 0 0 623.12 558.00
  L 611.07 561.41
  C 611.52 557.53 611.53 553.06 612.11 549.86
  C 614.98 533.76 627.36 521.88 642.30 516.03
  C 650.93 512.66 657.55 510.41 663.94 504.93
  Q 673.08 497.10 679.25 485.50
  C 689.71 465.86 699.35 445.59 719.59 433.84
  C 723.69 431.45 728.40 429.43 733.30 429.89
  A 0.72 0.72 0.0 0 1 733.96 430.56
  Q 734.09 432.14 733.10 433.34
  C 724.25 444.10 717.22 454.10 713.64 467.36
  C 711.49 475.33 711.15 485.99 710.29 494.25
  Q 709.24 504.33 704.42 512.94
  Q 701.94 517.36 699.81 522.77
  Q 698.05 527.22 701.33 530.37
  C 704.92 533.82 709.81 527.26 711.18 524.15
  Q 716.19 512.76 718.51 507.80
  C 721.83 500.73 731.76 489.96 740.59 492.52
  A 0.69 0.69 0.0 0 1 741.08 493.24
  Q 740.89 495.44 740.33 496.33
  C 735.60 503.94 732.87 509.00 731.50 517.23
  Q 730.55 522.95 730.36 539.48
  Q 730.26 547.56 729.19 551.90
  Q 726.56 562.50 719.67 570.95
  Q 715.19 576.45 711.21 579.72
  C 706.53 583.59 700.92 587.68 699.04 592.59
  A 1.83 1.83 0.0 0 0 700.31 595.03
  C 704.67 596.10 707.68 596.47 709.46 598.03
  C 712.07 600.34 706.67 609.27 704.94 611.68
  C 699.21 619.61 690.21 627.72 680.58 631.11
  Q 676.98 632.38 668.44 633.68
  Z
  M 683.70 513.31
  Q 683.20 513.53 682.97 513.97
  Q 676.79 525.96 674.35 529.60
  Q 671.43 533.96 668.85 536.10
  Q 660.52 543.01 655.18 548.67
  C 648.08 556.20 645.37 565.53 651.88 574.43
  C 655.26 579.06 659.46 581.28 660.57 587.37
  C 661.64 593.20 665.57 596.64 671.69 595.09
  Q 687.03 591.20 690.47 575.47
  Q 692.07 568.15 690.42 561.84
  A 1.40 1.40 0.0 0 0 688.14 561.14
  C 683.71 565.02 675.39 569.43 669.36 567.23
  A 2.50 2.48 -81.2 0 1 667.72 564.97
  Q 667.56 560.07 670.63 555.61
  C 675.15 549.05 679.02 544.09 681.73 537.64
  Q 686.45 526.42 684.76 513.91
  A 0.76 0.76 0.0 0 0 683.70 513.31
  Z"
/>
<path fill="#d16227" d="
  M 744.31 520.18
  C 744.01 517.71 745.80 514.76 747.81 510.10
  Q 753.58 496.73 752.08 482.13
  Q 751.14 472.98 750.93 468.52
  C 750.19 452.78 760.17 440.60 776.29 440.01
  A 1.07 1.06 4.7 0 1 777.37 441.28
  Q 776.98 443.20 775.25 445.02
  Q 765.29 455.50 766.89 468.72
  C 768.10 478.70 768.92 485.37 766.80 493.27
  C 764.44 502.02 755.86 519.55 745.93 521.38
  A 1.38 1.38 0.0 0 1 744.31 520.18
  Z"
/>
<path fill="#d16227" d="
  M 721.54 589.92
  Q 721.77 589.23 722.08 588.84
  C 726.47 583.17 729.89 578.43 732.20 571.48
  C 736.02 559.98 740.35 546.85 752.84 542.62
  Q 755.29 541.79 757.10 542.15
  A 1.61 1.61 0.0 0 1 758.18 544.55
  Q 754.68 550.52 752.81 554.53
  C 751.00 558.43 749.83 564.13 748.88 568.00
  C 745.90 580.21 737.11 593.46 722.54 591.53
  A 1.23 1.23 0.0 0 1 721.54 589.92
  Z"
/>
<path fill="#07094c" d="
  M 668.44 633.68
  Q 650.13 646.93 632.11 661.10
  C 622.04 669.03 611.49 676.44 600.45 682.05
  Q 562.65 701.24 520.18 699.17
  Q 517.38 699.04 512.92 697.88
  A 2.16 2.14 -13.8 0 1 511.87 697.25
  Q 510.52 695.75 509.70 693.80
  Q 495.03 658.81 480.09 617.19
  Q 478.01 611.39 477.93 611.18
  C 476.36 606.92 476.76 603.53 482.24 603.66
  Q 505.67 604.21 521.73 601.15
  C 537.56 598.12 552.22 591.60 566.13 583.64
  Q 589.49 570.28 594.87 568.08
  Q 603.03 564.74 611.07 561.41
  L 623.12 558.00
  A 1.65 1.65 0.0 0 1 624.18 558.06
  Q 625.94 558.77 627.26 560.79
  C 633.61 570.47 639.98 579.68 647.74 588.07
  Q 661.32 602.74 678.07 615.43
  Q 678.93 616.09 681.35 618.33
  A 1.37 1.35 -71.8 0 1 681.78 619.20
  Q 681.97 621.18 680.56 622.65
  Q 676.84 626.55 670.99 630.94
  A 5.94 5.73 1.1 0 0 670.15 631.72
  L 668.44 633.68
  Z
  M 486.51 611.64
  Q 499.37 651.53 516.55 690.35
  A 1.68 1.67 79.4 0 0 518.00 691.35
  Q 529.54 691.96 539.12 691.37
  C 571.34 689.38 599.07 677.43 624.43 657.92
  C 647.06 640.52 660.68 630.08 673.00 621.26
  A 1.09 1.09 0.0 0 0 673.03 619.50
  Q 651.21 603.06 634.16 582.25
  C 630.20 577.41 626.91 572.40 622.77 566.20
  A 1.23 1.22 64.4 0 0 621.40 565.71
  Q 598.01 572.87 576.36 585.62
  Q 565.51 592.01 555.81 597.04
  C 534.60 608.05 510.32 612.03 486.87 611.18
  A 0.36 0.35 -7.4 0 0 486.51 611.64
  Z"
/>
</g>
<g>
<path fill="#f0d5b0" d="
  M 442.56 258.72
  C 445.16 255.85 448.71 253.08 451.53 249.71
  C 463.50 235.40 465.40 218.47 463.32 199.79
  Q 461.56 184.01 459.88 169.94
  A 1.03 1.02 84.0 0 1 460.80 168.79
  Q 485.07 166.58 509.22 161.92
  Q 523.04 159.26 534.92 157.06
  A 0.75 0.74 80.5 0 1 535.80 157.69
  Q 536.97 166.14 540.90 189.55
  Q 547.40 228.33 528.50 260.95
  Q 517.56 279.85 502.07 292.91
  A 2.23 2.21 -51.6 0 1 499.65 293.20
  Q 494.95 290.85 489.25 287.50
  Q 465.96 273.80 442.65 259.37
  A 0.43 0.43 0.0 0 1 442.56 258.72
  Z
  M 476.76 175.99
  C 478.09 182.18 477.62 189.48 470.30 191.04
  A 1.14 1.14 0.0 0 0 469.41 192.30
  Q 470.77 203.51 470.37 215.49
  C 469.88 230.10 464.29 244.59 455.78 257.72
  A 1.38 1.38 0.0 0 0 456.19 259.63
  Q 469.35 268.16 484.65 275.34
  Q 489.49 277.61 493.73 278.86
  A 1.63 1.62 -64.6 0 0 495.54 278.21
  C 498.27 274.22 503.43 268.06 508.91 270.22
  Q 508.96 270.24 512.24 271.16
  A 1.49 1.49 0.0 0 0 513.86 270.57
  C 519.06 263.09 523.61 256.75 527.07 248.80
  C 535.78 228.78 537.13 206.78 532.33 185.39
  A 0.97 0.97 0.0 0 0 531.50 184.64
  C 525.89 183.93 522.28 182.67 520.24 176.72
  Q 519.16 173.57 519.24 169.86
  A 1.14 1.13 86.2 0 0 517.93 168.71
  L 477.43 175.01
  A 0.81 0.81 0.0 0 0 476.76 175.99
  Z"
/>
<path fill="#d16227" d="
  M 168.30 263.92
  A 0.84 0.84 0.0 0 1 166.86 263.84
  L 144.98 221.41
  A 4.34 4.33 45.2 0 1 144.99 217.40
  Q 146.63 214.24 151.88 205.12
  Q 154.61 200.36 155.67 199.52
  A 5.22 5.17 -76.7 0 1 156.92 198.74
  L 224.54 169.02
  A 1.26 1.26 0.0 0 1 225.92 169.26
  Q 228.49 171.69 228.53 174.44
  A 2.24 2.23 61.6 0 1 228.15 175.72
  L 168.30 263.92
  Z"
/>
<path fill="#d16227" d="
  M 232.91 180.26
  L 251.91 214.53
  A 0.73 0.73 0.0 0 1 251.88 215.29
  L 190.70 305.46
  A 0.73 0.73 0.0 0 1 189.45 305.40
  L 170.46 271.13
  A 0.73 0.73 0.0 0 1 170.49 270.37
  L 231.66 180.20
  A 0.73 0.73 0.0 0 1 232.91 180.26
  Z"
/>
<path fill="#d16227" d="
  M 255.70 220.93
  L 274.57 254.95
  A 0.57 0.57 0.0 0 1 274.55 255.54
  L 213.07 347.49
  A 0.57 0.57 0.0 0 1 212.10 347.45
  L 192.82 312.69
  A 0.57 0.57 0.0 0 1 192.85 312.09
  L 254.73 220.89
  A 0.57 0.57 0.0 0 1 255.70 220.93
  Z"
/>
<path fill="#d16227" d="
  M 277.92 261.17
  L 296.96 295.50
  A 0.35 0.35 0.0 0 1 296.94 295.87
  L 235.71 388.84
  A 0.35 0.35 0.0 0 1 235.11 388.81
  L 215.66 353.73
  A 0.35 0.35 0.0 0 1 215.68 353.36
  L 277.32 261.15
  A 0.35 0.35 0.0 0 1 277.92 261.17
  Z"
/>
<path fill="#d16227" d="
  M 300.07 301.83
  L 320.52 338.71
  A 0.34 0.34 0.0 0 1 320.51 339.06
  L 259.56 431.58
  A 0.34 0.34 0.0 0 1 258.98 431.56
  L 238.53 394.69
  A 0.34 0.34 0.0 0 1 238.54 394.34
  L 299.49 301.81
  A 0.34 0.34 0.0 0 1 300.07 301.83
  Z"
/>
<path fill="#d16227" d="
  M 153.99 308.75
  L 172.16 341.52
  A 0.33 0.33 0.0 0 1 172.15 341.86
  L 119.57 423.12
  A 0.33 0.33 0.0 0 1 118.98 423.07
  L 103.31 383.96
  A 0.33 0.33 0.0 0 1 103.35 383.66
  L 153.43 308.73
  A 0.33 0.33 0.0 0 1 153.99 308.75
  Z"
/>
<path fill="#d16227" d="
  M 100.79 375.84
  L 92.63 355.48
  A 0.68 0.68 0.0 0 1 92.66 354.90
  L 108.74 325.37
  A 0.68 0.68 0.0 0 1 109.09 325.07
  L 143.82 311.15
  A 0.68 0.68 0.0 0 1 144.64 312.16
  L 101.99 375.97
  A 0.68 0.68 0.0 0 1 100.79 375.84
  Z"
/>
<path fill="#f0d5b0" d="
  M 725.52 380.67
  Q 725.39 381.35 724.50 382.25
  Q 712.47 394.41 706.58 400.06
  Q 689.57 416.37 670.64 427.93
  Q 667.87 429.62 665.16 427.63
  C 657.71 422.14 653.03 418.71 647.49 412.85
  C 628.86 393.17 616.54 365.45 609.71 338.70
  A 1.74 1.73 74.5 0 1 610.88 336.62
  Q 641.71 327.14 675.86 315.34
  Q 678.51 314.42 680.41 313.44
  A 1.48 1.48 0.0 0 1 682.47 314.21
  C 692.23 338.89 706.09 361.84 725.28 379.95
  A 0.78 0.77 -63.9 0 1 725.52 380.67
  Z
  M 667.48 325.85
  L 629.47 338.05
  A 1.18 1.18 0.0 0 0 628.65 339.24
  C 628.77 341.68 629.76 344.04 629.65 346.81
  Q 629.37 354.00 623.40 356.13
  A 0.92 0.91 70.0 0 0 622.85 357.32
  Q 627.35 369.29 632.46 379.74
  Q 639.63 394.38 650.95 407.23
  Q 654.31 411.04 658.48 414.59
  A 2.45 2.44 50.0 0 0 661.29 414.84
  C 664.79 412.79 668.31 411.00 672.42 412.42
  Q 672.52 412.46 677.06 414.20
  A 2.20 2.18 -51.6 0 0 679.08 413.96
  C 691.77 405.34 701.88 394.53 714.77 381.65
  A 0.84 0.84 0.0 0 0 714.83 380.54
  Q 709.49 373.80 703.84 366.90
  C 697.55 359.22 691.04 347.75 685.11 337.33
  A 2.39 2.38 -11.9 0 0 683.26 336.13
  C 676.09 335.43 671.56 334.26 669.12 326.69
  A 1.30 1.30 0.0 0 0 667.48 325.85
  Z"
/>
<path fill="#d16227" d="
  M 352.62 370.24
  Q 353.34 369.42 357.67 362.42
  Q 369.14 343.91 385.07 317.83
  Q 386.60 315.33 388.47 315.50
  Q 399.76 316.54 420.44 317.37
  A 1.34 1.34 0.0 0 1 421.63 319.19
  Q 421.23 320.23 420.40 321.64
  Q 406.54 345.12 382.26 386.57
  Q 381.04 388.64 380.57 389.32
  Q 379.46 390.93 378.86 392.05
  Q 371.39 406.01 370.27 408.19
  Q 366.64 415.30 361.12 423.97
  C 349.41 442.37 340.07 457.80 327.32 477.73
  Q 315.96 495.49 305.77 512.37
  A 1.07 1.06 45.8 0 1 303.93 512.34
  Q 301.29 507.67 285.71 478.83
  Q 284.79 477.13 286.08 475.10
  Q 348.99 376.60 352.25 371.49
  Q 352.35 371.33 352.34 371.00
  A 1.13 1.10 -25.7 0 1 352.62 370.24
  Z"
/>
<path fill="#d16227" d="
  M 426.29 322.62
  L 453.25 352.22
  A 0.33 0.33 0.0 0 1 453.29 352.61
  L 413.77 423.46
  A 0.33 0.33 0.0 0 1 413.22 423.49
  L 387.94 388.60
  A 0.33 0.33 0.0 0 1 387.92 388.24
  L 425.76 322.68
  A 0.33 0.33 0.0 0 1 426.29 322.62
  Z"
/>
<path fill="#d16227" d="
  M 324.37 345.21
  L 341.88 376.79
  A 0.81 0.81 0.0 0 1 341.85 377.62
  L 282.06 471.18
  A 0.81 0.81 0.0 0 1 280.67 471.13
  L 262.32 438.05
  A 0.81 0.81 0.0 0 1 262.35 437.21
  L 322.98 345.16
  A 0.81 0.81 0.0 0 1 324.37 345.21
  Z"
/>
<path fill="#d16227" d="
  M 175.57 348.69
  L 193.93 381.79
  A 0.52 0.52 0.0 0 1 193.91 382.32
  L 138.02 469.78
  A 0.52 0.52 0.0 0 1 137.10 469.69
  L 121.26 430.15
  A 0.52 0.52 0.0 0 1 121.31 429.67
  L 174.68 348.66
  A 0.52 0.52 0.0 0 1 175.57 348.69
  Z"
/>
<path fill="#d16227" d="
  M 457.73 357.06
  L 483.67 384.63
  A 0.84 0.84 0.0 0 1 483.80 385.60
  L 442.96 460.60
  A 0.84 0.84 0.0 0 1 441.55 460.71
  L 417.63 429.43
  A 0.84 0.84 0.0 0 1 417.56 428.52
  L 456.39 357.24
  A 0.84 0.84 0.0 0 1 457.73 357.06
  Z"
/>
<path fill="#d16227" d="
  M 197.15 388.35
  L 215.54 424.00
  A 0.36 0.36 0.0 0 1 215.52 424.35
  L 157.08 517.49
  A 0.36 0.36 0.0 0 1 156.44 517.43
  L 140.16 476.80
  A 0.36 0.36 0.0 0 1 140.19 476.47
  L 196.52 388.32
  A 0.36 0.36 0.0 0 1 197.15 388.35
  Z"
/>
<path fill="#d16227" d="
  M 488.52 390.30
  L 515.84 420.29
  A 0.71 0.71 0.0 0 1 515.95 421.10
  L 474.20 499.93
  A 0.71 0.71 0.0 0 1 473.01 500.04
  L 446.41 466.56
  A 0.71 0.71 0.0 0 1 446.34 465.78
  L 487.37 390.44
  A 0.71 0.71 0.0 0 1 488.52 390.30
  Z"
/>
<path fill="#d16227" d="
  M 366.79 425.11
  A 0.44 0.43 47.8 0 1 367.55 425.15
  Q 383.32 457.39 385.96 462.54
  Q 386.59 463.77 384.84 466.11
  C 381.21 470.98 377.37 477.84 374.33 482.56
  Q 354.06 514.07 331.84 550.61
  Q 330.67 552.53 328.48 552.92
  A 1.31 1.30 57.3 0 1 327.49 552.70
  Q 325.86 551.52 325.20 550.33
  Q 316.53 534.45 310.74 524.49
  Q 310.20 523.55 308.62 520.33
  A 2.86 2.85 -42.3 0 1 308.76 517.56
  L 366.79 425.11
  Z"
/>
<path fill="#d16227" d="
  M 520.01 425.93
  L 545.59 453.11
  A 0.32 0.32 0.0 0 1 545.64 453.48
  L 501.42 534.67
  A 0.32 0.32 0.0 0 1 500.89 534.71
  L 477.63 505.43
  A 0.32 0.32 0.0 0 1 477.60 505.09
  L 519.49 426.00
  A 0.32 0.32 0.0 0 1 520.01 425.93
  Z"
/>
<path fill="#d16227" d="
  M 218.81 430.36
  Q 219.22 430.45 219.32 430.65
  Q 228.28 447.51 236.62 463.94
  A 2.28 2.27 49.0 0 1 236.46 466.26
  C 235.45 467.70 234.77 469.47 233.98 470.74
  Q 204.63 518.30 178.86 561.17
  A 2.34 2.28 25.8 0 1 176.07 562.10
  Q 174.73 561.59 173.97 560.04
  Q 166.74 545.31 159.42 526.27
  A 3.07 3.07 0.0 0 1 159.68 523.56
  L 217.96 430.70
  A 0.80 0.78 22.8 0 1 218.81 430.36
  Z"
/>
<path fill="#d16227" d="
  M 549.07 459.49
  A 0.60 0.59 -49.8 0 1 550.01 459.41
  L 558.65 468.90
  A 2.88 2.85 -61.9 0 1 559.36 471.27
  Q 556.12 492.33 554.68 515.70
  Q 554.56 517.69 552.18 519.20
  Q 546.13 523.04 514.80 544.07
  Q 512.10 545.87 510.12 544.33
  Q 507.56 542.34 505.99 540.11
  A 2.28 2.27 -47.9 0 1 505.87 537.69
  Q 515.90 520.00 523.00 506.44
  Q 524.25 504.05 525.55 501.62
  Q 534.49 484.90 543.63 468.42
  Q 545.48 465.08 549.07 459.49
  Z"
/>
<path fill="#d16227" d="
  M 343.45 541.94
  Q 343.51 541.62 344.22 540.48
  Q 375.73 490.29 388.66 470.10
  A 0.71 0.71 0.0 0 1 389.89 470.16
  Q 398.84 487.33 406.67 504.40
  Q 407.90 507.09 405.68 508.41
  Q 375.89 526.04 344.46 542.68
  A 0.70 0.69 81.1 0 1 343.45 541.94
  Z"
/>
<path fill="#d16227" d="
  M 187.28 558.72
  Q 189.44 553.97 191.06 551.31
  Q 220.05 503.72 239.67 471.77
  A 0.61 0.61 0.0 0 1 240.73 471.81
  L 258.47 506.21
  A 1.69 1.68 44.8 0 1 258.48 507.73
  Q 252.75 519.15 245.00 536.24
  Q 244.28 537.84 242.07 538.79
  Q 214.68 550.58 196.13 557.33
  Q 191.86 558.88 187.89 559.51
  A 0.57 0.57 0.0 0 1 187.28 558.72
  Z"
/>
<path fill="#d16227" d="
  M 246.91 672.05
  Q 246.40 672.03 246.06 671.69
  Q 234.38 659.98 226.11 652.66
  Q 225.27 651.91 223.90 650.17
  A 2.13 2.12 35.6 0 1 223.57 648.20
  C 226.03 640.94 228.09 632.56 230.43 625.19
  Q 238.04 601.31 246.60 571.59
  C 247.66 567.93 251.70 565.21 254.84 563.44
  A 3.68 3.67 -52.1 0 1 257.60 563.09
  L 277.58 568.35
  A 1.19 1.18 -73.7 0 1 278.40 569.86
  Q 263.62 615.96 249.01 665.75
  Q 248.16 668.64 247.69 671.42
  A 0.76 0.75 6.0 0 1 246.91 672.05
  Z"
/>
<path fill="#f0d5b0" d="
  M 486.51 611.64
  A 0.36 0.35 -7.4 0 1 486.87 611.18
  C 510.32 612.03 534.60 608.05 555.81 597.04
  Q 565.51 592.01 576.36 585.62
  Q 598.01 572.87 621.40 565.71
  A 1.23 1.22 64.4 0 1 622.77 566.20
  C 626.91 572.40 630.20 577.41 634.16 582.25
  Q 651.21 603.06 673.03 619.50
  A 1.09 1.09 0.0 0 1 673.00 621.26
  C 660.68 630.08 647.06 640.52 624.43 657.92
  C 599.07 677.43 571.34 689.38 539.12 691.37
  Q 529.54 691.96 518.00 691.35
  A 1.68 1.67 79.4 0 1 516.55 690.35
  Q 499.37 651.53 486.51 611.64
  Z
  M 653.95 615.91
  A 1.08 1.06 -68.6 0 0 653.64 615.18
  L 629.20 590.49
  A 1.48 1.48 0.0 0 0 627.72 590.12
  C 619.96 592.44 614.85 584.64 610.98 579.08
  A 1.90 1.89 -28.3 0 0 608.72 578.41
  C 601.88 581.13 593.56 584.99 585.89 589.19
  C 568.99 598.44 557.33 605.42 543.32 610.31
  Q 527.43 615.86 511.10 616.84
  A 0.79 0.78 88.8 0 0 510.36 617.62
  C 510.27 622.69 509.74 627.81 506.75 631.70
  A 2.45 2.40 -83.3 0 1 505.86 632.42
  L 502.87 633.87
  A 1.33 1.33 0.0 0 0 502.20 635.52
  Q 506.79 648.09 511.72 660.53
  Q 513.79 665.74 516.05 670.17
  A 1.89 1.89 0.0 0 0 517.81 671.20
  C 524.61 670.96 531.45 671.41 535.16 677.84
  Q 536.55 680.26 537.18 681.70
  A 2.07 2.06 -12.2 0 0 539.08 682.92
  C 564.24 682.62 588.48 674.04 608.75 659.73
  Q 617.47 653.58 630.62 642.87
  Q 638.38 636.56 644.54 632.64
  A 1.31 1.31 0.0 0 0 645.13 631.31
  C 644.56 627.92 643.64 624.26 646.80 621.54
  Q 649.29 619.41 653.61 616.54
  A 0.69 0.69 0.0 0 0 653.86 616.20
  Q 653.95 615.94 653.95 615.91
  Z"
/>
<path fill="#d16227" d="
  M 298.32 618.99
  Q 292.46 626.12 287.66 633.66
  Q 286.64 635.26 285.05 636.57
  Q 276.65 643.50 265.80 652.80
  Q 261.19 656.75 257.40 660.65
  Q 257.12 660.93 256.85 660.97
  A 0.70 0.70 0.0 0 1 256.08 660.07
  C 265.31 630.60 274.11 601.24 283.57 571.28
  A 1.66 1.65 -72.6 0 1 285.63 570.20
  L 312.21 578.31
  A 0.70 0.69 17.5 0 1 312.67 579.18
  Q 307.53 596.09 301.82 611.89
  C 300.99 614.18 299.77 616.04 298.82 618.18
  A 3.34 3.25 -14.0 0 1 298.32 618.99
  Z"
/>
<path fill="#d16227" d="
  M 239.57 576.89
  L 218.89 644.60
  A 0.70 0.70 0.0 0 1 217.74 644.90
  L 186.85 615.60
  A 0.70 0.70 0.0 0 1 186.92 614.53
  L 238.48 576.12
  A 0.70 0.70 0.0 0 1 239.57 576.89
  Z"
/>
<path fill="#d16227" d="
  M 305.68 617.20
  L 317.92 580.68
  A 1.55 1.54 18.5 0 1 319.88 579.71
  L 342.19 587.19
  A 1.61 1.60 -71.4 0 1 343.20 589.23
  Q 339.93 598.75 339.00 601.75
  Q 338.18 604.42 336.33 605.83
  Q 329.87 610.78 324.13 614.10
  Q 322.14 615.24 318.56 616.06
  Q 312.50 617.46 306.34 618.03
  A 0.63 0.63 0.0 0 1 305.68 617.20
  Z"
/>
<path fill="#d16227" d="
  M 345.62 597.49
  L 348.07 590.19
  A 1.31 1.31 0.0 0 1 349.35 589.30
  Q 351.68 589.37 353.84 590.70
  A 1.30 1.29 41.6 0 1 353.97 592.81
  L 346.93 598.40
  A 0.83 0.83 0.0 0 1 345.62 597.49
  Z"
/>
<path fill="#d16227" d="
  M 245.28 679.62
  L 244.59 705.50
  A 0.86 0.86 0.0 0 1 243.14 706.10
  L 184.39 650.37
  A 0.86 0.86 0.0 0 1 184.12 649.73
  L 184.77 625.04
  A 0.86 0.86 0.0 0 1 186.21 624.43
  L 245.00 678.97
  A 0.86 0.86 0.0 0 1 245.28 679.62
  Z"
/>
</g>
<g>
<path fill="#07094c" d="
  M 476.76 175.99
  A 0.81 0.81 0.0 0 1 477.43 175.01
  L 517.93 168.71
  A 1.14 1.13 86.2 0 1 519.24 169.86
  Q 519.16 173.57 520.24 176.72
  C 522.28 182.67 525.89 183.93 531.50 184.64
  A 0.97 0.97 0.0 0 1 532.33 185.39
  C 537.13 206.78 535.78 228.78 527.07 248.80
  C 523.61 256.75 519.06 263.09 513.86 270.57
  A 1.49 1.49 0.0 0 1 512.24 271.16
  Q 508.96 270.24 508.91 270.22
  C 503.43 268.06 498.27 274.22 495.54 278.21
  A 1.63 1.62 -64.6 0 1 493.73 278.86
  Q 489.49 277.61 484.65 275.34
  Q 469.35 268.16 456.19 259.63
  A 1.38 1.38 0.0 0 1 455.78 257.72
  C 464.29 244.59 469.88 230.10 470.37 215.49
  Q 470.77 203.51 469.41 192.30
  A 1.14 1.14 0.0 0 1 470.30 191.04
  C 477.62 189.48 478.09 182.18 476.76 175.99
  Z
  M 493.41 272.01
  C 498.13 266.73 502.27 262.39 509.89 265.00
  A 1.54 1.53 26.9 0 0 511.64 264.43
  C 517.66 255.79 522.73 247.07 525.74 236.79
  Q 532.39 214.09 527.97 191.01
  A 1.74 1.72 5.5 0 0 526.91 189.74
  C 520.23 187.06 515.50 183.44 514.21 175.92
  A 1.06 1.06 0.0 0 0 512.98 175.06
  L 483.93 180.12
  A 1.07 1.07 0.0 0 0 483.04 181.10
  C 482.62 187.04 480.74 192.20 475.55 195.46
  A 1.27 1.26 -19.6 0 0 474.96 196.69
  Q 476.89 212.03 474.34 227.63
  C 472.66 237.90 468.02 247.28 462.85 256.28
  A 1.11 1.11 0.0 0 0 463.24 257.78
  Q 477.12 266.13 491.73 272.38
  A 1.48 1.46 32.3 0 0 493.41 272.01
  Z"
/>
<path fill="#07094c" d="
  M 667.48 325.85
  A 1.30 1.30 0.0 0 1 669.12 326.69
  C 671.56 334.26 676.09 335.43 683.26 336.13
  A 2.39 2.38 -11.9 0 1 685.11 337.33
  C 691.04 347.75 697.55 359.22 703.84 366.90
  Q 709.49 373.80 714.83 380.54
  A 0.84 0.84 0.0 0 1 714.77 381.65
  C 701.88 394.53 691.77 405.34 679.08 413.96
  A 2.20 2.18 -51.6 0 1 677.06 414.20
  Q 672.52 412.46 672.42 412.42
  C 668.31 411.00 664.79 412.79 661.29 414.84
  A 2.45 2.44 50.0 0 1 658.48 414.59
  Q 654.31 411.04 650.95 407.23
  Q 639.63 394.38 632.46 379.74
  Q 627.35 369.29 622.85 357.32
  A 0.92 0.91 70.0 0 1 623.40 356.13
  Q 629.37 354.00 629.65 346.81
  C 629.76 344.04 628.77 341.68 628.65 339.24
  A 1.18 1.18 0.0 0 1 629.47 338.05
  L 667.48 325.85
  Z
  M 707.71 380.39
  Q 707.60 379.93 707.34 379.65
  C 697.06 368.24 688.90 355.51 681.74 342.58
  A 2.42 2.42 0.0 0 0 679.80 341.33
  Q 670.72 340.68 666.28 333.04
  A 1.07 1.07 0.0 0 0 665.03 332.56
  L 635.86 341.93
  A 1.13 1.11 -11.0 0 0 635.08 343.07
  C 635.48 348.98 634.54 354.55 630.30 358.90
  A 1.82 1.82 0.0 0 0 629.94 360.92
  C 634.80 371.77 638.51 381.27 644.66 390.16
  Q 651.42 399.96 659.12 408.22
  A 1.86 1.86 0.0 0 0 661.19 408.67
  Q 664.18 407.44 666.73 406.70
  C 670.10 405.73 674.14 407.62 676.75 408.34
  A 1.86 1.84 -55.9 0 0 678.36 408.02
  C 688.70 400.08 698.46 390.50 707.51 381.13
  A 0.79 0.77 -30.7 0 0 707.71 380.39
  Z"
/>
<path fill="#07094c" d="
  M 653.95 615.91
  Q 653.95 615.94 653.86 616.20
  A 0.69 0.69 0.0 0 1 653.61 616.54
  Q 649.29 619.41 646.80 621.54
  C 643.64 624.26 644.56 627.92 645.13 631.31
  A 1.31 1.31 0.0 0 1 644.54 632.64
  Q 638.38 636.56 630.62 642.87
  Q 617.47 653.58 608.75 659.73
  C 588.48 674.04 564.24 682.62 539.08 682.92
  A 2.07 2.06 -12.2 0 1 537.18 681.70
  Q 536.55 680.26 535.16 677.84
  C 531.45 671.41 524.61 670.96 517.81 671.20
  A 1.89 1.89 0.0 0 1 516.05 670.17
  Q 513.79 665.74 511.72 660.53
  Q 506.79 648.09 502.20 635.52
  A 1.33 1.33 0.0 0 1 502.87 633.87
  L 505.86 632.42
  A 2.45 2.40 -83.3 0 0 506.75 631.70
  C 509.74 627.81 510.27 622.69 510.36 617.62
  A 0.79 0.78 88.8 0 1 511.10 616.84
  Q 527.43 615.86 543.32 610.31
  C 557.33 605.42 568.99 598.44 585.89 589.19
  C 593.56 584.99 601.88 581.13 608.72 578.41
  A 1.90 1.89 -28.3 0 1 610.98 579.08
  C 614.85 584.64 619.96 592.44 627.72 590.12
  A 1.48 1.48 0.0 0 1 629.20 590.49
  L 653.64 615.18
  A 1.08 1.06 -68.6 0 1 653.95 615.91
  Z
  M 607.45 585.16
  Q 603.93 586.43 600.61 588.10
  C 586.06 595.45 574.08 602.73 558.68 610.23
  Q 549.03 614.94 543.91 616.50
  C 534.87 619.27 527.36 620.54 516.92 622.06
  A 1.33 1.32 -3.1 0 0 515.78 623.32
  Q 515.47 631.85 510.05 636.82
  A 2.26 2.25 57.9 0 0 509.48 639.32
  L 519.66 664.74
  A 1.37 1.36 80.1 0 0 520.88 665.60
  C 527.42 665.84 533.18 666.34 537.65 671.61
  Q 539.70 674.03 541.48 676.52
  A 2.01 2.01 0.0 0 0 543.27 677.35
  Q 579.56 674.63 608.68 652.65
  Q 617.68 645.86 632.05 634.55
  Q 634.07 632.96 637.85 630.53
  A 1.83 1.81 71.8 0 0 638.68 628.86
  C 638.19 621.74 639.93 620.24 644.83 615.74
  A 1.23 1.23 0.0 0 0 644.87 613.96
  L 627.63 596.72
  A 2.37 2.35 65.7 0 0 625.86 596.04
  C 618.19 596.45 612.18 592.07 608.45 585.53
  A 0.82 0.82 0.0 0 0 607.45 585.16
  Z"
/>
</g>
<g>
<path fill="#f0d5b0" d="
  M 493.41 272.01
  A 1.48 1.46 32.3 0 1 491.73 272.38
  Q 477.12 266.13 463.24 257.78
  A 1.11 1.11 0.0 0 1 462.85 256.28
  C 468.02 247.28 472.66 237.90 474.34 227.63
  Q 476.89 212.03 474.96 196.69
  A 1.27 1.26 -19.6 0 1 475.55 195.46
  C 480.74 192.20 482.62 187.04 483.04 181.10
  A 1.07 1.07 0.0 0 1 483.93 180.12
  L 512.98 175.06
  A 1.06 1.06 0.0 0 1 514.21 175.92
  C 515.50 183.44 520.23 187.06 526.91 189.74
  A 1.74 1.72 5.5 0 1 527.97 191.01
  Q 532.39 214.09 525.74 236.79
  C 522.73 247.07 517.66 255.79 511.64 264.43
  A 1.54 1.53 26.9 0 1 509.89 265.00
  C 502.27 262.39 498.13 266.73 493.41 272.01
  Z
  M 498.7074 249.7535
  A 22.34 18.70 97.0 0 0 519.9906 229.8590
  A 22.34 18.70 97.0 0 0 504.1526 205.4065
  A 22.34 18.70 97.0 0 0 482.8694 225.3010
  A 22.34 18.70 97.0 0 0 498.7074 249.7535
  Z"
/>
<path fill="#f0d5b0" d="
  M 707.71 380.39
  A 0.79 0.77 -30.7 0 1 707.51 381.13
  C 698.46 390.50 688.70 400.08 678.36 408.02
  A 1.86 1.84 -55.9 0 1 676.75 408.34
  C 674.14 407.62 670.10 405.73 666.73 406.70
  Q 664.18 407.44 661.19 408.67
  A 1.86 1.86 0.0 0 1 659.12 408.22
  Q 651.42 399.96 644.66 390.16
  C 638.51 381.27 634.80 371.77 629.94 360.92
  A 1.82 1.82 0.0 0 1 630.30 358.90
  C 634.54 354.55 635.48 348.98 635.08 343.07
  A 1.13 1.11 -11.0 0 1 635.86 341.93
  L 665.03 332.56
  A 1.07 1.07 0.0 0 1 666.28 333.04
  Q 670.72 340.68 679.80 341.33
  A 2.42 2.42 0.0 0 1 681.74 342.58
  C 688.90 355.51 697.06 368.24 707.34 379.65
  Q 707.60 379.93 707.71 380.39
  Z
  M 651.69 357.13
  C 640.81 368.61 648.99 385.98 660.66 392.61
  C 669.09 397.40 678.80 396.14 685.46 389.11
  C 692.11 382.09 692.84 372.32 687.60 364.17
  C 680.35 352.87 662.56 345.65 651.69 357.13
  Z"
/>
<path fill="#f0d5b0" d="
  M 607.45 585.16
  A 0.82 0.82 0.0 0 1 608.45 585.53
  C 612.18 592.07 618.19 596.45 625.86 596.04
  A 2.37 2.35 65.7 0 1 627.63 596.72
  L 644.87 613.96
  A 1.23 1.23 0.0 0 1 644.83 615.74
  C 639.93 620.24 638.19 621.74 638.68 628.86
  A 1.83 1.81 71.8 0 1 637.85 630.53
  Q 634.07 632.96 632.05 634.55
  Q 617.68 645.86 608.68 652.65
  Q 579.56 674.63 543.27 677.35
  A 2.01 2.01 0.0 0 1 541.48 676.52
  Q 539.70 674.03 537.65 671.61
  C 533.18 666.34 527.42 665.84 520.88 665.60
  A 1.37 1.36 80.1 0 1 519.66 664.74
  L 509.48 639.32
  A 2.26 2.25 57.9 0 1 510.05 636.82
  Q 515.47 631.85 515.78 623.32
  A 1.33 1.32 -3.1 0 1 516.92 622.06
  C 527.36 620.54 534.87 619.27 543.91 616.50
  Q 549.03 614.94 558.68 610.23
  C 574.08 602.73 586.06 595.45 600.61 588.10
  Q 603.93 586.43 607.45 585.16
  Z
  M 605.0852 624.4130
  A 29.03 25.15 -19.2 0 0 569.3990 610.2089
  A 29.03 25.15 -19.2 0 0 550.2548 643.5070
  A 29.03 25.15 -19.2 0 0 585.9410 657.7111
  A 29.03 25.15 -19.2 0 0 605.0852 624.4130
  Z"
/>
</g>
<g>
<path fill="#07094c" d="
  M 498.7074 249.7535
  A 22.34 18.70 97.0 0 1 482.8694 225.3010
  A 22.34 18.70 97.0 0 1 504.1526 205.4065
  A 22.34 18.70 97.0 0 1 519.9906 229.8590
  A 22.34 18.70 97.0 0 1 498.7074 249.7535
  Z
  M 499.4674 244.0528
  A 16.66 13.33 96.8 0 0 514.6762 229.0883
  A 16.66 13.33 96.8 0 0 503.4126 210.9672
  A 16.66 13.33 96.8 0 0 488.2038 225.9317
  A 16.66 13.33 96.8 0 0 499.4674 244.0528
  Z"
/>
<path fill="#07094c" d="
  M 685.46 389.11
  C 678.80 396.14 669.09 397.40 660.66 392.61
  C 648.99 385.98 640.81 368.61 651.69 357.13
  C 662.56 345.65 680.35 352.87 687.60 364.17
  C 692.84 372.32 692.11 382.09 685.46 389.11
  Z
  M 681.3913 385.9630
  A 17.90 14.77 44.8 0 0 679.0974 362.8696
  A 17.90 14.77 44.8 0 0 655.9887 360.7370
  A 17.90 14.77 44.8 0 0 658.2826 383.8304
  A 17.90 14.77 44.8 0 0 681.3913 385.9630
  Z"
/>
<path fill="#07094c" d="
  M 605.0852 624.4130
  A 29.03 25.15 -19.2 0 1 585.9410 657.7111
  A 29.03 25.15 -19.2 0 1 550.2548 643.5070
  A 29.03 25.15 -19.2 0 1 569.3990 610.2089
  A 29.03 25.15 -19.2 0 1 605.0852 624.4130
  Z
  M 599.4412 626.2318
  A 23.11 19.38 -19.3 0 0 571.2246 615.5791
  A 23.11 19.38 -19.3 0 0 555.8188 641.5082
  A 23.11 19.38 -19.3 0 0 584.0354 652.1609
  A 23.11 19.38 -19.3 0 0 599.4412 626.2318
  Z"
/>
</g>
<g>
<ellipse fill="#f0d5b0" cx="0.00" cy="0.00" transform="translate(501.44,227.51) rotate(96.8)" rx="16.66" ry="13.33"/>
<ellipse fill="#f0d5b0" cx="0.00" cy="0.00" transform="translate(668.69,373.35) rotate(44.8)" rx="17.90" ry="14.77"/>
<ellipse fill="#f0d5b0" cx="0.00" cy="0.00" transform="translate(577.63,633.87) rotate(-19.3)" rx="23.11" ry="19.38"/>
</g>
</svg>
