<?xml version="1.0" encoding="UTF-8" standalone="no"?>
<!DOCTYPE svg PUBLIC "-//W3C//DTD SVG 1.0//EN" "http://www.w3.org/TR/2001/REC-SVG-20010904/DTD/svg10.dtd">
<svg xmlns="http://www.w3.org/2000/svg" version="1.0" viewBox="0.00 0.00 1024.00 901.00">
<g stroke-width="2.00" fill="none" stroke-linecap="butt">
<path stroke="#6b3737" d="
  M 830.53 436.40
  Q 826.41 433.95 823.25 433.00
  Q 818.93 431.69 815.81 430.04"
/>
<path stroke="#807786" d="
  M 815.81 430.04
  Q 790.65 310.55 752.87 194.55
  Q 735.26 140.46 713.70 90.00
  Q 711.46 84.75 709.07 79.64
  A 2.65 2.64 -16.6 0 0 706.31 78.15
  L 669.64 83.44
  A 0.94 0.94 0.0 0 0 668.89 84.70
  Q 691.49 144.65 710.99 211.09
  Q 718.27 235.87 725.59 260.47
  Q 725.93 261.59 726.02 263.36"
/>
<path stroke="#6b3737" d="
  M 726.02 263.36
  Q 719.44 259.63 712.90 256.63
  Q 712.19 256.30 711.82 254.93"
/>
<path stroke="#807786" d="
  M 711.82 254.93
  Q 709.51 248.86 708.77 246.23
  Q 692.22 187.66 672.36 130.53
  C 668.20 118.57 662.47 103.43 658.10 91.89
  Q 653.82 80.56 644.86 60.43
  Q 643.84 58.13 641.81 55.14
  A 1.93 1.92 74.7 0 0 640.34 54.30
  Q 639.27 54.24 636.49 54.72
  Q 565.11 67.18 495.14 84.92
  Q 392.24 111.00 290.79 142.35
  C 270.16 148.73 240.95 158.79 226.02 164.03
  Q 214.62 168.03 192.92 176.11
  Q 190.71 176.93 191.34 179.13
  C 198.84 205.18 206.79 234.96 214.10 265.35
  Q 240.16 373.73 252.85 426.64
  Q 258.26 449.20 264.70 477.80
  Q 279.26 542.51 295.62 610.38
  Q 306.91 657.21 321.72 708.03
  Q 327.92 729.29 336.77 754.24
  Q 346.04 780.42 356.87 801.39
  Q 358.45 804.44 360.33 806.46
  A 1.71 1.70 -28.1 0 0 361.99 806.96
  Q 370.03 805.03 401.93 797.39
  Q 418.23 793.49 474.17 777.88
  Q 479.51 776.39 493.80 771.97
  C 509.88 767.01 524.93 762.76 542.84 757.07
  Q 638.64 726.69 731.13 690.14
  Q 765.19 676.69 796.02 664.06
  A 1.94 1.93 -16.9 0 0 797.19 661.88
  C 796.44 658.14 796.17 654.01 795.65 650.75
  Q 785.77 589.03 771.67 522.46
  Q 764.97 490.78 758.13 458.85"
/>
<path stroke="#6b3737" d="
  M 758.13 458.85
  Q 758.06 457.34 760.05 459.69
  A 3.88 3.71 85.6 0 0 760.82 460.38
  L 772.55 468.02"
/>
<path stroke="#807786" d="
  M 772.55 468.02
  Q 777.35 490.25 781.71 511.35
  Q 791.01 556.34 796.49 585.49
  Q 802.74 618.73 807.62 649.87
  Q 808.43 655.02 809.42 663.85
  C 809.89 668.06 808.43 670.91 804.87 672.65
  Q 800.23 674.93 791.55 678.56
  Q 669.06 729.79 549.48 767.46
  Q 480.66 789.14 411.37 807.87
  A 1.11 1.11 0.0 0 0 410.63 809.37
  L 422.15 837.07
  A 1.98 1.97 75.9 0 0 424.16 838.28
  Q 425.48 838.16 427.14 837.83
  Q 435.09 836.25 451.79 831.24
  Q 476.53 823.83 503.30 815.79
  Q 530.60 807.59 573.49 793.23
  C 671.48 760.44 768.03 723.93 862.43 682.41
  Q 864.90 681.32 865.61 680.79
  A 1.76 1.68 81.8 0 0 866.18 679.99
  Q 866.41 679.32 866.04 676.48
  Q 854.79 592.21 835.05 515.25
  C 834.66 513.71 834.34 511.10 833.89 509.12
  A 4.24 4.23 -79.8 0 0 832.11 506.55
  Q 808.71 491.01 786.61 474.61"
/>
<path stroke="#6b3737" d="
  M 786.61 474.61
  C 788.38 468.78 792.47 465.37 795.27 460.72
  Q 802.42 448.88 804.64 445.50
  A 2.93 2.92 -54.0 0 1 808.91 444.82
  L 809.04 444.92
  A 4.19 4.18 -59.3 0 1 810.29 449.84
  Q 806.21 459.51 801.60 467.32
  Q 800.29 469.54 801.88 471.11
  C 808.08 477.23 815.07 481.67 823.02 487.21
  Q 827.18 490.11 833.63 494.24
  C 853.12 506.72 872.88 519.40 893.86 531.40
  Q 911.33 541.40 924.33 547.43
  C 942.39 555.80 965.62 565.57 984.95 555.83
  A 4.02 4.01 47.8 0 1 988.92 556.03
  L 993.56 558.98"
/>
<path stroke="#6b3737" d="
  M 119.11 548.64
  L 135.52 550.82"
/>
<path stroke="#807786" d="
  M 135.52 550.82
  Q 133.37 552.38 131.54 553.81
  Q 110.40 570.28 93.72 585.04
  A 1.72 1.71 49.8 0 0 93.53 587.40
  Q 105.94 602.71 113.82 613.17
  Q 125.70 628.94 129.92 635.97
  Q 135.13 644.64 136.00 646.43
  C 139.32 653.30 131.34 657.08 125.72 656.79
  C 112.24 656.09 97.14 645.81 88.64 635.46
  C 86.61 632.99 82.89 627.62 86.59 625.43
  C 88.90 624.05 92.01 625.77 93.80 627.58
  C 102.10 635.95 110.27 642.54 121.97 645.14
  A 0.61 0.61 0.0 0 0 122.71 644.45
  Q 122.61 643.85 122.19 643.26
  Q 114.14 632.11 95.89 609.01
  A 1.16 1.15 49.6 0 0 94.21 608.87
  L 74.61 626.48
  A 2.33 2.32 -37.9 0 0 74.23 629.50
  Q 76.91 633.50 80.38 636.91
  C 92.45 648.78 103.90 661.13 114.58 671.97
  Q 116.63 674.06 136.82 694.51
  C 141.77 699.53 146.60 705.16 151.71 710.25
  Q 155.24 713.76 163.00 722.20
  C 173.69 733.81 184.41 744.88 194.31 755.70
  Q 253.14 820.01 262.60 829.99
  Q 271.05 838.90 276.94 844.60
  A 1.52 1.51 -41.7 0 0 278.92 844.71
  Q 284.91 840.15 294.31 832.05
  Q 316.95 812.51 337.37 791.10
  A 1.43 1.42 56.3 0 0 337.67 789.58
  Q 317.49 738.65 303.19 685.81
  Q 286.59 624.46 272.02 562.73"
/>
<path stroke="#6b3737" d="
  M 272.02 562.73
  L 268.93 550.16"
/>
<path stroke="#807786" d="
  M 268.93 550.16
  L 263.86 529.11"
/>
<path stroke="#6b3737" d="
  M 263.86 529.11
  L 253.24 482.87"
/>
<path stroke="#807786" d="
  M 253.24 482.87
  L 250.47 470.16"
/>
<path stroke="#6b3737" d="
  M 250.47 470.16
  L 247.77 460.30"
/>
<path stroke="#807786" d="
  M 247.77 460.30
  L 243.41 441.62"
/>
<path stroke="#6b3737" d="
  M 243.41 441.62
  Q 242.55 434.22 239.86 426.62"
/>
<path stroke="#807786" d="
  M 239.86 426.62
  L 228.18 377.81"
/>
<path stroke="#6b3737" d="
  M 228.18 377.81
  Q 228.24 374.64 226.49 370.53"
/>
<path stroke="#807786" d="
  M 226.49 370.53
  L 220.62 346.96
  A 1.38 1.38 0.0 0 0 219.21 345.91
  C 216.15 346.10 212.88 345.43 210.32 345.16
  Q 194.57 343.51 186.98 342.50
  Q 168.63 340.06 154.78 338.30
  Q 125.07 334.51 91.76 330.34
  Q 85.72 329.58 82.42 324.82
  C 80.71 322.36 80.82 316.81 81.21 314.50
  Q 85.48 289.31 87.81 276.02
  C 88.91 269.81 89.95 263.57 96.89 262.40
  Q 101.31 261.65 105.53 262.19
  C 116.09 263.53 127.93 264.16 138.17 265.35
  Q 165.13 268.48 201.93 272.46
  A 0.51 0.51 0.0 0 0 202.48 271.83
  L 196.65 248.94"
/>
<path stroke="#6b3737" d="
  M 196.65 248.94
  Q 196.12 241.66 193.34 235.66
  Q 193.21 235.37 192.73 235.40"
/>
<path stroke="#e3a474" d="
  M 786.61 474.61
  Q 784.38 471.76 778.82 471.66
  Q 776.43 471.62 772.55 468.02"
/>
<path stroke="#6b3737" d="
  M 679.13 502.21
  L 660.33 505.03"
/>
<path stroke="#e3a474" d="
  M 243.41 441.62
  Q 241.70 449.55 242.34 456.96
  A 2.22 2.21 12.9 0 0 243.42 458.67
  Q 245.88 460.14 247.77 460.30"
/>
<path stroke="#e3a474" d="
  M 226.49 370.53
  Q 224.52 370.22 222.54 369.51
  A 5.01 4.87 -29.8 0 0 221.72 369.30
  Q 209.80 367.47 195.23 365.54
  Q 190.89 364.97 188.87 366.09
  Q 185.64 367.86 184.80 372.57
  Q 182.68 384.49 182.65 397.25
  Q 182.63 405.36 190.72 406.77
  Q 208.31 409.85 213.25 410.01
  C 217.32 410.14 221.20 410.25 223.36 407.32
  Q 225.13 404.93 225.60 400.74
  Q 226.81 389.76 228.18 377.81"
/>
<path stroke="#e3a474" d="
  M 239.86 426.62
  Q 234.26 428.01 233.30 433.26
  Q 231.07 445.61 230.96 457.52
  C 230.92 462.82 231.93 467.10 236.78 468.99
  Q 242.79 471.32 250.47 470.16"
/>
<path stroke="#e3a474" d="
  M 253.24 482.87
  Q 252.26 483.06 251.03 482.66
  C 247.13 481.39 242.60 482.17 238.45 481.37
  C 231.92 480.12 226.80 483.27 225.65 489.87
  Q 224.27 497.81 223.29 509.26
  Q 222.91 513.59 223.90 517.58
  Q 225.50 524.06 231.91 525.47
  Q 247.46 528.88 263.86 529.11"
/>
<path stroke="#e3a474" d="
  M 196.65 248.94
  Q 193.81 249.22 193.00 249.14
  Q 127.56 243.01 119.47 242.40
  C 106.63 241.41 101.63 241.07 91.45 241.09
  C 85.35 241.11 81.92 242.67 80.08 248.38
  Q 75.62 262.21 72.22 277.96
  Q 62.39 323.56 56.07 376.00
  Q 50.29 424.04 46.63 467.51
  Q 44.56 492.04 44.10 505.51
  Q 43.89 511.55 44.57 513.49
  C 47.23 521.16 56.86 523.30 64.23 524.80
  Q 109.70 534.01 154.68 539.56
  Q 158.76 540.07 183.76 543.40
  Q 199.33 545.47 212.89 546.57
  Q 240.93 548.85 268.93 550.16"
/>
<path stroke="#e3a474" d="
  M 272.02 562.73
  C 261.87 563.42 253.81 562.54 244.85 562.10
  Q 235.01 561.61 234.18 561.55
  Q 198.83 558.70 171.00 555.52
  Q 155.44 553.74 135.52 550.82"
/>
<path stroke="#e3a474" d="
  M 815.81 430.04
  Q 812.34 430.09 809.71 428.03
  Q 802.94 422.74 800.37 421.37
  Q 790.65 416.22 780.35 411.79
  A 1.27 1.27 0.0 0 1 779.63 410.28
  C 783.44 396.72 785.69 381.95 784.92 367.74
  Q 783.17 335.05 767.36 307.15
  Q 752.69 281.28 727.29 265.14
  A 2.13 2.04 3.0 0 1 726.55 264.35
  L 726.02 263.36"
/>
<path stroke="#e3a474" d="
  M 711.82 254.93
  Q 711.33 255.31 710.86 255.10
  C 689.45 245.32 666.28 241.38 642.51 243.13
  C 623.98 244.50 607.71 250.31 591.03 259.79
  C 559.38 277.78 537.50 308.36 529.07 343.77
  Q 524.61 362.53 525.34 377.74
  Q 528.17 436.39 573.20 474.09
  C 597.05 494.05 628.55 504.52 659.38 504.11
  A 0.81 0.81 0.0 0 1 660.11 504.57
  L 660.33 505.03"
/>
<path stroke="#807786" d="
  M 660.33 505.03
  Q 642.17 525.28 623.50 544.27
  C 620.42 547.39 618.06 546.18 614.28 544.72
  Q 602.24 540.09 574.77 529.21
  C 571.00 527.72 566.96 526.95 564.45 530.22
  Q 541.85 559.64 530.73 573.82
  A 0.67 0.67 0.0 0 1 529.76 573.91
  Q 522.92 567.85 514.42 561.40
  C 509.32 557.53 501.95 551.35 497.62 547.85
  C 493.61 544.60 489.40 543.19 486.06 547.79
  Q 437.80 614.33 429.58 625.09
  Q 427.72 627.53 424.56 626.27
  Q 415.73 622.76 407.51 619.49
  Q 404.02 618.10 401.49 621.01
  Q 387.01 637.66 369.71 656.96
  Q 368.73 658.06 367.48 659.04
  A 0.64 0.64 0.0 0 1 366.47 658.70
  Q 356.60 620.85 347.70 581.76
  C 346.66 577.17 346.33 573.88 341.50 573.37
  C 337.09 572.90 335.26 577.77 336.12 581.53
  Q 352.72 654.75 372.38 724.42
  Q 374.40 731.59 375.64 735.13
  C 377.54 740.58 384.06 739.12 388.16 737.95
  Q 405.20 733.10 450.17 720.38
  Q 472.11 714.17 547.54 691.99
  Q 641.48 664.35 731.23 634.21
  Q 736.52 632.43 735.99 628.44
  C 735.40 623.95 731.62 622.06 727.31 623.51
  C 674.13 641.36 612.11 660.88 545.11 680.58
  Q 521.30 687.58 519.01 688.26
  Q 452.44 708.16 386.03 726.39
  A 0.97 0.96 -15.2 0 1 384.84 725.71
  L 378.70 702.79
  A 1.00 0.98 65.6 0 1 379.09 701.72
  Q 394.67 691.01 411.67 677.96
  C 413.29 676.72 414.57 676.42 416.51 676.76
  Q 432.24 679.55 433.75 679.75
  Q 437.74 680.28 439.75 680.11
  A 6.23 6.22 -65.2 0 0 442.79 678.99
  Q 446.40 676.40 449.73 673.47
  Q 473.62 652.41 499.06 630.64
  C 501.36 628.68 502.39 628.44 505.19 629.32
  Q 525.40 635.62 539.27 639.70
  C 541.99 640.50 544.16 639.92 546.47 638.01
  C 561.21 625.86 575.58 612.94 590.56 599.61
  A 2.79 2.78 33.7 0 1 593.33 599.06
  Q 613.60 606.18 633.20 612.33
  C 639.42 614.28 643.36 615.26 648.72 610.73
  Q 680.81 583.61 708.15 559.15
  Q 712.05 555.67 714.36 552.85
  C 718.22 548.18 712.40 541.86 707.35 545.32
  Q 704.57 547.22 701.11 550.35
  Q 695.91 555.07 666.69 580.43
  Q 651.42 593.69 642.21 601.23
  A 2.52 2.51 34.0 0 1 639.86 601.68
  Q 610.19 592.39 592.19 586.83
  C 588.52 585.70 584.23 589.86 581.80 592.06
  Q 565.07 607.12 544.44 625.25
  C 542.78 626.71 540.89 627.81 538.86 627.17
  Q 535.37 626.07 505.74 617.53
  C 500.75 616.10 498.22 615.54 494.44 619.20
  Q 491.39 622.15 488.18 624.94
  Q 460.98 648.61 441.48 666.50
  Q 439.08 668.71 435.24 668.11
  Q 425.72 666.60 418.76 665.09
  Q 412.33 663.70 406.59 668.01
  Q 376.16 690.84 375.84 691.08
  A 0.53 0.52 -26.6 0 1 375.02 690.81
  L 370.28 674.66
  A 2.25 2.24 58.0 0 1 370.76 672.55
  L 406.37 632.59
  A 1.90 1.89 -56.1 0 1 408.62 632.14
  Q 417.81 636.60 424.80 639.64
  C 428.77 641.37 431.53 641.05 434.17 637.89
  Q 438.23 633.03 441.75 628.25
  Q 465.11 596.59 491.77 560.07
  A 1.32 1.32 0.0 0 1 493.67 559.82
  Q 504.02 568.23 523.60 583.74
  C 528.63 587.73 532.61 590.25 537.30 584.28
  Q 553.94 563.08 567.77 544.77
  Q 567.82 544.70 570.57 541.60
  A 1.84 1.83 -58.0 0 1 572.62 541.12
  Q 603.19 553.42 615.82 558.19
  C 620.29 559.88 623.94 561.46 627.83 557.33
  Q 659.33 523.88 679.13 502.21"
/>
<path stroke="#e3a474" d="
  M 679.13 502.21
  Q 684.69 500.66 690.48 499.16
  C 704.54 495.52 718.16 488.95 729.48 480.69
  C 739.86 473.12 747.56 466.85 753.90 458.40
  Q 754.84 457.16 756.55 455.84
  A 0.68 0.68 0.0 0 1 757.63 456.26
  L 758.13 458.85"
/>
<path stroke="#6b3737" d="
  M 92.48 317.14
  A 1.61 1.61 0.0 0 0 93.87 319.01
  L 215.95 334.17
  A 1.61 1.61 0.0 0 0 217.72 332.19
  L 206.23 285.24
  A 1.61 1.61 0.0 0 0 204.83 284.02
  L 101.57 273.35
  A 1.61 1.61 0.0 0 0 99.81 274.68
  L 92.48 317.14"
/>
<path stroke="#807786" d="
  M 418.94 166.77
  C 419.93 173.35 426.09 171.74 430.88 170.36
  Q 450.31 164.81 519.02 146.00
  Q 538.50 140.67 559.07 135.44
  Q 593.25 126.73 599.14 124.98
  Q 602.09 124.11 602.77 123.24
  Q 605.60 119.63 603.14 116.63
  Q 600.13 112.98 594.61 114.37
  Q 510.16 135.78 426.51 159.66
  C 422.30 160.85 418.19 161.78 418.94 166.77"
/>
<path stroke="#807786" d="
  M 428.32 197.42
  C 429.37 204.06 435.57 202.38 440.40 200.95
  Q 459.96 195.19 529.16 175.65
  Q 548.78 170.12 569.50 164.67
  Q 603.93 155.61 609.86 153.80
  Q 612.83 152.89 613.51 152.01
  Q 616.34 148.34 613.83 145.33
  Q 610.77 141.67 605.21 143.12
  Q 520.14 165.41 435.90 190.18
  C 431.66 191.42 427.52 192.39 428.32 197.42"
/>
<path stroke="#807786" d="
  M 627.0837 176.2586
  A 5.72 5.72 0.0 0 0 620.0018 172.3492
  L 440.1247 224.2681
  A 5.72 5.72 0.0 0 0 436.2153 231.3500
  L 436.2763 231.5614
  A 5.72 5.72 0.0 0 0 443.3582 235.4708
  L 623.2353 183.5519
  A 5.72 5.72 0.0 0 0 627.1447 176.4700
  L 627.0837 176.2586"
/>
<path stroke="#807786" d="
  M 407.36 239.87
  C 404.53 227.80 400.20 217.31 392.43 207.59
  Q 375.48 186.39 348.72 179.33
  Q 339.90 177.01 329.51 177.00
  Q 321.70 176.99 319.26 177.29
  Q 305.96 178.89 292.58 185.51
  Q 268.20 197.59 256.55 222.75
  Q 247.51 242.26 249.33 264.56
  Q 251.70 293.66 272.23 313.86
  Q 288.30 329.67 307.51 335.00
  Q 324.31 339.65 341.25 337.13
  C 360.76 334.22 379.41 323.70 391.40 307.69
  Q 410.55 282.10 408.85 250.35
  Q 408.56 244.99 407.36 239.87"
/>
<path stroke="#807786" d="
  M 538.8982 235.2541
  A 5.77 5.77 0.0 0 0 531.7822 231.2608
  L 449.3372 254.4350
  A 5.77 5.77 0.0 0 0 445.3439 261.5511
  L 445.3818 261.6859
  A 5.77 5.77 0.0 0 0 452.4978 265.6792
  L 534.9428 242.5050
  A 5.77 5.77 0.0 0 0 538.9361 235.3889
  L 538.8982 235.2541"
/>
<path stroke="#807786" d="
  M 452.8129 361.5465
  A 5.54 5.54 0.0 0 0 446.0347 357.6173
  L 377.5186 375.8480
  A 5.54 5.54 0.0 0 0 373.5894 382.6263
  L 373.6871 382.9935
  A 5.54 5.54 0.0 0 0 380.4653 386.9227
  L 448.9814 368.6920
  A 5.54 5.54 0.0 0 0 452.9106 361.9137
  L 452.8129 361.5465"
/>
<path stroke="#807786" d="
  M 300.19 387.22
  A 7.74 7.74 0.0 0 0 294.67 396.54
  L 305.86 442.30
  A 7.74 7.74 0.0 0 0 315.38 447.93
  L 357.82 436.57
  A 7.74 7.74 0.0 0 0 363.33 427.25
  L 352.15 381.50
  A 7.74 7.74 0.0 0 0 342.63 375.86
  L 300.19 387.22"
/>
<path stroke="#807786" d="
  M 439.2337 395.8057
  A 5.59 5.59 0.0 0 0 432.3396 391.9369
  L 385.3410 405.1476
  A 5.59 5.59 0.0 0 0 381.4722 412.0417
  L 381.5263 412.2343
  A 5.59 5.59 0.0 0 0 388.4204 416.1031
  L 435.4190 402.8924
  A 5.59 5.59 0.0 0 0 439.2878 395.9983
  L 439.2337 395.8057"
/>
<path stroke="#807786" d="
  M 515.7247 440.5717
  A 5.75 5.75 0.0 0 0 508.6333 436.5922
  L 400.0224 467.1213
  A 5.75 5.75 0.0 0 0 396.0428 474.2128
  L 396.0753 474.3283
  A 5.75 5.75 0.0 0 0 403.1667 478.3078
  L 511.7776 447.7787
  A 5.75 5.75 0.0 0 0 515.7572 440.6872
  L 515.7247 440.5717"
/>
<path stroke="#807786" d="
  M 320.79 475.02
  A 7.89 7.89 0.0 0 0 315.16 484.52
  L 326.74 531.87
  A 7.89 7.89 0.0 0 0 336.27 537.66
  L 378.84 527.25
  A 7.89 7.89 0.0 0 0 384.66 517.82
  L 373.53 469.36
  A 7.89 7.89 0.0 0 0 363.80 463.51
  L 320.79 475.02"
/>
<path stroke="#807786" d="
  M 482.6495 481.7595
  A 5.79 5.79 0.0 0 0 475.4948 477.7772
  L 407.2689 497.2119
  A 5.79 5.79 0.0 0 0 403.2866 504.3666
  L 403.3305 504.5205
  A 5.79 5.79 0.0 0 0 410.4852 508.5028
  L 478.7111 489.0681
  A 5.79 5.79 0.0 0 0 482.6934 481.9134
  L 482.6495 481.7595"
/>
<path stroke="#807786" d="
  M 315.93 190.63
  A 1.30 1.29 74.3 0 0 315.01 192.28
  Q 324.21 220.83 331.42 246.32
  Q 332.58 250.41 333.32 251.46
  A 1.76 1.74 -8.4 0 0 334.19 252.10
  L 393.41 271.19
  A 1.62 1.61 -74.8 0 0 395.48 270.00
  C 399.01 254.33 395.85 235.86 387.77 222.74
  C 383.66 216.06 378.35 208.75 371.86 203.90
  C 355.70 191.84 335.65 185.73 315.93 190.63"
/>
<path stroke="#807786" d="
  M 285.99 309.21
  A 0.93 0.92 -55.3 0 0 287.33 308.96
  Q 302.72 284.40 320.01 258.78
  C 321.29 256.89 321.64 255.33 321.05 253.26
  Q 313.74 227.56 304.07 198.44
  Q 303.48 196.69 302.94 195.50
  A 1.08 1.07 -23.6 0 0 301.55 194.96
  C 276.55 205.23 262.22 228.35 260.90 254.94
  C 260.37 265.68 263.38 278.57 268.19 287.78
  Q 274.98 300.79 285.99 309.21"
/>
<path stroke="#807786" d="
  M 391.23 283.07
  A 0.55 0.55 0.0 0 0 390.85 282.51
  L 331.27 263.74
  A 0.99 0.99 0.0 0 0 330.14 264.14
  L 296.98 315.19
  A 1.56 1.56 0.0 0 0 297.49 317.37
  C 311.82 325.92 329.84 328.24 345.57 324.32
  C 366.38 319.14 383.13 303.92 391.03 284.04
  Q 391.19 283.64 391.23 283.07"
/>
<path stroke="#e3a474" d="
  M 112.11 353.98
  L 86.87 350.20
  A 10.15 10.15 0.0 0 0 75.33 358.74
  L 72.26 379.32
  A 11.08 10.86 8.5 0 0 81.61 391.70
  L 105.01 395.20
  A 11.08 10.86 8.5 0 0 117.57 386.10
  L 120.65 365.51
  A 10.15 10.15 0.0 0 0 112.11 353.98"
/>
<path stroke="#e3a474" d="
  M 128.78 389.29
  A 9.57 9.57 0.0 0 0 137.10 399.97
  L 160.61 402.89
  A 9.57 9.57 0.0 0 0 171.30 394.37
  L 173.60 372.14
  A 9.57 9.57 0.0 0 0 165.71 361.73
  L 142.80 357.78
  A 9.57 9.57 0.0 0 0 131.67 366.03
  L 128.78 389.29"
/>
<path stroke="#e3a474" d="
  M 112.5693 418.0166
  A 9.75 9.75 0.0 0 0 104.1753 407.0774
  L 79.5478 403.8351
  A 9.75 9.75 0.0 0 0 68.6086 412.2291
  L 65.4707 436.0634
  A 9.75 9.75 0.0 0 0 73.8647 447.0026
  L 98.4922 450.2449
  A 9.75 9.75 0.0 0 0 109.4314 441.8509
  L 112.5693 418.0166"
/>
<path stroke="#e3a474" d="
  M 120.92 442.90
  A 10.50 10.50 0.0 0 0 130.05 454.61
  L 152.82 457.44
  A 10.50 10.50 0.0 0 0 164.56 448.10
  L 166.78 426.64
  A 10.50 10.50 0.0 0 0 158.12 415.21
  L 135.92 411.38
  A 10.50 10.50 0.0 0 0 123.71 420.43
  L 120.92 442.90"
/>
<path stroke="#e3a474" d="
  M 175.93 450.65
  A 9.89 9.89 0.0 0 0 184.08 461.41
  L 207.02 465.37
  A 9.89 9.89 0.0 0 0 218.54 456.64
  L 220.92 433.53
  A 9.89 9.89 0.0 0 0 212.77 422.77
  L 189.83 418.81
  A 9.89 9.89 0.0 0 0 178.31 427.54
  L 175.93 450.65"
/>
<path stroke="#e3a474" d="
  M 57.86 491.96
  A 10.95 10.95 0.0 0 0 66.86 504.10
  L 89.33 507.98
  A 10.95 10.95 0.0 0 0 102.06 498.54
  L 104.93 475.37
  A 10.95 10.95 0.0 0 0 95.93 463.23
  L 73.46 459.35
  A 10.95 10.95 0.0 0 0 60.73 468.79
  L 57.86 491.96"
/>
<path stroke="#e3a474" d="
  M 144.58 515.67
  A 9.93 9.93 0.0 0 0 156.12 507.11
  L 159.26 481.89
  A 9.93 9.93 0.0 0 0 151.10 470.88
  L 127.80 466.85
  A 9.93 9.93 0.0 0 0 116.26 475.41
  L 113.12 500.64
  A 9.93 9.93 0.0 0 0 121.28 511.65
  L 144.58 515.67"
/>
<path stroke="#e3a474" d="
  M 199.35 522.19
  A 10.62 10.62 0.0 0 0 211.22 512.75
  L 213.64 489.35
  A 10.62 10.62 0.0 0 0 204.39 477.72
  L 181.73 474.90
  A 10.62 10.62 0.0 0 0 169.86 484.35
  L 167.44 507.75
  A 10.62 10.62 0.0 0 0 176.69 519.38
  L 199.35 522.19"
/>
<path stroke="#e3a474" d="
  M 664.7091 490.7274
  A 117.63 116.35 85.5 0 0 771.4713 364.3313
  A 117.63 116.35 85.5 0 0 646.2509 256.1926
  A 117.63 116.35 85.5 0 0 539.4887 382.5887
  A 117.63 116.35 85.5 0 0 664.7091 490.7274"
/>
<path stroke="#e3a474" d="
  M 775.62 423.63
  A 0.99 0.98 -67.6 0 0 774.41 424.14
  Q 768.73 436.42 764.12 444.14
  Q 762.86 446.24 765.19 448.24
  Q 773.20 455.13 782.17 460.47
  A 1.74 1.73 -56.0 0 0 784.44 460.02
  Q 792.58 449.19 798.75 436.54
  A 1.58 1.57 29.4 0 0 798.18 434.52
  Q 787.46 427.70 775.62 423.63"
/>
<path stroke="#807786" d="
  M 641.2474 475.0476
  A 102.46 102.29 97.9 0 0 756.6492 387.6192
  A 102.46 102.29 97.9 0 0 669.4126 272.0724
  A 102.46 102.29 97.9 0 0 554.0108 359.5008
  A 102.46 102.29 97.9 0 0 641.2474 475.0476"
/>
<path stroke="#6b3737" d="
  M 644.1436 464.0417
  A 91.07 90.12 97.1 0 0 744.8290 384.8090
  A 91.07 90.12 97.1 0 0 666.6564 283.2983
  A 91.07 90.12 97.1 0 0 565.9710 362.5310
  A 91.07 90.12 97.1 0 0 644.1436 464.0417"
/>
<path stroke="#e3a474" d="
  M 654.53 307.29
  Q 652.67 308.36 651.27 310.54
  Q 642.37 324.33 633.60 340.08
  Q 617.86 368.35 608.02 387.53
  Q 604.76 393.88 602.34 400.57
  C 601.50 402.90 599.88 409.83 601.63 411.94
  A 2.57 2.36 -35.3 0 0 604.85 412.35
  C 610.23 409.00 613.45 403.61 616.76 397.51
  C 630.57 372.00 644.01 347.44 656.13 319.63
  Q 657.15 317.29 658.26 313.04
  Q 659.28 309.13 655.95 307.28
  A 1.47 1.46 -45.2 0 0 654.53 307.29"
/>
<path stroke="#e3a474" d="
  M 592.61 372.56
  C 596.47 374.96 602.32 367.29 603.78 364.49
  C 615.92 341.23 620.36 333.79 627.50 316.47
  Q 629.40 311.85 626.00 308.60
  A 3.31 3.30 -37.4 0 0 622.14 308.09
  C 619.46 309.54 616.78 314.18 615.19 316.68
  Q 605.96 331.19 598.35 345.08
  Q 592.91 355.04 590.72 360.96
  C 589.44 364.42 588.90 370.26 592.61 372.56"
/>
<path stroke="#e3a474" d="
  M 642.6894 390.0653
  A 14.24 4.85 115.1 0 0 653.1220 379.2274
  A 14.24 4.85 115.1 0 0 654.7706 364.2747
  A 14.24 4.85 115.1 0 0 644.3380 375.1126
  A 14.24 4.85 115.1 0 0 642.6894 390.0653"
/>
<path stroke="#e3a474" d="
  M 110.3413 367.4321
  A 2.41 2.41 0.0 0 0 108.3092 364.6959
  L 88.3853 361.7538
  A 2.41 2.41 0.0 0 0 85.6491 363.7858
  L 83.4987 378.3479
  A 2.41 2.41 0.0 0 0 85.5308 381.0841
  L 105.4547 384.0262
  A 2.41 2.41 0.0 0 0 108.1909 381.9942
  L 110.3413 367.4321"
/>
<path stroke="#e3a474" d="
  M 139.62 386.93
  A 2.05 2.05 0.0 0 0 141.31 389.20
  L 159.19 392.29
  A 2.05 2.05 0.0 0 0 161.58 390.48
  L 163.22 374.49
  A 2.05 2.05 0.0 0 0 161.53 372.26
  L 143.98 369.23
  A 2.05 2.05 0.0 0 0 141.60 370.99
  L 139.62 386.93"
/>
<path stroke="#e3a474" d="
  M 192.64 394.49
  A 1.99 1.99 0.0 0 0 194.36 396.71
  L 213.94 399.13
  A 1.99 1.99 0.0 0 0 216.16 397.41
  L 218.11 381.61
  A 1.99 1.99 0.0 0 0 216.39 379.39
  L 196.81 376.97
  A 1.99 1.99 0.0 0 0 194.59 378.69
  L 192.64 394.49"
/>
<path stroke="#6b3737" d="
  M 349.71 426.93
  A 1.67 1.67 0.0 0 0 350.90 424.92
  L 342.11 388.97
  A 1.67 1.67 0.0 0 0 340.05 387.75
  L 307.79 396.39
  A 1.67 1.67 0.0 0 0 306.60 398.40
  L 315.39 434.35
  A 1.67 1.67 0.0 0 0 317.45 435.57
  L 349.71 426.93"
/>
<path stroke="#e3a474" d="
  M 76.73 433.74
  A 1.87 1.87 0.0 0 0 78.27 435.81
  L 97.75 439.18
  A 1.87 1.87 0.0 0 0 99.92 437.56
  L 102.05 420.43
  A 1.87 1.87 0.0 0 0 100.51 418.36
  L 81.03 414.99
  A 1.87 1.87 0.0 0 0 78.86 416.61
  L 76.73 433.74"
/>
<path stroke="#e3a474" d="
  M 131.81 441.91
  A 1.73 1.73 0.0 0 0 133.24 443.83
  L 152.77 447.20
  A 1.73 1.73 0.0 0 0 154.78 445.71
  L 156.99 427.95
  A 1.73 1.73 0.0 0 0 155.57 426.03
  L 136.03 422.65
  A 1.73 1.73 0.0 0 0 134.02 424.14
  L 131.81 441.91"
/>
<path stroke="#e3a474" d="
  M 186.33 448.85
  A 1.77 1.77 0.0 0 0 187.78 450.81
  L 206.31 454.01
  A 1.77 1.77 0.0 0 0 208.37 452.49
  L 210.46 435.58
  A 1.77 1.77 0.0 0 0 209.01 433.62
  L 190.48 430.43
  A 1.77 1.77 0.0 0 0 188.42 431.95
  L 186.33 448.85"
/>
<path stroke="#e3a474" d="
  M 69.37 490.21
  A 2.24 2.24 0.0 0 0 71.14 492.68
  L 89.26 496.44
  A 2.24 2.24 0.0 0 0 91.94 494.52
  L 94.16 476.67
  A 2.24 2.24 0.0 0 0 92.31 474.19
  L 74.11 471.05
  A 2.24 2.24 0.0 0 0 71.51 472.98
  L 69.37 490.21"
/>
<path stroke="#6b3737" d="
  M 363.5264 476.6231
  A 0.97 0.97 0.0 0 0 362.3580 475.9043
  L 327.7661 484.1453
  A 0.97 0.97 0.0 0 0 327.0473 485.3136
  L 336.5536 525.2169
  A 0.97 0.97 0.0 0 0 337.7220 525.9357
  L 372.3139 517.6947
  A 0.97 0.97 0.0 0 0 373.0327 516.5264
  L 363.5264 476.6231"
/>
<path stroke="#e3a474" d="
  M 148.46 484.07
  A 2.10 2.10 0.0 0 0 146.73 481.79
  L 128.45 478.63
  A 2.10 2.10 0.0 0 0 126.00 480.49
  L 124.10 498.94
  A 2.10 2.10 0.0 0 0 125.83 501.22
  L 144.11 504.38
  A 2.10 2.10 0.0 0 0 146.55 502.52
  L 148.46 484.07"
/>
<path stroke="#e3a474" d="
  M 203.23 491.30
  A 1.95 1.95 0.0 0 0 201.62 489.18
  L 182.31 485.85
  A 1.95 1.95 0.0 0 0 180.04 487.57
  L 178.15 505.82
  A 1.95 1.95 0.0 0 0 179.76 507.94
  L 199.07 511.27
  A 1.95 1.95 0.0 0 0 201.34 509.55
  L 203.23 491.30"
/>
<path stroke="#6b3737" d="
  M 347.66 505.46
  A 1.21 1.21 0.0 0 1 345.55 505.39
  C 344.47 503.27 343.34 500.55 340.88 500.67
  C 339.10 500.76 338.66 503.26 338.56 504.76
  Q 338.20 510.57 341.90 514.07
  A 3.00 3.00 0.0 0 0 345.13 514.64
  C 352.60 511.46 358.91 502.09 362.51 494.87
  C 363.76 492.39 364.07 489.64 363.34 487.11
  A 1.40 1.11 73.3 0 0 361.86 486.08
  C 359.84 486.72 357.02 490.73 355.99 492.24
  Q 353.06 496.52 347.66 505.46"
/>
<path stroke="#807786" d="
  M 260.4472 577.0390
  A 5.09 5.09 0.0 0 0 253.2937 576.2366
  L 160.0583 650.6655
  A 5.09 5.09 0.0 0 0 159.2559 657.8190
  L 159.5928 658.2410
  A 5.09 5.09 0.0 0 0 166.7463 659.0434
  L 259.9817 584.6145
  A 5.09 5.09 0.0 0 0 260.7841 577.4610
  L 260.4472 577.0390"
/>
<path stroke="#807786" d="
  M 191.7977 578.9881
  A 5.16 5.16 0.0 0 0 184.5502 578.1367
  L 146.3002 608.3447
  A 5.16 5.16 0.0 0 0 145.4488 615.5922
  L 145.6223 615.8119
  A 5.16 5.16 0.0 0 0 152.8698 616.6633
  L 191.1198 586.4553
  A 5.16 5.16 0.0 0 0 191.9712 579.2078
  L 191.7977 578.9881"
/>
<path stroke="#807786" d="
  M 204.0063 670.9288
  A 5.01 5.01 0.0 0 0 196.9625 670.1636
  L 176.6685 686.4804
  A 5.01 5.01 0.0 0 0 175.9033 693.5241
  L 176.0537 693.7112
  A 5.01 5.01 0.0 0 0 183.0975 694.4764
  L 203.3915 678.1596
  A 5.01 5.01 0.0 0 0 204.1567 671.1159
  L 204.0063 670.9288"
/>
<path stroke="#807786" d="
  M 278.8298 704.6496
  A 5.02 5.02 0.0 0 0 271.7707 703.8952
  L 227.3641 739.7267
  A 5.02 5.02 0.0 0 0 226.6097 746.7859
  L 226.7102 746.9104
  A 5.02 5.02 0.0 0 0 233.7693 747.6648
  L 278.1759 711.8333
  A 5.02 5.02 0.0 0 0 278.9303 704.7741
  L 278.8298 704.6496"
/>
<path stroke="#807786" d="
  M 297.8822 780.8473
  A 5.11 5.11 0.0 0 0 290.6926 780.1170
  L 273.6438 794.0216
  A 5.11 5.11 0.0 0 0 272.9135 801.2112
  L 273.0778 801.4127
  A 5.11 5.11 0.0 0 0 280.2674 802.1430
  L 297.3162 788.2384
  A 5.11 5.11 0.0 0 0 298.0465 781.0488
  L 297.8822 780.8473"
/>
</g>
<g>
<path fill="#080a49" d="
  M 830.53 436.40
  Q 826.41 433.95 823.25 433.00
  Q 818.93 431.69 815.81 430.04
  Q 790.65 310.55 752.87 194.55
  Q 735.26 140.46 713.70 90.00
  Q 711.46 84.75 709.07 79.64
  A 2.65 2.64 -16.6 0 0 706.31 78.15
  L 669.64 83.44
  A 0.94 0.94 0.0 0 0 668.89 84.70
  Q 691.49 144.65 710.99 211.09
  Q 718.27 235.87 725.59 260.47
  Q 725.93 261.59 726.02 263.36
  Q 719.44 259.63 712.90 256.63
  Q 712.19 256.30 711.82 254.93
  Q 709.51 248.86 708.77 246.23
  Q 692.22 187.66 672.36 130.53
  C 668.20 118.57 662.47 103.43 658.10 91.89
  Q 653.82 80.56 644.86 60.43
  Q 643.84 58.13 641.81 55.14
  A 1.93 1.92 74.7 0 0 640.34 54.30
  Q 639.27 54.24 636.49 54.72
  Q 565.11 67.18 495.14 84.92
  Q 392.24 111.00 290.79 142.35
  C 270.16 148.73 240.95 158.79 226.02 164.03
  Q 214.62 168.03 192.92 176.11
  Q 190.71 176.93 191.34 179.13
  C 198.84 205.18 206.79 234.96 214.10 265.35
  Q 240.16 373.73 252.85 426.64
  Q 258.26 449.20 264.70 477.80
  Q 279.26 542.51 295.62 610.38
  Q 306.91 657.21 321.72 708.03
  Q 327.92 729.29 336.77 754.24
  Q 346.04 780.42 356.87 801.39
  Q 358.45 804.44 360.33 806.46
  A 1.71 1.70 -28.1 0 0 361.99 806.96
  Q 370.03 805.03 401.93 797.39
  Q 418.23 793.49 474.17 777.88
  Q 479.51 776.39 493.80 771.97
  C 509.88 767.01 524.93 762.76 542.84 757.07
  Q 638.64 726.69 731.13 690.14
  Q 765.19 676.69 796.02 664.06
  A 1.94 1.93 -16.9 0 0 797.19 661.88
  C 796.44 658.14 796.17 654.01 795.65 650.75
  Q 785.77 589.03 771.67 522.46
  Q 764.97 490.78 758.13 458.85
  Q 758.06 457.34 760.05 459.69
  A 3.88 3.71 85.6 0 0 760.82 460.38
  L 772.55 468.02
  Q 777.35 490.25 781.71 511.35
  Q 791.01 556.34 796.49 585.49
  Q 802.74 618.73 807.62 649.87
  Q 808.43 655.02 809.42 663.85
  C 809.89 668.06 808.43 670.91 804.87 672.65
  Q 800.23 674.93 791.55 678.56
  Q 669.06 729.79 549.48 767.46
  Q 480.66 789.14 411.37 807.87
  A 1.11 1.11 0.0 0 0 410.63 809.37
  L 422.15 837.07
  A 1.98 1.97 75.9 0 0 424.16 838.28
  Q 425.48 838.16 427.14 837.83
  Q 435.09 836.25 451.79 831.24
  Q 476.53 823.83 503.30 815.79
  Q 530.60 807.59 573.49 793.23
  C 671.48 760.44 768.03 723.93 862.43 682.41
  Q 864.90 681.32 865.61 680.79
  A 1.76 1.68 81.8 0 0 866.18 679.99
  Q 866.41 679.32 866.04 676.48
  Q 854.79 592.21 835.05 515.25
  C 834.66 513.71 834.34 511.10 833.89 509.12
  A 4.24 4.23 -79.8 0 0 832.11 506.55
  Q 808.71 491.01 786.61 474.61
  C 788.38 468.78 792.47 465.37 795.27 460.72
  Q 802.42 448.88 804.64 445.50
  A 2.93 2.92 -54.0 0 1 808.91 444.82
  L 809.04 444.92
  A 4.19 4.18 -59.3 0 1 810.29 449.84
  Q 806.21 459.51 801.60 467.32
  Q 800.29 469.54 801.88 471.11
  C 808.08 477.23 815.07 481.67 823.02 487.21
  Q 827.18 490.11 833.63 494.24
  C 853.12 506.72 872.88 519.40 893.86 531.40
  Q 911.33 541.40 924.33 547.43
  C 942.39 555.80 965.62 565.57 984.95 555.83
  A 4.02 4.01 47.8 0 1 988.92 556.03
  L 993.56 558.98
  Q 992.12 563.01 989.09 565.15
  Q 987.55 566.24 982.04 568.36
  C 962.78 575.76 940.05 567.18 922.68 558.91
  Q 894.77 545.61 860.95 524.61
  Q 855.33 521.11 851.64 518.30
  A 0.89 0.89 0.0 0 0 850.29 518.63
  Q 849.86 519.54 850.17 520.80
  Q 858.63 555.37 863.74 580.76
  C 866.38 593.88 871.27 618.98 874.08 638.01
  Q 878.24 666.29 879.70 680.49
  C 880.43 687.58 874.53 691.19 869.08 693.61
  Q 846.52 703.63 841.36 705.83
  Q 793.31 726.29 762.34 738.29
  Q 704.81 760.58 692.94 764.90
  Q 638.98 784.55 628.56 788.06
  Q 614.82 792.69 593.41 800.08
  Q 577.80 805.47 570.20 807.86
  C 551.80 813.65 536.07 819.36 519.42 824.11
  Q 519.34 824.13 491.82 832.51
  Q 464.96 840.69 446.69 845.92
  Q 429.80 850.74 423.06 851.76
  C 413.43 853.21 410.15 841.26 407.31 834.11
  Q 404.75 827.66 397.87 811.71
  A 0.95 0.95 0.0 0 0 396.72 811.17
  Q 382.21 815.60 366.16 818.62
  C 360.05 819.77 353.33 819.86 349.87 813.88
  Q 347.21 809.27 344.64 804.03
  A 1.10 1.10 0.0 0 0 342.88 803.73
  Q 316.10 830.56 286.07 855.07
  C 277.21 862.31 272.34 859.79 265.50 852.13
  Q 243.17 827.14 194.89 774.12
  Q 159.17 734.89 131.27 705.81
  Q 128.08 702.49 123.29 697.54
  Q 107.82 681.55 86.23 659.67
  Q 81.46 654.84 75.56 648.54
  C 70.47 643.11 65.16 638.23 61.10 632.15
  C 57.06 626.11 62.66 620.37 67.04 616.03
  Q 75.64 607.50 84.86 600.57
  A 1.98 1.98 0.0 0 0 85.18 597.71
  Q 80.93 592.69 78.62 587.98
  C 76.86 584.38 78.81 581.35 81.95 578.70
  Q 84.40 576.63 89.48 572.45
  Q 103.76 560.71 119.11 548.64
  L 135.52 550.82
  Q 133.37 552.38 131.54 553.81
  Q 110.40 570.28 93.72 585.04
  A 1.72 1.71 49.8 0 0 93.53 587.40
  Q 105.94 602.71 113.82 613.17
  Q 125.70 628.94 129.92 635.97
  Q 135.13 644.64 136.00 646.43
  C 139.32 653.30 131.34 657.08 125.72 656.79
  C 112.24 656.09 97.14 645.81 88.64 635.46
  C 86.61 632.99 82.89 627.62 86.59 625.43
  C 88.90 624.05 92.01 625.77 93.80 627.58
  C 102.10 635.95 110.27 642.54 121.97 645.14
  A 0.61 0.61 0.0 0 0 122.71 644.45
  Q 122.61 643.85 122.19 643.26
  Q 114.14 632.11 95.89 609.01
  A 1.16 1.15 49.6 0 0 94.21 608.87
  L 74.61 626.48
  A 2.33 2.32 -37.9 0 0 74.23 629.50
  Q 76.91 633.50 80.38 636.91
  C 92.45 648.78 103.90 661.13 114.58 671.97
  Q 116.63 674.06 136.82 694.51
  C 141.77 699.53 146.60 705.16 151.71 710.25
  Q 155.24 713.76 163.00 722.20
  C 173.69 733.81 184.41 744.88 194.31 755.70
  Q 253.14 820.01 262.60 829.99
  Q 271.05 838.90 276.94 844.60
  A 1.52 1.51 -41.7 0 0 278.92 844.71
  Q 284.91 840.15 294.31 832.05
  Q 316.95 812.51 337.37 791.10
  A 1.43 1.42 56.3 0 0 337.67 789.58
  Q 317.49 738.65 303.19 685.81
  Q 286.59 624.46 272.02 562.73
  L 268.93 550.16
  L 263.86 529.11
  L 253.24 482.87
  L 250.47 470.16
  L 247.77 460.30
  L 243.41 441.62
  Q 242.55 434.22 239.86 426.62
  L 228.18 377.81
  Q 228.24 374.64 226.49 370.53
  L 220.62 346.96
  A 1.38 1.38 0.0 0 0 219.21 345.91
  C 216.15 346.10 212.88 345.43 210.32 345.16
  Q 194.57 343.51 186.98 342.50
  Q 168.63 340.06 154.78 338.30
  Q 125.07 334.51 91.76 330.34
  Q 85.72 329.58 82.42 324.82
  C 80.71 322.36 80.82 316.81 81.21 314.50
  Q 85.48 289.31 87.81 276.02
  C 88.91 269.81 89.95 263.57 96.89 262.40
  Q 101.31 261.65 105.53 262.19
  C 116.09 263.53 127.93 264.16 138.17 265.35
  Q 165.13 268.48 201.93 272.46
  A 0.51 0.51 0.0 0 0 202.48 271.83
  L 196.65 248.94
  Q 196.12 241.66 193.34 235.66
  Q 193.21 235.37 192.73 235.40
  Q 192.99 235.22 192.88 235.07
  Q 192.81 234.97 192.80 234.94
  Q 186.03 209.90 178.29 180.96
  Q 176.74 175.15 177.40 172.46
  Q 178.46 168.21 183.11 166.32
  Q 200.55 159.20 228.18 149.74
  Q 264.37 137.36 294.45 127.72
  C 313.45 121.63 344.43 112.07 370.05 104.93
  Q 430.44 88.09 444.82 84.36
  Q 453.52 82.10 461.04 80.10
  C 476.44 76.00 488.39 73.27 506.07 68.90
  Q 555.68 56.64 616.02 45.11
  Q 631.97 42.06 637.68 41.31
  C 640.66 40.91 646.29 40.09 648.85 42.18
  Q 650.93 43.88 652.96 47.83
  Q 657.79 57.24 663.16 69.92
  A 2.15 2.14 73.8 0 0 665.46 71.19
  C 681.09 68.67 695.01 66.22 709.66 64.63
  C 715.40 64.01 717.49 66.89 720.14 72.15
  Q 723.24 78.30 726.99 87.23
  Q 751.40 145.31 771.10 207.64
  Q 778.92 232.40 787.25 260.24
  Q 790.49 271.07 792.63 279.24
  C 794.43 286.10 797.29 295.48 799.66 304.63
  Q 805.98 329.06 811.85 352.58
  Q 822.07 393.49 830.53 436.40
  Z
  M 92.48 317.14
  A 1.61 1.61 0.0 0 0 93.87 319.01
  L 215.95 334.17
  A 1.61 1.61 0.0 0 0 217.72 332.19
  L 206.23 285.24
  A 1.61 1.61 0.0 0 0 204.83 284.02
  L 101.57 273.35
  A 1.61 1.61 0.0 0 0 99.81 274.68
  L 92.48 317.14
  Z"
/>
<path fill="#f7e4c3" d="
  M 711.82 254.93
  Q 711.33 255.31 710.86 255.10
  C 689.45 245.32 666.28 241.38 642.51 243.13
  C 623.98 244.50 607.71 250.31 591.03 259.79
  C 559.38 277.78 537.50 308.36 529.07 343.77
  Q 524.61 362.53 525.34 377.74
  Q 528.17 436.39 573.20 474.09
  C 597.05 494.05 628.55 504.52 659.38 504.11
  A 0.81 0.81 0.0 0 1 660.11 504.57
  L 660.33 505.03
  Q 642.17 525.28 623.50 544.27
  C 620.42 547.39 618.06 546.18 614.28 544.72
  Q 602.24 540.09 574.77 529.21
  C 571.00 527.72 566.96 526.95 564.45 530.22
  Q 541.85 559.64 530.73 573.82
  A 0.67 0.67 0.0 0 1 529.76 573.91
  Q 522.92 567.85 514.42 561.40
  C 509.32 557.53 501.95 551.35 497.62 547.85
  C 493.61 544.60 489.40 543.19 486.06 547.79
  Q 437.80 614.33 429.58 625.09
  Q 427.72 627.53 424.56 626.27
  Q 415.73 622.76 407.51 619.49
  Q 404.02 618.10 401.49 621.01
  Q 387.01 637.66 369.71 656.96
  Q 368.73 658.06 367.48 659.04
  A 0.64 0.64 0.0 0 1 366.47 658.70
  Q 356.60 620.85 347.70 581.76
  C 346.66 577.17 346.33 573.88 341.50 573.37
  C 337.09 572.90 335.26 577.77 336.12 581.53
  Q 352.72 654.75 372.38 724.42
  Q 374.40 731.59 375.64 735.13
  C 377.54 740.58 384.06 739.12 388.16 737.95
  Q 405.20 733.10 450.17 720.38
  Q 472.11 714.17 547.54 691.99
  Q 641.48 664.35 731.23 634.21
  Q 736.52 632.43 735.99 628.44
  C 735.40 623.95 731.62 622.06 727.31 623.51
  C 674.13 641.36 612.11 660.88 545.11 680.58
  Q 521.30 687.58 519.01 688.26
  Q 452.44 708.16 386.03 726.39
  A 0.97 0.96 -15.2 0 1 384.84 725.71
  L 378.70 702.79
  A 1.00 0.98 65.6 0 1 379.09 701.72
  Q 394.67 691.01 411.67 677.96
  C 413.29 676.72 414.57 676.42 416.51 676.76
  Q 432.24 679.55 433.75 679.75
  Q 437.74 680.28 439.75 680.11
  A 6.23 6.22 -65.2 0 0 442.79 678.99
  Q 446.40 676.40 449.73 673.47
  Q 473.62 652.41 499.06 630.64
  C 501.36 628.68 502.39 628.44 505.19 629.32
  Q 525.40 635.62 539.27 639.70
  C 541.99 640.50 544.16 639.92 546.47 638.01
  C 561.21 625.86 575.58 612.94 590.56 599.61
  A 2.79 2.78 33.7 0 1 593.33 599.06
  Q 613.60 606.18 633.20 612.33
  C 639.42 614.28 643.36 615.26 648.72 610.73
  Q 680.81 583.61 708.15 559.15
  Q 712.05 555.67 714.36 552.85
  C 718.22 548.18 712.40 541.86 707.35 545.32
  Q 704.57 547.22 701.11 550.35
  Q 695.91 555.07 666.69 580.43
  Q 651.42 593.69 642.21 601.23
  A 2.52 2.51 34.0 0 1 639.86 601.68
  Q 610.19 592.39 592.19 586.83
  C 588.52 585.70 584.23 589.86 581.80 592.06
  Q 565.07 607.12 544.44 625.25
  C 542.78 626.71 540.89 627.81 538.86 627.17
  Q 535.37 626.07 505.74 617.53
  C 500.75 616.10 498.22 615.54 494.44 619.20
  Q 491.39 622.15 488.18 624.94
  Q 460.98 648.61 441.48 666.50
  Q 439.08 668.71 435.24 668.11
  Q 425.72 666.60 418.76 665.09
  Q 412.33 663.70 406.59 668.01
  Q 376.16 690.84 375.84 691.08
  A 0.53 0.52 -26.6 0 1 375.02 690.81
  L 370.28 674.66
  A 2.25 2.24 58.0 0 1 370.76 672.55
  L 406.37 632.59
  A 1.90 1.89 -56.1 0 1 408.62 632.14
  Q 417.81 636.60 424.80 639.64
  C 428.77 641.37 431.53 641.05 434.17 637.89
  Q 438.23 633.03 441.75 628.25
  Q 465.11 596.59 491.77 560.07
  A 1.32 1.32 0.0 0 1 493.67 559.82
  Q 504.02 568.23 523.60 583.74
  C 528.63 587.73 532.61 590.25 537.30 584.28
  Q 553.94 563.08 567.77 544.77
  Q 567.82 544.70 570.57 541.60
  A 1.84 1.83 -58.0 0 1 572.62 541.12
  Q 603.19 553.42 615.82 558.19
  C 620.29 559.88 623.94 561.46 627.83 557.33
  Q 659.33 523.88 679.13 502.21
  Q 684.69 500.66 690.48 499.16
  C 704.54 495.52 718.16 488.95 729.48 480.69
  C 739.86 473.12 747.56 466.85 753.90 458.40
  Q 754.84 457.16 756.55 455.84
  A 0.68 0.68 0.0 0 1 757.63 456.26
  L 758.13 458.85
  Q 764.97 490.78 771.67 522.46
  Q 785.77 589.03 795.65 650.75
  C 796.17 654.01 796.44 658.14 797.19 661.88
  A 1.94 1.93 -16.9 0 1 796.02 664.06
  Q 765.19 676.69 731.13 690.14
  Q 638.64 726.69 542.84 757.07
  C 524.93 762.76 509.88 767.01 493.80 771.97
  Q 479.51 776.39 474.17 777.88
  Q 418.23 793.49 401.93 797.39
  Q 370.03 805.03 361.99 806.96
  A 1.71 1.70 -28.1 0 1 360.33 806.46
  Q 358.45 804.44 356.87 801.39
  Q 346.04 780.42 336.77 754.24
  Q 327.92 729.29 321.72 708.03
  Q 306.91 657.21 295.62 610.38
  Q 279.26 542.51 264.70 477.80
  Q 258.26 449.20 252.85 426.64
  Q 240.16 373.73 214.10 265.35
  C 206.79 234.96 198.84 205.18 191.34 179.13
  Q 190.71 176.93 192.92 176.11
  Q 214.62 168.03 226.02 164.03
  C 240.95 158.79 270.16 148.73 290.79 142.35
  Q 392.24 111.00 495.14 84.92
  Q 565.11 67.18 636.49 54.72
  Q 639.27 54.24 640.34 54.30
  A 1.93 1.92 74.7 0 1 641.81 55.14
  Q 643.84 58.13 644.86 60.43
  Q 653.82 80.56 658.10 91.89
  C 662.47 103.43 668.20 118.57 672.36 130.53
  Q 692.22 187.66 708.77 246.23
  Q 709.51 248.86 711.82 254.93
  Z
  M 418.94 166.77
  C 419.93 173.35 426.09 171.74 430.88 170.36
  Q 450.31 164.81 519.02 146.00
  Q 538.50 140.67 559.07 135.44
  Q 593.25 126.73 599.14 124.98
  Q 602.09 124.11 602.77 123.24
  Q 605.60 119.63 603.14 116.63
  Q 600.13 112.98 594.61 114.37
  Q 510.16 135.78 426.51 159.66
  C 422.30 160.85 418.19 161.78 418.94 166.77
  Z
  M 428.32 197.42
  C 429.37 204.06 435.57 202.38 440.40 200.95
  Q 459.96 195.19 529.16 175.65
  Q 548.78 170.12 569.50 164.67
  Q 603.93 155.61 609.86 153.80
  Q 612.83 152.89 613.51 152.01
  Q 616.34 148.34 613.83 145.33
  Q 610.77 141.67 605.21 143.12
  Q 520.14 165.41 435.90 190.18
  C 431.66 191.42 427.52 192.39 428.32 197.42
  Z
  M 627.0837 176.2586
  A 5.72 5.72 0.0 0 0 620.0018 172.3492
  L 440.1247 224.2681
  A 5.72 5.72 0.0 0 0 436.2153 231.3500
  L 436.2763 231.5614
  A 5.72 5.72 0.0 0 0 443.3582 235.4708
  L 623.2353 183.5519
  A 5.72 5.72 0.0 0 0 627.1447 176.4700
  L 627.0837 176.2586
  Z
  M 407.36 239.87
  C 404.53 227.80 400.20 217.31 392.43 207.59
  Q 375.48 186.39 348.72 179.33
  Q 339.90 177.01 329.51 177.00
  Q 321.70 176.99 319.26 177.29
  Q 305.96 178.89 292.58 185.51
  Q 268.20 197.59 256.55 222.75
  Q 247.51 242.26 249.33 264.56
  Q 251.70 293.66 272.23 313.86
  Q 288.30 329.67 307.51 335.00
  Q 324.31 339.65 341.25 337.13
  C 360.76 334.22 379.41 323.70 391.40 307.69
  Q 410.55 282.10 408.85 250.35
  Q 408.56 244.99 407.36 239.87
  Z
  M 538.8982 235.2541
  A 5.77 5.77 0.0 0 0 531.7822 231.2608
  L 449.3372 254.4350
  A 5.77 5.77 0.0 0 0 445.3439 261.5511
  L 445.3818 261.6859
  A 5.77 5.77 0.0 0 0 452.4978 265.6792
  L 534.9428 242.5050
  A 5.77 5.77 0.0 0 0 538.9361 235.3889
  L 538.8982 235.2541
  Z
  M 452.8129 361.5465
  A 5.54 5.54 0.0 0 0 446.0347 357.6173
  L 377.5186 375.8480
  A 5.54 5.54 0.0 0 0 373.5894 382.6263
  L 373.6871 382.9935
  A 5.54 5.54 0.0 0 0 380.4653 386.9227
  L 448.9814 368.6920
  A 5.54 5.54 0.0 0 0 452.9106 361.9137
  L 452.8129 361.5465
  Z
  M 300.19 387.22
  A 7.74 7.74 0.0 0 0 294.67 396.54
  L 305.86 442.30
  A 7.74 7.74 0.0 0 0 315.38 447.93
  L 357.82 436.57
  A 7.74 7.74 0.0 0 0 363.33 427.25
  L 352.15 381.50
  A 7.74 7.74 0.0 0 0 342.63 375.86
  L 300.19 387.22
  Z
  M 439.2337 395.8057
  A 5.59 5.59 0.0 0 0 432.3396 391.9369
  L 385.3410 405.1476
  A 5.59 5.59 0.0 0 0 381.4722 412.0417
  L 381.5263 412.2343
  A 5.59 5.59 0.0 0 0 388.4204 416.1031
  L 435.4190 402.8924
  A 5.59 5.59 0.0 0 0 439.2878 395.9983
  L 439.2337 395.8057
  Z
  M 515.7247 440.5717
  A 5.75 5.75 0.0 0 0 508.6333 436.5922
  L 400.0224 467.1213
  A 5.75 5.75 0.0 0 0 396.0428 474.2128
  L 396.0753 474.3283
  A 5.75 5.75 0.0 0 0 403.1667 478.3078
  L 511.7776 447.7787
  A 5.75 5.75 0.0 0 0 515.7572 440.6872
  L 515.7247 440.5717
  Z
  M 320.79 475.02
  A 7.89 7.89 0.0 0 0 315.16 484.52
  L 326.74 531.87
  A 7.89 7.89 0.0 0 0 336.27 537.66
  L 378.84 527.25
  A 7.89 7.89 0.0 0 0 384.66 517.82
  L 373.53 469.36
  A 7.89 7.89 0.0 0 0 363.80 463.51
  L 320.79 475.02
  Z
  M 482.6495 481.7595
  A 5.79 5.79 0.0 0 0 475.4948 477.7772
  L 407.2689 497.2119
  A 5.79 5.79 0.0 0 0 403.2866 504.3666
  L 403.3305 504.5205
  A 5.79 5.79 0.0 0 0 410.4852 508.5028
  L 478.7111 489.0681
  A 5.79 5.79 0.0 0 0 482.6934 481.9134
  L 482.6495 481.7595
  Z"
/>
<path fill="#f7e4c3" d="
  M 815.81 430.04
  Q 812.34 430.09 809.71 428.03
  Q 802.94 422.74 800.37 421.37
  Q 790.65 416.22 780.35 411.79
  A 1.27 1.27 0.0 0 1 779.63 410.28
  C 783.44 396.72 785.69 381.95 784.92 367.74
  Q 783.17 335.05 767.36 307.15
  Q 752.69 281.28 727.29 265.14
  A 2.13 2.04 3.0 0 1 726.55 264.35
  L 726.02 263.36
  Q 725.93 261.59 725.59 260.47
  Q 718.27 235.87 710.99 211.09
  Q 691.49 144.65 668.89 84.70
  A 0.94 0.94 0.0 0 1 669.64 83.44
  L 706.31 78.15
  A 2.65 2.64 -16.6 0 1 709.07 79.64
  Q 711.46 84.75 713.70 90.00
  Q 735.26 140.46 752.87 194.55
  Q 790.65 310.55 815.81 430.04
  Z"
/>
<path fill="#ce6425" d="
  M 192.73 235.40
  Q 193.21 235.37 193.34 235.66
  Q 196.12 241.66 196.65 248.94
  Q 193.81 249.22 193.00 249.14
  Q 127.56 243.01 119.47 242.40
  C 106.63 241.41 101.63 241.07 91.45 241.09
  C 85.35 241.11 81.92 242.67 80.08 248.38
  Q 75.62 262.21 72.22 277.96
  Q 62.39 323.56 56.07 376.00
  Q 50.29 424.04 46.63 467.51
  Q 44.56 492.04 44.10 505.51
  Q 43.89 511.55 44.57 513.49
  C 47.23 521.16 56.86 523.30 64.23 524.80
  Q 109.70 534.01 154.68 539.56
  Q 158.76 540.07 183.76 543.40
  Q 199.33 545.47 212.89 546.57
  Q 240.93 548.85 268.93 550.16
  L 272.02 562.73
  C 261.87 563.42 253.81 562.54 244.85 562.10
  Q 235.01 561.61 234.18 561.55
  Q 198.83 558.70 171.00 555.52
  Q 155.44 553.74 135.52 550.82
  L 119.11 548.64
  Q 115.97 548.19 113.23 547.59
  Q 109.14 546.69 107.39 546.43
  Q 89.45 543.67 71.54 540.44
  Q 57.23 537.87 44.97 533.57
  C 39.83 531.77 34.60 527.58 32.23 522.25
  Q 31.00 519.47 30.94 513.74
  Q 30.84 503.49 31.16 497.50
  Q 32.75 467.42 36.16 435.01
  Q 39.07 407.39 43.64 368.62
  Q 45.78 350.49 51.65 313.50
  Q 52.72 306.73 54.90 295.93
  C 58.21 279.46 61.42 263.29 65.60 247.38
  C 68.28 237.18 73.85 229.61 85.00 227.98
  Q 89.87 227.27 96.75 227.43
  Q 110.42 227.77 119.49 228.55
  Q 140.30 230.35 163.49 232.48
  Q 178.55 233.87 189.99 235.58
  Q 191.40 235.79 192.73 235.40
  Z"
/>
<path fill="#f7e4c3" d="
  M 196.65 248.94
  L 202.48 271.83
  A 0.51 0.51 0.0 0 1 201.93 272.46
  Q 165.13 268.48 138.17 265.35
  C 127.93 264.16 116.09 263.53 105.53 262.19
  Q 101.31 261.65 96.89 262.40
  C 89.95 263.57 88.91 269.81 87.81 276.02
  Q 85.48 289.31 81.21 314.50
  C 80.82 316.81 80.71 322.36 82.42 324.82
  Q 85.72 329.58 91.76 330.34
  Q 125.07 334.51 154.78 338.30
  Q 168.63 340.06 186.98 342.50
  Q 194.57 343.51 210.32 345.16
  C 212.88 345.43 216.15 346.10 219.21 345.91
  A 1.38 1.38 0.0 0 1 220.62 346.96
  L 226.49 370.53
  Q 224.52 370.22 222.54 369.51
  A 5.01 4.87 -29.8 0 0 221.72 369.30
  Q 209.80 367.47 195.23 365.54
  Q 190.89 364.97 188.87 366.09
  Q 185.64 367.86 184.80 372.57
  Q 182.68 384.49 182.65 397.25
  Q 182.63 405.36 190.72 406.77
  Q 208.31 409.85 213.25 410.01
  C 217.32 410.14 221.20 410.25 223.36 407.32
  Q 225.13 404.93 225.60 400.74
  Q 226.81 389.76 228.18 377.81
  L 239.86 426.62
  Q 234.26 428.01 233.30 433.26
  Q 231.07 445.61 230.96 457.52
  C 230.92 462.82 231.93 467.10 236.78 468.99
  Q 242.79 471.32 250.47 470.16
  L 253.24 482.87
  Q 252.26 483.06 251.03 482.66
  C 247.13 481.39 242.60 482.17 238.45 481.37
  C 231.92 480.12 226.80 483.27 225.65 489.87
  Q 224.27 497.81 223.29 509.26
  Q 222.91 513.59 223.90 517.58
  Q 225.50 524.06 231.91 525.47
  Q 247.46 528.88 263.86 529.11
  L 268.93 550.16
  Q 240.93 548.85 212.89 546.57
  Q 199.33 545.47 183.76 543.40
  Q 158.76 540.07 154.68 539.56
  Q 109.70 534.01 64.23 524.80
  C 56.86 523.30 47.23 521.16 44.57 513.49
  Q 43.89 511.55 44.10 505.51
  Q 44.56 492.04 46.63 467.51
  Q 50.29 424.04 56.07 376.00
  Q 62.39 323.56 72.22 277.96
  Q 75.62 262.21 80.08 248.38
  C 81.92 242.67 85.35 241.11 91.45 241.09
  C 101.63 241.07 106.63 241.41 119.47 242.40
  Q 127.56 243.01 193.00 249.14
  Q 193.81 249.22 196.65 248.94
  Z
  M 112.11 353.98
  L 86.87 350.20
  A 10.15 10.15 0.0 0 0 75.33 358.74
  L 72.26 379.32
  A 11.08 10.86 8.5 0 0 81.61 391.70
  L 105.01 395.20
  A 11.08 10.86 8.5 0 0 117.57 386.10
  L 120.65 365.51
  A 10.15 10.15 0.0 0 0 112.11 353.98
  Z
  M 128.78 389.29
  A 9.57 9.57 0.0 0 0 137.10 399.97
  L 160.61 402.89
  A 9.57 9.57 0.0 0 0 171.30 394.37
  L 173.60 372.14
  A 9.57 9.57 0.0 0 0 165.71 361.73
  L 142.80 357.78
  A 9.57 9.57 0.0 0 0 131.67 366.03
  L 128.78 389.29
  Z
  M 112.5693 418.0166
  A 9.75 9.75 0.0 0 0 104.1753 407.0774
  L 79.5478 403.8351
  A 9.75 9.75 0.0 0 0 68.6086 412.2291
  L 65.4707 436.0634
  A 9.75 9.75 0.0 0 0 73.8647 447.0026
  L 98.4922 450.2449
  A 9.75 9.75 0.0 0 0 109.4314 441.8509
  L 112.5693 418.0166
  Z
  M 120.92 442.90
  A 10.50 10.50 0.0 0 0 130.05 454.61
  L 152.82 457.44
  A 10.50 10.50 0.0 0 0 164.56 448.10
  L 166.78 426.64
  A 10.50 10.50 0.0 0 0 158.12 415.21
  L 135.92 411.38
  A 10.50 10.50 0.0 0 0 123.71 420.43
  L 120.92 442.90
  Z
  M 175.93 450.65
  A 9.89 9.89 0.0 0 0 184.08 461.41
  L 207.02 465.37
  A 9.89 9.89 0.0 0 0 218.54 456.64
  L 220.92 433.53
  A 9.89 9.89 0.0 0 0 212.77 422.77
  L 189.83 418.81
  A 9.89 9.89 0.0 0 0 178.31 427.54
  L 175.93 450.65
  Z
  M 57.86 491.96
  A 10.95 10.95 0.0 0 0 66.86 504.10
  L 89.33 507.98
  A 10.95 10.95 0.0 0 0 102.06 498.54
  L 104.93 475.37
  A 10.95 10.95 0.0 0 0 95.93 463.23
  L 73.46 459.35
  A 10.95 10.95 0.0 0 0 60.73 468.79
  L 57.86 491.96
  Z
  M 144.58 515.67
  A 9.93 9.93 0.0 0 0 156.12 507.11
  L 159.26 481.89
  A 9.93 9.93 0.0 0 0 151.10 470.88
  L 127.80 466.85
  A 9.93 9.93 0.0 0 0 116.26 475.41
  L 113.12 500.64
  A 9.93 9.93 0.0 0 0 121.28 511.65
  L 144.58 515.67
  Z
  M 199.35 522.19
  A 10.62 10.62 0.0 0 0 211.22 512.75
  L 213.64 489.35
  A 10.62 10.62 0.0 0 0 204.39 477.72
  L 181.73 474.90
  A 10.62 10.62 0.0 0 0 169.86 484.35
  L 167.44 507.75
  A 10.62 10.62 0.0 0 0 176.69 519.38
  L 199.35 522.19
  Z"
/>
<path fill="#ce6425" d="
  M 711.82 254.93
  Q 712.19 256.30 712.90 256.63
  Q 719.44 259.63 726.02 263.36
  L 726.55 264.35
  A 2.13 2.04 3.0 0 0 727.29 265.14
  Q 752.69 281.28 767.36 307.15
  Q 783.17 335.05 784.92 367.74
  C 785.69 381.95 783.44 396.72 779.63 410.28
  A 1.27 1.27 0.0 0 0 780.35 411.79
  Q 790.65 416.22 800.37 421.37
  Q 802.94 422.74 809.71 428.03
  Q 812.34 430.09 815.81 430.04
  Q 818.93 431.69 823.25 433.00
  Q 826.41 433.95 830.53 436.40
  Q 890.96 462.87 949.18 495.54
  Q 951.31 496.73 964.59 505.90
  Q 977.41 514.76 987.20 526.03
  Q 992.85 532.52 995.36 541.13
  Q 998.21 550.93 993.56 558.98
  L 988.92 556.03
  A 4.02 4.01 47.8 0 0 984.95 555.83
  C 965.62 565.57 942.39 555.80 924.33 547.43
  Q 911.33 541.40 893.86 531.40
  C 872.88 519.40 853.12 506.72 833.63 494.24
  Q 827.18 490.11 823.02 487.21
  C 815.07 481.67 808.08 477.23 801.88 471.11
  Q 800.29 469.54 801.60 467.32
  Q 806.21 459.51 810.29 449.84
  A 4.19 4.18 -59.3 0 0 809.04 444.92
  L 808.91 444.82
  A 2.93 2.92 -54.0 0 0 804.64 445.50
  Q 802.42 448.88 795.27 460.72
  C 792.47 465.37 788.38 468.78 786.61 474.61
  Q 784.38 471.76 778.82 471.66
  Q 776.43 471.62 772.55 468.02
  L 760.82 460.38
  A 3.88 3.71 85.6 0 1 760.05 459.69
  Q 758.06 457.34 758.13 458.85
  L 757.63 456.26
  A 0.68 0.68 0.0 0 0 756.55 455.84
  Q 754.84 457.16 753.90 458.40
  C 747.56 466.85 739.86 473.12 729.48 480.69
  C 718.16 488.95 704.54 495.52 690.48 499.16
  Q 684.69 500.66 679.13 502.21
  L 660.33 505.03
  L 660.11 504.57
  A 0.81 0.81 0.0 0 0 659.38 504.11
  C 628.55 504.52 597.05 494.05 573.20 474.09
  Q 528.17 436.39 525.34 377.74
  Q 524.61 362.53 529.07 343.77
  C 537.50 308.36 559.38 277.78 591.03 259.79
  C 607.71 250.31 623.98 244.50 642.51 243.13
  C 666.28 241.38 689.45 245.32 710.86 255.10
  Q 711.33 255.31 711.82 254.93
  Z
  M 664.7091 490.7274
  A 117.63 116.35 85.5 0 0 771.4713 364.3313
  A 117.63 116.35 85.5 0 0 646.2509 256.1926
  A 117.63 116.35 85.5 0 0 539.4887 382.5887
  A 117.63 116.35 85.5 0 0 664.7091 490.7274
  Z
  M 775.62 423.63
  A 0.99 0.98 -67.6 0 0 774.41 424.14
  Q 768.73 436.42 764.12 444.14
  Q 762.86 446.24 765.19 448.24
  Q 773.20 455.13 782.17 460.47
  A 1.74 1.73 -56.0 0 0 784.44 460.02
  Q 792.58 449.19 798.75 436.54
  A 1.58 1.57 29.4 0 0 798.18 434.52
  Q 787.46 427.70 775.62 423.63
  Z"
/>
<path fill="#ce6425" d="
  M 226.49 370.53
  Q 228.24 374.64 228.18 377.81
  Q 226.81 389.76 225.60 400.74
  Q 225.13 404.93 223.36 407.32
  C 221.20 410.25 217.32 410.14 213.25 410.01
  Q 208.31 409.85 190.72 406.77
  Q 182.63 405.36 182.65 397.25
  Q 182.68 384.49 184.80 372.57
  Q 185.64 367.86 188.87 366.09
  Q 190.89 364.97 195.23 365.54
  Q 209.80 367.47 221.72 369.30
  A 5.01 4.87 -29.8 0 1 222.54 369.51
  Q 224.52 370.22 226.49 370.53
  Z
  M 192.64 394.49
  A 1.99 1.99 0.0 0 0 194.36 396.71
  L 213.94 399.13
  A 1.99 1.99 0.0 0 0 216.16 397.41
  L 218.11 381.61
  A 1.99 1.99 0.0 0 0 216.39 379.39
  L 196.81 376.97
  A 1.99 1.99 0.0 0 0 194.59 378.69
  L 192.64 394.49
  Z"
/>
<path fill="#ce6425" d="
  M 243.41 441.62
  Q 241.70 449.55 242.34 456.96
  A 2.22 2.21 12.9 0 0 243.42 458.67
  Q 245.88 460.14 247.77 460.30
  L 250.47 470.16
  Q 242.79 471.32 236.78 468.99
  C 231.93 467.10 230.92 462.82 230.96 457.52
  Q 231.07 445.61 233.30 433.26
  Q 234.26 428.01 239.86 426.62
  Q 242.55 434.22 243.41 441.62
  Z"
/>
<path fill="#f7e4c3" d="
  M 243.41 441.62
  L 247.77 460.30
  Q 245.88 460.14 243.42 458.67
  A 2.22 2.21 12.9 0 1 242.34 456.96
  Q 241.70 449.55 243.41 441.62
  Z"
/>
<path fill="#f7e4c3" d="
  M 786.61 474.61
  Q 808.71 491.01 832.11 506.55
  A 4.24 4.23 -79.8 0 1 833.89 509.12
  C 834.34 511.10 834.66 513.71 835.05 515.25
  Q 854.79 592.21 866.04 676.48
  Q 866.41 679.32 866.18 679.99
  A 1.76 1.68 81.8 0 1 865.61 680.79
  Q 864.90 681.32 862.43 682.41
  C 768.03 723.93 671.48 760.44 573.49 793.23
  Q 530.60 807.59 503.30 815.79
  Q 476.53 823.83 451.79 831.24
  Q 435.09 836.25 427.14 837.83
  Q 425.48 838.16 424.16 838.28
  A 1.98 1.97 75.9 0 1 422.15 837.07
  L 410.63 809.37
  A 1.11 1.11 0.0 0 1 411.37 807.87
  Q 480.66 789.14 549.48 767.46
  Q 669.06 729.79 791.55 678.56
  Q 800.23 674.93 804.87 672.65
  C 808.43 670.91 809.89 668.06 809.42 663.85
  Q 808.43 655.02 807.62 649.87
  Q 802.74 618.73 796.49 585.49
  Q 791.01 556.34 781.71 511.35
  Q 777.35 490.25 772.55 468.02
  Q 776.43 471.62 778.82 471.66
  Q 784.38 471.76 786.61 474.61
  Z"
/>
<path fill="#ce6425" d="
  M 253.24 482.87
  L 263.86 529.11
  Q 247.46 528.88 231.91 525.47
  Q 225.50 524.06 223.90 517.58
  Q 222.91 513.59 223.29 509.26
  Q 224.27 497.81 225.65 489.87
  C 226.80 483.27 231.92 480.12 238.45 481.37
  C 242.60 482.17 247.13 481.39 251.03 482.66
  Q 252.26 483.06 253.24 482.87
  Z"
/>
<path fill="#080a49" d="
  M 679.13 502.21
  Q 659.33 523.88 627.83 557.33
  C 623.94 561.46 620.29 559.88 615.82 558.19
  Q 603.19 553.42 572.62 541.12
  A 1.84 1.83 -58.0 0 0 570.57 541.60
  Q 567.82 544.70 567.77 544.77
  Q 553.94 563.08 537.30 584.28
  C 532.61 590.25 528.63 587.73 523.60 583.74
  Q 504.02 568.23 493.67 559.82
  A 1.32 1.32 0.0 0 0 491.77 560.07
  Q 465.11 596.59 441.75 628.25
  Q 438.23 633.03 434.17 637.89
  C 431.53 641.05 428.77 641.37 424.80 639.64
  Q 417.81 636.60 408.62 632.14
  A 1.90 1.89 -56.1 0 0 406.37 632.59
  L 370.76 672.55
  A 2.25 2.24 58.0 0 0 370.28 674.66
  L 375.02 690.81
  A 0.53 0.52 -26.6 0 0 375.84 691.08
  Q 376.16 690.84 406.59 668.01
  Q 412.33 663.70 418.76 665.09
  Q 425.72 666.60 435.24 668.11
  Q 439.08 668.71 441.48 666.50
  Q 460.98 648.61 488.18 624.94
  Q 491.39 622.15 494.44 619.20
  C 498.22 615.54 500.75 616.10 505.74 617.53
  Q 535.37 626.07 538.86 627.17
  C 540.89 627.81 542.78 626.71 544.44 625.25
  Q 565.07 607.12 581.80 592.06
  C 584.23 589.86 588.52 585.70 592.19 586.83
  Q 610.19 592.39 639.86 601.68
  A 2.52 2.51 34.0 0 0 642.21 601.23
  Q 651.42 593.69 666.69 580.43
  Q 695.91 555.07 701.11 550.35
  Q 704.57 547.22 707.35 545.32
  C 712.40 541.86 718.22 548.18 714.36 552.85
  Q 712.05 555.67 708.15 559.15
  Q 680.81 583.61 648.72 610.73
  C 643.36 615.26 639.42 614.28 633.20 612.33
  Q 613.60 606.18 593.33 599.06
  A 2.79 2.78 33.7 0 0 590.56 599.61
  C 575.58 612.94 561.21 625.86 546.47 638.01
  C 544.16 639.92 541.99 640.50 539.27 639.70
  Q 525.40 635.62 505.19 629.32
  C 502.39 628.44 501.36 628.68 499.06 630.64
  Q 473.62 652.41 449.73 673.47
  Q 446.40 676.40 442.79 678.99
  A 6.23 6.22 -65.2 0 1 439.75 680.11
  Q 437.74 680.28 433.75 679.75
  Q 432.24 679.55 416.51 676.76
  C 414.57 676.42 413.29 676.72 411.67 677.96
  Q 394.67 691.01 379.09 701.72
  A 1.00 0.98 65.6 0 0 378.70 702.79
  L 384.84 725.71
  A 0.97 0.96 -15.2 0 0 386.03 726.39
  Q 452.44 708.16 519.01 688.26
  Q 521.30 687.58 545.11 680.58
  C 612.11 660.88 674.13 641.36 727.31 623.51
  C 731.62 622.06 735.40 623.95 735.99 628.44
  Q 736.52 632.43 731.23 634.21
  Q 641.48 664.35 547.54 691.99
  Q 472.11 714.17 450.17 720.38
  Q 405.20 733.10 388.16 737.95
  C 384.06 739.12 377.54 740.58 375.64 735.13
  Q 374.40 731.59 372.38 724.42
  Q 352.72 654.75 336.12 581.53
  C 335.26 577.77 337.09 572.90 341.50 573.37
  C 346.33 573.88 346.66 577.17 347.70 581.76
  Q 356.60 620.85 366.47 658.70
  A 0.64 0.64 0.0 0 0 367.48 659.04
  Q 368.73 658.06 369.71 656.96
  Q 387.01 637.66 401.49 621.01
  Q 404.02 618.10 407.51 619.49
  Q 415.73 622.76 424.56 626.27
  Q 427.72 627.53 429.58 625.09
  Q 437.80 614.33 486.06 547.79
  C 489.40 543.19 493.61 544.60 497.62 547.85
  C 501.95 551.35 509.32 557.53 514.42 561.40
  Q 522.92 567.85 529.76 573.91
  A 0.67 0.67 0.0 0 0 530.73 573.82
  Q 541.85 559.64 564.45 530.22
  C 566.96 526.95 571.00 527.72 574.77 529.21
  Q 602.24 540.09 614.28 544.72
  C 618.06 546.18 620.42 547.39 623.50 544.27
  Q 642.17 525.28 660.33 505.03
  L 679.13 502.21
  Z"
/>
<path fill="#f7e4c3" d="
  M 272.02 562.73
  Q 286.59 624.46 303.19 685.81
  Q 317.49 738.65 337.67 789.58
  A 1.43 1.42 56.3 0 1 337.37 791.10
  Q 316.95 812.51 294.31 832.05
  Q 284.91 840.15 278.92 844.71
  A 1.52 1.51 -41.7 0 1 276.94 844.60
  Q 271.05 838.90 262.60 829.99
  Q 253.14 820.01 194.31 755.70
  C 184.41 744.88 173.69 733.81 163.00 722.20
  Q 155.24 713.76 151.71 710.25
  C 146.60 705.16 141.77 699.53 136.82 694.51
  Q 116.63 674.06 114.58 671.97
  C 103.90 661.13 92.45 648.78 80.38 636.91
  Q 76.91 633.50 74.23 629.50
  A 2.33 2.32 -37.9 0 1 74.61 626.48
  L 94.21 608.87
  A 1.16 1.15 49.6 0 1 95.89 609.01
  Q 114.14 632.11 122.19 643.26
  Q 122.61 643.85 122.71 644.45
  A 0.61 0.61 0.0 0 1 121.97 645.14
  C 110.27 642.54 102.10 635.95 93.80 627.58
  C 92.01 625.77 88.90 624.05 86.59 625.43
  C 82.89 627.62 86.61 632.99 88.64 635.46
  C 97.14 645.81 112.24 656.09 125.72 656.79
  C 131.34 657.08 139.32 653.30 136.00 646.43
  Q 135.13 644.64 129.92 635.97
  Q 125.70 628.94 113.82 613.17
  Q 105.94 602.71 93.53 587.40
  A 1.72 1.71 49.8 0 1 93.72 585.04
  Q 110.40 570.28 131.54 553.81
  Q 133.37 552.38 135.52 550.82
  Q 155.44 553.74 171.00 555.52
  Q 198.83 558.70 234.18 561.55
  Q 235.01 561.61 244.85 562.10
  C 253.81 562.54 261.87 563.42 272.02 562.73
  Z
  M 260.4472 577.0390
  A 5.09 5.09 0.0 0 0 253.2937 576.2366
  L 160.0583 650.6655
  A 5.09 5.09 0.0 0 0 159.2559 657.8190
  L 159.5928 658.2410
  A 5.09 5.09 0.0 0 0 166.7463 659.0434
  L 259.9817 584.6145
  A 5.09 5.09 0.0 0 0 260.7841 577.4610
  L 260.4472 577.0390
  Z
  M 191.7977 578.9881
  A 5.16 5.16 0.0 0 0 184.5502 578.1367
  L 146.3002 608.3447
  A 5.16 5.16 0.0 0 0 145.4488 615.5922
  L 145.6223 615.8119
  A 5.16 5.16 0.0 0 0 152.8698 616.6633
  L 191.1198 586.4553
  A 5.16 5.16 0.0 0 0 191.9712 579.2078
  L 191.7977 578.9881
  Z
  M 204.0063 670.9288
  A 5.01 5.01 0.0 0 0 196.9625 670.1636
  L 176.6685 686.4804
  A 5.01 5.01 0.0 0 0 175.9033 693.5241
  L 176.0537 693.7112
  A 5.01 5.01 0.0 0 0 183.0975 694.4764
  L 203.3915 678.1596
  A 5.01 5.01 0.0 0 0 204.1567 671.1159
  L 204.0063 670.9288
  Z
  M 278.8298 704.6496
  A 5.02 5.02 0.0 0 0 271.7707 703.8952
  L 227.3641 739.7267
  A 5.02 5.02 0.0 0 0 226.6097 746.7859
  L 226.7102 746.9104
  A 5.02 5.02 0.0 0 0 233.7693 747.6648
  L 278.1759 711.8333
  A 5.02 5.02 0.0 0 0 278.9303 704.7741
  L 278.8298 704.6496
  Z
  M 297.8822 780.8473
  A 5.11 5.11 0.0 0 0 290.6926 780.1170
  L 273.6438 794.0216
  A 5.11 5.11 0.0 0 0 272.9135 801.2112
  L 273.0778 801.4127
  A 5.11 5.11 0.0 0 0 280.2674 802.1430
  L 297.3162 788.2384
  A 5.11 5.11 0.0 0 0 298.0465 781.0488
  L 297.8822 780.8473
  Z"
/>
</g>
<g>
<path fill="#080a49" d="
  M 418.94 166.77
  C 418.19 161.78 422.30 160.85 426.51 159.66
  Q 510.16 135.78 594.61 114.37
  Q 600.13 112.98 603.14 116.63
  Q 605.60 119.63 602.77 123.24
  Q 602.09 124.11 599.14 124.98
  Q 593.25 126.73 559.07 135.44
  Q 538.50 140.67 519.02 146.00
  Q 450.31 164.81 430.88 170.36
  C 426.09 171.74 419.93 173.35 418.94 166.77
  Z"
/>
<path fill="#080a49" d="
  M 440.40 200.95
  C 435.57 202.38 429.37 204.06 428.32 197.42
  C 427.52 192.39 431.66 191.42 435.90 190.18
  Q 520.14 165.41 605.21 143.12
  Q 610.77 141.67 613.83 145.33
  Q 616.34 148.34 613.51 152.01
  Q 612.83 152.89 609.86 153.80
  Q 603.93 155.61 569.50 164.67
  Q 548.78 170.12 529.16 175.65
  Q 459.96 195.19 440.40 200.95
  Z"
/>
<rect fill="#080a49" x="-99.33" y="-5.83" transform="translate(531.68,203.91) rotate(-16.1)" width="198.66" height="11.66" rx="5.72"/>
<path fill="#080a49" d="
  M 407.36 239.87
  Q 408.56 244.99 408.85 250.35
  Q 410.55 282.10 391.40 307.69
  C 379.41 323.70 360.76 334.22 341.25 337.13
  Q 324.31 339.65 307.51 335.00
  Q 288.30 329.67 272.23 313.86
  Q 251.70 293.66 249.33 264.56
  Q 247.51 242.26 256.55 222.75
  Q 268.20 197.59 292.58 185.51
  Q 305.96 178.89 319.26 177.29
  Q 321.70 176.99 329.51 177.00
  Q 339.90 177.01 348.72 179.33
  Q 375.48 186.39 392.43 207.59
  C 400.20 217.31 404.53 227.80 407.36 239.87
  Z
  M 315.93 190.63
  A 1.30 1.29 74.3 0 0 315.01 192.28
  Q 324.21 220.83 331.42 246.32
  Q 332.58 250.41 333.32 251.46
  A 1.76 1.74 -8.4 0 0 334.19 252.10
  L 393.41 271.19
  A 1.62 1.61 -74.8 0 0 395.48 270.00
  C 399.01 254.33 395.85 235.86 387.77 222.74
  C 383.66 216.06 378.35 208.75 371.86 203.90
  C 355.70 191.84 335.65 185.73 315.93 190.63
  Z
  M 285.99 309.21
  A 0.93 0.92 -55.3 0 0 287.33 308.96
  Q 302.72 284.40 320.01 258.78
  C 321.29 256.89 321.64 255.33 321.05 253.26
  Q 313.74 227.56 304.07 198.44
  Q 303.48 196.69 302.94 195.50
  A 1.08 1.07 -23.6 0 0 301.55 194.96
  C 276.55 205.23 262.22 228.35 260.90 254.94
  C 260.37 265.68 263.38 278.57 268.19 287.78
  Q 274.98 300.79 285.99 309.21
  Z
  M 391.23 283.07
  A 0.55 0.55 0.0 0 0 390.85 282.51
  L 331.27 263.74
  A 0.99 0.99 0.0 0 0 330.14 264.14
  L 296.98 315.19
  A 1.56 1.56 0.0 0 0 297.49 317.37
  C 311.82 325.92 329.84 328.24 345.57 324.32
  C 366.38 319.14 383.13 303.92 391.03 284.04
  Q 391.19 283.64 391.23 283.07
  Z"
/>
<rect fill="#080a49" x="-48.59" y="-5.84" transform="translate(492.14,248.47) rotate(-15.7)" width="97.18" height="11.68" rx="5.77"/>
<path fill="#f7e4c3" d="
  M 664.7091 490.7274
  A 117.63 116.35 85.5 0 1 539.4887 382.5887
  A 117.63 116.35 85.5 0 1 646.2509 256.1926
  A 117.63 116.35 85.5 0 1 771.4713 364.3313
  A 117.63 116.35 85.5 0 1 664.7091 490.7274
  Z
  M 641.2474 475.0476
  A 102.46 102.29 97.9 0 0 756.6492 387.6192
  A 102.46 102.29 97.9 0 0 669.4126 272.0724
  A 102.46 102.29 97.9 0 0 554.0108 359.5008
  A 102.46 102.29 97.9 0 0 641.2474 475.0476
  Z"
/>
<path fill="#ce6425" d="
  M 92.48 317.14
  L 99.81 274.68
  A 1.61 1.61 0.0 0 1 101.57 273.35
  L 204.83 284.02
  A 1.61 1.61 0.0 0 1 206.23 285.24
  L 217.72 332.19
  A 1.61 1.61 0.0 0 1 215.95 334.17
  L 93.87 319.01
  A 1.61 1.61 0.0 0 1 92.48 317.14
  Z"
/>
<path fill="#ce6425" d="
  M 112.11 353.98
  A 10.15 10.15 0.0 0 1 120.65 365.51
  L 117.57 386.10
  A 11.08 10.86 8.5 0 1 105.01 395.20
  L 81.61 391.70
  A 11.08 10.86 8.5 0 1 72.26 379.32
  L 75.33 358.74
  A 10.15 10.15 0.0 0 1 86.87 350.20
  L 112.11 353.98
  Z
  M 110.3413 367.4321
  A 2.41 2.41 0.0 0 0 108.3092 364.6959
  L 88.3853 361.7538
  A 2.41 2.41 0.0 0 0 85.6491 363.7858
  L 83.4987 378.3479
  A 2.41 2.41 0.0 0 0 85.5308 381.0841
  L 105.4547 384.0262
  A 2.41 2.41 0.0 0 0 108.1909 381.9942
  L 110.3413 367.4321
  Z"
/>
<rect fill="#080a49" x="-40.99" y="-5.73" transform="translate(413.25,372.27) rotate(-14.9)" width="81.98" height="11.46" rx="5.54"/>
<path fill="#ce6425" d="
  M 128.78 389.29
  L 131.67 366.03
  A 9.57 9.57 0.0 0 1 142.80 357.78
  L 165.71 361.73
  A 9.57 9.57 0.0 0 1 173.60 372.14
  L 171.30 394.37
  A 9.57 9.57 0.0 0 1 160.61 402.89
  L 137.10 399.97
  A 9.57 9.57 0.0 0 1 128.78 389.29
  Z
  M 139.62 386.93
  A 2.05 2.05 0.0 0 0 141.31 389.20
  L 159.19 392.29
  A 2.05 2.05 0.0 0 0 161.58 390.48
  L 163.22 374.49
  A 2.05 2.05 0.0 0 0 161.53 372.26
  L 143.98 369.23
  A 2.05 2.05 0.0 0 0 141.60 370.99
  L 139.62 386.93
  Z"
/>
<path fill="#080a49" d="
  M 300.19 387.22
  L 342.63 375.86
  A 7.74 7.74 0.0 0 1 352.15 381.50
  L 363.33 427.25
  A 7.74 7.74 0.0 0 1 357.82 436.57
  L 315.38 447.93
  A 7.74 7.74 0.0 0 1 305.86 442.30
  L 294.67 396.54
  A 7.74 7.74 0.0 0 1 300.19 387.22
  Z
  M 349.71 426.93
  A 1.67 1.67 0.0 0 0 350.90 424.92
  L 342.11 388.97
  A 1.67 1.67 0.0 0 0 340.05 387.75
  L 307.79 396.39
  A 1.67 1.67 0.0 0 0 306.60 398.40
  L 315.39 434.35
  A 1.67 1.67 0.0 0 0 317.45 435.57
  L 349.71 426.93
  Z"
/>
<path fill="#f7e4c3" d="
  M 192.64 394.49
  L 194.59 378.69
  A 1.99 1.99 0.0 0 1 196.81 376.97
  L 216.39 379.39
  A 1.99 1.99 0.0 0 1 218.11 381.61
  L 216.16 397.41
  A 1.99 1.99 0.0 0 1 213.94 399.13
  L 194.36 396.71
  A 1.99 1.99 0.0 0 1 192.64 394.49
  Z"
/>
<rect fill="#080a49" x="-30.00" y="-5.69" transform="translate(410.38,404.02) rotate(-15.7)" width="60.00" height="11.38" rx="5.59"/>
<path fill="#ce6425" d="
  M 109.4314 441.8509
  A 9.75 9.75 0.0 0 1 98.4922 450.2449
  L 73.8647 447.0026
  A 9.75 9.75 0.0 0 1 65.4707 436.0634
  L 68.6086 412.2291
  A 9.75 9.75 0.0 0 1 79.5478 403.8351
  L 104.1753 407.0774
  A 9.75 9.75 0.0 0 1 112.5693 418.0166
  L 109.4314 441.8509
  Z
  M 76.73 433.74
  A 1.87 1.87 0.0 0 0 78.27 435.81
  L 97.75 439.18
  A 1.87 1.87 0.0 0 0 99.92 437.56
  L 102.05 420.43
  A 1.87 1.87 0.0 0 0 100.51 418.36
  L 81.03 414.99
  A 1.87 1.87 0.0 0 0 78.86 416.61
  L 76.73 433.74
  Z"
/>
<path fill="#ce6425" d="
  M 120.92 442.90
  L 123.71 420.43
  A 10.50 10.50 0.0 0 1 135.92 411.38
  L 158.12 415.21
  A 10.50 10.50 0.0 0 1 166.78 426.64
  L 164.56 448.10
  A 10.50 10.50 0.0 0 1 152.82 457.44
  L 130.05 454.61
  A 10.50 10.50 0.0 0 1 120.92 442.90
  Z
  M 131.81 441.91
  A 1.73 1.73 0.0 0 0 133.24 443.83
  L 152.77 447.20
  A 1.73 1.73 0.0 0 0 154.78 445.71
  L 156.99 427.95
  A 1.73 1.73 0.0 0 0 155.57 426.03
  L 136.03 422.65
  A 1.73 1.73 0.0 0 0 134.02 424.14
  L 131.81 441.91
  Z"
/>
<path fill="#ce6425" d="
  M 175.93 450.65
  L 178.31 427.54
  A 9.89 9.89 0.0 0 1 189.83 418.81
  L 212.77 422.77
  A 9.89 9.89 0.0 0 1 220.92 433.53
  L 218.54 456.64
  A 9.89 9.89 0.0 0 1 207.02 465.37
  L 184.08 461.41
  A 9.89 9.89 0.0 0 1 175.93 450.65
  Z
  M 186.33 448.85
  A 1.77 1.77 0.0 0 0 187.78 450.81
  L 206.31 454.01
  A 1.77 1.77 0.0 0 0 208.37 452.49
  L 210.46 435.58
  A 1.77 1.77 0.0 0 0 209.01 433.62
  L 190.48 430.43
  A 1.77 1.77 0.0 0 0 188.42 431.95
  L 186.33 448.85
  Z"
/>
<path fill="#f7e4c3" d="
  M 775.62 423.63
  Q 787.46 427.70 798.18 434.52
  A 1.58 1.57 29.4 0 1 798.75 436.54
  Q 792.58 449.19 784.44 460.02
  A 1.74 1.73 -56.0 0 1 782.17 460.47
  Q 773.20 455.13 765.19 448.24
  Q 762.86 446.24 764.12 444.14
  Q 768.73 436.42 774.41 424.14
  A 0.99 0.98 -67.6 0 1 775.62 423.63
  Z"
/>
<rect fill="#080a49" x="-62.16" y="-5.81" transform="translate(455.90,457.45) rotate(-15.7)" width="124.32" height="11.62" rx="5.75"/>
<path fill="#ce6425" d="
  M 57.86 491.96
  L 60.73 468.79
  A 10.95 10.95 0.0 0 1 73.46 459.35
  L 95.93 463.23
  A 10.95 10.95 0.0 0 1 104.93 475.37
  L 102.06 498.54
  A 10.95 10.95 0.0 0 1 89.33 507.98
  L 66.86 504.10
  A 10.95 10.95 0.0 0 1 57.86 491.96
  Z
  M 69.37 490.21
  A 2.24 2.24 0.0 0 0 71.14 492.68
  L 89.26 496.44
  A 2.24 2.24 0.0 0 0 91.94 494.52
  L 94.16 476.67
  A 2.24 2.24 0.0 0 0 92.31 474.19
  L 74.11 471.05
  A 2.24 2.24 0.0 0 0 71.51 472.98
  L 69.37 490.21
  Z"
/>
<path fill="#080a49" d="
  M 320.79 475.02
  L 363.80 463.51
  A 7.89 7.89 0.0 0 1 373.53 469.36
  L 384.66 517.82
  A 7.89 7.89 0.0 0 1 378.84 527.25
  L 336.27 537.66
  A 7.89 7.89 0.0 0 1 326.74 531.87
  L 315.16 484.52
  A 7.89 7.89 0.0 0 1 320.79 475.02
  Z
  M 363.5264 476.6231
  A 0.97 0.97 0.0 0 0 362.3580 475.9043
  L 327.7661 484.1453
  A 0.97 0.97 0.0 0 0 327.0473 485.3136
  L 336.5536 525.2169
  A 0.97 0.97 0.0 0 0 337.7220 525.9357
  L 372.3139 517.6947
  A 0.97 0.97 0.0 0 0 373.0327 516.5264
  L 363.5264 476.6231
  Z"
/>
<path fill="#ce6425" d="
  M 144.58 515.67
  L 121.28 511.65
  A 9.93 9.93 0.0 0 1 113.12 500.64
  L 116.26 475.41
  A 9.93 9.93 0.0 0 1 127.80 466.85
  L 151.10 470.88
  A 9.93 9.93 0.0 0 1 159.26 481.89
  L 156.12 507.11
  A 9.93 9.93 0.0 0 1 144.58 515.67
  Z
  M 148.46 484.07
  A 2.10 2.10 0.0 0 0 146.73 481.79
  L 128.45 478.63
  A 2.10 2.10 0.0 0 0 126.00 480.49
  L 124.10 498.94
  A 2.10 2.10 0.0 0 0 125.83 501.22
  L 144.11 504.38
  A 2.10 2.10 0.0 0 0 146.55 502.52
  L 148.46 484.07
  Z"
/>
<path fill="#ce6425" d="
  M 199.35 522.19
  L 176.69 519.38
  A 10.62 10.62 0.0 0 1 167.44 507.75
  L 169.86 484.35
  A 10.62 10.62 0.0 0 1 181.73 474.90
  L 204.39 477.72
  A 10.62 10.62 0.0 0 1 213.64 489.35
  L 211.22 512.75
  A 10.62 10.62 0.0 0 1 199.35 522.19
  Z
  M 203.23 491.30
  A 1.95 1.95 0.0 0 0 201.62 489.18
  L 182.31 485.85
  A 1.95 1.95 0.0 0 0 180.04 487.57
  L 178.15 505.82
  A 1.95 1.95 0.0 0 0 179.76 507.94
  L 199.07 511.27
  A 1.95 1.95 0.0 0 0 201.34 509.55
  L 203.23 491.30
  Z"
/>
<rect fill="#080a49" x="-41.26" y="-5.87" transform="translate(442.99,493.14) rotate(-15.9)" width="82.52" height="11.74" rx="5.79"/>
<rect fill="#080a49" x="-64.74" y="-5.36" transform="translate(210.02,617.64) rotate(-38.6)" width="129.48" height="10.72" rx="5.09"/>
<rect fill="#080a49" x="-29.53" y="-5.30" transform="translate(168.71,597.40) rotate(-38.3)" width="59.06" height="10.60" rx="5.16"/>
<rect fill="#080a49" x="-18.03" y="-5.13" transform="translate(190.03,682.32) rotate(-38.8)" width="36.06" height="10.26" rx="5.01"/>
<rect fill="#080a49" x="-33.55" y="-5.10" transform="translate(252.77,725.78) rotate(-38.9)" width="67.10" height="10.20" rx="5.02"/>
<rect fill="#080a49" x="-16.11" y="-5.24" transform="translate(285.48,791.13) rotate(-39.2)" width="32.22" height="10.48" rx="5.11"/>
</g>
<g>
<path fill="#f7e4c3" d="
  M 315.93 190.63
  C 335.65 185.73 355.70 191.84 371.86 203.90
  C 378.35 208.75 383.66 216.06 387.77 222.74
  C 395.85 235.86 399.01 254.33 395.48 270.00
  A 1.62 1.61 -74.8 0 1 393.41 271.19
  L 334.19 252.10
  A 1.76 1.74 -8.4 0 1 333.32 251.46
  Q 332.58 250.41 331.42 246.32
  Q 324.21 220.83 315.01 192.28
  A 1.30 1.29 74.3 0 1 315.93 190.63
  Z"
/>
<path fill="#f7e4c3" d="
  M 285.99 309.21
  Q 274.98 300.79 268.19 287.78
  C 263.38 278.57 260.37 265.68 260.90 254.94
  C 262.22 228.35 276.55 205.23 301.55 194.96
  A 1.08 1.07 -23.6 0 1 302.94 195.50
  Q 303.48 196.69 304.07 198.44
  Q 313.74 227.56 321.05 253.26
  C 321.64 255.33 321.29 256.89 320.01 258.78
  Q 302.72 284.40 287.33 308.96
  A 0.93 0.92 -55.3 0 1 285.99 309.21
  Z"
/>
<path fill="#f7e4c3" d="
  M 391.23 283.07
  Q 391.19 283.64 391.03 284.04
  C 383.13 303.92 366.38 319.14 345.57 324.32
  C 329.84 328.24 311.82 325.92 297.49 317.37
  A 1.56 1.56 0.0 0 1 296.98 315.19
  L 330.14 264.14
  A 0.99 0.99 0.0 0 1 331.27 263.74
  L 390.85 282.51
  A 0.55 0.55 0.0 0 1 391.23 283.07
  Z"
/>
<path fill="#080a49" d="
  M 641.2474 475.0476
  A 102.46 102.29 97.9 0 1 554.0108 359.5008
  A 102.46 102.29 97.9 0 1 669.4126 272.0724
  A 102.46 102.29 97.9 0 1 756.6492 387.6192
  A 102.46 102.29 97.9 0 1 641.2474 475.0476
  Z
  M 644.1436 464.0417
  A 91.07 90.12 97.1 0 0 744.8290 384.8090
  A 91.07 90.12 97.1 0 0 666.6564 283.2983
  A 91.07 90.12 97.1 0 0 565.9710 362.5310
  A 91.07 90.12 97.1 0 0 644.1436 464.0417
  Z"
/>
<rect fill="#f7e4c3" x="-12.48" y="-9.77" transform="translate(96.92,372.89) rotate(8.4)" width="24.96" height="19.54" rx="2.41"/>
<path fill="#f7e4c3" d="
  M 139.62 386.93
  L 141.60 370.99
  A 2.05 2.05 0.0 0 1 143.98 369.23
  L 161.53 372.26
  A 2.05 2.05 0.0 0 1 163.22 374.49
  L 161.58 390.48
  A 2.05 2.05 0.0 0 1 159.19 392.29
  L 141.31 389.20
  A 2.05 2.05 0.0 0 1 139.62 386.93
  Z"
/>
<path fill="#ce6425" d="
  M 349.71 426.93
  L 317.45 435.57
  A 1.67 1.67 0.0 0 1 315.39 434.35
  L 306.60 398.40
  A 1.67 1.67 0.0 0 1 307.79 396.39
  L 340.05 387.75
  A 1.67 1.67 0.0 0 1 342.11 388.97
  L 350.90 424.92
  A 1.67 1.67 0.0 0 1 349.71 426.93
  Z"
/>
<path fill="#f7e4c3" d="
  M 76.73 433.74
  L 78.86 416.61
  A 1.87 1.87 0.0 0 1 81.03 414.99
  L 100.51 418.36
  A 1.87 1.87 0.0 0 1 102.05 420.43
  L 99.92 437.56
  A 1.87 1.87 0.0 0 1 97.75 439.18
  L 78.27 435.81
  A 1.87 1.87 0.0 0 1 76.73 433.74
  Z"
/>
<path fill="#f7e4c3" d="
  M 131.81 441.91
  L 134.02 424.14
  A 1.73 1.73 0.0 0 1 136.03 422.65
  L 155.57 426.03
  A 1.73 1.73 0.0 0 1 156.99 427.95
  L 154.78 445.71
  A 1.73 1.73 0.0 0 1 152.77 447.20
  L 133.24 443.83
  A 1.73 1.73 0.0 0 1 131.81 441.91
  Z"
/>
<path fill="#f7e4c3" d="
  M 186.33 448.85
  L 188.42 431.95
  A 1.77 1.77 0.0 0 1 190.48 430.43
  L 209.01 433.62
  A 1.77 1.77 0.0 0 1 210.46 435.58
  L 208.37 452.49
  A 1.77 1.77 0.0 0 1 206.31 454.01
  L 187.78 450.81
  A 1.77 1.77 0.0 0 1 186.33 448.85
  Z"
/>
<path fill="#f7e4c3" d="
  M 69.37 490.21
  L 71.51 472.98
  A 2.24 2.24 0.0 0 1 74.11 471.05
  L 92.31 474.19
  A 2.24 2.24 0.0 0 1 94.16 476.67
  L 91.94 494.52
  A 2.24 2.24 0.0 0 1 89.26 496.44
  L 71.14 492.68
  A 2.24 2.24 0.0 0 1 69.37 490.21
  Z"
/>
<path fill="#ce6425" d="
  M 373.0327 516.5264
  A 0.97 0.97 0.0 0 1 372.3139 517.6947
  L 337.7220 525.9357
  A 0.97 0.97 0.0 0 1 336.5536 525.2169
  L 327.0473 485.3136
  A 0.97 0.97 0.0 0 1 327.7661 484.1453
  L 362.3580 475.9043
  A 0.97 0.97 0.0 0 1 363.5264 476.6231
  L 373.0327 516.5264
  Z
  M 347.66 505.46
  A 1.21 1.21 0.0 0 1 345.55 505.39
  C 344.47 503.27 343.34 500.55 340.88 500.67
  C 339.10 500.76 338.66 503.26 338.56 504.76
  Q 338.20 510.57 341.90 514.07
  A 3.00 3.00 0.0 0 0 345.13 514.64
  C 352.60 511.46 358.91 502.09 362.51 494.87
  C 363.76 492.39 364.07 489.64 363.34 487.11
  A 1.40 1.11 73.3 0 0 361.86 486.08
  C 359.84 486.72 357.02 490.73 355.99 492.24
  Q 353.06 496.52 347.66 505.46
  Z"
/>
<path fill="#f7e4c3" d="
  M 148.46 484.07
  L 146.55 502.52
  A 2.10 2.10 0.0 0 1 144.11 504.38
  L 125.83 501.22
  A 2.10 2.10 0.0 0 1 124.10 498.94
  L 126.00 480.49
  A 2.10 2.10 0.0 0 1 128.45 478.63
  L 146.73 481.79
  A 2.10 2.10 0.0 0 1 148.46 484.07
  Z"
/>
<path fill="#f7e4c3" d="
  M 203.23 491.30
  L 201.34 509.55
  A 1.95 1.95 0.0 0 1 199.07 511.27
  L 179.76 507.94
  A 1.95 1.95 0.0 0 1 178.15 505.82
  L 180.04 487.57
  A 1.95 1.95 0.0 0 1 182.31 485.85
  L 201.62 489.18
  A 1.95 1.95 0.0 0 1 203.23 491.30
  Z"
/>
</g>
<g>
<path fill="#ce6425" d="
  M 644.1436 464.0417
  A 91.07 90.12 97.1 0 1 565.9710 362.5310
  A 91.07 90.12 97.1 0 1 666.6564 283.2983
  A 91.07 90.12 97.1 0 1 744.8290 384.8090
  A 91.07 90.12 97.1 0 1 644.1436 464.0417
  Z
  M 654.53 307.29
  Q 652.67 308.36 651.27 310.54
  Q 642.37 324.33 633.60 340.08
  Q 617.86 368.35 608.02 387.53
  Q 604.76 393.88 602.34 400.57
  C 601.50 402.90 599.88 409.83 601.63 411.94
  A 2.57 2.36 -35.3 0 0 604.85 412.35
  C 610.23 409.00 613.45 403.61 616.76 397.51
  C 630.57 372.00 644.01 347.44 656.13 319.63
  Q 657.15 317.29 658.26 313.04
  Q 659.28 309.13 655.95 307.28
  A 1.47 1.46 -45.2 0 0 654.53 307.29
  Z
  M 592.61 372.56
  C 596.47 374.96 602.32 367.29 603.78 364.49
  C 615.92 341.23 620.36 333.79 627.50 316.47
  Q 629.40 311.85 626.00 308.60
  A 3.31 3.30 -37.4 0 0 622.14 308.09
  C 619.46 309.54 616.78 314.18 615.19 316.68
  Q 605.96 331.19 598.35 345.08
  Q 592.91 355.04 590.72 360.96
  C 589.44 364.42 588.90 370.26 592.61 372.56
  Z
  M 642.6894 390.0653
  A 14.24 4.85 115.1 0 0 653.1220 379.2274
  A 14.24 4.85 115.1 0 0 654.7706 364.2747
  A 14.24 4.85 115.1 0 0 644.3380 375.1126
  A 14.24 4.85 115.1 0 0 642.6894 390.0653
  Z"
/>
<path fill="#080a49" d="
  M 347.66 505.46
  Q 353.06 496.52 355.99 492.24
  C 357.02 490.73 359.84 486.72 361.86 486.08
  A 1.40 1.11 73.3 0 1 363.34 487.11
  C 364.07 489.64 363.76 492.39 362.51 494.87
  C 358.91 502.09 352.60 511.46 345.13 514.64
  A 3.00 3.00 0.0 0 1 341.90 514.07
  Q 338.20 510.57 338.56 504.76
  C 338.66 503.26 339.10 500.76 340.88 500.67
  C 343.34 500.55 344.47 503.27 345.55 505.39
  A 1.21 1.21 0.0 0 0 347.66 505.46
  Z"
/>
</g>
<g>
<path fill="#f7e4c3" d="
  M 654.53 307.29
  A 1.47 1.46 -45.2 0 1 655.95 307.28
  Q 659.28 309.13 658.26 313.04
  Q 657.15 317.29 656.13 319.63
  C 644.01 347.44 630.57 372.00 616.76 397.51
  C 613.45 403.61 610.23 409.00 604.85 412.35
  A 2.57 2.36 -35.3 0 1 601.63 411.94
  C 599.88 409.83 601.50 402.90 602.34 400.57
  Q 604.76 393.88 608.02 387.53
  Q 617.86 368.35 633.60 340.08
  Q 642.37 324.33 651.27 310.54
  Q 652.67 308.36 654.53 307.29
  Z"
/>
<path fill="#f7e4c3" d="
  M 592.61 372.56
  C 588.90 370.26 589.44 364.42 590.72 360.96
  Q 592.91 355.04 598.35 345.08
  Q 605.96 331.19 615.19 316.68
  C 616.78 314.18 619.46 309.54 622.14 308.09
  A 3.31 3.30 -37.4 0 1 626.00 308.60
  Q 629.40 311.85 627.50 316.47
  C 620.36 333.79 615.92 341.23 603.78 364.49
  C 602.32 367.29 596.47 374.96 592.61 372.56
  Z"
/>
<ellipse fill="#f7e4c3" cx="0.00" cy="0.00" transform="translate(648.73,377.17) rotate(115.1)" rx="14.24" ry="4.85"/>
</g>
</svg>
