<?xml version="1.0" encoding="UTF-8" standalone="no"?>
<!DOCTYPE svg PUBLIC "-//W3C//DTD SVG 1.0//EN" "http://www.w3.org/TR/2001/REC-SVG-20010904/DTD/svg10.dtd">
<svg xmlns="http://www.w3.org/2000/svg" version="1.0" viewBox="0.00 0.00 800.00 800.00">
<g stroke-width="2.00" fill="none" stroke-linecap="butt">
<path stroke="#6d3634" d="
  M 168.04 538.65
  Q 152.49 539.15 136.97 538.95
  Q 134.28 538.91 132.45 539.64
  A 2.50 2.49 -4.7 0 0 130.92 541.44
  Q 130.40 543.89 131.13 546.58
  A 1.82 1.80 -80.0 0 0 131.81 547.56
  Q 134.91 549.84 139.01 549.95
  Q 147.52 550.18 155.99 550.19
  C 159.69 550.20 163.99 550.75 168.00 551.01"
/>
<path stroke="#6d3634" d="
  M 617.48 553.15
  L 666.91 551.89
  A 6.60 6.59 -79.9 0 0 672.87 547.73
  L 673.09 547.17
  A 2.98 2.98 0.0 0 0 670.33 543.09
  L 617.70 543.05"
/>
<path stroke="#6d3634" d="
  M 340.14 126.64
  L 339.56 141.34
  A 1.90 1.89 -88.8 0 0 341.45 143.32
  L 456.99 143.31
  A 1.69 1.69 0.0 0 0 458.68 141.64
  Q 458.77 131.63 458.40 120.63
  Q 458.36 119.45 457.50 118.24"
/>
<path stroke="#6d3634" d="
  M 294.95 249.76
  L 289.98 244.98"
/>
<path stroke="#6d3634" d="
  M 489.94 300.04
  Q 470.97 300.43 459.75 300.14
  Q 459.17 300.13 458.80 299.46"
/>
<path stroke="#6d3634" d="
  M 534.36 299.98
  Q 518.69 300.59 502.94 299.78"
/>
<path stroke="#6d3634" d="
  M 578.29 299.88
  Q 576.97 300.17 576.24 300.16
  Q 562.74 300.00 549.24 300.02
  Q 548.07 300.02 547.49 299.62"
/>
<path stroke="#6d3634" d="
  M 412.96 481.26
  A 1.56 1.56 0.0 0 0 414.52 482.82
  L 439.23 482.82
  A 1.56 1.56 0.0 0 0 440.35 480.18
  L 415.64 454.64
  A 1.56 1.56 0.0 0 0 412.96 455.73
  L 412.96 481.26"
/>
<path stroke="#7f6f7b" d="
  M 54.20 503.14
  A 5.21 5.21 0.0 0 0 59.58 507.72
  L 115.99 505.46
  A 5.21 5.21 0.0 0 0 120.95 499.63
  L 116.07 459.19
  A 5.21 5.21 0.0 0 0 111.10 454.61
  L 54.14 452.36
  A 5.21 5.21 0.0 0 0 48.76 458.19
  L 54.20 503.14"
/>
<path stroke="#323e62" d="
  M 114.31 573.05
  C 122.89 572.99 132.94 572.46 141.25 569.29
  C 144.99 567.87 147.17 565.75 146.40 561.65
  C 145.27 555.62 119.15 555.87 114.20 555.91
  C 109.24 555.94 83.13 556.01 82.07 562.05
  C 81.35 566.16 83.56 568.25 87.32 569.63
  C 95.66 572.69 105.73 573.10 114.31 573.05"
/>
<path stroke="#1b2954" d="
  M 391.18 752.84
  Q 478.87 752.84 498.75 752.74
  Q 503.18 752.72 505.04 752.73
  Q 590.74 753.10 636.06 752.47
  C 643.08 752.37 653.03 751.48 656.59 744.85
  C 657.79 742.60 658.29 738.92 654.72 738.92
  Q 512.90 738.79 391.50 738.84
  Q 391.33 738.84 391.18 738.84
  Q 391.03 738.84 390.87 738.84
  Q 269.47 738.78 127.65 738.91
  C 124.08 738.91 124.58 742.59 125.78 744.84
  C 129.34 751.47 139.29 752.36 146.31 752.46
  Q 191.63 753.09 277.33 752.72
  Q 279.19 752.71 283.62 752.73
  Q 303.50 752.83 391.18 752.84"
/>
<path stroke="#7f6f7b" d="
  M 705.64 519.62
  A 5.29 5.29 0.0 0 0 711.34 515.13
  L 718.12 469.72
  A 5.29 5.29 0.0 0 0 712.97 463.65
  L 674.84 463.12
  A 5.29 5.29 0.0 0 0 669.53 467.70
  L 663.80 510.41
  A 5.29 5.29 0.0 0 0 668.58 516.38
  L 705.64 519.62"
/>
<path stroke="#323e62" d="
  M 702.12 560.25
  Q 701.57 556.58 698.03 555.63
  Q 690.49 553.62 680.11 554.19
  C 675.48 554.44 671.21 557.82 666.75 557.84
  Q 644.60 557.94 642.00 558.05
  Q 639.54 558.15 637.52 558.60
  A 1.94 1.94 0.0 0 0 636.36 561.60
  Q 638.91 565.26 643.52 566.80
  C 661.24 572.71 682.08 573.41 698.47 564.91
  Q 700.77 563.72 701.91 561.48
  A 2.07 2.05 54.9 0 0 702.12 560.25"
/>
</g>
<g>
<path fill="#0a0c43" d="
  M 254.76 159.93
  A 9.53 9.53 0.0 0 1 245.23 169.46
  L 34.65 169.46
  A 9.53 9.53 0.0 0 1 25.12 159.93
  L 25.12 39.37
  A 9.53 9.53 0.0 0 1 34.65 29.84
  L 245.23 29.84
  A 9.53 9.53 0.0 0 1 254.76 39.37
  L 254.76 159.93
  Z
  M 247.31 41.91
  A 4.86 4.86 0.0 0 0 242.45 37.05
  L 37.17 37.05
  A 4.86 4.86 0.0 0 0 32.31 41.91
  L 32.31 156.97
  A 4.86 4.86 0.0 0 0 37.17 161.83
  L 242.45 161.83
  A 4.86 4.86 0.0 0 0 247.31 156.97
  L 247.31 41.91
  Z"
/>
<path fill="#0a0c43" d="
  M 513.84 159.51
  A 10.00 10.00 0.0 0 1 503.84 169.51
  L 294.14 169.51
  A 10.00 10.00 0.0 0 1 284.14 159.51
  L 284.14 39.83
  A 10.00 10.00 0.0 0 1 294.14 29.83
  L 503.84 29.83
  A 10.00 10.00 0.0 0 1 513.84 39.83
  L 513.84 159.51
  Z
  M 506.69 41.73
  A 4.70 4.70 0.0 0 0 501.99 37.03
  L 296.09 37.03
  A 4.70 4.70 0.0 0 0 291.39 41.73
  L 291.39 157.11
  A 4.70 4.70 0.0 0 0 296.09 161.81
  L 501.99 161.81
  A 4.70 4.70 0.0 0 0 506.69 157.11
  L 506.69 41.73
  Z"
/>
<path fill="#0a0c43" d="
  M 773.78 159.73
  A 9.77 9.77 0.0 0 1 764.01 169.50
  L 553.47 169.50
  A 9.77 9.77 0.0 0 1 543.70 159.73
  L 543.70 39.61
  A 9.77 9.77 0.0 0 1 553.47 29.84
  L 764.01 29.84
  A 9.77 9.77 0.0 0 1 773.78 39.61
  L 773.78 159.73
  Z
  M 766.29 41.72
  A 4.69 4.69 0.0 0 0 761.60 37.03
  L 555.66 37.03
  A 4.69 4.69 0.0 0 0 550.97 41.72
  L 550.97 157.14
  A 4.69 4.69 0.0 0 0 555.66 161.83
  L 761.60 161.83
  A 4.69 4.69 0.0 0 0 766.29 157.14
  L 766.29 41.72
  Z"
/>
<path fill="#0a0c43" d="
  M 362.36 330.28
  A 9.70 9.70 0.0 0 1 352.66 339.98
  L 139.20 339.98
  A 9.70 9.70 0.0 0 1 129.50 330.28
  L 129.50 210.36
  A 9.70 9.70 0.0 0 1 139.20 200.66
  L 352.66 200.66
  A 9.70 9.70 0.0 0 1 362.36 210.36
  L 362.36 330.28
  Z
  M 354.70 212.40
  A 4.52 4.52 0.0 0 0 350.18 207.88
  L 141.56 207.88
  A 4.52 4.52 0.0 0 0 137.04 212.40
  L 137.04 327.70
  A 4.52 4.52 0.0 0 0 141.56 332.22
  L 350.18 332.22
  A 4.52 4.52 0.0 0 0 354.70 327.70
  L 354.70 212.40
  Z"
/>
<path fill="#0a0c43" d="
  M 638.09 330.58
  A 9.40 9.40 0.0 0 1 628.69 339.98
  L 417.77 339.98
  A 9.40 9.40 0.0 0 1 408.37 330.58
  L 408.37 210.06
  A 9.40 9.40 0.0 0 1 417.77 200.66
  L 628.69 200.66
  A 9.40 9.40 0.0 0 1 638.09 210.06
  L 638.09 330.58
  Z
  M 630.46 212.24
  A 4.37 4.37 0.0 0 0 626.09 207.87
  L 420.01 207.87
  A 4.37 4.37 0.0 0 0 415.64 212.24
  L 415.64 327.84
  A 4.37 4.37 0.0 0 0 420.01 332.21
  L 626.09 332.21
  A 4.37 4.37 0.0 0 0 630.46 327.84
  L 630.46 212.24
  Z"
/>
<path fill="#cf5f25" d="
  M 761.93 263.76
  Q 762.20 265.52 760.55 267.55
  C 717.90 319.95 669.65 374.09 625.24 423.00
  Q 587.49 464.57 550.22 502.23
  Q 543.44 509.08 537.75 513.74
  Q 535.51 515.57 534.07 513.62
  A 2.14 2.07 -44.1 0 1 534.15 511.06
  Q 537.40 506.98 544.69 498.69
  Q 549.20 493.57 579.83 459.82
  Q 598.50 439.24 614.73 420.76
  Q 633.61 399.26 695.86 329.11
  Q 719.86 302.05 741.35 278.84
  Q 750.82 268.60 754.38 265.63
  Q 757.05 263.41 759.63 262.59
  A 1.82 1.58 -14.0 0 1 761.93 263.76
  Z"
/>
<path fill="#cf5f25" d="
  M 38.46 292.17
  C 40.46 292.74 44.66 296.82 47.53 299.63
  Q 64.04 315.75 72.79 325.14
  Q 142.79 400.39 163.61 423.13
  Q 177.68 438.50 178.80 439.71
  Q 225.20 489.57 231.81 497.27
  Q 234.94 500.93 236.72 504.44
  A 1.72 1.61 74.7 0 1 235.41 506.93
  Q 234.39 506.97 233.20 506.05
  Q 230.60 504.02 229.05 502.59
  Q 219.24 493.56 193.60 466.87
  Q 187.36 460.37 148.30 419.97
  Q 110.74 381.12 73.29 339.90
  Q 58.35 323.46 44.03 306.73
  C 41.58 303.87 35.54 297.05 36.00 293.84
  A 2.01 1.93 -78.0 0 1 38.46 292.17
  Z"
/>
<path fill="#0a0c43" d="
  M 180.56 434.38
  A 0.29 0.28 -74.6 0 1 180.13 434.63
  Q 177.21 432.74 174.97 429.71
  C 171.44 424.91 174.03 415.22 176.35 410.36
  C 180.66 401.31 189.13 394.28 198.89 391.55
  Q 202.13 390.64 209.68 390.64
  Q 440.91 390.67 569.08 390.63
  Q 582.64 390.63 587.26 392.12
  C 598.68 395.80 608.10 405.03 610.16 417.00
  A 4.44 4.44 0.0 0 1 608.51 421.27
  L 605.95 423.25
  A 1.24 1.23 62.9 0 1 604.01 422.62
  Q 603.15 419.63 602.87 418.57
  C 600.48 409.52 593.67 402.62 585.25 399.69
  Q 581.42 398.36 570.59 398.36
  Q 437.28 398.40 207.56 398.37
  C 193.87 398.37 182.94 408.70 180.81 421.87
  C 180.26 425.32 180.50 430.08 180.56 434.38
  Z"
/>
<path fill="#0a0c43" d="
  M 198.91 453.30
  A 0.33 0.32 -72.6 0 1 198.40 453.57
  C 193.62 450.28 188.98 445.81 188.43 439.86
  Q 188.26 437.97 188.37 429.53
  C 188.52 418.88 194.66 409.44 205.14 406.89
  Q 207.29 406.37 213.62 406.37
  Q 368.84 406.52 558.50 406.31
  Q 567.22 406.30 571.17 406.33
  Q 580.12 406.40 583.61 407.83
  C 592.40 411.43 596.63 419.99 596.34 429.68
  C 596.15 436.10 593.17 441.20 588.05 444.64
  A 0.90 0.90 0.0 0 1 586.65 443.89
  L 586.65 433.96
  A 1.15 1.15 0.0 0 0 585.50 432.81
  L 199.80 432.81
  A 0.89 0.89 0.0 0 0 198.91 433.70
  L 198.91 453.30
  Z"
/>
<path fill="#0a0c43" d="
  M 307.42 455.25
  C 307.42 448.29 311.58 443.78 318.60 443.79
  Q 353.87 443.82 409.88 443.81
  C 413.60 443.81 415.95 446.28 419.66 449.75
  Q 434.01 463.15 447.28 477.29
  C 450.18 480.39 450.81 482.87 450.82 487.56
  Q 450.95 593.18 450.78 604.95
  Q 450.69 611.42 446.09 614.13
  Q 443.56 615.62 435.62 615.62
  Q 335.49 615.66 319.05 615.52
  Q 311.78 615.47 308.92 610.24
  Q 307.37 607.40 307.38 598.50
  Q 307.46 532.42 307.42 455.25
  Z
  M 442.70 489.01
  Q 428.45 489.06 414.97 489.03
  C 407.25 489.01 406.05 483.69 406.23 476.86
  Q 406.26 475.59 406.23 452.83
  A 1.91 1.91 0.0 0 0 404.32 450.92
  Q 372.19 450.92 320.93 450.90
  C 317.72 450.90 315.18 451.66 314.95 455.00
  Q 314.72 458.33 314.73 462.25
  Q 314.76 577.57 314.86 603.03
  Q 314.88 608.36 320.48 608.36
  Q 419.48 608.32 433.25 608.35
  Q 437.32 608.36 441.17 607.96
  A 2.42 2.41 -84.1 0 0 443.23 606.28
  Q 443.76 604.58 443.77 601.50
  Q 443.85 570.49 443.78 490.09
  A 1.08 1.08 0.0 0 0 442.70 489.01
  Z
  M 412.96 481.26
  A 1.56 1.56 0.0 0 0 414.52 482.82
  L 439.23 482.82
  A 1.56 1.56 0.0 0 0 440.35 480.18
  L 415.64 454.64
  A 1.56 1.56 0.0 0 0 412.96 455.73
  L 412.96 481.26
  Z"
/>
<path fill="#0a0c43" d="
  M 168.04 538.65
  Q 152.49 539.15 136.97 538.95
  Q 134.28 538.91 132.45 539.64
  A 2.50 2.49 -4.7 0 0 130.92 541.44
  Q 130.40 543.89 131.13 546.58
  A 1.82 1.80 -80.0 0 0 131.81 547.56
  Q 134.91 549.84 139.01 549.95
  Q 147.52 550.18 155.99 550.19
  C 159.69 550.20 163.99 550.75 168.00 551.01
  Q 168.23 556.13 163.50 556.25
  Q 158.97 556.36 154.35 556.18
  A 1.21 1.21 0.0 0 0 153.10 557.44
  C 153.36 563.16 153.27 568.12 148.62 572.12
  C 146.74 573.74 142.76 575.55 139.95 576.23
  Q 130.57 578.51 120.90 578.99
  A 1.31 1.30 -1.4 0 0 119.65 580.29
  L 119.65 613.86
  A 2.95 2.94 -72.0 0 0 120.86 616.24
  L 149.70 637.23
  A 3.43 3.43 0.0 0 1 150.46 642.01
  L 150.25 642.31
  A 3.37 3.36 36.0 0 1 145.54 643.05
  L 117.66 622.76
  A 1.95 1.94 48.6 0 0 115.60 622.63
  L 84.64 639.40
  A 3.26 3.25 61.4 0 1 80.22 638.09
  L 79.92 637.53
  A 3.38 3.38 0.0 0 1 81.28 632.94
  L 111.26 616.69
  A 2.61 2.59 -14.4 0 0 112.62 614.41
  L 112.62 580.51
  A 1.33 1.32 0.9 0 0 111.33 579.19
  Q 100.18 578.89 89.55 576.67
  C 83.46 575.39 76.26 571.99 75.11 565.22
  C 73.49 555.62 82.37 552.35 89.93 551.77
  A 0.80 0.80 0.0 0 0 90.66 550.84
  L 84.50 514.70
  A 1.70 1.70 0.0 0 0 82.69 513.29
  Q 69.04 514.34 59.50 514.07
  C 54.58 513.94 50.15 512.25 48.36 507.45
  Q 46.99 503.78 46.17 496.26
  Q 42.38 461.44 42.36 461.24
  C 41.89 455.60 41.68 449.76 46.90 446.79
  Q 48.91 445.65 56.27 445.82
  C 67.86 446.09 74.58 445.90 83.98 446.43
  Q 92.31 446.91 101.41 446.93
  C 105.23 446.95 107.32 447.25 110.87 447.56
  C 118.71 448.24 122.31 453.76 123.19 461.04
  Q 126.19 485.71 127.12 493.70
  C 127.81 499.60 128.65 506.72 123.24 510.66
  Q 121.18 512.16 113.45 512.54
  Q 99.83 513.21 93.74 513.28
  A 1.71 1.71 0.0 0 0 92.06 515.20
  Q 94.10 531.99 97.92 549.10
  A 1.30 1.29 83.5 0 0 99.18 550.11
  L 123.00 550.11
  A 1.26 1.26 0.0 0 0 124.21 548.51
  Q 123.81 547.09 123.52 543.45
  Q 122.91 535.86 129.99 533.26
  C 133.42 531.99 136.24 532.06 139.77 531.94
  Q 147.30 531.67 158.51 531.55
  Q 162.69 531.51 166.17 532.27
  A 2.19 2.17 88.6 0 1 167.82 533.86
  Q 168.41 536.19 168.04 538.65
  Z
  M 54.20 503.14
  A 5.21 5.21 0.0 0 0 59.58 507.72
  L 115.99 505.46
  A 5.21 5.21 0.0 0 0 120.95 499.63
  L 116.07 459.19
  A 5.21 5.21 0.0 0 0 111.10 454.61
  L 54.14 452.36
  A 5.21 5.21 0.0 0 0 48.76 458.19
  L 54.20 503.14
  Z
  M 114.31 573.05
  C 122.89 572.99 132.94 572.46 141.25 569.29
  C 144.99 567.87 147.17 565.75 146.40 561.65
  C 145.27 555.62 119.15 555.87 114.20 555.91
  C 109.24 555.94 83.13 556.01 82.07 562.05
  C 81.35 566.16 83.56 568.25 87.32 569.63
  C 95.66 572.69 105.73 573.10 114.31 573.05
  Z"
/>
<path fill="#0a0c43" d="
  M 595.10 663.74
  A 0.50 0.50 0.0 0 0 595.31 664.57
  Q 606.43 667.96 614.52 676.41
  C 636.01 698.85 647.31 710.52 657.45 723.07
  C 661.40 727.96 664.55 735.38 663.72 741.57
  C 661.72 756.53 647.21 758.67 634.75 758.68
  Q 403.66 758.87 152.75 758.64
  C 143.56 758.63 135.04 758.68 127.63 754.69
  C 116.11 748.50 115.85 736.00 122.47 725.71
  Q 126.30 719.76 132.44 712.93
  Q 150.79 692.52 170.55 673.82
  Q 178.30 666.48 188.19 664.17
  A 0.76 0.75 -33.2 0 0 188.47 662.83
  C 185.82 660.86 184.48 659.94 182.85 658.08
  Q 177.07 651.45 174.67 642.80
  Q 173.35 638.05 173.36 625.56
  Q 173.44 519.35 173.38 456.92
  A 2.09 2.08 -71.1 0 1 176.74 455.27
  L 178.16 456.38
  A 6.47 6.47 0.0 0 1 180.66 461.80
  Q 180.61 462.99 180.61 623.37
  Q 180.61 637.57 182.13 642.46
  C 185.67 653.93 195.64 663.21 208.25 663.22
  Q 298.10 663.32 574.26 663.23
  Q 579.47 663.23 583.83 661.79
  C 592.76 658.83 599.58 649.89 602.35 641.30
  Q 603.88 636.56 603.87 623.07
  Q 603.84 535.56 603.85 454.23
  A 6.55 6.53 71.2 0 1 606.38 449.06
  L 607.51 448.18
  A 2.18 2.18 0.0 0 1 611.03 449.90
  Q 611.05 491.94 611.01 632.98
  Q 611.01 647.01 601.13 658.53
  C 599.44 660.49 596.82 662.00 595.10 663.74
  Z
  M 390.92 732.79
  Q 395.19 732.79 638.00 732.78
  Q 648.54 732.78 653.34 732.86
  A 1.01 1.01 0.0 0 0 654.36 731.77
  Q 654.30 731.07 653.63 730.10
  Q 647.87 721.85 639.43 712.95
  Q 627.09 699.94 614.37 686.74
  C 607.48 679.60 601.61 673.95 592.26 671.32
  Q 588.60 670.29 580.15 670.28
  Q 537.97 670.22 390.92 670.21
  Q 243.87 670.20 201.69 670.26
  Q 193.24 670.26 189.58 671.29
  C 180.23 673.92 174.36 679.57 167.47 686.71
  Q 154.75 699.91 142.40 712.92
  Q 133.96 721.82 128.20 730.07
  Q 127.53 731.04 127.47 731.74
  A 1.01 1.01 0.0 0 0 128.49 732.83
  Q 133.29 732.75 143.83 732.75
  Q 386.64 732.79 390.92 732.79
  Z
  M 391.18 752.84
  Q 478.87 752.84 498.75 752.74
  Q 503.18 752.72 505.04 752.73
  Q 590.74 753.10 636.06 752.47
  C 643.08 752.37 653.03 751.48 656.59 744.85
  C 657.79 742.60 658.29 738.92 654.72 738.92
  Q 512.90 738.79 391.50 738.84
  Q 391.33 738.84 391.18 738.84
  Q 391.03 738.84 390.87 738.84
  Q 269.47 738.78 127.65 738.91
  C 124.08 738.91 124.58 742.59 125.78 744.84
  C 129.34 751.47 139.29 752.36 146.31 752.46
  Q 191.63 753.09 277.33 752.72
  Q 279.19 752.71 283.62 752.73
  Q 303.50 752.83 391.18 752.84
  Z"
/>
<path fill="#0a0c43" d="
  M 617.48 553.15
  L 666.91 551.89
  A 6.60 6.59 -79.9 0 0 672.87 547.73
  L 673.09 547.17
  A 2.98 2.98 0.0 0 0 670.33 543.09
  L 617.70 543.05
  Q 615.83 536.71 620.50 536.69
  Q 640.80 536.57 662.39 536.85
  A 0.65 0.65 0.0 0 0 662.64 535.60
  Q 650.65 530.71 641.49 526.95
  Q 631.45 522.84 621.03 523.22
  A 3.16 3.15 89.0 0 1 617.76 520.06
  L 617.76 519.72
  A 3.30 3.28 88.1 0 1 620.83 516.43
  Q 630.98 515.75 640.27 518.99
  Q 655.64 524.34 673.86 532.14
  C 680.07 534.79 680.92 540.31 679.90 546.39
  A 1.61 1.61 0.0 0 0 681.68 548.26
  L 684.41 547.93
  A 2.70 2.69 -89.1 0 0 686.74 545.66
  L 689.60 526.55
  A 1.21 1.21 0.0 0 0 688.52 525.17
  Q 687.14 525.05 673.89 523.80
  Q 664.49 522.92 662.30 521.21
  C 657.52 517.48 656.83 512.75 657.54 506.47
  C 659.17 492.15 660.63 482.69 662.57 468.32
  Q 663.60 460.62 669.39 457.47
  Q 671.92 456.09 678.38 456.12
  Q 699.49 456.19 715.21 457.06
  C 723.23 457.50 725.75 463.94 724.78 471.01
  Q 721.43 495.33 718.54 513.26
  C 717.45 519.96 716.04 524.73 708.90 525.58
  Q 703.77 526.18 698.34 525.55
  A 1.42 1.41 -82.3 0 0 696.79 526.74
  L 693.61 548.05
  A 0.97 0.97 0.0 0 0 694.55 549.17
  C 699.94 549.28 706.43 552.12 708.02 557.61
  C 712.15 571.82 684.91 576.49 676.15 576.81
  A 1.49 1.49 0.0 0 0 674.71 578.30
  L 674.71 605.39
  A 2.64 2.63 16.5 0 0 675.91 607.60
  Q 687.59 615.16 698.41 621.86
  Q 700.96 623.45 704.96 626.55
  C 707.35 628.40 705.79 631.39 703.40 632.36
  A 1.98 1.94 -43.7 0 1 701.90 632.34
  Q 698.73 630.99 696.49 629.54
  Q 684.12 621.49 672.19 613.79
  A 1.82 1.81 43.5 0 0 670.15 613.84
  L 640.43 635.02
  A 3.51 3.50 -34.5 0 1 635.47 634.10
  L 635.32 633.86
  A 3.59 3.59 0.0 0 1 636.19 628.88
  Q 648.58 620.06 666.04 607.80
  Q 667.42 606.83 667.47 604.49
  Q 667.74 593.31 667.33 578.07
  A 1.08 1.07 0.9 0 0 666.30 577.02
  Q 653.60 576.44 641.46 572.28
  C 635.88 570.37 629.73 567.24 630.11 560.33
  A 1.41 1.41 0.0 0 0 628.66 558.85
  Q 626.10 558.92 621.49 558.67
  Q 616.15 558.39 617.48 553.15
  Z
  M 705.64 519.62
  A 5.29 5.29 0.0 0 0 711.34 515.13
  L 718.12 469.72
  A 5.29 5.29 0.0 0 0 712.97 463.65
  L 674.84 463.12
  A 5.29 5.29 0.0 0 0 669.53 467.70
  L 663.80 510.41
  A 5.29 5.29 0.0 0 0 668.58 516.38
  L 705.64 519.62
  Z
  M 702.12 560.25
  Q 701.57 556.58 698.03 555.63
  Q 690.49 553.62 680.11 554.19
  C 675.48 554.44 671.21 557.82 666.75 557.84
  Q 644.60 557.94 642.00 558.05
  Q 639.54 558.15 637.52 558.60
  A 1.94 1.94 0.0 0 0 636.36 561.60
  Q 638.91 565.26 643.52 566.80
  C 661.24 572.71 682.08 573.41 698.47 564.91
  Q 700.77 563.72 701.91 561.48
  A 2.07 2.05 54.9 0 0 702.12 560.25
  Z"
/>
<path fill="#0a0c43" d="
  M 594.84 461.88
  A 0.75 0.75 0.0 0 1 596.11 462.42
  Q 595.94 505.25 596.08 622.12
  Q 596.10 633.42 595.00 637.21
  C 591.78 648.30 583.21 655.31 571.50 655.30
  Q 277.82 655.29 215.00 655.31
  C 209.99 655.31 205.35 654.73 201.04 652.49
  Q 188.37 645.90 188.41 629.51
  Q 188.58 558.34 188.40 469.06
  A 0.69 0.68 -73.7 0 1 189.45 468.48
  C 193.44 471.06 198.69 475.72 198.66 481.01
  Q 198.45 527.84 198.63 621.77
  C 198.64 628.26 202.42 627.40 207.91 627.39
  Q 509.89 627.35 581.26 627.42
  C 583.34 627.42 585.50 626.83 586.09 624.33
  Q 586.65 621.94 586.65 620.23
  Q 586.64 528.24 586.66 471.63
  A 4.35 4.32 -22.2 0 1 587.98 468.52
  L 594.84 461.88
  Z
  M 358.56 641.73
  A 4.52 4.52 0.0 0 0 354.04 637.21
  A 4.52 4.52 0.0 0 0 349.52 641.73
  A 4.52 4.52 0.0 0 0 354.04 646.25
  A 4.52 4.52 0.0 0 0 358.56 641.73
  Z
  M 396.88 641.73
  A 4.38 4.38 0.0 0 0 392.50 637.35
  A 4.38 4.38 0.0 0 0 388.12 641.73
  A 4.38 4.38 0.0 0 0 392.50 646.11
  A 4.38 4.38 0.0 0 0 396.88 641.73
  Z
  M 435.85 641.61
  A 4.38 4.38 0.0 0 0 431.47 637.23
  A 4.38 4.38 0.0 0 0 427.09 641.61
  A 4.38 4.38 0.0 0 0 431.47 645.99
  A 4.38 4.38 0.0 0 0 435.85 641.61
  Z"
/>
<path fill="#cf5f25" d="
  M 168.04 538.65
  L 168.00 551.01
  C 163.99 550.75 159.69 550.20 155.99 550.19
  Q 147.52 550.18 139.01 549.95
  Q 134.91 549.84 131.81 547.56
  A 1.82 1.80 -80.0 0 1 131.13 546.58
  Q 130.40 543.89 130.92 541.44
  A 2.50 2.49 -4.7 0 1 132.45 539.64
  Q 134.28 538.91 136.97 538.95
  Q 152.49 539.15 168.04 538.65
  Z"
/>
<path fill="#cf5f25" d="
  M 617.48 553.15
  L 617.70 543.05
  L 670.33 543.09
  A 2.98 2.98 0.0 0 1 673.09 547.17
  L 672.87 547.73
  A 6.60 6.59 -79.9 0 1 666.91 551.89
  L 617.48 553.15
  Z"
/>
<rect fill="#0a0c43" x="-33.90" y="-3.06" transform="translate(72.57,597.56) rotate(0.1)" width="67.80" height="6.12" rx="2.89"/>
<rect fill="#0a0c43" x="-21.34" y="-3.14" transform="translate(144.96,597.57) rotate(-0.1)" width="42.68" height="6.28" rx="2.49"/>
<rect fill="#0a0c43" x="-23.23" y="-3.14" transform="translate(639.92,597.56) rotate(0.1)" width="46.46" height="6.28" rx="2.75"/>
<rect fill="#0a0c43" x="677.98" y="594.48" width="87.54" height="6.16" rx="3.03"/>
</g>
<g>
<path fill="#f3d2b3" d="
  M 54.20 503.14
  L 48.76 458.19
  A 5.21 5.21 0.0 0 1 54.14 452.36
  L 111.10 454.61
  A 5.21 5.21 0.0 0 1 116.07 459.19
  L 120.95 499.63
  A 5.21 5.21 0.0 0 1 115.99 505.46
  L 59.58 507.72
  A 5.21 5.21 0.0 0 1 54.20 503.14
  Z"
/>
<path fill="#cf5f25" d="
  M 412.96 481.26
  L 412.96 455.73
  A 1.56 1.56 0.0 0 1 415.64 454.64
  L 440.35 480.18
  A 1.56 1.56 0.0 0 1 439.23 482.82
  L 414.52 482.82
  A 1.56 1.56 0.0 0 1 412.96 481.26
  Z"
/>
<path fill="#f3d2b3" d="
  M 705.64 519.62
  L 668.58 516.38
  A 5.29 5.29 0.0 0 1 663.80 510.41
  L 669.53 467.70
  A 5.29 5.29 0.0 0 1 674.84 463.12
  L 712.97 463.65
  A 5.29 5.29 0.0 0 1 718.12 469.72
  L 711.34 515.13
  A 5.29 5.29 0.0 0 1 705.64 519.62
  Z"
/>
<path fill="#5a7080" d="
  M 701.91 561.48
  Q 700.77 563.72 698.47 564.91
  C 682.08 573.41 661.24 572.71 643.52 566.80
  Q 638.91 565.26 636.36 561.60
  A 1.94 1.94 0.0 0 1 637.52 558.60
  Q 639.54 558.15 642.00 558.05
  Q 644.60 557.94 666.75 557.84
  C 671.21 557.82 675.48 554.44 680.11 554.19
  Q 690.49 553.62 698.03 555.63
  Q 701.57 556.58 702.12 560.25
  A 2.07 2.05 54.9 0 1 701.91 561.48
  Z"
/>
<path fill="#5a7080" d="
  M 114.20 555.91
  C 119.15 555.87 145.27 555.62 146.40 561.65
  C 147.17 565.75 144.99 567.87 141.25 569.29
  C 132.94 572.46 122.89 572.99 114.31 573.05
  C 105.73 573.10 95.66 572.69 87.32 569.63
  C 83.56 568.25 81.35 566.16 82.07 562.05
  C 83.13 556.01 109.24 555.94 114.20 555.91
  Z"
/>
<path fill="#2b4664" d="
  M 391.18 738.84
  Q 391.33 738.84 391.50 738.84
  Q 512.90 738.79 654.72 738.92
  C 658.29 738.92 657.79 742.60 656.59 744.85
  C 653.03 751.48 643.08 752.37 636.06 752.47
  Q 590.74 753.10 505.04 752.73
  Q 503.18 752.72 498.75 752.74
  Q 478.87 752.84 391.18 752.84
  Q 303.50 752.83 283.62 752.73
  Q 279.19 752.71 277.33 752.72
  Q 191.63 753.09 146.31 752.46
  C 139.29 752.36 129.34 751.47 125.78 744.84
  C 124.58 742.59 124.08 738.91 127.65 738.91
  Q 269.47 738.78 390.87 738.84
  Q 391.03 738.84 391.18 738.84
  Z"
/>
</g>
<g>
<path fill="#0a0c43" d="
  M 678.97 54.85
  Q 675.00 66.62 669.80 76.90
  A 2.24 2.24 0.0 0 1 667.26 78.07
  Q 659.46 76.16 653.20 78.60
  C 638.33 84.39 635.28 103.71 646.50 114.40
  Q 652.69 120.30 661.89 120.43
  C 664.72 120.47 668.50 119.36 671.12 118.88
  A 2.53 2.53 0.0 0 1 673.65 119.90
  Q 679.48 128.10 683.39 134.47
  Q 684.23 135.83 684.93 137.44
  A 2.49 2.49 0.0 0 1 684.04 140.49
  C 672.61 148.22 658.47 149.28 645.31 144.68
  C 622.59 136.74 610.29 113.27 614.67 89.85
  C 618.18 71.07 632.40 55.93 650.77 50.77
  C 660.03 48.17 669.79 48.57 678.42 53.41
  A 1.21 1.21 0.0 0 1 678.97 54.85
  Z"
/>
<path fill="#0a0c43" d="
  M 464.06 142.19
  A 7.36 7.36 0.0 0 1 456.70 149.55
  L 341.04 149.55
  A 7.36 7.36 0.0 0 1 333.68 142.19
  L 333.68 60.71
  A 7.36 7.36 0.0 0 1 341.04 53.35
  L 456.70 53.35
  A 7.36 7.36 0.0 0 1 464.06 60.71
  L 464.06 142.19
  Z
  M 340.14 126.64
  L 339.56 141.34
  A 1.90 1.89 -88.8 0 0 341.45 143.32
  L 456.99 143.31
  A 1.69 1.69 0.0 0 0 458.68 141.64
  Q 458.77 131.63 458.40 120.63
  Q 458.36 119.45 457.50 118.24
  Q 457.90 117.84 457.90 117.25
  Q 457.89 91.44 457.81 61.96
  A 1.56 1.54 -86.6 0 0 456.46 60.43
  Q 454.76 60.20 453.25 60.21
  Q 447.98 60.22 344.75 60.22
  Q 342.10 60.22 341.75 60.33
  Q 340.34 60.79 340.28 62.72
  Q 340.14 67.89 340.14 73.00
  Q 340.12 99.49 340.14 126.64
  Z"
/>
<path fill="#cf5f25" d="
  M 692.76 133.47
  A 1.59 1.59 0.0 0 1 690.82 133.00
  L 676.73 114.85
  A 0.89 0.89 0.0 0 1 676.70 113.81
  Q 687.99 97.04 674.44 81.50
  A 1.81 1.81 0.0 0 1 674.15 79.55
  Q 680.34 65.96 682.76 61.30
  Q 683.58 59.72 684.70 59.05
  A 1.19 1.16 -47.6 0 1 685.78 58.99
  Q 692.81 62.20 698.47 68.92
  C 713.85 87.19 714.04 113.55 696.60 130.65
  Q 694.61 132.60 692.76 133.47
  Z"
/>
<rect fill="#5a7080" x="79.89" y="65.75" width="121.60" height="8.40" rx="4.16"/>
<rect fill="#cf5f25" x="69.08" y="87.53" width="115.16" height="7.86" rx="3.89"/>
<rect fill="#5a7080" x="89.81" y="114.26" width="118.94" height="8.66" rx="4.29"/>
<path fill="#cf5f25" d="
  M 294.95 249.76
  L 289.98 244.98
  Q 286.93 241.42 282.11 237.16
  Q 280.45 235.69 282.03 234.04
  Q 282.76 233.27 286.94 232.21
  Q 297.01 229.64 311.73 225.94
  Q 314.17 225.32 316.15 226.03
  A 2.15 2.15 0.0 0 1 317.51 228.58
  L 309.99 258.36
  A 1.87 1.87 0.0 0 1 307.41 259.60
  Q 305.27 258.64 302.96 256.53
  Q 298.91 252.83 294.95 249.76
  Z"
/>
<path fill="#cf5f25" d="
  M 489.94 300.04
  Q 470.97 300.43 459.75 300.14
  Q 459.17 300.13 458.80 299.46
  Q 459.15 297.66 459.15 295.75
  Q 459.12 254.38 459.17 240.55
  C 459.20 231.84 459.25 228.16 468.65 228.16
  Q 475.84 228.17 480.24 228.21
  C 486.22 228.26 489.99 229.99 490.14 236.64
  C 490.35 246.02 490.28 263.63 490.47 277.93
  Q 490.61 288.60 489.94 300.04
  Z"
/>
<path fill="#cf5f25" d="
  M 534.36 299.98
  Q 518.69 300.59 502.94 299.78
  Q 502.78 282.86 503.19 253.00
  C 503.26 248.00 503.64 243.15 510.00 242.97
  Q 521.73 242.64 527.75 243.06
  Q 534.50 243.53 534.57 250.50
  Q 534.85 274.83 534.36 299.98
  Z"
/>
<path fill="#0a0c43" d="
  M 294.95 249.76
  Q 286.77 258.66 277.99 266.74
  Q 265.06 278.64 249.20 293.44
  Q 243.88 298.40 238.16 293.89
  Q 226.29 284.53 210.48 271.05
  Q 209.11 269.89 207.50 269.34
  A 1.76 1.76 0.0 0 0 206.06 269.47
  Q 204.02 270.60 201.96 272.71
  Q 191.13 283.76 169.55 305.09
  A 4.25 4.24 -48.1 0 1 163.94 305.40
  L 163.81 305.30
  A 3.38 3.38 0.0 0 1 163.50 300.27
  Q 179.25 284.34 197.87 265.87
  C 202.58 261.19 206.73 258.82 212.73 263.54
  Q 221.77 270.65 240.97 286.57
  C 242.61 287.93 244.14 287.87 245.67 286.42
  Q 259.41 273.39 289.98 244.98
  L 294.95 249.76
  Z"
/>
<path fill="#cf5f25" d="
  M 578.29 299.88
  Q 576.97 300.17 576.24 300.16
  Q 562.74 300.00 549.24 300.02
  Q 548.07 300.02 547.49 299.62
  Q 547.57 285.22 547.71 270.99
  Q 547.78 263.46 554.70 263.38
  Q 561.30 263.29 568.00 263.30
  C 574.59 263.30 578.36 264.18 578.33 271.75
  Q 578.28 285.49 578.29 299.88
  Z"
/>
<path fill="#0a0c43" d="
  M 458.80 299.46
  Q 459.17 300.13 459.75 300.14
  Q 470.97 300.43 489.94 300.04
  Q 496.59 300.62 501.62 300.40
  Q 502.53 300.36 502.94 299.78
  Q 518.69 300.59 534.36 299.98
  Q 539.45 300.54 544.73 300.53
  Q 546.71 300.52 547.49 299.62
  Q 548.07 300.02 549.24 300.02
  Q 562.74 300.00 576.24 300.16
  Q 576.97 300.17 578.29 299.88
  L 593.15 300.31
  A 2.96 2.96 0.0 0 1 596.03 303.48
  L 596.00 303.90
  A 3.34 3.33 -88.0 0 1 592.68 307.00
  L 445.95 307.00
  A 2.96 2.96 0.0 0 1 442.99 304.04
  L 442.99 303.40
  A 3.29 3.28 -1.2 0 1 446.14 300.12
  Q 454.44 299.78 457.75 300.00
  Q 458.21 300.03 458.80 299.46
  Z"
/>
<path fill="#cf5f25" d="
  M 405.76 511.51
  Q 404.73 512.31 402.31 512.36
  Q 390.84 512.59 381.11 512.23
  A 2.58 2.58 0.0 0 1 378.72 510.39
  Q 377.98 507.92 377.94 504.25
  Q 377.82 495.65 377.98 485.76
  C 378.10 478.40 386.97 481.52 390.77 483.19
  Q 405.97 489.91 407.19 506.44
  Q 407.32 508.09 406.33 510.74
  A 1.80 1.73 82.8 0 1 405.76 511.51
  Z"
/>
<path fill="#cf5f25" d="
  M 373.40 516.52
  A 1.05 1.05 0.0 0 0 374.44 517.56
  Q 377.35 517.57 399.25 517.69
  Q 401.24 517.70 403.53 518.42
  A 0.91 0.90 1.8 0 1 404.16 519.08
  Q 405.10 522.80 404.66 524.90
  C 398.97 551.76 363.95 560.36 346.80 538.22
  C 338.88 528.00 337.34 512.24 343.74 500.80
  Q 351.80 486.40 368.26 484.23
  Q 369.77 484.03 371.41 484.67
  A 1.51 1.49 84.3 0 1 372.16 485.29
  Q 373.49 487.48 373.44 491.51
  Q 373.25 506.03 373.40 516.52
  Z"
/>
<rect fill="#0a0c43" x="334.92" y="564.10" width="88.34" height="6.90" rx="3.21"/>
<rect fill="#0a0c43" x="-31.68" y="-3.51" transform="translate(366.16,588.44) rotate(0.1)" width="63.36" height="7.02" rx="3.17"/>
<path fill="#0a0c43" d="
  M 228.21 685.43
  L 223.54 693.51
  A 3.40 3.40 0.0 0 1 220.60 695.21
  L 186.19 695.21
  A 3.40 3.40 0.0 0 1 183.83 689.37
  L 192.17 681.29
  A 3.40 3.40 0.0 0 1 194.54 680.33
  L 225.26 680.33
  A 3.40 3.40 0.0 0 1 228.21 685.43
  Z"
/>
<path fill="#0a0c43" d="
  M 296.70 684.67
  L 293.10 693.27
  A 3.13 3.13 0.0 0 1 290.22 695.19
  L 237.00 695.19
  A 3.13 3.13 0.0 0 1 234.38 690.35
  L 239.97 681.75
  A 3.13 3.13 0.0 0 1 242.60 680.33
  L 293.81 680.33
  A 3.13 3.13 0.0 0 1 296.70 684.67
  Z"
/>
<path fill="#0a0c43" d="
  M 354.23 684.87
  L 352.32 692.45
  A 3.65 3.65 0.0 0 1 348.78 695.21
  L 305.79 695.21
  A 3.65 3.65 0.0 0 1 302.25 690.67
  L 304.16 683.09
  A 3.65 3.65 0.0 0 1 307.70 680.33
  L 350.69 680.33
  A 3.65 3.65 0.0 0 1 354.23 684.87
  Z"
/>
<path fill="#0a0c43" d="
  M 363.50 695.25
  A 1.82 1.82 0.0 0 1 361.68 693.43
  L 361.67 686.31
  A 5.94 4.15 89.9 0 1 365.81 680.36
  L 416.17 680.28
  A 5.94 4.15 89.9 0 1 420.33 686.21
  L 420.34 693.33
  A 1.82 1.82 0.0 0 1 418.52 695.15
  L 363.50 695.25
  Z"
/>
<path fill="#0a0c43" d="
  M 479.27 683.13
  L 481.36 690.30
  A 3.85 3.85 0.0 0 1 477.66 695.23
  L 433.48 695.23
  A 3.85 3.85 0.0 0 1 429.78 692.45
  L 427.70 685.28
  A 3.85 3.85 0.0 0 1 431.40 680.36
  L 475.57 680.36
  A 3.85 3.85 0.0 0 1 479.27 683.13
  Z"
/>
<path fill="#0a0c43" d="
  M 489.89 693.13
  L 486.71 684.64
  A 3.19 3.19 0.0 0 1 489.69 680.33
  L 545.33 680.33
  A 3.19 3.19 0.0 0 1 548.14 682.00
  L 552.74 690.49
  A 3.19 3.19 0.0 0 1 549.93 695.20
  L 492.88 695.20
  A 3.19 3.19 0.0 0 1 489.89 693.13
  Z"
/>
<path fill="#0a0c43" d="
  M 562.43 693.49
  L 557.86 685.05
  A 3.20 3.20 0.0 0 1 560.67 680.33
  L 588.97 680.33
  A 3.20 3.20 0.0 0 1 591.27 681.31
  L 599.43 689.75
  A 3.20 3.20 0.0 0 1 597.13 695.17
  L 565.25 695.17
  A 3.20 3.20 0.0 0 1 562.43 693.49
  Z"
/>
<path fill="#0a0c43" d="
  M 331.88 727.61
  A 6.37 6.37 0.0 0 1 325.51 721.24
  L 325.51 716.92
  A 15.51 13.56 -90.0 0 1 339.07 701.41
  L 440.91 701.41
  A 15.51 13.56 -90.0 0 1 454.47 716.92
  L 454.47 721.24
  A 6.37 6.37 0.0 0 1 448.10 727.61
  L 331.88 727.61
  Z
  M 332.86 715.83
  A 3.61 3.61 0.0 0 0 336.19 720.83
  L 443.91 720.83
  A 3.61 3.61 0.0 0 0 447.29 715.95
  L 445.42 710.97
  A 3.61 3.61 0.0 0 0 442.04 708.63
  L 338.27 708.63
  A 3.61 3.61 0.0 0 0 334.93 710.85
  L 332.86 715.83
  Z"
/>
</g>
<path fill="#cf5f25" d="
  M 457.50 118.24
  Q 458.36 119.45 458.40 120.63
  Q 458.77 131.63 458.68 141.64
  A 1.69 1.69 0.0 0 1 456.99 143.31
  L 341.45 143.32
  A 1.90 1.89 -88.8 0 1 339.56 141.34
  L 340.14 126.64
  Q 349.36 116.89 357.51 107.76
  Q 360.33 104.60 363.07 103.34
  C 366.01 101.98 371.15 105.92 373.59 107.97
  Q 384.47 117.09 391.36 122.65
  A 1.37 1.37 0.0 0 0 393.24 122.50
  Q 409.13 104.90 420.72 92.24
  Q 422.85 89.91 425.77 88.69
  A 1.61 1.59 -42.6 0 1 427.12 88.74
  Q 429.94 90.19 431.24 91.51
  Q 439.59 99.99 455.77 116.98
  Q 456.23 117.46 457.50 118.24
  Z"
/>
<ellipse fill="#cf5f25" cx="0.00" cy="0.00" transform="translate(377.69,83.29) rotate(-11.6)" rx="13.76" ry="12.87"/>
</svg>
