<svg xmlns="http://www.w3.org/2000/svg" fill="none" viewBox="0 0 14 14" height="14" width="14"><g id="globe-browser-click-captive-portal--globe-browser-click-captive-portal-arrow-navigation-cursor"><path id="Subtract" fill="#d76424" fill-rule="evenodd" d="M5.34636 10.9431c-0.27256 -1.06583 -0.38569 -2.20301 -0.30546 -3.38729 0.09083 -1.34072 1.15379 -2.40716 2.49408 -2.50253 1.19154 -0.08479 2.3359 0.02631 3.40842 0.29854C10.8068 2.24138 8.94346 0.5 5.72573 0.5 2.38126 0.5 0.5 2.38126 0.5 5.72573c0 3.21584 1.73934 5.07887 4.84636 5.21737Z" clip-rule="evenodd" stroke-width="1"></path><path id="Union" fill="#4d6a7f" d="M12.3171 7.72282c0.6157 0.3103 0.6774 1.1452 0.1606 1.60161 -0.2611 0.23057 -0.5195 0.43968 -0.7935 0.61607 0.568 0.5365 1.0966 1.109 1.5941 1.7256 0.2598 0.322 0.3076 0.7788 0.0558 1.1071 -0.1636 0.2134 -0.3466 0.3964 -0.56 0.56 -0.3283 0.2518 -0.7851 0.204 -1.1071 -0.0558 -0.6155 -0.4965 -1.1869 -1.0241 -1.72255 -1.5909 -0.17458 0.276 -0.38264 0.5361 -0.61266 0.7991 -0.45364 0.5187 -1.28837 0.4608 -1.60143 -0.1531 -0.69533 -1.3635 -1.0594 -2.94719 -0.94347 -4.65841 0.03182 -0.46964 0.40277 -0.84183 0.87229 -0.87524 1.70923 -0.12162 3.29272 0.23598 4.65792 0.92397Z" stroke-width="1"></path><path id="Vector" stroke="#060644" stroke-linecap="round" stroke-linejoin="round" d="M4.63358 10.8778C1.97456 10.5007 0.5 8.68664 0.5 5.72568 0.5 2.38125 2.38125 0.5 5.72568 0.5c3.01437 0 4.84012 1.52824 5.17112 4.27863" stroke-width="1"></path><path id="Vector_2" stroke="#060644" stroke-linecap="round" stroke-linejoin="round" d="M7.59655 4.6213C7.40786 2.8872 6.76895 1.38048 5.72591 0.5c-1.2593 1.06304 -1.92952 3.03892 -1.92952 5.22568 0 1.15876 0.18819 2.25831 0.5525 3.19419" stroke-width="1"></path><path id="Vector 2472" stroke="#060644" stroke-linecap="round" stroke-linejoin="round" d="M0.5 5.72465c1.70239 -0.11178 3.39814 -0.16909 5.09373 -0.17192" stroke-width="1"></path><path id="Union_2" stroke="#060644" stroke-linecap="round" stroke-linejoin="round" d="M12.3171 7.72282c0.6157 0.3103 0.6774 1.1452 0.1606 1.60161 -0.2611 0.23057 -0.5195 0.43968 -0.7935 0.61607 0.568 0.5365 1.0966 1.109 1.5941 1.7256 0.2598 0.322 0.3076 0.7788 0.0558 1.1071 -0.1636 0.2134 -0.3466 0.3964 -0.56 0.56 -0.3283 0.2518 -0.7851 0.204 -1.1071 -0.0558 -0.6155 -0.4965 -1.1869 -1.0241 -1.72255 -1.5909 -0.17458 0.276 -0.38264 0.5361 -0.61266 0.7991 -0.45364 0.5187 -1.28837 0.4608 -1.60143 -0.1531 -0.69533 -1.3635 -1.0594 -2.94719 -0.94347 -4.65841 0.03182 -0.46964 0.40277 -0.84183 0.87229 -0.87524 1.70923 -0.12162 3.29272 0.23598 4.65792 0.92397Z" stroke-width="1"></path></g></svg>