<svg xmlns="http://www.w3.org/2000/svg" fill="none" viewBox="0 0 14 14" height="14" width="14"><g id="health-check-stats-troubleshoot--health-check-stats-troubleshoot-wave-status"><path id="Subtract" fill="#d76424" fill-rule="evenodd" d="M12.5 6.62499C12.5 10.385 10.385 12.5 6.62497 12.5c-3.13734 0 -5.12945 -1.4725 -5.703205 -4.14451l1.068315 0.06387c0.40356 0.02413 0.86186 0.03958 1.26568 0.01764 0.16749 -0.0091 0.43297 -0.02494 0.70418 -0.09071 0.18662 -0.04525 0.41038 -0.12184 0.62884 -0.26028 0.04368 0.17329 0.09124 0.34758 0.14387 0.52171 0.07281 0.24095 0.1756 0.54019 0.32369 0.80621 0.217 0.38983 0.70625 0.96407 1.52467 0.96407 0.89459 0 1.43338 -0.63875 1.67804 -1.03052 0.23409 -0.37486 0.37611 -0.7862 0.51855 -1.19878 0.03889 -0.11265 0.07782 -0.2254 0.11866 -0.33752 0.04257 0.0028 0.08783 0.00626 0.13575 0.01041 0.1278 0.01108 0.25238 0.02969 0.41064 0.05333 0.04939 0.00738 0.10206 0.01525 0.15913 0.02353 0.21743 0.03155 0.48902 0.0671 0.77302 0.0671 0.8284 0 1.5 -0.67157 1.5 -1.5 0 -0.55281 -0.3027 -0.94378 -0.6215 -1.16801 -0.282 -0.19839 -0.6007 -0.29051 -0.8302 -0.34035 -0.3625 -0.07871 -0.80743 -0.10476 -1.02452 -0.11747 -0.04819 -0.00282 -0.08515 -0.00498 -0.10749 -0.00692l-0.019 -0.00165c-0.38345 -0.0333 -0.99808 -0.08669 -1.59454 0.09073 -0.15898 0.04729 -0.39244 0.13452 -0.62467 0.30501 -0.03758 -0.17369 -0.07786 -0.34827 -0.1219 -0.5214l-0.01289 -0.0513c-0.05199 -0.20805 -0.14672 -0.58711 -0.32738 -0.90955 -0.2299 -0.41031 -0.68394 -0.87355 -1.43503 -0.87355 -0.53353 0 -0.93368 0.23575 -1.17638 0.43934 -0.23535 0.19743 -0.39698 0.42358 -0.50166 0.59121 -0.20854 0.33393 -0.3528 0.67788 -0.46627 0.98002 -0.06582 0.17525 -0.10964 0.30084 -0.14988 0.41615l0 0.00001c-0.01772 0.05078 -0.03474 0.09956 -0.05264 0.14971 -0.18755 -0.00068 -0.40526 -0.00881 -0.63969 -0.02282 -0.18389 -0.011 -0.36617 -0.03252 -0.5815 -0.05795l-0.00002 0 -0.00018 -0.00002c-0.05413 -0.00639 -0.11034 -0.01303 -0.1692 -0.01981 -0.17427 -0.02007 -0.36747 -0.04072 -0.57036 -0.05252C1.30372 2.36981 3.33446 0.75 6.62497 0.75 10.385 0.75 12.5 2.865 12.5 6.62499Z" clip-rule="evenodd" stroke-width="1"></path><path id="Vector" stroke="#060644" stroke-linecap="round" stroke-linejoin="round" d="m13.2503 13.2493 -2.2357 -2.2356" stroke-width="1"></path><path id="Vector_2" stroke="#060644" stroke-linecap="round" stroke-linejoin="round" d="M0.934326 4.83779C1.52396 2.20168 3.50995 0.75 6.62502 0.75 10.385 0.75 12.5 2.865 12.5 6.62499 12.5 10.385 10.385 12.5 6.62502 12.5c-2.93676 0 -4.86999 -1.2903 -5.57576 -3.6468" stroke-width="1"></path><path id="Vector_3" stroke="#060644" stroke-linecap="round" stroke-linejoin="round" d="M10.375 6.46555s-2.09981 -0.36894 -2.46875 0c-0.36894 0.36894 -0.73098 2.41245 -1.325 2.41245s-0.99293 -4.50691 -1.42533 -4.50691c-0.59402 0 -0.95604 2.04352 -1.32498 2.41246C3.46201 7.15249 0.5 6.78457 0.5 6.78457" stroke-width="1"></path></g></svg>