<?xml version="1.0" encoding="UTF-8" standalone="no"?>
<!DOCTYPE svg PUBLIC "-//W3C//DTD SVG 1.0//EN" "http://www.w3.org/TR/2001/REC-SVG-20010904/DTD/svg10.dtd">
<svg xmlns="http://www.w3.org/2000/svg" version="1.0" viewBox="0.00 0.00 1024.00 839.00">
<g stroke-width="2.00" fill="none" stroke-linecap="butt">
<path stroke="#857f94" d="
  M 636.89 187.23
  Q 637.96 189.84 639.19 192.34
  Q 640.93 195.86 640.86 197.60
  Q 640.71 201.06 636.97 202.77
  Q 607.87 216.04 569.73 234.00
  Q 563.27 237.04 557.28 240.13
  Q 553.48 242.09 551.83 242.07
  C 547.66 242.03 545.40 238.12 542.56 234.68
  Q 516.50 203.01 476.25 195.99
  C 467.28 194.42 457.02 194.48 448.01 194.33
  Q 446.75 194.31 445.04 193.43
  A 1.86 1.81 -0.8 0 1 444.28 192.71
  Q 442.97 190.50 442.49 188.28
  Q 435.94 158.29 423.99 106.75
  Q 423.78 105.81 423.21 105.73"
/>
<path stroke="#857f94" d="
  M 646.01 187.83
  Q 648.79 190.14 654.50 190.16
  Q 815.97 190.74 977.34 190.78
  A 0.53 0.52 0.5 0 1 977.87 191.31
  Q 977.14 342.59 976.95 498.75
  C 976.93 521.64 976.17 555.13 976.12 578.75
  Q 976.04 619.37 975.56 647.50
  Q 975.53 649.35 975.39 650.38
  A 0.85 0.84 3.9 0 1 974.55 651.11
  Q 813.64 651.32 731.00 651.19
  Q 724.02 651.18 708.85 651.68
  A 2.40 2.39 70.3 0 1 706.87 650.74
  L 676.63 611.16"
/>
<path stroke="#e9aa7f" d="
  M 676.63 611.16
  Q 677.95 610.85 679.55 610.94
  Q 682.32 611.09 682.47 611.09
  Q 908.07 611.02 926.50 610.96
  Q 933.02 610.94 933.19 604.46
  Q 933.84 579.76 934.05 537.76
  C 934.07 535.05 934.31 530.87 932.02 529.07
  Q 929.42 527.01 927.22 527.01
  Q 769.55 527.12 620.00 526.93
  Q 616.24 526.92 612.49 527.14"
/>
<path stroke="#857f94" d="
  M 612.49 527.14
  L 592.60 501.44
  A 1.07 1.07 0.0 0 1 592.64 500.09
  L 599.75 491.97
  A 1.82 1.81 20.6 0 1 601.11 491.36
  L 722.02 491.36
  A 0.83 0.83 0.0 0 1 722.76 491.81
  C 725.13 496.46 731.09 499.90 736.20 498.51
  C 742.91 496.68 746.06 491.30 745.30 484.49
  C 744.24 475.04 732.07 471.09 725.47 477.53
  Q 723.89 479.07 723.00 480.27
  A 0.77 0.75 -71.4 0 1 722.39 480.58
  L 609.74 480.58
  A 0.46 0.46 0.0 0 1 609.37 479.84
  Q 632.95 449.19 645.45 412.90
  C 666.53 351.70 659.09 283.57 629.59 226.51
  C 626.99 221.48 620.54 222.67 618.60 227.08
  A 3.01 3.00 43.1 0 0 618.69 229.68
  Q 650.16 289.51 645.58 357.48
  C 642.55 402.52 623.96 444.85 595.61 479.88
  A 0.75 0.75 0.0 0 1 594.47 479.90
  L 568.22 449.78
  A 0.89 0.89 0.0 0 1 568.19 448.65
  Q 603.59 403.22 605.43 345.25
  C 606.48 312.01 597.45 279.58 580.71 250.56
  C 577.57 245.11 570.35 247.71 569.99 253.04
  Q 569.90 254.39 572.32 258.66
  C 593.58 296.34 600.30 340.51 589.22 382.17
  C 583.47 403.79 573.74 422.87 560.85 440.34
  A 0.87 0.86 45.7 0 1 559.45 440.32
  Q 557.17 437.08 553.75 433.89
  Q 550.08 430.47 546.82 433.80
  C 542.97 437.71 545.75 440.57 548.82 444.24
  Q 549.67 445.26 552.78 448.43
  A 1.31 1.30 -46.5 0 1 552.82 450.22
  Q 542.68 461.59 530.66 471.43
  Q 487.06 507.10 429.51 509.51
  C 392.59 511.05 355.47 501.68 325.42 480.56
  Q 311.25 470.61 299.74 458.82
  A 1.11 1.10 -40.5 0 1 299.88 457.16
  C 304.81 453.50 312.67 449.22 304.34 443.52
  Q 302.41 442.20 299.83 444.02
  Q 296.10 446.66 292.44 449.85
  A 0.95 0.94 49.6 0 1 291.09 449.74
  C 273.60 428.52 261.83 403.34 256.85 376.09
  Q 254.34 362.33 254.22 357.99
  Q 253.69 338.30 254.04 332.75
  Q 255.34 311.92 261.29 292.00
  A 0.62 0.62 0.0 0 1 262.21 291.65
  Q 266.41 294.27 270.34 295.63
  C 277.60 298.15 280.18 288.13 273.37 285.14
  Q 268.97 283.21 265.68 281.76
  A 0.68 0.67 24.5 0 1 265.34 280.87
  Q 265.65 280.21 270.83 269.06
  C 281.71 245.65 299.34 225.59 319.96 209.49
  Q 343.49 191.12 372.94 181.43
  C 388.16 176.42 403.78 173.34 419.76 171.35
  C 423.80 170.84 426.52 169.94 426.01 165.48
  Q 425.25 158.96 418.47 159.91
  Q 403.70 161.96 393.32 164.11
  Q 349.54 173.21 314.10 199.85
  Q 275.13 229.13 255.98 274.90
  A 1.35 1.35 0.0 0 1 254.17 275.60
  L 214.97 257.48
  A 0.54 0.53 -67.1 0 1 214.70 256.81
  C 238.93 192.79 296.26 145.87 361.19 127.12
  Q 382.97 120.82 406.50 119.00
  Q 411.04 118.65 412.88 117.62
  C 416.61 115.53 414.82 109.47 412.95 106.75"
/>
<path stroke="#e9aa7f" d="
  M 668.58 600.91
  Q 671.67 600.16 672.75 600.16
  Q 799.46 600.50 921.85 600.27
  A 0.67 0.66 -89.6 0 0 922.51 599.61
  L 922.84 538.35
  A 0.60 0.60 0.0 0 0 922.21 537.75
  Q 919.12 537.92 915.50 537.93
  Q 764.61 538.40 626.38 537.43
  Q 625.64 537.43 623.14 537.18
  Q 621.28 536.99 619.88 537.32"
/>
<path stroke="#713b43" d="
  M 612.49 527.14
  Q 612.40 527.48 612.63 527.86
  Q 615.86 533.20 619.88 537.32"
/>
<path stroke="#857f94" d="
  M 619.88 537.32
  L 668.58 600.91"
/>
<path stroke="#713b43" d="
  M 668.58 600.91
  Q 672.11 606.72 676.63 611.16"
/>
<path stroke="#713b43" d="
  M 930.93 662.74
  L 918.99 662.79"
/>
<path stroke="#713b43" d="
  M 746.23 700.91
  Q 749.70 706.86 754.96 713.03
  Q 755.30 713.43 756.02 713.58"
/>
<path stroke="#713b43" d="
  M 661.45 713.51
  Q 661.15 712.25 660.91 711.85
  Q 656.79 704.82 652.12 701.04"
/>
<path stroke="#713b43" d="
  M 75.50 246.97
  Q 76.12 246.37 76.22 245.24
  Q 76.67 240.26 76.25 235.28
  Q 76.18 234.46 75.52 234.03"
/>
<path stroke="#857f94" d="
  M 240.04 188.33
  Q 238.25 189.96 236.19 189.97
  Q 163.75 190.11 88.20 189.44
  A 0.25 0.25 0.0 0 0 87.95 189.69
  C 86.79 278.98 86.62 363.61 87.32 459.25
  Q 88.04 556.88 88.05 649.89
  A 1.12 1.11 90.0 0 0 89.16 651.01
  C 265.26 651.92 489.68 650.83 607.75 651.55
  Q 610.68 651.57 614.14 651.89
  A 0.41 0.40 -16.2 0 0 614.50 651.24
  L 582.24 610.07"
/>
<path stroke="#713b43" d="
  M 582.24 610.07
  Q 578.50 604.14 574.20 599.94"
/>
<path stroke="#857f94" d="
  M 574.20 599.94
  L 574.13 599.69
  A 1.03 1.01 -71.2 0 0 573.97 599.36
  L 533.29 547.22
  A 1.40 1.39 56.7 0 0 531.52 546.85
  Q 493.56 567.21 451.99 572.73
  Q 437.21 574.69 432.90 574.85
  Q 425.76 575.10 412.80 575.12
  Q 402.90 575.13 392.75 573.98
  Q 348.53 568.99 308.83 548.80
  Q 304.56 546.63 298.99 543.31
  Q 294.13 540.42 289.32 537.51"
/>
<path stroke="#713b43" d="
  M 289.32 537.51
  L 275.22 527.82"
/>
<path stroke="#857f94" d="
  M 275.22 527.82
  C 271.50 524.93 267.83 522.19 264.53 519.11
  Q 254.37 509.63 243.59 497.91
  Q 241.92 496.09 240.65 494.20
  A 1.29 1.28 -16.7 0 0 239.58 493.63
  L 166.40 493.63
  A 1.06 1.05 -75.8 0 0 165.47 494.19
  C 161.45 501.67 151.42 503.62 145.85 496.49
  C 140.12 489.17 143.37 478.11 153.27 476.94
  Q 160.86 476.04 165.12 482.07
  A 2.19 2.18 -17.2 0 0 166.92 483.01
  L 230.96 483.01
  A 0.64 0.64 0.0 0 0 231.47 481.99
  Q 205.67 447.28 194.68 405.37
  Q 188.32 381.10 187.13 359.52
  Q 185.96 338.18 187.34 322.26
  C 189.01 303.02 192.37 284.77 198.92 266.06
  A 1.28 1.27 -80.2 0 0 197.73 264.36
  L 119.99 263.94
  A 1.21 1.21 0.0 0 0 118.90 264.63
  C 116.23 270.32 109.86 273.09 103.89 270.99
  Q 98.03 268.93 96.11 262.41
  C 92.01 248.41 109.82 240.10 117.80 252.14
  A 2.15 2.14 72.9 0 0 119.58 253.09
  Q 153.48 253.04 189.00 253.52
  Q 195.75 253.61 202.81 254.09
  A 1.43 1.42 10.3 0 0 204.26 253.09
  Q 205.28 249.76 207.43 244.94
  Q 220.71 215.22 241.43 190.43
  Q 242.16 189.55 242.26 188.60"
/>
<path stroke="#e9aa7f" d="
  M 289.32 537.51
  Q 284.32 538.71 279.50 538.74
  Q 211.96 539.18 152.50 538.25
  Q 149.52 538.20 146.92 538.29
  A 0.86 0.86 0.0 0 0 146.09 539.15
  L 146.09 598.35
  A 0.99 0.99 0.0 0 0 147.08 599.34
  Q 312.41 599.98 456.83 599.87
  C 487.00 599.85 530.38 599.40 567.50 599.32
  Q 571.05 599.31 573.96 600.29
  A 0.14 0.14 0.0 0 0 574.14 600.18
  Q 574.16 600.07 574.20 599.94"
/>
<path stroke="#e9aa7f" d="
  M 275.22 527.82
  Q 209.41 528.00 144.25 527.57
  C 139.25 527.54 135.02 528.42 135.02 534.50
  Q 134.96 572.72 135.02 601.79
  C 135.03 606.63 136.17 610.31 141.51 610.29
  C 224.64 610.03 328.45 610.98 423.26 610.72
  Q 502.57 610.50 582.24 610.07"
/>
<path stroke="#713b43" d="
  M 435.84 104.19
  A 1.40 1.40 0.0 0 0 434.60 105.90
  L 452.74 182.92
  A 1.20 1.20 0.0 0 0 453.92 183.84
  Q 472.61 183.70 491.54 188.69
  C 515.04 194.89 537.08 210.02 552.05 229.06
  A 1.86 1.85 56.8 0 0 554.37 229.55
  Q 558.65 227.28 559.09 227.07
  Q 616.09 200.57 619.22 198.98
  Q 619.53 198.82 627.26 195.64
  A 1.61 1.60 62.5 0 0 628.00 193.28
  Q 606.93 160.87 576.06 138.16
  Q 564.08 129.34 551.22 123.05
  C 532.86 114.07 513.88 108.44 493.59 105.15
  C 474.56 102.07 455.22 102.47 435.84 104.19"
/>
<path stroke="#857f94" d="
  M 419.13 261.74
  Q 419.07 261.58 419.00 261.26
  Q 414.94 242.84 408.17 210.85
  Q 406.70 203.87 399.35 205.07
  Q 361.81 211.20 333.50 234.28
  C 331.11 236.23 326.21 240.13 323.16 243.25
  Q 303.56 263.36 293.85 286.09
  C 268.20 346.11 284.16 414.01 335.96 454.30
  Q 367.51 478.84 407.31 482.68
  Q 415.30 483.45 428.62 483.23
  Q 440.33 483.04 449.79 481.02
  Q 488.10 472.84 516.30 447.99
  C 542.80 424.65 560.19 392.65 563.63 357.52
  Q 567.65 316.43 548.23 277.91
  C 546.39 274.27 545.19 271.75 541.64 271.23
  Q 540.09 271.01 535.07 274.00
  Q 516.44 285.08 474.67 309.49
  C 470.89 311.70 468.39 313.63 470.50 317.90
  Q 474.83 326.64 475.91 336.81
  C 478.97 365.48 456.27 393.63 426.53 390.90
  Q 398.71 388.34 386.21 364.72
  C 371.41 336.76 388.83 303.97 419.08 298.09
  Q 426.55 296.64 424.86 288.66
  Q 422.83 279.04 419.36 262.62
  A 1.36 0.08 78.5 0 0 419.13 261.74"
/>
<path stroke="#e9aa7f" d="
  M 695.28 378.93
  A 6.20 6.20 0.0 0 0 701.45 385.16
  L 925.85 386.38
  A 6.20 6.20 0.0 0 0 932.08 380.21
  L 932.63 279.62
  A 6.20 6.20 0.0 0 0 926.46 273.39
  L 702.06 272.17
  A 6.20 6.20 0.0 0 0 695.83 278.34
  L 695.28 378.93"
/>
<path stroke="#857f94" d="
  M 282.78 456.51
  C 280.71 453.50 277.52 450.11 275.24 446.95
  C 255.94 420.15 244.99 388.54 243.07 355.51
  Q 241.02 320.30 251.06 287.51
  A 1.17 1.17 0.0 0 0 250.43 286.10
  L 211.10 267.92
  A 1.19 1.19 0.0 0 0 209.46 268.63
  Q 202.83 288.33 199.63 310.76
  Q 198.15 321.16 197.88 335.38
  Q 197.57 352.13 198.21 360.03
  Q 203.76 429.09 245.95 483.69
  A 0.72 0.72 0.0 0 0 246.95 483.83
  L 282.63 457.37
  A 0.63 0.63 0.0 0 0 282.78 456.51"
/>
<path stroke="#857f94" d="
  M 289.72 465.22
  L 254.37 491.43
  A 1.19 1.18 51.0 0 0 254.19 493.17
  Q 281.50 523.71 318.23 541.36
  Q 369.06 565.77 425.26 564.06
  C 487.39 562.16 545.56 536.40 587.08 489.86
  A 1.34 1.34 0.0 0 0 587.10 488.09
  L 561.31 458.50
  A 1.04 1.03 45.5 0 0 559.76 458.48
  C 534.38 486.13 504.30 506.02 467.78 515.04
  Q 446.15 520.38 423.58 520.95
  Q 417.11 521.12 408.96 520.42
  Q 400.58 519.69 394.40 518.80
  C 364.41 514.44 334.68 502.40 311.11 483.65
  Q 299.39 474.33 290.85 465.32
  A 0.86 0.86 0.0 0 0 289.72 465.22"
/>
<path stroke="#857f94" d="
  M 583.42 509.19
  C 570.95 521.46 557.90 531.07 543.53 540.24
  A 1.33 1.32 -35.1 0 0 543.19 542.17
  Q 651.18 681.17 729.22 781.29
  Q 732.86 785.95 738.97 794.27
  Q 742.30 798.80 747.27 797.45
  Q 768.48 791.70 781.39 773.94
  Q 783.57 770.94 783.01 767.88
  Q 782.64 765.93 779.87 762.37
  Q 679.94 634.02 584.61 509.28
  A 0.80 0.79 49.1 0 0 583.42 509.19"
/>
<path stroke="#713b43" d="
  M 403.91 242.15
  Q 403.54 241.84 403.49 241.59
  Q 401.27 228.95 398.42 217.44
  A 1.60 1.59 77.2 0 0 396.55 216.26
  C 371.41 221.44 348.24 233.47 330.31 251.66
  Q 301.21 281.19 294.16 323.74
  C 293.50 327.71 293.25 332.53 292.75 336.83
  Q 292.28 340.85 292.44 346.69
  Q 292.94 364.82 297.94 381.90
  A 1.17 1.16 -17.6 0 0 299.44 382.67
  L 371.00 357.96
  A 1.29 1.28 75.1 0 0 371.84 356.49
  Q 368.65 340.99 373.33 326.04
  C 379.05 307.75 394.67 293.11 413.11 288.82
  A 0.83 0.82 77.6 0 0 413.73 287.84
  L 406.11 252.54
  A 1.18 1.07 47.9 0 1 406.11 252.07
  Q 406.28 251.29 405.85 250.78
  C 404.78 249.50 405.31 247.28 404.64 245.68
  Q 403.94 244.03 404.14 242.76
  A 0.69 0.68 -66.1 0 0 403.91 242.15"
/>
<path stroke="#857f94" d="
  M 394.46 469.60
  Q 400.28 470.91 406.40 471.57
  C 449.80 476.30 490.70 461.68 520.09 429.23
  Q 547.93 398.49 552.75 355.00
  C 553.26 350.32 552.99 345.78 553.08 341.00
  Q 553.18 336.01 552.57 330.51
  Q 549.95 307.09 539.62 285.90
  A 1.34 1.34 0.0 0 0 537.75 285.32
  L 484.17 316.26
  A 2.15 2.13 -25.0 0 0 483.22 318.84
  C 493.62 347.53 483.18 380.27 456.22 395.05
  Q 437.93 405.07 415.76 400.57
  A 0.82 0.82 0.0 0 0 414.81 401.14
  L 394.31 469.35
  A 0.20 0.20 0.0 0 0 394.46 469.60"
/>
<path stroke="#857f94" d="
  M 384.22 465.61
  L 404.73 397.36
  A 0.81 0.81 0.0 0 0 404.28 396.39
  Q 385.09 387.85 375.52 368.27
  A 0.98 0.97 66.8 0 0 374.31 367.78
  L 304.04 392.91
  A 1.36 1.35 68.7 0 0 303.25 394.72
  Q 310.28 410.92 321.65 425.09
  Q 345.81 455.21 382.82 466.36
  A 1.13 1.13 0.0 0 0 384.22 465.61"
/>
<path stroke="#e9aa7f" d="
  M 921.4561 284.4322
  A 0.33 0.33 0.0 0 0 921.1279 284.1005
  L 707.2708 282.9807
  A 0.33 0.33 0.0 0 0 706.9391 283.3090
  L 706.4639 374.0678
  A 0.33 0.33 0.0 0 0 706.7921 374.3995
  L 920.6492 375.5193
  A 0.33 0.33 0.0 0 0 920.9809 375.1910
  L 921.4561 284.4322"
/>
<path stroke="#e9aa7f" d="
  M 897.9109 312.2875
  A 4.99 4.99 0.0 0 0 892.9471 307.2715
  L 735.8092 306.4487
  A 4.99 4.99 0.0 0 0 730.7932 311.4125
  L 730.7891 312.1925
  A 4.99 4.99 0.0 0 0 735.7529 317.2085
  L 892.8908 318.0313
  A 4.99 4.99 0.0 0 0 897.9068 313.0675
  L 897.9109 312.2875"
/>
<path stroke="#e9aa7f" d="
  M 843.1806 342.2046
  A 5.11 5.11 0.0 0 0 838.1064 337.0590
  L 735.2889 336.3412
  A 5.11 5.11 0.0 0 0 730.1433 341.4154
  L 730.1394 341.9754
  A 5.11 5.11 0.0 0 0 735.2136 347.1210
  L 838.0311 347.8388
  A 5.11 5.11 0.0 0 0 843.1767 342.7646
  L 843.1806 342.2046"
/>
</g>
<g>
<path fill="#0d0f58" d="
  M 636.89 187.23
  Q 637.96 189.84 639.19 192.34
  Q 640.93 195.86 640.86 197.60
  Q 640.71 201.06 636.97 202.77
  Q 607.87 216.04 569.73 234.00
  Q 563.27 237.04 557.28 240.13
  Q 553.48 242.09 551.83 242.07
  C 547.66 242.03 545.40 238.12 542.56 234.68
  Q 516.50 203.01 476.25 195.99
  C 467.28 194.42 457.02 194.48 448.01 194.33
  Q 446.75 194.31 445.04 193.43
  A 1.86 1.81 -0.8 0 1 444.28 192.71
  Q 442.97 190.50 442.49 188.28
  Q 435.94 158.29 423.99 106.75
  Q 423.78 105.81 423.21 105.73
  Q 423.49 104.61 422.92 101.75
  Q 421.63 95.22 428.60 94.11
  C 463.25 88.60 500.45 91.75 533.82 103.73
  Q 542.66 106.91 557.68 114.09
  Q 559.35 114.89 560.93 112.93
  Q 563.54 109.70 567.75 105.00
  Q 592.93 76.91 626.02 40.52
  C 628.00 38.34 630.01 35.93 633.01 35.59
  Q 635.78 35.29 643.75 35.30
  Q 766.97 35.49 777.94 35.46
  C 780.57 35.46 783.22 35.91 785.14 35.38
  A 4.91 4.90 15.8 0 0 787.18 34.24
  Q 789.86 31.73 790.59 31.30
  Q 799.83 25.80 807.53 33.02
  Q 811.65 36.88 811.15 43.24
  C 810.03 57.47 793.28 59.56 785.80 49.14
  Q 784.93 47.93 782.50 47.93
  Q 689.22 47.72 640.50 47.67
  Q 635.97 47.67 633.33 50.57
  Q 609.16 77.05 589.72 98.72
  Q 579.27 110.38 570.20 119.41
  A 1.03 1.03 0.0 0 0 570.37 121.01
  Q 610.18 146.40 635.71 186.09
  A 1.11 1.01 -87.3 0 0 635.90 186.32
  L 636.89 187.23
  Z
  M 435.84 104.19
  A 1.40 1.40 0.0 0 0 434.60 105.90
  L 452.74 182.92
  A 1.20 1.20 0.0 0 0 453.92 183.84
  Q 472.61 183.70 491.54 188.69
  C 515.04 194.89 537.08 210.02 552.05 229.06
  A 1.86 1.85 56.8 0 0 554.37 229.55
  Q 558.65 227.28 559.09 227.07
  Q 616.09 200.57 619.22 198.98
  Q 619.53 198.82 627.26 195.64
  A 1.61 1.60 62.5 0 0 628.00 193.28
  Q 606.93 160.87 576.06 138.16
  Q 564.08 129.34 551.22 123.05
  C 532.86 114.07 513.88 108.44 493.59 105.15
  C 474.56 102.07 455.22 102.47 435.84 104.19
  Z"
/>
<path fill="#fdeed0" d="
  M 423.21 105.73
  Q 423.78 105.81 423.99 106.75
  Q 435.94 158.29 442.49 188.28
  Q 442.97 190.50 444.28 192.71
  A 1.86 1.81 -0.8 0 0 445.04 193.43
  Q 446.75 194.31 448.01 194.33
  C 457.02 194.48 467.28 194.42 476.25 195.99
  Q 516.50 203.01 542.56 234.68
  C 545.40 238.12 547.66 242.03 551.83 242.07
  Q 553.48 242.09 557.28 240.13
  Q 563.27 237.04 569.73 234.00
  Q 607.87 216.04 636.97 202.77
  Q 640.71 201.06 640.86 197.60
  Q 640.93 195.86 639.19 192.34
  Q 637.96 189.84 636.89 187.23
  L 646.01 187.83
  Q 648.79 190.14 654.50 190.16
  Q 815.97 190.74 977.34 190.78
  A 0.53 0.52 0.5 0 1 977.87 191.31
  Q 977.14 342.59 976.95 498.75
  C 976.93 521.64 976.17 555.13 976.12 578.75
  Q 976.04 619.37 975.56 647.50
  Q 975.53 649.35 975.39 650.38
  A 0.85 0.84 3.9 0 1 974.55 651.11
  Q 813.64 651.32 731.00 651.19
  Q 724.02 651.18 708.85 651.68
  A 2.40 2.39 70.3 0 1 706.87 650.74
  L 676.63 611.16
  Q 677.95 610.85 679.55 610.94
  Q 682.32 611.09 682.47 611.09
  Q 908.07 611.02 926.50 610.96
  Q 933.02 610.94 933.19 604.46
  Q 933.84 579.76 934.05 537.76
  C 934.07 535.05 934.31 530.87 932.02 529.07
  Q 929.42 527.01 927.22 527.01
  Q 769.55 527.12 620.00 526.93
  Q 616.24 526.92 612.49 527.14
  L 592.60 501.44
  A 1.07 1.07 0.0 0 1 592.64 500.09
  L 599.75 491.97
  A 1.82 1.81 20.6 0 1 601.11 491.36
  L 722.02 491.36
  A 0.83 0.83 0.0 0 1 722.76 491.81
  C 725.13 496.46 731.09 499.90 736.20 498.51
  C 742.91 496.68 746.06 491.30 745.30 484.49
  C 744.24 475.04 732.07 471.09 725.47 477.53
  Q 723.89 479.07 723.00 480.27
  A 0.77 0.75 -71.4 0 1 722.39 480.58
  L 609.74 480.58
  A 0.46 0.46 0.0 0 1 609.37 479.84
  Q 632.95 449.19 645.45 412.90
  C 666.53 351.70 659.09 283.57 629.59 226.51
  C 626.99 221.48 620.54 222.67 618.60 227.08
  A 3.01 3.00 43.1 0 0 618.69 229.68
  Q 650.16 289.51 645.58 357.48
  C 642.55 402.52 623.96 444.85 595.61 479.88
  A 0.75 0.75 0.0 0 1 594.47 479.90
  L 568.22 449.78
  A 0.89 0.89 0.0 0 1 568.19 448.65
  Q 603.59 403.22 605.43 345.25
  C 606.48 312.01 597.45 279.58 580.71 250.56
  C 577.57 245.11 570.35 247.71 569.99 253.04
  Q 569.90 254.39 572.32 258.66
  C 593.58 296.34 600.30 340.51 589.22 382.17
  C 583.47 403.79 573.74 422.87 560.85 440.34
  A 0.87 0.86 45.7 0 1 559.45 440.32
  Q 557.17 437.08 553.75 433.89
  Q 550.08 430.47 546.82 433.80
  C 542.97 437.71 545.75 440.57 548.82 444.24
  Q 549.67 445.26 552.78 448.43
  A 1.31 1.30 -46.5 0 1 552.82 450.22
  Q 542.68 461.59 530.66 471.43
  Q 487.06 507.10 429.51 509.51
  C 392.59 511.05 355.47 501.68 325.42 480.56
  Q 311.25 470.61 299.74 458.82
  A 1.11 1.10 -40.5 0 1 299.88 457.16
  C 304.81 453.50 312.67 449.22 304.34 443.52
  Q 302.41 442.20 299.83 444.02
  Q 296.10 446.66 292.44 449.85
  A 0.95 0.94 49.6 0 1 291.09 449.74
  C 273.60 428.52 261.83 403.34 256.85 376.09
  Q 254.34 362.33 254.22 357.99
  Q 253.69 338.30 254.04 332.75
  Q 255.34 311.92 261.29 292.00
  A 0.62 0.62 0.0 0 1 262.21 291.65
  Q 266.41 294.27 270.34 295.63
  C 277.60 298.15 280.18 288.13 273.37 285.14
  Q 268.97 283.21 265.68 281.76
  A 0.68 0.67 24.5 0 1 265.34 280.87
  Q 265.65 280.21 270.83 269.06
  C 281.71 245.65 299.34 225.59 319.96 209.49
  Q 343.49 191.12 372.94 181.43
  C 388.16 176.42 403.78 173.34 419.76 171.35
  C 423.80 170.84 426.52 169.94 426.01 165.48
  Q 425.25 158.96 418.47 159.91
  Q 403.70 161.96 393.32 164.11
  Q 349.54 173.21 314.10 199.85
  Q 275.13 229.13 255.98 274.90
  A 1.35 1.35 0.0 0 1 254.17 275.60
  L 214.97 257.48
  A 0.54 0.53 -67.1 0 1 214.70 256.81
  C 238.93 192.79 296.26 145.87 361.19 127.12
  Q 382.97 120.82 406.50 119.00
  Q 411.04 118.65 412.88 117.62
  C 416.61 115.53 414.82 109.47 412.95 106.75
  L 423.21 105.73
  Z
  M 419.13 261.74
  Q 419.07 261.58 419.00 261.26
  Q 414.94 242.84 408.17 210.85
  Q 406.70 203.87 399.35 205.07
  Q 361.81 211.20 333.50 234.28
  C 331.11 236.23 326.21 240.13 323.16 243.25
  Q 303.56 263.36 293.85 286.09
  C 268.20 346.11 284.16 414.01 335.96 454.30
  Q 367.51 478.84 407.31 482.68
  Q 415.30 483.45 428.62 483.23
  Q 440.33 483.04 449.79 481.02
  Q 488.10 472.84 516.30 447.99
  C 542.80 424.65 560.19 392.65 563.63 357.52
  Q 567.65 316.43 548.23 277.91
  C 546.39 274.27 545.19 271.75 541.64 271.23
  Q 540.09 271.01 535.07 274.00
  Q 516.44 285.08 474.67 309.49
  C 470.89 311.70 468.39 313.63 470.50 317.90
  Q 474.83 326.64 475.91 336.81
  C 478.97 365.48 456.27 393.63 426.53 390.90
  Q 398.71 388.34 386.21 364.72
  C 371.41 336.76 388.83 303.97 419.08 298.09
  Q 426.55 296.64 424.86 288.66
  Q 422.83 279.04 419.36 262.62
  A 1.36 0.08 78.5 0 0 419.13 261.74
  Z
  M 695.28 378.93
  A 6.20 6.20 0.0 0 0 701.45 385.16
  L 925.85 386.38
  A 6.20 6.20 0.0 0 0 932.08 380.21
  L 932.63 279.62
  A 6.20 6.20 0.0 0 0 926.46 273.39
  L 702.06 272.17
  A 6.20 6.20 0.0 0 0 695.83 278.34
  L 695.28 378.93
  Z"
/>
<path fill="#0d0f58" d="
  M 412.95 106.75
  C 414.82 109.47 416.61 115.53 412.88 117.62
  Q 411.04 118.65 406.50 119.00
  Q 382.97 120.82 361.19 127.12
  C 296.26 145.87 238.93 192.79 214.70 256.81
  A 0.54 0.53 -67.1 0 0 214.97 257.48
  L 254.17 275.60
  A 1.35 1.35 0.0 0 0 255.98 274.90
  Q 275.13 229.13 314.10 199.85
  Q 349.54 173.21 393.32 164.11
  Q 403.70 161.96 418.47 159.91
  Q 425.25 158.96 426.01 165.48
  C 426.52 169.94 423.80 170.84 419.76 171.35
  C 403.78 173.34 388.16 176.42 372.94 181.43
  Q 343.49 191.12 319.96 209.49
  C 299.34 225.59 281.71 245.65 270.83 269.06
  Q 265.65 280.21 265.34 280.87
  A 0.68 0.67 24.5 0 0 265.68 281.76
  Q 268.97 283.21 273.37 285.14
  C 280.18 288.13 277.60 298.15 270.34 295.63
  Q 266.41 294.27 262.21 291.65
  A 0.62 0.62 0.0 0 0 261.29 292.00
  Q 255.34 311.92 254.04 332.75
  Q 253.69 338.30 254.22 357.99
  Q 254.34 362.33 256.85 376.09
  C 261.83 403.34 273.60 428.52 291.09 449.74
  A 0.95 0.94 49.6 0 0 292.44 449.85
  Q 296.10 446.66 299.83 444.02
  Q 302.41 442.20 304.34 443.52
  C 312.67 449.22 304.81 453.50 299.88 457.16
  A 1.11 1.10 -40.5 0 0 299.74 458.82
  Q 311.25 470.61 325.42 480.56
  C 355.47 501.68 392.59 511.05 429.51 509.51
  Q 487.06 507.10 530.66 471.43
  Q 542.68 461.59 552.82 450.22
  A 1.31 1.30 -46.5 0 0 552.78 448.43
  Q 549.67 445.26 548.82 444.24
  C 545.75 440.57 542.97 437.71 546.82 433.80
  Q 550.08 430.47 553.75 433.89
  Q 557.17 437.08 559.45 440.32
  A 0.87 0.86 45.7 0 0 560.85 440.34
  C 573.74 422.87 583.47 403.79 589.22 382.17
  C 600.30 340.51 593.58 296.34 572.32 258.66
  Q 569.90 254.39 569.99 253.04
  C 570.35 247.71 577.57 245.11 580.71 250.56
  C 597.45 279.58 606.48 312.01 605.43 345.25
  Q 603.59 403.22 568.19 448.65
  A 0.89 0.89 0.0 0 0 568.22 449.78
  L 594.47 479.90
  A 0.75 0.75 0.0 0 0 595.61 479.88
  C 623.96 444.85 642.55 402.52 645.58 357.48
  Q 650.16 289.51 618.69 229.68
  A 3.01 3.00 43.1 0 1 618.60 227.08
  C 620.54 222.67 626.99 221.48 629.59 226.51
  C 659.09 283.57 666.53 351.70 645.45 412.90
  Q 632.95 449.19 609.37 479.84
  A 0.46 0.46 0.0 0 0 609.74 480.58
  L 722.39 480.58
  A 0.77 0.75 -71.4 0 0 723.00 480.27
  Q 723.89 479.07 725.47 477.53
  C 732.07 471.09 744.24 475.04 745.30 484.49
  C 746.06 491.30 742.91 496.68 736.20 498.51
  C 731.09 499.90 725.13 496.46 722.76 491.81
  A 0.83 0.83 0.0 0 0 722.02 491.36
  L 601.11 491.36
  A 1.82 1.81 20.6 0 0 599.75 491.97
  L 592.64 500.09
  A 1.07 1.07 0.0 0 0 592.60 501.44
  L 612.49 527.14
  Q 612.40 527.48 612.63 527.86
  Q 615.86 533.20 619.88 537.32
  L 668.58 600.91
  Q 672.11 606.72 676.63 611.16
  L 706.87 650.74
  A 2.40 2.39 70.3 0 0 708.85 651.68
  Q 724.02 651.18 731.00 651.19
  Q 813.64 651.32 974.55 651.11
  A 0.85 0.84 3.9 0 0 975.39 650.38
  Q 975.53 649.35 975.56 647.50
  Q 976.04 619.37 976.12 578.75
  C 976.17 555.13 976.93 521.64 976.95 498.75
  Q 977.14 342.59 977.87 191.31
  A 0.53 0.52 0.5 0 0 977.34 190.78
  Q 815.97 190.74 654.50 190.16
  Q 648.79 190.14 646.01 187.83
  Q 645.98 182.62 648.25 179.77
  Q 649.49 178.21 652.51 178.22
  Q 856.55 178.52 980.51 178.43
  C 987.43 178.43 988.30 183.37 988.29 189.00
  Q 987.61 493.84 987.58 504.09
  C 987.43 545.42 986.83 608.25 986.75 653.75
  Q 986.73 662.23 978.25 662.29
  Q 954.64 662.46 930.93 662.74
  L 918.99 662.79
  L 718.28 662.86
  A 1.00 0.99 -19.0 0 0 717.49 664.47
  L 746.23 700.91
  Q 749.70 706.86 754.96 713.03
  Q 755.30 713.43 756.02 713.58
  Q 755.75 713.73 755.92 713.94
  Q 770.14 731.75 786.76 753.75
  C 793.92 763.22 798.04 767.92 791.79 778.04
  C 783.48 791.49 768.97 802.60 753.88 807.56
  C 739.48 812.30 732.54 803.25 724.77 793.20
  Q 702.04 763.80 662.50 714.48
  Q 662.04 713.91 661.45 713.51
  Q 661.15 712.25 660.91 711.85
  Q 656.79 704.82 652.12 701.04
  Q 651.53 699.08 650.70 698.04
  Q 636.95 680.84 623.49 663.70
  A 2.30 2.28 71.0 0 0 621.68 662.81
  Q 572.65 662.91 83.44 662.87
  C 77.92 662.87 76.25 658.52 76.22 653.75
  Q 76.11 638.72 76.05 601.75
  Q 75.79 423.02 75.93 247.90
  A 0.74 0.71 -60.9 0 0 75.82 247.48
  L 75.50 246.97
  Q 76.12 246.37 76.22 245.24
  Q 76.67 240.26 76.25 235.28
  Q 76.18 234.46 75.52 234.03
  Q 75.95 233.47 75.94 233.00
  Q 75.84 213.07 76.09 186.26
  Q 76.14 181.26 79.13 179.08
  Q 80.65 177.97 87.00 177.97
  Q 146.46 177.97 235.04 178.10
  Q 238.31 178.10 239.35 181.39
  Q 239.97 183.34 240.04 188.33
  Q 238.25 189.96 236.19 189.97
  Q 163.75 190.11 88.20 189.44
  A 0.25 0.25 0.0 0 0 87.95 189.69
  C 86.79 278.98 86.62 363.61 87.32 459.25
  Q 88.04 556.88 88.05 649.89
  A 1.12 1.11 90.0 0 0 89.16 651.01
  C 265.26 651.92 489.68 650.83 607.75 651.55
  Q 610.68 651.57 614.14 651.89
  A 0.41 0.40 -16.2 0 0 614.50 651.24
  L 582.24 610.07
  Q 578.50 604.14 574.20 599.94
  L 574.13 599.69
  A 1.03 1.01 -71.2 0 0 573.97 599.36
  L 533.29 547.22
  A 1.40 1.39 56.7 0 0 531.52 546.85
  Q 493.56 567.21 451.99 572.73
  Q 437.21 574.69 432.90 574.85
  Q 425.76 575.10 412.80 575.12
  Q 402.90 575.13 392.75 573.98
  Q 348.53 568.99 308.83 548.80
  Q 304.56 546.63 298.99 543.31
  Q 294.13 540.42 289.32 537.51
  L 275.22 527.82
  C 271.50 524.93 267.83 522.19 264.53 519.11
  Q 254.37 509.63 243.59 497.91
  Q 241.92 496.09 240.65 494.20
  A 1.29 1.28 -16.7 0 0 239.58 493.63
  L 166.40 493.63
  A 1.06 1.05 -75.8 0 0 165.47 494.19
  C 161.45 501.67 151.42 503.62 145.85 496.49
  C 140.12 489.17 143.37 478.11 153.27 476.94
  Q 160.86 476.04 165.12 482.07
  A 2.19 2.18 -17.2 0 0 166.92 483.01
  L 230.96 483.01
  A 0.64 0.64 0.0 0 0 231.47 481.99
  Q 205.67 447.28 194.68 405.37
  Q 188.32 381.10 187.13 359.52
  Q 185.96 338.18 187.34 322.26
  C 189.01 303.02 192.37 284.77 198.92 266.06
  A 1.28 1.27 -80.2 0 0 197.73 264.36
  L 119.99 263.94
  A 1.21 1.21 0.0 0 0 118.90 264.63
  C 116.23 270.32 109.86 273.09 103.89 270.99
  Q 98.03 268.93 96.11 262.41
  C 92.01 248.41 109.82 240.10 117.80 252.14
  A 2.15 2.14 72.9 0 0 119.58 253.09
  Q 153.48 253.04 189.00 253.52
  Q 195.75 253.61 202.81 254.09
  A 1.43 1.42 10.3 0 0 204.26 253.09
  Q 205.28 249.76 207.43 244.94
  Q 220.71 215.22 241.43 190.43
  Q 242.16 189.55 242.26 188.60
  Q 244.00 187.21 245.53 185.53
  Q 285.70 141.30 341.95 120.98
  Q 368.77 111.29 398.64 107.44
  Q 406.79 106.39 412.95 106.75
  Z
  M 282.78 456.51
  C 280.71 453.50 277.52 450.11 275.24 446.95
  C 255.94 420.15 244.99 388.54 243.07 355.51
  Q 241.02 320.30 251.06 287.51
  A 1.17 1.17 0.0 0 0 250.43 286.10
  L 211.10 267.92
  A 1.19 1.19 0.0 0 0 209.46 268.63
  Q 202.83 288.33 199.63 310.76
  Q 198.15 321.16 197.88 335.38
  Q 197.57 352.13 198.21 360.03
  Q 203.76 429.09 245.95 483.69
  A 0.72 0.72 0.0 0 0 246.95 483.83
  L 282.63 457.37
  A 0.63 0.63 0.0 0 0 282.78 456.51
  Z
  M 289.72 465.22
  L 254.37 491.43
  A 1.19 1.18 51.0 0 0 254.19 493.17
  Q 281.50 523.71 318.23 541.36
  Q 369.06 565.77 425.26 564.06
  C 487.39 562.16 545.56 536.40 587.08 489.86
  A 1.34 1.34 0.0 0 0 587.10 488.09
  L 561.31 458.50
  A 1.04 1.03 45.5 0 0 559.76 458.48
  C 534.38 486.13 504.30 506.02 467.78 515.04
  Q 446.15 520.38 423.58 520.95
  Q 417.11 521.12 408.96 520.42
  Q 400.58 519.69 394.40 518.80
  C 364.41 514.44 334.68 502.40 311.11 483.65
  Q 299.39 474.33 290.85 465.32
  A 0.86 0.86 0.0 0 0 289.72 465.22
  Z
  M 583.42 509.19
  C 570.95 521.46 557.90 531.07 543.53 540.24
  A 1.33 1.32 -35.1 0 0 543.19 542.17
  Q 651.18 681.17 729.22 781.29
  Q 732.86 785.95 738.97 794.27
  Q 742.30 798.80 747.27 797.45
  Q 768.48 791.70 781.39 773.94
  Q 783.57 770.94 783.01 767.88
  Q 782.64 765.93 779.87 762.37
  Q 679.94 634.02 584.61 509.28
  A 0.80 0.79 49.1 0 0 583.42 509.19
  Z"
/>
<path fill="#fdeed0" d="
  M 242.26 188.60
  Q 242.16 189.55 241.43 190.43
  Q 220.71 215.22 207.43 244.94
  Q 205.28 249.76 204.26 253.09
  A 1.43 1.42 10.3 0 1 202.81 254.09
  Q 195.75 253.61 189.00 253.52
  Q 153.48 253.04 119.58 253.09
  A 2.15 2.14 72.9 0 1 117.80 252.14
  C 109.82 240.10 92.01 248.41 96.11 262.41
  Q 98.03 268.93 103.89 270.99
  C 109.86 273.09 116.23 270.32 118.90 264.63
  A 1.21 1.21 0.0 0 1 119.99 263.94
  L 197.73 264.36
  A 1.28 1.27 -80.2 0 1 198.92 266.06
  C 192.37 284.77 189.01 303.02 187.34 322.26
  Q 185.96 338.18 187.13 359.52
  Q 188.32 381.10 194.68 405.37
  Q 205.67 447.28 231.47 481.99
  A 0.64 0.64 0.0 0 1 230.96 483.01
  L 166.92 483.01
  A 2.19 2.18 -17.2 0 1 165.12 482.07
  Q 160.86 476.04 153.27 476.94
  C 143.37 478.11 140.12 489.17 145.85 496.49
  C 151.42 503.62 161.45 501.67 165.47 494.19
  A 1.06 1.05 -75.8 0 1 166.40 493.63
  L 239.58 493.63
  A 1.29 1.28 -16.7 0 1 240.65 494.20
  Q 241.92 496.09 243.59 497.91
  Q 254.37 509.63 264.53 519.11
  C 267.83 522.19 271.50 524.93 275.22 527.82
  Q 209.41 528.00 144.25 527.57
  C 139.25 527.54 135.02 528.42 135.02 534.50
  Q 134.96 572.72 135.02 601.79
  C 135.03 606.63 136.17 610.31 141.51 610.29
  C 224.64 610.03 328.45 610.98 423.26 610.72
  Q 502.57 610.50 582.24 610.07
  L 614.50 651.24
  A 0.41 0.40 -16.2 0 1 614.14 651.89
  Q 610.68 651.57 607.75 651.55
  C 489.68 650.83 265.26 651.92 89.16 651.01
  A 1.12 1.11 90.0 0 1 88.05 649.89
  Q 88.04 556.88 87.32 459.25
  C 86.62 363.61 86.79 278.98 87.95 189.69
  A 0.25 0.25 0.0 0 1 88.20 189.44
  Q 163.75 190.11 236.19 189.97
  Q 238.25 189.96 240.04 188.33
  L 242.26 188.60
  Z"
/>
<path fill="#d4662e" d="
  M 75.52 234.03
  Q 76.18 234.46 76.25 235.28
  Q 76.67 240.26 76.22 245.24
  Q 76.12 246.37 75.50 246.97
  L 48.28 246.48
  A 0.99 0.99 0.0 0 0 47.27 247.47
  L 47.27 699.92
  A 0.98 0.98 0.0 0 0 48.25 700.90
  L 652.12 701.04
  Q 656.79 704.82 660.91 711.85
  Q 661.15 712.25 661.45 713.51
  Q 659.35 713.28 657.25 713.28
  Q 101.39 713.27 48.50 713.46
  Q 44.05 713.47 38.92 712.75
  A 3.12 3.12 0.0 0 1 36.33 710.40
  Q 35.54 707.10 35.54 702.50
  Q 35.65 248.17 35.65 244.75
  Q 35.65 242.36 35.95 238.95
  A 4.44 4.44 0.0 0 1 37.84 235.71
  Q 40.03 234.19 43.27 234.17
  Q 59.39 234.11 75.52 234.03
  Z"
/>
<path fill="#d4662e" d="
  M 676.63 611.16
  Q 672.11 606.72 668.58 600.91
  Q 671.67 600.16 672.75 600.16
  Q 799.46 600.50 921.85 600.27
  A 0.67 0.66 -89.6 0 0 922.51 599.61
  L 922.84 538.35
  A 0.60 0.60 0.0 0 0 922.21 537.75
  Q 919.12 537.92 915.50 537.93
  Q 764.61 538.40 626.38 537.43
  Q 625.64 537.43 623.14 537.18
  Q 621.28 536.99 619.88 537.32
  Q 615.86 533.20 612.63 527.86
  Q 612.40 527.48 612.49 527.14
  Q 616.24 526.92 620.00 526.93
  Q 769.55 527.12 927.22 527.01
  Q 929.42 527.01 932.02 529.07
  C 934.31 530.87 934.07 535.05 934.05 537.76
  Q 933.84 579.76 933.19 604.46
  Q 933.02 610.94 926.50 610.96
  Q 908.07 611.02 682.47 611.09
  Q 682.32 611.09 679.55 610.94
  Q 677.95 610.85 676.63 611.16
  Z"
/>
<path fill="#d4662e" d="
  M 275.22 527.82
  L 289.32 537.51
  Q 284.32 538.71 279.50 538.74
  Q 211.96 539.18 152.50 538.25
  Q 149.52 538.20 146.92 538.29
  A 0.86 0.86 0.0 0 0 146.09 539.15
  L 146.09 598.35
  A 0.99 0.99 0.0 0 0 147.08 599.34
  Q 312.41 599.98 456.83 599.87
  C 487.00 599.85 530.38 599.40 567.50 599.32
  Q 571.05 599.31 573.96 600.29
  A 0.14 0.14 0.0 0 0 574.14 600.18
  Q 574.16 600.07 574.20 599.94
  Q 578.50 604.14 582.24 610.07
  Q 502.57 610.50 423.26 610.72
  C 328.45 610.98 224.64 610.03 141.51 610.29
  C 136.17 610.31 135.03 606.63 135.02 601.79
  Q 134.96 572.72 135.02 534.50
  C 135.02 528.42 139.25 527.54 144.25 527.57
  Q 209.41 528.00 275.22 527.82
  Z"
/>
<path fill="#fdeed0" d="
  M 668.58 600.91
  L 619.88 537.32
  Q 621.28 536.99 623.14 537.18
  Q 625.64 537.43 626.38 537.43
  Q 764.61 538.40 915.50 537.93
  Q 919.12 537.92 922.21 537.75
  A 0.60 0.60 0.0 0 1 922.84 538.35
  L 922.51 599.61
  A 0.67 0.66 -89.6 0 1 921.85 600.27
  Q 799.46 600.50 672.75 600.16
  Q 671.67 600.16 668.58 600.91
  Z"
/>
<path fill="#fdeed0" d="
  M 289.32 537.51
  Q 294.13 540.42 298.99 543.31
  Q 304.56 546.63 308.83 548.80
  Q 348.53 568.99 392.75 573.98
  Q 402.90 575.13 412.80 575.12
  Q 425.76 575.10 432.90 574.85
  Q 437.21 574.69 451.99 572.73
  Q 493.56 567.21 531.52 546.85
  A 1.40 1.39 56.7 0 1 533.29 547.22
  L 573.97 599.36
  A 1.03 1.01 -71.2 0 1 574.13 599.69
  L 574.20 599.94
  Q 574.16 600.07 574.14 600.18
  A 0.14 0.14 0.0 0 1 573.96 600.29
  Q 571.05 599.31 567.50 599.32
  C 530.38 599.40 487.00 599.85 456.83 599.87
  Q 312.41 599.98 147.08 599.34
  A 0.99 0.99 0.0 0 1 146.09 598.35
  L 146.09 539.15
  A 0.86 0.86 0.0 0 1 146.92 538.29
  Q 149.52 538.20 152.50 538.25
  Q 211.96 539.18 279.50 538.74
  Q 284.32 538.71 289.32 537.51
  Z"
/>
<path fill="#d4662e" d="
  M 930.93 662.74
  Q 930.96 685.16 930.92 706.80
  Q 930.91 709.53 928.85 712.03
  A 1.64 1.62 13.3 0 1 927.93 712.59
  Q 924.75 713.26 922.25 713.26
  Q 825.99 713.36 757.75 713.26
  Q 756.87 713.26 756.02 713.58
  Q 755.30 713.43 754.96 713.03
  Q 749.70 706.86 746.23 700.91
  L 918.11 700.89
  A 0.92 0.91 -90.0 0 0 919.02 699.97
  L 918.99 662.79
  L 930.93 662.74
  Z"
/>
</g>
<g>
<path fill="#d4662e" d="
  M 435.84 104.19
  C 455.22 102.47 474.56 102.07 493.59 105.15
  C 513.88 108.44 532.86 114.07 551.22 123.05
  Q 564.08 129.34 576.06 138.16
  Q 606.93 160.87 628.00 193.28
  A 1.61 1.60 62.5 0 1 627.26 195.64
  Q 619.53 198.82 619.22 198.98
  Q 616.09 200.57 559.09 227.07
  Q 558.65 227.28 554.37 229.55
  A 1.86 1.85 56.8 0 1 552.05 229.06
  C 537.08 210.02 515.04 194.89 491.54 188.69
  Q 472.61 183.70 453.92 183.84
  A 1.20 1.20 0.0 0 1 452.74 182.92
  L 434.60 105.90
  A 1.40 1.40 0.0 0 1 435.84 104.19
  Z"
/>
<path fill="#0d0f58" d="
  M 419.36 262.62
  Q 422.83 279.04 424.86 288.66
  Q 426.55 296.64 419.08 298.09
  C 388.83 303.97 371.41 336.76 386.21 364.72
  Q 398.71 388.34 426.53 390.90
  C 456.27 393.63 478.97 365.48 475.91 336.81
  Q 474.83 326.64 470.50 317.90
  C 468.39 313.63 470.89 311.70 474.67 309.49
  Q 516.44 285.08 535.07 274.00
  Q 540.09 271.01 541.64 271.23
  C 545.19 271.75 546.39 274.27 548.23 277.91
  Q 567.65 316.43 563.63 357.52
  C 560.19 392.65 542.80 424.65 516.30 447.99
  Q 488.10 472.84 449.79 481.02
  Q 440.33 483.04 428.62 483.23
  Q 415.30 483.45 407.31 482.68
  Q 367.51 478.84 335.96 454.30
  C 284.16 414.01 268.20 346.11 293.85 286.09
  Q 303.56 263.36 323.16 243.25
  C 326.21 240.13 331.11 236.23 333.50 234.28
  Q 361.81 211.20 399.35 205.07
  Q 406.70 203.87 408.17 210.85
  Q 414.94 242.84 419.00 261.26
  Q 419.07 261.58 419.13 261.74
  A 1.36 0.08 78.5 0 1 419.36 262.62
  Z
  M 403.91 242.15
  Q 403.54 241.84 403.49 241.59
  Q 401.27 228.95 398.42 217.44
  A 1.60 1.59 77.2 0 0 396.55 216.26
  C 371.41 221.44 348.24 233.47 330.31 251.66
  Q 301.21 281.19 294.16 323.74
  C 293.50 327.71 293.25 332.53 292.75 336.83
  Q 292.28 340.85 292.44 346.69
  Q 292.94 364.82 297.94 381.90
  A 1.17 1.16 -17.6 0 0 299.44 382.67
  L 371.00 357.96
  A 1.29 1.28 75.1 0 0 371.84 356.49
  Q 368.65 340.99 373.33 326.04
  C 379.05 307.75 394.67 293.11 413.11 288.82
  A 0.83 0.82 77.6 0 0 413.73 287.84
  L 406.11 252.54
  A 1.18 1.07 47.9 0 1 406.11 252.07
  Q 406.28 251.29 405.85 250.78
  C 404.78 249.50 405.31 247.28 404.64 245.68
  Q 403.94 244.03 404.14 242.76
  A 0.69 0.68 -66.1 0 0 403.91 242.15
  Z
  M 394.46 469.60
  Q 400.28 470.91 406.40 471.57
  C 449.80 476.30 490.70 461.68 520.09 429.23
  Q 547.93 398.49 552.75 355.00
  C 553.26 350.32 552.99 345.78 553.08 341.00
  Q 553.18 336.01 552.57 330.51
  Q 549.95 307.09 539.62 285.90
  A 1.34 1.34 0.0 0 0 537.75 285.32
  L 484.17 316.26
  A 2.15 2.13 -25.0 0 0 483.22 318.84
  C 493.62 347.53 483.18 380.27 456.22 395.05
  Q 437.93 405.07 415.76 400.57
  A 0.82 0.82 0.0 0 0 414.81 401.14
  L 394.31 469.35
  A 0.20 0.20 0.0 0 0 394.46 469.60
  Z
  M 384.22 465.61
  L 404.73 397.36
  A 0.81 0.81 0.0 0 0 404.28 396.39
  Q 385.09 387.85 375.52 368.27
  A 0.98 0.97 66.8 0 0 374.31 367.78
  L 304.04 392.91
  A 1.36 1.35 68.7 0 0 303.25 394.72
  Q 310.28 410.92 321.65 425.09
  Q 345.81 455.21 382.82 466.36
  A 1.13 1.13 0.0 0 0 384.22 465.61
  Z"
/>
<path fill="#fdeed0" d="
  M 282.78 456.51
  A 0.63 0.63 0.0 0 1 282.63 457.37
  L 246.95 483.83
  A 0.72 0.72 0.0 0 1 245.95 483.69
  Q 203.76 429.09 198.21 360.03
  Q 197.57 352.13 197.88 335.38
  Q 198.15 321.16 199.63 310.76
  Q 202.83 288.33 209.46 268.63
  A 1.19 1.19 0.0 0 1 211.10 267.92
  L 250.43 286.10
  A 1.17 1.17 0.0 0 1 251.06 287.51
  Q 241.02 320.30 243.07 355.51
  C 244.99 388.54 255.94 420.15 275.24 446.95
  C 277.52 450.11 280.71 453.50 282.78 456.51
  Z"
/>
<path fill="#d4662e" d="
  M 695.28 378.93
  L 695.83 278.34
  A 6.20 6.20 0.0 0 1 702.06 272.17
  L 926.46 273.39
  A 6.20 6.20 0.0 0 1 932.63 279.62
  L 932.08 380.21
  A 6.20 6.20 0.0 0 1 925.85 386.38
  L 701.45 385.16
  A 6.20 6.20 0.0 0 1 695.28 378.93
  Z
  M 921.4561 284.4322
  A 0.33 0.33 0.0 0 0 921.1279 284.1005
  L 707.2708 282.9807
  A 0.33 0.33 0.0 0 0 706.9391 283.3090
  L 706.4639 374.0678
  A 0.33 0.33 0.0 0 0 706.7921 374.3995
  L 920.6492 375.5193
  A 0.33 0.33 0.0 0 0 920.9809 375.1910
  L 921.4561 284.4322
  Z"
/>
<path fill="#fdeed0" d="
  M 289.72 465.22
  A 0.86 0.86 0.0 0 1 290.85 465.32
  Q 299.39 474.33 311.11 483.65
  C 334.68 502.40 364.41 514.44 394.40 518.80
  Q 400.58 519.69 408.96 520.42
  Q 417.11 521.12 423.58 520.95
  Q 446.15 520.38 467.78 515.04
  C 504.30 506.02 534.38 486.13 559.76 458.48
  A 1.04 1.03 45.5 0 1 561.31 458.50
  L 587.10 488.09
  A 1.34 1.34 0.0 0 1 587.08 489.86
  C 545.56 536.40 487.39 562.16 425.26 564.06
  Q 369.06 565.77 318.23 541.36
  Q 281.50 523.71 254.19 493.17
  A 1.19 1.18 51.0 0 1 254.37 491.43
  L 289.72 465.22
  Z"
/>
<path fill="#fdeed0" d="
  M 583.42 509.19
  A 0.80 0.79 49.1 0 1 584.61 509.28
  Q 679.94 634.02 779.87 762.37
  Q 782.64 765.93 783.01 767.88
  Q 783.57 770.94 781.39 773.94
  Q 768.48 791.70 747.27 797.45
  Q 742.30 798.80 738.97 794.27
  Q 732.86 785.95 729.22 781.29
  Q 651.18 681.17 543.19 542.17
  A 1.33 1.32 -35.1 0 1 543.53 540.24
  C 557.90 531.07 570.95 521.46 583.42 509.19
  Z"
/>
</g>
<g>
<path fill="#d4662e" d="
  M 404.14 242.76
  Q 403.94 244.03 404.64 245.68
  C 405.31 247.28 404.78 249.50 405.85 250.78
  Q 406.28 251.29 406.11 252.07
  A 1.18 1.07 47.9 0 0 406.11 252.54
  L 413.73 287.84
  A 0.83 0.82 77.6 0 1 413.11 288.82
  C 394.67 293.11 379.05 307.75 373.33 326.04
  Q 368.65 340.99 371.84 356.49
  A 1.29 1.28 75.1 0 1 371.00 357.96
  L 299.44 382.67
  A 1.17 1.16 -17.6 0 1 297.94 381.90
  Q 292.94 364.82 292.44 346.69
  Q 292.28 340.85 292.75 336.83
  C 293.25 332.53 293.50 327.71 294.16 323.74
  Q 301.21 281.19 330.31 251.66
  C 348.24 233.47 371.41 221.44 396.55 216.26
  A 1.60 1.59 77.2 0 1 398.42 217.44
  Q 401.27 228.95 403.49 241.59
  Q 403.54 241.84 403.91 242.15
  A 0.69 0.68 -66.1 0 1 404.14 242.76
  Z"
/>
<path fill="#fdeed0" d="
  M 920.9809 375.1910
  A 0.33 0.33 0.0 0 1 920.6492 375.5193
  L 706.7921 374.3995
  A 0.33 0.33 0.0 0 1 706.4639 374.0678
  L 706.9391 283.3090
  A 0.33 0.33 0.0 0 1 707.2708 282.9807
  L 921.1279 284.1005
  A 0.33 0.33 0.0 0 1 921.4561 284.4322
  L 920.9809 375.1910
  Z
  M 897.9109 312.2875
  A 4.99 4.99 0.0 0 0 892.9471 307.2715
  L 735.8092 306.4487
  A 4.99 4.99 0.0 0 0 730.7932 311.4125
  L 730.7891 312.1925
  A 4.99 4.99 0.0 0 0 735.7529 317.2085
  L 892.8908 318.0313
  A 4.99 4.99 0.0 0 0 897.9068 313.0675
  L 897.9109 312.2875
  Z
  M 843.1806 342.2046
  A 5.11 5.11 0.0 0 0 838.1064 337.0590
  L 735.2889 336.3412
  A 5.11 5.11 0.0 0 0 730.1433 341.4154
  L 730.1394 341.9754
  A 5.11 5.11 0.0 0 0 735.2136 347.1210
  L 838.0311 347.8388
  A 5.11 5.11 0.0 0 0 843.1767 342.7646
  L 843.1806 342.2046
  Z"
/>
<path fill="#fdeed0" d="
  M 394.46 469.60
  A 0.20 0.20 0.0 0 1 394.31 469.35
  L 414.81 401.14
  A 0.82 0.82 0.0 0 1 415.76 400.57
  Q 437.93 405.07 456.22 395.05
  C 483.18 380.27 493.62 347.53 483.22 318.84
  A 2.15 2.13 -25.0 0 1 484.17 316.26
  L 537.75 285.32
  A 1.34 1.34 0.0 0 1 539.62 285.90
  Q 549.95 307.09 552.57 330.51
  Q 553.18 336.01 553.08 341.00
  C 552.99 345.78 553.26 350.32 552.75 355.00
  Q 547.93 398.49 520.09 429.23
  C 490.70 461.68 449.80 476.30 406.40 471.57
  Q 400.28 470.91 394.46 469.60
  Z"
/>
<path fill="#fdeed0" d="
  M 384.22 465.61
  A 1.13 1.13 0.0 0 1 382.82 466.36
  Q 345.81 455.21 321.65 425.09
  Q 310.28 410.92 303.25 394.72
  A 1.36 1.35 68.7 0 1 304.04 392.91
  L 374.31 367.78
  A 0.98 0.97 66.8 0 1 375.52 368.27
  Q 385.09 387.85 404.28 396.39
  A 0.81 0.81 0.0 0 1 404.73 397.36
  L 384.22 465.61
  Z"
/>
</g>
<g>
<rect fill="#d4662e" x="-83.56" y="-5.38" transform="translate(814.35,312.24) rotate(0.3)" width="167.12" height="10.76" rx="4.99"/>
<rect fill="#d4662e" x="-56.52" y="-5.39" transform="translate(786.66,342.09) rotate(0.4)" width="113.04" height="10.78" rx="5.11"/>
</g>
</svg>
