<?xml version="1.0" encoding="UTF-8" standalone="no"?>
<!DOCTYPE svg PUBLIC "-//W3C//DTD SVG 1.0//EN" "http://www.w3.org/TR/2001/REC-SVG-20010904/DTD/svg10.dtd">
<svg xmlns="http://www.w3.org/2000/svg" version="1.0" viewBox="0.00 0.00 1024.00 836.00">
<g stroke-width="2.00" fill="none" stroke-linecap="butt">
<path stroke="#6e353d" d="
  M 311.80 244.69
  L 88.44 253.14
  A 0.61 0.60 89.1 0 1 87.81 252.52
  L 87.94 247.53"
/>
<path stroke="#6e353d" d="
  M 925.72 775.93
  Q 924.94 771.09 926.24 765.25
  Q 935.95 721.72 941.38 673.28
  Q 943.73 652.30 944.02 623.90
  Q 944.07 618.66 943.72 611.10
  Q 943.16 599.02 943.19 598.29
  C 943.32 594.98 942.32 590.97 942.10 587.15
  A 0.48 0.48 0.0 0 1 942.84 586.73
  C 944.43 587.82 945.95 592.62 946.58 594.89
  C 950.46 608.73 951.07 623.65 951.01 638.51
  Q 950.90 664.89 946.14 697.32
  Q 945.72 700.16 945.81 702.91
  A 0.66 0.66 0.0 0 0 946.71 703.51
  Q 963.45 697.33 978.13 687.63
  C 981.39 685.48 989.78 679.97 989.65 676.48
  Q 989.52 672.64 989.16 669.76
  Q 986.35 646.71 980.90 623.10
  Q 973.93 592.89 960.12 564.65
  C 948.17 540.23 930.70 518.64 907.27 504.76
  Q 883.80 490.86 856.14 484.96
  Q 844.40 482.45 832.71 482.61
  Q 813.59 482.86 796.37 485.36
  C 767.42 489.56 739.24 495.42 712.44 505.38
  Q 698.50 510.55 687.99 515.94
  Q 671.81 524.23 664.82 529.08
  Q 647.06 541.43 635.85 552.62
  Q 613.81 574.64 598.78 603.80
  C 584.74 631.03 574.68 660.13 565.29 691.05
  Q 564.52 693.57 563.69 697.20
  A 2.34 2.33 -60.9 0 0 564.31 699.39
  Q 566.76 701.85 569.60 703.66
  Q 577.88 708.92 581.97 711.02
  C 607.74 724.27 634.18 735.01 662.53 739.91
  Q 673.03 741.72 682.80 741.80
  A 2.96 2.96 0.0 0 0 685.38 740.32
  Q 686.69 738.03 687.43 736.15
  C 697.76 709.87 709.09 682.94 719.95 659.02
  A 0.33 0.33 0.0 0 1 720.58 659.19
  C 719.92 666.10 718.84 672.21 716.77 679.00
  C 710.01 701.10 699.61 725.95 692.76 744.45
  Q 691.12 748.87 687.13 749.44
  Q 681.70 750.22 676.72 749.64
  A 1.88 1.87 14.5 0 0 674.76 750.79
  L 656.45 795.79"
/>
<path stroke="#807690" d="
  M 648.35 795.50
  L 666.50 749.76
  A 0.49 0.48 15.9 0 0 666.13 749.10
  Q 615.87 740.54 572.13 715.20
  A 0.74 0.74 0.0 0 0 571.07 715.58
  Q 562.13 739.12 553.90 763.63
  Q 553.32 765.36 551.23 766.68"
/>
<path stroke="#8484ab" d="
  M 631.85 541.97
  Q 632.64 542.10 633.01 541.76
  Q 652.66 523.98 676.16 512.16
  A 0.41 0.40 -42.3 0 0 676.20 511.45
  L 666.58 505.40"
/>
<path stroke="#807690" d="
  M 666.58 505.40
  Q 663.30 503.28 660.13 501.11
  Q 644.05 490.13 636.03 471.75
  Q 632.70 464.10 629.57 454.84
  Q 626.30 445.13 620.96 440.49
  Q 612.66 433.28 597.30 426.30
  Q 593.12 424.40 589.28 424.08
  C 581.98 423.49 585.10 432.43 587.24 435.58
  Q 589.61 439.07 594.64 448.03
  Q 599.15 456.06 599.87 464.80
  Q 600.15 468.14 597.04 470.10
  A 1.63 1.62 34.1 0 1 595.87 470.32
  Q 592.26 469.58 590.53 468.17
  Q 576.58 456.79 559.46 451.48
  A 0.45 0.45 0.0 0 0 558.88 451.85
  C 557.72 461.34 566.66 467.55 575.37 475.91
  C 580.98 481.31 582.24 485.47 586.86 494.92
  C 590.31 501.98 595.84 507.50 603.18 510.47
  C 612.91 514.39 621.20 518.43 628.65 526.10
  Q 631.97 529.53 634.39 532.03"
/>
<path stroke="#8484ab" d="
  M 634.39 532.03
  Q 635.88 536.34 628.91 538.26"
/>
<path stroke="#fbf1e5" d="
  M 666.58 505.40
  C 665.30 506.36 665.81 507.47 665.38 508.48
  Q 664.24 511.14 663.21 511.71
  Q 647.57 520.39 634.39 532.03"
/>
<path stroke="#e9b092" d="
  M 761.31 121.66
  A 0.47 0.47 0.0 0 0 760.74 121.34
  Q 742.17 126.12 713.89 133.92
  Q 711.66 134.53 710.25 133.25
  A 1.12 1.10 22.7 0 1 709.89 132.39
  Q 710.01 129.31 710.55 126.78
  Q 715.84 101.86 719.55 81.49
  A 1.14 1.13 -80.7 0 0 718.60 80.16
  Q 706.77 78.39 695.76 83.26
  Q 674.53 92.65 667.30 114.07
  Q 664.14 123.41 665.25 133.28
  Q 667.90 156.92 688.00 169.53
  Q 697.60 175.55 707.34 176.54
  Q 716.39 177.45 721.00 176.77
  Q 742.04 173.64 752.91 157.88
  Q 762.50 143.98 761.92 126.27
  Q 761.83 123.44 761.31 121.66"
/>
<path stroke="#6e353d" d="
  M 777.39 247.48
  Q 776.79 247.08 775.99 246.99
  Q 761.61 245.36 749.07 240.43
  Q 747.33 239.75 737.80 237.77
  Q 729.38 236.02 726.58 235.08
  Q 717.62 232.06 708.95 226.37
  A 0.68 0.68 0.0 0 0 707.94 227.19
  Q 708.35 228.22 709.62 229.15
  Q 718.53 235.67 730.34 237.90
  C 737.05 239.16 742.29 239.47 747.76 241.77
  C 758.35 246.22 767.10 249.35 777.31 247.82
  A 0.19 0.19 0.0 0 0 777.39 247.48"
/>
<path stroke="#6e353d" d="
  M 670.07 419.13
  Q 665.80 427.91 666.21 438.00
  Q 666.44 443.75 668.41 447.36
  C 672.78 455.38 682.46 459.32 691.26 460.06
  Q 701.41 460.91 707.53 459.77
  C 724.00 456.71 739.68 446.47 750.95 433.70
  Q 760.84 422.50 771.54 404.38"
/>
<path stroke="#807690" d="
  M 771.54 404.38
  Q 770.36 416.09 765.77 424.75
  Q 756.85 441.60 740.83 453.57
  Q 733.56 459.00 721.82 464.21
  A 0.59 0.58 82.3 0 0 721.47 464.68
  L 720.38 472.60
  A 0.09 0.09 0.0 0 0 720.52 472.69
  C 745.64 455.45 776.33 447.15 806.76 445.26
  Q 814.88 444.76 824.12 444.51
  A 0.53 0.52 -5.7 0 0 824.63 443.90
  Q 822.48 430.72 823.20 417.02
  C 823.30 415.14 824.09 413.23 824.20 412.11
  A 1.10 1.10 0.0 0 0 823.63 411.04
  C 814.92 406.24 808.16 399.50 804.58 390.21
  A 0.71 0.70 -35.2 0 0 803.38 390.01
  Q 797.31 397.13 788.28 397.37
  C 782.30 397.53 777.38 394.51 777.03 388.22
  A 1.17 1.16 0.6 0 1 778.29 386.99
  Q 779.38 387.09 779.98 387.49
  C 783.04 389.56 787.20 392.07 790.49 390.74
  C 798.31 387.58 803.91 381.16 810.52 373.79
  Q 820.46 362.71 825.38 349.42
  C 829.79 337.49 825.71 324.93 812.01 323.02
  C 801.93 321.62 790.76 327.78 783.81 334.55
  Q 779.34 338.90 778.01 343.29"
/>
<path stroke="#6e353d" d="
  M 778.01 343.29
  Q 771.74 341.24 765.22 341.37"
/>
<path stroke="#807690" d="
  M 765.22 341.37
  Q 766.58 335.68 767.95 330.13
  C 770.46 319.89 763.25 309.49 762.30 299.59
  Q 761.57 291.92 762.20 286.18
  C 763.43 275.16 769.34 265.45 776.67 256.79
  A 0.45 0.45 0.0 0 0 776.39 256.06
  Q 766.95 254.72 757.30 252.45
  C 750.67 250.89 742.35 248.15 734.42 246.51
  C 725.65 244.70 716.48 242.21 708.00 238.37
  A 2.08 2.05 36.3 0 0 705.77 238.70
  Q 695.76 247.55 689.84 259.35
  Q 683.23 272.49 678.17 286.95
  C 676.97 290.37 674.43 295.51 674.40 299.33
  Q 674.40 300.00 674.49 307.74
  C 674.57 314.92 671.00 321.26 665.87 328.63
  Q 647.53 354.96 646.42 356.68
  Q 644.01 360.39 643.04 362.86
  A 1.61 1.60 29.6 0 0 643.56 364.73
  Q 645.75 366.40 648.35 366.82
  Q 663.34 369.25 675.97 361.45
  A 4.58 4.45 89.9 0 0 677.49 359.88
  L 679.86 355.77
  A 1.48 1.48 0.0 0 1 682.41 355.76
  Q 685.79 361.53 682.21 367.11
  C 679.65 371.10 669.63 370.44 663.50 374.60
  A 1.41 1.37 77.6 0 0 662.91 375.55
  Q 662.24 380.03 665.49 382.41
  A 2.50 2.49 64.3 0 0 666.88 382.90
  Q 671.01 383.07 673.50 382.93
  Q 690.61 382.00 704.88 380.71
  A 2.41 2.40 79.3 0 1 707.42 382.45
  Q 708.52 386.31 706.05 390.00
  Q 694.18 407.74 673.27 411.60
  A 1.16 1.15 -85.6 0 0 672.38 412.37
  L 670.07 419.13"
/>
<path stroke="#e5a277" d="
  M 765.22 341.37
  Q 764.12 343.65 763.68 345.23
  Q 760.02 358.62 756.01 368.54
  C 750.17 383.00 736.43 392.91 723.08 399.87
  A 0.47 0.46 -15.4 0 1 722.40 399.49
  L 721.84 389.83
  A 0.58 0.58 0.0 0 0 720.76 389.57
  Q 718.95 392.61 714.73 393.17
  Q 711.75 393.55 710.64 393.05
  A 0.40 0.39 14.9 0 0 710.08 393.37
  Q 709.08 404.60 703.63 414.35
  C 699.76 421.26 693.11 428.18 685.41 430.43
  A 0.31 0.30 -85.8 0 1 685.05 430.01
  L 689.91 419.24
  A 1.64 1.63 24.9 0 0 689.12 417.09
  Q 688.98 417.02 688.25 417.09
  Q 679.39 418.05 670.07 419.13"
/>
<path stroke="#e5a277" d="
  M 771.54 404.38
  Q 773.42 392.16 774.55 378.93
  C 775.80 364.34 776.72 355.21 778.01 343.29"
/>
<path stroke="#6e353d" d="
  M 777.24 310.83
  L 770.71 289.32
  A 0.01 0.01 0.0 0 0 770.70 289.32
  L 770.66 289.33
  A 11.05 2.03 73.1 0 0 771.93 300.49
  L 772.04 300.87
  A 11.05 2.03 73.1 0 0 777.20 310.86
  L 777.24 310.84
  A 0.01 0.01 0.0 0 0 777.24 310.83"
/>
<path stroke="#6e353d" d="
  M 784.48 307.00
  A 1.31 1.29 54.6 0 0 784.68 305.76
  Q 781.51 296.99 780.99 289.97
  A 0.68 0.68 0.0 0 0 779.63 289.95
  C 779.01 295.74 781.25 301.69 783.68 306.93
  A 0.46 0.46 0.0 0 0 784.46 307.02
  L 784.48 307.00"
/>
<path stroke="#8484ab" d="
  M 673.06 391.03
  Q 675.90 397.13 675.15 404.42
  A 0.46 0.46 0.0 0 0 675.77 404.89
  C 685.72 401.07 693.74 396.77 699.77 389.36
  A 0.33 0.33 0.0 0 0 699.49 388.83
  L 673.46 390.34
  A 0.49 0.48 75.7 0 0 673.06 391.03"
/>
<path stroke="#6e353d" d="
  M 709.94 497.29
  C 721.25 493.94 732.58 490.18 742.63 487.76
  C 775.65 479.78 808.33 474.37 841.29 475.06
  A 0.90 0.90 0.0 0 0 842.20 474.05
  Q 841.29 466.77 840.14 462.15
  C 838.84 456.94 838.23 452.95 832.50 452.82
  C 802.53 452.16 774.78 455.86 747.90 467.01
  C 736.08 471.91 725.50 478.56 717.07 486.56
  Q 712.60 490.80 709.30 496.47
  A 0.56 0.56 0.0 0 0 709.94 497.29"
/>
<path stroke="#807690" d="
  M 682.05 294.01
  A 2.16 2.15 32.5 0 0 682.89 297.78
  Q 682.93 297.79 688.20 298.17
  C 695.56 298.69 702.16 302.25 707.35 307.46
  C 709.46 309.58 713.30 314.94 717.24 316.25
  A 1.24 1.23 -77.8 0 0 718.86 315.20
  Q 719.40 309.68 716.38 305.10
  Q 707.21 291.20 690.44 290.19
  A 8.79 8.79 0.0 0 0 684.42 292.11
  L 682.05 294.01"
/>
<path stroke="#807690" d="
  M 709.47 326.12
  A 0.34 0.34 0.0 0 0 710.04 325.79
  C 708.12 319.29 704.01 316.25 697.82 312.49
  Q 693.86 310.09 689.78 311.79
  A 1.24 1.24 0.0 0 0 689.27 313.69
  L 690.19 314.89
  A 1.12 1.10 -62.1 0 1 690.41 315.64
  C 689.98 321.00 688.92 334.14 695.23 334.16
  C 700.06 334.17 701.38 323.97 700.98 320.66
  A 1.20 1.20 0.0 0 1 703.02 319.67
  L 709.47 326.12"
/>
<path stroke="#807690" d="
  M 730.1322 331.5705
  A 4.14 1.20 13.7 0 0 726.3942 329.4241
  A 4.14 1.20 13.7 0 0 722.0878 329.6095
  A 4.14 1.20 13.7 0 0 725.8258 331.7559
  A 4.14 1.20 13.7 0 0 730.1322 331.5705"
/>
<path stroke="#6e353d" d="
  M 444.65 330.55
  A 3.14 3.14 0.0 0 0 441.51 327.41
  L 438.53 327.41
  A 3.14 3.14 0.0 0 0 435.39 330.55
  L 435.39 340.87
  A 3.14 3.14 0.0 0 0 438.53 344.01
  L 441.51 344.01
  A 3.14 3.14 0.0 0 0 444.65 340.87
  L 444.65 330.55"
/>
<path stroke="#6e353d" d="
  M 460.79 329.59
  L 460.79 401.39
  A 2.16 2.16 0.0 0 0 462.95 403.55
  L 467.28 403.55
  A 7.43 2.73 -90.0 0 0 470.01 396.12
  L 470.01 334.86
  A 7.43 2.73 90.0 0 0 467.28 327.43
  L 462.95 327.43
  A 2.16 2.16 0.0 0 0 460.79 329.59"
/>
<path stroke="#807690" d="
  M 788.67 355.01
  A 1.20 1.19 56.4 0 0 790.43 355.37
  L 796.53 350.69
  A 1.26 1.26 0.0 0 1 798.51 351.36
  C 800.40 358.27 797.59 364.20 792.64 368.94
  A 1.68 1.44 -59.4 0 0 793.12 371.69
  C 797.05 372.37 801.98 366.03 803.39 362.90
  Q 807.50 353.74 802.00 345.58
  A 1.10 1.10 0.0 0 1 802.28 344.07
  C 806.64 341.07 809.71 342.22 814.36 342.25
  A 2.47 2.23 -1.8 0 0 816.86 339.85
  Q 816.65 337.26 813.79 335.96
  C 804.23 331.61 793.14 340.46 788.70 348.40
  C 787.50 350.53 787.54 353.02 788.67 355.01"
/>
<path stroke="#6e353d" d="
  M 424.77 360.35
  A 3.12 3.12 0.0 0 0 421.65 357.23
  L 418.55 357.23
  A 3.12 3.12 0.0 0 0 415.43 360.35
  L 415.43 370.63
  A 3.12 3.12 0.0 0 0 418.55 373.75
  L 421.65 373.75
  A 3.12 3.12 0.0 0 0 424.77 370.63
  L 424.77 360.35"
/>
<path stroke="#6e353d" d="
  M 403.3937 384.2382
  A 3.70 3.70 0.0 0 0 399.7001 380.5317
  L 397.7401 380.5283
  A 3.70 3.70 0.0 0 0 394.0337 384.2218
  L 394.0063 399.8818
  A 3.70 3.70 0.0 0 0 397.6999 403.5883
  L 399.6599 403.5917
  A 3.70 3.70 0.0 0 0 403.3663 399.8982
  L 403.3937 384.2382"
/>
<path stroke="#6e353d" d="
  M 706.21 653.20
  Q 706.38 652.86 706.44 652.26
  C 709.41 621.44 698.06 585.89 674.22 565.01
  Q 665.98 557.80 655.07 554.33
  A 0.35 0.35 0.0 0 0 654.62 554.74
  Q 654.80 555.50 655.51 556.00
  Q 665.37 562.85 672.74 572.30
  Q 693.96 599.49 701.54 632.65
  Q 704.03 643.49 705.32 653.05
  A 0.47 0.47 0.0 0 0 706.21 653.20"
/>
</g>
<g>
<path fill="#090956" d="
  M 674.40 207.28
  A 2.38 2.37 6.8 0 1 675.86 209.13
  C 676.78 215.46 669.65 215.47 665.00 215.54
  Q 652.56 215.71 640.76 215.62
  C 630.65 215.54 621.77 209.76 618.44 200.64
  Q 617.04 196.83 617.19 184.18
  Q 617.91 122.09 618.03 60.75
  C 618.04 57.47 619.49 52.86 621.45 49.75
  C 626.47 41.83 634.24 38.04 643.56 37.96
  C 646.27 37.93 649.05 37.79 651.05 37.84
  Q 699.14 39.04 710.70 39.07
  Q 719.40 39.10 734.30 39.67
  C 748.99 40.23 764.60 39.84 779.60 40.59
  Q 786.71 40.95 801.33 41.01
  C 812.45 41.06 827.07 41.82 839.01 41.82
  C 847.79 41.83 855.40 46.06 859.56 53.94
  Q 862.28 59.11 862.25 66.25
  Q 862.02 125.54 861.12 189.02
  Q 861.01 196.40 859.53 200.22
  Q 855.51 210.59 843.78 213.78
  C 838.35 215.26 831.07 214.40 823.37 213.91
  C 820.10 213.70 815.96 209.97 819.98 206.80
  Q 821.55 205.55 825.52 205.57
  Q 834.68 205.62 839.93 205.19
  A 5.93 5.88 33.2 0 0 841.20 204.93
  Q 852.09 201.45 852.20 189.01
  Q 853.01 95.60 853.17 70.50
  C 853.23 62.06 851.54 56.16 843.56 52.26
  Q 841.42 51.22 833.50 51.15
  Q 802.99 50.86 795.17 50.46
  C 780.88 49.72 763.03 50.28 749.50 49.67
  Q 744.86 49.46 740.25 49.30
  C 724.23 48.77 704.68 48.99 684.92 48.45
  Q 662.47 47.84 645.00 47.89
  Q 630.11 47.94 627.19 61.28
  A 5.20 4.92 52.8 0 0 627.07 62.38
  C 626.89 80.37 627.10 106.13 626.57 126.84
  Q 625.94 151.22 625.97 186.87
  Q 625.98 194.96 627.40 197.95
  C 631.41 206.43 638.97 206.31 648.62 206.36
  Q 659.01 206.41 670.26 206.47
  Q 672.40 206.48 674.40 207.28
  Z"
/>
<path fill="#090956" d="
  M 366.03 447.52
  C 365.97 452.94 359.51 452.68 355.78 453.46
  C 346.57 455.38 333.64 457.32 326.44 458.56
  Q 259.11 470.23 248.25 472.01
  Q 184.25 482.55 120.53 493.49
  Q 67.27 502.64 52.81 504.74
  C 49.26 505.25 45.70 506.11 42.70 505.59
  C 31.00 503.53 25.10 495.86 25.13 484.25
  Q 25.80 233.29 26.04 63.00
  C 26.05 51.06 33.70 42.16 45.99 42.04
  C 63.22 41.88 87.25 42.94 107.31 42.97
  C 133.71 43.01 158.39 44.01 184.37 44.03
  Q 206.02 44.05 233.50 44.65
  Q 257.93 45.18 306.84 45.34
  C 309.95 45.35 313.78 45.79 316.50 45.80
  Q 368.65 45.98 387.75 46.38
  Q 413.45 46.91 449.25 47.05
  C 472.44 47.13 498.71 47.91 524.28 47.97
  C 527.19 47.98 531.52 49.25 534.17 50.84
  Q 543.96 56.73 543.97 68.27
  Q 544.06 212.36 543.92 353.48
  C 543.91 355.47 543.29 358.11 541.18 358.80
  C 534.47 361.00 534.69 352.70 534.69 349.00
  Q 535.04 199.53 534.60 70.31
  C 534.58 63.47 530.09 57.93 522.95 57.96
  C 493.03 58.07 454.04 56.83 420.17 56.95
  Q 405.97 57.00 391.06 56.57
  C 356.91 55.57 320.05 56.18 284.35 55.47
  C 257.82 54.94 233.80 55.21 206.04 54.59
  C 179.96 54.02 156.96 54.21 134.35 53.46
  C 115.16 52.82 94.74 53.18 73.43 52.46
  Q 58.64 51.95 47.29 51.99
  Q 39.61 52.02 36.55 57.51
  Q 35.07 60.17 35.01 68.75
  C 34.04 212.80 33.75 370.61 33.82 480.25
  Q 33.83 485.18 33.99 487.56
  A 4.85 4.83 34.6 0 0 34.18 488.58
  Q 35.90 494.24 42.31 495.97
  C 44.04 496.43 48.19 496.07 50.56 495.68
  Q 85.00 490.01 85.50 489.93
  Q 219.40 466.99 342.39 446.45
  Q 347.93 445.53 356.00 444.23
  C 359.43 443.67 363.58 443.17 365.71 446.42
  A 1.94 1.94 0.0 0 1 366.03 447.52
  Z"
/>
<path fill="#090956" d="
  M 135.62 67.26
  Q 135.82 67.26 135.91 67.33
  Q 141.82 71.98 150.57 78.45
  Q 152.17 79.64 153.09 80.49
  A 0.41 0.41 0.0 0 1 153.00 81.15
  Q 150.40 82.51 149.48 85.41
  A 0.53 0.52 27.5 0 1 148.66 85.66
  L 143.68 81.81
  A 0.97 0.97 0.0 0 1 143.30 81.02
  L 143.32 79.05
  A 1.05 1.04 -71.3 0 0 142.90 78.19
  L 135.74 72.88
  A 0.16 0.10 -17.5 0 0 135.67 72.86
  Q 135.65 72.86 135.62 72.86
  Q 135.60 72.86 135.58 72.86
  A 0.16 0.10 17.4 0 0 135.51 72.88
  L 128.36 78.20
  A 1.05 1.04 71.2 0 0 127.94 79.07
  L 127.96 81.04
  A 0.97 0.97 0.0 0 1 127.58 81.83
  L 122.61 85.69
  A 0.53 0.52 -27.6 0 1 121.79 85.44
  Q 120.87 82.54 118.26 81.18
  A 0.41 0.41 0.0 0 1 118.17 80.52
  Q 119.09 79.67 120.69 78.48
  Q 129.42 71.99 135.33 67.33
  Q 135.42 67.26 135.62 67.26
  Z"
/>
<path fill="#d26024" d="
  M 772.30 128.34
  A 58.43 58.43 0.0 0 1 713.87 186.77
  A 58.43 58.43 0.0 0 1 655.44 128.34
  A 58.43 58.43 0.0 0 1 713.87 69.91
  A 58.43 58.43 0.0 0 1 772.30 128.34
  Z
  M 761.31 121.66
  A 0.47 0.47 0.0 0 0 760.74 121.34
  Q 742.17 126.12 713.89 133.92
  Q 711.66 134.53 710.25 133.25
  A 1.12 1.10 22.7 0 1 709.89 132.39
  Q 710.01 129.31 710.55 126.78
  Q 715.84 101.86 719.55 81.49
  A 1.14 1.13 -80.7 0 0 718.60 80.16
  Q 706.77 78.39 695.76 83.26
  Q 674.53 92.65 667.30 114.07
  Q 664.14 123.41 665.25 133.28
  Q 667.90 156.92 688.00 169.53
  Q 697.60 175.55 707.34 176.54
  Q 716.39 177.45 721.00 176.77
  Q 742.04 173.64 752.91 157.88
  Q 762.50 143.98 761.92 126.27
  Q 761.83 123.44 761.31 121.66
  Z"
/>
<path fill="#090956" d="
  M 135.64 78.38
  Q 135.77 78.38 135.96 78.52
  Q 145.58 85.92 157.43 94.87
  A 2.50 2.45 67.0 0 0 158.54 95.33
  Q 158.85 95.37 159.11 95.31
  A 0.69 0.69 0.0 0 1 159.95 95.98
  L 159.95 101.85
  A 0.30 0.30 0.0 0 1 159.46 102.09
  L 149.51 94.39
  A 0.25 0.25 0.0 0 0 149.10 94.59
  L 149.10 119.98
  A 1.20 1.19 -18.8 0 1 148.63 120.93
  L 141.24 126.59
  A 0.35 0.35 0.0 0 1 140.67 126.31
  L 140.67 122.17
  A 1.45 1.43 71.7 0 1 141.24 121.02
  L 142.85 119.78
  A 1.07 1.07 0.0 0 0 143.27 118.93
  L 143.27 89.95
  A 0.50 0.46 -73.0 0 0 143.08 89.56
  L 138.74 86.20
  A 0.12 0.12 0.0 0 0 138.55 86.29
  L 138.55 131.47
  A 0.31 0.30 -18.7 0 0 139.04 131.71
  L 151.30 122.32
  A 1.07 1.07 0.0 0 0 151.72 121.47
  L 151.72 100.61
  A 0.16 0.15 18.9 0 1 151.97 100.49
  L 159.49 106.30
  A 0.33 0.32 -54.7 0 1 159.56 106.73
  Q 159.42 106.95 159.00 107.31
  Q 157.53 108.55 157.42 110.42
  Q 157.38 111.22 157.41 124.42
  A 1.13 1.12 -19.1 0 1 156.97 125.31
  Q 143.97 135.39 136.72 140.68
  Q 136.37 140.94 135.63 140.94
  Q 134.89 140.94 134.54 140.68
  Q 127.30 135.39 114.30 125.31
  A 1.13 1.12 19.1 0 1 113.86 124.42
  Q 113.89 111.22 113.85 110.42
  Q 113.74 108.55 112.27 107.31
  Q 111.85 106.95 111.71 106.73
  A 0.33 0.32 54.7 0 1 111.78 106.30
  L 119.30 100.49
  A 0.16 0.15 -18.9 0 1 119.55 100.61
  L 119.55 121.47
  A 1.07 1.07 0.0 0 0 119.97 122.32
  L 132.23 131.71
  A 0.31 0.30 18.7 0 0 132.72 131.47
  L 132.72 86.29
  A 0.12 0.12 0.0 0 0 132.53 86.20
  L 128.19 89.56
  A 0.50 0.46 73.0 0 0 128.00 89.95
  L 128.00 118.93
  A 1.07 1.07 0.0 0 0 128.42 119.78
  L 130.03 121.02
  A 1.45 1.43 -71.7 0 1 130.60 122.17
  L 130.60 126.31
  A 0.35 0.35 0.0 0 1 130.03 126.59
  L 122.64 120.93
  A 1.20 1.19 18.8 0 1 122.17 119.98
  L 122.17 94.59
  A 0.25 0.25 0.0 0 0 121.76 94.39
  L 111.81 102.09
  A 0.30 0.30 0.0 0 1 111.32 101.85
  L 111.32 95.98
  A 0.69 0.69 0.0 0 1 112.16 95.31
  Q 112.42 95.37 112.73 95.33
  A 2.50 2.45 -67.0 0 0 113.84 94.87
  Q 125.69 85.92 135.31 78.52
  Q 135.50 78.38 135.64 78.38
  Z"
/>
<rect fill="#090956" x="-15.84" y="-4.75" transform="translate(803.03,90.16) rotate(1.6)" width="31.68" height="9.50" rx="4.59"/>
<path fill="#d26024" d="
  M 311.80 244.69
  L 88.44 253.14
  A 0.61 0.60 89.1 0 1 87.81 252.52
  L 87.94 247.53
  Q 113.01 208.42 137.82 169.13
  Q 139.62 166.28 141.62 164.65
  Q 143.13 163.42 145.83 164.08
  A 0.49 0.33 -10.9 0 1 145.97 164.14
  L 182.52 185.00
  A 0.83 0.83 0.0 0 0 183.59 184.79
  Q 184.74 183.29 188.18 177.91
  Q 189.34 176.09 230.51 112.26
  C 233.95 106.93 236.81 108.82 240.66 111.36
  Q 244.15 113.67 268.34 131.68
  A 2.45 2.45 0.0 0 0 271.57 131.42
  Q 290.14 112.17 310.58 90.08
  C 313.15 87.31 317.97 83.42 320.78 88.56
  A 1.77 1.76 29.3 0 1 321.00 89.33
  Q 321.37 95.68 320.26 107.49
  Q 319.85 111.85 318.96 129.58
  Q 318.73 134.14 318.28 138.40
  C 317.85 142.43 318.23 146.47 317.71 150.19
  C 316.84 156.40 316.99 162.66 316.43 169.60
  Q 315.33 183.43 314.68 197.25
  Q 314.56 199.71 314.38 202.76
  Q 313.22 222.71 311.71 242.25
  Q 311.64 243.19 311.80 244.69
  Z"
/>
<path fill="#090956" d="
  M 87.94 247.53
  L 87.81 252.52
  A 0.61 0.60 89.1 0 0 88.44 253.14
  L 311.80 244.69
  Q 324.28 243.57 336.91 243.88
  A 1.88 1.85 62.1 0 1 337.92 244.20
  Q 339.71 245.40 339.85 247.32
  Q 340.12 250.97 335.84 252.61
  A 2.95 2.79 29.9 0 1 335.09 252.79
  C 330.92 253.23 325.69 253.02 320.34 253.27
  Q 283.89 255.00 253.31 255.93
  Q 241.96 256.28 235.70 256.69
  C 227.95 257.20 220.97 256.88 212.18 257.47
  Q 203.15 258.08 192.75 258.09
  C 188.31 258.10 183.41 258.91 179.77 258.90
  Q 167.78 258.85 157.89 259.58
  C 150.37 260.13 143.81 259.75 137.07 260.30
  C 128.35 261.02 119.79 260.82 112.77 261.33
  Q 104.85 261.90 86.99 262.43
  C 79.19 262.66 78.56 259.12 78.60 252.25
  Q 78.72 235.58 80.14 95.80
  A 4.50 4.49 -0.8 0 1 84.47 91.35
  L 84.65 91.35
  A 4.14 4.11 -0.9 0 1 88.94 95.49
  L 87.94 247.53
  Z"
/>
<rect fill="#090956" x="-22.42" y="-4.96" transform="translate(398.00,99.06) rotate(0.2)" width="44.84" height="9.92" rx="4.83"/>
<rect fill="#090956" x="-16.84" y="-4.94" transform="translate(477.95,99.09) rotate(0.2)" width="33.68" height="9.88" rx="4.79"/>
<rect fill="#090956" x="-16.11" y="-4.85" transform="translate(802.92,127.19) rotate(1.0)" width="32.22" height="9.70" rx="4.68"/>
<rect fill="#090956" x="-21.71" y="-5.02" transform="translate(398.10,140.03) rotate(0.2)" width="43.42" height="10.04" rx="4.88"/>
<rect fill="#090956" x="-16.98" y="-4.98" transform="translate(477.86,140.27) rotate(0.3)" width="33.96" height="9.96" rx="4.82"/>
<rect fill="#090956" x="-16.20" y="-4.65" transform="translate(803.24,162.19) rotate(1.3)" width="32.40" height="9.30" rx="4.49"/>
<rect fill="#d26024" x="-22.92" y="-4.82" transform="translate(398.05,181.66) rotate(-1.2)" width="45.84" height="9.64" rx="4.70"/>
<path fill="#d26024" d="
  M 478.36 176.49
  Q 485.22 176.39 488.86 176.73
  Q 494.87 177.29 494.93 181.18
  Q 494.99 185.06 488.99 185.80
  Q 485.37 186.24 478.50 186.34
  Q 471.63 186.44 467.99 186.10
  Q 461.98 185.55 461.93 181.66
  Q 461.87 177.77 467.86 177.04
  Q 471.49 176.59 478.36 176.49
  Z"
/>
<path fill="#090956" d="
  M 925.72 775.93
  Q 924.94 771.09 926.24 765.25
  Q 935.95 721.72 941.38 673.28
  Q 943.73 652.30 944.02 623.90
  Q 944.07 618.66 943.72 611.10
  Q 943.16 599.02 943.19 598.29
  C 943.32 594.98 942.32 590.97 942.10 587.15
  A 0.48 0.48 0.0 0 1 942.84 586.73
  C 944.43 587.82 945.95 592.62 946.58 594.89
  C 950.46 608.73 951.07 623.65 951.01 638.51
  Q 950.90 664.89 946.14 697.32
  Q 945.72 700.16 945.81 702.91
  A 0.66 0.66 0.0 0 0 946.71 703.51
  Q 963.45 697.33 978.13 687.63
  C 981.39 685.48 989.78 679.97 989.65 676.48
  Q 989.52 672.64 989.16 669.76
  Q 986.35 646.71 980.90 623.10
  Q 973.93 592.89 960.12 564.65
  C 948.17 540.23 930.70 518.64 907.27 504.76
  Q 883.80 490.86 856.14 484.96
  Q 844.40 482.45 832.71 482.61
  Q 813.59 482.86 796.37 485.36
  C 767.42 489.56 739.24 495.42 712.44 505.38
  Q 698.50 510.55 687.99 515.94
  Q 671.81 524.23 664.82 529.08
  Q 647.06 541.43 635.85 552.62
  Q 613.81 574.64 598.78 603.80
  C 584.74 631.03 574.68 660.13 565.29 691.05
  Q 564.52 693.57 563.69 697.20
  A 2.34 2.33 -60.9 0 0 564.31 699.39
  Q 566.76 701.85 569.60 703.66
  Q 577.88 708.92 581.97 711.02
  C 607.74 724.27 634.18 735.01 662.53 739.91
  Q 673.03 741.72 682.80 741.80
  A 2.96 2.96 0.0 0 0 685.38 740.32
  Q 686.69 738.03 687.43 736.15
  C 697.76 709.87 709.09 682.94 719.95 659.02
  A 0.33 0.33 0.0 0 1 720.58 659.19
  C 719.92 666.10 718.84 672.21 716.77 679.00
  C 710.01 701.10 699.61 725.95 692.76 744.45
  Q 691.12 748.87 687.13 749.44
  Q 681.70 750.22 676.72 749.64
  A 1.88 1.87 14.5 0 0 674.76 750.79
  L 656.45 795.79
  C 653.43 796.72 651.66 797.50 648.35 795.50
  L 666.50 749.76
  A 0.49 0.48 15.9 0 0 666.13 749.10
  Q 615.87 740.54 572.13 715.20
  A 0.74 0.74 0.0 0 0 571.07 715.58
  Q 562.13 739.12 553.90 763.63
  Q 553.32 765.36 551.23 766.68
  L 548.52 765.63
  A 2.48 2.47 6.4 0 1 546.96 763.68
  Q 546.42 759.98 547.37 757.13
  Q 554.16 736.55 561.88 715.88
  Q 562.67 713.76 564.00 711.67
  A 1.45 1.44 33.9 0 0 563.61 709.71
  C 559.51 706.83 556.16 705.99 554.42 700.81
  A 3.19 3.19 0.0 0 1 554.29 699.38
  Q 554.87 695.20 555.04 694.59
  Q 568.36 648.71 581.82 617.31
  C 593.74 589.50 609.73 563.91 631.47 542.98
  Q 631.71 542.74 631.85 541.97
  Q 632.64 542.10 633.01 541.76
  Q 652.66 523.98 676.16 512.16
  A 0.41 0.40 -42.3 0 0 676.20 511.45
  L 666.58 505.40
  Q 663.30 503.28 660.13 501.11
  Q 644.05 490.13 636.03 471.75
  Q 632.70 464.10 629.57 454.84
  Q 626.30 445.13 620.96 440.49
  Q 612.66 433.28 597.30 426.30
  Q 593.12 424.40 589.28 424.08
  C 581.98 423.49 585.10 432.43 587.24 435.58
  Q 589.61 439.07 594.64 448.03
  Q 599.15 456.06 599.87 464.80
  Q 600.15 468.14 597.04 470.10
  A 1.63 1.62 34.1 0 1 595.87 470.32
  Q 592.26 469.58 590.53 468.17
  Q 576.58 456.79 559.46 451.48
  A 0.45 0.45 0.0 0 0 558.88 451.85
  C 557.72 461.34 566.66 467.55 575.37 475.91
  C 580.98 481.31 582.24 485.47 586.86 494.92
  C 590.31 501.98 595.84 507.50 603.18 510.47
  C 612.91 514.39 621.20 518.43 628.65 526.10
  Q 631.97 529.53 634.39 532.03
  Q 635.88 536.34 628.91 538.26
  Q 624.49 534.00 619.54 528.94
  Q 616.14 525.46 607.57 521.72
  Q 598.76 517.87 593.93 515.13
  C 584.55 509.83 579.00 499.95 574.93 489.61
  C 571.01 479.68 559.47 474.72 553.97 465.69
  C 551.28 461.26 548.80 454.68 550.54 449.51
  A 1.15 1.14 25.2 0 0 550.05 448.17
  L 507.32 422.05
  A 0.45 0.45 0.0 0 0 506.74 422.15
  Q 490.92 441.28 467.96 449.96
  Q 429.53 464.48 393.12 447.28
  Q 376.88 439.61 363.97 425.21
  C 345.02 404.09 337.94 375.46 342.39 347.56
  Q 343.30 341.81 344.46 337.16
  C 350.61 312.32 368.22 291.05 390.82 278.93
  Q 406.76 270.38 425.32 268.77
  Q 452.57 266.39 477.79 279.46
  C 509.57 295.94 528.40 328.48 528.11 364.29
  C 528.04 373.62 526.07 383.74 523.01 392.61
  A 0.92 0.91 -65.0 0 0 523.40 393.70
  L 573.85 424.54
  A 1.08 1.07 -61.3 0 0 575.38 424.09
  C 580.73 413.09 591.60 413.61 601.29 417.96
  Q 615.13 424.17 625.66 433.36
  Q 632.34 439.20 636.67 449.13
  C 639.45 455.51 642.37 466.07 646.33 473.07
  Q 652.28 483.59 662.11 491.66
  C 667.87 496.38 677.05 500.87 682.47 507.27
  A 1.13 1.11 -31.0 0 0 683.75 507.58
  L 698.65 501.51
  A 2.06 2.06 0.0 0 0 699.91 499.98
  C 701.55 491.44 705.75 485.55 711.22 479.00
  C 713.26 476.56 712.83 471.38 713.03 468.64
  A 0.85 0.85 0.0 0 0 712.00 467.74
  C 697.09 470.97 679.65 468.99 667.45 459.80
  Q 659.53 453.84 658.15 442.18
  C 656.64 429.50 660.95 416.79 666.81 405.32
  Q 667.54 403.89 666.87 399.27
  Q 666.09 393.83 665.92 391.98
  A 1.13 1.11 -86.2 0 0 665.06 390.98
  Q 658.99 389.60 656.32 383.99
  Q 655.54 382.33 654.85 376.69
  A 0.82 0.82 0.0 0 0 654.22 375.99
  C 653.07 375.71 651.22 376.14 650.27 375.98
  C 641.37 374.43 632.54 370.55 635.35 359.58
  Q 636.26 356.01 640.62 349.86
  Q 654.61 330.10 658.73 324.22
  C 662.19 319.27 666.19 314.03 665.87 307.41
  Q 665.40 297.83 668.33 289.33
  C 674.02 272.85 681.07 255.44 691.81 241.04
  Q 694.04 238.06 696.23 236.06
  A 0.49 0.48 39.5 0 0 696.15 235.29
  C 690.12 231.55 683.36 223.64 689.12 216.45
  C 694.02 210.31 702.79 206.82 710.12 205.15
  Q 739.56 198.44 767.22 202.09
  Q 796.50 205.96 822.18 218.29
  C 855.00 234.04 880.71 265.80 878.86 303.71
  Q 878.10 319.45 872.30 336.55
  C 863.45 362.63 849.73 386.69 832.83 408.87
  A 4.15 4.09 -23.0 0 0 832.02 410.84
  Q 829.97 427.32 832.12 442.87
  A 1.78 1.77 89.4 0 0 833.67 444.39
  Q 837.31 444.82 839.39 445.35
  C 843.79 446.47 846.43 452.45 847.36 456.40
  Q 849.47 465.41 850.15 473.48
  A 1.32 1.31 3.0 0 0 851.21 474.65
  Q 868.61 477.94 885.21 484.05
  C 906.95 492.05 927.59 505.92 942.82 522.67
  C 953.80 534.74 963.30 549.82 970.56 565.67
  Q 985.68 598.70 992.50 634.52
  Q 994.50 645.00 997.81 666.47
  Q 998.68 672.13 998.73 678.00
  C 998.77 682.30 994.92 686.23 991.44 688.93
  Q 970.93 704.90 946.39 712.67
  A 2.38 2.38 0.0 0 0 944.75 714.57
  Q 940.85 739.08 936.01 760.76
  Q 933.77 770.75 932.62 772.85
  Q 930.90 776.00 925.72 775.93
  Z
  M 777.39 247.48
  Q 776.79 247.08 775.99 246.99
  Q 761.61 245.36 749.07 240.43
  Q 747.33 239.75 737.80 237.77
  Q 729.38 236.02 726.58 235.08
  Q 717.62 232.06 708.95 226.37
  A 0.68 0.68 0.0 0 0 707.94 227.19
  Q 708.35 228.22 709.62 229.15
  Q 718.53 235.67 730.34 237.90
  C 737.05 239.16 742.29 239.47 747.76 241.77
  C 758.35 246.22 767.10 249.35 777.31 247.82
  A 0.19 0.19 0.0 0 0 777.39 247.48
  Z
  M 670.07 419.13
  Q 665.80 427.91 666.21 438.00
  Q 666.44 443.75 668.41 447.36
  C 672.78 455.38 682.46 459.32 691.26 460.06
  Q 701.41 460.91 707.53 459.77
  C 724.00 456.71 739.68 446.47 750.95 433.70
  Q 760.84 422.50 771.54 404.38
  Q 770.36 416.09 765.77 424.75
  Q 756.85 441.60 740.83 453.57
  Q 733.56 459.00 721.82 464.21
  A 0.59 0.58 82.3 0 0 721.47 464.68
  L 720.38 472.60
  A 0.09 0.09 0.0 0 0 720.52 472.69
  C 745.64 455.45 776.33 447.15 806.76 445.26
  Q 814.88 444.76 824.12 444.51
  A 0.53 0.52 -5.7 0 0 824.63 443.90
  Q 822.48 430.72 823.20 417.02
  C 823.30 415.14 824.09 413.23 824.20 412.11
  A 1.10 1.10 0.0 0 0 823.63 411.04
  C 814.92 406.24 808.16 399.50 804.58 390.21
  A 0.71 0.70 -35.2 0 0 803.38 390.01
  Q 797.31 397.13 788.28 397.37
  C 782.30 397.53 777.38 394.51 777.03 388.22
  A 1.17 1.16 0.6 0 1 778.29 386.99
  Q 779.38 387.09 779.98 387.49
  C 783.04 389.56 787.20 392.07 790.49 390.74
  C 798.31 387.58 803.91 381.16 810.52 373.79
  Q 820.46 362.71 825.38 349.42
  C 829.79 337.49 825.71 324.93 812.01 323.02
  C 801.93 321.62 790.76 327.78 783.81 334.55
  Q 779.34 338.90 778.01 343.29
  Q 771.74 341.24 765.22 341.37
  Q 766.58 335.68 767.95 330.13
  C 770.46 319.89 763.25 309.49 762.30 299.59
  Q 761.57 291.92 762.20 286.18
  C 763.43 275.16 769.34 265.45 776.67 256.79
  A 0.45 0.45 0.0 0 0 776.39 256.06
  Q 766.95 254.72 757.30 252.45
  C 750.67 250.89 742.35 248.15 734.42 246.51
  C 725.65 244.70 716.48 242.21 708.00 238.37
  A 2.08 2.05 36.3 0 0 705.77 238.70
  Q 695.76 247.55 689.84 259.35
  Q 683.23 272.49 678.17 286.95
  C 676.97 290.37 674.43 295.51 674.40 299.33
  Q 674.40 300.00 674.49 307.74
  C 674.57 314.92 671.00 321.26 665.87 328.63
  Q 647.53 354.96 646.42 356.68
  Q 644.01 360.39 643.04 362.86
  A 1.61 1.60 29.6 0 0 643.56 364.73
  Q 645.75 366.40 648.35 366.82
  Q 663.34 369.25 675.97 361.45
  A 4.58 4.45 89.9 0 0 677.49 359.88
  L 679.86 355.77
  A 1.48 1.48 0.0 0 1 682.41 355.76
  Q 685.79 361.53 682.21 367.11
  C 679.65 371.10 669.63 370.44 663.50 374.60
  A 1.41 1.37 77.6 0 0 662.91 375.55
  Q 662.24 380.03 665.49 382.41
  A 2.50 2.49 64.3 0 0 666.88 382.90
  Q 671.01 383.07 673.50 382.93
  Q 690.61 382.00 704.88 380.71
  A 2.41 2.40 79.3 0 1 707.42 382.45
  Q 708.52 386.31 706.05 390.00
  Q 694.18 407.74 673.27 411.60
  A 1.16 1.15 -85.6 0 0 672.38 412.37
  L 670.07 419.13
  Z
  M 513.92 362.66
  A 79.72 79.72 0.0 0 0 434.20 282.94
  A 79.72 79.72 0.0 0 0 354.48 362.66
  A 79.72 79.72 0.0 0 0 434.20 442.38
  A 79.72 79.72 0.0 0 0 513.92 362.66
  Z
  M 777.24 310.83
  L 770.71 289.32
  A 0.01 0.01 0.0 0 0 770.70 289.32
  L 770.66 289.33
  A 11.05 2.03 73.1 0 0 771.93 300.49
  L 772.04 300.87
  A 11.05 2.03 73.1 0 0 777.20 310.86
  L 777.24 310.84
  A 0.01 0.01 0.0 0 0 777.24 310.83
  Z
  M 784.48 307.00
  A 1.31 1.29 54.6 0 0 784.68 305.76
  Q 781.51 296.99 780.99 289.97
  A 0.68 0.68 0.0 0 0 779.63 289.95
  C 779.01 295.74 781.25 301.69 783.68 306.93
  A 0.46 0.46 0.0 0 0 784.46 307.02
  L 784.48 307.00
  Z
  M 673.06 391.03
  Q 675.90 397.13 675.15 404.42
  A 0.46 0.46 0.0 0 0 675.77 404.89
  C 685.72 401.07 693.74 396.77 699.77 389.36
  A 0.33 0.33 0.0 0 0 699.49 388.83
  L 673.46 390.34
  A 0.49 0.48 75.7 0 0 673.06 391.03
  Z
  M 586.68 452.27
  C 585.92 451.15 584.91 450.30 584.05 448.66
  Q 580.88 442.65 575.38 439.36
  Q 534.45 414.88 521.86 406.88
  Q 519.89 405.63 519.59 405.28
  A 1.04 1.03 39.5 0 0 517.93 405.44
  L 514.40 411.38
  A 1.03 1.02 26.4 0 0 514.90 412.86
  Q 516.58 413.53 517.62 414.15
  Q 524.48 418.17 545.64 431.09
  Q 565.93 443.48 585.98 453.07
  A 0.55 0.55 0.0 0 0 586.68 452.27
  Z
  M 709.94 497.29
  C 721.25 493.94 732.58 490.18 742.63 487.76
  C 775.65 479.78 808.33 474.37 841.29 475.06
  A 0.90 0.90 0.0 0 0 842.20 474.05
  Q 841.29 466.77 840.14 462.15
  C 838.84 456.94 838.23 452.95 832.50 452.82
  C 802.53 452.16 774.78 455.86 747.90 467.01
  C 736.08 471.91 725.50 478.56 717.07 486.56
  Q 712.60 490.80 709.30 496.47
  A 0.56 0.56 0.0 0 0 709.94 497.29
  Z"
/>
<rect fill="#d26024" x="-20.00" y="-4.62" transform="translate(395.22,218.01) rotate(-1.2)" width="40.00" height="9.24" rx="4.49"/>
<rect fill="#d26024" x="-16.13" y="-4.67" transform="translate(476.02,218.04) rotate(-1.4)" width="32.26" height="9.34" rx="4.50"/>
<path fill="#090956" d="
  M 672.82 253.49
  L 672.80 253.66
  A 4.92 4.91 -86.9 0 1 668.03 257.95
  Q 667.62 257.96 627.79 257.92
  Q 619.80 257.91 616.93 259.42
  C 611.26 262.41 609.70 267.64 609.87 274.36
  Q 610.00 279.59 609.47 311.25
  Q 608.93 342.98 608.86 393.68
  C 608.85 401.82 609.60 408.72 618.16 410.36
  C 622.77 411.24 627.98 409.44 632.05 411.48
  C 635.77 413.35 634.32 418.33 630.61 418.88
  C 626.71 419.46 619.03 419.26 615.09 418.22
  Q 605.11 415.60 601.55 406.53
  Q 599.94 402.42 599.99 392.17
  C 600.18 351.50 601.00 310.85 601.07 270.51
  C 601.09 261.08 606.68 252.96 615.51 249.79
  Q 618.02 248.89 625.09 248.84
  Q 647.98 248.68 669.06 249.11
  A 3.88 3.87 -85.7 0 1 672.82 253.49
  Z"
/>
<path fill="#090956" d="
  M 313.57 329.61
  A 0.38 0.37 -88.6 0 0 313.95 330.02
  Q 322.71 329.80 326.50 329.25
  C 329.56 328.81 334.69 329.37 333.99 333.76
  C 333.50 336.87 331.51 337.85 328.30 338.09
  Q 317.01 338.94 313.76 338.96
  A 0.66 0.65 -85.3 0 0 313.12 339.51
  Q 312.76 341.78 312.03 351.00
  Q 309.87 378.48 308.97 394.94
  C 308.68 400.28 307.92 404.32 307.88 409.24
  C 307.85 412.74 303.66 415.19 300.92 412.13
  Q 300.05 411.16 299.99 409.81
  C 299.70 403.22 300.76 395.93 300.99 390.29
  C 301.20 385.17 302.04 380.63 301.99 375.89
  C 301.94 371.22 302.92 366.33 303.04 360.93
  C 303.15 355.47 304.33 348.34 304.16 344.15
  Q 304.09 342.55 304.81 340.10
  A 0.35 0.35 0.0 0 0 304.45 339.66
  L 167.99 347.26
  A 2.18 0.97 9.1 0 0 167.72 347.29
  C 161.56 348.35 154.89 347.93 149.78 348.38
  C 141.95 349.07 138.10 349.02 129.56 349.61
  A 0.73 0.73 0.0 0 0 128.89 350.30
  L 123.94 453.04
  A 4.01 4.01 0.0 0 1 120.17 456.84
  L 119.77 456.87
  A 3.45 3.45 0.0 0 1 116.13 453.51
  Q 115.93 445.10 116.42 439.89
  Q 116.97 434.08 116.98 430.09
  C 117.00 421.73 118.03 412.90 118.07 405.79
  C 118.11 398.89 119.03 392.75 118.99 386.43
  Q 118.96 380.61 119.42 375.28
  C 120.14 366.96 119.78 358.11 120.61 350.24
  A 0.10 0.10 0.0 0 0 120.51 350.13
  L 88.10 352.01
  A 1.08 1.08 0.0 0 0 87.09 353.07
  L 85.77 462.34
  A 3.58 3.57 -87.2 0 1 81.89 465.86
  L 81.67 465.84
  A 4.16 4.16 0.0 0 1 77.71 461.65
  Q 78.04 412.61 79.16 319.44
  Q 79.24 312.34 80.44 310.30
  Q 82.15 307.38 84.99 306.09
  Q 86.76 305.29 91.16 305.13
  Q 127.47 303.78 149.24 302.65
  Q 163.01 301.94 184.00 301.04
  C 193.39 300.64 202.35 299.87 211.96 299.88
  C 215.63 299.88 219.00 299.03 222.65 299.05
  Q 232.48 299.10 240.06 298.36
  Q 243.31 298.04 261.75 297.83
  A 7.44 7.30 37.9 0 0 263.23 297.66
  C 264.36 297.42 265.43 297.13 266.94 297.13
  Q 277.45 297.12 284.20 296.57
  C 292.36 295.91 299.82 296.14 307.25 295.64
  Q 317.28 294.97 324.13 294.96
  C 331.13 294.96 338.37 293.93 345.57 294.18
  A 4.75 4.75 0.0 0 1 350.14 298.48
  L 350.16 298.58
  A 4.05 4.04 85.4 0 1 346.33 303.09
  L 316.58 304.50
  A 1.18 1.17 0.8 0 0 315.46 305.58
  L 313.57 329.61
  Z
  M 307.44 305.22
  A 0.31 0.31 0.0 0 0 307.12 304.89
  L 130.88 313.10
  A 0.31 0.31 0.0 0 0 130.59 313.39
  L 129.31 340.03
  A 0.31 0.31 0.0 0 0 129.63 340.35
  L 305.21 330.17
  A 0.31 0.31 0.0 0 0 305.50 329.88
  L 307.44 305.22
  Z
  M 87.45 342.53
  A 0.31 0.31 0.0 0 0 87.78 342.84
  L 120.97 340.92
  A 0.31 0.31 0.0 0 0 121.26 340.62
  L 122.58 313.22
  A 0.31 0.31 0.0 0 0 122.26 312.90
  L 88.09 314.49
  A 0.31 0.31 0.0 0 0 87.80 314.79
  L 87.45 342.53
  Z"
/>
<rect fill="#090956" x="-28.40" y="-4.49" transform="translate(175.58,373.17) rotate(-3.2)" width="56.80" height="8.98" rx="4.40"/>
<ellipse fill="#090956" cx="0.00" cy="0.00" transform="translate(102.46,387.07) rotate(72.3)" rx="5.23" ry="4.79"/>
<rect fill="#090956" x="-15.89" y="-4.47" transform="translate(162.92,400.81) rotate(-3.9)" width="31.78" height="8.94" rx="4.33"/>
<path fill="#f7e3ca" d="
  M 666.58 505.40
  C 665.30 506.36 665.81 507.47 665.38 508.48
  Q 664.24 511.14 663.21 511.71
  Q 647.57 520.39 634.39 532.03
  Q 631.97 529.53 628.65 526.10
  C 621.20 518.43 612.91 514.39 603.18 510.47
  C 595.84 507.50 590.31 501.98 586.86 494.92
  C 582.24 485.47 580.98 481.31 575.37 475.91
  C 566.66 467.55 557.72 461.34 558.88 451.85
  A 0.45 0.45 0.0 0 1 559.46 451.48
  Q 576.58 456.79 590.53 468.17
  Q 592.26 469.58 595.87 470.32
  A 1.63 1.62 34.1 0 0 597.04 470.10
  Q 600.15 468.14 599.87 464.80
  Q 599.15 456.06 594.64 448.03
  Q 589.61 439.07 587.24 435.58
  C 585.10 432.43 581.98 423.49 589.28 424.08
  Q 593.12 424.40 597.30 426.30
  Q 612.66 433.28 620.96 440.49
  Q 626.30 445.13 629.57 454.84
  Q 632.70 464.10 636.03 471.75
  Q 644.05 490.13 660.13 501.11
  Q 663.30 503.28 666.58 505.40
  Z"
/>
<path fill="#d26024" d="
  M 925.72 775.93
  Q 917.95 779.92 909.74 783.00
  Q 885.47 792.10 858.62 797.34
  Q 836.39 801.68 813.82 803.52
  Q 767.82 807.28 719.50 803.89
  Q 687.79 801.67 656.45 795.79
  L 674.76 750.79
  A 1.88 1.87 14.5 0 1 676.72 749.64
  Q 681.70 750.22 687.13 749.44
  Q 691.12 748.87 692.76 744.45
  C 699.61 725.95 710.01 701.10 716.77 679.00
  C 718.84 672.21 719.92 666.10 720.58 659.19
  A 0.33 0.33 0.0 0 0 719.95 659.02
  C 709.09 682.94 697.76 709.87 687.43 736.15
  Q 686.69 738.03 685.38 740.32
  A 2.96 2.96 0.0 0 1 682.80 741.80
  Q 673.03 741.72 662.53 739.91
  C 634.18 735.01 607.74 724.27 581.97 711.02
  Q 577.88 708.92 569.60 703.66
  Q 566.76 701.85 564.31 699.39
  A 2.34 2.33 -60.9 0 1 563.69 697.20
  Q 564.52 693.57 565.29 691.05
  C 574.68 660.13 584.74 631.03 598.78 603.80
  Q 613.81 574.64 635.85 552.62
  Q 647.06 541.43 664.82 529.08
  Q 671.81 524.23 687.99 515.94
  Q 698.50 510.55 712.44 505.38
  C 739.24 495.42 767.42 489.56 796.37 485.36
  Q 813.59 482.86 832.71 482.61
  Q 844.40 482.45 856.14 484.96
  Q 883.80 490.86 907.27 504.76
  C 930.70 518.64 948.17 540.23 960.12 564.65
  Q 973.93 592.89 980.90 623.10
  Q 986.35 646.71 989.16 669.76
  Q 989.52 672.64 989.65 676.48
  C 989.78 679.97 981.39 685.48 978.13 687.63
  Q 963.45 697.33 946.71 703.51
  A 0.66 0.66 0.0 0 1 945.81 702.91
  Q 945.72 700.16 946.14 697.32
  Q 950.90 664.89 951.01 638.51
  C 951.07 623.65 950.46 608.73 946.58 594.89
  C 945.95 592.62 944.43 587.82 942.84 586.73
  A 0.48 0.48 0.0 0 0 942.10 587.15
  C 942.32 590.97 943.32 594.98 943.19 598.29
  Q 943.16 599.02 943.72 611.10
  Q 944.07 618.66 944.02 623.90
  Q 943.73 652.30 941.38 673.28
  Q 935.95 721.72 926.24 765.25
  Q 924.94 771.09 925.72 775.93
  Z
  M 706.21 653.20
  Q 706.38 652.86 706.44 652.26
  C 709.41 621.44 698.06 585.89 674.22 565.01
  Q 665.98 557.80 655.07 554.33
  A 0.35 0.35 0.0 0 0 654.62 554.74
  Q 654.80 555.50 655.51 556.00
  Q 665.37 562.85 672.74 572.30
  Q 693.96 599.49 701.54 632.65
  Q 704.03 643.49 705.32 653.05
  A 0.47 0.47 0.0 0 0 706.21 653.20
  Z"
/>
<path fill="#ffffff" d="
  M 631.85 541.97
  Q 630.98 540.22 628.91 538.26
  Q 635.88 536.34 634.39 532.03
  Q 647.57 520.39 663.21 511.71
  Q 664.24 511.14 665.38 508.48
  C 665.81 507.47 665.30 506.36 666.58 505.40
  L 676.20 511.45
  A 0.41 0.40 -42.3 0 1 676.16 512.16
  Q 652.66 523.98 633.01 541.76
  Q 632.64 542.10 631.85 541.97
  Z"
/>
<path fill="#f7e3ca" d="
  M 648.35 795.50
  C 630.22 792.05 619.84 789.99 605.01 786.27
  Q 581.87 780.46 559.95 771.07
  Q 557.26 769.93 551.23 766.68
  Q 553.32 765.36 553.90 763.63
  Q 562.13 739.12 571.07 715.58
  A 0.74 0.74 0.0 0 1 572.13 715.20
  Q 615.87 740.54 666.13 749.10
  A 0.49 0.48 15.9 0 1 666.50 749.76
  L 648.35 795.50
  Z"
/>
</g>
<g>
<path fill="#ffffff" d="
  M 761.31 121.66
  Q 761.83 123.44 761.92 126.27
  Q 762.50 143.98 752.91 157.88
  Q 742.04 173.64 721.00 176.77
  Q 716.39 177.45 707.34 176.54
  Q 697.60 175.55 688.00 169.53
  Q 667.90 156.92 665.25 133.28
  Q 664.14 123.41 667.30 114.07
  Q 674.53 92.65 695.76 83.26
  Q 706.77 78.39 718.60 80.16
  A 1.14 1.13 -80.7 0 1 719.55 81.49
  Q 715.84 101.86 710.55 126.78
  Q 710.01 129.31 709.89 132.39
  A 1.12 1.10 22.7 0 0 710.25 133.25
  Q 711.66 134.53 713.89 133.92
  Q 742.17 126.12 760.74 121.34
  A 0.47 0.47 0.0 0 1 761.31 121.66
  Z"
/>
<path fill="#d26024" d="
  M 777.39 247.48
  A 0.19 0.19 0.0 0 1 777.31 247.82
  C 767.10 249.35 758.35 246.22 747.76 241.77
  C 742.29 239.47 737.05 239.16 730.34 237.90
  Q 718.53 235.67 709.62 229.15
  Q 708.35 228.22 707.94 227.19
  A 0.68 0.68 0.0 0 1 708.95 226.37
  Q 717.62 232.06 726.58 235.08
  Q 729.38 236.02 737.80 237.77
  Q 747.33 239.75 749.07 240.43
  Q 761.61 245.36 775.99 246.99
  Q 776.79 247.08 777.39 247.48
  Z"
/>
<path fill="#f7e3ca" d="
  M 765.22 341.37
  Q 764.12 343.65 763.68 345.23
  Q 760.02 358.62 756.01 368.54
  C 750.17 383.00 736.43 392.91 723.08 399.87
  A 0.47 0.46 -15.4 0 1 722.40 399.49
  L 721.84 389.83
  A 0.58 0.58 0.0 0 0 720.76 389.57
  Q 718.95 392.61 714.73 393.17
  Q 711.75 393.55 710.64 393.05
  A 0.40 0.39 14.9 0 0 710.08 393.37
  Q 709.08 404.60 703.63 414.35
  C 699.76 421.26 693.11 428.18 685.41 430.43
  A 0.31 0.30 -85.8 0 1 685.05 430.01
  L 689.91 419.24
  A 1.64 1.63 24.9 0 0 689.12 417.09
  Q 688.98 417.02 688.25 417.09
  Q 679.39 418.05 670.07 419.13
  L 672.38 412.37
  A 1.16 1.15 -85.6 0 1 673.27 411.60
  Q 694.18 407.74 706.05 390.00
  Q 708.52 386.31 707.42 382.45
  A 2.41 2.40 79.3 0 0 704.88 380.71
  Q 690.61 382.00 673.50 382.93
  Q 671.01 383.07 666.88 382.90
  A 2.50 2.49 64.3 0 1 665.49 382.41
  Q 662.24 380.03 662.91 375.55
  A 1.41 1.37 77.6 0 1 663.50 374.60
  C 669.63 370.44 679.65 371.10 682.21 367.11
  Q 685.79 361.53 682.41 355.76
  A 1.48 1.48 0.0 0 0 679.86 355.77
  L 677.49 359.88
  A 4.58 4.45 89.9 0 1 675.97 361.45
  Q 663.34 369.25 648.35 366.82
  Q 645.75 366.40 643.56 364.73
  A 1.61 1.60 29.6 0 1 643.04 362.86
  Q 644.01 360.39 646.42 356.68
  Q 647.53 354.96 665.87 328.63
  C 671.00 321.26 674.57 314.92 674.49 307.74
  Q 674.40 300.00 674.40 299.33
  C 674.43 295.51 676.97 290.37 678.17 286.95
  Q 683.23 272.49 689.84 259.35
  Q 695.76 247.55 705.77 238.70
  A 2.08 2.05 36.3 0 1 708.00 238.37
  C 716.48 242.21 725.65 244.70 734.42 246.51
  C 742.35 248.15 750.67 250.89 757.30 252.45
  Q 766.95 254.72 776.39 256.06
  A 0.45 0.45 0.0 0 1 776.67 256.79
  C 769.34 265.45 763.43 275.16 762.20 286.18
  Q 761.57 291.92 762.30 299.59
  C 763.25 309.49 770.46 319.89 767.95 330.13
  Q 766.58 335.68 765.22 341.37
  Z
  M 682.05 294.01
  A 2.16 2.15 32.5 0 0 682.89 297.78
  Q 682.93 297.79 688.20 298.17
  C 695.56 298.69 702.16 302.25 707.35 307.46
  C 709.46 309.58 713.30 314.94 717.24 316.25
  A 1.24 1.23 -77.8 0 0 718.86 315.20
  Q 719.40 309.68 716.38 305.10
  Q 707.21 291.20 690.44 290.19
  A 8.79 8.79 0.0 0 0 684.42 292.11
  L 682.05 294.01
  Z
  M 709.47 326.12
  A 0.34 0.34 0.0 0 0 710.04 325.79
  C 708.12 319.29 704.01 316.25 697.82 312.49
  Q 693.86 310.09 689.78 311.79
  A 1.24 1.24 0.0 0 0 689.27 313.69
  L 690.19 314.89
  A 1.12 1.10 -62.1 0 1 690.41 315.64
  C 689.98 321.00 688.92 334.14 695.23 334.16
  C 700.06 334.17 701.38 323.97 700.98 320.66
  A 1.20 1.20 0.0 0 1 703.02 319.67
  L 709.47 326.12
  Z
  M 730.1322 331.5705
  A 4.14 1.20 13.7 0 0 726.3942 329.4241
  A 4.14 1.20 13.7 0 0 722.0878 329.6095
  A 4.14 1.20 13.7 0 0 725.8258 331.7559
  A 4.14 1.20 13.7 0 0 730.1322 331.5705
  Z"
/>
<path fill="#d26024" d="
  M 777.24 310.83
  A 0.01 0.01 0.0 0 1 777.24 310.84
  L 777.20 310.86
  A 11.05 2.03 73.1 0 1 772.04 300.87
  L 771.93 300.49
  A 11.05 2.03 73.1 0 1 770.66 289.33
  L 770.70 289.32
  A 0.01 0.01 0.0 0 1 770.71 289.32
  L 777.24 310.83
  Z"
/>
<path fill="#d26024" d="
  M 784.48 307.00
  L 784.46 307.02
  A 0.46 0.46 0.0 0 1 783.68 306.93
  C 781.25 301.69 779.01 295.74 779.63 289.95
  A 0.68 0.68 0.0 0 1 780.99 289.97
  Q 781.51 296.99 784.68 305.76
  A 1.31 1.29 54.6 0 1 784.48 307.00
  Z"
/>
<path fill="#f7e3ca" d="
  M 771.54 404.38
  Q 773.42 392.16 774.55 378.93
  C 775.80 364.34 776.72 355.21 778.01 343.29
  Q 779.34 338.90 783.81 334.55
  C 790.76 327.78 801.93 321.62 812.01 323.02
  C 825.71 324.93 829.79 337.49 825.38 349.42
  Q 820.46 362.71 810.52 373.79
  C 803.91 381.16 798.31 387.58 790.49 390.74
  C 787.20 392.07 783.04 389.56 779.98 387.49
  Q 779.38 387.09 778.29 386.99
  A 1.17 1.16 0.6 0 0 777.03 388.22
  C 777.38 394.51 782.30 397.53 788.28 397.37
  Q 797.31 397.13 803.38 390.01
  A 0.71 0.70 -35.2 0 1 804.58 390.21
  C 808.16 399.50 814.92 406.24 823.63 411.04
  A 1.10 1.10 0.0 0 1 824.20 412.11
  C 824.09 413.23 823.30 415.14 823.20 417.02
  Q 822.48 430.72 824.63 443.90
  A 0.53 0.52 -5.7 0 1 824.12 444.51
  Q 814.88 444.76 806.76 445.26
  C 776.33 447.15 745.64 455.45 720.52 472.69
  A 0.09 0.09 0.0 0 1 720.38 472.60
  L 721.47 464.68
  A 0.59 0.58 82.3 0 1 721.82 464.21
  Q 733.56 459.00 740.83 453.57
  Q 756.85 441.60 765.77 424.75
  Q 770.36 416.09 771.54 404.38
  Z
  M 788.67 355.01
  A 1.20 1.19 56.4 0 0 790.43 355.37
  L 796.53 350.69
  A 1.26 1.26 0.0 0 1 798.51 351.36
  C 800.40 358.27 797.59 364.20 792.64 368.94
  A 1.68 1.44 -59.4 0 0 793.12 371.69
  C 797.05 372.37 801.98 366.03 803.39 362.90
  Q 807.50 353.74 802.00 345.58
  A 1.10 1.10 0.0 0 1 802.28 344.07
  C 806.64 341.07 809.71 342.22 814.36 342.25
  A 2.47 2.23 -1.8 0 0 816.86 339.85
  Q 816.65 337.26 813.79 335.96
  C 804.23 331.61 793.14 340.46 788.70 348.40
  C 787.50 350.53 787.54 353.02 788.67 355.01
  Z"
/>
<path fill="#d26024" d="
  M 765.22 341.37
  Q 771.74 341.24 778.01 343.29
  C 776.72 355.21 775.80 364.34 774.55 378.93
  Q 773.42 392.16 771.54 404.38
  Q 760.84 422.50 750.95 433.70
  C 739.68 446.47 724.00 456.71 707.53 459.77
  Q 701.41 460.91 691.26 460.06
  C 682.46 459.32 672.78 455.38 668.41 447.36
  Q 666.44 443.75 666.21 438.00
  Q 665.80 427.91 670.07 419.13
  Q 679.39 418.05 688.25 417.09
  Q 688.98 417.02 689.12 417.09
  A 1.64 1.63 24.9 0 1 689.91 419.24
  L 685.05 430.01
  A 0.31 0.30 -85.8 0 0 685.41 430.43
  C 693.11 428.18 699.76 421.26 703.63 414.35
  Q 709.08 404.60 710.08 393.37
  A 0.40 0.39 14.9 0 1 710.64 393.05
  Q 711.75 393.55 714.73 393.17
  Q 718.95 392.61 720.76 389.57
  A 0.58 0.58 0.0 0 1 721.84 389.83
  L 722.40 399.49
  A 0.47 0.46 -15.4 0 0 723.08 399.87
  C 736.43 392.91 750.17 383.00 756.01 368.54
  Q 760.02 358.62 763.68 345.23
  Q 764.12 343.65 765.22 341.37
  Z"
/>
<path fill="#ffffff" d="
  M 673.46 390.34
  L 699.49 388.83
  A 0.33 0.33 0.0 0 1 699.77 389.36
  C 693.74 396.77 685.72 401.07 675.77 404.89
  A 0.46 0.46 0.0 0 1 675.15 404.42
  Q 675.90 397.13 673.06 391.03
  A 0.49 0.48 75.7 0 1 673.46 390.34
  Z"
/>
<path fill="#d26024" d="
  M 709.94 497.29
  A 0.56 0.56 0.0 0 1 709.30 496.47
  Q 712.60 490.80 717.07 486.56
  C 725.50 478.56 736.08 471.91 747.90 467.01
  C 774.78 455.86 802.53 452.16 832.50 452.82
  C 838.23 452.95 838.84 456.94 840.14 462.15
  Q 841.29 466.77 842.20 474.05
  A 0.90 0.90 0.0 0 1 841.29 475.06
  C 808.33 474.37 775.65 479.78 742.63 487.76
  C 732.58 490.18 721.25 493.94 709.94 497.29
  Z"
/>
<path fill="#090956" d="
  M 706.21 653.20
  A 0.47 0.47 0.0 0 1 705.32 653.05
  Q 704.03 643.49 701.54 632.65
  Q 693.96 599.49 672.74 572.30
  Q 665.37 562.85 655.51 556.00
  Q 654.80 555.50 654.62 554.74
  A 0.35 0.35 0.0 0 1 655.07 554.33
  Q 665.98 557.80 674.22 565.01
  C 698.06 585.89 709.41 621.44 706.44 652.26
  Q 706.38 652.86 706.21 653.20
  Z"
/>
</g>
<g>
<path fill="#090956" d="
  M 682.05 294.01
  L 684.42 292.11
  A 8.79 8.79 0.0 0 1 690.44 290.19
  Q 707.21 291.20 716.38 305.10
  Q 719.40 309.68 718.86 315.20
  A 1.24 1.23 -77.8 0 1 717.24 316.25
  C 713.30 314.94 709.46 309.58 707.35 307.46
  C 702.16 302.25 695.56 298.69 688.20 298.17
  Q 682.93 297.79 682.89 297.78
  A 2.16 2.15 32.5 0 1 682.05 294.01
  Z"
/>
<path fill="#090956" d="
  M 709.47 326.12
  L 703.02 319.67
  A 1.20 1.20 0.0 0 0 700.98 320.66
  C 701.38 323.97 700.06 334.17 695.23 334.16
  C 688.92 334.14 689.98 321.00 690.41 315.64
  A 1.12 1.10 -62.1 0 0 690.19 314.89
  L 689.27 313.69
  A 1.24 1.24 0.0 0 1 689.78 311.79
  Q 693.86 310.09 697.82 312.49
  C 704.01 316.25 708.12 319.29 710.04 325.79
  A 0.34 0.34 0.0 0 1 709.47 326.12
  Z"
/>
<path fill="#090956" d="
  M 451.1008 341.0093
  A 9.36 9.36 0.0 0 1 441.7244 350.3530
  L 438.2645 350.3470
  A 9.36 9.36 0.0 0 1 428.9208 340.9706
  L 428.9392 330.4107
  A 9.36 9.36 0.0 0 1 438.3156 321.0670
  L 441.7755 321.0730
  A 9.36 9.36 0.0 0 1 451.1192 330.4494
  L 451.1008 341.0093
  Z
  M 444.65 330.55
  A 3.14 3.14 0.0 0 0 441.51 327.41
  L 438.53 327.41
  A 3.14 3.14 0.0 0 0 435.39 330.55
  L 435.39 340.87
  A 3.14 3.14 0.0 0 0 438.53 344.01
  L 441.51 344.01
  A 3.14 3.14 0.0 0 0 444.65 340.87
  L 444.65 330.55
  Z"
/>
<path fill="#090956" d="
  M 465.47 321.05
  C 469.46 321.05 472.80 321.70 474.79 325.19
  Q 475.95 327.21 476.18 332.97
  Q 476.81 348.56 476.81 365.50
  Q 476.81 382.43 476.19 398.03
  Q 475.95 403.79 474.80 405.81
  C 472.81 409.30 469.47 409.94 465.48 409.94
  C 461.49 409.94 458.15 409.30 456.15 405.81
  Q 455.00 403.79 454.77 398.03
  Q 454.14 382.44 454.14 365.50
  Q 454.14 348.56 454.76 332.97
  Q 454.99 327.21 456.14 325.19
  C 458.14 321.70 461.48 321.05 465.47 321.05
  Z
  M 460.79 329.59
  L 460.79 401.39
  A 2.16 2.16 0.0 0 0 462.95 403.55
  L 467.28 403.55
  A 7.43 2.73 -90.0 0 0 470.01 396.12
  L 470.01 334.86
  A 7.43 2.73 90.0 0 0 467.28 327.43
  L 462.95 327.43
  A 2.16 2.16 0.0 0 0 460.79 329.59
  Z"
/>
<ellipse fill="#090956" cx="0.00" cy="0.00" transform="translate(726.11,330.59) rotate(13.7)" rx="4.14" ry="1.20"/>
<path fill="#090956" d="
  M 788.67 355.01
  C 787.54 353.02 787.50 350.53 788.70 348.40
  C 793.14 340.46 804.23 331.61 813.79 335.96
  Q 816.65 337.26 816.86 339.85
  A 2.47 2.23 -1.8 0 1 814.36 342.25
  C 809.71 342.22 806.64 341.07 802.28 344.07
  A 1.10 1.10 0.0 0 0 802.00 345.58
  Q 807.50 353.74 803.39 362.90
  C 801.98 366.03 797.05 372.37 793.12 371.69
  A 1.68 1.44 -59.4 0 1 792.64 368.94
  C 797.59 364.20 800.40 358.27 798.51 351.36
  A 1.26 1.26 0.0 0 0 796.53 350.69
  L 790.43 355.37
  A 1.20 1.19 56.4 0 1 788.67 355.01
  Z"
/>
<path fill="#090956" d="
  M 431.25 370.66
  A 9.50 9.50 0.0 0 1 421.75 380.16
  L 418.49 380.16
  A 9.50 9.50 0.0 0 1 408.99 370.66
  L 408.99 360.32
  A 9.50 9.50 0.0 0 1 418.49 350.82
  L 421.75 350.82
  A 9.50 9.50 0.0 0 1 431.25 360.32
  L 431.25 370.66
  Z
  M 424.77 360.35
  A 3.12 3.12 0.0 0 0 421.65 357.23
  L 418.55 357.23
  A 3.12 3.12 0.0 0 0 415.43 360.35
  L 415.43 370.63
  A 3.12 3.12 0.0 0 0 418.55 373.75
  L 421.65 373.75
  A 3.12 3.12 0.0 0 0 424.77 370.63
  L 424.77 360.35
  Z"
/>
<path fill="#090956" d="
  M 409.6648 400.5310
  A 9.39 9.39 0.0 0 1 400.2912 409.9374
  L 397.3512 409.9425
  A 9.39 9.39 0.0 0 1 387.9448 400.5689
  L 387.9152 383.5890
  A 9.39 9.39 0.0 0 1 397.2888 374.1826
  L 400.2288 374.1775
  A 9.39 9.39 0.0 0 1 409.6352 383.5511
  L 409.6648 400.5310
  Z
  M 403.3937 384.2382
  A 3.70 3.70 0.0 0 0 399.7001 380.5317
  L 397.7401 380.5283
  A 3.70 3.70 0.0 0 0 394.0337 384.2218
  L 394.0063 399.8818
  A 3.70 3.70 0.0 0 0 397.6999 403.5883
  L 399.6599 403.5917
  A 3.70 3.70 0.0 0 0 403.3663 399.8982
  L 403.3937 384.2382
  Z"
/>
</g>
<g>
<path fill="#d26024" d="
  M 460.79 329.59
  A 2.16 2.16 0.0 0 1 462.95 327.43
  L 467.28 327.43
  A 7.43 2.73 90.0 0 1 470.01 334.86
  L 470.01 396.12
  A 7.43 2.73 90.0 0 1 467.28 403.55
  L 462.95 403.55
  A 2.16 2.16 0.0 0 1 460.79 401.39
  L 460.79 329.59
  Z"
/>
<rect fill="#d26024" x="435.39" y="327.41" width="9.26" height="16.60" rx="3.14"/>
<rect fill="#d26024" x="415.43" y="357.23" width="9.34" height="16.52" rx="3.12"/>
<rect fill="#d26024" x="-4.68" y="-11.53" transform="translate(398.70,392.06) rotate(0.1)" width="9.36" height="23.06" rx="3.70"/>
</g>
</svg>
