<svg xmlns="http://www.w3.org/2000/svg" viewBox="0 0 1536 1024" xmlns:v="https://vecta.io/nano"><style><![CDATA[.B{stroke:#867b83}.C{stroke:#76382a}.D{fill:#0c0c38}.E{fill:#e0641b}.F{fill:#ffe9cd}.G{fill:#3c4d63}.H{stroke:#f0a774}.I{stroke:#868291}.J{fill:#fff7e9}.K{stroke:#9e9b98}.L{stroke:#f6d1ad}]]></style><g fill="none" stroke-width="2"><path d="M680.53 314.92c-.29 25.13 4.94 49.31 17.42 71.26a.42.42 0 0 0 .7.04q.38-.52.38-1.47c-.01-4.42.1-12.67 3.44-15.86a1.18 1.18 0 0 1 .91-.33q1.96.12 2.35 2.24.64 3.48.48 8.46-.19 6.08-1.14 17.35a5.08 5.06-57.7 0 0 .66 2.95l7.35 12.73a.41.41 0 0 0 .77-.18q.29-3.81.22-8.86-.12-8.03 4.04-14.61.87-1.38 2.77-.97a.84.83 1.1 0 1 .64.66q.54 3.02.35 5.68-1 14.13-2.03 22.63-.33 2.78.81 4.76 1.18 2.05 9.41 12.04.53.63.92.69a.79.78-88.9 0 0 .88-.86q-.83-8.35.81-17.34.51-2.82 1.71-5.04a1.14 1.14 0 0 1 1.88-.19q1.26 1.5 1.51 3.8 1.35 12.42-2.41 23.84a1.51 1.51 0 0 0 .38 1.56c7.68 7.45 14.1 13.97 23.27 18.24q5.03 2.35 13.49 3.59c15.62 2.3 29.97 1.59 45.02-.73q13.97-2.16 26.18-9.07 10.76-6.09 16.8-10.46 11.36-8.23 23.5-20.22 9.24-9.12 20.76-23.73c8.63-10.94 14.18-23.86 18.49-37.93q1.17-3.83 2.24-9.19 3.02-15.07 5.97-30.33" class="C"/><path d="M931.46 320.07q1.89 4.02 4.05 6.69c1.38 1.7 2.51 1.65 4.49 1.2 11.3-2.55 18.62-10.67 24.11-20.88q9.94-18.47 14.3-38.43 1.6-7.29 1.92-13.37c.44-8.07-3.04-23.37-14.06-23.44q-8.82-.05-14.16 4.76-7.55 6.82-11.18 14.09-4.25 8.53-8.84 17.01" class="B"/><path d="M932.09 267.7q-3.6.84-5.39-3.45" class="C"/><path d="M926.7 264.25q-1.99-5.02-2.31-11.42-.11-2.34-1.72-21.78c-.73-8.84-2.32-18.09-4.93-24.81q-4.93-12.68-6.51-18.93-7.48-29.52-9.98-58.8-.19-2.18-.34-7.94c-.06-2.37-.78-4.26-2.3-5.65q-11.73-10.73-27.87-12.85-1.87-.24-10.41-.21-4.66.01-8.79 1.33c-10.05 3.2-19.61 7.45-29.76 10.58q-24.63 7.6-51.55 5.94-17.75-1.1-29.21-3.05-9.45-1.61-20.26-3.78a1.92 1.91 31.1 0 0-1.56.38c-16.6 13.1-28.45 26.54-30.82 48.33q-4.29 39.39-6.17 77.1c-.22 4.42.11 8.49-.5 12.25q-.61 3.83-.56 9.16.09 10.01-.95 21.08-.73 7.83-.02 27.56.11 3.26.35 6.18" class="B"/><path d="M926.7 264.25l-2.85 1.17a.95.91-5.8 0 0-.57.67q-2.62 11.77-7.76 28.67-4.17 13.71-7.27 20.51-4.6 10.11-13.25 19.74-5.8 6.47-17.1 7.64" class="H"/><path d="M877.9 342.65q-1.16-12.4-9.54-19.9c-6.59-5.9-18.71-11.31-27.91-13.41q-1.52-.35-2.35-.01a1.32 1.29-38.7 0 0-.28 2.29l13.89 9.11" class="B"/><path d="M851.71 320.73q-6.21-.91-11.63-1.44-.13-.01-7.11-.89-7.88-1-16.46.51" class="L"/><path d="M816.51 318.91c3.96-4.84 7.14-10.17 5.4-16.39-.89-3.16-5.91-8.18-8.58-3.96q-.71 1.12-.26 2.05c2.11 4.43 1.8 10.62-3.4 12.91q-1.75.77-4.38 1.29c-2.03.4-5.21-.64-7.12.07q-13.18 4.93-27.43 4.1c-12.37-.72-18.93-9.97-14.32-21.85q2.24-5.77 6.99-14.01c6.05-10.5 10.08-19.36 11.24-29.21q1.23-10.3-1.73-21.05c-.7-2.55-3.53-8.55-6.62-8.52a1.41 1.39-6.7 0 0-1.37 1.71c3.83 16.34 3.09 34.77-6.14 49.49q-3.59 5.72-9.2 16.49-7.66 14.69 1.02 28.37" class="B"/><path d="M750.61 320.4l-11.65-.97a9.7 9.64-45.2 0 0-1.7.01q-5.64.56-11.89.18" class="L"/><path d="M725.37 319.62c2.94-2.3 8.68-5.98 8.88-9.57a1.04 1.03 84.3 0 0-1.29-1.06c-16.88 4.3-31.39 17.58-29.94 36.28" class="B"/><path d="M703.02 345.27q-6.77-3.38-10.34-7.94-7.13-9.1-12.15-22.41" class="H"/><path d="M703.02 345.27c1.37 4.43 7.36 3.91 8.36-.45q1.31-5.7 2.4-7.97" class="C"/><path stroke="#e68e54" d="M713.78 336.85q1.71 1.66 5.51 3.37 4.03 1.82 7.61 1.02"/><path d="M726.9 341.24l-1.19 4.7" class="C"/><path d="M725.71 345.94q-2.1 12.38 2.39 26.28 6.3 19.47 12.58 30.11c8.18 13.87 21.15 21.28 36.7 23.25 13.56 1.71 29.19 1.95 41.31-5.49q7.42-4.55 13.4-11.26 21.52-24.16 27.45-56.33.73-3.99.48-8.03" class="H"/><path stroke="#e68e54" d="M860.02 344.47q-.33-2.12 1.13-2.12 3.33.01 5.15-1.81.37-.38 1.14-.26a.64.64 0 0 0 .71-.42q.2-.57.16-1.33"/><path d="M868.31 338.53c1.1 3.72 1.3 10.34 6.74 8.28q2.84-1.08 2.85-4.16" class="C"/><path d="M816.51 318.91q-2.09 2.09-4.63 2.75-5.08 1.32-10.55.84a10.02 9.89 36.8 0 0-4.39.6c-3.02 1.14-7.04 3.38-10.73 4.14-8.8 1.8-19.23 3.13-27.54-1.44q-2.12-1.16-5-2.27a2.9 2.89-9.1 0 1-1.15-.83l-1.91-2.3m117.7 18.13q-.99-3.58-3.27-6.56-5.92-7.72-13.33-11.24m-126.34-1.11q-2.4 1.88-5.72 4.2c-3.32 2.32-4.57 9.08-5.87 13.03" stroke="#7c6262"/><path d="M860.02 344.47l-2.22.07" class="L"/><path stroke="#7c6262" d="M857.8 344.54q.15-3.81-3.54-3.67c-7.38.29-15.08 4.3-21.38 6.18q-16.36 4.89-33.63 4.87-17.24-.02-20.5-.16-23.87-1.05-46.95-11.56-2.38-1.09-4.9 1.04"/><path d="M931.46 320.07q3.35-8.76 3.77-19.07.38-9.62.14-19.25-.2-7.64-3.28-14.05" class="H"/><path d="M857.8 344.54q.28 1.4-.45 2.56a1.61 1.53-2.3 0 1-.4.41l-3.06 2.05a2.44 2.23-88.2 0 0-.64.66c-8.51 13.03-17.96 25.42-33.04 31.43q-13.69 5.45-27.47 5.52-11.26.06-18.77-2.06-23.38-6.57-38.63-25.84-3.2-4.04-5.25-10.44a2.15 2.15 0 0 0-.62-.95q-1.3-1.16-3.76-1.94m-54.23-46.27c.26-1.55-.25-3.34-.13-5.24q.38-6.66 1.46-16.32c1.77-15.98 2.29-32.11 1.9-48.19a1.01.99 3.8 0 0-.85-.96c-2.03-.33-3.35.23-4.88 1.71q-6.7 6.46-6.24 16.83c.77 17.4 2.87 35.28 7.86 52.22a.45.45 0 0 0 .88-.05" class="B"/><path d="M627.08 496.87q4.14-2.49 9.32-4.7 20.98-8.93 53.63-21.12c7.23-2.7 15.66-6.41 21.39-9.16 4.2-2.01 9.79-4.37 9.62-8.14q-.36-8.12-.05-10.23.79-5.38.73-5.73a8.01 7.66-62.2 0 0-.43-1.51q-.59-1.46-2.42-3.65-12.34-14.74-22-30.71-17.85-29.51-23.46-63.55c-.5-3.08-.04-5.97-.66-8.76q-.41-1.84-.54-5.24c-.12-2.99.18-7.42-1.44-9.68q-6.24-8.68-9.21-18.99-2.99-10.43-4.04-18.66-1.35-10.61-1.81-12.8c-1.17-5.64-.76-9.05-.72-16.18a.97.97 0 0 0-1.2-.94q-.59.15-.92.51c-2.31 2.46-5.05 4.59-7.43 7.54q-7.65 9.46-8.45 10.56-31.64 43.64-38.8 96.75c-.51 3.72-.06 7.1-1.15 10.9a5.98 5.91 52.5 0 0-.23 1.84q.48 12.92-.02 26.18-.11 2.93.41 5.67.14.7.66 5.67 1.61 15.14 5.37 29.98c4.7 18.52 12.75 37.07 22.14 53.7a1.24 1.23-30.1 0 0 1.71.45m310.81-158.78c-2.13 5.24-2.85 12.47-3.88 17.44a6.17 6-41.4 0 0-.12 1.55q.16 3.25-.45 5.31c-.97 3.24-.01 6.61-1.03 9.67q-.72 2.18-.42 4.44c.48 3.56-1.5 6.56-1.11 9.97q.45 3.92-.47 8.82c-.72 3.81-.27 6.86-.2 11.03a3.81 3.7 54.1 0 1-.19 1.3q-1.43 4.43-.8 13.38.13 1.9-.24 9.02a9.96 9.96 0 0 0 .1 1.99c.81 5.26.91 8.83 5.66 11.26 6.91 3.54 17.15 9.42 26.14 13.34q20.07 8.76 40.81 17.73 5.61 2.43 13.21 6.8a1.44 1.43 27.1 0 0 2.02-.65q13.59-29.73 17.92-62.04c.43-3.21.39-6.24 1.18-9.42a8.26 8 52 0 0 .23-2.16q-.33-13.08.04-31.46c.07-3.41-1.01-6.27-1.14-9.77q-.18-4.87-1.52-12.02-2.9-15.48-7.52-30.14c-7.49-23.79-20.09-45.39-34.55-65.56a1.11 1.11 0 0 0-1.99.46q-2.01 11.68-5.74 24.23-5.67 19.09-16.66 35.56-1.45 2.17-9.27 10.22c-5.28 5.45-11.58 8.56-18.68 8.78a1.49 1.47 10 0 0-1.33.92" stroke="#242d4e"/><path d="M402.71 443.62q.15-.57.15-1.42.01-69.87-.04-72.2c-.09-3.87-.74-6.96-4.81-6.99q-70.29-.54-226.49-.88c-3.12-.01-7.69 1.03-7.69 4.38q.05 53.99.07 70.45c0 7.02 1.27 7.16 7.86 7.16q12.93.02 217.24.27 8.58.01 12.64.04a1.09 1.09 0 0 0 1.07-.81" class="C"/><path d="M730.28 446.48q.05 9.7-1.89 20.55-1.76 9.85-1.52 14.01c1.48 25.1 26.27 42 48.45 47.43q12.76 3.12 27.64 3.55 42.42 1.22 78.23-19.78 27.3-16.02 42.1-43.91c1.55-2.92 4.29-8.58 3.97-11.96a1.98 1.93-65.7 0 0-.33-.91q-3.61-5.31-4.68-13.7-1.58-12.31-1.2-21 .87-19.99 2.69-36.45a.64.62-1.2 0 0-.73-.68q-.23.04-.42.47-3.03 7.03-8.84 16.17-8.62 13.55-20.42 27.2c-12.14 14.05-26.01 25.36-41.44 34.43q-12.41 7.29-27.06 10.91-9.87 2.43-24.25 2.44-12.58.01-24.4-1.63-19.87-2.74-33.11-15.32c-3.81-3.63-7.88-7.67-11.97-12.15a.48.47-66.6 0 0-.82.33M269.3 934.33V803.88a.69.69 0 0 0-.6-.68c-4.38-.57-8.44-2.36-7.9-7.67.44-4.32 3.98-4.44 7.49-4.35a.71.71 0 0 0 .73-.71q-.09-36.93-.02-83.46c0-4.84 5.52-5.76 9.05-7.05q6.3-2.31 12.82-3.97 4.39-1.12 12.84-1.12 119.92-.06 157.39.03a.71.71 0 0 0 .71-.71V454.15a.43.43 0 0 0-.43-.43H161.55a.52.52 0 0 0-.52.52v479.98a.58.58 0 0 0 .58.58h107.22a.47.47 0 0 0 .47-.47" class="B"/><path d="M631.71 505.56c6.87 10.02 15.65 21.52 24.01 30.41q35.49 37.76 82.86 56.42 23.51 9.26 52.61 12.7 9.8 1.15 19.71 1.3 13.26.2 19.78-.25c26.88-1.86 54.37-8.33 78.81-20.14q9.05-4.38 14.39-7.38c36.94-20.77 66.56-52.23 87.78-89.03a1.56 1.55-61.2 0 0-.62-2.16c-16.94-8.91-39.45-16.31-53.19-21.56a.67.67 0 0 0-.91.69c.71 8.12-2.89 17.17-7.05 24.01q-7.93 13.02-15.73 21.81c-26.44 29.77-62.88 50.06-102.67 55.08q-15.26 1.93-30.64 1.47c-5.78-.18-13.19-1.26-18.26-2.09q-28.91-4.73-52.98-21.24-12.13-8.32-19.11-20.59-3.68-6.47-7.82-15.47-4.67-10.15-3.41-20.95a.97.97 0 0 1 1.75-.46q.65.9 1.07 2.8 3.6 16.46 12.08 29.92 7.75 12.31 20.55 20.7c13.97 9.14 27.37 14.31 43.05 18.12q17.63 4.27 37.6 2.95c49.48-3.26 95.33-26.46 124.68-66.33 6.65-9.04 12.48-20.28 13.22-31.51a1.01 1 14.3 0 0-.58-.97q-7.76-3.51-15.35-8.57a1.08 1.08 0 0 0-1.64.63q-4.6 17.84-16.2 32.35c-14.83 18.54-34.45 34.72-56.94 43.31-18.68 7.14-38.37 10.89-58.35 10.32-13.28-.37-23.64-1.55-34.28-4.73q-24.6-7.33-40.62-27.09c-5.21-6.43-8.99-14.2-9.85-22.73q-.9-8.92-.22-17.26a.74.74 0 0 0-1.03-.74q-30.38 12.8-58.55 22.95c-9.84 3.55-19.23 7.76-27.58 11.88a.98.98 0 0 0-.37 1.43" class="C"/><path d="M114.75 511.47a.71.71 0 0 0-.46.66v48.74a.71.71 0 0 0 .96.66l6.35-2.41a.71.71 0 0 0 .46-.66v-48.74a.71.71 0 0 0-.96-.66l-6.35 2.41m-22.33 9.17a.56.56 0 0 0-.36.53v48.66a.56.56 0 0 0 .84.49l6.23-3.6a.56.56 0 0 0 .28-.48v-47.45a.56.56 0 0 0-.76-.52l-6.23 2.37" class="I"/><path d="M114.73 610.4a.56.56 0 0 0-.46.56v49.3a.56.56 0 0 0 .66.55l6.61-1.23a.56.56 0 0 0 .46-.56v-49.3a.56.56 0 0 0-.66-.55l-6.61 1.23" class="B"/><path d="M98.99 665.72a.74.74 0 0 0 .6-.72v-48.91a.74.74 0 0 0-.88-.73l-6.11 1.15a.74.74 0 0 0-.6.72v48.91a.74.74 0 0 0 .88.73l6.11-1.15" class="I"/><path d="M534.96 790.21q.17-40.92.11-78.95-.01-2.74-.75-4.48a2.66 2.64 79.9 0 0-2.29-1.61q-5.38-.29-7.28-.29-198.72.11-221.01-.02-6.63-.04-6.65 6.85-.11 47.48.04 78.43a.95.95 0 0 0 .95.95h236a.88.88 0 0 0 .88-.88" class="C"/><path d="M121.62 757.38a.51.51 0 0 0 .42-.5v-49.01a.51.51 0 0 0-.6-.5l-6.7 1.25a.51.51 0 0 0-.42.5v49.02a.51.51 0 0 0 .6.5l6.7-1.26m-23.05 4.64a1.03 1.03 0 0 0 .84-1.02v-47.01a1.03 1.03 0 0 0-1.22-1.01l-5.3.98a1.03 1.03 0 0 0-.84 1.02v47.01a1.03 1.03 0 0 0 1.22 1.01l5.3-.98" class="I"/><path d="M488.16 934.8h34.8a.62.62 0 0 0 .62-.62V801.59a.54.54 0 0 0-.54-.54H297.51a.3.3 0 0 0-.3.3v132.82a.66.66 0 0 0 .66.66h35.79a.82.82 0 0 0 .82-.82q.2-54.77.03-97.01c-.02-5.66 4.51-7.67 9.5-7.68q67.69-.03 134.48.03 9.22.01 9.24 9.19.11 38.82-.01 95.81a.45.44 90 0 0 .44.45" class="B"/><path d="M121.76 906.28a.5.5 0 0 0 .55-.67q-2.42-6.39-6-12.89-12.34-22.41-31.85-40.63-3.3-3.08-10.22-9.1a.24.24 0 0 0-.35.05l-.2.29a.63.62-46.7 0 0 .02.76q24.35 29.87 47.61 61.83.24.33.44.36m2.38-62.15a.35.35 0 0 0-.43.48q3.53 7.19 5.58 16.39 3.4 15.23 4.17 34.52.02.5.54.71a.39.39 0 0 0 .53-.29c3.17-16.24 1.95-37.2-9.03-50.69q-.69-.86-1.36-1.12m290.32 10.72a1.14 1.14 0 0 0-.1-.46l-1.68-3.75a1.14 1.14 0 0 0-2.18.47l.1 82.64a1.14 1.14 0 0 0 1.25 1.14l1.56-.16a1.14 1.14 0 0 0 1.03-1.13l.02-78.75" class="I"/><path d="M391.78 885.948a8.02 5.61-87.5 0 0-5.954 7.768 8.02 5.61-87.5 0 0 5.255 8.257 8.02 5.61-87.5 0 0 5.954-7.768 8.02 5.61-87.5 0 0-5.255-8.257m42.015.072a8.08 5.98-92.8 0 0-5.578 8.363 8.08 5.98-92.8 0 0 6.368 7.778 8.08 5.98-92.8 0 0 5.578-8.362 8.08 5.98-92.8 0 0-6.368-7.778" class="B"/><g class="I"><path d="M263.009 90.285a89.44 87.14-92.5 0 0-83.156 93.156 89.44 87.14-92.5 0 0 90.958 85.554 89.44 87.14-92.5 0 0 83.156-93.156 89.44 87.14-92.5 0 0-90.958-85.554"/><path d="M272.365 108.156a4.95 4.95 0 0 0-4.907-4.993l-.54-.005a4.95 4.95 0 0 0-4.993 4.907l-.091 10.46a4.95 4.95 0 0 0 4.907 4.993l.54.005a4.95 4.95 0 0 0 4.993-4.907l.091-10.46m11.715 64.074q15.09-14.41 29.25-27.89c2.7-2.56 5.86-6.75 4.12-10.63-1.85-4.13-7.11-3.31-9.68-.9q-16.06 15.01-32.26 30.74a1.15 1.14 34.5 0 1-1.26.23c-3.41-1.46-8.79-1.96-12.29-.09q-1.87 1-1.97 1.02a.99.96-28.9 0 1-.88-.24c-1.28-1.21-3.17-3.88-4.99-5.46q-10.05-8.76-32.04-29.76-2.31-2.2-6.59-1.14a1.99 1.97 8.2 0 0-1.22.9q-3 4.92 1.08 9.61 2.89 3.33 8.34 8.14c8.55 7.54 17.74 16.66 24.91 23.27q1.37 1.26 2.68 2.05a1.08 1.07 26.3 0 1 .45 1.32c-4.88 12.28 6.48 25.19 19.2 22.07q6.54-1.6 10.62-7.71 3.73-5.57 2.03-13.92a1.73 1.71 62.6 0 1 .5-1.61m-73.1 8.313a5.06 5.06 0 0 0-5.326-4.779l-10.105.547a5.06 5.06 0 0 0-4.779 5.326l.031.579a5.06 5.06 0 0 0 5.326 4.779l10.105-.547a5.06 5.06 0 0 0 4.779-5.326l-.031-.579M333.25 187c4.02.03 7.38.18 9.58-3.14 2.06-3.13.51-6.21-2.85-7.35-1.94-.67-4.01-.54-6.64-.57-2.62-.02-4.69-.18-6.64.45-3.38 1.09-4.98 4.14-2.97 7.31 2.14 3.35 5.5 3.26 9.52 3.3m-60.372 57.925a5.13 5.13 0 0 0-5.201-5.058l-.58.008a5.13 5.13 0 0 0-5.058 5.201l.142 10.179a5.13 5.13 0 0 0 5.201 5.058l.58-.008a5.13 5.13 0 0 0 5.058-5.201l-.142-10.179"/></g><path d="M753.76 158.3c-8.97 1.04-19.96 2.02-28.89 5.21a1.41 1.4 80.1 0 0-.93 1.32v.3a1.03 1.03 0 0 0 1.24 1q14.78-3.18 28.91-4.9 14.15-1.56 29.27-1.83a1.03 1.03 0 0 0 .98-1.26l-.07-.29a1.41 1.4 86.7 0 0-1.2-1.08c-9.42-1.06-20.35.49-29.31 1.53" class="H"/><path d="M880.73 229.93q.3-1.93-.41-4.26c-3.34-10.96-14.35-19.9-25.31-22.92q-18.21-5.03-37.41-2.99c-4.14.44-10.93 1.97-12.15 6.71-1.21 4.73 3.35 8.67 7.95 7.87 20.45-3.55 42.08.07 59 12.01q5.09 3.59 6.66 4.42a1.15 1.15 0 0 0 1.67-.84m-185.52.18q1.26-.16 2.44-1.23 15.63-14.1 35.91-15.24c7.22-.41 16.72 1.11 22.69.91 3.39-.12 6.64-.98 6.15-4.9-.64-5.18-5.9-7.71-10.69-8.63q-21.01-4.03-39.92 5.02c-9.13 4.37-17.21 12.34-17.68 23.06a.98.97 87.3 0 0 1.1 1.01m155.98 8.36c2.39.6 8.42 6.76 14.51 12.37q.84.78 1.74.69a1.55 1.38 77.4 0 0 1.11-2c-5.23-15.97-22.78-22.87-38.54-20.51q-14.45 2.17-16.88 15.97c-.48 2.71.33 5.96 3.64 5.68a1.14 1.14 0 0 0 .82-.45q.8-1.05 2.38-4.75c1.33-3.13 4.42-7.4 8.07-8.36a.92.91 89.1 0 1 1.12 1.09q-.66 2.86-.93 4.55c-1.46 9.18 7.44 12.97 14.91 11.32 7.22-1.6 7.59-8.72 7.28-14.97a.62.62 0 0 1 .77-.63m-104.56 1.12q3.79 3.25 7.39 6.88 1.86 1.87 3.97.74a.95.95 0 0 0 .49-.83q0-1.67-.59-3.03c-5.95-13.69-24.4-13.74-36.61-10.6-6.86 1.76-15.86 7.43-15.23 15.41a1.22 1.22 0 0 0 1.9.91l15.13-10.17a1.35 1.35 0 0 1 2.05 1.48q-.95 3.38-.29 7.72c1.1 7.15 10.1 6.85 15.29 6.28 8.6-.95 6.89-7.61 5.29-14.05a.74.74 0 0 1 1.21-.74m-57.528 8.639a7.01 2.71-169.3 0 0 6.385 3.964 7.01 2.71-169.3 0 0 7.391-1.361 7.01 2.71-169.3 0 0-6.385-3.964 7.01 2.71-169.3 0 0-7.391 1.361m200.734 1.249a7.07 2.52-11.6 0 0-7.432-1.047 7.07 2.52-11.6 0 0-6.419 3.89 7.07 2.52-11.6 0 0 7.432 1.047 7.07 2.52-11.6 0 0 6.419-3.89" class="B"/><path d="M891.908 265.325a.89.89 0 0 0-.53-1.142l-12.884-4.715a.89.89 0 0 0-1.142.53l-.021.056a.89.89 0 0 0 .53 1.142l12.884 4.715a.89.89 0 0 0 1.142-.53l.021-.056m-192.499-4.152a.99.99 0 0 0-1.4-.002l-6.758 6.734a.99.99 0 0 0-.002 1.4l.042.043a.99.99 0 0 0 1.4.002l6.758-6.734a.99.99 0 0 0 .002-1.4l-.042-.042" class="H"/><path d="M955 276.74a.66.66 0 0 1-.61-.9q1.51-3.82 2.35-6.89 2-7.28 14.68-14.48a2.89 2.89 0 0 0 .64-4.53l-.15-.15a5.18 5.18 0 0 0-5.7-1.15q-16.6 7-20.37 22.24c-1.36 5.5-1.1 11.01 4.82 13.11a.84.83-77 0 1 .55.89q-1.26 10.28-6.99 18.29-.59.84-.39 1.76a1.75 1.61-6.9 0 0 1.76 1.26c5.69-.26 10.29-6.25 12.41-11.01q3.64-8.16 1.68-16.76a2.17 2.16 83.4 0 0-2.11-1.68H955" class="B"/><path d="M904.53 357.17q-7.26 14.58-6.04 31.11.26 3.44 2.08 6.25a1.37 1.36-42.8 0 0 2.23.08q.53-.7 1.1-2.68 1.95-6.82 3.69-16.67c1.26-7.15 2.02-12.1-.32-17.98a1.5 1.5 0 0 0-2.74-.11m-22.49 22.33q-1.47 1.09-2.02 3.57-2.23 9.92-1.96 20.8c.14 5.81.25 9.8 2.07 14a1.29 1.29 0 0 0 1.95.53q.83-.61 1.06-2.04.18-1.17.2-1.25 2.47-12.05 3.02-24.85.23-5.35-2.13-10.22a1.47 1.47 0 0 0-2.19-.54m-21.12 23.38q-2.2 6.1-2.58 10.4-.92 10.65-.35 18.72.2 2.94 1 5.18a1.34 1.34 0 0 0 2.38.29q1.02-1.53 1.56-3.51 3.22-11.68 2.91-24.69-.1-4.38-3.4-6.84a.99.99 0 0 0-1.52.45m-18.136 19.102a13.7 3.2-85 0 0-4.382 13.369 13.7 3.2-85 0 0 1.994 13.927 13.7 3.2-85 0 0 4.382-13.369 13.7 3.2-85 0 0-1.994-13.927M752.49 451.77a1.3 1.3 0 0 0 2.26-.88q.01-10.38.17-14.13c.11-2.75.23-7.67-2.26-8.71a1.82 1.59-70.9 0 0-2.21 1.27q-2.54 8.69-.96 17.8a5.94 5.91-71.4 0 0 1.48 3l1.52 1.65m68.846-20.517a12.62 2.91-82 0 0-4.638 12.092 12.62 2.91-82 0 0 1.125 12.902 12.62 2.91-82 0 0 4.638-12.092 12.62 2.91-82 0 0-1.125-12.902M778.27 457.83l-1.9-23.72a.1.1 0 0 0-.11-.09h-.09a8.17 6.03 85.4 0 0-5.36 8.63l.62 7.64a8.17 6.03 85.4 0 0 6.66 7.66l.09-.01a.1.1 0 0 0 .09-.11m20.15.05l1.41-23.19a.01.01 0 0 0 0-.01 8.66 5.11-86.5 0 0-5.63 8.33l-.37 5.93a8.66 5.11-86.5 0 0 4.58 8.95.01.01 0 0 0 .01-.01" class="C"/><path d="M738.25 349.93q3.62 6.09 9.11 10.76c12.03 10.26 25.56 17.34 41.91 17.69q28.62.6 47.35-18.81 4.33-4.48 9-9.94.24-.28.23-.54a.53.53 0 0 0-.71-.47q-9.33 3.38-16.72 5.77c-29.43 9.52-61.49 6.73-89.8-4.89a.3.3 0 0 0-.37.43" class="I"/><path d="M761.92 398.89q.16.5.46 1.03a2.05 1.9 88.6 0 0 .65.67q7.71 4.91 11.76 6.61 22.65 9.5 40.07-6.74a1.39 1.24 86.8 0 0 .24-.3l.81-1.39a1.45 1.45 0 0 0-1.7-2.11q-3.96 1.3-6.49 2.16c-10.24 3.45-21.99 3.39-32.18.87q-3.57-.89-10.02-2.97-.95-.31-2.5.05a1.69 1.56 74.6 0 0-1.1 2.12" class="B"/><g class="C"><path d="M208.9 408.93v15.47a1.87 1.87 0 0 0 1.12 1.71q3.4 1.5 7.24-.08a1.96 1.92-82.7 0 0 .85-.67q1.33-1.87 1.46-3.6 1.21-15.86.25-35.27c-.12-2.37.07-4.54-1.05-6.9a2.68 2.66 78.2 0 0-2.33-1.53q-2.82-.09-5.69.16-2.07.17-1.92 1.96.12 1.46.11 1.66-.4 11.36-.11 16.61a.64.64 0 0 1-.64.68h-12.83a.38.38 0 0 1-.38-.4q.25-6.33-.01-13.29c-.15-4.05.26-7.15-4.72-7.23q-3.99-.06-4.9.36a1.45 1.4-88.1 0 0-.63.61q-.48.88-.49 3.07-.11 23.4.09 42.21c.05 3.91 4.16 3.36 6.99 2.77q3.28-.67 3.42-3.98.22-4.98.22-13.84a.75.75 0 0 1 .75-.75h12.94a.27.26 90 0 1 .26.27m40.05-30.769a24.78 21.5-89.4 0 0-21.758 24.553 24.78 21.5-89.4 0 0 21.239 25.004 24.78 21.5-89.4 0 0 21.758-24.553 24.78 21.5-89.4 0 0-21.239-25.004m37.34 10.989a.62.62 0 0 1 .61.62v33.96a2.94 2.94 0 0 0 2.31 2.87q2.96.66 6.72-.1a2.1 2.09 89.6 0 0 1.64-1.67q.47-2.64.43-5.58-.18-13.43-.04-29.37a.97.96.6 0 1 .98-.95c3.54.05 10.29 1.67 11.25-3.93.89-5.24-2.08-6.66-6.68-6.69q-10.89-.08-20.51.1-2.12.03-4.73.58c-4.78 1.01-4.49 7.06-1.02 9.16 2.1 1.27 5.69.93 9.04 1m41.56 19.2l15.03-.78a3.96 3.96 0 0 0 3.69-4.65l-.08-.53a4.95 4.95 0 0 0-5.31-4.2l-12.52 1.04a.83.82-2.5 0 1-.9-.82v-8.74a.83.83 0 0 1 .83-.83h13.37a5.83 5.82-84.3 0 0 5.71-4.68l.07-.37a4.31 4.31 0 0 0-3.94-5.02c-6.01-.44-12.43-.38-18.9-.6q-2.71-.09-5.29.73c-2.7.87-2.83 5.31-2.83 7.6q.03 26.2.1 34.94.04 6.03 6.37 6.1 10.19.1 16.5-.03c5.51-.11 9.49-1.66 7.93-8.17-.6-2.49-4.77-2.32-6.68-2.1q-7.34.87-12.5.9a.93.92-.3 0 1-.94-.92v-8.57a.31.3-2 0 1 .29-.3m40.4 9.12q-.19-12.62-.21-23.97c-.01-4.35.59-11.15-1.69-13.57q-2.46-2.61-7.07-1.06a3.07 3.06 80.8 0 0-2.08 2.89q-.1 18.52-.08 38.02c0 4.28 1.53 7.93 6.2 7.87q4.3-.06 13.31-.02c4.25.01 10.39-.24 10.24-5.92-.07-3-2.04-4.67-4.87-4.46q-8.41.62-13.08.85a.64.64 0 0 1-.67-.63"/><path d="M248.272 388.587a14.28 11.25-91.8 0 0-10.796 14.626 14.28 11.25-91.8 0 0 11.693 13.92 14.28 11.25-91.8 0 0 10.796-14.626 14.28 11.25-91.8 0 0-11.693-13.92"/></g><g class="B"><path d="M1111.34 566.12q-25.58.19-41.08-.01c-8.12-.1-13.99.55-14 9.89q-.08 185.19-.02 385.91 0 6.08 1.3 8.35 2.14 3.75 7.21 3.75 108.94-.04 247.25.01c6.13 0 11.88 1.12 15.32-4.87q.75-1.3.75-4.94-.04-179.96.03-386.2 0-4.68-.87-6.4c-2.4-4.79-7.42-5.41-12.98-5.42q-11.05-.03-45.34-.08a.72.72 0 0 0-.72.69c-.21 5.83-2.38 11.69-8.09 13.83q-1.85.69-11.28.72-65.12.18-82.57.31-13.64.11-34.63-.23c-8.55-.14-14.2.58-17.95-6.56-1.44-2.73-1.19-5.86-1.57-8.11a.77.77 0 0 0-.76-.64m-916.76.05l44.44.16a4.81 4.81 0 0 0 4.83-4.8l.15-41.61a32 26.8-89.8 0 0-26.69-32.09h-.46a32 26.8-89.8 0 0-26.91 31.91l-.15 41.61a4.81 4.81 0 0 0 4.79 4.82m96.8-.02l44.7.16a4.77 4.77 0 0 0 4.79-4.76l.15-42.23a31.4 26.99-89.8 0 0-26.88-31.49h-.26a31.4 26.99-89.8 0 0-27.1 31.31l-.15 42.23a4.77 4.77 0 0 0 4.75 4.78m96.43.05l43.68.08a5.02 5.02 0 0 0 5.03-5.01l.07-41.87a31.65 26.7-89.9 0 0-26.64-31.7h-.32a31.65 26.7-89.9 0 0-26.76 31.6l-.07 41.87a5.02 5.02 0 0 0 5.01 5.03M194.92 677.75h44.06a5.01 5.01 0 0 0 5.01-5.01v-42.78a31.45 27.01-90 0 0-27.01-31.45h-.06a31.45 27.01 90 0 0-27.01 31.45v42.78a5.01 5.01 0 0 0 5.01 5.01m97.27.14l43.72-.23a5.27 5.27 0 0 0 5.24-5.29l-.22-42.66a31.33 27.13 89.7 0 0-27.3-31.19 31.33 27.13 89.7 0 0-26.96 31.47l.22 42.66a5.27 5.27 0 0 0 5.3 5.24m95.73-.16l43.54.08a5.13 5.13 0 0 0 5.14-5.12l.07-42.08a32.01 26.76-89.9 0 0-26.7-32.06h-.28a32.01 26.76-89.9 0 0-26.82 31.96l-.07 42.08a5.13 5.13 0 0 0 5.12 5.14m-144.592 38.674a5.39 5.39 0 0 0-5.399-5.381l-42.36.074a5.39 5.39 0 0 0-5.381 5.399l.084 48.02a5.39 5.39 0 0 0 5.399 5.381l42.36-.074a5.39 5.39 0 0 0 5.381-5.399l-.084-48.02m.562 102.649a5.78 5.78 0 0 0-5.79-5.77l-41.96.073a5.78 5.78 0 0 0-5.77 5.79l.081 46.28a5.78 5.78 0 0 0 5.79 5.77l41.96-.073a5.78 5.78 0 0 0 5.77-5.79l-.081-46.28"/><path d="M216.73 511.96q10.02.02 14.78.08a.4.4 0 0 0 .39-.54c-2.28-6.61-7.75-12.18-15.14-12.19-7.39-.02-12.89 5.53-15.19 12.12a.4.4 0 0 0 .38.54q4.77-.03 14.78-.01m-3.798 11.709a.52.52 0 0 0-.521-.519l-11.9.021a.52.52 0 0 0-.519.521l.057 32.44a.52.52 0 0 0 .521.519l11.9-.021a.52.52 0 0 0 .519-.521l-.057-32.44m21.218-.049a.49.49 0 0 0-.49-.49h-12.12a.49.49 0 0 0-.49.49v32.56a.49.49 0 0 0 .49.49h12.12a.49.49 0 0 0 .49-.49v-32.56m79.5-11.67q10.1.01 14.91.06a.41.41 0 0 0 .39-.54c-2.3-6.66-7.83-12.27-15.29-12.28-7.45-.01-12.99 5.59-15.31 12.25a.41.41 0 0 0 .39.54q4.81-.04 14.91-.03m-3.71 11.65a.41.41 0 0 0-.41-.41h-12.2a.41.41 0 0 0-.41.41v32.66a.41.41 0 0 0 .41.41h12.2a.41.41 0 0 0 .41-.41V523.6m21.11.05a.52.52 0 0 0-.52-.52h-12.3a.52.52 0 0 0-.52.52v32.52a.52.52 0 0 0 .52.52h12.3a.52.52 0 0 0 .52-.52v-32.52m78.25-11.68q10.11.04 14.92.1a.41.41 0 0 0 .39-.54c-2.29-6.67-7.8-12.3-15.26-12.33-7.45-.03-13.02 5.56-15.35 12.21a.41.41 0 0 0 .38.54q4.81-.03 14.92.02m-3.35 11.61a.41.41 0 0 0-.41-.41h-12.16a.41.41 0 0 0-.41.41v32.66a.41.41 0 0 0 .41.41h12.16a.41.41 0 0 0 .41-.41v-32.66m20.97.01a.46.46 0 0 0-.46-.46H414.2a.46.46 0 0 0-.46.46v32.6a.46.46 0 0 0 .46.46h12.26a.46.46 0 0 0 .46-.46v-32.6m688.76 126.97q-4.59-5.43-9.09-10.43c-2.86-3.18-8.08-3.35-9.57 1.16-1.07 3.27.27 5.26 2.67 7.84q7.58 8.14 11.17 12.19c5.61 6.32 9.39 2.59 13.42-3.06q6.99-9.82 20.33-29.13 2.96-4.26 6.63-10.66 1.75-3.05 1.47-4.8c-.96-6.03-7.9-7.41-11.23-2.16q-17.12 27.03-24.55 38.96a.78.77 40.8 0 1-1.25.09m-24.31-27.52h31.89a3.66 3.66 0 0 0 3.65-3.9l-.02-.39a4.36 4.36 0 0 0-4.28-4.18q-11.82-.2-26.74-.22c-7.48-.01-13.81 1.02-13.81 9.39q-.02 37.37-.04 45.26c-.02 8.73 3.86 11.96 12.39 12q35.15.15 46.45-.11c7.74-.18 8.75-6.33 8.72-12.64q-.02-3.77-.22-22.23a3.56 3.56 0 0 0-3.98-3.5l-.39.05a4.5 4.49 87 0 0-4.02 4.47v23.94a.94.94 0 0 1-.94.94h-48.35a.58.58 0 0 1-.58-.58V623.3a.27.26 0 0 1 .27-.26"/></g><path d="M1296.95 638.89a6.08 6.08 0 0 0-6.08-6.08h-115.62a6.08 6.08 0 0 0-6.08 6.08v.14a6.08 6.08 0 0 0 6.08 6.08h115.62a6.08 6.08 0 0 0 6.08-6.08v-.14m-33.43 25.13a5.28 5.28 0 0 0-5.28-5.28h-83.8a5.28 5.28 0 0 0-5.28 5.28v.62a5.28 5.28 0 0 0 5.28 5.28h83.8a5.28 5.28 0 0 0 5.28-5.28v-.62" class="K"/><path d="M1115.68 744.61q-4.6-5.44-9.11-10.44c-2.87-3.18-8.09-3.35-9.58 1.17-1.07 3.27.27 5.26 2.68 7.85q7.59 8.14 11.19 12.19c5.62 6.33 9.4 2.59 13.43-3.07q6.99-9.84 20.34-29.18 2.96-4.27 6.63-10.68 1.75-3.05 1.47-4.8c-.97-6.04-7.92-7.42-11.25-2.16q-17.12 27.08-24.55 39.03a.78.77 40.8 0 1-1.25.09m-23.99-26.3h31.33a3.95 3.95 0 0 0 3.95-3.88l.01-.25a4.24 4.23-89.5 0 0-4.25-4.34q-17.25.08-27.09-.03c-7.87-.09-13.7.43-13.67 9.65q.12 36.87.06 42.92c-.09 8.92 3.4 12.42 11.97 12.54q21.5.31 41.52-.12 2.29-.05 7.23-.54c6.31-.62 6.96-5.72 6.91-11.01q-.2-19.5-.31-22.84a3.75 3.75 0 0 0-4.05-3.62l-.35.02a4.25 4.24 88.4 0 0-4 4.24v23.23a1.5 1.5 0 0 1-1.5 1.5h-47.76a.59.59 0 0 1-.59-.59V718.9a.59.59 0 0 1 .59-.59" class="B"/><path d="M1296.8 731.209a5.54 5.54 0 0 0-5.55-5.53l-116.58.203a5.54 5.54 0 0 0-5.53 5.55v.12a5.54 5.54 0 0 0 5.55 5.53l116.58-.203a5.54 5.54 0 0 0 5.53-5.55v-.12m-33.69 25.211a5.38 5.38 0 0 0-5.38-5.38h-83.04a5.38 5.38 0 0 0-5.38 5.38v1a5.38 5.38 0 0 0 5.38 5.38h83.04a5.38 5.38 0 0 0 5.38-5.38v-1" class="K"/><path d="M1117.37 838.4a.82.81 37.2 0 1-1.33.18q-2.72-3.04-9.63-10.77c-6.08-6.81-13.18 2.36-7.8 8.1q7.08 7.57 11.13 12.1c3.62 4.05 8.26 7.57 12.65 1.58q15.87-21.66 29.47-43.64c3.32-5.37-3.14-11.53-8.29-7.83q-1.48 1.06-3.01 3.49-22.92 36.27-23.19 36.79m-25.11-26.28h30.9a3.87 3.87 0 0 0 3.87-3.82v-.09a4.22 4.22 0 0 0-4.21-4.31q-19.78-.06-31.8.1c-7.69.09-9.06 4.78-9.03 11.93q.1 34.34 0 40.59c-.08 5.38.95 10.69 7.05 11.66q4.88.77 10.46.79 34.69.13 41.27-.12 9.44-.35 9.05-9.81c-.21-5.22-.42-8.12-.31-12.38q.2-7.37-.08-12.35a4.03 4.03 0 0 0-4.02-3.81h-.48a4.01 4 90 0 0-4 4.01v24.29a1.21 1.21 0 0 1-1.21 1.21h-47.49a1.14 1.14 0 0 1-1.14-1.14v-45.58a1.17 1.17 0 0 1 1.17-1.17" class="B"/><path d="M1296.93 824.85a5.93 5.93 0 0 0-5.93-5.93h-115.88a5.93 5.93 0 0 0-5.93 5.93v.14a5.93 5.93 0 0 0 5.93 5.93H1291a5.93 5.93 0 0 0 5.93-5.93v-.14m-33.61 24.95a5.84 5.84 0 0 0-5.84-5.84h-82.46a5.84 5.84 0 0 0-5.84 5.84v1.48a5.84 5.84 0 0 0 5.84 5.84h82.46a5.84 5.84 0 0 0 5.84-5.84v-1.48" class="K"/><path d="M1115.64 929.68q-2.51-3.07-7.02-8.15c-1.85-2.09-3.86-4.86-5.49-5.27q-4.09-1.03-5.75 2.64c-2.07 4.6.35 6.69 3.84 10.42q9.83 10.5 10.9 11.55c4.56 4.48 8.51 1.76 11.52-2.49 10.88-15.35 20.01-27.96 28.26-42.25 2.99-5.18-2.64-12.27-8.08-7.77q-2.35 1.93-4.42 5.31-9.72 15.82-22.67 35.95a.68.67 41.7 0 1-1.09.06m-24.56 20.06v-45.63a.73.73 0 0 1 .73-.73h31.49a3.63 3.62-90 0 0 3.62-3.63v-.37a4.43 4.42 89.8 0 0-4.45-4.43q-11.12.06-29.27-.04c-6.05-.04-10.99 1.42-11.07 7.97q-.16 11.96-.03 45.71.04 9.95 9.48 10.36 14.8.65 43.71.21c7.93-.13 14.32.4 14.27-10.01q-.07-14.71-.14-24.89a3.63 3.63 0 0 0-4.03-3.58l-.25.03a4.7 4.7 0 0 0-4.19 4.68l.04 23.73a1.04 1.04 0 0 1-1.04 1.04h-48.46a.42.41-90 0 1-.41-.42" class="B"/><path d="M1296.78 914.95a5.9 5.9 0 0 0-5.9-5.9h-116.02a5.9 5.9 0 0 0-5.9 5.9v.14a5.9 5.9 0 0 0 5.9 5.9h116.02a5.9 5.9 0 0 0 5.9-5.9v-.14" class="K"/><path d="M216.84 622.29q9.91.02 14.63.08a.4.4 0 0 0 .38-.53c-2.25-6.54-7.66-12.05-14.97-12.07s-12.76 5.47-15.04 11.99a.4.4 0 0 0 .38.53q4.72-.03 14.62 0m-3.88 12.41a.7.7 0 0 0-.7-.7h-11.58a.7.7 0 0 0-.7.7v32.58a.7.7 0 0 0 .7.7h11.58a.7.7 0 0 0 .7-.7V634.7m21.22-.12a.61.61 0 0 0-.61-.61h-11.92a.61.61 0 0 0-.61.61v32.76a.61.61 0 0 0 .61.61h11.92a.61.61 0 0 0 .61-.61v-32.76m79.79-12.4q9.98.02 14.73.07a.4.4 0 0 0 .38-.53c-2.27-6.58-7.72-12.13-15.08-12.14-7.36-.02-12.84 5.51-15.14 12.08a.4.4 0 0 0 .39.53q4.74-.03 14.72-.01m-4.06 12.26a.52.52 0 0 0-.52-.52h-11.88a.52.52 0 0 0-.52.52v32.98a.52.52 0 0 0 .52.52h11.88a.52.52 0 0 0 .52-.52v-32.98m21.159.162a.64.64 0 0 0-.639-.641l-12.08-.021a.64.64 0 0 0-.641.639l-.057 32.74a.64.64 0 0 0 .639.641l12.08.021a.64.64 0 0 0 .641-.639l.057-32.74m78.361-12.312q9.95.03 14.68.1a.4.4 0 0 0 .39-.54c-2.25-6.56-7.68-12.11-15.02-12.14-7.35-.02-12.82 5.48-15.12 12.03a.4.4 0 0 0 .38.53q4.73-.02 14.69.02m-3.66 12.22a.57.57 0 0 0-.57-.57h-11.6a.57.57 0 0 0-.57.57v32.88a.57.57 0 0 0 .57.57h11.6a.57.57 0 0 0 .57-.57v-32.88m21.15.03a.58.58 0 0 0-.58-.58h-12.18a.58.58 0 0 0-.58.58v32.82a.58.58 0 0 0 .58.58h12.18a.58.58 0 0 0 .58-.58v-32.82" class="B"/><path d="M359.438 732.123a5.05 5.05 0 0 0-5.068-5.032l-28.32.099a5.05 5.05 0 0 0-5.032 5.068l.124 35.54a5.05 5.05 0 0 0 5.068 5.032l28.32-.099a5.05 5.05 0 0 0 5.032-5.068l-.124-35.54m101.502-.593a4.46 4.46 0 0 0-4.46-4.46h-68.92a4.46 4.46 0 0 0-4.46 4.46v36.98a4.46 4.46 0 0 0 4.46 4.46h68.92a4.46 4.46 0 0 0 4.46-4.46v-36.98m58.117.444a4.94 4.94 0 0 0-4.957-4.923l-27.86.097a4.94 4.94 0 0 0-4.923 4.957l.126 35.98a4.94 4.94 0 0 0 4.957 4.923l27.86-.097a4.94 4.94 0 0 0 4.923-4.957l-.126-35.98" class="C"/><path d="M212.96 720.98a.55.55 0 0 0-.55-.55h-11.94a.55.55 0 0 0-.55.55v38.58a.55.55 0 0 0 .55.55h11.94a.55.55 0 0 0 .55-.55v-38.58m21.164-.108a.4.4 0 0 0-.399-.401l-12.42-.022a.4.4 0 0 0-.401.399l-.068 39.18a.4.4 0 0 0 .399.401l12.42.022a.4.4 0 0 0 .401-.399l.068-39.18" class="B"/><g class="C"><path d="M350.841 739.198a1.29 1.29 0 0 0-1.288-1.292l-18.36-.032a1.29 1.29 0 0 0-1.292 1.288l-.041 23.64a1.29 1.29 0 0 0 1.288 1.292l18.36.032a1.29 1.29 0 0 0 1.292-1.288l.041-23.64m67.58-.535a.74.74 0 0 0-.739-.741l-24.92-.043a.74.74 0 0 0-.741.739l-.041 23.78a.74.74 0 0 0 .739.741l24.92.043a.74.74 0 0 0 .741-.739l.041-23.78m33.588-.184a.66.66 0 0 0-.661-.659l-23.28.041a.66.66 0 0 0-.659.661l.042 23.96a.66.66 0 0 0 .661.659l23.28-.041a.66.66 0 0 0 .659-.661l-.042-23.96m58.375.393a.95.95 0 0 0-.945-.955l-17.88-.094a.95.95 0 0 0-.955.945l-.127 24.32a.95.95 0 0 0 .945.955l17.88.094a.95.95 0 0 0 .955-.945l.127-24.32M902.95 781.91a.95.95 0 0 0-.95-.95H658.36a.95.95 0 0 0-.95.95v176.28a.95.95 0 0 0 .95.95H902a.95.95 0 0 0 .95-.95V781.91"/><path d="M857.76 813.1a5.4 5.4 0 0 0-5.4-5.4H685.74a5.4 5.4 0 0 0-5.4 5.4v.34a5.4 5.4 0 0 0 5.4 5.4h166.62a5.4 5.4 0 0 0 5.4-5.4v-.34m-18.87 118.41q-.08-16.49-.06-45.99c0-1.47-.23-4.74.55-5.9 4.94-7.38 11.22-17.86 17.36-26.07 7.65-10.25 16.67-22.7 23.51-35.03 1.52-2.74 2.9-6.37-.41-8.09-3.19-1.66-6.76 1.76-8.47 3.95q-5.85 7.49-20.92 28.82-8.4 11.89-18.21 25.99a1.22 1.22 0 0 1-1.71.29q-9.58-6.88-17.46-13.05c-4.41-3.45-9.2-.75-12.04 3.13q-11.92 16.29-22.45 33.54a1.18 1.18 0 0 1-1.76.3q-4.85-4.05-8.15-6.73-3.1-2.54-4.66-2.79c-2.85-.45-5.28 1.3-7.03 3.5q-9 11.29-14.45 19.25a.59.59 0 0 1-.83.15l-16.13-11.38a2.31 2.31 0 0 0-2.53-.08q-2.8 1.71-5.61 4.36-18.58 17.46-29.6 27.9c-3.56 3.37-5.59 8.12-1.03 11.64q1.57 1.21 4.7 1.21 30.66-.05 171.75-.05 1.85 0 3.49-.36a1.81 1.75 15.8 0 0 .86-.46q1.19-1.16 1.19-4.56.1-43.6-.03-70.62a4.31 4.3 89.9 0 0-4.3-4.29l-.26-.01a4.08 4.08 0 0 0-4.18 4.08v66.51a1.38 1.37-90 0 1-1.37 1.38h-19.22a.54.54 0 0 1-.54-.54m-54.76-77.27a4.79 4.79 0 0 0-4.79-4.79H685.4a4.79 4.79 0 0 0-4.79 4.79v.7a4.79 4.79 0 0 0 4.79 4.79h93.94a4.79 4.79 0 0 0 4.79-4.79v-.7"/><path d="M828.72 932.09a1.04 1.04 0 0 0 1.04-1.04v-46.54a1.04 1.04 0 0 0-.44-.85l-18.62-13.14a1.04 1.04 0 0 0-1.64.85v59.68a1.04 1.04 0 0 0 1.04 1.04h18.62m-28.77-49.92q-.48-.09-.8.48-5.62 10-13.59 21.41-1.62 2.33-4.47 3.31a1.84 1.83 80.7 0 0-1.24 1.74v22.03a.99.98 90 0 0 .98.99h18.68a.73.73 0 0 0 .73-.73v-48.89a.35.34 5 0 0-.29-.34m-98.91 49.92h69.31a.68.68 0 0 0 .68-.68q.09-23.42 0-25.67c-.09-2.72-4.78-5.89-6.87-7.29a1.33 1.33 0 0 0-1.84.36c-4.04 5.99-8.46 11.92-13.47 17.49-3.59 3.99-6.93 5.07-11.43 2.54q-6.46-3.64-11.98-8.77a1.29 1.29 0 0 0-1.74 0l-23 21.13a.51.51 0 0 0 .34.89"/></g><path d="M234.05 823.05a.39.39 0 0 0-.39-.39h-12.18a.39.39 0 0 0-.39.39v38.44a.39.39 0 0 0 .39.39h12.18a.39.39 0 0 0 .39-.39v-38.44m-21.08.42a.55.55 0 0 0-.55-.55h-12.04a.55.55 0 0 0-.55.55v37.86a.55.55 0 0 0 .55.55h12.04a.55.55 0 0 0 .55-.55v-37.86" class="B"/></g><path d="M1260.24 149.65q-10.16 8.51-20.54 17.04-65.58 53.88-138.16 92.84-18.31 9.83-33.43 17.51a.8.79-30.6 0 0-.3 1.15l3.94 5.86a2.56 2.55-20 0 0 2.4 1.11q27.86-3.18 35.82-3.43c7.52-.24 9.99 4.15 11.32 10.75q2.16 10.69 8.59 43.6 1.95 9.96 3.34 20.18c1.19 8.72-2.92 11.41-10.44 13.79q-3.78 1.19-26.75 7.94-3.54 1.04-3.38 3.99 1.12 20.87-3.1 43.01-.59 3.09 2.63 4.98 21.72 12.74 28.7 16.75c7.5 4.32 9.91 9.64 6.62 18.03q-4.29 10.92-16.98 44.43c-2.09 5.53-3.84 11.45-6.02 16.33a4.6 4.57-87.1 0 1-2.7 2.46c-2.85.97-5.33 1.23-8.46.47q-13.97-3.39-32.37-7.35a2.66 2.66 0 0 0-2.82 1.21q-16.26 26.41-37.41 48.56a1.71 1.7-39.2 0 0-.22 2.08q2.6 4.19 3.21 5.59 3.17 7.37 9.37 18.26c1.94 3.43 3.94 7.3 4.42 11.15.48 3.87-2.31 7.05-5.45 9.75q-24.52 21.07-49.66 40.71c-9.4 7.35-17.33-1.69-23.52-8.33q-7.49-8.03-12.63-13.62-1.58-1.71-5.34-4.25a1.9 1.86-25 0 0-.91-.32q-1.98-.14-3.83.76-14.89 7.33-30.89 12.11-28.61 8.57-56.86 12.44a2.97 2.97 0 0 0-2.3 1.71q-1.3 2.83-1.72 6.07-.53 3.99-3.22 22.95c-1.18 8.34-2.72 13.17-11.9 13.1q-11.19-.09-18.04-.66c-6.42-.53-11.81-.42-18.33-1.12q-2.7-.3-7.34-.35c-6.73-.08-12.72-.89-19.44-1q-4.13-.07-8.19-.83c-4.71-.88-6.95-5.14-7.4-9.56q-1.53-15.17-1.58-29.13c-.01-4.36-1.28-7-5.25-8.14q-29.23-8.39-54.59-22.61-1.5-.84-3.22-1.04a1.92 1.89 31 0 0-1.28.31q-3.63 2.41-5.41 4.33-8.3 8.97-13.63 14.46c-5.79 5.97-9.15 9.6-16.73 10.18-2.12.16-5.27-1.86-6.8-3.25-3.93-3.57-6.51-5.92-10.28-8.89-15-11.82-29.21-24.27-39.24-33.04q-2.15-1.87-3.85-5.71-2.52-5.69.83-10.66 8.58-12.75 9.82-15.24 3.36-6.74 7.46-13.99a2.84 2.82 39.9 0 0-.29-3.19q-16-19.36-30.13-40.59a1.99 1.99 0 0 0-2.17-.82q-12.76 3.45-26.59 7.77-7.34 2.29-10.09 1.52c-5.36-1.51-6.09-4.92-8.49-10.71l-21.51-51.84c-1.29-2.94-2.8-6.51-1.82-9.68q1.43-4.64 4.57-6.51 14.26-8.53 29.06-18.46c2.16-1.45 4.36-3.08 3.82-5.57q-4.41-20.53-4.86-41.35a3.7 3.68-71 0 0-1.34-2.76q-2.5-2.04-4.63-2.74a3.85 3.84 40.8 0 0-2.93.21q-47.16 23.44-96.88 41.15-8.99 3.2-20.18 6.65a1.2 1.19-8.6 0 0-.85 1.14v14.32a.55.55 0 0 0 .55.55q25.08-.12 59.98-.05c4.02.01 7.1 6.33 2.35 8.67q-.8.4-1.68.81a1.25 1.24 77.1 0 0-.7 1.12v239.81a.62.61 0 0 0 .62.61q16.84-.06 63.37-.02c7.6.01 8.62 5.88 8.61 12.55q-.01 27.18.02 58.94c.01 6.7.37 15.49.79 21.54a3.2 3.19-64.8 0 0 .59 1.65c3.28 4.57 6.86 10.55-2.35 12.07q-5.32.87-9.05 1.01a1.12 1.11 88.9 0 0-1.07 1.12v130.78a.36.36 0 0 0 .36.36q4.92-.03 37.22-.08 4.26-.01 6.04 1.24 2.79 1.94 2.59 5.42-.37 6.7-7.23 6.7-225.88-.01-512.53.01c-7.68 0-9.7-10.49-1.88-12.92q2.1-.65 6.14-.37a.91.9 33.2 0 0 .49-.1l1.27-.65a.41.4-45.4 0 0 0-.72q-16.7-8.47-28.89-22.77c-2.68-3.14-6.79-8.64-.98-11.91 10.81-6.07 23.51-6.9 35.92-5.88q1.55.12 2.34-.18a.96.96 0 0 0 .37-1.53q-7.95-8.93-15.46-19.33c-10.4-14.4-16.95-30.37-21.65-47.2q-3.73-13.39-2.24-26.48.44-3.89 2.61-6.11c2.19-2.26 8.43-.97 10.81-.38q10.03 2.5 19.74 8.68a1.01 1.01 0 0 0 1.56-.86q-.02-2.51-.01-372.8c0-3.5 2.92-6.42 5.95-8.74q50.54-38.7 72.26-55.6c2.87-2.23 4.79-3.31 7.45-5.21q3.96-2.82 8.93-2.22a1.2 1.2 0 0 0 1.34-1.22q-.23-9.39.01-15.44c.28-6.87 5.42-6.4 11.58-6.41l144.78 1.07q9.45.03 63.34.67c3.21.03 6.61 1.1 7.72 4.45 1.59 4.78 1.29 9.19 1.28 15.89a.95.95 0 0 0 .95.95h7.19a1.61 1.41-34.7 0 1 .35.04c8.46 2.15 9.38 7.66 9.02 16.04q-.63 14.34-.38 34.55a.73.72-8.8 0 0 .94.68q47.71-14.34 91.44-38.36a.82.82 0 0 0-.13-1.49q-4.27-1.46-6.07-5.46-1.17-2.6-.41-8.31 1.01-7.57 3.17-18.01 5.99-29.02 10.49-48.93 1.86-8.24 10.22-8.01 17.41.5 38.71 2.32a1.95 1.95 0 0 0 1.97-1.21q1.23-3.04 2.83-5.92 11.29-20.28 25.03-40.3a1.67 1.65 43.5 0 0-.06-1.95q-8.7-11.09-18.12-24.06c-2.51-3.46-4.57-6.07-5.14-10.43-.53-4 2.85-7.35 5.82-9.98q13.22-11.72 38.21-30.79 7.84-5.98 13.89-9.82 5.48-3.47 10.92-1.77 2.92.91 8.44 7.18 7.09 8.05 21.68 22.19a.83.83 0 0 0 1.41-.65c-.16-2.53.48-5.01.73-7.15q2.21-18.84 2.68-21.5c1.01-5.71 3.31-10.81 5.06-16.09 2.47-7.45 5.95-14.24 11.13-19.95q1.24-1.37 8.62-9.5 1.34-1.48 3.13-3.12c2.47-2.27 3.1-4.64 4.01-8.1a8.59 8.36 68.2 0 1 .85-2.06q4.67-8.11 6.87-10.76c4.22-5.04 10.84-8.75 17.59-12.59q30.05-17.12 66.22-18.7 22.49-.98 43.02 2.47c7.65 1.28 15.42 3.3 23.05 4.8q5.51 1.08 13.3 4.23 8.05 3.26 22.72 10.54c7.75 3.85 13.02 8.91 20.08 15.03 3.86 3.34 8.43 5.98 12.32 9.05 20.99 16.56 32.41 42.25 33.23 68.76q.27 8.52 1 15.62a1.12 1.11 63.9 0 0 1.92.66q12.36-13.12 26.7-29.95 5.27-6.17 13.25-3.66 2.4.75 7.88 4.92 16.32 12.39 40.48 32.26 6.55 5.38 10.2 9.23c5.95 6.25 2.77 11.98-1.69 18.13q-5.61 7.74-18.3 24.22-2.2 2.86-.76 5.06 9.59 14.65 15.11 24.21a.74.74 0 0 0 .97.29q77.72-39.11 145.32-93.71 21.34-17.24 37.29-30.27a.67.66-65.1 0 0-.43-1.18q-5.82.09-18.6.05c-7.45-.03-9.89-11.31-4.61-15.6q1.33-1.08 6.1-2.18 35.13-8.09 65.19-15.34c1.99-.48 4.61.27 6.19 1.7q3.53 3.2 1.74 8.93-8.68 27.86-16.2 52.79c-1.14 3.79-3.14 10.15-6.1 12.32-2.65 1.95-5.72 2.93-8.94 1.85q-7.2-2.42-6.32-11.15.65-6.47 2.33-16.88a.74.74 0 0 0-1.21-.69zM680.53 314.92c-.29 25.13 4.94 49.31 17.42 71.26a.42.42 0 0 0 .7.04q.38-.52.38-1.47c-.01-4.42.1-12.67 3.44-15.86a1.18 1.18 0 0 1 .91-.33q1.96.12 2.35 2.24.64 3.48.48 8.46-.19 6.08-1.14 17.35a5.08 5.06-57.7 0 0 .66 2.95l7.35 12.73a.41.41 0 0 0 .77-.18q.29-3.81.22-8.86-.12-8.03 4.04-14.61.87-1.38 2.77-.97a.84.83 1.1 0 1 .64.66q.54 3.02.35 5.68-1 14.13-2.03 22.63-.33 2.78.81 4.76 1.18 2.05 9.41 12.04.53.63.92.69a.79.78-88.9 0 0 .88-.86q-.83-8.35.81-17.34.51-2.82 1.71-5.04a1.14 1.14 0 0 1 1.88-.19q1.26 1.5 1.51 3.8 1.35 12.42-2.41 23.84a1.51 1.51 0 0 0 .38 1.56c7.68 7.45 14.1 13.97 23.27 18.24q5.03 2.35 13.49 3.59c15.62 2.3 29.97 1.59 45.02-.73q13.97-2.16 26.18-9.07 10.76-6.09 16.8-10.46 11.36-8.23 23.5-20.22 9.24-9.12 20.76-23.73c8.63-10.94 14.18-23.86 18.49-37.93q1.17-3.83 2.24-9.19 3.02-15.07 5.97-30.33 1.89 4.02 4.05 6.69c1.38 1.7 2.51 1.65 4.49 1.2 11.3-2.55 18.62-10.67 24.11-20.88q9.94-18.47 14.3-38.43 1.6-7.29 1.92-13.37c.44-8.07-3.04-23.37-14.06-23.44q-8.82-.05-14.16 4.76-7.55 6.82-11.18 14.09-4.25 8.53-8.84 17.01-3.6.84-5.39-3.45-1.99-5.02-2.31-11.42-.11-2.34-1.72-21.78c-.73-8.84-2.32-18.09-4.93-24.81q-4.93-12.68-6.51-18.93-7.48-29.52-9.98-58.8-.19-2.18-.34-7.94c-.06-2.37-.78-4.26-2.3-5.65q-11.73-10.73-27.87-12.85-1.87-.24-10.41-.21-4.66.01-8.79 1.33c-10.05 3.2-19.61 7.45-29.76 10.58q-24.63 7.6-51.55 5.94-17.75-1.1-29.21-3.05-9.45-1.61-20.26-3.78a1.92 1.91 31.1 0 0-1.56.38c-16.6 13.1-28.45 26.54-30.82 48.33q-4.29 39.39-6.17 77.1c-.22 4.42.11 8.49-.5 12.25q-.61 3.83-.56 9.16.09 10.01-.95 21.08-.73 7.83-.02 27.56.11 3.26.35 6.18zm-9.05-15.25c.26-1.55-.25-3.34-.13-5.24q.38-6.66 1.46-16.32c1.77-15.98 2.29-32.11 1.9-48.19a1.01.99 3.8 0 0-.85-.96c-2.03-.33-3.35.23-4.88 1.71q-6.7 6.46-6.24 16.83c.77 17.4 2.87 35.28 7.86 52.22a.45.45 0 0 0 .88-.05zm-44.4 197.2q4.14-2.49 9.32-4.7 20.98-8.93 53.63-21.12c7.23-2.7 15.66-6.41 21.39-9.16 4.2-2.01 9.79-4.37 9.62-8.14q-.36-8.12-.05-10.23.79-5.38.73-5.73a8.01 7.66-62.2 0 0-.43-1.51q-.59-1.46-2.42-3.65-12.34-14.74-22-30.71-17.85-29.51-23.46-63.55c-.5-3.08-.04-5.97-.66-8.76q-.41-1.84-.54-5.24c-.12-2.99.18-7.42-1.44-9.68q-6.24-8.68-9.21-18.99-2.99-10.43-4.04-18.66-1.35-10.61-1.81-12.8c-1.17-5.64-.76-9.05-.72-16.18a.97.97 0 0 0-1.2-.94q-.59.15-.92.51c-2.31 2.46-5.05 4.59-7.43 7.54q-7.65 9.46-8.45 10.56-31.64 43.64-38.8 96.75c-.51 3.72-.06 7.1-1.15 10.9a5.98 5.91 52.5 0 0-.23 1.84q.48 12.92-.02 26.18-.11 2.93.41 5.67.14.7.66 5.67 1.61 15.14 5.37 29.98c4.7 18.52 12.75 37.07 22.14 53.7a1.24 1.23-30.1 0 0 1.71.45zm310.81-158.78c-2.13 5.24-2.85 12.47-3.88 17.44a6.17 6-41.4 0 0-.12 1.55q.16 3.25-.45 5.31c-.97 3.24-.01 6.61-1.03 9.67q-.72 2.18-.42 4.44c.48 3.56-1.5 6.56-1.11 9.97q.45 3.92-.47 8.82c-.72 3.81-.27 6.86-.2 11.03a3.81 3.7 54.1 0 1-.19 1.3q-1.43 4.43-.8 13.38.13 1.9-.24 9.02a9.96 9.96 0 0 0 .1 1.99c.81 5.26.91 8.83 5.66 11.26 6.91 3.54 17.15 9.42 26.14 13.34q20.07 8.76 40.81 17.73 5.61 2.43 13.21 6.8a1.44 1.43 27.1 0 0 2.02-.65q13.59-29.73 17.92-62.04c.43-3.21.39-6.24 1.18-9.42a8.26 8 52 0 0 .23-2.16q-.33-13.08.04-31.46c.07-3.41-1.01-6.27-1.14-9.77q-.18-4.87-1.52-12.02-2.9-15.48-7.52-30.14c-7.49-23.79-20.09-45.39-34.55-65.56a1.11 1.11 0 0 0-1.99.46q-2.01 11.68-5.74 24.23-5.67 19.09-16.66 35.56-1.45 2.17-9.27 10.22c-5.28 5.45-11.58 8.56-18.68 8.78a1.49 1.47 10 0 0-1.33.92zM402.71 443.62q.15-.57.15-1.42.01-69.87-.04-72.2c-.09-3.87-.74-6.96-4.81-6.99q-70.29-.54-226.49-.88c-3.12-.01-7.69 1.03-7.69 4.38q.05 53.99.07 70.45c0 7.02 1.27 7.16 7.86 7.16q12.93.02 217.24.27 8.58.01 12.64.04a1.09 1.09 0 0 0 1.07-.81zm327.57 2.86q.05 9.7-1.89 20.55-1.76 9.85-1.52 14.01c1.48 25.1 26.27 42 48.45 47.43q12.76 3.12 27.64 3.55 42.42 1.22 78.23-19.78 27.3-16.02 42.1-43.91c1.55-2.92 4.29-8.58 3.97-11.96a1.98 1.93-65.7 0 0-.33-.91q-3.61-5.31-4.68-13.7-1.58-12.31-1.2-21 .87-19.99 2.69-36.45a.64.62-1.2 0 0-.73-.68q-.23.04-.42.47-3.03 7.03-8.84 16.17-8.62 13.55-20.42 27.2c-12.14 14.05-26.01 25.36-41.44 34.43q-12.41 7.29-27.06 10.91-9.87 2.43-24.25 2.44-12.58.01-24.4-1.63-19.87-2.74-33.11-15.32c-3.81-3.63-7.88-7.67-11.97-12.15a.48.47-66.6 0 0-.82.33zM269.3 934.33V803.88a.69.69 0 0 0-.6-.68c-4.38-.57-8.44-2.36-7.9-7.67.44-4.32 3.98-4.44 7.49-4.35a.71.71 0 0 0 .73-.71q-.09-36.93-.02-83.46c0-4.84 5.52-5.76 9.05-7.05q6.3-2.31 12.82-3.97 4.39-1.12 12.84-1.12 119.92-.06 157.39.03a.71.71 0 0 0 .71-.71V454.15a.43.43 0 0 0-.43-.43H161.55a.52.52 0 0 0-.52.52v479.98a.58.58 0 0 0 .58.58h107.22a.47.47 0 0 0 .47-.47zm362.41-428.77c6.87 10.02 15.65 21.52 24.01 30.41q35.49 37.76 82.86 56.42 23.51 9.26 52.61 12.7 9.8 1.15 19.71 1.3 13.26.2 19.78-.25c26.88-1.86 54.37-8.33 78.81-20.14q9.05-4.38 14.39-7.38c36.94-20.77 66.56-52.23 87.78-89.03a1.56 1.55-61.2 0 0-.62-2.16c-16.94-8.91-39.45-16.31-53.19-21.56a.67.67 0 0 0-.91.69c.71 8.12-2.89 17.17-7.05 24.01q-7.93 13.02-15.73 21.81c-26.44 29.77-62.88 50.06-102.67 55.08q-15.26 1.93-30.64 1.47c-5.78-.18-13.19-1.26-18.26-2.09q-28.91-4.73-52.98-21.24-12.13-8.32-19.11-20.59-3.68-6.47-7.82-15.47-4.67-10.15-3.41-20.95a.97.97 0 0 1 1.75-.46q.65.9 1.07 2.8 3.6 16.46 12.08 29.92 7.75 12.31 20.55 20.7c13.97 9.14 27.37 14.31 43.05 18.12q17.63 4.27 37.6 2.95c49.48-3.26 95.33-26.46 124.68-66.33 6.65-9.04 12.48-20.28 13.22-31.51a1.01 1 14.3 0 0-.58-.97q-7.76-3.51-15.35-8.57a1.08 1.08 0 0 0-1.64.63q-4.6 17.84-16.2 32.35c-14.83 18.54-34.45 34.72-56.94 43.31-18.68 7.14-38.37 10.89-58.35 10.32-13.28-.37-23.64-1.55-34.28-4.73q-24.6-7.33-40.62-27.09c-5.21-6.43-8.99-14.2-9.85-22.73q-.9-8.92-.22-17.26a.74.74 0 0 0-1.03-.74q-30.38 12.8-58.55 22.95c-9.84 3.55-19.23 7.76-27.58 11.88a.98.98 0 0 0-.37 1.43zm-516.96 5.91a.71.71 0 0 0-.46.66v48.74a.71.71 0 0 0 .96.66l6.35-2.41a.71.71 0 0 0 .46-.66v-48.74a.71.71 0 0 0-.96-.66l-6.35 2.41zm-22.33 9.17a.56.56 0 0 0-.36.53v48.66a.56.56 0 0 0 .84.49l6.23-3.6a.56.56 0 0 0 .28-.48v-47.45a.56.56 0 0 0-.76-.52l-6.23 2.37zm22.31 89.76a.56.56 0 0 0-.46.56v49.3a.56.56 0 0 0 .66.55l6.61-1.23a.56.56 0 0 0 .46-.56v-49.3a.56.56 0 0 0-.66-.55l-6.61 1.23zm-15.74 55.32a.74.74 0 0 0 .6-.72v-48.91a.74.74 0 0 0-.88-.73l-6.11 1.15a.74.74 0 0 0-.6.72v48.91a.74.74 0 0 0 .88.73l6.11-1.15zm435.97 124.49q.17-40.92.11-78.95-.01-2.74-.75-4.48a2.66 2.64 79.9 0 0-2.29-1.61q-5.38-.29-7.28-.29-198.72.11-221.01-.02-6.63-.04-6.65 6.85-.11 47.48.04 78.43a.95.95 0 0 0 .95.95h236a.88.88 0 0 0 .88-.88zm-413.34-32.83a.51.51 0 0 0 .42-.5v-49.01a.51.51 0 0 0-.6-.5l-6.7 1.25a.51.51 0 0 0-.42.5v49.02a.51.51 0 0 0 .6.5l6.7-1.26zm-23.05 4.64a1.03 1.03 0 0 0 .84-1.02v-47.01a1.03 1.03 0 0 0-1.22-1.01l-5.3.98a1.03 1.03 0 0 0-.84 1.02v47.01a1.03 1.03 0 0 0 1.22 1.01l5.3-.98zM488.16 934.8h34.8a.62.62 0 0 0 .62-.62V801.59a.54.54 0 0 0-.54-.54H297.51a.3.3 0 0 0-.3.3v132.82a.66.66 0 0 0 .66.66h35.79a.82.82 0 0 0 .82-.82q.2-54.77.03-97.01c-.02-5.66 4.51-7.67 9.5-7.68q67.69-.03 134.48.03 9.22.01 9.24 9.19.11 38.82-.01 95.81a.45.44 90 0 0 .44.45zm-366.4-28.52a.5.5 0 0 0 .55-.67q-2.42-6.39-6-12.89-12.34-22.41-31.85-40.63-3.3-3.08-10.22-9.1a.24.24 0 0 0-.35.05l-.2.29a.63.62-46.7 0 0 .02.76q24.35 29.87 47.61 61.83.24.33.44.36zm2.38-62.15a.35.35 0 0 0-.43.48q3.53 7.19 5.58 16.39 3.4 15.23 4.17 34.52.02.5.54.71a.39.39 0 0 0 .53-.29c3.17-16.24 1.95-37.2-9.03-50.69q-.69-.86-1.36-1.12zm290.32 10.72a1.14 1.14 0 0 0-.1-.46l-1.68-3.75a1.14 1.14 0 0 0-2.18.47l.1 82.64a1.14 1.14 0 0 0 1.25 1.14l1.56-.16a1.14 1.14 0 0 0 1.03-1.13l.02-78.75zm-22.68 31.098a8.02 5.61-87.5 0 0-5.954 7.768 8.02 5.61-87.5 0 0 5.255 8.257 8.02 5.61-87.5 0 0 5.954-7.768 8.02 5.61-87.5 0 0-5.255-8.257zm42.015.072a8.08 5.98-92.8 0 0-5.578 8.363 8.08 5.98-92.8 0 0 6.368 7.778 8.08 5.98-92.8 0 0 5.578-8.362 8.08 5.98-92.8 0 0-6.368-7.778zM254.192 72.359a108.15 105.76-96.7 0 1 117.656 95.072 108.15 105.76-96.7 0 1-92.42 119.75 108.15 105.76-96.7 0 1-117.656-95.072 108.15 105.76-96.7 0 1 92.42-119.751zm8.817 17.927a89.44 87.14-92.5 0 0-83.156 93.156 89.44 87.14-92.5 0 0 90.958 85.554 89.44 87.14-92.5 0 0 83.156-93.156 89.44 87.14-92.5 0 0-90.958-85.554z" class="D"/><path d="M1206.26 292.47c-3.01-2.47-4.89-6.62-3.6-10.57 1.28-3.91 6.44-7.09 9.88-7.85 20.69-4.58 41.89-10.96 61.04-19.78q32.44-14.92 56.89-32.84c35.17-25.77 65-56.28 94.9-90.05 7.29-8.24 18.97-9.42 26.43-.46 3.12 3.75 4.11 10.59.93 14.54q-3.02 3.75-6.75 7.77-20.97 22.58-37.49 38.75c-25 24.48-51.07 45.29-81.2 62.78-34.63 20.11-71.85 32.7-111.05 39.94-3.11.57-7.48-.2-9.98-2.23z" class="E"/><g class="G"><rect x="1402.01" y="214.18" width="53" height="181.76" rx="7.74"/><rect x="1330.1" y="265.93" width="52.48" height="129.96" rx="7.44"/><rect x="1258.03" y="301.58" width="52.4" height="94.34" rx="7.66"/><rect x="-20.62" y="-34.37" transform="matrix(.999998 -.001745 .001745 .999998 1219.54 361.51)" width="41.24" height="68.74" rx="7.52"/></g><path d="M1402.73 619.4c4.25 2.2 13.46.99 18.53 1.18q7.52.29 14.73.07c6.99-.2 13.63 1.4 15.78 9.17 3.22 11.57-1.27 23.36-14.04 25q-7.74.99-16.22 1.05c-6.98.06-15.42.65-20.94 1.22q-.73.08-1.14.26a.99.99 0 0 0 .07 1.84q1.86.67 4 .63 13.01-.27 27.91.31c9.86.38 11.62 7.5 9.85 15.88-2.81 13.38-14.87 17.75-28.41 17.83-8.94.06-19.03 1.14-28.48 1.07-11.54-.09-29.61.91-44.84 0a.73.73 0 0 0-.78.73q.04 47.06.05 262.2 0 12.33-1.45 15.64-3.12 7.1-10.62 10.19-3.04 1.25-10.07 1.25-145.02-.08-246.18.02-9.36.01-12.66-1.27-8.82-3.41-11.35-12.17-.73-2.53-.72-17.07.21-229.75-.34-373.93c-.04-10.39 1.7-18.54 11.89-23.17q3.43-1.55 9.69-1.63 20.54-.24 44.54-.15a1.25 1.24 89.6 0 0 1.25-1.28c-.26-12.14 4.63-15.4 15.97-15.46q10.03-.04 24.35.01a1.04 1.03 88.9 0 0 1.04-1.09c-.75-16.08 13.62-31.75 29.41-33.52q23.55-2.64 36.82 15.53 6.23 8.52 6.66 18.25a.95.95 0 0 0 .96.91q7.73-.15 23.76-.1c7.14.02 13.88.93 16.01 8.94a1.58.98 77.2 0 1 .03.22l.19 6.45a1.2 1.2 0 0 0 1.2 1.16h16.35a2.25 2.23-78.8 0 0 2.07-1.4c3.89-9.62 9.19-18.49 17.61-34.19q7.95-14.83 12.09-31.26 1.64-6.53 2.34-14.76.01-.1.69-14.95.24-5.32 1.89-9.01c5.16-11.53 22.52-7.3 29.33-.78 5 4.77 7.55 16.95 8.06 23.42 1.25 16.22-.69 31.8-4.92 49.26-1.13 4.68-1.97 9.12 4.3 9.17q38.27.31 65.76.35c8.19.01 15.07-.23 21.78 5.55 7.61 6.56 8.97 16.22 6.96 25.47q-1.74 8-9.19 9.23-5.97.99-14.04 1.32-6.05.25-20.98 2a.88.88 0 0 0-.76 1.04v.04a1.17 1.15 84.8 0 0 1.12.95q17.33.19 23.86.01c8.55-.23 18.51-1.58 22.61 5.13 3.69 6.05 3.52 16.41.7 22.95-3.31 7.72-10.62 10.16-18.5 10.49q-18.26.76-33.06 1.88-1.46.11-2.57.8a.65.64 42.6 0 0 .05 1.12zm-291.39-53.28q-25.58.19-41.08-.01c-8.12-.1-13.99.55-14 9.89q-.08 185.19-.02 385.91 0 6.08 1.3 8.35 2.14 3.75 7.21 3.75 108.94-.04 247.25.01c6.13 0 11.88 1.12 15.32-4.87q.75-1.3.75-4.94-.04-179.96.03-386.2 0-4.68-.87-6.4c-2.4-4.79-7.42-5.41-12.98-5.42q-11.05-.03-45.34-.08a.72.72 0 0 0-.72.69c-.21 5.83-2.38 11.69-8.09 13.83q-1.85.69-11.28.72-65.12.18-82.57.31-13.64.11-34.63-.23c-8.55-.14-14.2.58-17.95-6.56-1.44-2.73-1.19-5.86-1.57-8.11a.77.77 0 0 0-.76-.64zM912.41 964.88a4.2 4.2 0 0 1-4.2 4.2H651.29a4.2 4.2 0 0 1-4.2-4.2V775.3a4.2 4.2 0 0 1 4.2-4.2h256.92a4.2 4.2 0 0 1 4.2 4.2v189.58zm-9.46-182.97a.95.95 0 0 0-.95-.95H658.36a.95.95 0 0 0-.95.95v176.28a.95.95 0 0 0 .95.95H902a.95.95 0 0 0 .95-.95V781.91z" class="D"/><path d="M263.009 90.285a89.44 87.14-92.5 0 1 90.958 85.554 89.44 87.14-92.5 0 1-83.156 93.156 89.44 87.14-92.5 0 1-90.958-85.554 89.44 87.14-92.5 0 1 83.156-93.156zm9.357 17.871a4.95 4.95 0 0 0-4.907-4.993l-.54-.005a4.95 4.95 0 0 0-4.993 4.907l-.091 10.46a4.95 4.95 0 0 0 4.907 4.993l.54.005a4.95 4.95 0 0 0 4.993-4.907l.091-10.46zm11.715 64.074q15.09-14.41 29.25-27.89c2.7-2.56 5.86-6.75 4.12-10.63-1.85-4.13-7.11-3.31-9.68-.9q-16.06 15.01-32.26 30.74a1.15 1.14 34.5 0 1-1.26.23c-3.41-1.46-8.79-1.96-12.29-.09q-1.87 1-1.97 1.02a.99.96-28.9 0 1-.88-.24c-1.28-1.21-3.17-3.88-4.99-5.46q-10.05-8.76-32.04-29.76-2.31-2.2-6.59-1.14a1.99 1.97 8.2 0 0-1.22.9q-3 4.92 1.08 9.61 2.89 3.33 8.34 8.14c8.55 7.54 17.74 16.66 24.91 23.27q1.37 1.26 2.68 2.05a1.08 1.07 26.3 0 1 .45 1.32c-4.88 12.28 6.48 25.19 19.2 22.07q6.54-1.6 10.62-7.71 3.73-5.57 2.03-13.92a1.73 1.71 62.6 0 1 .5-1.61zm-73.1 8.313a5.06 5.06 0 0 0-5.326-4.779l-10.105.547a5.06 5.06 0 0 0-4.779 5.326l.031.579a5.06 5.06 0 0 0 5.326 4.779l10.105-.547a5.06 5.06 0 0 0 4.779-5.326l-.031-.579zM333.25 187c4.02.03 7.38.18 9.58-3.14 2.06-3.13.51-6.21-2.85-7.35-1.94-.67-4.01-.54-6.64-.57-2.62-.02-4.69-.18-6.64.45-3.38 1.09-4.98 4.14-2.97 7.31 2.14 3.35 5.5 3.26 9.52 3.3zm-60.372 57.925a5.13 5.13 0 0 0-5.201-5.058l-.58.008a5.13 5.13 0 0 0-5.058 5.201l.142 10.179a5.13 5.13 0 0 0 5.201 5.058l.58-.008a5.13 5.13 0 0 0 5.058-5.201l-.142-10.179z" class="J"/><path d="M926.7 264.25l-2.85 1.17a.95.91-5.8 0 0-.57.67q-2.62 11.77-7.76 28.67-4.17 13.71-7.27 20.51-4.6 10.11-13.25 19.74-5.8 6.47-17.1 7.64-1.16-12.4-9.54-19.9c-6.59-5.9-18.71-11.31-27.91-13.41q-1.52-.35-2.35-.01a1.32 1.29-38.7 0 0-.28 2.29l13.89 9.11q-6.21-.91-11.63-1.44-.13-.01-7.11-.89-7.88-1-16.46.51c3.96-4.84 7.14-10.17 5.4-16.39-.89-3.16-5.91-8.18-8.58-3.96q-.71 1.12-.26 2.05c2.11 4.43 1.8 10.62-3.4 12.91q-1.75.77-4.38 1.29c-2.03.4-5.21-.64-7.12.07q-13.18 4.93-27.43 4.1c-12.37-.72-18.93-9.97-14.32-21.85q2.24-5.77 6.99-14.01c6.05-10.5 10.08-19.36 11.24-29.21q1.23-10.3-1.73-21.05c-.7-2.55-3.53-8.55-6.62-8.52a1.41 1.39-6.7 0 0-1.37 1.71c3.83 16.34 3.09 34.77-6.14 49.49q-3.59 5.72-9.2 16.49-7.66 14.69 1.02 28.37l-11.65-.97a9.7 9.64-45.2 0 0-1.7.01q-5.64.56-11.89.18c2.94-2.3 8.68-5.98 8.88-9.57a1.04 1.03 84.3 0 0-1.29-1.06c-16.88 4.3-31.39 17.58-29.94 36.28q-6.77-3.38-10.34-7.94-7.13-9.1-12.15-22.41-.24-2.92-.35-6.18-.71-19.73.02-27.56 1.04-11.07.95-21.08-.05-5.33.56-9.16c.61-3.76.28-7.83.5-12.25q1.88-37.71 6.17-77.1c2.37-21.79 14.22-35.23 30.82-48.33a1.92 1.91 31.1 0 1 1.56-.38q10.81 2.17 20.26 3.78 11.46 1.95 29.21 3.05 26.92 1.66 51.55-5.94c10.15-3.13 19.71-7.38 29.76-10.58q4.13-1.32 8.79-1.33 8.54-.03 10.41.21 16.14 2.12 27.87 12.85c1.52 1.39 2.24 3.28 2.3 5.65q.15 5.76.34 7.94 2.5 29.28 9.98 58.8 1.58 6.25 6.51 18.93c2.61 6.72 4.2 15.97 4.93 24.81q1.61 19.44 1.72 21.78.32 6.4 2.31 11.42zM753.76 158.3c-8.97 1.04-19.96 2.02-28.89 5.21a1.41 1.4 80.1 0 0-.93 1.32v.3a1.03 1.03 0 0 0 1.24 1q14.78-3.18 28.91-4.9 14.15-1.56 29.27-1.83a1.03 1.03 0 0 0 .98-1.26l-.07-.29a1.41 1.4 86.7 0 0-1.2-1.08c-9.42-1.06-20.35.49-29.31 1.53zm126.97 71.63q.3-1.93-.41-4.26c-3.34-10.96-14.35-19.9-25.31-22.92q-18.21-5.03-37.41-2.99c-4.14.44-10.93 1.97-12.15 6.71-1.21 4.73 3.35 8.67 7.95 7.87 20.45-3.55 42.08.07 59 12.01q5.09 3.59 6.66 4.42a1.15 1.15 0 0 0 1.67-.84zm-185.52.18q1.26-.16 2.44-1.23 15.63-14.1 35.91-15.24c7.22-.41 16.72 1.11 22.69.91 3.39-.12 6.64-.98 6.15-4.9-.64-5.18-5.9-7.71-10.69-8.63q-21.01-4.03-39.92 5.02c-9.13 4.37-17.21 12.34-17.68 23.06a.98.97 87.3 0 0 1.1 1.01zm155.98 8.36c2.39.6 8.42 6.76 14.51 12.37q.84.78 1.74.69a1.55 1.38 77.4 0 0 1.11-2c-5.23-15.97-22.78-22.87-38.54-20.51q-14.45 2.17-16.88 15.97c-.48 2.71.33 5.96 3.64 5.68a1.14 1.14 0 0 0 .82-.45q.8-1.05 2.38-4.75c1.33-3.13 4.42-7.4 8.07-8.36a.92.91 89.1 0 1 1.12 1.09q-.66 2.86-.93 4.55c-1.46 9.18 7.44 12.97 14.91 11.32 7.22-1.6 7.59-8.72 7.28-14.97a.62.62 0 0 1 .77-.63zm-104.56 1.12q3.79 3.25 7.39 6.88 1.86 1.87 3.97.74a.95.95 0 0 0 .49-.83q0-1.67-.59-3.03c-5.95-13.69-24.4-13.74-36.61-10.6-6.86 1.76-15.86 7.43-15.23 15.41a1.22 1.22 0 0 0 1.9.91l15.13-10.17a1.35 1.35 0 0 1 2.05 1.48q-.95 3.38-.29 7.72c1.1 7.15 10.1 6.85 15.29 6.28 8.6-.95 6.89-7.61 5.29-14.05a.74.74 0 0 1 1.21-.74zm-57.528 8.638a7.01 2.71-169.3 0 0 6.385 3.964 7.01 2.71-169.3 0 0 7.391-1.361 7.01 2.71-169.3 0 0-6.385-3.964 7.01 2.71-169.3 0 0-7.391 1.361zm200.734 1.25a7.07 2.52-11.6 0 0-7.432-1.047 7.07 2.52-11.6 0 0-6.419 3.89 7.07 2.52-11.6 0 0 7.432 1.047 7.07 2.52-11.6 0 0 6.419-3.89zm2.073 15.847a.89.89 0 0 0-.53-1.142l-12.884-4.715a.89.89 0 0 0-1.142.53l-.021.056a.89.89 0 0 0 .53 1.142l12.884 4.715a.89.89 0 0 0 1.142-.53l.021-.056zm-192.499-4.152a.99.99 0 0 0-1.4-.002l-6.758 6.734a.99.99 0 0 0-.002 1.4l.042.043a.99.99 0 0 0 1.4.002l6.758-6.734a.99.99 0 0 0 .002-1.4l-.042-.042z" class="F"/><path d="M816.51 318.91q-2.09 2.09-4.63 2.75-5.08 1.32-10.55.84a10.02 9.89 36.8 0 0-4.39.6c-3.02 1.14-7.04 3.38-10.73 4.14-8.8 1.8-19.23 3.13-27.54-1.44q-2.12-1.16-5-2.27a2.9 2.89-9.1 0 1-1.15-.83l-1.91-2.3q-8.68-13.68-1.02-28.37 5.61-10.77 9.2-16.49c9.23-14.72 9.97-33.15 6.14-49.49a1.41 1.39-6.7 0 1 1.37-1.71c3.09-.03 5.92 5.97 6.62 8.52q2.96 10.75 1.73 21.05c-1.16 9.85-5.19 18.71-11.24 29.21q-4.75 8.24-6.99 14.01c-4.61 11.88 1.95 21.13 14.32 21.85q14.25.83 27.43-4.1c1.91-.71 5.09.33 7.12-.07q2.63-.52 4.38-1.29c5.2-2.29 5.51-8.48 3.4-12.91q-.45-.93.26-2.05c2.67-4.22 7.69.8 8.58 3.96 1.74 6.22-1.44 11.55-5.4 16.39z" class="D"/><path d="M671.48 299.67a.45.45 0 0 1-.88.05c-4.99-16.94-7.09-34.82-7.86-52.22q-.46-10.37 6.24-16.83c1.53-1.48 2.85-2.04 4.88-1.71a1.01.99 3.8 0 1 .85.96c.39 16.08-.13 32.21-1.9 48.19q-1.08 9.66-1.46 16.32c-.12 1.9.39 3.69.13 5.24zm259.98 20.4q3.35-8.76 3.77-19.07.38-9.62.14-19.25-.2-7.64-3.28-14.05 4.59-8.48 8.84-17.01 3.63-7.27 11.18-14.09 5.34-4.81 14.16-4.76c11.02.07 14.5 15.37 14.06 23.44q-.32 6.08-1.92 13.37-4.36 19.96-14.3 38.43c-5.49 10.21-12.81 18.33-24.11 20.88-1.98.45-3.11.5-4.49-1.2q-2.16-2.67-4.05-6.69zM955 276.74a.66.66 0 0 1-.61-.9q1.51-3.82 2.35-6.89 2-7.28 14.68-14.48a2.89 2.89 0 0 0 .64-4.53l-.15-.15a5.18 5.18 0 0 0-5.7-1.15q-16.6 7-20.37 22.24c-1.36 5.5-1.1 11.01 4.82 13.11a.84.83-77 0 1 .55.89q-1.26 10.28-6.99 18.29-.59.84-.39 1.76a1.75 1.61-6.9 0 0 1.76 1.26c5.69-.26 10.29-6.25 12.41-11.01q3.64-8.16 1.68-16.76a2.17 2.16 83.4 0 0-2.11-1.68H955z" class="F"/><path d="M627.08 496.87a1.24 1.23-30.1 0 1-1.71-.45c-9.39-16.63-17.44-35.18-22.14-53.7q-3.76-14.84-5.37-29.98-.52-4.97-.66-5.67-.52-2.74-.41-5.67.5-13.26.02-26.18a5.98 5.91 52.5 0 1 .23-1.84c1.09-3.8.64-7.18 1.15-10.9q7.16-53.11 38.8-96.75.8-1.1 8.45-10.56c2.38-2.95 5.12-5.08 7.43-7.54q.33-.36.92-.51a.97.97 0 0 1 1.2.94c-.04 7.13-.45 10.54.72 16.18q.46 2.19 1.81 12.8 1.05 8.23 4.04 18.66 2.97 10.31 9.21 18.99c1.62 2.26 1.32 6.69 1.44 9.68q.13 3.4.54 5.24c.62 2.79.16 5.68.66 8.76q5.61 34.04 23.46 63.55 9.66 15.97 22 30.71 1.83 2.19 2.42 3.65a8.01 7.66-62.2 0 1 .43 1.51q.06.35-.73 5.73-.31 2.11.05 10.23c.17 3.77-5.42 6.13-9.62 8.14-5.73 2.75-14.16 6.46-21.39 9.16q-32.65 12.19-53.63 21.12-5.18 2.21-9.32 4.7zm310.81-158.78a1.49 1.47 10 0 1 1.33-.92c7.1-.22 13.4-3.33 18.68-8.78q7.82-8.05 9.27-10.22 10.99-16.47 16.66-35.56 3.73-12.55 5.74-24.23a1.11 1.11 0 0 1 1.99-.46c14.46 20.17 27.06 41.77 34.55 65.56q4.62 14.66 7.52 30.14 1.34 7.15 1.52 12.02c.13 3.5 1.21 6.36 1.14 9.77q-.37 18.38-.04 31.46a8.26 8 52 0 1-.23 2.16c-.79 3.18-.75 6.21-1.18 9.42q-4.33 32.31-17.92 62.04a1.44 1.43 27.1 0 1-2.02.65q-7.6-4.37-13.21-6.8-20.74-8.97-40.81-17.73c-8.99-3.92-19.23-9.8-26.14-13.34-4.75-2.43-4.85-6-5.66-11.26a9.96 9.96 0 0 1-.1-1.99q.37-7.12.24-9.02-.63-8.95.8-13.38a3.81 3.7 54.1 0 0 .19-1.3c-.07-4.17-.52-7.22.2-11.03q.92-4.9.47-8.82c-.39-3.41 1.59-6.41 1.11-9.97q-.3-2.26.42-4.44c1.02-3.06.06-6.43 1.03-9.67q.61-2.06.45-5.31a6.17 6-41.4 0 1 .12-1.55c1.03-4.97 1.75-12.2 3.88-17.44z" class="G"/><path d="M932.09 267.7q3.08 6.41 3.28 14.05.24 9.63-.14 19.25-.42 10.31-3.77 19.07-2.95 15.26-5.97 30.33-1.07 5.36-2.24 9.19c-4.31 14.07-9.86 26.99-18.49 37.93q-11.52 14.61-20.76 23.73-12.14 11.99-23.5 20.22-6.04 4.37-16.8 10.46-12.21 6.91-26.18 9.07c-15.05 2.32-29.4 3.03-45.02.73q-8.46-1.24-13.49-3.59c-9.17-4.27-15.59-10.79-23.27-18.24a1.51 1.51 0 0 1-.38-1.56q3.76-11.42 2.41-23.84-.25-2.3-1.51-3.8a1.14 1.14 0 0 0-1.88.19q-1.2 2.22-1.71 5.04-1.64 8.99-.81 17.34a.79.78-88.9 0 1-.88.86q-.39-.06-.92-.69-8.23-9.99-9.41-12.04-1.14-1.98-.81-4.76 1.03-8.5 2.03-22.63.19-2.66-.35-5.68a.84.83 1.1 0 0-.64-.66q-1.9-.41-2.77.97-4.16 6.58-4.04 14.61.07 5.05-.22 8.86a.41.41 0 0 1-.77.18l-7.35-12.73a5.08 5.06-57.7 0 1-.66-2.95q.95-11.27 1.14-17.35.16-4.98-.48-8.46-.39-2.12-2.35-2.24a1.18 1.18 0 0 0-.91.33c-3.34 3.19-3.45 11.44-3.44 15.86q0 .95-.38 1.47a.42.42 0 0 1-.7-.04c-12.48-21.95-17.71-46.13-17.42-71.26q5.02 13.31 12.15 22.41 3.57 4.56 10.34 7.94c1.37 4.43 7.36 3.91 8.36-.45q1.31-5.7 2.4-7.97 1.71 1.66 5.51 3.37 4.03 1.82 7.61 1.02l-1.19 4.7q-2.1 12.38 2.39 26.28 6.3 19.47 12.58 30.11c8.18 13.87 21.15 21.28 36.7 23.25 13.56 1.71 29.19 1.95 41.31-5.49q7.42-4.55 13.4-11.26 21.52-24.16 27.45-56.33.73-3.99.48-8.03-.33-2.12 1.13-2.12 3.33.01 5.15-1.81.37-.38 1.14-.26a.64.64 0 0 0 .71-.42q.2-.57.16-1.33c1.1 3.72 1.3 10.34 6.74 8.28q2.84-1.08 2.85-4.16 11.3-1.17 17.1-7.64 8.65-9.63 13.25-19.74 3.1-6.8 7.27-20.51 5.14-16.9 7.76-28.67a.95.91-5.8 0 1 .57-.67l2.85-1.17q1.79 4.29 5.39 3.45zm-27.56 89.47q-7.26 14.58-6.04 31.11.26 3.44 2.08 6.25a1.37 1.36-42.8 0 0 2.23.08q.53-.7 1.1-2.68 1.95-6.82 3.69-16.67c1.26-7.15 2.02-12.1-.32-17.98a1.5 1.5 0 0 0-2.74-.11zm-22.49 22.33q-1.47 1.09-2.02 3.57-2.23 9.92-1.96 20.8c.14 5.81.25 9.8 2.07 14a1.29 1.29 0 0 0 1.95.53q.83-.61 1.06-2.04.18-1.17.2-1.25 2.47-12.05 3.02-24.85.23-5.35-2.13-10.22a1.47 1.47 0 0 0-2.19-.54zm-21.12 23.38q-2.2 6.1-2.58 10.4-.92 10.65-.35 18.72.2 2.94 1 5.18a1.34 1.34 0 0 0 2.38.29q1.02-1.53 1.56-3.51 3.22-11.68 2.91-24.69-.1-4.38-3.4-6.84a.99.99 0 0 0-1.52.45zm-18.136 19.102a13.7 3.2-85 0 0-4.382 13.369 13.7 3.2-85 0 0 1.994 13.927 13.7 3.2-85 0 0 4.382-13.369 13.7 3.2-85 0 0-1.994-13.927zM752.49 451.77a1.3 1.3 0 0 0 2.26-.88q.01-10.38.17-14.13c.11-2.75.23-7.67-2.26-8.71a1.82 1.59-70.9 0 0-2.21 1.27q-2.54 8.69-.96 17.8a5.94 5.91-71.4 0 0 1.48 3l1.52 1.65zm68.846-20.517a12.62 2.91-82 0 0-4.638 12.092 12.62 2.91-82 0 0 1.125 12.902 12.62 2.91-82 0 0 4.638-12.092 12.62 2.91-82 0 0-1.125-12.902zM778.27 457.83l-1.9-23.72a.1.1 0 0 0-.11-.09h-.09a8.17 6.03 85.4 0 0-5.36 8.63l.62 7.64a8.17 6.03 85.4 0 0 6.66 7.66l.09-.01a.1.1 0 0 0 .09-.11zm20.15.05l1.41-23.19a.01.01 0 0 0 0-.01 8.66 5.11-86.5 0 0-5.63 8.33l-.37 5.93a8.66 5.11-86.5 0 0 4.58 8.95.01.01 0 0 0 .01-.01z" class="E"/><path d="M725.37 319.62q-2.4 1.88-5.72 4.2c-3.32 2.32-4.57 9.08-5.87 13.03q-1.09 2.27-2.4 7.97c-1 4.36-6.99 4.88-8.36.45-1.45-18.7 13.06-31.98 29.94-36.28a1.04 1.03 84.3 0 1 1.29 1.06c-.2 3.59-5.94 7.27-8.88 9.57zm152.53 23.03q-.01 3.08-2.85 4.16c-5.44 2.06-5.64-4.56-6.74-8.28q-.99-3.58-3.27-6.56-5.92-7.72-13.33-11.24l-13.89-9.11a1.32 1.29-38.7 0 1 .28-2.29q.83-.34 2.35.01c9.2 2.1 21.32 7.51 27.91 13.41q8.38 7.5 9.54 19.9z" class="D"/><path fill="#ecb88c" d="M851.71 320.73q7.41 3.52 13.33 11.24 2.28 2.98 3.27 6.56.04.76-.16 1.33a.64.64 0 0 1-.71.42q-.77-.12-1.14.26-1.82 1.82-5.15 1.81-1.46 0-1.13 2.12l-2.22.07q.15-3.81-3.54-3.67c-7.38.29-15.08 4.3-21.38 6.18q-16.36 4.89-33.63 4.87-17.24-.02-20.5-.16-23.87-1.05-46.95-11.56-2.38-1.09-4.9 1.04-3.58.8-7.61-1.02-3.8-1.71-5.51-3.37c1.3-3.95 2.55-10.71 5.87-13.03q3.32-2.32 5.72-4.2 6.25.38 11.89-.18a9.7 9.64-45.2 0 1 1.7-.01l11.65.97 1.91 2.3a2.9 2.89-9.1 0 0 1.15.83q2.88 1.11 5 2.27c8.31 4.57 18.74 3.24 27.54 1.44 3.69-.76 7.71-3 10.73-4.14a10.02 9.89 36.8 0 1 4.39-.6q5.47.48 10.55-.84 2.54-.66 4.63-2.75 8.58-1.51 16.46-.51 6.98.88 7.11.89 5.42.53 11.63 1.44z"/><path d="M857.8 344.54q.28 1.4-.45 2.56a1.61 1.53-2.3 0 1-.4.41l-3.06 2.05a2.44 2.23-88.2 0 0-.64.66c-8.51 13.03-17.96 25.42-33.04 31.43q-13.69 5.45-27.47 5.52-11.26.06-18.77-2.06-23.38-6.57-38.63-25.84-3.2-4.04-5.25-10.44a2.15 2.15 0 0 0-.62-.95q-1.3-1.16-3.76-1.94l1.19-4.7q2.52-2.13 4.9-1.04 23.08 10.51 46.95 11.56 3.26.14 20.5.16 17.27.02 33.63-4.87c6.3-1.88 14-5.89 21.38-6.18q3.69-.14 3.54 3.67zm-119.55 5.39q3.62 6.09 9.11 10.76c12.03 10.26 25.56 17.34 41.91 17.69q28.62.6 47.35-18.81 4.33-4.48 9-9.94.24-.28.23-.54a.53.53 0 0 0-.71-.47q-9.33 3.38-16.72 5.77c-29.43 9.52-61.49 6.73-89.8-4.89a.3.3 0 0 0-.37.43z" class="D"/><path d="M860.02 344.47q.25 4.04-.48 8.03-5.93 32.17-27.45 56.33-5.98 6.71-13.4 11.26c-12.12 7.44-27.75 7.2-41.31 5.49-15.55-1.97-28.52-9.38-36.7-23.25q-6.28-10.64-12.58-30.11-4.49-13.9-2.39-26.28 2.46.78 3.76 1.94a2.15 2.15 0 0 1 .62.95q2.05 6.4 5.25 10.44 15.25 19.27 38.63 25.84 7.51 2.12 18.77 2.06 13.78-.07 27.47-5.52c15.08-6.01 24.53-18.4 33.04-31.43a2.44 2.23-88.2 0 1 .64-.66l3.06-2.05a1.61 1.53-2.3 0 0 .4-.41q.73-1.16.45-2.56l2.22-.07zm-98.1 54.42q.16.5.46 1.03a2.05 1.9 88.6 0 0 .65.67q7.71 4.91 11.76 6.61 22.65 9.5 40.07-6.74a1.39 1.24 86.8 0 0 .24-.3l.81-1.39a1.45 1.45 0 0 0-1.7-2.11q-3.96 1.3-6.49 2.16c-10.24 3.45-21.99 3.39-32.18.87q-3.57-.89-10.02-2.97-.95-.31-2.5.05a1.69 1.56 74.6 0 0-1.1 2.12z" class="F"/><path d="M402.71 443.62a1.09 1.09 0 0 1-1.07.81q-4.06-.03-12.64-.04-204.31-.25-217.24-.27c-6.59 0-7.86-.14-7.86-7.16q-.02-16.46-.07-70.45c0-3.35 4.57-4.39 7.69-4.38q156.2.34 226.49.88c4.07.03 4.72 3.12 4.81 6.99q.05 2.33.04 72.2 0 .85-.15 1.42zM208.9 408.93v15.47a1.87 1.87 0 0 0 1.12 1.71q3.4 1.5 7.24-.08a1.96 1.92-82.7 0 0 .85-.67q1.33-1.87 1.46-3.6 1.21-15.86.25-35.27c-.12-2.37.07-4.54-1.05-6.9a2.68 2.66 78.2 0 0-2.33-1.53q-2.82-.09-5.69.16-2.07.17-1.92 1.96.12 1.46.11 1.66-.4 11.36-.11 16.61a.64.64 0 0 1-.64.68h-12.83a.38.38 0 0 1-.38-.4q.25-6.33-.01-13.29c-.15-4.05.26-7.15-4.72-7.23q-3.99-.06-4.9.36a1.45 1.4-88.1 0 0-.63.61q-.48.88-.49 3.07-.11 23.4.09 42.21c.05 3.91 4.16 3.36 6.99 2.77q3.28-.67 3.42-3.98.22-4.98.22-13.84a.75.75 0 0 1 .75-.75h12.94a.27.26 90 0 1 .26.27zm40.049-30.769a24.78 21.5-89.4 0 0-21.758 24.553 24.78 21.5-89.4 0 0 21.239 25.004 24.78 21.5-89.4 0 0 21.758-24.553 24.78 21.5-89.4 0 0-21.239-25.004zm37.341 10.989a.62.62 0 0 1 .61.62v33.96a2.94 2.94 0 0 0 2.31 2.87q2.96.66 6.72-.1a2.1 2.09 89.6 0 0 1.64-1.67q.47-2.64.43-5.58-.18-13.43-.04-29.37a.97.96.6 0 1 .98-.95c3.54.05 10.29 1.67 11.25-3.93.89-5.24-2.08-6.66-6.68-6.69q-10.89-.08-20.51.1-2.12.03-4.73.58c-4.78 1.01-4.49 7.06-1.02 9.16 2.1 1.27 5.69.93 9.04 1zm41.56 19.2l15.03-.78a3.96 3.96 0 0 0 3.69-4.65l-.08-.53a4.95 4.95 0 0 0-5.31-4.2l-12.52 1.04a.83.82-2.5 0 1-.9-.82v-8.74a.83.83 0 0 1 .83-.83h13.37a5.83 5.82-84.3 0 0 5.71-4.68l.07-.37a4.31 4.31 0 0 0-3.94-5.02c-6.01-.44-12.43-.38-18.9-.6q-2.71-.09-5.29.73c-2.7.87-2.83 5.31-2.83 7.6q.03 26.2.1 34.94.04 6.03 6.37 6.1 10.19.1 16.5-.03c5.51-.11 9.49-1.66 7.93-8.17-.6-2.49-4.77-2.32-6.68-2.1q-7.34.87-12.5.9a.93.92-.3 0 1-.94-.92v-8.57a.31.3-2 0 1 .29-.3zm40.4 9.12q-.19-12.62-.21-23.97c-.01-4.35.59-11.15-1.69-13.57q-2.46-2.61-7.07-1.06a3.07 3.06 80.8 0 0-2.08 2.89q-.1 18.52-.08 38.02c0 4.28 1.53 7.93 6.2 7.87q4.3-.06 13.31-.02c4.25.01 10.39-.24 10.24-5.92-.07-3-2.04-4.67-4.87-4.46q-8.41.62-13.08.85a.64.64 0 0 1-.67-.63z" class="E"/><path d="M730.28 446.48a.48.47-66.6 0 1 .82-.33c4.09 4.48 8.16 8.52 11.97 12.15q13.24 12.58 33.11 15.32 11.82 1.64 24.4 1.63 14.38-.01 24.25-2.44 14.65-3.62 27.06-10.91c15.43-9.07 29.3-20.38 41.44-34.43q11.8-13.65 20.42-27.2 5.81-9.14 8.84-16.17.19-.43.42-.47a.64.62-1.2 0 1 .73.68q-1.82 16.46-2.69 36.45-.38 8.69 1.2 21 1.07 8.39 4.68 13.7a1.98 1.93-65.7 0 1 .33.91c.32 3.38-2.42 9.04-3.97 11.96q-14.8 27.89-42.1 43.91-35.81 21-78.23 19.78-14.88-.43-27.64-3.55c-22.18-5.43-46.97-22.33-48.45-47.43q-.24-4.16 1.52-14.01 1.94-10.85 1.89-20.55zM269.3 934.33a.47.47 0 0 1-.47.47H161.61a.58.58 0 0 1-.58-.58V454.24a.52.52 0 0 1 .52-.52h299.83a.43.43 0 0 1 .43.43v240.04a.71.71 0 0 1-.71.71q-37.47-.09-157.39-.03-8.45 0-12.84 1.12-6.52 1.66-12.82 3.97c-3.53 1.29-9.05 2.21-9.05 7.05q-.07 46.53.02 83.46a.71.71 0 0 1-.73.71c-3.51-.09-7.05.03-7.49 4.35-.54 5.31 3.52 7.1 7.9 7.67a.69.69 0 0 1 .6.68v130.45zm-74.72-368.16l44.44.16a4.81 4.81 0 0 0 4.83-4.8l.15-41.61a32 26.8-89.8 0 0-26.69-32.09h-.46a32 26.8-89.8 0 0-26.91 31.91l-.15 41.61a4.81 4.81 0 0 0 4.79 4.82zm96.8-.02l44.7.16a4.77 4.77 0 0 0 4.79-4.76l.15-42.23a31.4 26.99-89.8 0 0-26.88-31.49h-.26a31.4 26.99-89.8 0 0-27.1 31.31l-.15 42.23a4.77 4.77 0 0 0 4.75 4.78zm96.43.05l43.68.08a5.02 5.02 0 0 0 5.03-5.01l.07-41.87a31.65 26.7-89.9 0 0-26.64-31.7h-.32a31.65 26.7-89.9 0 0-26.76 31.6l-.07 41.87a5.02 5.02 0 0 0 5.01 5.03zM194.92 677.75h44.06a5.01 5.01 0 0 0 5.01-5.01v-42.78a31.45 27.01-90 0 0-27.01-31.45h-.06a31.45 27.01 90 0 0-27.01 31.45v42.78a5.01 5.01 0 0 0 5.01 5.01zm97.27.14l43.72-.23a5.27 5.27 0 0 0 5.24-5.29l-.22-42.66a31.33 27.13 89.7 0 0-27.3-31.19 31.33 27.13 89.7 0 0-26.96 31.47l.22 42.66a5.27 5.27 0 0 0 5.3 5.24zm95.73-.16l43.54.08a5.13 5.13 0 0 0 5.14-5.12l.07-42.08a32.01 26.76-89.9 0 0-26.7-32.06h-.28a32.01 26.76-89.9 0 0-26.82 31.96l-.07 42.08a5.13 5.13 0 0 0 5.12 5.14zm-144.592 38.674a5.39 5.39 0 0 0-5.399-5.381l-42.36.074a5.39 5.39 0 0 0-5.381 5.399l.084 48.02a5.39 5.39 0 0 0 5.399 5.381l42.36-.074a5.39 5.39 0 0 0 5.381-5.399l-.084-48.02zm.561 102.65a5.78 5.78 0 0 0-5.79-5.77l-41.96.073a5.78 5.78 0 0 0-5.77 5.79l.081 46.28a5.78 5.78 0 0 0 5.79 5.77l41.96-.073a5.78 5.78 0 0 0 5.77-5.79l-.081-46.28z" class="F"/><path d="M631.71 505.56a.98.98 0 0 1 .37-1.43c8.35-4.12 17.74-8.33 27.58-11.88q28.17-10.15 58.55-22.95a.74.74 0 0 1 1.03.74q-.68 8.34.22 17.26c.86 8.53 4.64 16.3 9.85 22.73q16.02 19.76 40.62 27.09c10.64 3.18 21 4.36 34.28 4.73 19.98.57 39.67-3.18 58.35-10.32 22.49-8.59 42.11-24.77 56.94-43.31q11.6-14.51 16.2-32.35a1.08 1.08 0 0 1 1.64-.63q7.59 5.06 15.35 8.57a1.01 1 14.3 0 1 .58.97c-.74 11.23-6.57 22.47-13.22 31.51-29.35 39.87-75.2 63.07-124.68 66.33q-19.97 1.32-37.6-2.95c-15.68-3.81-29.08-8.98-43.05-18.12q-12.8-8.39-20.55-20.7-8.48-13.46-12.08-29.92-.42-1.9-1.07-2.8a.97.97 0 0 0-1.75.46q-1.26 10.8 3.41 20.95 4.14 9 7.82 15.47 6.98 12.27 19.11 20.59 24.07 16.51 52.98 21.24c5.07.83 12.48 1.91 18.26 2.09q15.38.46 30.64-1.47c39.79-5.02 76.23-25.31 102.67-55.08q7.8-8.79 15.73-21.81c4.16-6.84 7.76-15.89 7.05-24.01a.67.67 0 0 1 .91-.69c13.74 5.25 36.25 12.65 53.19 21.56a1.56 1.55-61.2 0 1 .62 2.16c-21.22 36.8-50.84 68.26-87.78 89.03q-5.34 3-14.39 7.38c-24.44 11.81-51.93 18.28-78.81 20.14q-6.52.45-19.78.25-9.91-.15-19.71-1.3-29.1-3.44-52.61-12.7-47.37-18.66-82.86-56.42c-8.36-8.89-17.14-20.39-24.01-30.41z" class="E"/><path d="M114.75 511.47l6.35-2.41a.71.71 0 0 1 .96.66v48.74a.71.71 0 0 1-.46.66l-6.35 2.41a.71.71 0 0 1-.96-.66v-48.74a.71.71 0 0 1 .46-.66zm-22.33 9.17l6.23-2.37a.56.56 0 0 1 .76.52v47.45a.56.56 0 0 1-.28.48l-6.23 3.6a.56.56 0 0 1-.84-.49v-48.66a.56.56 0 0 1 .36-.53z" class="J"/><path d="M1112.1 566.76c.38 2.25.13 5.38 1.57 8.11 3.75 7.14 9.4 6.42 17.95 6.56q20.99.34 34.63.23 17.45-.13 82.57-.31 9.43-.03 11.28-.72c5.71-2.14 7.88-8 8.09-13.83a.72.72 0 0 1 .72-.69q34.29.05 45.34.08c5.56.01 10.58.63 12.98 5.42q.87 1.72.87 6.4-.07 206.24-.03 386.2 0 3.64-.75 4.94c-3.44 5.99-9.19 4.87-15.32 4.87q-138.31-.05-247.25-.01-5.07 0-7.21-3.75-1.3-2.27-1.3-8.35-.06-200.72.02-385.91c.01-9.34 5.88-9.99 14-9.89q15.5.2 41.08.01a.77.77 0 0 1 .76.64zm3.58 83.8q-4.59-5.43-9.09-10.43c-2.86-3.18-8.08-3.35-9.57 1.16-1.07 3.27.27 5.26 2.67 7.84q7.58 8.14 11.17 12.19c5.61 6.32 9.39 2.59 13.42-3.06q6.99-9.82 20.33-29.13 2.96-4.26 6.63-10.66 1.75-3.05 1.47-4.8c-.96-6.03-7.9-7.41-11.23-2.16q-17.12 27.03-24.55 38.96a.78.77 40.8 0 1-1.25.09zm-24.31-27.52h31.89a3.66 3.66 0 0 0 3.65-3.9l-.02-.39a4.36 4.36 0 0 0-4.28-4.18q-11.82-.2-26.74-.22c-7.48-.01-13.81 1.02-13.81 9.39q-.02 37.37-.04 45.26c-.02 8.73 3.86 11.96 12.39 12q35.15.15 46.45-.11c7.74-.18 8.75-6.33 8.72-12.64q-.02-3.77-.22-22.23a3.56 3.56 0 0 0-3.98-3.5l-.39.05a4.5 4.49 87 0 0-4.02 4.47v23.94a.94.94 0 0 1-.94.94h-48.35a.58.58 0 0 1-.58-.58V623.3a.27.26 0 0 1 .27-.26zm205.58 15.85a6.08 6.08 0 0 0-6.08-6.08h-115.62a6.08 6.08 0 0 0-6.08 6.08v.14a6.08 6.08 0 0 0 6.08 6.08h115.62a6.08 6.08 0 0 0 6.08-6.08v-.14zm-33.43 25.13a5.28 5.28 0 0 0-5.28-5.28h-83.8a5.28 5.28 0 0 0-5.28 5.28v.62a5.28 5.28 0 0 0 5.28 5.28h83.8a5.28 5.28 0 0 0 5.28-5.28v-.62zm-147.84 80.59q-4.6-5.44-9.11-10.44c-2.87-3.18-8.09-3.35-9.58 1.17-1.07 3.27.27 5.26 2.68 7.85q7.59 8.14 11.19 12.19c5.62 6.33 9.4 2.59 13.43-3.07q6.99-9.84 20.34-29.18 2.96-4.27 6.63-10.68 1.75-3.05 1.47-4.8c-.97-6.04-7.92-7.42-11.25-2.16q-17.12 27.08-24.55 39.03a.78.77 40.8 0 1-1.25.09zm-23.99-26.3h31.33a3.95 3.95 0 0 0 3.95-3.88l.01-.25a4.24 4.23-89.5 0 0-4.25-4.34q-17.25.08-27.09-.03c-7.87-.09-13.7.43-13.67 9.65q.12 36.87.06 42.92c-.09 8.92 3.4 12.42 11.97 12.54q21.5.31 41.52-.12 2.29-.05 7.23-.54c6.31-.62 6.96-5.72 6.91-11.01q-.2-19.5-.31-22.84a3.75 3.75 0 0 0-4.05-3.62l-.35.02a4.25 4.24 88.4 0 0-4 4.24v23.23a1.5 1.5 0 0 1-1.5 1.5h-47.76a.59.59 0 0 1-.59-.59V718.9a.59.59 0 0 1 .59-.59zm205.11 12.899a5.54 5.54 0 0 0-5.55-5.53l-116.58.203a5.54 5.54 0 0 0-5.53 5.55v.12a5.54 5.54 0 0 0 5.55 5.53l116.58-.203a5.54 5.54 0 0 0 5.53-5.55v-.12zm-33.69 25.211a5.38 5.38 0 0 0-5.38-5.38h-83.04a5.38 5.38 0 0 0-5.38 5.38v1a5.38 5.38 0 0 0 5.38 5.38h83.04a5.38 5.38 0 0 0 5.38-5.38v-1zm-145.74 81.98a.82.81 37.2 0 1-1.33.18q-2.72-3.04-9.63-10.77c-6.08-6.81-13.18 2.36-7.8 8.1q7.08 7.57 11.13 12.1c3.62 4.05 8.26 7.57 12.65 1.58q15.87-21.66 29.47-43.64c3.32-5.37-3.14-11.53-8.29-7.83q-1.48 1.06-3.01 3.49-22.92 36.27-23.19 36.79zm-25.11-26.28h30.9a3.87 3.87 0 0 0 3.87-3.82v-.09a4.22 4.22 0 0 0-4.21-4.31q-19.78-.06-31.8.1c-7.69.09-9.06 4.78-9.03 11.93q.1 34.34 0 40.59c-.08 5.38.95 10.69 7.05 11.66q4.88.77 10.46.79 34.69.13 41.27-.12 9.44-.35 9.05-9.81c-.21-5.22-.42-8.12-.31-12.38q.2-7.37-.08-12.35a4.03 4.03 0 0 0-4.02-3.81h-.48a4.01 4 90 0 0-4 4.01v24.29a1.21 1.21 0 0 1-1.21 1.21h-47.49a1.14 1.14 0 0 1-1.14-1.14v-45.58a1.17 1.17 0 0 1 1.17-1.17zm204.67 12.73a5.93 5.93 0 0 0-5.93-5.93h-115.88a5.93 5.93 0 0 0-5.93 5.93v.14a5.93 5.93 0 0 0 5.93 5.93H1291a5.93 5.93 0 0 0 5.93-5.93v-.14zm-33.61 24.95a5.84 5.84 0 0 0-5.84-5.84h-82.46a5.84 5.84 0 0 0-5.84 5.84v1.48a5.84 5.84 0 0 0 5.84 5.84h82.46a5.84 5.84 0 0 0 5.84-5.84v-1.48zm-147.68 79.88q-2.51-3.07-7.02-8.15c-1.85-2.09-3.86-4.86-5.49-5.27q-4.09-1.03-5.75 2.64c-2.07 4.6.35 6.69 3.84 10.42q9.83 10.5 10.9 11.55c4.56 4.48 8.51 1.76 11.52-2.49 10.88-15.35 20.01-27.96 28.26-42.25 2.99-5.18-2.64-12.27-8.08-7.77q-2.35 1.93-4.42 5.31-9.72 15.82-22.67 35.95a.68.67 41.7 0 1-1.09.06zm-24.56 20.06v-45.63a.73.73 0 0 1 .73-.73h31.49a3.63 3.62-90 0 0 3.62-3.63v-.37a4.43 4.42 89.8 0 0-4.45-4.43q-11.12.06-29.27-.04c-6.05-.04-10.99 1.42-11.07 7.97q-.16 11.96-.03 45.71.04 9.95 9.48 10.36 14.8.65 43.71.21c7.93-.13 14.32.4 14.27-10.01q-.07-14.71-.14-24.89a3.63 3.63 0 0 0-4.03-3.58l-.25.03a4.7 4.7 0 0 0-4.19 4.68l.04 23.73a1.04 1.04 0 0 1-1.04 1.04h-48.46a.42.41-90 0 1-.41-.42zm205.7-34.79a5.9 5.9 0 0 0-5.9-5.9h-116.02a5.9 5.9 0 0 0-5.9 5.9v.14a5.9 5.9 0 0 0 5.9 5.9h116.02a5.9 5.9 0 0 0 5.9-5.9v-.14zM114.73 610.4l6.61-1.23a.56.56 0 0 1 .66.55v49.3a.56.56 0 0 1-.46.56l-6.61 1.23a.56.56 0 0 1-.66-.55v-49.3a.56.56 0 0 1 .46-.56z" class="F"/><path d="M98.99 665.72l-6.11 1.15a.74.74 0 0 1-.88-.73v-48.91a.74.74 0 0 1 .6-.72l6.11-1.15a.74.74 0 0 1 .88.73V665a.74.74 0 0 1-.6.72z" class="J"/><path d="M534.96 790.21a.88.88 0 0 1-.88.88h-236a.95.95 0 0 1-.95-.95q-.15-30.95-.04-78.43.02-6.89 6.65-6.85 22.29.13 221.01.02 1.9 0 7.28.29a2.66 2.64 79.9 0 1 2.29 1.61q.74 1.74.75 4.48.06 38.03-.11 78.95zm-175.522-58.087a5.05 5.05 0 0 0-5.068-5.032l-28.32.099a5.05 5.05 0 0 0-5.032 5.068l.124 35.54a5.05 5.05 0 0 0 5.068 5.032l28.32-.099a5.05 5.05 0 0 0 5.032-5.068l-.124-35.54zm101.502-.593a4.46 4.46 0 0 0-4.46-4.46h-68.92a4.46 4.46 0 0 0-4.46 4.46v36.98a4.46 4.46 0 0 0 4.46 4.46h68.92a4.46 4.46 0 0 0 4.46-4.46v-36.98zm58.117.444a4.94 4.94 0 0 0-4.957-4.923l-27.86.097a4.94 4.94 0 0 0-4.923 4.957l.126 35.98a4.94 4.94 0 0 0 4.957 4.923l27.86-.097a4.94 4.94 0 0 0 4.923-4.957l-.126-35.98z" class="E"/><path d="M121.62 757.38l-6.7 1.26a.51.51 0 0 1-.6-.5v-49.02a.51.51 0 0 1 .42-.5l6.7-1.25a.51.51 0 0 1 .6.5v49.01a.51.51 0 0 1-.42.5zm-23.05 4.64l-5.3.98a1.03 1.03 0 0 1-1.22-1.01v-47.01a1.03 1.03 0 0 1 .84-1.02l5.3-.98a1.03 1.03 0 0 1 1.22 1.01V761a1.03 1.03 0 0 1-.84 1.02z" class="J"/><path d="M902.95 958.19a.95.95 0 0 1-.95.95H658.36a.95.95 0 0 1-.95-.95V781.91a.95.95 0 0 1 .95-.95H902a.95.95 0 0 1 .95.95v176.28zM857.76 813.1a5.4 5.4 0 0 0-5.4-5.4H685.74a5.4 5.4 0 0 0-5.4 5.4v.34a5.4 5.4 0 0 0 5.4 5.4h166.62a5.4 5.4 0 0 0 5.4-5.4v-.34zm-18.87 118.41q-.08-16.49-.06-45.99c0-1.47-.23-4.74.55-5.9 4.94-7.38 11.22-17.86 17.36-26.07 7.65-10.25 16.67-22.7 23.51-35.03 1.52-2.74 2.9-6.37-.41-8.09-3.19-1.66-6.76 1.76-8.47 3.95q-5.85 7.49-20.92 28.82-8.4 11.89-18.21 25.99a1.22 1.22 0 0 1-1.71.29q-9.58-6.88-17.46-13.05c-4.41-3.45-9.2-.75-12.04 3.13q-11.92 16.29-22.45 33.54a1.18 1.18 0 0 1-1.76.3q-4.85-4.05-8.15-6.73-3.1-2.54-4.66-2.79c-2.85-.45-5.28 1.3-7.03 3.5q-9 11.29-14.45 19.25a.59.59 0 0 1-.83.15l-16.13-11.38a2.31 2.31 0 0 0-2.53-.08q-2.8 1.71-5.61 4.36-18.58 17.46-29.6 27.9c-3.56 3.37-5.59 8.12-1.03 11.64q1.57 1.21 4.7 1.21 30.66-.05 171.75-.05 1.85 0 3.49-.36a1.81 1.75 15.8 0 0 .86-.46q1.19-1.16 1.19-4.56.1-43.6-.03-70.62a4.31 4.3 89.9 0 0-4.3-4.29l-.26-.01a4.08 4.08 0 0 0-4.18 4.08v66.51a1.38 1.37-90 0 1-1.37 1.38h-19.22a.54.54 0 0 1-.54-.54zm-54.76-77.27a4.79 4.79 0 0 0-4.79-4.79H685.4a4.79 4.79 0 0 0-4.79 4.79v.7a4.79 4.79 0 0 0 4.79 4.79h93.94a4.79 4.79 0 0 0 4.79-4.79v-.7z" class="E"/><path d="M488.16 934.8a.45.44 90 0 1-.44-.45q.12-56.99.01-95.81-.02-9.18-9.24-9.19-66.79-.06-134.48-.03c-4.99.01-9.52 2.02-9.5 7.68q.17 42.24-.03 97.01a.82.82 0 0 1-.82.82h-35.79a.66.66 0 0 1-.66-.66V801.35a.3.3 0 0 1 .3-.3h225.53a.54.54 0 0 1 .54.54v132.59a.62.62 0 0 1-.62.62h-34.8z" class="F"/><path d="M121.76 906.28q-.2-.03-.44-.36-23.26-31.96-47.61-61.83a.63.62-46.7 0 1-.02-.76l.2-.29a.24.24 0 0 1 .35-.05q6.92 6.02 10.22 9.1 19.51 18.22 31.85 40.63 3.58 6.5 6 12.89a.5.5 0 0 1-.55.67zm2.38-62.15q.67.26 1.36 1.12c10.98 13.49 12.2 34.45 9.03 50.69a.39.39 0 0 1-.53.29q-.52-.21-.54-.71-.77-19.29-4.17-34.52-2.05-9.2-5.58-16.39a.35.35 0 0 1 .43-.48zm290.32 10.72l-.02 78.75a1.14 1.14 0 0 1-1.03 1.13l-1.56.16a1.14 1.14 0 0 1-1.25-1.14l-.1-82.64a1.14 1.14 0 0 1 2.18-.47l1.68 3.75a1.14 1.14 0 0 1 .1.46z" class="J"/><g class="F"><ellipse cx="0" cy="0" transform="matrix(.043619 -.999048 .999048 .043619 391.43 893.96)" rx="8.02" ry="5.61"/><ellipse cx="0" cy="0" transform="matrix(-.04885 -.998806 .998806 -.04885 434.19 894.09)" rx="8.08" ry="5.98"/></g><g class="D"><rect x="-5.22" y="-10.18" transform="matrix(.999962 .008727 -.008727 .999962 267.1 113.34)" width="10.44" height="20.36" rx="4.95"/><path d="M284.08 172.23a1.73 1.71 62.6 0 0-.5 1.61q1.7 8.35-2.03 13.92-4.08 6.11-10.62 7.71c-12.72 3.12-24.08-9.79-19.2-22.07a1.08 1.07 26.3 0 0-.45-1.32q-1.31-.79-2.68-2.05l-24.91-23.27q-5.45-4.81-8.34-8.14-4.08-4.69-1.08-9.61a1.99 1.97 8.2 0 1 1.22-.9q4.28-1.06 6.59 1.14 21.99 21 32.04 29.76c1.82 1.58 3.71 4.25 4.99 5.46a.99.96-28.9 0 0 .88.24q.1-.02 1.97-1.02c3.5-1.87 8.88-1.37 12.29.09a1.15 1.14 34.5 0 0 1.26-.23q16.2-15.73 32.26-30.74c2.57-2.41 7.83-3.23 9.68.9 1.74 3.88-1.42 8.07-4.12 10.63q-14.16 13.48-29.25 27.89z"/></g><path d="M754.09 161.23q-14.13 1.72-28.91 4.9a1.03 1.03 0 0 1-1.24-1v-.3a1.41 1.4 80.1 0 1 .93-1.32c8.93-3.19 19.92-4.17 28.89-5.21 8.96-1.04 19.89-2.59 29.31-1.53a1.41 1.4 86.7 0 1 1.2 1.08l.07.29a1.03 1.03 0 0 1-.98 1.26q-15.12.27-29.27 1.83z" class="E"/><g class="D"><rect x="-10.12" y="-5.35" transform="matrix(.998537 -.054079 .054079 .998537 200.89 181.38)" width="20.24" height="10.7" rx="5.06"/><path d="M333.34 175.94c2.63.03 4.7-.1 6.64.57 3.36 1.14 4.91 4.22 2.85 7.35-2.2 3.32-5.56 3.17-9.58 3.14-4.02-.04-7.38.05-9.52-3.3-2.01-3.17-.41-6.22 2.97-7.31 1.95-.63 4.02-.47 6.64-.45zm547.39 53.99a1.15 1.15 0 0 1-1.67.84q-1.57-.83-6.66-4.42c-16.92-11.94-38.55-15.56-59-12.01-4.6.8-9.16-3.14-7.95-7.87 1.22-4.74 8.01-6.27 12.15-6.71q19.2-2.04 37.41 2.99c10.96 3.02 21.97 11.96 25.31 22.92q.71 2.33.41 4.26zm-185.52.18a.98.97 87.3 0 1-1.1-1.01c.47-10.72 8.55-18.69 17.68-23.06q18.91-9.05 39.92-5.02c4.79.92 10.05 3.45 10.69 8.63.49 3.92-2.76 4.78-6.15 4.9-5.97.2-15.47-1.32-22.69-.91q-20.28 1.14-35.91 15.24-1.18 1.07-2.44 1.23zm155.98 8.36a.62.62 0 0 0-.77.63c.31 6.25-.06 13.37-7.28 14.97-7.47 1.65-16.37-2.14-14.91-11.32q.27-1.69.93-4.55a.92.91 89.1 0 0-1.12-1.09c-3.65.96-6.74 5.23-8.07 8.36q-1.58 3.7-2.38 4.75a1.14 1.14 0 0 1-.82.45c-3.31.28-4.12-2.97-3.64-5.68q2.43-13.8 16.88-15.97c15.76-2.36 33.31 4.54 38.54 20.51a1.55 1.38 77.4 0 1-1.11 2q-.9.09-1.74-.69c-6.09-5.61-12.12-11.77-14.51-12.37zm-104.56 1.12a.74.74 0 0 0-1.21.74c1.6 6.44 3.31 13.1-5.29 14.05-5.19.57-14.19.87-15.29-6.28q-.66-4.34.29-7.72a1.35 1.35 0 0 0-2.05-1.48l-15.13 10.17a1.22 1.22 0 0 1-1.9-.91c-.63-7.98 8.37-13.65 15.23-15.41 12.21-3.14 30.66-3.09 36.61 10.6q.59 1.36.59 3.03a.95.95 0 0 1-.49.83q-2.11 1.13-3.97-.74-3.6-3.63-7.39-6.88z"/><rect x="-5.42" y="-10.22" transform="matrix(.999903 -.013962 .013962 .999903 267.53 250.09)" width="10.84" height="20.44" rx="5.13"/><ellipse cx="0" cy="0" transform="matrix(-.982613 -.185667 .185667 -.982613 695.99 249.53)" rx="7.01" ry="2.71"/><ellipse cx="0" cy="0" transform="matrix(.979575 -.201078 .201078 .979575 882.91 250.9)" rx="7.07" ry="2.52"/><path d="M955 276.74h2.57a2.17 2.16 83.4 0 1 2.11 1.68q1.96 8.6-1.68 16.76c-2.12 4.76-6.72 10.75-12.41 11.01a1.75 1.61-6.9 0 1-1.76-1.26q-.2-.92.39-1.76 5.73-8.01 6.99-18.29a.84.83-77 0 0-.55-.89c-5.92-2.1-6.18-7.61-4.82-13.11q3.77-15.24 20.37-22.24a5.18 5.18 0 0 1 5.7 1.15l.15.15a2.89 2.89 0 0 1-.64 4.53q-12.68 7.2-14.68 14.48-.84 3.07-2.35 6.89a.66.66 0 0 0 .61.9z"/></g><g class="E"><rect x="-7.75" y="-.92" transform="matrix(.939094 .34366 -.34366 .939094 884.62 262.69)" width="15.5" height="1.84" rx=".89"/><rect x="-5.76" y="-1.02" transform="matrix(.70834 -.705872 .705872 .70834 695.35 265.26)" width="11.52" height="2.04" rx=".99"/></g><path d="M738.25 349.93a.3.3 0 0 1 .37-.43c28.31 11.62 60.37 14.41 89.8 4.89q7.39-2.39 16.72-5.77a.53.53 0 0 1 .71.47q.01.26-.23.54-4.67 5.46-9 9.94-18.73 19.41-47.35 18.81c-16.35-.35-29.88-7.43-41.91-17.69q-5.49-4.67-9.11-10.76z" class="J"/><g class="D"><path d="M904.53 357.17a1.5 1.5 0 0 1 2.74.11c2.34 5.88 1.58 10.83.32 17.98q-1.74 9.85-3.69 16.67-.57 1.98-1.1 2.68a1.37 1.36-42.8 0 1-2.23-.08q-1.82-2.81-2.08-6.25-1.22-16.53 6.04-31.11zM208.9 408.93a.27.26-90 0 0-.26-.27H195.7a.75.75 0 0 0-.75.75q0 8.86-.22 13.84-.14 3.31-3.42 3.98c-2.83.59-6.94 1.14-6.99-2.77q-.2-18.81-.09-42.21.01-2.19.49-3.07a1.45 1.4-88.1 0 1 .63-.61q.91-.42 4.9-.36c4.98.08 4.57 3.18 4.72 7.23q.26 6.96.01 13.29a.38.38 0 0 0 .38.4h12.83a.64.64 0 0 0 .64-.68q-.29-5.25.11-16.61.01-.2-.11-1.66-.15-1.79 1.92-1.96 2.87-.25 5.69-.16a2.68 2.66 78.2 0 1 2.33 1.53c1.12 2.36.93 4.53 1.05 6.9q.96 19.41-.25 35.27-.13 1.73-1.46 3.6a1.96 1.92-82.7 0 1-.85.67q-3.84 1.58-7.24.08a1.87 1.87 0 0 1-1.12-1.71v-15.47zm40.05-30.769a24.78 21.5-89.4 0 1 21.239 25.004 24.78 21.5-89.4 0 1-21.758 24.553 24.78 21.5-89.4 0 1-21.239-25.004 24.78 21.5-89.4 0 1 21.758-24.553zm-.678 10.426a14.28 11.25-91.8 0 0-10.796 14.626 14.28 11.25-91.8 0 0 11.693 13.92 14.28 11.25-91.8 0 0 10.796-14.626 14.28 11.25-91.8 0 0-11.693-13.92zm38.018.563c-3.35-.07-6.94.27-9.04-1-3.47-2.1-3.76-8.15 1.02-9.16q2.61-.55 4.73-.58 9.62-.18 20.51-.1c4.6.03 7.57 1.45 6.68 6.69-.96 5.6-7.71 3.98-11.25 3.93a.97.96.6 0 0-.98.95q-.14 15.94.04 29.37.04 2.94-.43 5.58a2.1 2.09 89.6 0 1-1.64 1.67q-3.76.76-6.72.1a2.94 2.94 0 0 1-2.31-2.87v-33.96a.62.62 0 0 0-.61-.62zm41.56 19.2a.31.3-2 0 0-.29.3v8.57a.93.92-.3 0 0 .94.92q5.16-.03 12.5-.9c1.91-.22 6.08-.39 6.68 2.1 1.56 6.51-2.42 8.06-7.93 8.17q-6.31.13-16.5.03-6.33-.07-6.37-6.1-.07-8.74-.1-34.94c0-2.29.13-6.73 2.83-7.6q2.58-.82 5.29-.73c6.47.22 12.89.16 18.9.6a4.31 4.31 0 0 1 3.94 5.02l-.07.37a5.83 5.82-84.3 0 1-5.71 4.68h-13.37a.83.83 0 0 0-.83.83v8.74a.83.82-2.5 0 0 .9.82l12.52-1.04a4.95 4.95 0 0 1 5.31 4.2l.08.53a3.96 3.96 0 0 1-3.69 4.65l-15.03.78zm41.07 9.75q4.67-.23 13.08-.85c2.83-.21 4.8 1.46 4.87 4.46.15 5.68-5.99 5.93-10.24 5.92q-9.01-.04-13.31.02c-4.67.06-6.2-3.59-6.2-7.87q-.02-19.5.08-38.02a3.07 3.06 80.8 0 1 2.08-2.89q4.61-1.55 7.07 1.06c2.28 2.42 1.68 9.22 1.69 13.57q.02 11.35.21 23.97a.64.64 0 0 0 .67.63zm513.12-38.6a1.47 1.47 0 0 1 2.19.54q2.36 4.87 2.13 10.22-.55 12.8-3.02 24.85-.02.08-.2 1.25-.23 1.43-1.06 2.04a1.29 1.29 0 0 1-1.95-.53c-1.82-4.2-1.93-8.19-2.07-14q-.27-10.88 1.96-20.8.55-2.48 2.02-3.57zm-120.12 19.39a1.69 1.56 74.6 0 1 1.1-2.12q1.55-.36 2.5-.05 6.45 2.08 10.02 2.97c10.19 2.52 21.94 2.58 32.18-.87q2.53-.86 6.49-2.16a1.45 1.45 0 0 1 1.7 2.11l-.81 1.39a1.39 1.24 86.8 0 1-.24.3q-17.42 16.24-40.07 6.74-4.05-1.7-11.76-6.61a2.05 1.9 88.6 0 1-.65-.67q-.3-.53-.46-1.03zm99 3.99a.99.99 0 0 1 1.52-.45q3.3 2.46 3.4 6.84.31 13.01-2.91 24.69-.54 1.98-1.56 3.51a1.34 1.34 0 0 1-2.38-.29q-.8-2.24-1-5.18-.57-8.07.35-18.72.38-4.3 2.58-10.4z"/><ellipse cx="0" cy="0" transform="matrix(.087156 -.996195 .996195 .087156 841.59 435.63)" rx="13.7" ry="3.2"/><path d="M752.49 451.77l-1.52-1.65a5.94 5.91-71.4 0 1-1.48-3q-1.58-9.11.96-17.8a1.82 1.59-70.9 0 1 2.21-1.27c2.49 1.04 2.37 5.96 2.26 8.71q-.16 3.75-.17 14.13a1.3 1.3 0 0 1-2.26.88z"/><ellipse cx="0" cy="0" transform="matrix(.139173 -.990268 .990268 .139173 819.58 443.75)" rx="12.62" ry="2.91"/><path d="M778.27 457.83a.1.1 0 0 1-.09.11l-.09.01a8.17 6.03 85.4 0 1-6.66-7.66l-.62-7.64a8.17 6.03 85.4 0 1 5.36-8.63h.09a.1.1 0 0 1 .11.09l1.9 23.72zm20.15.05a.01.01 0 0 1-.01.01 8.66 5.11-86.5 0 1-4.58-8.95l.37-5.93a8.66 5.11-86.5 0 1 5.63-8.33.01.01 0 0 1 0 .01l-1.41 23.19zM194.58 566.17a4.81 4.81 0 0 1-4.79-4.82l.15-41.61a32 26.8-89.8 0 1 26.91-31.91h.46A32 26.8-89.8 0 1 244 519.92l-.15 41.61a4.81 4.81 0 0 1-4.83 4.8l-44.44-.16zm22.15-54.21q10.02.02 14.78.08a.4.4 0 0 0 .39-.54c-2.28-6.61-7.75-12.18-15.14-12.19-7.39-.02-12.89 5.53-15.19 12.12a.4.4 0 0 0 .38.54q4.77-.03 14.78-.01zm-3.798 11.709a.52.52 0 0 0-.521-.519l-11.9.021a.52.52 0 0 0-.519.521l.057 32.44a.52.52 0 0 0 .521.519l11.9-.021a.52.52 0 0 0 .519-.521l-.057-32.44zm21.218-.049a.49.49 0 0 0-.49-.49h-12.12a.49.49 0 0 0-.49.49v32.56a.49.49 0 0 0 .49.49h12.12a.49.49 0 0 0 .49-.49v-32.56zm57.23 42.53a4.77 4.77 0 0 1-4.75-4.78l.15-42.23a31.4 26.99-89.8 0 1 27.1-31.31h.26a31.4 26.99-89.8 0 1 26.88 31.49l-.15 42.23a4.77 4.77 0 0 1-4.79 4.76l-44.7-.16zm22.27-54.2q10.1.01 14.91.06a.41.41 0 0 0 .39-.54c-2.3-6.66-7.83-12.27-15.29-12.28-7.45-.01-12.99 5.59-15.31 12.25a.41.41 0 0 0 .39.54q4.81-.04 14.91-.03zm-3.71 11.65a.41.41 0 0 0-.41-.41h-12.2a.41.41 0 0 0-.41.41v32.66a.41.41 0 0 0 .41.41h12.2a.41.41 0 0 0 .41-.41V523.6zm21.11.05a.52.52 0 0 0-.52-.52h-12.3a.52.52 0 0 0-.52.52v32.52a.52.52 0 0 0 .52.52h12.3a.52.52 0 0 0 .52-.52v-32.52zm56.76 42.55a5.02 5.02 0 0 1-5.01-5.03l.07-41.87a31.65 26.7-89.9 0 1 26.76-31.6h.32a31.65 26.7-89.9 0 1 26.64 31.7l-.07 41.87a5.02 5.02 0 0 1-5.03 5.01l-43.68-.08zm21.49-54.23q10.11.04 14.92.1a.41.41 0 0 0 .39-.54c-2.29-6.67-7.8-12.3-15.26-12.33-7.45-.03-13.02 5.56-15.35 12.21a.41.41 0 0 0 .38.54q4.81-.03 14.92.02zm-3.35 11.61a.41.41 0 0 0-.41-.41h-12.16a.41.41 0 0 0-.41.41v32.66a.41.41 0 0 0 .41.41h12.16a.41.41 0 0 0 .41-.41v-32.66zm20.97.01a.46.46 0 0 0-.46-.46H414.2a.46.46 0 0 0-.46.46v32.6a.46.46 0 0 0 .46.46h12.26a.46.46 0 0 0 .46-.46v-32.6zm-232 154.16a5.01 5.01 0 0 1-5.01-5.01v-42.78a31.45 27.01 90 0 1 27.01-31.45h.06a31.45 27.01-90 0 1 27.01 31.45v42.78a5.01 5.01 0 0 1-5.01 5.01h-44.06zm21.92-55.46q9.91.02 14.63.08a.4.4 0 0 0 .38-.53c-2.25-6.54-7.66-12.05-14.97-12.07s-12.76 5.47-15.04 11.99a.4.4 0 0 0 .38.53q4.72-.03 14.62 0zm-3.88 12.41a.7.7 0 0 0-.7-.7h-11.58a.7.7 0 0 0-.7.7v32.58a.7.7 0 0 0 .7.7h11.58a.7.7 0 0 0 .7-.7V634.7zm21.22-.12a.61.61 0 0 0-.61-.61h-11.92a.61.61 0 0 0-.61.61v32.76a.61.61 0 0 0 .61.61h11.92a.61.61 0 0 0 .61-.61v-32.76zm58.01 43.31a5.27 5.27 0 0 1-5.3-5.24l-.22-42.66a31.33 27.13 89.7 0 1 26.96-31.47 31.33 27.13 89.7 0 1 27.3 31.19l.22 42.66a5.27 5.27 0 0 1-5.24 5.29l-43.72.23zm21.78-55.71q9.98.02 14.73.07a.4.4 0 0 0 .38-.53c-2.27-6.58-7.72-12.13-15.08-12.14-7.36-.02-12.84 5.51-15.14 12.08a.4.4 0 0 0 .39.53q4.74-.03 14.72-.01zm-4.06 12.26a.52.52 0 0 0-.52-.52h-11.88a.52.52 0 0 0-.52.52v32.98a.52.52 0 0 0 .52.52h11.88a.52.52 0 0 0 .52-.52v-32.98zm21.159.162a.64.64 0 0 0-.639-.641l-12.08-.021a.64.64 0 0 0-.641.639l-.057 32.74a.64.64 0 0 0 .639.641l12.08.021a.64.64 0 0 0 .641-.639l.057-32.74zm56.851 43.128a5.13 5.13 0 0 1-5.12-5.14l.07-42.08a32.01 26.76-89.9 0 1 26.82-31.96h.28a32.01 26.76-89.9 0 1 26.7 32.06l-.07 42.08a5.13 5.13 0 0 1-5.14 5.12l-43.54-.08zm21.51-55.44q9.95.03 14.68.1a.4.4 0 0 0 .39-.54c-2.25-6.56-7.68-12.11-15.02-12.14-7.35-.02-12.82 5.48-15.12 12.03a.4.4 0 0 0 .38.53q4.73-.02 14.69.02zm-3.66 12.22a.57.57 0 0 0-.57-.57h-11.6a.57.57 0 0 0-.57.57v32.88a.57.57 0 0 0 .57.57h11.6a.57.57 0 0 0 .57-.57v-32.88zm21.15.03a.58.58 0 0 0-.58-.58h-12.18a.58.58 0 0 0-.58.58v32.82a.58.58 0 0 0 .58.58h12.18a.58.58 0 0 0 .58-.58v-32.82zm688.76 16.02a.78.77 40.8 0 0 1.25-.09q7.43-11.93 24.55-38.96c3.33-5.25 10.27-3.87 11.23 2.16q.28 1.75-1.47 4.8-3.67 6.4-6.63 10.66-13.34 19.31-20.33 29.13c-4.03 5.65-7.81 9.38-13.42 3.06q-3.59-4.05-11.17-12.19c-2.4-2.58-3.74-4.57-2.67-7.84 1.49-4.51 6.71-4.34 9.57-1.16q4.5 5 9.09 10.43zm-24.31-27.52a.27.26 0 0 0-.27.26v48.04a.58.58 0 0 0 .58.58h48.35a.94.94 0 0 0 .94-.94v-23.94a4.5 4.49 87 0 1 4.02-4.47l.39-.05a3.56 3.56 0 0 1 3.98 3.5q.2 18.46.22 22.23c.03 6.31-.98 12.46-8.72 12.64q-11.3.26-46.45.11c-8.53-.04-12.41-3.27-12.39-12q.02-7.89.04-45.26c0-8.37 6.33-9.4 13.81-9.39q14.92.02 26.74.22a4.36 4.36 0 0 1 4.28 4.18l.02.39a3.66 3.66 0 0 1-3.65 3.9h-31.89z"/></g><g class="G"><rect x="1169.17" y="632.81" width="127.78" height="12.3" rx="6.08"/><rect x="1169.16" y="658.74" width="94.36" height="11.18" rx="5.28"/></g><path d="M1115.68 744.61a.78.77 40.8 0 0 1.25-.09q7.43-11.95 24.55-39.03c3.33-5.26 10.28-3.88 11.25 2.16q.28 1.75-1.47 4.8-3.67 6.41-6.63 10.68-13.35 19.34-20.34 29.18c-4.03 5.66-7.81 9.4-13.43 3.07q-3.6-4.05-11.19-12.19c-2.41-2.59-3.75-4.58-2.68-7.85 1.49-4.52 6.71-4.35 9.58-1.17q4.51 5 9.11 10.44zm-23.99-26.3a.59.59 0 0 0-.59.59v46.29a.59.59 0 0 0 .59.59h47.76a1.5 1.5 0 0 0 1.5-1.5v-23.23a4.25 4.24 88.4 0 1 4-4.24l.35-.02a3.75 3.75 0 0 1 4.05 3.62q.11 3.34.31 22.84c.05 5.29-.6 10.39-6.91 11.01q-4.94.49-7.23.54-20.02.43-41.52.12c-8.57-.12-12.06-3.62-11.97-12.54q.06-6.05-.06-42.92c-.03-9.22 5.8-9.74 13.67-9.65q9.84.11 27.09.03a4.24 4.23-89.5 0 1 4.25 4.34l-.01.25a3.95 3.95 0 0 1-3.95 3.88h-31.33zm-848.278 46.114a5.39 5.39 0 0 1-5.381 5.399l-42.36.074a5.39 5.39 0 0 1-5.399-5.381l-.084-48.02a5.39 5.39 0 0 1 5.381-5.399l42.36-.074a5.39 5.39 0 0 1 5.399 5.381l.084 48.02zM212.96 720.98a.55.55 0 0 0-.55-.55h-11.94a.55.55 0 0 0-.55.55v38.58a.55.55 0 0 0 .55.55h11.94a.55.55 0 0 0 .55-.55v-38.58zm21.164-.108a.4.4 0 0 0-.399-.401l-12.42-.022a.4.4 0 0 0-.401.399l-.068 39.18a.4.4 0 0 0 .399.401l12.42.022a.4.4 0 0 0 .401-.399l.068-39.18z" class="D"/><rect x="-63.83" y="-5.6" transform="matrix(.999998 -.001745 .001745 .999998 1232.97 731.38)" width="127.66" height="11.2" rx="5.54" class="G"/><path d="M359.562 767.663a5.05 5.05 0 0 1-5.032 5.068l-28.32.099a5.05 5.05 0 0 1-5.068-5.032l-.124-35.54a5.05 5.05 0 0 1 5.032-5.068l28.32-.099a5.05 5.05 0 0 1 5.068 5.032l.124 35.54zm-8.721-28.464a1.29 1.29 0 0 0-1.288-1.292l-18.36-.032a1.29 1.29 0 0 0-1.292 1.288l-.041 23.64a1.29 1.29 0 0 0 1.288 1.292l18.36.032a1.29 1.29 0 0 0 1.292-1.288l.041-23.64zM460.94 768.51a4.46 4.46 0 0 1-4.46 4.46h-68.92a4.46 4.46 0 0 1-4.46-4.46v-36.98a4.46 4.46 0 0 1 4.46-4.46h68.92a4.46 4.46 0 0 1 4.46 4.46v36.98zm-42.519-29.847a.74.74 0 0 0-.739-.741l-24.92-.043a.74.74 0 0 0-.741.739l-.041 23.78a.74.74 0 0 0 .739.741l24.92.043a.74.74 0 0 0 .741-.739l.041-23.78zm33.588-.184a.66.66 0 0 0-.661-.659l-23.28.041a.66.66 0 0 0-.659.661l.042 23.96a.66.66 0 0 0 .661.659l23.28-.041a.66.66 0 0 0 .659-.661l-.042-23.96zm67.174 29.475a4.94 4.94 0 0 1-4.923 4.957l-27.86.097a4.94 4.94 0 0 1-4.957-4.923l-.126-35.98a4.94 4.94 0 0 1 4.923-4.957l27.86-.097a4.94 4.94 0 0 1 4.957 4.923l.126 35.98zm-8.799-29.082a.95.95 0 0 0-.945-.955l-17.88-.094a.95.95 0 0 0-.955.945l-.127 24.32a.95.95 0 0 0 .945.955l17.88.094a.95.95 0 0 0 .955-.945l.127-24.32z" class="D"/><rect x="1169.31" y="751.04" width="93.8" height="11.76" rx="5.38" class="G"/><g class="D"><path d="M1117.37 838.4q.27-.52 23.19-36.79 1.53-2.43 3.01-3.49c5.15-3.7 11.61 2.46 8.29 7.83q-13.6 21.98-29.47 43.64c-4.39 5.99-9.03 2.47-12.65-1.58q-4.05-4.53-11.13-12.1c-5.38-5.74 1.72-14.91 7.8-8.1q6.91 7.73 9.63 10.77a.82.81 37.2 0 0 1.33-.18zm-25.11-26.28a1.17 1.17 0 0 0-1.17 1.17v45.58a1.14 1.14 0 0 0 1.14 1.14h47.49a1.21 1.21 0 0 0 1.21-1.21v-24.29a4.01 4-90 0 1 4-4.01h.48a4.03 4.03 0 0 1 4.02 3.81q.28 4.98.08 12.35c-.11 4.26.1 7.16.31 12.38q.39 9.46-9.05 9.81-6.58.25-41.27.12-5.58-.02-10.46-.79c-6.1-.97-7.13-6.28-7.05-11.66q.1-6.25 0-40.59c-.03-7.15 1.34-11.84 9.03-11.93q12.02-.16 31.8-.1a4.22 4.22 0 0 1 4.21 4.31v.09a3.87 3.87 0 0 1-3.87 3.82h-30.9z"/><rect x="680.34" y="807.7" width="177.42" height="11.14" rx="5.4"/><path d="M838.89 931.51a.54.54 0 0 0 .54.54h19.22a1.38 1.37 90 0 0 1.37-1.38v-66.51a4.08 4.08 0 0 1 4.18-4.08l.26.01a4.31 4.3 89.9 0 1 4.3 4.29q.13 27.02.03 70.62 0 3.4-1.19 4.56a1.81 1.75 15.8 0 1-.86.46q-1.64.36-3.49.36-141.09 0-171.75.05-3.13 0-4.7-1.21c-4.56-3.52-2.53-8.27 1.03-11.64q11.02-10.44 29.6-27.9 2.81-2.65 5.61-4.36a2.31 2.31 0 0 1 2.53.08l16.13 11.38a.59.59 0 0 0 .83-.15q5.45-7.96 14.45-19.25c1.75-2.2 4.18-3.95 7.03-3.5q1.56.25 4.66 2.79 3.3 2.68 8.15 6.73a1.18 1.18 0 0 0 1.76-.3q10.53-17.25 22.45-33.54c2.84-3.88 7.63-6.58 12.04-3.13q7.88 6.17 17.46 13.05a1.22 1.22 0 0 0 1.71-.29q9.81-14.1 18.21-25.99 15.07-21.33 20.92-28.82c1.71-2.19 5.28-5.61 8.47-3.95 3.31 1.72 1.93 5.35.41 8.09-6.84 12.33-15.86 24.78-23.51 35.03-6.14 8.21-12.42 18.69-17.36 26.07-.78 1.16-.55 4.43-.55 5.9q-.02 29.5.06 45.99zm-10.17.58a1.04 1.04 0 0 0 1.04-1.04v-46.54a1.04 1.04 0 0 0-.44-.85l-18.62-13.14a1.04 1.04 0 0 0-1.64.85v59.68a1.04 1.04 0 0 0 1.04 1.04h18.62zm-28.77-49.92q-.48-.09-.8.48-5.62 10-13.59 21.41-1.62 2.33-4.47 3.31a1.84 1.83 80.7 0 0-1.24 1.74v22.03a.99.98 90 0 0 .98.99h18.68a.73.73 0 0 0 .73-.73v-48.89a.35.34 5 0 0-.29-.34zm-98.91 49.92h69.31a.68.68 0 0 0 .68-.68q.09-23.42 0-25.67c-.09-2.72-4.78-5.89-6.87-7.29a1.33 1.33 0 0 0-1.84.36c-4.04 5.99-8.46 11.92-13.47 17.49-3.59 3.99-6.93 5.07-11.43 2.54q-6.46-3.64-11.98-8.77a1.29 1.29 0 0 0-1.74 0l-23 21.13a.51.51 0 0 0 .34.89zm-457.07-66.757a5.78 5.78 0 0 1-5.77 5.79l-41.96.073a5.78 5.78 0 0 1-5.79-5.77l-.081-46.28a5.78 5.78 0 0 1 5.77-5.79l41.96-.073a5.78 5.78 0 0 1 5.79 5.77l.081 46.28zm-9.92-42.283a.39.39 0 0 0-.39-.39h-12.18a.39.39 0 0 0-.39.39v38.44a.39.39 0 0 0 .39.39h12.18a.39.39 0 0 0 .39-.39v-38.44zm-21.08.42a.55.55 0 0 0-.55-.55h-12.04a.55.55 0 0 0-.55.55v37.86a.55.55 0 0 0 .55.55h12.04a.55.55 0 0 0 .55-.55v-37.86z"/></g><g class="G"><rect x="1169.19" y="818.92" width="127.74" height="12" rx="5.93"/><rect x="1169.18" y="843.96" width="94.14" height="13.16" rx="5.84"/></g><g class="D"><rect x="680.61" y="849.45" width="103.52" height="10.28" rx="4.79"/><path d="M1115.64 929.68a.68.67 41.7 0 0 1.09-.06q12.95-20.13 22.67-35.95 2.07-3.38 4.42-5.31c5.44-4.5 11.07 2.59 8.08 7.77-8.25 14.29-17.38 26.9-28.26 42.25-3.01 4.25-6.96 6.97-11.52 2.49q-1.07-1.05-10.9-11.55c-3.49-3.73-5.91-5.82-3.84-10.42q1.66-3.67 5.75-2.64c1.63.41 3.64 3.18 5.49 5.27q4.51 5.08 7.02 8.15zm-24.56 20.06a.42.41 90 0 0 .41.42h48.46a1.04 1.04 0 0 0 1.04-1.04l-.04-23.73a4.7 4.7 0 0 1 4.19-4.68l.25-.03a3.63 3.63 0 0 1 4.03 3.58q.07 10.18.14 24.89c.05 10.41-6.34 9.88-14.27 10.01q-28.91.44-43.71-.21-9.44-.41-9.48-10.36-.13-33.75.03-45.71c.08-6.55 5.02-8.01 11.07-7.97q18.15.1 29.27.04a4.43 4.42 89.8 0 1 4.45 4.43v.37a3.63 3.62-90 0 1-3.62 3.63h-31.49a.73.73 0 0 0-.73.73v45.63z"/></g><rect x="1168.96" y="909.05" width="127.82" height="11.94" rx="5.9" class="G"/><ellipse cx="0" cy="0" transform="matrix(-.031411 -.999507 .999507 -.031411 248.72 402.86)" rx="14.28" ry="11.25" class="E"/><g class="F"><path d="M216.73 511.96q-10.01-.02-14.78.01a.4.4 0 0 1-.38-.54c2.3-6.59 7.8-12.14 15.19-12.12 7.39.01 12.86 5.58 15.14 12.19a.4.4 0 0 1-.39.54q-4.76-.06-14.78-.08zm96.93-12.77c7.46.01 12.99 5.62 15.29 12.28a.41.41 0 0 1-.39.54q-4.81-.05-14.91-.06-10.1-.01-14.91.03a.41.41 0 0 1-.39-.54c2.32-6.66 7.86-12.26 15.31-12.25zm95.64 12.78q-10.11-.05-14.92-.02a.41.41 0 0 1-.38-.54c2.33-6.65 7.9-12.24 15.35-12.21 7.46.03 12.97 5.66 15.26 12.33a.41.41 0 0 1-.39.54q-4.81-.06-14.92-.1z"/><rect x="-6.47" y="-16.74" transform="matrix(.999998 -.001745 .001745 .999998 206.49 539.9)" width="12.94" height="33.48" rx=".52"/><rect x="221.05" y="523.13" width="13.1" height="33.54" rx=".49"/><rect x="296.92" y="523.19" width="13.02" height="33.48" rx=".41"/><rect x="317.71" y="523.13" width="13.34" height="33.56" rx=".52"/><rect x="392.97" y="523.17" width="12.98" height="33.48" rx=".41"/><rect x="413.74" y="523.13" width="13.18" height="33.52" rx=".46"/><path d="M313.97 622.18q-9.98-.02-14.72.01a.4.4 0 0 1-.39-.53c2.3-6.57 7.78-12.1 15.14-12.08 7.36.01 12.81 5.56 15.08 12.14a.4.4 0 0 1-.38.53q-4.75-.05-14.73-.07zm95.46.11q-9.96-.04-14.69-.02a.4.4 0 0 1-.38-.53c2.3-6.55 7.77-12.05 15.12-12.03 7.34.03 12.77 5.58 15.02 12.14a.4.4 0 0 1-.39.54q-4.73-.07-14.68-.1zm-192.59 0q-9.9-.03-14.62 0a.4.4 0 0 1-.38-.53c2.28-6.52 7.73-12.01 15.04-11.99s12.72 5.53 14.97 12.07a.4.4 0 0 1-.38.53q-4.72-.06-14.63-.08z"/><rect x="296.99" y="633.92" width="12.92" height="34.02" rx=".52"/><rect x="393.03" y="633.94" width="12.74" height="34.02" rx=".57"/><rect x="199.98" y="634" width="12.98" height="33.98" rx=".7"/><rect x="221.04" y="633.97" width="13.14" height="33.98" rx=".61"/><rect x="-6.68" y="-17.01" transform="matrix(.999998 .001745 -.001745 .999998 324.36 650.96)" width="13.36" height="34.02" rx=".64"/><rect x="413.58" y="633.96" width="13.34" height="33.98" rx=".58"/><rect x="199.92" y="720.43" width="13.04" height="39.68" rx=".55"/><rect x="-6.61" y="-19.99" transform="matrix(.999998 .001745 -.001745 .999998 227.48 740.45)" width="13.22" height="39.98" rx=".4"/></g><g class="E"><rect x="-10.47" y="-13.11" transform="matrix(.999998 .001745 -.001745 .999998 340.35 751)" width="20.94" height="26.22" rx="1.29"/><rect x="-13.2" y="-12.63" transform="matrix(.999998 .001745 -.001745 .999998 405.2 750.53)" width="26.4" height="25.26" rx=".74"/><rect x="-12.3" y="-12.64" transform="matrix(.999998 -.001745 .001745 .999998 439.73 750.48)" width="24.6" height="25.28" rx=".66"/><rect x="-9.89" y="-13.11" transform="matrix(.999986 .005236 -.005236 .999986 500.43 750.98)" width="19.78" height="26.22" rx=".95"/></g><g class="F"><rect x="221.09" y="822.66" width="12.96" height="39.22" rx=".39"/><rect x="199.83" y="822.92" width="13.14" height="38.96" rx=".55"/></g><path d="M828.72 932.09H810.1a1.04 1.04 0 0 1-1.04-1.04v-59.68a1.04 1.04 0 0 1 1.64-.85l18.62 13.14a1.04 1.04 0 0 1 .44.85v46.54a1.04 1.04 0 0 1-1.04 1.04zm-28.77-49.92a.35.34 5 0 1 .29.34v48.89a.73.73 0 0 1-.73.73h-18.68a.99.98 90 0 1-.98-.99v-22.03a1.84 1.83 80.7 0 1 1.24-1.74q2.85-.98 4.47-3.31 7.97-11.41 13.59-21.41.32-.57.8-.48zm-98.91 49.92a.51.51 0 0 1-.34-.89l23-21.13a1.29 1.29 0 0 1 1.74 0q5.52 5.13 11.98 8.77c4.5 2.53 7.84 1.45 11.43-2.54 5.01-5.57 9.43-11.5 13.47-17.49a1.33 1.33 0 0 1 1.84-.36c2.09 1.4 6.78 4.57 6.87 7.29q.09 2.25 0 25.67a.68.68 0 0 1-.68.68h-69.31z" class="E"/></svg>