<svg xmlns="http://www.w3.org/2000/svg" fill="none" viewBox="0 0 14 14" id="Industry-Innovation-And-Infrastructure--Streamline-Flex" height="14" width="14"><desc>Industry Innovation And Infrastructure Streamline Icon: https://streamlinehq.com</desc><g id="industry-innovation-and-infrastructure"><path id="Subtract" fill="#4d6a7f" d="M4.02489 6.0249c-0.18797 -1.237 -0.19319 -2.09746 -0.01568 -3.31352 1.04181 0.76214 2.43889 1.60515 3.04585 1.80176 1.08356 -0.45004 1.7149 -0.99396 2.92968 -1.907 0.19336 1.27238 0.19336 2.14638 0 3.41876l-0.04287 0.02885c-0.93094 0.62641 -1.91672 1.28973 -2.93705 1.57722 -1.02034 -0.28749 -2.00612 -0.95081 -2.93706 -1.57722l-0.04287 -0.02885Z" stroke-width="1"></path><path id="Intersect" fill="#d76424" d="M4.00928 2.7113c1.04181 0.76213 2.43891 1.60516 3.04587 1.80177 0.53904 -0.22388 1.8891 -1.04538 2.93608 -1.86444 -0.00212 -0.01413 -0.00425 -0.02832 -0.00642 -0.04256 -0.01427 -0.00961 -0.02856 -0.01922 -0.04287 -0.02884C9.011 1.95081 8.02522 1.28749 7.00489 1c-1.02034 0.28749 -2.00612 0.95081 -2.93706 1.57722 -0.01431 0.00963 -0.0286 0.01924 -0.04287 0.02885 -0.00538 0.03538 -0.01061 0.07045 -0.01568 0.10523Z" stroke-width="1"></path><path id="Subtract_2" fill="#4d6a7f" d="M7.14036 11.3939c-0.18796 -1.237 -0.19318 -2.09744 -0.01568 -3.3135 1.04182 0.76214 2.4389 1.60515 3.04582 1.80176 1.0836 -0.45004 1.7149 -0.99396 2.9297 -1.907 0.1934 1.27238 0.1934 2.14634 0 3.41874l-0.0429 0.0289c-0.9309 0.6264 -1.9167 1.2897 -2.937 1.5772 -1.02034 -0.2875 -2.00612 -0.9508 -2.93706 -1.5772l-0.04288 -0.0289Z" stroke-width="1"></path><path id="Intersect_2" fill="#d76424" d="M7.12476 8.08031c1.04181 0.76214 2.43891 1.60517 3.04584 1.80178 0.5391 -0.22388 1.8891 -1.04538 2.9361 -1.86444 -0.0021 -0.01413 -0.0042 -0.02832 -0.0064 -0.04256 -0.0143 -0.00961 -0.0286 -0.01922 -0.0429 -0.02885 -0.9309 -0.62641 -1.9167 -1.28973 -2.937 -1.57722 -1.02037 0.28749 -2.00615 0.9508 -2.9371 1.57722 -0.0143 0.00963 -0.02859 0.01924 -0.04287 0.02885 -0.00537 0.03538 -0.0106 0.07045 -0.01567 0.10522Z" stroke-width="1"></path><path id="Subtract_3" fill="#4d6a7f" d="M0.895003 11.394C0.707042 10.157 0.701815 9.29652 0.879323 8.08046 1.92114 8.8426 3.31822 9.68561 3.92517 9.88222c1.08357 -0.45004 1.71491 -0.99396 2.92969 -1.907 0.19334 1.27238 0.19334 2.14638 0 3.41878l-0.04287 0.0288c-0.93095 0.6264 -1.91672 1.2898 -2.93706 1.5772 -1.02033 -0.2874 -2.00611 -0.9508 -2.937052 -1.5772l-0.042875 -0.0288Z" stroke-width="1"></path><path id="Intersect_3" stroke="#060644" stroke-linecap="round" stroke-linejoin="round" d="M4.02478 2.60607c-0.19334 1.27238 -0.19334 2.14638 0 3.41876 0.94353 0.63479 1.94392 1.31416 2.97993 1.60607 1.03601 -0.29191 2.03639 -0.97128 2.97992 -1.60607 0.19337 -1.27238 0.19337 -2.14638 0 -3.41876C9.0411 1.97128 8.04072 1.29191 7.00471 1c-1.03601 0.29191 -2.0364 0.97128 -2.97993 1.60607Z" stroke-width="1"></path><path id="Intersect_4" stroke="#060644" stroke-linecap="round" stroke-linejoin="round" d="M0.895139 7.97515c-0.193338 1.27238 -0.193339 2.14635 0 3.41875C1.83867 12.0287 2.83906 12.7081 3.87507 13c1.03601 -0.2919 2.03639 -0.9713 2.97993 -1.6061 0.19333 -1.2724 0.19333 -2.14637 0 -3.41875 -0.94354 -0.63479 -1.94392 -1.31416 -2.97993 -1.60607 -1.03601 0.29191 -2.0364 0.97128 -2.979931 1.60607Z" stroke-width="1"></path><path id="Intersect_5" stroke="#060644" stroke-linecap="round" stroke-linejoin="round" d="M7.14514 7.97515c-0.19334 1.27238 -0.19334 2.14635 0 3.41875 0.94353 0.6348 1.94392 1.3142 2.97996 1.6061 1.036 -0.2919 2.0364 -0.9713 2.9799 -1.6061 0.1933 -1.2724 0.1933 -2.14637 0 -3.41875 -0.9435 -0.63479 -1.9439 -1.31416 -2.9799 -1.60607 -1.03604 0.29191 -2.03643 0.97128 -2.97996 1.60607Z" stroke-width="1"></path><path id="Intersect_6" fill="#d76424" d="M0.879395 8.08037C1.92121 8.84251 3.31831 9.68554 3.92527 9.88215c0.53903 -0.22388 1.8891 -1.04538 2.93608 -1.86444 -0.00212 -0.01413 -0.00426 -0.02832 -0.00642 -0.04256 -0.01428 -0.00961 -0.02857 -0.01922 -0.04287 -0.02884 -0.93094 -0.62642 -1.91672 -1.28974 -2.93706 -1.57723 -1.02033 0.28749 -2.00611 0.95081 -2.937058 1.57722 -0.014302 0.00963 -0.028592 0.01924 -0.042869 0.02885 -0.005376 0.03538 -0.010602 0.07045 -0.015678 0.10522Z" stroke-width="1"></path><path id="Intersect_7" stroke="#060644" stroke-linecap="round" stroke-linejoin="round" d="M4.00903 2.7113c1.04182 0.76213 2.43892 1.60516 3.04588 1.80177 0.53903 -0.22388 1.8891 -1.04538 2.93608 -1.86444 -0.00212 -0.01413 -0.00426 -0.02832 -0.00642 -0.04256 -0.01428 -0.00961 -0.02857 -0.01922 -0.04287 -0.02884C9.01076 1.95081 8.02498 1.28749 7.00464 1c-1.02033 0.28749 -2.00611 0.95081 -2.93706 1.57722 -0.0143 0.00963 -0.02859 0.01924 -0.04287 0.02885 -0.00537 0.03538 -0.0106 0.07045 -0.01568 0.10523Z" stroke-width="1"></path><path id="Intersect_8" stroke="#060644" stroke-linecap="round" stroke-linejoin="round" d="M0.879395 8.08037C1.92121 8.84251 3.31831 9.68554 3.92527 9.88215c0.53903 -0.22388 1.8891 -1.04538 2.93608 -1.86444 -0.00212 -0.01413 -0.00426 -0.02832 -0.00642 -0.04256 -0.01428 -0.00961 -0.02857 -0.01922 -0.04287 -0.02884 -0.93094 -0.62642 -1.91672 -1.28974 -2.93706 -1.57723 -1.02033 0.28749 -2.00611 0.95081 -2.937058 1.57722 -0.014302 0.00963 -0.028592 0.01924 -0.042869 0.02885 -0.005376 0.03538 -0.010602 0.07045 -0.015678 0.10522Z" stroke-width="1"></path><path id="Intersect_9" stroke="#060644" stroke-linecap="round" stroke-linejoin="round" d="M7.12939 8.08037c1.04182 0.76214 2.43892 1.60517 3.04591 1.80178 0.539 -0.22388 1.8891 -1.04538 2.936 -1.86444 -0.0021 -0.01413 -0.0042 -0.02832 -0.0064 -0.04256 -0.0142 -0.00961 -0.0285 -0.01922 -0.0428 -0.02884 -0.931 -0.62642 -1.9168 -1.28974 -2.9371 -1.57723 -1.02033 0.28749 -2.00611 0.95081 -2.93706 1.57722 -0.0143 0.00963 -0.02859 0.01924 -0.04287 0.02885 -0.00537 0.03538 -0.0106 0.07045 -0.01568 0.10522Z" stroke-width="1"></path><path id="Vector 388" stroke="#060644" stroke-linecap="round" stroke-linejoin="round" d="M7 7.63092v-3.0788" stroke-width="1"></path><path id="Vector 390" stroke="#060644" stroke-linecap="round" stroke-linejoin="round" d="M3.87036 12.9999V9.92114" stroke-width="1"></path><path id="Vector 391" stroke="#060644" stroke-linecap="round" stroke-linejoin="round" d="M10.1204 12.9999V9.92114" stroke-width="1"></path></g></svg>