<svg xmlns="http://www.w3.org/2000/svg" fill="none" viewBox="0 0 14 14" height="14" width="14"><g id="leaf-energy-saving--leaf-energy-saving-eco-station-electricity"><path id="Subtract" fill="#d76424" fill-rule="evenodd" d="M2.28866 10.2478C0.353826 8.72538 -0.199024 6.47046 1.56981 4.22238c0.92302 -1.17309 2.59367 -1.65882 4.12435 -2.10386C7.09681 1.71071 8.38192 1.33707 8.8665 0.5c1.08935 1.17512 1.6423 3.04553 1.4482 4.89551 -0.1407 0.0782 -0.2784 0.17563 -0.41127 0.29382 -1.1904 1.05905 -2.12547 2.20099 -3.00007 3.422 -0.34123 0.47638 -0.44991 1.00637 -0.38078 1.50077 -1.50917 0.6505 -3.0838 0.5406 -4.23392 -0.3643Z" clip-rule="evenodd" stroke-width="1"></path><path id="Vector" fill="#4d6a7f" d="M10.1204 13.1448v-2.4563H8.61634c-0.28892 0 -0.45855 -0.324 -0.29031 -0.5589 0.83067 -1.15967 1.68067 -2.19059 2.74057 -3.13358 0.2248 -0.19995 0.5708 -0.03589 0.5708 0.26493v2.4563h1.5041c0.2889 0 0.4585 0.32405 0.2903 0.55895 -0.8307 1.1596 -1.6807 2.1906 -2.7406 3.1335 -0.2248 0.2 -0.5708 0.0359 -0.5708 -0.2649Z" stroke-width="1"></path><path id="Vector 155" stroke="#060644" stroke-linecap="round" stroke-linejoin="round" d="M5.81258 4.95703C3.5462 6.44965 1.72943 8.29603 1.92112 9.9028" stroke-width="1"></path><path id="Vector_2" stroke="#060644" stroke-linecap="round" stroke-linejoin="round" d="M10.1204 13.1448v-2.4563H8.61634c-0.28892 0 -0.45855 -0.324 -0.29031 -0.5589 0.83067 -1.15967 1.68067 -2.19059 2.74057 -3.13358 0.2248 -0.19995 0.5708 -0.03589 0.5708 0.26493v2.4563h1.5041c0.2889 0 0.4585 0.32405 0.2903 0.55895 -0.8307 1.1596 -1.6807 2.1906 -2.7406 3.1335 -0.2248 0.2 -0.5708 0.0359 -0.5708 -0.2649Z" stroke-width="1"></path><path id="Vector 154" stroke="#060644" stroke-linecap="round" stroke-linejoin="round" d="M10.3498 4.87518C10.4004 3.20089 9.85371 1.56494 8.8665 0.5 7.85312 2.25054 3.33866 1.97431 1.56981 4.22238c-1.768834 2.24808 -1.215984 4.503 0.71885 6.02542 1.04351 0.821 2.43647 0.9876 3.81294 0.5256" stroke-width="1"></path></g></svg>