<svg xmlns="http://www.w3.org/2000/svg" fill="none" viewBox="-10.715 -10.715 300 300" id="Linkedin-Logo--Streamline-Flex" height="300" width="300"><desc>Linkedin Logo Streamline Icon: https://streamlinehq.com</desc><g id="linkedin--network-linkedin-professional"><path id="Vector 229 (Stroke)" fill="#d76424" fill-rule="evenodd" d="M44.58353667142856 113.49936692857143c15.275385949999999 0 27.658618364285715 12.383232414285713 27.658618364285715 27.658618364285715V235.98858571428568c0 15.275584928571428 -12.383232414285713 27.658021428571423 -27.658618364285715 27.658021428571423 -15.275385949999999 0 -27.658697955714285 -12.382436499999999 -27.658697955714285 -27.658021428571423V141.15798529285712c0 -15.275385949999999 12.383312005714284 -27.658618364285715 27.658697955714285 -27.658618364285715Z" clip-rule="evenodd" stroke-width="21.43"></path><path id="Vector 230 (Stroke)" fill="#d76424" fill-rule="evenodd" d="M188.57298703571428 168.81680263571428c-10.910989964285713 0 -19.7561844 8.845194435714285 -19.7561844 19.7561844V235.98858571428568c0 15.275584928571428 -12.383232414285713 27.658021428571423 -27.65881734285714 27.658021428571423 -15.275385949999999 0 -27.658618364285715 -12.382436499999999 -27.658618364285715 -27.658021428571423V188.57298703571428c0 -41.461960842857145 33.61165926428571 -75.07362010714284 75.07362010714284 -75.07362010714284 41.46215982142857 0 75.07362010714284 33.61165926428571 75.07362010714284 75.07362010714284V235.98858571428568c0 15.275584928571428 -12.382436499999999 27.658021428571423 -27.658021428571423 27.658021428571423 -15.275584928571428 0 -27.66001121428571 -12.382436499999999 -27.66001121428571 -27.658021428571423V188.57298703571428c0 -10.910989964285713 -8.844597499999999 -19.7561844 -19.755587464285714 -19.7561844Z" clip-rule="evenodd" stroke-width="21.43"></path><path id="Vector 229 (Stroke)_2" fill-rule="evenodd" stroke="#060644" stroke-linecap="round" stroke-linejoin="round" d="M44.58353667142856 113.49936692857143c15.275385949999999 0 27.658618364285715 12.383232414285713 27.658618364285715 27.658618364285715V235.98858571428568c0 15.275584928571428 -12.383232414285713 27.658021428571423 -27.658618364285715 27.658021428571423 -15.275584928571428 0 -27.658697955714285 -12.382436499999999 -27.658697955714285 -27.658021428571423V141.15798529285712c0 -15.275385949999999 12.383113027142857 -27.658618364285715 27.658697955714285 -27.658618364285715Z" clip-rule="evenodd" stroke-width="21.43"></path><path id="Vector 230 (Stroke)_2" fill-rule="evenodd" stroke="#060644" stroke-linecap="round" stroke-linejoin="round" d="M188.57298703571428 168.81680263571428c-10.910989964285713 0 -19.7561844 8.845194435714285 -19.7561844 19.7561844V235.98858571428568c0 15.275584928571428 -12.383232414285713 27.658021428571423 -27.65881734285714 27.658021428571423 -15.275385949999999 0 -27.658618364285715 -12.382436499999999 -27.658618364285715 -27.658021428571423V188.57298703571428c0 -41.461960842857145 33.61165926428571 -75.07362010714284 75.07362010714284 -75.07362010714284 41.46215982142857 0 75.07362010714284 33.61165926428571 75.07362010714284 75.07362010714284V235.98858571428568c0 15.275584928571428 -12.382436499999999 27.658021428571423 -27.658021428571423 27.658021428571423 -15.275584928571428 0 -27.66001121428571 -12.382436499999999 -27.66001121428571 -27.658021428571423V188.57298703571428c0 -10.910989964285713 -8.844597499999999 -19.7561844 -19.755587464285714 -19.7561844Z" clip-rule="evenodd" stroke-width="21.43"></path><path id="Vector" fill="#d76424" d="M46.050804657142855 14.922218883571427c19.921535592857143 0 31.127411799999997 11.205856309285714 31.127411799999997 31.127391902142858s-11.205876207142856 31.127411799999997 -31.127411799999997 31.127411799999997S14.923392857142856 65.97114637857142 14.923392857142856 46.04961078571428 26.12926906428571 14.922218883571427 46.050804657142855 14.922218883571427Z" stroke-width="21.43"></path><path id="Vector_2" stroke="#060644" stroke-linecap="round" stroke-linejoin="round" d="M46.050804657142855 14.922218883571427c19.921535592857143 0 31.127411799999997 11.205856309285714 31.127411799999997 31.127391902142858s-11.205876207142856 31.127411799999997 -31.127411799999997 31.127411799999997S14.923392857142856 65.97114637857142 14.923392857142856 46.04961078571428 26.12926906428571 14.922218883571427 46.050804657142855 14.922218883571427Z" stroke-width="21.43"></path></g></svg>