<?xml version="1.0" encoding="UTF-8" standalone="no"?>
<!DOCTYPE svg PUBLIC "-//W3C//DTD SVG 1.0//EN" "http://www.w3.org/TR/2001/REC-SVG-20010904/DTD/svg10.dtd">
<svg xmlns="http://www.w3.org/2000/svg" version="1.0" viewBox="0.00 0.00 1294.00 1024.00">
<g stroke-width="2.00" fill="none" stroke-linecap="butt">
<path stroke="#7a3934" d="
  M 200.91 229.18
  L 187.46 250.96"
/>
<path stroke="#7a3934" d="
  M 184.29 226.92
  Q 188.85 220.69 192.51 213.11"
/>
<path stroke="#7a3934" d="
  M 200.99 345.31
  Q 200.90 345.21 200.62 345.39
  A 0.81 0.78 88.6 0 0 200.42 345.61
  Q 195.30 353.86 190.00 362.01
  Q 189.06 363.44 187.72 366.41"
/>
<path stroke="#7a3934" d="
  M 184.80 342.96
  L 193.15 329.21"
/>
<path stroke="#7a3934" d="
  M 201.02 461.48
  Q 195.07 470.64 189.40 479.40
  Q 188.21 481.24 187.58 483.02"
/>
<path stroke="#7a3934" d="
  M 185.38 459.24
  Q 189.41 453.58 192.66 447.40
  Q 193.01 446.73 192.73 446.19"
/>
<path stroke="#837685" d="
  M 974.05 144.78
  L 974.05 213.95
  A 0.24 0.24 0.0 0 0 974.29 214.19
  L 1042.25 214.19
  A 0.51 0.50 88.9 0 0 1042.75 213.66
  Q 1042.51 207.42 1041.28 203.24
  Q 1030.72 167.55 998.16 151.52
  C 990.29 147.64 983.83 146.12 974.73 144.23
  A 0.57 0.56 5.9 0 0 974.05 144.78"
/>
<path stroke="#7a3934" d="
  M 549.08 242.97
  Q 549.08 243.37 549.59 243.55
  C 565.92 249.19 581.17 254.98 593.34 265.18
  C 608.28 277.69 616.80 296.75 623.25 315.67
  Q 623.48 316.34 624.00 316.34
  Q 624.52 316.34 624.74 315.67
  C 631.19 296.75 639.71 277.69 654.64 265.17
  C 666.81 254.97 682.06 249.18 698.39 243.53
  Q 698.89 243.36 698.89 242.95
  Q 698.89 242.55 698.39 242.38
  C 682.06 236.74 666.81 230.95 654.64 220.75
  C 639.70 208.24 631.18 189.18 624.73 170.26
  Q 624.50 169.59 623.98 169.59
  Q 623.46 169.59 623.23 170.26
  C 616.79 189.18 608.27 208.24 593.33 220.75
  C 581.17 230.96 565.92 236.75 549.59 242.40
  Q 549.08 242.57 549.08 242.97"
/>
<path stroke="#837685" d="
  M 1179.28 661.21
  C 1159.24 639.41 1132.23 622.17 1103.01 614.91
  Q 1088.56 611.32 1077.13 610.45
  Q 1051.71 608.51 1026.82 613.58
  C 997.54 619.55 971.35 634.43 950.23 654.98
  C 917.78 686.57 899.97 731.32 903.67 777.36
  Q 904.48 787.43 905.17 791.56
  Q 909.58 818.03 920.66 839.69
  Q 940.76 879.01 977.87 902.64
  Q 1000.13 916.82 1025.65 922.22
  Q 1052.78 927.96 1078.86 925.31
  Q 1131.70 919.94 1170.01 883.64
  Q 1205.79 849.75 1216.21 802.55
  Q 1228.82 745.49 1202.06 693.98
  Q 1192.51 675.61 1179.28 661.21"
/>
<path stroke="#837685" d="
  M 1002.16 740.00
  Q 1003.32 742.17 1004.39 744.54
  C 1012.21 761.88 1031.80 772.17 1049.79 775.95
  A 1.65 1.65 0.0 0 1 1051.11 777.57
  L 1051.11 837.29
  A 0.89 0.88 2.7 0 1 1050.14 838.17
  Q 1047.09 837.89 1043.85 836.91
  C 1034.83 834.19 1025.05 829.32 1016.94 823.17
  C 1013.35 820.45 1010.54 820.10 1007.88 824.15
  Q 1002.84 831.80 997.94 839.67
  Q 996.56 841.89 996.26 843.45
  A 2.66 2.65 22.0 0 0 997.41 846.15
  C 1013.13 856.50 1030.67 863.73 1049.66 864.41
  A 1.32 1.31 -89.3 0 1 1050.92 865.71
  Q 1051.12 879.59 1051.07 881.18
  C 1050.95 885.86 1052.08 888.95 1056.68 889.60
  Q 1060.29 890.11 1069.25 889.81
  C 1071.20 889.74 1072.89 888.78 1073.48 886.71
  Q 1074.51 883.09 1074.24 880.31
  C 1073.71 874.84 1074.07 871.96 1074.08 864.33
  A 0.84 0.83 86.5 0 1 1074.81 863.50
  C 1095.79 860.96 1115.65 848.94 1123.78 829.05
  C 1132.69 807.26 1125.43 785.08 1107.32 770.91
  Q 1093.90 760.41 1077.81 755.85"
/>
<path stroke="#837685" d="
  M 1074.51 753.99
  L 1074.25 753.78
  A 0.70 0.66 21.3 0 1 1074.00 753.26
  L 1074.00 696.89
  A 0.99 0.98 3.2 0 1 1075.10 695.92
  C 1084.51 696.95 1093.39 701.21 1101.86 706.14
  Q 1103.24 706.94 1105.37 707.15
  A 2.26 2.25 18.7 0 0 1107.51 706.10
  L 1117.83 689.56
  A 2.77 2.76 -52.5 0 0 1117.37 686.08
  Q 1114.69 683.56 1111.33 681.70
  Q 1094.03 672.15 1074.60 669.92
  A 0.71 0.70 3.6 0 1 1073.97 669.21
  Q 1074.03 662.53 1074.08 651.21
  Q 1074.10 646.28 1069.59 645.91
  Q 1065.09 645.54 1059.49 645.65
  C 1053.36 645.76 1051.15 646.31 1051.04 653.42
  Q 1050.89 662.33 1051.03 668.67
  A 1.26 1.25 85.7 0 1 1049.93 669.95
  C 1032.50 672.15 1016.35 681.78 1007.10 696.66
  Q 996.55 713.65 1001.14 736.00
  Q 1001.26 736.59 1000.84 736.85"
/>
<path stroke="#837685" d="
  M 1027.26 720.08
  C 1027.30 732.86 1038.03 741.89 1049.72 744.22
  A 1.11 1.11 0.0 0 0 1051.05 743.13
  Q 1051.00 728.08 1050.97 720.01
  Q 1050.95 711.95 1050.92 696.90
  A 1.11 1.11 0.0 0 0 1049.58 695.81
  C 1037.91 698.21 1027.22 707.30 1027.26 720.08"
/>
<path stroke="#837685" d="
  M 1074.10 790.54
  L 1074.02 837.36
  A 0.72 0.71 86.8 0 0 1074.82 838.08
  C 1087.11 836.69 1097.96 827.22 1098.92 814.72
  Q 1099.64 805.30 1093.32 797.55
  Q 1087.59 790.51 1077.76 787.94"
/>
</g>
<g>
<path fill="#0c0a4d" d="
  M 1087.58 90.36
  A 0.54 0.54 0.0 0 0 1087.04 89.82
  L 799.04 89.82
  A 1.05 1.05 0.0 0 0 797.99 90.87
  Q 797.89 227.22 798.09 347.92
  C 798.10 352.33 793.46 356.28 789.09 354.52
  Q 784.68 352.73 784.68 347.47
  Q 784.72 159.77 784.62 89.36
  Q 784.61 82.30 785.91 80.45
  C 789.03 76.05 792.37 75.13 798.25 75.13
  Q 1035.29 75.07 1097.24 75.15
  Q 1100.87 75.15 1104.20 78.55
  Q 1118.20 92.82 1123.19 97.60
  Q 1148.90 122.18 1183.41 155.10
  C 1190.59 161.96 1194.72 165.30 1194.72 174.50
  Q 1194.66 388.49 1194.79 532.88
  Q 1194.79 539.54 1193.32 542.39
  Q 1190.37 548.11 1182.76 548.11
  Q 975.85 548.14 886.01 548.07
  C 882.30 548.06 878.87 547.97 877.53 544.04
  C 876.35 540.56 878.59 534.99 883.00 534.99
  Q 1159.67 534.95 1179.78 535.01
  A 0.88 0.87 -89.7 0 0 1180.66 534.13
  L 1180.66 177.14
  A 1.24 1.24 0.0 0 0 1179.42 175.90
  Q 1125.78 175.98 1102.00 175.92
  C 1095.71 175.91 1089.36 172.49 1087.91 166.18
  Q 1087.57 164.73 1087.58 157.32
  Q 1087.63 115.35 1087.58 90.36
  Z
  M 1101.33 160.86
  A 0.49 0.49 0.0 0 0 1101.82 161.35
  L 1167.82 161.35
  A 0.49 0.49 0.0 0 0 1168.16 160.51
  L 1102.16 96.98
  A 0.49 0.49 0.0 0 0 1101.33 97.33
  L 1101.33 160.86
  Z"
/>
<rect fill="#0c0a4d" x="-10.70" y="-36.07" transform="translate(517.63,136.62) rotate(-45.0)" width="21.40" height="72.14" rx="10.47"/>
<rect fill="#0c0a4d" x="-10.68" y="-36.07" transform="translate(730.36,136.62) rotate(45.0)" width="21.36" height="72.14" rx="10.45"/>
<path fill="#0c0a4d" d="
  M 1056.07 225.53
  Q 1054.86 227.21 1052.00 227.21
  Q 991.95 227.17 976.50 227.15
  C 973.49 227.14 965.95 227.74 963.50 225.64
  C 960.83 223.37 960.99 220.67 960.99 217.27
  Q 961.00 216.90 960.94 141.00
  C 960.94 136.60 961.94 132.32 966.68 131.17
  Q 968.39 130.75 974.53 131.26
  Q 1002.52 133.55 1024.32 152.21
  Q 1053.53 177.20 1057.27 215.74
  C 1057.66 219.72 1058.06 222.76 1056.07 225.53
  Z
  M 974.05 144.78
  L 974.05 213.95
  A 0.24 0.24 0.0 0 0 974.29 214.19
  L 1042.25 214.19
  A 0.51 0.50 88.9 0 0 1042.75 213.66
  Q 1042.51 207.42 1041.28 203.24
  Q 1030.72 167.55 998.16 151.52
  C 990.29 147.64 983.83 146.12 974.73 144.23
  A 0.57 0.56 5.9 0 0 974.05 144.78
  Z"
/>
<path fill="#0c0a4d" d="
  M 367.45 586.10
  C 377.39 586.10 377.62 600.51 367.53 600.53
  Q 325.94 600.62 92.01 600.50
  Q 80.00 600.49 71.88 592.80
  Q 65.25 586.52 62.53 578.87
  Q 61.09 574.82 61.10 562.06
  Q 61.20 351.23 61.08 169.56
  Q 61.07 160.98 62.36 157.53
  C 65.73 148.47 73.61 141.48 82.82 138.40
  Q 86.61 137.13 94.82 137.13
  Q 258.67 137.12 451.75 137.13
  Q 454.71 137.13 458.31 139.19
  Q 467.05 144.21 468.01 154.26
  Q 468.13 155.48 468.16 162.50
  Q 468.20 173.46 468.17 547.00
  Q 468.17 547.15 468.13 558.27
  Q 468.11 563.86 466.99 565.49
  Q 464.83 568.60 460.41 567.78
  Q 454.84 566.76 454.85 560.69
  Q 454.90 350.79 454.84 182.25
  Q 454.84 170.61 454.80 165.33
  Q 454.75 157.64 453.39 155.45
  Q 450.75 151.18 444.72 150.86
  Q 440.08 150.62 422.00 150.65
  Q 374.25 150.73 102.93 150.65
  Q 89.78 150.65 85.70 152.11
  Q 74.73 156.04 74.74 171.41
  Q 74.85 371.76 74.77 568.75
  C 74.77 576.14 79.20 582.45 85.85 585.15
  Q 88.23 586.12 95.27 586.11
  Q 191.61 586.06 367.45 586.10
  Z"
/>
<path fill="#0c0a4d" d="
  M 624.00 137.85
  C 632.59 137.85 637.71 145.47 640.81 152.90
  C 646.30 166.05 651.65 183.67 660.89 196.31
  C 672.87 212.71 694.82 218.00 712.74 224.98
  C 720.73 228.09 729.08 233.71 729.08 242.97
  C 729.08 252.23 720.73 257.85 712.74 260.96
  C 694.82 267.93 672.87 273.22 660.89 289.62
  C 651.65 302.26 646.30 319.88 640.81 333.03
  C 637.71 340.46 632.59 348.08 624.00 348.08
  C 615.41 348.08 610.28 340.46 607.18 333.03
  C 601.69 319.88 596.34 302.26 587.10 289.62
  C 575.12 273.22 553.17 267.93 535.25 260.96
  C 527.27 257.85 518.92 252.22 518.92 242.97
  C 518.92 233.71 527.27 228.09 535.25 224.98
  C 553.17 218.00 575.12 212.71 587.10 196.31
  C 596.34 183.67 601.69 166.05 607.18 152.90
  C 610.28 145.47 615.41 137.85 624.00 137.85
  Z
  M 549.08 242.97
  Q 549.08 243.37 549.59 243.55
  C 565.92 249.19 581.17 254.98 593.34 265.18
  C 608.28 277.69 616.80 296.75 623.25 315.67
  Q 623.48 316.34 624.00 316.34
  Q 624.52 316.34 624.74 315.67
  C 631.19 296.75 639.71 277.69 654.64 265.17
  C 666.81 254.97 682.06 249.18 698.39 243.53
  Q 698.89 243.36 698.89 242.95
  Q 698.89 242.55 698.39 242.38
  C 682.06 236.74 666.81 230.95 654.64 220.75
  C 639.70 208.24 631.18 189.18 624.73 170.26
  Q 624.50 169.59 623.98 169.59
  Q 623.46 169.59 623.23 170.26
  C 616.79 189.18 608.27 208.24 593.33 220.75
  C 581.17 230.96 565.92 236.75 549.59 242.40
  Q 549.08 242.57 549.08 242.97
  Z"
/>
<path fill="#e8681b" d="
  M 950.87 236.64
  Q 954.20 237.45 957.25 237.43
  Q 1014.53 237.18 1033.50 237.38
  C 1038.05 237.43 1042.13 238.01 1042.16 243.78
  Q 1042.19 249.43 1040.79 255.78
  Q 1034.88 282.60 1015.42 301.73
  Q 994.64 322.16 965.22 326.72
  Q 947.25 329.51 931.32 326.20
  Q 897.28 319.13 877.02 291.21
  Q 859.50 267.07 859.65 236.75
  Q 859.70 226.28 860.31 221.03
  C 864.67 183.18 892.33 152.60 929.45 144.45
  Q 932.18 143.84 942.22 143.32
  A 3.23 3.16 55.1 0 1 943.70 143.60
  Q 948.15 145.61 948.16 151.69
  Q 948.22 173.62 948.27 229.00
  Q 948.27 231.35 949.07 234.81
  A 2.46 2.45 -89.6 0 0 950.87 236.64
  Z"
/>
<path fill="#e8681b" d="
  M 200.91 229.18
  L 187.46 250.96
  Q 181.89 258.66 177.75 265.77
  Q 174.93 270.62 172.97 272.19
  C 167.84 276.33 163.20 272.53 159.60 268.38
  Q 149.80 257.07 147.16 254.16
  C 141.13 247.54 149.88 241.36 156.12 246.69
  Q 159.42 249.49 165.27 255.28
  A 1.19 1.19 0.0 0 0 167.13 255.06
  L 184.29 226.92
  Q 188.85 220.69 192.51 213.11
  Q 195.54 208.78 198.08 204.06
  C 201.03 198.60 207.15 198.93 210.96 202.82
  Q 214.99 206.92 210.99 213.18
  Q 205.74 221.38 200.91 229.18
  Z"
/>
<path fill="#0c0a4d" d="
  M 192.51 213.11
  Q 188.85 220.69 184.29 226.92
  L 137.68 226.92
  A 0.75 0.74 90.0 0 0 136.94 227.67
  L 136.94 279.66
  A 0.54 0.54 0.0 0 0 137.48 280.20
  L 186.66 280.20
  A 1.22 1.22 0.0 0 0 187.88 278.96
  L 187.46 250.96
  L 200.91 229.18
  Q 201.20 255.59 201.03 281.40
  Q 200.98 288.25 199.69 290.32
  C 197.18 294.30 193.89 294.67 188.90 294.67
  Q 164.61 294.67 138.58 294.64
  C 131.42 294.63 127.03 294.51 124.04 288.51
  Q 123.00 286.42 123.06 281.87
  Q 123.18 270.43 123.07 225.84
  Q 123.05 219.96 124.48 217.90
  C 126.94 214.33 129.22 213.19 134.05 213.21
  Q 163.23 213.30 192.51 213.11
  Z"
/>
<rect fill="#0c0a4d" x="232.49" y="229.73" width="177.06" height="13.98" rx="6.78"/>
<rect fill="#0c0a4d" x="232.65" y="265.01" width="130.26" height="14.58" rx="6.73"/>
<path fill="#e8681b" d="
  M 200.99 345.31
  Q 200.90 345.21 200.62 345.39
  A 0.81 0.78 88.6 0 0 200.42 345.61
  Q 195.30 353.86 190.00 362.01
  Q 189.06 363.44 187.72 366.41
  Q 180.69 377.28 174.19 386.69
  C 171.99 389.88 167.88 391.30 164.62 388.84
  Q 163.63 388.09 161.74 386.16
  Q 158.89 383.26 150.91 374.42
  C 148.12 371.33 143.73 365.29 149.09 362.52
  C 155.03 359.46 161.92 367.42 165.57 371.84
  A 0.99 0.99 0.0 0 0 167.17 371.73
  L 184.80 342.96
  L 193.15 329.21
  Q 196.06 324.84 199.19 319.96
  Q 200.42 318.05 202.42 317.31
  C 206.52 315.78 213.60 320.18 212.44 324.96
  Q 211.75 327.75 209.60 331.35
  Q 205.26 338.58 202.13 343.03
  C 201.71 343.62 201.44 344.59 200.99 345.31
  Z"
/>
<path fill="#0c0a4d" d="
  M 834.65 352.07
  Q 833.77 352.83 833.02 353.77
  Q 799.34 395.88 740.01 470.26
  Q 734.80 476.80 730.42 481.44
  A 1.33 1.31 55.3 0 0 730.17 482.88
  C 731.88 486.81 733.08 490.11 731.70 494.41
  Q 728.25 505.19 718.45 506.82
  Q 710.17 508.20 703.82 503.64
  Q 697.76 499.30 697.83 490.19
  A 1.73 1.72 16.0 0 0 697.00 488.70
  C 691.30 485.19 684.22 480.64 677.37 475.63
  Q 666.94 468.01 660.03 463.62
  A 2.91 2.90 -40.2 0 0 657.35 463.40
  Q 650.73 466.21 644.71 464.24
  A 2.97 2.96 32.3 0 0 641.75 464.90
  Q 605.77 498.99 577.97 525.46
  Q 569.13 533.87 560.68 540.71
  A 1.32 1.32 0.0 0 0 560.27 542.21
  Q 563.56 550.95 557.53 558.08
  C 551.60 565.10 543.13 565.68 534.96 561.88
  A 2.07 2.06 39.8 0 0 532.91 562.06
  Q 523.90 568.37 513.24 575.24
  Q 489.69 590.44 465.95 605.91
  C 461.46 608.84 457.51 610.82 453.66 606.42
  C 449.71 601.92 452.49 597.89 456.67 595.15
  Q 486.31 575.66 526.59 549.82
  A 1.52 1.52 0.0 0 0 527.22 548.05
  C 526.45 545.76 526.02 543.80 526.69 541.40
  C 529.45 531.45 539.99 526.98 549.14 531.08
  A 1.31 1.30 -54.2 0 0 550.57 530.84
  L 633.24 452.69
  A 1.22 1.21 -28.0 0 0 633.59 451.56
  Q 631.70 442.66 637.31 436.66
  Q 642.60 431.01 651.81 431.53
  C 660.99 432.05 668.06 440.12 666.85 449.63
  A 2.48 2.46 -69.3 0 0 667.90 451.98
  L 702.73 476.03
  A 1.36 1.36 0.0 0 0 703.78 476.24
  Q 704.76 476.03 706.88 474.94
  Q 712.79 471.91 718.70 473.84
  A 1.68 1.68 0.0 0 0 720.71 473.01
  Q 721.95 470.62 723.12 469.13
  Q 786.41 388.67 821.98 344.23
  Q 822.67 343.37 822.85 342.73
  A 1.46 1.45 18.6 0 0 821.97 340.97
  C 819.14 339.88 816.66 339.36 815.46 337.44
  C 812.03 331.93 819.98 328.27 824.47 326.23
  Q 834.72 321.55 842.90 318.92
  C 848.50 317.12 851.00 320.71 851.08 325.75
  Q 851.30 340.06 850.90 349.99
  C 850.76 353.51 849.63 356.71 845.94 357.83
  C 842.73 358.80 838.06 354.47 835.82 352.12
  A 0.84 0.84 0.0 0 0 834.65 352.07
  Z"
/>
<rect fill="#0c0a4d" x="-10.68" y="-36.09" transform="translate(517.63,349.36) rotate(45.0)" width="21.36" height="72.18" rx="10.45"/>
<rect fill="#0c0a4d" x="-10.71" y="-36.06" transform="translate(730.37,349.36) rotate(-44.9)" width="21.42" height="72.12" rx="10.48"/>
<path fill="#0c0a4d" d="
  M 193.15 329.21
  L 184.80 342.96
  L 137.64 342.91
  A 0.71 0.70 -0.0 0 0 136.93 343.61
  L 136.93 396.50
  A 0.95 0.94 0.0 0 0 137.88 397.44
  L 186.66 397.44
  A 1.30 1.30 0.0 0 0 187.96 396.13
  L 187.72 366.41
  Q 189.06 363.44 190.00 362.01
  Q 195.30 353.86 200.42 345.61
  A 0.81 0.78 88.6 0 1 200.62 345.39
  Q 200.90 345.21 200.99 345.31
  Q 201.12 371.38 201.08 397.50
  C 201.08 401.42 201.30 404.76 199.22 407.42
  Q 196.47 410.93 192.45 410.94
  Q 145.23 411.12 133.45 410.93
  Q 125.20 410.79 123.17 402.39
  A 3.59 3.55 -54.1 0 1 123.07 401.74
  Q 123.04 401.08 123.12 340.02
  Q 123.13 332.19 130.57 329.41
  A 5.12 5.08 34.6 0 1 132.35 329.09
  L 193.15 329.21
  Z"
/>
<rect fill="#0c0a4d" x="232.42" y="346.20" width="177.32" height="14.66" rx="6.96"/>
<rect fill="#0c0a4d" x="876.58" y="364.01" width="264.56" height="14.14" rx="6.73"/>
<path fill="#0c0a4d" d="
  M 889.01 758.44
  Q 889.62 747.82 891.20 738.49
  Q 894.94 716.40 903.07 698.09
  Q 920.92 657.87 954.86 631.61
  Q 991.07 603.60 1036.27 597.26
  Q 1046.83 595.78 1062.09 595.81
  Q 1077.26 595.84 1087.90 597.30
  Q 1144.91 605.17 1185.81 647.21
  C 1214.61 676.81 1232.07 715.30 1234.20 756.78
  Q 1235.13 774.89 1232.61 792.90
  C 1226.54 836.28 1203.99 875.10 1170.08 902.79
  Q 1140.00 927.36 1102.10 935.85
  C 1059.30 945.42 1013.66 940.03 976.05 917.95
  Q 965.86 911.96 953.96 902.67
  Q 943.47 894.48 934.11 884.11
  Q 892.03 837.45 888.89 772.77
  A 0.69 0.69 0.0 0 0 888.20 772.11
  L 826.78 772.11
  A 1.06 1.05 -0.8 0 0 825.72 773.19
  Q 825.82 776.55 825.96 790.22
  C 826.02 796.00 825.33 800.61 818.51 799.99
  Q 813.54 799.54 813.08 794.24
  Q 812.94 792.65 812.94 773.62
  A 1.51 1.51 0.0 0 0 811.43 772.11
  L 771.00 772.11
  A 0.93 0.93 0.0 0 0 770.07 773.06
  Q 770.25 784.40 770.25 792.50
  Q 770.25 800.77 762.29 799.96
  Q 757.40 799.47 757.20 794.09
  Q 756.88 785.64 757.12 773.49
  A 1.35 1.35 0.0 0 0 755.77 772.12
  L 717.81 772.12
  A 1.44 1.44 0.0 0 0 716.37 773.57
  Q 716.43 784.94 716.31 793.74
  C 716.25 798.06 713.46 800.50 709.19 800.06
  C 703.69 799.50 703.19 794.55 703.26 789.61
  Q 703.43 775.66 703.43 773.18
  A 1.09 1.08 89.7 0 0 702.35 772.10
  L 662.84 772.10
  A 0.97 0.97 0.0 0 0 661.87 773.08
  Q 661.99 784.45 661.93 793.71
  C 661.89 800.70 652.38 802.18 649.62 796.68
  Q 648.99 795.42 648.81 790.76
  Q 648.81 790.50 648.83 773.06
  A 0.94 0.94 0.0 0 0 647.89 772.11
  L 609.12 772.11
  A 1.15 1.15 0.0 0 0 607.97 773.29
  Q 608.19 782.13 608.07 792.69
  Q 607.99 800.40 600.71 799.98
  C 596.06 799.72 595.03 795.54 595.05 791.31
  Q 595.11 781.15 595.11 773.25
  A 1.15 1.15 0.0 0 0 593.96 772.10
  L 554.19 772.10
  A 1.15 1.15 0.0 0 0 553.04 773.28
  Q 553.34 785.54 553.17 792.50
  C 553.11 795.12 552.65 798.48 549.90 799.51
  C 546.72 800.69 542.89 800.33 541.01 797.33
  Q 540.09 795.86 539.99 791.00
  Q 539.96 789.28 539.97 773.21
  A 1.09 1.08 -0.0 0 0 538.88 772.13
  L 500.18 772.13
  A 1.04 1.04 0.0 0 0 499.14 773.19
  Q 499.31 781.40 499.31 791.25
  C 499.30 796.90 498.58 800.60 491.79 800.13
  C 486.96 799.79 486.08 796.09 486.05 791.62
  Q 485.97 780.40 486.10 773.22
  A 1.07 1.07 0.0 0 0 485.03 772.13
  L 435.71 772.13
  A 0.93 0.92 -0.6 0 0 434.78 773.07
  Q 435.02 788.23 434.78 793.96
  C 434.61 798.15 431.11 801.89 426.53 800.79
  Q 420.72 799.39 420.85 792.05
  Q 420.96 786.01 420.81 773.51
  A 1.44 1.43 -0.4 0 0 419.37 772.10
  Q 402.89 772.10 401.27 772.11
  Q 393.15 772.18 391.82 771.59
  C 387.11 769.52 386.48 761.74 391.57 759.31
  Q 392.28 758.97 397.46 758.96
  Q 413.23 758.93 419.67 759.03
  A 1.00 1.00 0.0 0 0 420.68 758.03
  L 420.68 705.74
  A 1.05 1.05 0.0 0 0 419.59 704.69
  Q 412.17 705.01 401.45 704.84
  C 392.97 704.70 393.13 691.07 402.25 690.94
  Q 414.39 690.77 419.45 690.91
  A 1.21 1.20 -89.1 0 0 420.69 689.70
  L 420.69 653.41
  A 0.85 0.85 0.0 0 0 419.80 652.56
  Q 411.41 652.93 403.02 652.77
  Q 394.52 652.60 395.25 644.24
  C 395.67 639.51 400.01 638.54 404.51 638.30
  Q 409.37 638.04 419.56 638.06
  A 1.26 1.25 90.0 0 0 420.81 636.80
  L 420.81 601.47
  A 1.18 1.18 0.0 0 0 419.63 600.29
  Q 414.33 600.28 404.25 600.35
  C 399.34 600.39 396.00 599.66 395.20 594.61
  Q 394.43 589.66 398.43 587.21
  Q 399.77 586.39 404.26 586.21
  Q 405.91 586.14 419.91 586.12
  A 0.93 0.93 0.0 0 0 420.84 585.19
  L 420.84 548.04
  A 1.10 1.10 0.0 0 0 419.74 546.94
  Q 406.81 546.94 404.18 546.99
  Q 399.34 547.08 397.67 545.93
  C 394.24 543.58 393.92 536.99 397.57 534.63
  Q 399.11 533.64 403.59 533.56
  Q 415.43 533.35 419.98 533.37
  A 0.86 0.85 0.0 0 0 420.84 532.52
  L 420.84 493.96
  A 0.89 0.88 -0.0 0 0 419.95 493.08
  Q 403.18 493.09 402.76 493.08
  C 399.36 493.00 397.18 492.76 395.84 489.65
  C 394.50 486.53 394.90 481.93 398.36 480.40
  Q 400.40 479.49 404.25 479.47
  Q 413.49 479.43 419.48 479.56
  A 1.29 1.28 0.7 0 0 420.80 478.28
  L 420.80 441.71
  A 0.96 0.96 0.0 0 0 419.82 440.75
  Q 411.47 440.94 401.58 440.86
  C 395.40 440.81 393.95 435.84 395.58 430.73
  C 397.02 426.22 401.31 426.34 405.83 426.22
  Q 411.15 426.07 419.46 426.14
  A 1.39 1.39 0.0 0 0 420.86 424.75
  Q 420.84 408.57 420.70 388.51
  C 420.66 382.73 426.73 380.35 431.29 382.14
  Q 434.91 383.57 434.92 388.21
  Q 434.96 423.04 434.81 758.04
  A 0.91 0.90 0.0 0 0 435.72 758.94
  L 888.47 758.94
  A 0.54 0.53 1.7 0 0 889.01 758.44
  Z
  M 1179.28 661.21
  C 1159.24 639.41 1132.23 622.17 1103.01 614.91
  Q 1088.56 611.32 1077.13 610.45
  Q 1051.71 608.51 1026.82 613.58
  C 997.54 619.55 971.35 634.43 950.23 654.98
  C 917.78 686.57 899.97 731.32 903.67 777.36
  Q 904.48 787.43 905.17 791.56
  Q 909.58 818.03 920.66 839.69
  Q 940.76 879.01 977.87 902.64
  Q 1000.13 916.82 1025.65 922.22
  Q 1052.78 927.96 1078.86 925.31
  Q 1131.70 919.94 1170.01 883.64
  Q 1205.79 849.75 1216.21 802.55
  Q 1228.82 745.49 1202.06 693.98
  Q 1192.51 675.61 1179.28 661.21
  Z"
/>
<rect fill="#0c0a4d" x="232.55" y="381.81" width="142.76" height="14.24" rx="6.70"/>
<rect fill="#0c0a4d" x="876.86" y="400.09" width="264.38" height="14.32" rx="6.65"/>
<rect fill="#e8681b" x="805.05" y="411.21" width="55.88" height="334.68" rx="6.00"/>
<path fill="#e8681b" d="
  M 201.02 461.48
  Q 195.07 470.64 189.40 479.40
  Q 188.21 481.24 187.58 483.02
  Q 180.98 491.96 175.83 500.37
  C 172.40 505.97 168.47 509.96 162.53 504.13
  Q 155.64 497.36 148.39 488.37
  Q 147.43 487.19 146.60 485.21
  C 144.95 481.27 149.15 477.32 152.94 477.84
  Q 155.16 478.15 156.88 479.71
  Q 163.77 485.96 165.57 487.85
  A 0.74 0.73 53.1 0 0 166.47 487.98
  Q 167.31 487.47 168.73 485.24
  Q 176.71 472.68 185.38 459.24
  Q 189.41 453.58 192.66 447.40
  Q 193.01 446.73 192.73 446.19
  C 194.80 445.32 195.63 442.68 196.69 440.98
  C 199.22 436.95 202.04 432.58 207.66 434.60
  Q 211.11 435.84 212.49 439.07
  C 213.97 442.53 210.39 447.44 208.23 450.48
  Q 204.25 456.07 201.02 461.48
  Z"
/>
<rect fill="#0c0a4d" x="877.00" y="436.02" width="264.16" height="13.96" rx="6.55"/>
<path fill="#0c0a4d" d="
  M 192.73 446.19
  Q 193.01 446.73 192.66 447.40
  Q 189.41 453.58 185.38 459.24
  L 138.03 459.19
  A 1.09 1.08 0.0 0 0 136.94 460.27
  L 136.94 511.92
  A 0.72 0.71 -0.0 0 0 137.66 512.63
  L 186.53 512.63
  A 1.30 1.30 0.0 0 0 187.83 511.32
  L 187.58 483.02
  Q 188.21 481.24 189.40 479.40
  Q 195.07 470.64 201.02 461.48
  Q 201.08 489.24 201.17 516.24
  Q 201.19 522.71 196.69 525.41
  Q 194.10 526.97 187.33 526.95
  Q 144.34 526.83 134.42 526.95
  Q 129.51 527.01 127.83 525.77
  C 124.19 523.08 123.04 520.13 123.05 515.33
  Q 123.10 479.03 123.10 458.50
  C 123.10 453.25 123.98 449.06 128.75 446.76
  C 130.97 445.69 134.87 445.93 137.79 445.93
  Q 156.96 445.92 186.00 445.98
  Q 189.35 445.99 192.73 446.19
  Z"
/>
<rect fill="#0c0a4d" x="232.46" y="462.58" width="125.56" height="14.56" rx="6.93"/>
<rect fill="#0c0a4d" x="-43.23" y="-7.25" transform="translate(275.94,504.67) rotate(0.1)" width="86.46" height="14.50" rx="6.91"/>
<rect fill="#e8681b" x="622.09" y="509.81" width="55.26" height="236.20" rx="6.03"/>
<rect fill="#e8681b" x="713.39" y="542.79" width="56.20" height="203.18" rx="5.80"/>
<rect fill="#e8681b" x="531.50" y="588.16" width="55.46" height="157.82" rx="5.48"/>
<path fill="#0c0a4d" d="
  M 219.89 636.23
  Q 220.13 636.23 220.33 636.39
  C 243.85 654.65 263.11 668.71 285.18 685.67
  A 0.65 0.65 0.0 0 1 285.09 686.76
  Q 273.54 692.83 270.28 705.44
  A 0.36 0.36 0.0 0 1 269.71 705.63
  L 249.28 689.89
  A 2.68 2.66 -71.3 0 1 248.24 687.77
  L 248.24 679.29
  A 2.63 2.62 18.7 0 0 247.20 677.20
  Q 233.65 667.09 220.16 656.65
  Q 220.05 656.57 219.92 656.57
  Q 219.78 656.57 219.67 656.66
  Q 206.21 667.13 192.69 677.28
  A 2.63 2.62 -18.9 0 0 191.66 679.37
  L 191.68 687.85
  A 2.68 2.66 71.2 0 1 190.65 689.97
  L 170.26 705.77
  A 0.36 0.36 0.0 0 1 169.69 705.58
  Q 166.39 692.98 154.83 686.95
  A 0.65 0.65 0.0 0 1 154.73 685.86
  C 176.76 668.83 195.98 654.72 219.44 636.40
  Q 219.64 636.23 219.89 636.23
  Z"
/>
<rect fill="#e8681b" x="451.10" y="644.07" width="50.58" height="101.90" rx="5.67"/>
<path fill="#0c0a4d" d="
  M 219.91 677.32
  C 220.04 677.32 220.09 677.32 220.18 677.39
  Q 259.36 707.41 296.74 735.75
  C 301.14 739.08 303.89 741.57 308.90 739.65
  A 0.57 0.56 79.4 0 1 309.67 740.18
  L 309.67 765.42
  A 0.45 0.45 0.0 0 1 308.95 765.78
  L 270.19 735.90
  A 0.45 0.45 0.0 0 0 269.47 736.26
  Q 269.35 792.86 269.51 829.55
  Q 269.53 833.23 267.26 834.96
  Q 250.77 847.49 239.16 856.41
  A 0.32 0.32 0.0 0 1 238.65 856.16
  L 238.65 837.43
  A 2.12 2.10 71.6 0 1 239.48 835.75
  L 247.01 829.98
  A 2.77 2.75 -19.0 0 0 248.08 827.80
  L 248.08 720.47
  A 2.43 2.41 18.9 0 0 247.13 718.55
  L 231.64 706.61
  A 0.64 0.64 0.0 0 0 230.61 707.11
  L 230.61 874.68
  A 0.52 0.52 0.0 0 0 231.44 875.09
  L 278.32 839.14
  A 2.27 2.27 0.0 0 0 279.21 837.34
  L 279.21 759.25
  A 0.39 0.38 -71.3 0 1 279.83 758.94
  L 308.56 781.08
  A 0.37 0.36 44.1 0 1 308.57 781.65
  C 304.83 784.80 302.16 787.56 300.76 792.16
  Q 300.16 794.13 300.16 799.38
  Q 300.16 815.38 300.20 848.13
  A 2.33 2.32 -19.3 0 1 299.32 849.95
  Q 261.72 879.48 222.63 908.35
  Q 221.54 909.16 219.97 909.16
  Q 218.41 909.16 217.31 908.35
  Q 178.21 879.50 140.59 849.99
  A 2.33 2.32 19.3 0 1 139.71 848.17
  Q 139.73 815.42 139.72 799.42
  Q 139.72 794.17 139.12 792.20
  C 137.72 787.61 135.05 784.85 131.31 781.70
  A 0.37 0.36 -44.1 0 1 131.31 781.13
  L 160.03 758.97
  A 0.39 0.38 71.3 0 1 160.65 759.28
  L 160.70 837.37
  A 2.27 2.27 0.0 0 0 161.59 839.17
  L 208.49 875.10
  A 0.52 0.52 0.0 0 0 209.32 874.69
  L 209.22 707.12
  A 0.64 0.64 0.0 0 0 208.19 706.62
  L 192.71 718.56
  A 2.43 2.41 -19.0 0 0 191.76 720.49
  L 191.82 827.82
  A 2.77 2.75 18.9 0 0 192.89 829.99
  L 200.42 835.76
  A 2.12 2.10 -71.6 0 1 201.26 837.44
  L 201.27 856.17
  A 0.32 0.32 0.0 0 1 200.76 856.42
  Q 189.14 847.51 172.64 834.99
  Q 170.37 833.26 170.39 829.58
  Q 170.53 792.89 170.38 736.29
  A 0.45 0.45 0.0 0 0 169.66 735.93
  L 130.92 765.83
  A 0.45 0.45 0.0 0 1 130.20 765.47
  L 130.18 740.23
  A 0.57 0.56 -79.4 0 1 130.95 739.70
  C 135.96 741.62 138.71 739.12 143.11 735.79
  Q 180.47 707.43 219.64 677.39
  C 219.73 677.33 219.77 677.32 219.91 677.32
  Z"
/>
</g>
<g>
<path fill="#f9e1bc" d="
  M 974.05 144.78
  A 0.57 0.56 5.9 0 1 974.73 144.23
  C 983.83 146.12 990.29 147.64 998.16 151.52
  Q 1030.72 167.55 1041.28 203.24
  Q 1042.51 207.42 1042.75 213.66
  A 0.51 0.50 88.9 0 1 1042.25 214.19
  L 974.29 214.19
  A 0.24 0.24 0.0 0 1 974.05 213.95
  L 974.05 144.78
  Z"
/>
<path fill="#e8681b" d="
  M 698.89 242.95
  Q 698.89 243.36 698.39 243.53
  C 682.06 249.18 666.81 254.97 654.64 265.17
  C 639.71 277.69 631.19 296.75 624.74 315.67
  Q 624.52 316.34 624.00 316.34
  Q 623.48 316.34 623.25 315.67
  C 616.80 296.75 608.28 277.69 593.34 265.18
  C 581.17 254.98 565.92 249.19 549.59 243.55
  Q 549.08 243.37 549.08 242.97
  Q 549.08 242.57 549.59 242.40
  C 565.92 236.75 581.17 230.96 593.33 220.75
  C 608.27 208.24 616.79 189.18 623.23 170.26
  Q 623.46 169.59 623.98 169.59
  Q 624.50 169.59 624.73 170.26
  C 631.18 189.18 639.70 208.24 654.64 220.75
  C 666.81 230.95 682.06 236.74 698.39 242.38
  Q 698.89 242.55 698.89 242.95
  Z"
/>
<path fill="#f9e1bc" d="
  M 1179.28 661.21
  Q 1192.51 675.61 1202.06 693.98
  Q 1228.82 745.49 1216.21 802.55
  Q 1205.79 849.75 1170.01 883.64
  Q 1131.70 919.94 1078.86 925.31
  Q 1052.78 927.96 1025.65 922.22
  Q 1000.13 916.82 977.87 902.64
  Q 940.76 879.01 920.66 839.69
  Q 909.58 818.03 905.17 791.56
  Q 904.48 787.43 903.67 777.36
  C 899.97 731.32 917.78 686.57 950.23 654.98
  C 971.35 634.43 997.54 619.55 1026.82 613.58
  Q 1051.71 608.51 1077.13 610.45
  Q 1088.56 611.32 1103.01 614.91
  C 1132.23 622.17 1159.24 639.41 1179.28 661.21
  Z
  M 1000.84 736.85
  Q 999.93 737.78 999.87 738.64
  A 0.97 0.95 -70.4 0 0 1000.26 739.49
  Q 1000.92 739.96 1002.16 740.00
  Q 1003.32 742.17 1004.39 744.54
  C 1012.21 761.88 1031.80 772.17 1049.79 775.95
  A 1.65 1.65 0.0 0 1 1051.11 777.57
  L 1051.11 837.29
  A 0.89 0.88 2.7 0 1 1050.14 838.17
  Q 1047.09 837.89 1043.85 836.91
  C 1034.83 834.19 1025.05 829.32 1016.94 823.17
  C 1013.35 820.45 1010.54 820.10 1007.88 824.15
  Q 1002.84 831.80 997.94 839.67
  Q 996.56 841.89 996.26 843.45
  A 2.66 2.65 22.0 0 0 997.41 846.15
  C 1013.13 856.50 1030.67 863.73 1049.66 864.41
  A 1.32 1.31 -89.3 0 1 1050.92 865.71
  Q 1051.12 879.59 1051.07 881.18
  C 1050.95 885.86 1052.08 888.95 1056.68 889.60
  Q 1060.29 890.11 1069.25 889.81
  C 1071.20 889.74 1072.89 888.78 1073.48 886.71
  Q 1074.51 883.09 1074.24 880.31
  C 1073.71 874.84 1074.07 871.96 1074.08 864.33
  A 0.84 0.83 86.5 0 1 1074.81 863.50
  C 1095.79 860.96 1115.65 848.94 1123.78 829.05
  C 1132.69 807.26 1125.43 785.08 1107.32 770.91
  Q 1093.90 760.41 1077.81 755.85
  Q 1076.25 754.01 1074.51 753.99
  L 1074.25 753.78
  A 0.70 0.66 21.3 0 1 1074.00 753.26
  L 1074.00 696.89
  A 0.99 0.98 3.2 0 1 1075.10 695.92
  C 1084.51 696.95 1093.39 701.21 1101.86 706.14
  Q 1103.24 706.94 1105.37 707.15
  A 2.26 2.25 18.7 0 0 1107.51 706.10
  L 1117.83 689.56
  A 2.77 2.76 -52.5 0 0 1117.37 686.08
  Q 1114.69 683.56 1111.33 681.70
  Q 1094.03 672.15 1074.60 669.92
  A 0.71 0.70 3.6 0 1 1073.97 669.21
  Q 1074.03 662.53 1074.08 651.21
  Q 1074.10 646.28 1069.59 645.91
  Q 1065.09 645.54 1059.49 645.65
  C 1053.36 645.76 1051.15 646.31 1051.04 653.42
  Q 1050.89 662.33 1051.03 668.67
  A 1.26 1.25 85.7 0 1 1049.93 669.95
  C 1032.50 672.15 1016.35 681.78 1007.10 696.66
  Q 996.55 713.65 1001.14 736.00
  Q 1001.26 736.59 1000.84 736.85
  Z"
/>
</g>
<path fill="#0c0a4d" d="
  M 1074.51 753.99
  L 1074.30 754.24
  A 0.70 0.69 40.1 0 0 1074.39 755.22
  Q 1076.64 757.07 1077.81 755.85
  Q 1093.90 760.41 1107.32 770.91
  C 1125.43 785.08 1132.69 807.26 1123.78 829.05
  C 1115.65 848.94 1095.79 860.96 1074.81 863.50
  A 0.84 0.83 86.5 0 0 1074.08 864.33
  C 1074.07 871.96 1073.71 874.84 1074.24 880.31
  Q 1074.51 883.09 1073.48 886.71
  C 1072.89 888.78 1071.20 889.74 1069.25 889.81
  Q 1060.29 890.11 1056.68 889.60
  C 1052.08 888.95 1050.95 885.86 1051.07 881.18
  Q 1051.12 879.59 1050.92 865.71
  A 1.32 1.31 -89.3 0 0 1049.66 864.41
  C 1030.67 863.73 1013.13 856.50 997.41 846.15
  A 2.66 2.65 22.0 0 1 996.26 843.45
  Q 996.56 841.89 997.94 839.67
  Q 1002.84 831.80 1007.88 824.15
  C 1010.54 820.10 1013.35 820.45 1016.94 823.17
  C 1025.05 829.32 1034.83 834.19 1043.85 836.91
  Q 1047.09 837.89 1050.14 838.17
  A 0.89 0.88 2.7 0 0 1051.11 837.29
  L 1051.11 777.57
  A 1.65 1.65 0.0 0 0 1049.79 775.95
  C 1031.80 772.17 1012.21 761.88 1004.39 744.54
  Q 1003.32 742.17 1002.16 740.00
  Q 1002.83 737.96 1000.84 736.85
  Q 1001.26 736.59 1001.14 736.00
  Q 996.55 713.65 1007.10 696.66
  C 1016.35 681.78 1032.50 672.15 1049.93 669.95
  A 1.26 1.25 85.7 0 0 1051.03 668.67
  Q 1050.89 662.33 1051.04 653.42
  C 1051.15 646.31 1053.36 645.76 1059.49 645.65
  Q 1065.09 645.54 1069.59 645.91
  Q 1074.10 646.28 1074.08 651.21
  Q 1074.03 662.53 1073.97 669.21
  A 0.71 0.70 3.6 0 0 1074.60 669.92
  Q 1094.03 672.15 1111.33 681.70
  Q 1114.69 683.56 1117.37 686.08
  A 2.77 2.76 -52.5 0 1 1117.83 689.56
  L 1107.51 706.10
  A 2.26 2.25 18.7 0 1 1105.37 707.15
  Q 1103.24 706.94 1101.86 706.14
  C 1093.39 701.21 1084.51 696.95 1075.10 695.92
  A 0.99 0.98 3.2 0 0 1074.00 696.89
  L 1074.00 753.26
  A 0.70 0.66 21.3 0 0 1074.25 753.78
  L 1074.51 753.99
  Z
  M 1027.26 720.08
  C 1027.30 732.86 1038.03 741.89 1049.72 744.22
  A 1.11 1.11 0.0 0 0 1051.05 743.13
  Q 1051.00 728.08 1050.97 720.01
  Q 1050.95 711.95 1050.92 696.90
  A 1.11 1.11 0.0 0 0 1049.58 695.81
  C 1037.91 698.21 1027.22 707.30 1027.26 720.08
  Z
  M 1074.10 790.54
  L 1074.02 837.36
  A 0.72 0.71 86.8 0 0 1074.82 838.08
  C 1087.11 836.69 1097.96 827.22 1098.92 814.72
  Q 1099.64 805.30 1093.32 797.55
  Q 1087.59 790.51 1077.76 787.94
  Q 1076.98 786.72 1075.01 786.93
  A 0.99 0.98 10.3 0 0 1074.25 787.45
  Q 1073.51 788.88 1074.10 790.54
  Z"
/>
<g>
<path fill="#f9e1bc" d="
  M 1050.97 720.01
  Q 1051.00 728.08 1051.05 743.13
  A 1.11 1.11 0.0 0 1 1049.72 744.22
  C 1038.03 741.89 1027.30 732.86 1027.26 720.08
  C 1027.22 707.30 1037.91 698.21 1049.58 695.81
  A 1.11 1.11 0.0 0 1 1050.92 696.90
  Q 1050.95 711.95 1050.97 720.01
  Z"
/>
<path fill="#f9e1bc" d="
  M 1077.76 787.94
  Q 1087.59 790.51 1093.32 797.55
  Q 1099.64 805.30 1098.92 814.72
  C 1097.96 827.22 1087.11 836.69 1074.82 838.08
  A 0.72 0.71 86.8 0 1 1074.02 837.36
  L 1074.10 790.54
  Q 1076.37 789.62 1077.76 787.94
  Z"
/>
</g>
</svg>
