<?xml version="1.0" encoding="UTF-8" standalone="no"?>
<!DOCTYPE svg PUBLIC "-//W3C//DTD SVG 1.0//EN" "http://www.w3.org/TR/2001/REC-SVG-20010904/DTD/svg10.dtd">
<svg xmlns="http://www.w3.org/2000/svg" version="1.0" viewBox="0.00 0.00 1024.00 811.00">
<g stroke-width="2.00" fill="none" stroke-linecap="butt">
<path stroke="#877f87" d="
  M 278.99 57.73
  A 1.74 1.74 0.0 0 0 277.25 55.99
  L 130.97 55.99
  A 1.74 1.74 0.0 0 0 129.23 57.73
  L 129.23 215.01
  A 1.74 1.74 0.0 0 0 130.97 216.75
  L 277.25 216.75
  A 1.74 1.74 0.0 0 0 278.99 215.01
  L 278.99 57.73"
/>
<path stroke="#877f87" d="
  M 189.96 135.76
  A 0.33 0.33 0.0 0 1 189.91 136.36
  Q 166.38 145.25 156.73 167.99
  C 152.25 178.55 151.95 188.12 151.49 200.23
  Q 151.31 205.18 155.73 205.21
  Q 205.78 205.54 254.21 205.27
  C 257.92 205.25 260.98 205.89 261.12 201.64
  Q 261.43 192.52 260.53 185.33
  C 257.80 163.66 244.62 142.80 223.23 136.44
  A 0.33 0.32 -55.3 0 1 223.13 135.87
  C 230.76 130.12 236.52 122.76 237.86 113.01
  Q 239.99 97.62 232.09 85.61
  C 221.81 69.98 199.80 68.51 186.36 79.26
  C 177.23 86.55 173.40 97.72 173.98 109.22
  C 174.54 120.45 179.97 130.10 189.96 135.76"
/>
<path stroke="#877f87" d="
  M 206.3173 132.2594
  A 25.40 23.22 89.6 0 0 229.3594 106.6979
  A 25.40 23.22 89.6 0 0 205.9627 81.4606
  A 25.40 23.22 89.6 0 0 182.9206 107.0221
  A 25.40 23.22 89.6 0 0 206.3173 132.2594"
/>
<path stroke="#773f3a" d="
  M 161.39 196.93
  L 251.51 196.93
  A 0.77 0.77 0.0 0 0 252.28 196.16
  L 252.28 194.92
  A 53.19 45.68 90.0 0 0 206.60 141.73
  L 206.30 141.73
  A 53.19 45.68 -90.0 0 0 160.62 194.92
  L 160.62 196.16
  A 0.77 0.77 0.0 0 0 161.39 196.93"
/>
<path stroke="#773f3a" d="
  M 867.97 180.20
  A 1.84 1.84 0.0 0 0 866.13 178.36
  L 803.39 178.36
  A 1.84 1.84 0.0 0 0 801.55 180.20
  L 801.55 417.70
  A 1.84 1.84 0.0 0 0 803.39 419.54
  L 866.13 419.54
  A 1.84 1.84 0.0 0 0 867.97 417.70
  L 867.97 180.20"
/>
<path stroke="#8b707f" d="
  M 757.34 250.57
  A 0.68 0.68 0.0 0 0 756.66 249.89
  L 693.64 249.89
  A 0.68 0.68 0.0 0 0 692.96 250.57
  L 692.96 418.45
  A 0.68 0.68 0.0 0 0 693.64 419.13
  L 756.66 419.13
  A 0.68 0.68 0.0 0 0 757.34 418.45
  L 757.34 250.57"
/>
<path stroke="#773f3a" d="
  M 475.17 299.39
  L 475.17 320.43
  A 1.73 1.73 0.0 0 1 473.64 322.15
  Q 456.11 324.17 441.84 334.56
  A 0.91 0.90 50.1 0 1 440.65 334.45
  L 426.66 319.80
  A 1.30 1.30 0.0 0 0 424.78 319.80
  L 403.34 342.00
  A 1.60 1.60 0.0 0 0 403.18 344.03
  Q 409.62 353.18 417.21 361.08
  A 1.51 1.50 -48.7 0 1 417.33 363.01
  Q 407.51 376.28 404.86 392.15
  A 0.77 0.77 0.0 0 1 404.10 392.79
  L 381.25 392.79
  A 1.39 1.38 90.0 0 0 379.87 394.18
  L 379.87 426.94
  A 1.50 1.50 0.0 0 0 381.37 428.44
  L 401.73 428.44
  A 1.03 1.03 0.0 0 1 402.74 429.28
  Q 406.11 447.31 416.36 462.10
  A 2.20 2.19 -40.3 0 1 416.13 464.86
  L 403.36 478.08
  A 1.39 1.38 45.2 0 0 403.36 479.99
  L 423.94 501.54
  A 1.71 1.71 0.0 0 0 426.40 501.55
  L 439.91 487.56
  A 0.84 0.84 0.0 0 1 441.06 487.51
  C 450.67 495.80 461.89 499.64 474.27 502.15
  A 1.15 1.15 0.0 0 1 475.19 503.28
  L 475.19 521.55
  A 1.66 1.66 0.0 0 0 476.85 523.21
  L 508.15 523.21
  A 1.05 1.05 0.0 0 0 509.20 522.18
  Q 509.38 513.72 509.12 503.96
  Q 509.07 502.10 511.21 501.74
  Q 528.94 498.71 542.87 488.26
  A 0.74 0.74 0.0 0 1 543.87 488.36
  Q 545.88 490.65 555.23 500.48
  Q 557.53 502.91 559.77 500.73
  Q 569.67 491.12 580.79 479.88
  A 2.03 2.02 44.9 0 0 580.78 477.02
  Q 573.59 469.86 567.49 461.74
  A 1.09 1.07 46.3 0 1 567.51 460.41
  C 574.63 451.78 578.37 440.42 580.47 429.59
  A 1.49 1.49 0.0 0 1 581.93 428.38
  L 602.37 428.38
  A 2.50 2.49 6.0 0 0 604.81 426.41
  Q 605.10 425.04 605.14 424.26
  Q 605.43 417.21 605.20 393.83
  A 1.16 1.15 89.7 0 0 604.05 392.68
  L 581.77 392.68
  A 1.21 1.21 0.0 0 1 580.59 391.75
  Q 576.95 376.74 567.98 364.53
  A 1.50 1.50 0.0 0 1 568.11 362.60
  Q 575.72 354.74 580.24 345.50
  Q 581.45 343.04 579.63 341.14
  Q 566.38 327.26 559.19 320.63
  C 557.22 318.82 555.66 317.78 553.53 320.00
  Q 546.04 327.76 541.14 334.03
  A 0.61 0.60 -50.8 0 1 540.27 334.12
  C 532.23 327.23 520.35 323.49 509.98 321.83
  A 1.02 1.02 0.0 0 1 509.12 320.82
  L 509.12 300.12
  A 1.59 1.59 0.0 0 0 507.53 298.53
  L 476.03 298.53
  A 0.86 0.86 0.0 0 0 475.17 299.39"
/>
<path stroke="#8b707f" d="
  M 648.79 309.80
  L 588.50 309.80
  A 0.18 0.18 0.0 0 0 588.32 309.98
  L 588.32 333.27
  A 1.15 1.13 -58.6 0 0 588.44 333.78
  L 591.50 339.86
  A 3.45 3.43 43.6 0 1 591.58 342.81
  Q 586.68 353.94 579.95 362.96
  A 1.60 1.60 0.0 0 0 579.85 364.73
  Q 585.46 374.30 588.30 383.46
  A 0.88 0.86 -10.0 0 0 589.17 384.06
  Q 595.62 383.78 606.37 383.90
  C 611.28 383.96 614.51 385.72 614.54 390.78
  Q 614.65 405.86 614.34 418.01
  A 1.05 1.05 0.0 0 0 615.39 419.09
  L 648.19 419.09
  A 0.95 0.95 0.0 0 0 649.14 418.14
  L 649.14 310.15
  A 0.35 0.35 0.0 0 0 648.79 309.80"
/>
<path stroke="#877f87" d="
  M 279.00 293.60
  A 1.68 1.68 0.0 0 0 277.32 291.92
  L 130.92 291.92
  A 1.68 1.68 0.0 0 0 129.24 293.60
  L 129.24 452.38
  A 1.68 1.68 0.0 0 0 130.92 454.06
  L 277.32 454.06
  A 1.68 1.68 0.0 0 0 279.00 452.38
  L 279.00 293.60"
/>
<path stroke="#877f87" d="
  M 279.00 535.41
  A 1.67 1.67 0.0 0 0 277.33 533.74
  L 130.93 533.74
  A 1.67 1.67 0.0 0 0 129.26 535.41
  L 129.26 693.61
  A 1.67 1.67 0.0 0 0 130.93 695.28
  L 277.33 695.28
  A 1.67 1.67 0.0 0 0 279.00 693.61
  L 279.00 535.41"
/>
<path stroke="#877f87" d="
  M 189.51 372.57
  Q 189.12 372.80 185.66 373.97
  C 177.60 376.69 169.54 383.10 164.77 389.04
  Q 153.80 402.70 152.09 421.51
  Q 151.79 424.83 151.64 433.75
  Q 151.57 438.44 152.20 440.30
  A 3.02 3.01 80.5 0 0 155.05 442.34
  L 258.17 442.33
  A 2.68 2.67 10.0 0 0 260.68 440.58
  Q 261.18 439.29 261.31 436.77
  C 262.32 417.92 257.66 400.19 244.93 386.41
  C 238.69 379.65 231.32 375.27 222.67 372.91
  A 0.58 0.58 0.0 0 1 222.50 371.86
  Q 238.52 361.26 238.29 341.18
  Q 238.12 325.41 227.05 315.36
  C 221.41 310.24 215.22 308.17 207.77 307.84
  C 199.01 307.47 191.49 310.05 185.15 316.09
  C 170.11 330.42 170.05 354.36 185.52 368.94
  C 186.60 369.96 188.39 370.87 189.55 371.70
  A 0.52 0.52 0.0 0 1 189.51 372.57"
/>
<path stroke="#773f3a" d="
  M 543.0279 420.2400
  A 52.23 50.77 9.8 0 0 500.2015 361.3208
  A 52.23 50.77 9.8 0 0 440.0921 402.4600
  A 52.23 50.77 9.8 0 0 482.9185 461.3792
  A 52.23 50.77 9.8 0 0 543.0279 420.2400"
/>
<path stroke="#877f87" d="
  M 205.1846 367.8511
  A 25.67 23.11 92.2 0 0 229.2630 343.0871
  A 25.67 23.11 92.2 0 0 207.1554 316.5489
  A 25.67 23.11 92.2 0 0 183.0770 341.3129
  A 25.67 23.11 92.2 0 0 205.1846 367.8511"
/>
<path stroke="#877f87" d="
  M 160.91 433.51
  L 251.35 433.67
  A 0.35 0.35 0.0 0 0 251.70 433.32
  L 251.71 428.90
  A 50.83 45.39 -89.9 0 0 206.41 377.99
  L 206.05 377.99
  A 50.83 45.39 -89.9 0 0 160.57 428.74
  L 160.56 433.16
  A 0.35 0.35 0.0 0 0 160.91 433.51"
/>
<path stroke="#877f87" d="
  M 783.21 508.92
  Q 782.95 515.26 781.69 521.69
  Q 780.67 526.88 776.84 529.33
  Q 774.57 530.77 767.86 530.74
  Q 734.00 530.60 689.09 530.71
  C 682.03 530.72 677.09 529.93 676.15 522.40
  Q 675.51 517.17 676.86 511.46
  A 0.62 0.61 -83.7 0 0 676.26 510.70
  Q 661.76 510.75 623.74 510.73
  Q 621.57 510.72 621.23 513.25
  Q 612.44 579.69 587.36 764.02
  C 586.91 767.29 587.09 768.69 590.76 768.70
  Q 695.51 768.91 802.76 768.72
  A 2.26 2.26 0.0 0 0 804.93 767.10
  C 805.79 764.22 805.91 761.16 806.31 758.25
  Q 824.35 628.69 828.93 594.49
  Q 830.02 586.36 830.24 584.81
  Q 835.03 550.91 840.01 512.99
  Q 840.27 511.02 839.95 509.76
  A 1.54 1.53 83.0 0 0 838.46 508.59
  L 783.56 508.59
  A 0.35 0.34 0.8 0 0 783.21 508.92"
/>
<path stroke="#877f87" d="
  M 655.98 610.18
  A 0.44 0.42 -21.3 0 1 655.61 610.03
  L 643.00 594.41
  A 4.34 4.34 0.0 0 0 636.89 593.76
  L 636.72 593.90
  A 4.51 4.51 0.0 0 0 636.07 600.28
  Q 641.93 607.57 649.41 616.65
  C 651.52 619.21 653.08 621.44 656.19 621.24
  Q 657.71 621.15 661.27 617.49
  Q 676.39 601.97 695.10 583.35
  C 698.22 580.24 702.61 575.70 697.33 572.07
  C 695.22 570.61 692.05 573.48 690.39 575.16
  Q 675.91 589.85 656.49 610.00
  Q 656.34 610.16 655.98 610.18"
/>
<path stroke="#877f87" d="
  M 798.96 589.68
  A 4.50 4.50 0.0 0 0 794.46 585.18
  L 722.94 585.18
  A 4.50 4.50 0.0 0 0 718.44 589.68
  L 718.44 589.80
  A 4.50 4.50 0.0 0 0 722.94 594.30
  L 794.46 594.30
  A 4.50 4.50 0.0 0 0 798.96 589.80
  L 798.96 589.68"
/>
<path stroke="#877f87" d="
  M 645.16 688.33
  A 0.77 0.76 47.3 0 1 644.01 688.28
  L 632.22 673.54
  A 4.72 4.72 0.0 0 0 625.88 672.59
  L 625.82 672.64
  A 4.22 4.21 -36.8 0 0 624.94 678.67
  Q 633.38 689.46 639.42 696.83
  Q 640.74 698.45 642.64 699.50
  A 2.15 2.14 60.4 0 0 643.58 699.76
  Q 645.72 699.83 647.41 698.15
  Q 668.79 676.89 685.42 659.54
  A 4.84 4.83 -42.6 0 0 685.69 653.17
  L 685.46 652.89
  A 3.89 3.89 0.0 0 0 679.64 652.63
  L 645.16 688.33"
/>
<path stroke="#877f87" d="
  M 791.86 670.81
  A 4.05 4.05 0.0 0 0 787.81 666.76
  L 711.73 666.76
  A 4.05 4.05 0.0 0 0 707.68 670.81
  L 707.68 671.29
  A 4.05 4.05 0.0 0 0 711.73 675.34
  L 787.81 675.34
  A 4.05 4.05 0.0 0 0 791.86 671.29
  L 791.86 670.81"
/>
<path stroke="#877f87" d="
  M 189.48 614.78
  A 0.38 0.38 0.0 0 1 189.37 615.45
  C 178.74 618.84 168.65 626.19 162.25 635.86
  C 155.46 646.11 152.29 657.02 151.86 669.18
  C 151.66 674.86 150.92 678.90 152.18 682.62
  A 2.59 2.59 0.0 0 0 154.49 684.38
  Q 158.77 684.62 165.25 684.64
  Q 209.46 684.74 256.76 684.57
  Q 261.29 684.55 261.36 680.02
  Q 261.52 670.28 260.96 663.77
  C 259.23 643.52 246.97 624.92 228.22 616.76
  Q 226.00 615.79 223.40 615.34
  A 0.39 0.39 0.0 0 1 223.24 614.64
  Q 239.49 603.19 238.17 582.45
  C 237.44 570.99 230.90 559.93 220.22 555.05
  C 213.40 551.94 204.27 551.05 196.89 553.47
  Q 182.10 558.32 176.51 572.54
  Q 170.46 587.91 178.31 603.41
  C 180.94 608.59 185.23 611.66 189.48 614.78"
/>
<path stroke="#877f87" d="
  M 204.8088 611.3432
  A 25.17 23.16 93.1 0 0 229.2961 587.4625
  A 25.17 23.16 93.1 0 0 207.5312 561.0768
  A 25.17 23.16 93.1 0 0 183.0439 584.9575
  A 25.17 23.16 93.1 0 0 204.8088 611.3432"
/>
<path stroke="#773f3a" d="
  M 161.73 675.68
  L 251.51 675.84
  A 1.00 1.00 0.0 0 0 252.51 674.84
  L 252.52 671.58
  A 50.72 45.72 -89.9 0 0 206.89 620.78
  L 206.55 620.78
  A 50.72 45.72 -89.9 0 0 160.74 671.42
  L 160.73 674.68
  A 1.00 1.00 0.0 0 0 161.73 675.68"
/>
</g>
<g>
<path fill="#16174f" d="
  M 290.09 143.96
  A 1.13 1.13 0.0 0 0 288.93 145.08
  Q 288.89 149.59 288.89 216.18
  Q 288.90 222.60 283.01 225.53
  Q 281.38 226.33 275.50 226.34
  Q 216.67 226.42 133.75 226.36
  C 130.32 226.36 126.55 226.23 124.15 223.95
  Q 120.87 220.83 120.87 217.25
  Q 120.94 151.92 120.88 60.00
  C 120.88 54.35 120.94 49.55 126.79 47.34
  C 130.03 46.12 135.24 46.31 139.28 46.30
  Q 207.47 46.10 277.29 46.31
  C 286.86 46.34 288.94 50.95 288.93 59.76
  Q 288.87 126.81 288.97 132.39
  A 1.83 1.83 0.0 0 0 290.81 134.18
  Q 323.78 133.99 337.73 134.16
  C 360.65 134.45 378.74 152.94 382.34 174.82
  C 383.28 180.53 383.14 187.80 382.85 193.83
  C 382.50 200.99 373.22 200.49 373.16 193.28
  C 373.12 189.31 373.48 180.77 372.23 175.32
  C 368.56 159.22 355.87 146.06 338.63 144.51
  Q 333.44 144.04 328.88 144.06
  Q 299.91 144.19 290.09 143.96
  Z
  M 278.99 57.73
  A 1.74 1.74 0.0 0 0 277.25 55.99
  L 130.97 55.99
  A 1.74 1.74 0.0 0 0 129.23 57.73
  L 129.23 215.01
  A 1.74 1.74 0.0 0 0 130.97 216.75
  L 277.25 216.75
  A 1.74 1.74 0.0 0 0 278.99 215.01
  L 278.99 57.73
  Z"
/>
<path fill="#16174f" d="
  M 829.85 83.39
  Q 820.96 73.29 815.73 67.77
  Q 812.79 64.69 811.40 61.98
  A 3.04 3.03 -41.1 0 1 811.62 58.83
  C 813.82 55.75 816.71 56.00 820.76 55.97
  Q 832.83 55.88 880.75 56.04
  C 887.56 56.06 887.23 61.96 886.12 67.22
  Q 878.92 101.35 873.80 125.32
  C 872.41 131.82 867.13 131.68 863.27 127.49
  Q 854.38 117.86 845.75 107.94
  A 0.61 0.60 -39.2 0 0 844.93 107.86
  Q 804.10 139.23 759.27 166.29
  C 702.96 200.30 643.39 227.25 582.16 247.68
  Q 578.64 248.85 574.34 246.93
  C 568.22 244.21 568.05 236.89 574.50 234.22
  Q 616.53 216.78 649.52 200.75
  C 671.69 189.97 693.39 178.51 715.48 165.01
  Q 765.08 134.71 811.41 99.33
  C 817.18 94.93 823.71 89.07 829.67 84.90
  A 1.02 1.01 -38.4 0 0 829.85 83.39
  Z"
/>
<path fill="#16174f" d="
  M 576.72 324.74
  A 0.77 0.77 0.0 0 0 578.06 324.23
  Q 578.12 313.98 578.05 311.34
  C 577.91 305.95 578.58 301.62 583.52 299.84
  Q 584.82 299.36 589.00 299.36
  Q 632.43 299.35 649.75 299.42
  Q 655.90 299.45 658.22 304.19
  Q 659.05 305.88 658.98 314.44
  Q 658.90 324.76 658.99 418.99
  A 1.06 1.06 0.0 0 0 660.05 420.05
  L 682.11 420.05
  A 0.95 0.95 0.0 0 0 683.06 419.10
  Q 683.07 253.03 683.05 252.49
  C 682.87 246.04 683.85 240.26 691.28 240.15
  Q 701.81 239.98 754.52 240.02
  Q 760.45 240.02 762.95 241.59
  Q 766.96 244.10 766.96 250.00
  Q 766.96 407.19 766.97 418.78
  A 1.27 1.27 0.0 0 0 768.24 420.04
  L 791.60 420.04
  A 1.21 1.20 0.0 0 0 792.81 418.84
  Q 792.84 193.97 792.83 176.82
  C 792.83 171.66 796.78 168.65 801.75 168.65
  Q 865.92 168.67 867.78 168.64
  C 877.30 168.51 877.79 174.45 877.78 182.85
  Q 877.62 286.11 877.72 418.68
  A 1.43 1.42 89.8 0 0 879.14 420.10
  L 903.93 420.10
  A 4.66 4.66 0.0 0 1 908.57 425.16
  L 908.54 425.56
  A 4.78 4.78 0.0 0 1 903.78 429.93
  L 614.39 429.93
  A 1.14 1.13 11.2 0 0 613.34 430.63
  C 611.62 434.76 609.48 437.95 604.48 437.97
  Q 598.30 437.99 589.06 437.89
  A 1.18 1.17 6.7 0 0 587.90 438.80
  Q 585.17 450.22 579.41 460.14
  A 2.11 2.11 0.0 0 0 579.73 462.69
  Q 583.73 466.72 586.69 469.91
  C 591.49 475.06 593.97 479.58 588.64 485.15
  Q 586.36 487.53 565.49 507.97
  Q 557.97 515.33 550.22 508.52
  Q 545.07 504.00 542.71 501.21
  A 1.47 1.46 -35.6 0 0 540.82 500.90
  Q 530.68 507.13 519.39 509.63
  A 1.32 1.31 -7.4 0 0 518.36 510.96
  Q 518.48 513.76 518.66 521.46
  Q 518.80 527.48 517.52 529.20
  C 515.03 532.56 512.62 533.12 508.09 533.15
  Q 491.03 533.24 474.25 533.08
  C 466.85 533.00 465.43 528.08 465.55 521.28
  Q 465.63 516.24 465.61 511.11
  A 1.42 1.42 0.0 0 0 464.54 509.75
  Q 452.57 506.78 442.75 500.39
  A 1.60 1.59 -52.1 0 0 440.70 500.65
  Q 436.20 505.52 432.08 509.04
  C 426.73 513.62 421.26 511.55 416.79 507.21
  Q 407.00 497.71 397.48 488.02
  C 392.11 482.55 390.65 477.98 396.02 471.93
  Q 400.04 467.40 404.49 463.09
  A 1.45 1.44 -37.7 0 0 404.72 461.31
  Q 398.29 450.66 395.59 439.13
  A 1.38 1.36 83.3 0 0 394.26 438.07
  Q 379.73 438.02 378.45 438.04
  C 370.79 438.14 370.00 431.66 370.04 425.05
  Q 370.05 422.95 370.03 393.99
  C 370.03 388.55 372.21 383.50 378.53 383.32
  Q 386.08 383.10 395.55 383.31
  A 1.47 1.47 0.0 0 0 396.97 382.32
  Q 400.01 373.61 405.16 364.86
  A 2.07 2.06 41.0 0 0 404.99 362.51
  Q 399.33 355.45 395.53 350.24
  Q 393.18 347.02 392.10 343.90
  C 391.05 340.85 393.78 337.08 395.90 334.90
  Q 409.98 320.48 418.75 311.77
  Q 424.93 305.63 431.44 311.03
  Q 436.46 315.20 441.65 321.33
  A 2.18 2.17 -35.5 0 0 444.43 321.79
  Q 453.63 316.30 464.37 314.34
  A 1.43 1.42 85.3 0 0 465.53 312.96
  Q 465.56 310.76 465.44 300.33
  C 465.36 293.57 466.32 288.23 474.02 288.24
  Q 499.93 288.28 509.47 288.22
  Q 517.58 288.16 518.22 296.79
  Q 518.82 304.81 518.33 312.58
  A 1.53 1.53 0.0 0 0 519.48 314.16
  Q 529.02 316.56 537.61 321.03
  A 2.11 2.11 0.0 0 0 540.13 320.59
  Q 544.78 315.51 549.81 310.80
  C 554.62 306.28 558.31 307.71 562.86 311.42
  Q 570.23 317.44 576.72 324.74
  Z
  M 867.97 180.20
  A 1.84 1.84 0.0 0 0 866.13 178.36
  L 803.39 178.36
  A 1.84 1.84 0.0 0 0 801.55 180.20
  L 801.55 417.70
  A 1.84 1.84 0.0 0 0 803.39 419.54
  L 866.13 419.54
  A 1.84 1.84 0.0 0 0 867.97 417.70
  L 867.97 180.20
  Z
  M 757.34 250.57
  A 0.68 0.68 0.0 0 0 756.66 249.89
  L 693.64 249.89
  A 0.68 0.68 0.0 0 0 692.96 250.57
  L 692.96 418.45
  A 0.68 0.68 0.0 0 0 693.64 419.13
  L 756.66 419.13
  A 0.68 0.68 0.0 0 0 757.34 418.45
  L 757.34 250.57
  Z
  M 475.17 299.39
  L 475.17 320.43
  A 1.73 1.73 0.0 0 1 473.64 322.15
  Q 456.11 324.17 441.84 334.56
  A 0.91 0.90 50.1 0 1 440.65 334.45
  L 426.66 319.80
  A 1.30 1.30 0.0 0 0 424.78 319.80
  L 403.34 342.00
  A 1.60 1.60 0.0 0 0 403.18 344.03
  Q 409.62 353.18 417.21 361.08
  A 1.51 1.50 -48.7 0 1 417.33 363.01
  Q 407.51 376.28 404.86 392.15
  A 0.77 0.77 0.0 0 1 404.10 392.79
  L 381.25 392.79
  A 1.39 1.38 90.0 0 0 379.87 394.18
  L 379.87 426.94
  A 1.50 1.50 0.0 0 0 381.37 428.44
  L 401.73 428.44
  A 1.03 1.03 0.0 0 1 402.74 429.28
  Q 406.11 447.31 416.36 462.10
  A 2.20 2.19 -40.3 0 1 416.13 464.86
  L 403.36 478.08
  A 1.39 1.38 45.2 0 0 403.36 479.99
  L 423.94 501.54
  A 1.71 1.71 0.0 0 0 426.40 501.55
  L 439.91 487.56
  A 0.84 0.84 0.0 0 1 441.06 487.51
  C 450.67 495.80 461.89 499.64 474.27 502.15
  A 1.15 1.15 0.0 0 1 475.19 503.28
  L 475.19 521.55
  A 1.66 1.66 0.0 0 0 476.85 523.21
  L 508.15 523.21
  A 1.05 1.05 0.0 0 0 509.20 522.18
  Q 509.38 513.72 509.12 503.96
  Q 509.07 502.10 511.21 501.74
  Q 528.94 498.71 542.87 488.26
  A 0.74 0.74 0.0 0 1 543.87 488.36
  Q 545.88 490.65 555.23 500.48
  Q 557.53 502.91 559.77 500.73
  Q 569.67 491.12 580.79 479.88
  A 2.03 2.02 44.9 0 0 580.78 477.02
  Q 573.59 469.86 567.49 461.74
  A 1.09 1.07 46.3 0 1 567.51 460.41
  C 574.63 451.78 578.37 440.42 580.47 429.59
  A 1.49 1.49 0.0 0 1 581.93 428.38
  L 602.37 428.38
  A 2.50 2.49 6.0 0 0 604.81 426.41
  Q 605.10 425.04 605.14 424.26
  Q 605.43 417.21 605.20 393.83
  A 1.16 1.15 89.7 0 0 604.05 392.68
  L 581.77 392.68
  A 1.21 1.21 0.0 0 1 580.59 391.75
  Q 576.95 376.74 567.98 364.53
  A 1.50 1.50 0.0 0 1 568.11 362.60
  Q 575.72 354.74 580.24 345.50
  Q 581.45 343.04 579.63 341.14
  Q 566.38 327.26 559.19 320.63
  C 557.22 318.82 555.66 317.78 553.53 320.00
  Q 546.04 327.76 541.14 334.03
  A 0.61 0.60 -50.8 0 1 540.27 334.12
  C 532.23 327.23 520.35 323.49 509.98 321.83
  A 1.02 1.02 0.0 0 1 509.12 320.82
  L 509.12 300.12
  A 1.59 1.59 0.0 0 0 507.53 298.53
  L 476.03 298.53
  A 0.86 0.86 0.0 0 0 475.17 299.39
  Z
  M 648.79 309.80
  L 588.50 309.80
  A 0.18 0.18 0.0 0 0 588.32 309.98
  L 588.32 333.27
  A 1.15 1.13 -58.6 0 0 588.44 333.78
  L 591.50 339.86
  A 3.45 3.43 43.6 0 1 591.58 342.81
  Q 586.68 353.94 579.95 362.96
  A 1.60 1.60 0.0 0 0 579.85 364.73
  Q 585.46 374.30 588.30 383.46
  A 0.88 0.86 -10.0 0 0 589.17 384.06
  Q 595.62 383.78 606.37 383.90
  C 611.28 383.96 614.51 385.72 614.54 390.78
  Q 614.65 405.86 614.34 418.01
  A 1.05 1.05 0.0 0 0 615.39 419.09
  L 648.19 419.09
  A 0.95 0.95 0.0 0 0 649.14 418.14
  L 649.14 310.15
  A 0.35 0.35 0.0 0 0 648.79 309.80
  Z"
/>
<rect fill="#16174f" x="373.14" y="214.63" width="9.84" height="36.58" rx="4.77"/>
<rect fill="#16174f" x="-4.89" y="-17.00" transform="translate(378.07,281.79) rotate(0.2)" width="9.78" height="34.00" rx="4.73"/>
<path fill="#16174f" d="
  M 290.59 374.09
  Q 297.08 374.10 328.25 374.06
  C 332.32 374.05 336.17 376.41 334.76 381.07
  C 334.01 383.53 330.65 383.72 328.50 383.71
  Q 309.44 383.61 290.26 383.74
  A 1.37 1.37 0.0 0 0 288.90 385.11
  Q 288.91 423.16 288.94 450.42
  C 288.95 456.78 288.34 460.09 283.05 462.46
  Q 281.57 463.13 277.35 463.14
  Q 252.09 463.19 212.82 463.18
  A 1.28 1.27 -90.0 0 0 211.55 464.46
  L 211.55 522.40
  A 1.64 1.63 90.0 0 0 213.18 524.04
  Q 227.74 524.04 278.72 524.10
  Q 285.81 524.10 288.34 530.94
  Q 288.98 532.64 288.96 538.01
  Q 288.82 596.20 288.93 610.75
  A 0.83 0.83 0.0 0 0 289.78 611.58
  Q 303.20 611.19 336.57 611.27
  Q 347.65 611.30 355.66 606.44
  C 367.40 599.32 373.54 587.70 373.23 573.99
  Q 373.11 568.65 373.13 562.98
  A 4.82 4.82 0.0 0 1 377.95 558.17
  L 378.38 558.17
  A 4.59 4.58 -0.6 0 1 382.97 562.66
  Q 383.26 576.31 382.82 582.28
  C 381.06 606.03 359.47 621.36 336.75 621.56
  Q 314.49 621.75 290.05 621.38
  A 1.10 1.10 0.0 0 0 288.93 622.48
  Q 288.89 651.88 288.96 691.00
  Q 288.97 698.50 287.79 700.42
  C 285.24 704.55 281.53 704.93 276.43 704.92
  Q 191.05 704.87 131.50 704.88
  Q 123.82 704.88 121.68 699.25
  Q 120.86 697.09 120.87 687.16
  Q 120.98 602.06 120.90 542.00
  C 120.89 533.95 119.74 524.01 131.24 524.04
  Q 176.15 524.15 200.77 523.99
  A 1.30 1.30 0.0 0 0 202.06 522.69
  L 202.06 464.86
  A 1.67 1.67 0.0 0 0 200.39 463.19
  Q 151.98 463.19 132.57 463.15
  C 127.22 463.14 123.86 462.46 121.61 457.64
  C 120.72 455.75 120.92 452.49 120.92 450.04
  Q 120.83 337.62 120.97 291.51
  Q 120.99 285.62 125.32 283.50
  Q 127.68 282.34 134.84 282.39
  Q 145.15 282.46 276.56 282.44
  Q 281.73 282.43 283.35 283.14
  C 287.61 284.99 288.92 289.53 288.91 294.03
  Q 288.82 331.16 288.96 372.46
  A 1.63 1.63 0.0 0 0 290.59 374.09
  Z
  M 279.00 293.60
  A 1.68 1.68 0.0 0 0 277.32 291.92
  L 130.92 291.92
  A 1.68 1.68 0.0 0 0 129.24 293.60
  L 129.24 452.38
  A 1.68 1.68 0.0 0 0 130.92 454.06
  L 277.32 454.06
  A 1.68 1.68 0.0 0 0 279.00 452.38
  L 279.00 293.60
  Z
  M 279.00 535.41
  A 1.67 1.67 0.0 0 0 277.33 533.74
  L 130.93 533.74
  A 1.67 1.67 0.0 0 0 129.26 535.41
  L 129.26 693.61
  A 1.67 1.67 0.0 0 0 130.93 695.28
  L 277.33 695.28
  A 1.67 1.67 0.0 0 0 279.00 693.61
  L 279.00 535.41
  Z"
/>
<rect fill="#16174f" x="-7.75" y="-4.78" transform="translate(353.96,378.85) rotate(1.3)" width="15.50" height="9.56" rx="4.47"/>
<path fill="#16174f" d="
  M 784.82 497.86
  A 0.88 0.88 0.0 0 0 785.70 498.87
  Q 813.17 498.63 837.49 498.82
  Q 846.22 498.88 848.57 504.88
  Q 849.86 508.16 848.67 517.54
  Q 846.18 537.32 843.38 557.77
  Q 843.02 560.35 842.69 562.74
  C 838.59 592.18 833.27 632.89 829.08 662.49
  Q 821.51 716.01 814.54 768.51
  Q 813.77 774.31 808.82 776.81
  Q 806.21 778.13 798.45 778.14
  Q 740.44 778.18 591.00 778.16
  C 585.20 778.15 579.44 776.42 578.22 770.32
  Q 577.56 767.04 578.35 761.34
  Q 586.70 701.01 592.87 654.38
  A 1.10 1.10 0.0 0 0 591.78 653.14
  L 576.29 653.14
  A 4.34 4.33 90.0 0 1 571.96 648.80
  L 571.96 648.46
  A 4.45 4.45 0.0 0 1 576.41 644.01
  L 593.18 644.01
  A 1.40 1.39 -86.0 0 0 594.56 642.81
  Q 596.94 625.57 611.76 515.00
  C 612.64 508.38 614.03 501.11 622.50 501.09
  Q 656.96 501.04 677.97 501.09
  A 1.57 1.56 -87.6 0 0 679.54 499.64
  Q 680.04 493.30 681.22 487.23
  Q 682.41 481.12 688.77 481.13
  Q 698.69 481.14 709.76 481.10
  A 1.44 1.44 0.0 0 0 711.17 479.96
  C 714.28 465.65 729.67 457.70 743.24 464.51
  Q 752.31 469.07 755.41 480.36
  A 0.97 0.95 -7.1 0 0 756.33 481.06
  Q 767.89 481.18 776.16 481.05
  C 782.39 480.94 786.92 481.76 786.00 489.07
  Q 785.40 493.76 784.82 497.86
  Z
  M 743.77 478.02
  L 738.89 474.21
  A 8.34 8.33 64.9 0 0 734.04 472.45
  Q 726.02 472.16 722.02 479.73
  A 1.11 1.10 -76.1 0 0 722.99 481.35
  L 742.63 481.35
  A 1.86 1.86 0.0 0 0 743.77 478.02
  Z
  M 783.21 508.92
  Q 782.95 515.26 781.69 521.69
  Q 780.67 526.88 776.84 529.33
  Q 774.57 530.77 767.86 530.74
  Q 734.00 530.60 689.09 530.71
  C 682.03 530.72 677.09 529.93 676.15 522.40
  Q 675.51 517.17 676.86 511.46
  A 0.62 0.61 -83.7 0 0 676.26 510.70
  Q 661.76 510.75 623.74 510.73
  Q 621.57 510.72 621.23 513.25
  Q 612.44 579.69 587.36 764.02
  C 586.91 767.29 587.09 768.69 590.76 768.70
  Q 695.51 768.91 802.76 768.72
  A 2.26 2.26 0.0 0 0 804.93 767.10
  C 805.79 764.22 805.91 761.16 806.31 758.25
  Q 824.35 628.69 828.93 594.49
  Q 830.02 586.36 830.24 584.81
  Q 835.03 550.91 840.01 512.99
  Q 840.27 511.02 839.95 509.76
  A 1.54 1.53 83.0 0 0 838.46 508.59
  L 783.56 508.59
  A 0.35 0.34 0.8 0 0 783.21 508.92
  Z"
/>
<path fill="#16174f" d="
  M 875.78 570.31
  C 872.86 567.79 873.66 562.38 878.03 562.24
  Q 901.06 561.51 910.97 541.84
  C 915.43 532.98 914.65 521.55 915.05 512.87
  A 4.65 4.65 0.0 0 1 920.15 508.46
  L 920.20 508.47
  A 5.18 5.18 0.0 0 1 924.87 513.60
  Q 924.90 521.59 924.94 528.98
  Q 924.96 531.94 926.66 538.13
  C 930.36 551.64 942.33 561.50 956.44 561.96
  C 958.66 562.03 962.53 562.42 963.05 565.02
  C 963.90 569.29 961.04 570.56 957.18 571.02
  C 949.29 571.97 942.90 574.26 936.68 579.55
  C 928.92 586.16 924.90 597.28 924.79 607.25
  Q 924.67 619.12 924.66 619.19
  C 924.10 627.64 914.19 626.24 914.16 618.27
  Q 914.14 609.65 913.78 605.00
  C 912.60 589.78 901.46 573.98 885.50 572.07
  Q 877.34 571.10 876.76 570.88
  A 3.27 3.00 -12.3 0 1 875.78 570.31
  Z
  M 919.74 548.57
  Q 918.77 549.40 917.67 551.17
  Q 911.37 561.25 900.73 565.66
  A 0.92 0.92 0.0 0 0 900.68 567.34
  Q 913.04 573.37 918.58 586.18
  A 0.70 0.70 0.0 0 0 919.88 586.16
  Q 924.86 573.54 936.61 567.48
  A 0.97 0.97 0.0 0 0 936.58 565.74
  Q 925.23 560.39 920.24 548.69
  A 0.32 0.32 0.0 0 0 919.74 548.57
  Z"
/>
<rect fill="#16174f" x="-4.97" y="-12.94" transform="translate(378.08,531.20) rotate(-0.6)" width="9.94" height="25.88" rx="4.66"/>
<rect fill="#16174f" x="-4.66" y="-9.33" transform="translate(495.78,567.17) rotate(0.2)" width="9.32" height="18.66" rx="4.41"/>
<rect fill="#16174f" x="-4.55" y="-11.61" transform="translate(495.66,599.36) rotate(-0.1)" width="9.10" height="23.22" rx="4.36"/>
<rect fill="#16174f" x="-4.66" y="-10.63" transform="translate(498.49,630.60) rotate(-19.7)" width="9.32" height="21.26" rx="4.46"/>
<rect fill="#16174f" x="-11.02" y="-4.51" transform="translate(520.11,648.59) rotate(-0.5)" width="22.04" height="9.02" rx="4.31"/>
<rect fill="#16174f" x="-11.47" y="-4.57" transform="translate(551.32,648.58) rotate(-0.3)" width="22.94" height="9.14" rx="4.37"/>
</g>
<g>
<path fill="#f7e6be" d="
  M 278.99 215.01
  A 1.74 1.74 0.0 0 1 277.25 216.75
  L 130.97 216.75
  A 1.74 1.74 0.0 0 1 129.23 215.01
  L 129.23 57.73
  A 1.74 1.74 0.0 0 1 130.97 55.99
  L 277.25 55.99
  A 1.74 1.74 0.0 0 1 278.99 57.73
  L 278.99 215.01
  Z
  M 189.96 135.76
  A 0.33 0.33 0.0 0 1 189.91 136.36
  Q 166.38 145.25 156.73 167.99
  C 152.25 178.55 151.95 188.12 151.49 200.23
  Q 151.31 205.18 155.73 205.21
  Q 205.78 205.54 254.21 205.27
  C 257.92 205.25 260.98 205.89 261.12 201.64
  Q 261.43 192.52 260.53 185.33
  C 257.80 163.66 244.62 142.80 223.23 136.44
  A 0.33 0.32 -55.3 0 1 223.13 135.87
  C 230.76 130.12 236.52 122.76 237.86 113.01
  Q 239.99 97.62 232.09 85.61
  C 221.81 69.98 199.80 68.51 186.36 79.26
  C 177.23 86.55 173.40 97.72 173.98 109.22
  C 174.54 120.45 179.97 130.10 189.96 135.76
  Z"
/>
<rect fill="#d76625" x="801.55" y="178.36" width="66.42" height="241.18" rx="1.84"/>
<rect fill="#ffc8ae" x="692.96" y="249.89" width="64.38" height="169.24" rx="0.68"/>
<path fill="#f7e6be" d="
  M 279.00 452.38
  A 1.68 1.68 0.0 0 1 277.32 454.06
  L 130.92 454.06
  A 1.68 1.68 0.0 0 1 129.24 452.38
  L 129.24 293.60
  A 1.68 1.68 0.0 0 1 130.92 291.92
  L 277.32 291.92
  A 1.68 1.68 0.0 0 1 279.00 293.60
  L 279.00 452.38
  Z
  M 189.51 372.57
  Q 189.12 372.80 185.66 373.97
  C 177.60 376.69 169.54 383.10 164.77 389.04
  Q 153.80 402.70 152.09 421.51
  Q 151.79 424.83 151.64 433.75
  Q 151.57 438.44 152.20 440.30
  A 3.02 3.01 80.5 0 0 155.05 442.34
  L 258.17 442.33
  A 2.68 2.67 10.0 0 0 260.68 440.58
  Q 261.18 439.29 261.31 436.77
  C 262.32 417.92 257.66 400.19 244.93 386.41
  C 238.69 379.65 231.32 375.27 222.67 372.91
  A 0.58 0.58 0.0 0 1 222.50 371.86
  Q 238.52 361.26 238.29 341.18
  Q 238.12 325.41 227.05 315.36
  C 221.41 310.24 215.22 308.17 207.77 307.84
  C 199.01 307.47 191.49 310.05 185.15 316.09
  C 170.11 330.42 170.05 354.36 185.52 368.94
  C 186.60 369.96 188.39 370.87 189.55 371.70
  A 0.52 0.52 0.0 0 1 189.51 372.57
  Z"
/>
<path fill="#d76625" d="
  M 475.17 299.39
  A 0.86 0.86 0.0 0 1 476.03 298.53
  L 507.53 298.53
  A 1.59 1.59 0.0 0 1 509.12 300.12
  L 509.12 320.82
  A 1.02 1.02 0.0 0 0 509.98 321.83
  C 520.35 323.49 532.23 327.23 540.27 334.12
  A 0.61 0.60 -50.8 0 0 541.14 334.03
  Q 546.04 327.76 553.53 320.00
  C 555.66 317.78 557.22 318.82 559.19 320.63
  Q 566.38 327.26 579.63 341.14
  Q 581.45 343.04 580.24 345.50
  Q 575.72 354.74 568.11 362.60
  A 1.50 1.50 0.0 0 0 567.98 364.53
  Q 576.95 376.74 580.59 391.75
  A 1.21 1.21 0.0 0 0 581.77 392.68
  L 604.05 392.68
  A 1.16 1.15 89.7 0 1 605.20 393.83
  Q 605.43 417.21 605.14 424.26
  Q 605.10 425.04 604.81 426.41
  A 2.50 2.49 6.0 0 1 602.37 428.38
  L 581.93 428.38
  A 1.49 1.49 0.0 0 0 580.47 429.59
  C 578.37 440.42 574.63 451.78 567.51 460.41
  A 1.09 1.07 46.3 0 0 567.49 461.74
  Q 573.59 469.86 580.78 477.02
  A 2.03 2.02 44.9 0 1 580.79 479.88
  Q 569.67 491.12 559.77 500.73
  Q 557.53 502.91 555.23 500.48
  Q 545.88 490.65 543.87 488.36
  A 0.74 0.74 0.0 0 0 542.87 488.26
  Q 528.94 498.71 511.21 501.74
  Q 509.07 502.10 509.12 503.96
  Q 509.38 513.72 509.20 522.18
  A 1.05 1.05 0.0 0 1 508.15 523.21
  L 476.85 523.21
  A 1.66 1.66 0.0 0 1 475.19 521.55
  L 475.19 503.28
  A 1.15 1.15 0.0 0 0 474.27 502.15
  C 461.89 499.64 450.67 495.80 441.06 487.51
  A 0.84 0.84 0.0 0 0 439.91 487.56
  L 426.40 501.55
  A 1.71 1.71 0.0 0 1 423.94 501.54
  L 403.36 479.99
  A 1.39 1.38 45.2 0 1 403.36 478.08
  L 416.13 464.86
  A 2.20 2.19 -40.3 0 0 416.36 462.10
  Q 406.11 447.31 402.74 429.28
  A 1.03 1.03 0.0 0 0 401.73 428.44
  L 381.37 428.44
  A 1.50 1.50 0.0 0 1 379.87 426.94
  L 379.87 394.18
  A 1.39 1.38 -90.0 0 1 381.25 392.79
  L 404.10 392.79
  A 0.77 0.77 0.0 0 0 404.86 392.15
  Q 407.51 376.28 417.33 363.01
  A 1.51 1.50 -48.7 0 0 417.21 361.08
  Q 409.62 353.18 403.18 344.03
  A 1.60 1.60 0.0 0 1 403.34 342.00
  L 424.78 319.80
  A 1.30 1.30 0.0 0 1 426.66 319.80
  L 440.65 334.45
  A 0.91 0.90 50.1 0 0 441.84 334.56
  Q 456.11 324.17 473.64 322.15
  A 1.73 1.73 0.0 0 0 475.17 320.43
  L 475.17 299.39
  Z
  M 543.0279 420.2400
  A 52.23 50.77 9.8 0 0 500.2015 361.3208
  A 52.23 50.77 9.8 0 0 440.0921 402.4600
  A 52.23 50.77 9.8 0 0 482.9185 461.3792
  A 52.23 50.77 9.8 0 0 543.0279 420.2400
  Z"
/>
<path fill="#ffc8ae" d="
  M 648.79 309.80
  A 0.35 0.35 0.0 0 1 649.14 310.15
  L 649.14 418.14
  A 0.95 0.95 0.0 0 1 648.19 419.09
  L 615.39 419.09
  A 1.05 1.05 0.0 0 1 614.34 418.01
  Q 614.65 405.86 614.54 390.78
  C 614.51 385.72 611.28 383.96 606.37 383.90
  Q 595.62 383.78 589.17 384.06
  A 0.88 0.86 -10.0 0 1 588.30 383.46
  Q 585.46 374.30 579.85 364.73
  A 1.60 1.60 0.0 0 1 579.95 362.96
  Q 586.68 353.94 591.58 342.81
  A 3.45 3.43 43.6 0 0 591.50 339.86
  L 588.44 333.78
  A 1.15 1.13 -58.6 0 1 588.32 333.27
  L 588.32 309.98
  A 0.18 0.18 0.0 0 1 588.50 309.80
  L 648.79 309.80
  Z"
/>
<path fill="#f7e6be" d="
  M 783.21 508.92
  A 0.35 0.34 0.8 0 1 783.56 508.59
  L 838.46 508.59
  A 1.54 1.53 83.0 0 1 839.95 509.76
  Q 840.27 511.02 840.01 512.99
  Q 835.03 550.91 830.24 584.81
  Q 830.02 586.36 828.93 594.49
  Q 824.35 628.69 806.31 758.25
  C 805.91 761.16 805.79 764.22 804.93 767.10
  A 2.26 2.26 0.0 0 1 802.76 768.72
  Q 695.51 768.91 590.76 768.70
  C 587.09 768.69 586.91 767.29 587.36 764.02
  Q 612.44 579.69 621.23 513.25
  Q 621.57 510.72 623.74 510.73
  Q 661.76 510.75 676.26 510.70
  A 0.62 0.61 -83.7 0 1 676.86 511.46
  Q 675.51 517.17 676.15 522.40
  C 677.09 529.93 682.03 530.72 689.09 530.71
  Q 734.00 530.60 767.86 530.74
  Q 774.57 530.77 776.84 529.33
  Q 780.67 526.88 781.69 521.69
  Q 782.95 515.26 783.21 508.92
  Z
  M 655.98 610.18
  A 0.44 0.42 -21.3 0 1 655.61 610.03
  L 643.00 594.41
  A 4.34 4.34 0.0 0 0 636.89 593.76
  L 636.72 593.90
  A 4.51 4.51 0.0 0 0 636.07 600.28
  Q 641.93 607.57 649.41 616.65
  C 651.52 619.21 653.08 621.44 656.19 621.24
  Q 657.71 621.15 661.27 617.49
  Q 676.39 601.97 695.10 583.35
  C 698.22 580.24 702.61 575.70 697.33 572.07
  C 695.22 570.61 692.05 573.48 690.39 575.16
  Q 675.91 589.85 656.49 610.00
  Q 656.34 610.16 655.98 610.18
  Z
  M 798.96 589.68
  A 4.50 4.50 0.0 0 0 794.46 585.18
  L 722.94 585.18
  A 4.50 4.50 0.0 0 0 718.44 589.68
  L 718.44 589.80
  A 4.50 4.50 0.0 0 0 722.94 594.30
  L 794.46 594.30
  A 4.50 4.50 0.0 0 0 798.96 589.80
  L 798.96 589.68
  Z
  M 645.16 688.33
  A 0.77 0.76 47.3 0 1 644.01 688.28
  L 632.22 673.54
  A 4.72 4.72 0.0 0 0 625.88 672.59
  L 625.82 672.64
  A 4.22 4.21 -36.8 0 0 624.94 678.67
  Q 633.38 689.46 639.42 696.83
  Q 640.74 698.45 642.64 699.50
  A 2.15 2.14 60.4 0 0 643.58 699.76
  Q 645.72 699.83 647.41 698.15
  Q 668.79 676.89 685.42 659.54
  A 4.84 4.83 -42.6 0 0 685.69 653.17
  L 685.46 652.89
  A 3.89 3.89 0.0 0 0 679.64 652.63
  L 645.16 688.33
  Z
  M 791.86 670.81
  A 4.05 4.05 0.0 0 0 787.81 666.76
  L 711.73 666.76
  A 4.05 4.05 0.0 0 0 707.68 670.81
  L 707.68 671.29
  A 4.05 4.05 0.0 0 0 711.73 675.34
  L 787.81 675.34
  A 4.05 4.05 0.0 0 0 791.86 671.29
  L 791.86 670.81
  Z"
/>
<path fill="#f7e6be" d="
  M 279.00 693.61
  A 1.67 1.67 0.0 0 1 277.33 695.28
  L 130.93 695.28
  A 1.67 1.67 0.0 0 1 129.26 693.61
  L 129.26 535.41
  A 1.67 1.67 0.0 0 1 130.93 533.74
  L 277.33 533.74
  A 1.67 1.67 0.0 0 1 279.00 535.41
  L 279.00 693.61
  Z
  M 189.48 614.78
  A 0.38 0.38 0.0 0 1 189.37 615.45
  C 178.74 618.84 168.65 626.19 162.25 635.86
  C 155.46 646.11 152.29 657.02 151.86 669.18
  C 151.66 674.86 150.92 678.90 152.18 682.62
  A 2.59 2.59 0.0 0 0 154.49 684.38
  Q 158.77 684.62 165.25 684.64
  Q 209.46 684.74 256.76 684.57
  Q 261.29 684.55 261.36 680.02
  Q 261.52 670.28 260.96 663.77
  C 259.23 643.52 246.97 624.92 228.22 616.76
  Q 226.00 615.79 223.40 615.34
  A 0.39 0.39 0.0 0 1 223.24 614.64
  Q 239.49 603.19 238.17 582.45
  C 237.44 570.99 230.90 559.93 220.22 555.05
  C 213.40 551.94 204.27 551.05 196.89 553.47
  Q 182.10 558.32 176.51 572.54
  Q 170.46 587.91 178.31 603.41
  C 180.94 608.59 185.23 611.66 189.48 614.78
  Z"
/>
</g>
<g>
<path fill="#16174f" d="
  M 189.96 135.76
  C 179.97 130.10 174.54 120.45 173.98 109.22
  C 173.40 97.72 177.23 86.55 186.36 79.26
  C 199.80 68.51 221.81 69.98 232.09 85.61
  Q 239.99 97.62 237.86 113.01
  C 236.52 122.76 230.76 130.12 223.13 135.87
  A 0.33 0.32 -55.3 0 0 223.23 136.44
  C 244.62 142.80 257.80 163.66 260.53 185.33
  Q 261.43 192.52 261.12 201.64
  C 260.98 205.89 257.92 205.25 254.21 205.27
  Q 205.78 205.54 155.73 205.21
  Q 151.31 205.18 151.49 200.23
  C 151.95 188.12 152.25 178.55 156.73 167.99
  Q 166.38 145.25 189.91 136.36
  A 0.33 0.33 0.0 0 0 189.96 135.76
  Z
  M 206.3173 132.2594
  A 25.40 23.22 89.6 0 0 229.3594 106.6979
  A 25.40 23.22 89.6 0 0 205.9627 81.4606
  A 25.40 23.22 89.6 0 0 182.9206 107.0221
  A 25.40 23.22 89.6 0 0 206.3173 132.2594
  Z
  M 161.39 196.93
  L 251.51 196.93
  A 0.77 0.77 0.0 0 0 252.28 196.16
  L 252.28 194.92
  A 53.19 45.68 90.0 0 0 206.60 141.73
  L 206.30 141.73
  A 53.19 45.68 -90.0 0 0 160.62 194.92
  L 160.62 196.16
  A 0.77 0.77 0.0 0 0 161.39 196.93
  Z"
/>
<path fill="#16174f" d="
  M 189.55 371.70
  C 188.39 370.87 186.60 369.96 185.52 368.94
  C 170.05 354.36 170.11 330.42 185.15 316.09
  C 191.49 310.05 199.01 307.47 207.77 307.84
  C 215.22 308.17 221.41 310.24 227.05 315.36
  Q 238.12 325.41 238.29 341.18
  Q 238.52 361.26 222.50 371.86
  A 0.58 0.58 0.0 0 0 222.67 372.91
  C 231.32 375.27 238.69 379.65 244.93 386.41
  C 257.66 400.19 262.32 417.92 261.31 436.77
  Q 261.18 439.29 260.68 440.58
  A 2.68 2.67 10.0 0 1 258.17 442.33
  L 155.05 442.34
  A 3.02 3.01 80.5 0 1 152.20 440.30
  Q 151.57 438.44 151.64 433.75
  Q 151.79 424.83 152.09 421.51
  Q 153.80 402.70 164.77 389.04
  C 169.54 383.10 177.60 376.69 185.66 373.97
  Q 189.12 372.80 189.51 372.57
  A 0.52 0.52 0.0 0 0 189.55 371.70
  Z
  M 205.1846 367.8511
  A 25.67 23.11 92.2 0 0 229.2630 343.0871
  A 25.67 23.11 92.2 0 0 207.1554 316.5489
  A 25.67 23.11 92.2 0 0 183.0770 341.3129
  A 25.67 23.11 92.2 0 0 205.1846 367.8511
  Z
  M 160.91 433.51
  L 251.35 433.67
  A 0.35 0.35 0.0 0 0 251.70 433.32
  L 251.71 428.90
  A 50.83 45.39 -89.9 0 0 206.41 377.99
  L 206.05 377.99
  A 50.83 45.39 -89.9 0 0 160.57 428.74
  L 160.56 433.16
  A 0.35 0.35 0.0 0 0 160.91 433.51
  Z"
/>
<path fill="#16174f" d="
  M 543.0279 420.2400
  A 52.23 50.77 9.8 0 1 482.9185 461.3792
  A 52.23 50.77 9.8 0 1 440.0921 402.4600
  A 52.23 50.77 9.8 0 1 500.2015 361.3208
  A 52.23 50.77 9.8 0 1 543.0279 420.2400
  Z
  M 534.3676 420.2151
  A 43.69 42.62 11.6 0 0 500.1399 369.6805
  A 43.69 42.62 11.6 0 0 448.7724 402.6449
  A 43.69 42.62 11.6 0 0 483.0001 453.1795
  A 43.69 42.62 11.6 0 0 534.3676 420.2151
  Z"
/>
<path fill="#16174f" d="
  M 189.48 614.78
  C 185.23 611.66 180.94 608.59 178.31 603.41
  Q 170.46 587.91 176.51 572.54
  Q 182.10 558.32 196.89 553.47
  C 204.27 551.05 213.40 551.94 220.22 555.05
  C 230.90 559.93 237.44 570.99 238.17 582.45
  Q 239.49 603.19 223.24 614.64
  A 0.39 0.39 0.0 0 0 223.40 615.34
  Q 226.00 615.79 228.22 616.76
  C 246.97 624.92 259.23 643.52 260.96 663.77
  Q 261.52 670.28 261.36 680.02
  Q 261.29 684.55 256.76 684.57
  Q 209.46 684.74 165.25 684.64
  Q 158.77 684.62 154.49 684.38
  A 2.59 2.59 0.0 0 1 152.18 682.62
  C 150.92 678.90 151.66 674.86 151.86 669.18
  C 152.29 657.02 155.46 646.11 162.25 635.86
  C 168.65 626.19 178.74 618.84 189.37 615.45
  A 0.38 0.38 0.0 0 0 189.48 614.78
  Z
  M 204.8088 611.3432
  A 25.17 23.16 93.1 0 0 229.2961 587.4625
  A 25.17 23.16 93.1 0 0 207.5312 561.0768
  A 25.17 23.16 93.1 0 0 183.0439 584.9575
  A 25.17 23.16 93.1 0 0 204.8088 611.3432
  Z
  M 161.73 675.68
  L 251.51 675.84
  A 1.00 1.00 0.0 0 0 252.51 674.84
  L 252.52 671.58
  A 50.72 45.72 -89.9 0 0 206.89 620.78
  L 206.55 620.78
  A 50.72 45.72 -89.9 0 0 160.74 671.42
  L 160.73 674.68
  A 1.00 1.00 0.0 0 0 161.73 675.68
  Z"
/>
<path fill="#16174f" d="
  M 655.98 610.18
  Q 656.34 610.16 656.49 610.00
  Q 675.91 589.85 690.39 575.16
  C 692.05 573.48 695.22 570.61 697.33 572.07
  C 702.61 575.70 698.22 580.24 695.10 583.35
  Q 676.39 601.97 661.27 617.49
  Q 657.71 621.15 656.19 621.24
  C 653.08 621.44 651.52 619.21 649.41 616.65
  Q 641.93 607.57 636.07 600.28
  A 4.51 4.51 0.0 0 1 636.72 593.90
  L 636.89 593.76
  A 4.34 4.34 0.0 0 1 643.00 594.41
  L 655.61 610.03
  A 0.44 0.42 -21.3 0 0 655.98 610.18
  Z"
/>
<rect fill="#16174f" x="718.44" y="585.18" width="80.52" height="9.12" rx="4.50"/>
<path fill="#16174f" d="
  M 645.16 688.33
  L 679.64 652.63
  A 3.89 3.89 0.0 0 1 685.46 652.89
  L 685.69 653.17
  A 4.84 4.83 -42.6 0 1 685.42 659.54
  Q 668.79 676.89 647.41 698.15
  Q 645.72 699.83 643.58 699.76
  A 2.15 2.14 60.4 0 1 642.64 699.50
  Q 640.74 698.45 639.42 696.83
  Q 633.38 689.46 624.94 678.67
  A 4.22 4.21 -36.8 0 1 625.82 672.64
  L 625.88 672.59
  A 4.72 4.72 0.0 0 1 632.22 673.54
  L 644.01 688.28
  A 0.77 0.76 47.3 0 0 645.16 688.33
  Z"
/>
<rect fill="#16174f" x="707.68" y="666.76" width="84.18" height="8.58" rx="4.05"/>
</g>
<g>
<ellipse fill="#f7e6be" cx="0.00" cy="0.00" transform="translate(206.14,106.86) rotate(89.6)" rx="25.40" ry="23.22"/>
<path fill="#d76625" d="
  M 161.39 196.93
  A 0.77 0.77 0.0 0 1 160.62 196.16
  L 160.62 194.92
  A 53.19 45.68 -90.0 0 1 206.30 141.73
  L 206.60 141.73
  A 53.19 45.68 -90.0 0 1 252.28 194.92
  L 252.28 196.16
  A 0.77 0.77 0.0 0 1 251.51 196.93
  L 161.39 196.93
  Z"
/>
<ellipse fill="#f7e6be" cx="0.00" cy="0.00" transform="translate(206.17,342.20) rotate(92.2)" rx="25.67" ry="23.11"/>
<path fill="#f7e6be" d="
  M 160.91 433.51
  A 0.35 0.35 0.0 0 1 160.56 433.16
  L 160.57 428.74
  A 50.83 45.39 -89.9 0 1 206.05 377.99
  L 206.41 377.99
  A 50.83 45.39 -89.9 0 1 251.71 428.90
  L 251.70 433.32
  A 0.35 0.35 0.0 0 1 251.35 433.67
  L 160.91 433.51
  Z"
/>
<ellipse fill="#f7e6be" cx="0.00" cy="0.00" transform="translate(206.17,586.21) rotate(93.1)" rx="25.17" ry="23.16"/>
<path fill="#d76625" d="
  M 161.73 675.68
  A 1.00 1.00 0.0 0 1 160.73 674.68
  L 160.74 671.42
  A 50.72 45.72 -89.9 0 1 206.55 620.78
  L 206.89 620.78
  A 50.72 45.72 -89.9 0 1 252.52 671.58
  L 252.51 674.84
  A 1.00 1.00 0.0 0 1 251.51 675.84
  L 161.73 675.68
  Z"
/>
</g>
<g>
<path fill="#16174f" d="
  M 492.49 377.47
  Q 492.69 377.47 492.73 377.50
  Q 501.03 383.88 509.10 389.84
  A 0.52 0.52 0.0 0 1 509.05 390.71
  Q 506.61 392.10 505.81 394.69
  A 0.60 0.59 -62.2 0 1 504.88 394.98
  L 500.23 391.35
  A 1.00 0.99 18.9 0 1 499.84 390.56
  L 499.84 388.73
  A 1.12 1.10 -72.0 0 0 499.40 387.84
  Q 496.36 385.57 492.76 382.82
  Q 492.66 382.74 492.50 382.74
  Q 492.34 382.74 492.24 382.82
  Q 488.65 385.58 485.62 387.86
  A 1.12 1.10 71.8 0 0 485.18 388.76
  L 485.19 390.59
  A 1.00 0.99 -19.1 0 1 484.80 391.38
  L 480.16 395.02
  A 0.60 0.59 62.0 0 1 479.23 394.74
  Q 478.42 392.15 475.98 390.77
  A 0.52 0.52 0.0 0 1 475.92 389.90
  Q 483.97 383.91 492.25 377.50
  Q 492.29 377.47 492.49 377.47
  Z"
/>
<path fill="#16174f" d="
  M 492.52 388.17
  C 493.15 388.17 503.44 396.33 513.40 403.93
  A 2.24 2.14 66.6 0 0 514.42 404.36
  Q 514.74 404.41 515.07 404.36
  A 0.65 0.64 85.1 0 1 515.82 405.00
  L 515.82 410.49
  A 0.34 0.34 0.0 0 1 515.27 410.76
  L 505.87 403.43
  A 0.30 0.30 0.0 0 0 505.38 403.67
  L 505.38 427.92
  A 0.90 0.87 -20.0 0 1 505.04 428.61
  L 498.02 434.28
  A 0.40 0.40 0.0 0 1 497.36 433.97
  L 497.36 429.99
  A 1.27 1.26 -19.6 0 1 497.83 429.01
  L 499.43 427.72
  A 1.07 1.06 -19.9 0 0 499.82 426.90
  L 499.82 399.18
  A 0.50 0.49 19.3 0 0 499.63 398.79
  L 495.45 395.53
  A 0.09 0.09 0.0 0 0 495.30 395.60
  L 495.30 439.12
  A 0.32 0.32 0.0 0 0 495.82 439.37
  L 507.72 429.76
  A 0.40 0.40 0.0 0 0 507.88 429.44
  L 507.88 409.50
  A 0.22 0.22 0.0 0 1 508.23 409.32
  L 515.35 414.87
  A 0.33 0.32 46.4 0 1 515.34 415.39
  C 513.89 416.45 513.33 417.55 513.36 419.42
  Q 513.36 419.65 513.36 432.39
  A 0.60 0.59 -19.2 0 1 513.13 432.86
  Q 504.48 439.65 493.82 447.56
  Q 493.25 447.98 492.50 447.98
  Q 491.75 447.98 491.19 447.56
  Q 480.53 439.64 471.89 432.85
  A 0.60 0.59 19.2 0 1 471.66 432.38
  Q 471.66 419.64 471.66 419.41
  C 471.70 417.54 471.14 416.44 469.69 415.37
  A 0.33 0.32 -46.3 0 1 469.68 414.85
  L 476.80 409.31
  A 0.22 0.22 0.0 0 1 477.15 409.49
  L 477.14 429.43
  A 0.40 0.40 0.0 0 0 477.30 429.75
  L 489.19 439.37
  A 0.32 0.32 0.0 0 0 489.71 439.12
  L 489.74 395.60
  A 0.09 0.09 0.0 0 0 489.59 395.53
  L 485.41 398.79
  A 0.50 0.49 -19.3 0 0 485.22 399.17
  L 485.20 426.89
  A 1.07 1.06 19.9 0 0 485.59 427.72
  L 487.19 429.01
  A 1.27 1.26 19.7 0 1 487.66 429.99
  L 487.65 433.97
  A 0.40 0.40 0.0 0 1 486.99 434.28
  L 479.98 428.60
  A 0.90 0.87 20.0 0 1 479.64 427.91
  L 479.66 403.66
  A 0.30 0.30 0.0 0 0 479.17 403.42
  L 469.76 410.74
  A 0.34 0.34 0.0 0 1 469.21 410.47
  L 469.21 404.98
  A 0.65 0.64 -85.1 0 1 469.97 404.34
  Q 470.30 404.39 470.62 404.34
  A 2.24 2.14 -66.5 0 0 471.64 403.91
  C 481.60 396.32 491.89 388.17 492.52 388.17
  Z"
/>
</g>
</svg>
