<svg xmlns="http://www.w3.org/2000/svg" fill="none" viewBox="-10.715 -10.715 300 300" id="Maximize-2--Streamline-Flex" height="300" width="300"><desc>Maximize 2 Streamline Icon: https://streamlinehq.com</desc><g id="maximize-2"><path id="Subtract" fill="#d76424" fill-rule="evenodd" d="M144.25846939285714 218.28745199999997C150.8420733857143 218.65755214285713 157.47681487142856 218.87642857142856 164.1573214285714 218.87642857142856c18.713735664285714 0 37.067718071428565 -1.711215714285714 54.945942714285714 -3.7049809999999996 24.066458214285714 -2.682231142857143 43.433042571428565 -22.04861652142857 46.00981507142857 -46.128008342857136 1.902235142857143 -17.775750678571427 3.5079922142857143 -36.025269335714285 3.5079922142857143 -54.63076065714285 0 -18.60549132142857 -1.6057570714285712 -36.85520895714286 -3.5079922142857143 -54.63095963571428 -2.5767724999999997 -24.07919284285714 -21.943356857142856 -43.44609556571428 -46.00981507142857 -46.12878435928571C201.22503949999998 11.660323366428571 182.87105709285714 9.94892857142857 164.1573214285714 9.94892857142857S127.08860846428571 11.660323366428571 109.21197564999999 13.652934576428569C85.14432356428571 16.335623369999997 65.77754022857143 35.70252609285714 63.201364664285705 59.78171893571428 61.29952747857142 77.55746961428571 59.693571428571424 95.80718724999998 59.693571428571424 114.41267857142856c0 6.680506557142857 0.20713669285714287 13.31544702142857 0.5605226357142857 19.898852035714285 10.700470635714284 0.03322942142857143 20.798633135714283 1.011607057142857 29.461364221428568 1.9770510857142856 27.61424614285714 3.0781985 49.702857357142854 25.079856078571424 52.67599517142857 52.86880540714286 0.9242554642857141 8.639052635714284 1.8341844714285713 18.594149542857142 1.8670159357142855 29.1300649Z" clip-rule="evenodd" stroke-width="21.43"></path><path id="Intersect" fill="#4d6a7f" d="M11.619293984999999 244.89088699999996c1.2267625864285714 11.46713507142857 10.449021414999999 20.689791857142858 21.909789172142855 21.967234285714287 8.512701242857142 0.947138 17.25323295 1.7629501428571428 26.16448827142857 1.7629501428571428 8.911255321428571 0 17.651787028571427 -0.8158121428571429 26.16448827142857 -1.7629501428571428 11.460767757142857 -1.2774424285714283 20.683026585714284 -10.500099214285713 21.90972947857143 -21.967234285714287C108.67353963571428 236.42633857142854 109.43821428571428 227.73694435714282 109.43821428571428 218.87642857142856c0 -8.860515785714284 -0.7646746499999999 -17.54991 -1.6704251071428569 -26.014657407142856 -1.2267028928571428 -11.466339157142857 -10.44896172142857 -20.68879696428571 -21.90972947857143 -21.96623939285714C77.34535845714285 169.94680194285712 68.60482674999999 169.1317857142857 59.693571428571424 169.1317857142857c-8.911255321428571 0 -17.651787028571427 0.8150162285714285 -26.16448827142857 1.763746057142857 -11.460767757142857 1.2774424285714283 -20.683026585714284 10.499900235714286 -21.909789172142855 21.96623939285714C10.713662915 201.32651857142855 9.94892857142857 210.01591278571428 9.94892857142857 218.87642857142856c0 8.860515785714284 0.7647343435714286 17.54991 1.6703654135714283 26.014458428571423Z" stroke-width="21.43"></path><path id="Subtract_2" stroke="#060644" stroke-linecap="round" stroke-linejoin="round" d="M59.95483029285714 127.79518137142855C59.7866934 123.35616842142856 59.693571428571424 118.89467089285714 59.693571428571424 114.41267857142856c0 -18.60549132142857 1.6059560499999999 -36.85520895714286 3.5077932357142854 -54.63095963571428C65.77754022857143 35.70252609285714 85.14432356428571 16.335623369999997 109.21197564999999 13.652934576428569 127.08860846428571 11.660323366428571 145.4435857642857 9.94892857142857 164.1573214285714 9.94892857142857c18.713735664285714 0 37.067718071428565 1.711394795 54.945942714285714 3.704006005 24.066458214285714 2.6826887935714283 43.433042571428565 22.04959151642857 46.00981507142857 46.12878435928571 1.902235142857143 17.775750678571427 3.5079922142857143 36.02546831428571 3.5079922142857143 54.63095963571428 0 18.60549132142857 -1.6057570714285712 36.855009978571424 -3.5079922142857143 54.63076065714285 -2.5767724999999997 24.079391821428572 -21.943356857142856 43.445777199999995 -46.00981507142857 46.128008342857136C201.22503949999998 217.16521285714285 182.87105709285714 218.87642857142856 164.1573214285714 218.87642857142856c-4.0752801214285705 0 -8.133647064285714 -0.08158121428571428 -12.173707978571427 -0.22882535714285712" stroke-width="21.43"></path><path id="Intersect_2" stroke="#060644" stroke-linecap="round" stroke-linejoin="round" d="M11.619293984999999 244.89088699999996c1.2267625864285714 11.46713507142857 10.449021414999999 20.689791857142858 21.909789172142855 21.967234285714287 8.512701242857142 0.947138 17.25323295 1.7629501428571428 26.16448827142857 1.7629501428571428 8.911255321428571 0 17.651787028571427 -0.8158121428571429 26.16448827142857 -1.7629501428571428 11.460767757142857 -1.2774424285714283 20.683026585714284 -10.500099214285713 21.90972947857143 -21.967234285714287C108.67353963571428 236.42633857142854 109.43821428571428 227.73694435714282 109.43821428571428 218.87642857142856c0 -8.860515785714284 -0.7646746499999999 -17.54991 -1.6704251071428569 -26.014657407142856 -1.2267028928571428 -11.466339157142857 -10.44896172142857 -20.68879696428571 -21.90972947857143 -21.96623939285714C77.34535845714285 169.94680194285712 68.60482674999999 169.1317857142857 59.693571428571424 169.1317857142857c-8.911255321428571 0 -17.651787028571427 0.8150162285714285 -26.16448827142857 1.763746057142857 -11.460767757142857 1.2774424285714283 -20.683026585714284 10.499900235714286 -21.909789172142855 21.96623939285714C10.713662915 201.32651857142855 9.94892857142857 210.01591278571428 9.94892857142857 218.87642857142856c0 8.860515785714284 0.7647343435714286 17.54991 1.6703654135714283 26.014458428571423Z" stroke-width="21.43"></path><path id="Vector" stroke="#060644" stroke-linecap="round" stroke-linejoin="round" d="M141.15042410714284 135.78536488571427 206.46812485714284 70.46826107142857" stroke-width="21.43"></path><path id="Vector_2" stroke="#060644" stroke-linecap="round" stroke-linejoin="round" d="M151.75996153571427 70.61570419285714c16.45493092142857 -5.4850433 38.39470616428571 -5.4850433 54.84943810714285 -0.00039795714285714283 5.485839214285714 16.4551299 5.485839214285714 38.39490514285714 0 54.84983606428571" stroke-width="21.43"></path></g></svg>