<svg xmlns="http://www.w3.org/2000/svg" fill="none" viewBox="0 0 14 14" id="Navigation-Arrow-East--Streamline-Flex" height="14" width="14"><desc>Navigation Arrow East Streamline Icon: https://streamlinehq.com</desc><g id="navigation-arrow-east--compass-arrow-map-bearing-navigation-maps-heading-gps-right"><path id="Vector" fill="#d76424" d="M12.4612 8.2473c-2.99338 2.8493 -7.22754 4.3276 -10.38194 4.9816 -0.63455 0.1315 -1.211143 -0.3699 -1.05274 -0.9971 0.69975 -2.77085 3.46289 -5.23181 3.46289 -5.23181S1.72628 4.53904 1.02652 1.7682C0.868118 1.14096 1.44471 0.639549 2.07926 0.771121 5.23366 1.42518 9.46783 2.90396 12.4612 5.75339c0.7184 0.68382 0.7184 1.8101 0 2.49391Z" stroke-width="1"></path><path id="Vector_2" stroke="#060644" stroke-linecap="round" stroke-linejoin="round" d="M12.4612 8.2473c-2.99338 2.8493 -7.22754 4.3276 -10.38194 4.9816 -0.63455 0.1315 -1.211142 -0.3699 -1.05274 -0.9971 0.69975 -2.77085 3.46289 -5.23181 3.46289 -5.23181S1.72627 4.53904 1.02652 1.7682C0.868118 1.14096 1.44471 0.639549 2.07926 0.771121 5.23366 1.42518 9.46783 2.90396 12.4612 5.75339c0.7184 0.68382 0.7184 1.8101 0 2.49391Z" stroke-width="1"></path></g></svg>