<svg xmlns="http://www.w3.org/2000/svg" fill="none" viewBox="-10.715 -10.715 300 300" id="Non-Commercial--Streamline-Flex" height="300" width="300"><desc>Non Commercial Streamline Icon: https://streamlinehq.com</desc><g id="non-commercial"><path id="Vector" fill="#d76424" d="M139.285 268.6210714285714c82.77508571428571 0 129.33607142857142 -46.56098571428571 129.33607142857142 -129.33607142857142S222.0600857142857 9.94892857142857 139.285 9.94892857142857 9.94892857142857 56.50991428571428 9.94892857142857 139.285s46.56098571428571 129.33607142857142 129.33607142857142 129.33607142857142Z" stroke-width="21.43"></path><path id="Vector_2" stroke="#060644" stroke-linecap="round" stroke-linejoin="round" d="M139.285 268.6210714285714c82.77508571428571 0 129.33607142857142 -46.56098571428571 129.33607142857142 -129.33607142857142S222.0600857142857 9.94892857142857 139.285 9.94892857142857 9.94892857142857 56.50991428571428 9.94892857142857 139.285s46.56098571428571 129.33607142857142 129.33607142857142 129.33607142857142Z" stroke-width="21.43"></path><path id="Vector_3" stroke="#060644" stroke-linecap="round" stroke-linejoin="round" d="M176.72460902142853 184.67698660714285C144.40690740714285 153.2095204285714 128.2064700785714 132.78516598571426 102.1098335 91.61232100714284" stroke-width="21.43"></path><path id="Vector_2_2" stroke="#060644" stroke-linecap="round" stroke-linejoin="round" d="M187.47343145 139.2830102142857c0 -42.10386571428571 -17.528221335714285 -65.78729017857142 -48.689658471428565 -65.78729017857142 -31.161437135714284 0 -48.689658471428565 23.683424464285714 -48.689658471428565 65.78729017857142 0 42.10386571428571 17.528221335714285 65.78828507142856 48.689658471428565 65.78828507142856 31.161437135714284 0 48.689658471428565 -23.684419357142854 48.689658471428565 -65.78828507142856Z" stroke-width="21.43"></path></g></svg>