<svg xmlns="http://www.w3.org/2000/svg" viewBox="0 0 1536 1024" xmlns:v="https://vecta.io/nano"><style><![CDATA[.B{stroke-width:2}.C{stroke:#703f3a}.D{fill:#d26225}.E{stroke:#284167}.F{fill:#0d1c4f}.G{fill:#f7ce9b}.H{fill:#42657f}]]></style><g fill="none" class="B"><path d="M544.77 76.78l.24 429.96a.58.57 88.6 0 0 .6.58l9.29-.41m43.01-72.72q.48-.53.52-1.01.49-5.44-.14-10.11m18.42-6.47l10.41.01m57.42.33c2.85 5.16 2.51 10.12 2.1 16.31q-.06.92.65 1.06m21.09-.03q.55-.8.57-1.28.15-4.7-.13-14.87-.03-1.01-.55-1.14m88.65-.06q-.58.55-.57 1.08.1 7.49-.07 14.98-.02.73.68 1.01m23.44.04q.54-.56.53-1.06-.11-7.48.07-14.95.01-.45-.58-1m.12-71.77q.51-.48.5-1.01-.04-5.25-.05-10.5 0-.47-.26-.79m89.84 0q-.61.45-.64 2.05-.11 6.16.15 9.21.06.63.42.87m.06 71.81q-.52.53-.51 1.11.01 7.37.04 14.72.01 1.12.59 1.27m24.07.03q.65-.11.65-1.02-.01-7.39-.05-14.77 0-1.07-.56-1.32m-.08-71.84q.55-.02.62-.58.51-4.58-.01-10.85a1.01.95 29.2 0 0-.12-.38q-.26-.41-.54-.33m-136.9-71.06q-6.58 5.25-11.32 11.78m-54.99 58.72q-1.1.27-2.08 1.24-5.55 5.41-10.37 11.44m-91.69 24.59q-4.71 4.69-9.87 10.29-.9.98-.87 1.75m-61.3 21.88q.63-.55.59-2.06m52.36-56.58l24.85-27.01m68 4.51q.85-.07 1.98-1.13 6.12-5.69 10.65-11.84m43.93-49.13q7.3-5.91 13-14.08m16.19-18.32q.48-.1 1.02-.59 6.66-6 12.17-12.92m68.48 42.62q-.22.56.07.91 3.77 4.47 7.6 8.03a1.61 1.6-43.3 0 0 2.12.06q3.97-3.29 4.61-6.45m70.09-77.81q2.02-.87 3.48-2.59 3.76-4.47 7.51-8.97.3-.37.64-1.67m54.36-79.59q12.17-4.21 24.15-8.85 3.18-1.24 6.18-2.82m-2.37 87.15q-4.41 3.38-8.43 3.08-2.79-.21-4.24.07m-8.09 166.64l.16 9.66m-.32 75.24l.09 13.63m8 74.14l8.73.88a.88.86-77.9 0 0 .91-.6q2.58-7.8 3.13-15.84" stroke="#827575"/><path d="M565.53 689.52q-.81.63-.4 1.34a.32.32 0 0 0 .56-.03q.15-.33.17-.84" class="E"/><g class="C"><path d="M1343.91 336.04c14.18-9.36 25.97-21.9 36.2-35.67 15.05-20.24 24.08-45.07 27.43-70.25q1.9-14.25.58-33.76-.4-5.83-1.95-13.82-2.28-11.71-2.8-13.67c-10.07-37.53-37.09-69.17-71.36-87.19-15.84-8.33-32.77-14.32-50.25-16.4q-9.96-1.19-25-.86c-36.63.81-73.19 18.56-97.62 45.98q-10.49 11.76-16.34 20.86c-10.56 16.42-18.18 33.99-21.69 53.28q-7.31 40.15 6.61 76.74c12.88 33.86 38.46 62 70.21 79.8 19.14 10.72 42.16 16.04 64.08 16.41q17.16.29 30.48-1.77c4.65-.72 11.11-2.44 17.2-3.83 11.79-2.69 23.68-8.9 34.22-15.85"/><path d="M1189.3 116.23c-18.4 14.4-31.83 33.03-39.32 55.01-7.35 21.53-8.81 43.31-3.84 65.29q7.37 32.6 29.31 56.23 29.01 31.23 70.33 38.65c10.08 1.8 21.39 2.03 30.98 1.31 22.22-1.66 45.51-10.65 62.95-24.3s31.76-34.1 38.72-55.27c3-9.13 5.49-20.16 6.17-30.38q2.73-41.89-20.62-77.56-17.66-26.98-47.53-41.96c-20.15-10.11-41.64-13.93-64.3-11.97-23.14 1.99-44.45 10.56-62.85 24.95m-179.54 123.84a1.33 1.33 0 0 0-1.33-1.33h-56.76a1.33 1.33 0 0 0-1.33 1.33v266.6a1.33 1.33 0 0 0 1.33 1.33h56.76a1.33 1.33 0 0 0 1.33-1.33v-266.6m-114.97 89.05a1.2 1.2 0 0 0-1.2-1.2h-56.46a1.2 1.2 0 0 0-1.2 1.2v177.64a1.2 1.2 0 0 0 1.2 1.2h56.46a1.2 1.2 0 0 0 1.2-1.2V329.12m-112.82 53.61a1.39 1.39 0 0 0-1.39-1.39h-56.22a1.39 1.39 0 0 0-1.39 1.39v124.02a1.39 1.39 0 0 0 1.39 1.39h56.22a1.39 1.39 0 0 0 1.39-1.39V382.73"/></g><path d="M1169.47 429.84a.42.42 0 0 0 .23.36q3.73 1.9 6.9 2.35c5.09.73 9.08 1.89 18.04 3.78 4.33.91 8.99 2.68 14.14 2.94 2.57.12 4.85 1.19 7.78 1.23 3.97.07 7.82 1.45 11.59 1.91q1.93.24 5.67 1.4 1.56.48 6.9 1.25 4.7.69 12.25 3.04a8.66 8.2-31.6 0 0 1.58.33c18.44 2.2 36.42 6.54 55.19 10.1 2.66.51 5.41 1.44 7.72 1.87q14.34 2.66 16.86 3.25c3.55.83 6.72.84 10.02 1.68q3.04.79 7.49 1.32 7 .84 17.48 2.9a1.73 1.73 0 0 0 1.91-1.01q2.5-5.74 4.03-13.69.71-3.71.2-8.82a2.99 2.98-77.5 0 0-1.44-2.27l-6.07-3.61a2.1 1.83-19.1 0 0-.52-.21q-17.14-4.34-19.04-5.07c-3.42-1.31-8.05-3.22-7.89-7.38q.13-3.65-.06-4.45a1.14 1.12 4.6 0 0-.7-.81q-4.82-1.81-8.75-2.13c-6.06-.49-12.31-1.81-18.03-2.66q-10.31-1.53-16.14-2.85-4.64-1.05-6.01-1.21-4.22-.48-6.07-.89-4.27-.94-38.65-7.82-1.14-.22-7.42-2.24a11.26 10.62-31.4 0 0-2.18-.46c-4.64-.51-6.82-.62-10.91-1.6-3.26-.79-13.77-2.95-16.47-.99-4.83 3.51-9.19 7.43-14.51 6.15q-11.02-2.64-18.26-3.2-1.88-.14-2.46 2.08-2.46 9.49-4.03 19.86-.41 2.66-.37 5.57" class="E"/><path stroke="#86828a" d="M1152.29 412.27q-10.06-2.21-24.97-4.41-14.25-2.11-35.98-5.66-1.3-.21-2.86-.08a1.15 1.15 0 0 0-1.02.83q-12.7 44.87-20.73 77.3-3.75 15.12-20.65 79.16-21.41 81.13-37.62 140.87-1.17 4.29-2.26 8.41-26.27 99.14-43.95 167.7-1.21 4.67 3.4 5.73 11.54 2.66 20.04 4.1 12.32 2.09 16.84 2.99 53.37 10.67 73.26 14.44 7.65 1.46 16.87 3.55c13.79 3.13 30.77 6.21 42.28 8.68l63.52 12.83c12.87 2.7 24.73 4.55 38.53 7.44 16.53 3.46 36.51 7.07 54.37 10.35 13.85 2.55 25.35 4.1 38.64 6.47q1.59.29 3.04-.26a1.32 1.31-86.8 0 0 .7-.63q.78-1.48 1.77-5.09 3.75-13.68 15.61-60.98 5.46-21.79 11.62-46.21l66.28-263.41q10.83-42.62 23.13-92.79c.93-3.8 2-7.53 2.12-11.12a1.84 1.84 0 0 0-.94-1.67c-2.7-1.51-7.18-3.17-10.74-3.88-16.87-3.36-29.67-5.29-48.83-7.96a.91.91 0 0 0-.96.57c-4.1 10.68-8.42 21.53-21.31 23.23q-10.4 1.38-22.81-.98-21.14-4.02-42.56-7.66c-8.29-1.41-19.13-4.07-27.9-5.24-18.36-2.44-36.57-6.52-56.53-9.95q-27.29-4.69-41.68-7.47c-11.84-2.28-24.59-3.3-27.95-15.93q-1.86-7.01-.92-13.07.94-6.05 1.64-9.43a.66.65-77.8 0 0-.49-.77"/><g class="C"><path d="M672.31 432.63a1.06 1.06 0 0 0-1.06-1.06h-57.52a1.06 1.06 0 0 0-1.06 1.06v74.36a1.06 1.06 0 0 0 1.06 1.06h57.52a1.06 1.06 0 0 0 1.06-1.06v-74.36M336.08 142.02a3.58 3.56-36.4 0 1-3.71-.55q-3.5-2.94-6.5-6.84-2.61-3.37-9.55-12.11c-7.24-9.11-15.65-15.81-25.41-20.92q-6.87-3.6-17.41-4.99-13.61-1.81-25.62 2c-21.56 6.85-37.36 22.44-44.2 43.66q-3.41 10.61-3.67 18.5c-.85 25.81 10.37 49.74 27 69.46q8.4 9.98 14.49 15.92 7.98 7.79 20.77 18.46 19.08 15.92 46.74 36.71 9.85 7.4 20.15 14.13c2.53 1.65 4.64 3.17 7.37 1.32 12.72-8.58 25.12-18.26 37.36-27.63q19.64-15.01 44.09-36.67 10.14-8.98 23.71-25.33 7.87-9.47 12.41-18.13 6.47-12.31 9.12-20.01c10.2-29.62.76-64.14-26.98-81.11-15.65-9.57-34.2-12.76-51.52-7.22q-18.77 6.01-30.32 20.71-8.37 10.68-10.52 13.38c-2.3 2.89-4.51 5.85-7.8 7.26m978.55 167.06q8.25-4 12.07-6.63 24.75-17.06 36.66-44.59 9.04-20.89 9.41-42.89.37-22.23-8-43.13-15.91-39.72-56.04-58.72c-9.86-4.68-21.95-8.25-32.49-9.07q-4.89-.38-17.01-.34-10.55.05-16.89 1.24c-26.03 4.89-48.14 18.83-64.35 39.09-17.79 22.25-25.32 49.29-22.27 78.19q.86 8.13 1.37 10.41c6.7 29.7 25.31 56.76 51.52 72.46q15.21 9.1 33.19 13.57 4.36 1.09 9.2 1.38 12.21.72 23.75.02 11.27-.68 19.36-3.03 10.23-2.98 20.52-7.96"/><path d="M1272.83 164.8a.92.91-86.7 0 1 1.02-.91q8 .95 13.5 6.72.71.75 2.65 4.4c2.25 4.25 3.84 5.99 8.92 5.66 8.5-.55 11.51-9.48 8.08-16.16-6.61-12.9-20.7-15.47-33.5-18.55a.86.85-82.3 0 1-.66-.87c.21-5.74.98-15.5-7.58-15.98q-5.69-.31-7.62 5.26a3.38 3.26 56.5 0 0-.2 1.08l-.23 9.28a1.32 1.32 0 0 1-1.17 1.28q-15.14 1.73-26.65 12.15-9.92 8.98-10.72 23c-.46 8.11 1.72 13.81 6.06 20.36 5.89 8.89 21.22 15.04 31.64 17.77a1.11 1.11 0 0 1 .82 1.07v37.22a1.66 1.66 0 0 1-1.99 1.63q-10.62-2.14-16.33-11.85c-1.49-2.55-2.88-8.76-5.59-10.72-5.52-3.97-16.29.95-15.92 8.22q.62 11.89 9.09 20.76c7.88 8.24 18.65 11.16 29.04 12.57a1.88 1.87 4.8 0 1 1.62 1.91c-.14 4.82-.77 11.72 3.5 14.53 4.29 2.82 9.81 1.03 11.67-3.88 1.16-3.05.48-8.11.79-11.26a1.6 1.6 0 0 1 1.28-1.41c11.3-2.3 20.89-5.9 28.55-14.9 7.92-9.32 10.31-23.75 5.24-35.96-6.52-15.71-19.41-21.24-34.59-25.72a1 .99 8.2 0 1-.72-.95V164.8"/><path d="M1257.36 194.4l-.16-30.24a.15.15 0 0 0-.15-.15h-.12a15.49 15.27-.3 0 0-15.41 15.35 15.49 15.27-.3 0 0 15.57 15.19h.12a.15.15 0 0 0 .15-.15m15.39 33.61l.1 29.7a.26.26 0 0 0 .26.26h.74a15.64 15.08-.2 0 0 15.59-15.14v-.06a15.64 15.08-.2 0 0-15.69-15.02h-.74a.26.26 0 0 0-.26.26"/></g><path d="M96.11 372.24q-.09 60.57.04 74.27.02 2.41 2.42 2.41 32.2.1 39.1-.03 9.93-.19 18.61 1.26 17.45 2.9 33.15 9.43 23.3 9.68 23.68 9.83 15.68 6.41 37.52 12.44 14.95 4.12 29.9 4.98c17.01.97 33.92-3.94 50.75-8.44 15.35-4.11 30.26-9.65 44.4-15.99q29.11-13.08 51.6-33.38 1.13-1.01 15.5-14.49 14.81-13.9 28.43-30.55 6.45-7.89 8.04-11.26 1.88-3.98-.37-8.2c-3.16-5.97-10.18-4.6-16.33-2.99-8.51 2.24-15.31 4.87-22.8 9.98-9.93 6.77-19.39 15.1-28.57 20.7-4.6 2.8-7.15 4.68-11.92 3.97a.72.72 0 0 0-.79.96q3.86 10.48-.97 20.6-4.23 8.85-12.07 12.96c-11.14 5.83-23.12 7.32-37.27 8.16q-7.55.45-18.76.16c-3.85-.1-7.62-1.03-11.75-.95a13.83 13.34-38.9 0 1-2.94-.26c-5.42-1.09-11.79-1.95-16.55-3.1q-17.53-4.23-38.63-12.05-8.08-3-8.95-3.93-3.43-3.66-1.74-9.42c1.6-5.45 5.78-6.14 10.91-4.99q3.92.88 6.31 1.88 22.27 9.28 45.63 12.83c6.43.98 11.58.92 18.39 1.49q3.76.31 13.83-.16 6.26-.3 13.64-.37c7.54-.07 14-1.79 19.78-5.49a5.87 5.81 4.7 0 0 1.12-.94q7.35-8.06 2.14-18.14c-2.49-4.82-4.84-5.85-10.08-7.22-13.91-3.64-27.84-3.16-44.26-3.11-7.22.02-13.92-1.98-22.1-4.52q-4.63-1.44-11.77-5.98-4.25-2.71-14.22-9.74-15.45-10.91-35.01-14.42-15.88-2.84-32.29-2.4-5.93.16-11.72 1.76-9.9 2.72-11.42 3.37-22.59 9.52-46.09 15.45c-14.23 3.59-31.16 3.27-44.87 3a.64.63.4 0 0-.65.63m992.95 176.34q3.19 1.35 7.93 2.45 33.21 7.7 66.25 11.78c4.21.52 5.98.45 7.18-3.65 2.41-8.19 5.64-22.98 9.13-35.32q4.66-16.49 8.56-33.43 1.18-5.15-2.86-7.08-3.59-1.72-9.38-3.18-22.89-5.78-49.21-9.73-1.81-.27-7.33-.82c-8.16-.8-20.58-4.56-16.54 10.02a2.26 2.22 44.5 0 1 .02 1.14l-14.94 63.95q-.38 1.72.47 3.22a1.58 1.53-2.1 0 0 .72.65m131.61-46.12q-4.28 2-4.79 7.03c-.69 6.94 7.14 6.36 11.92 7.16q21.7 3.62 41.95 7.08c7.21 1.23 14.27 1.88 21.22 3.37q10.37 2.24 27.53 4.87c13.48 2.07 31.54 6.14 47.94 9.07q16.07 2.87 20.73 3.85 5.28 1.12 5.33 1.12c7.71 1.22 10.49-8.69 5.46-12.95q-1.77-1.5-7.04-2.37-26.13-4.35-63.97-11.65c-5.99-1.16-12.76-1.98-17.76-2.95q-32.9-6.4-67.19-12.07-7-1.15-14.5-2.05-4.59-.56-6.83.49m170.577 75.532a6.44 6.44 0 0 0-5.014-7.603l-171.112-35.124a6.44 6.44 0 0 0-7.603 5.013l-.285 1.391a6.44 6.44 0 0 0 5.014 7.603l171.112 35.124a6.44 6.44 0 0 0 7.603-5.014l.285-1.391m-80.21 19.188a7.26 7.26 0 0 0-5.712-8.532l-97.625-19.33a7.26 7.26 0 0 0-8.532 5.712l-.066.333a7.26 7.26 0 0 0 5.712 8.532l97.625 19.33a7.26 7.26 0 0 0 8.532-5.712l.066-.333M1137.83 672.09q.42-.57.68-1.57c3.21-12.22 6.25-27 9.31-38.8q2.7-10.4 8.4-35.23c.81-3.55.14-4.88-3.01-5.99q-1.49-.53-3.47-.97-11.99-2.67-28.07-5.38c-1.95-.32-5.41-.29-8.09-.87q-14.42-3.06-30.47-5.11c-3.66-.47-6.63-.1-7.56 3.66q-2.64 10.68-8.69 40.28c-2.17 10.62-5.29 21.1-6.7 31.37q-.53 3.83-.5 4.13.23 1.98 2.89 2.66 25.28 6.47 52.21 11.03 3.37.57 6.89.82c4.52.31 9.94 1.49 14.82.78a2.05 2.05 0 0 0 1.36-.81m99.63 3.13q5.32 4.41 10.66 10.78 7.42 8.87 15.79 19.02c4.6 5.56 8.93 2.42 15.05-.75q50.07-25.96 93.39-49.67 1.78-.97 3.76-3.15a2.95 2.88 71.9 0 0 .72-1.46q1.27-6.82-4.81-10.26-2.11-1.19-3.93-.66-4.6 1.34-9.72 4.32-9.54 5.55-23.58 13.28l-61.19 34.13a1.31 1.3-33.7 0 1-1.64-.32q-11.84-14.48-25.16-29.8c-2.44-2.8-6.77-5.84-10.63-3.76-7.5 4.03-16.16 10.3-22.68 14.36q-45.54 28.36-84.07 54.27a1.11 1.1-40.1 0 1-1.38-.11q-8.55-8.11-15.49-16.3c-2.76-3.26-5.82-5.96-9.32-8.34q-2.89-1.95-6.29.13-45.98 28.11-50.41 30.85c-3.69 2.28-9.78 5.71-9.28 9.07q.63 4.26 3.78 6.76c2.81 2.22 6.52.48 9.17-1.18q30.22-18.9 42.18-26.56 2.46-1.57 4.33-2.21a2.78 2.77-31 0 1 2.94.73q9.92 10.68 18.83 20.63c3.12 3.48 7 5.38 11.45 2.61l31.94-19.7 41.01-25.84q16.22-10.83 33.03-20.98a1.34 1.33-40.7 0 1 1.55.11m-117.72 127.44q-3.31-2.13-4.59-3.32c-7.55-7.02-15.04-14.19-23.15-20.58a3.15 3.06-17.2 0 0-1.1-.56c-3.71-1.04-7.01.28-10.63 1.8-9.93 4.18-37.37 16.73-58.87 25.18-4.72 1.85-5.92 7.01-3.34 10.94 3.05 4.62 8.61 2.82 13 .96 15-6.34 25.57-11.07 37.63-15.37q10.19-3.63 16.77-6.58a2.66 2.65-36.1 0 1 2.88.45q10.47 9.51 21.76 21.12c4.44 4.56 9.9 2.64 14.93-.94 6.92-4.93 14.9-9.54 21.14-13.84q26-17.87 47.9-32.09 5.48-3.55 11.24-7 3.67-2.19 6.36.75 11.74 12.83 21.53 24.21c3.57 4.15 7.83 2.93 11.87.28q12.69-8.31 25.44-16.82 2.03-1.35 5.49-3.07a2.87 2.85-44.3 0 1 2.56.02q6.57 3.39 13.47 6.98 2.54 1.33 4.65 1.58a4.56 4.47-56.4 0 0 2.87-.61q4.77-2.84 10.53-8.09 21.37-19.46 37.41-35.87 4.73-4.84 5.55-6.68 1.69-3.79 1.7-8.48c0-4.3-5.21-7.47-9.27-5.12q-2.5 1.44-4.06 3.01-20.46 20.59-40.76 40.74-2.21 2.2-4.07 3.15a2.39 2.38-39.5 0 1-2.56-.24q-6.62-5.18-12.21-8.98-4.48-3.04-9.38.54-9.53 6.95-25.15 18.41-1.78 1.3-4.25 2.66a1.34 1.32-47.6 0 1-1.12.06q-1.87-.76-2.76-1.67c-8.75-8.97-17.81-18.15-28.18-24.82q-2.4-1.54-4.89-.2-5.46 2.93-7.37 4.15-36.11 23.34-71.04 48.68c-2.77 2.01-4.61 3.81-7.13 5.28a.78.77-43.1 0 1-.8-.02m191.27 63.67c3.95-2.38 4.96-8.9 1.27-12.12q-1.19-1.03-5.31-1.81-7.23-1.36-37.42-7.93-23.34-5.08-59.72-12.23c-8.64-1.7-17.01-4.38-25.77-5.43l-13.03-1.66c-5.18-.83-10.24.26-11.1 6.1q-.45 3.04.86 5.1c1.77 2.79 4.84 2.46 8.49 2.76q1.91.16 3.89.57 94.5 19.29 110.33 22.58 21.2 4.41 22.04 4.59 3.37.74 5.47-.52m-300.78-19.39c1.26 3.48 4.58 5.09 8.36 5.75 14.21 2.51 29.91 6.12 45.98 8.83 7.39 1.25 15.29 3.15 22.74 4.6q56.83 11.02 81.67 16.02 31.23 6.28 58.98 12.06 5.71 1.19 25.95 5.44 24.83 5.21 43.84 9.33 6.03 1.3 9.29-3.3c2.16-3.05 1.08-7.26-1.76-9.52q-1.64-1.3-7.42-2.45l-84.15-16.7q-12.75-2.44-21.84-4.31-18.28-3.76-21.83-4.39c-11.23-2.01-18.03-3.75-29.81-6.23q-3.27-.68-71.91-14.33-18.51-3.68-19.76-3.92c-9-1.76-18.56-3.1-28.04-5.3q-3.51-.82-5.48-.08c-3.42 1.29-6.2 4.69-4.81 8.5" stroke="#86828a"/><path d="M1168.49 517.03a.72.72 0 0 0-1.12-.73q-15.51 10.74-32.72 18.87c-2.92 1.38-5.81 2.17-8.38-.43q-3.18-3.21-5.09-8.11-1.92-4.95.02-8.5c1.99-3.66 6.81-4.89 10.56-2.53a1.84 1.8 8.6 0 1 .77 1.02l1.25 4.23a1.37 1.37 0 0 0 2.09.74q10.4-7.17 26.88-18.62 3.58-2.49 6.06-3.8c2.47-1.29 7.77-3.92 7.55-6.51q-.14-1.64-2.07-2.1-7.84-1.87-10.03-2.27-38.78-7.06-46.35-8.39-2.56-.45-3.3 1.7-.9 2.57-1.13 3.64-2.64 11.87-9.54 43-1.34 6.06-1.11 11.01a1.63 1.63 0 0 0 1.19 1.5q15.23 4.31 31.24 7.23 21.27 3.89 23.04 4.11a1.44 1.42 14.4 0 0 1.48-.86q2.1-4.96 3.74-11.22 2.19-8.36 4.97-22.98" class="C"/><path d="M402.14 854.53q.79-3.38 1.08-6.68.19-2.23-.92-6.77-5.08-20.83-11.14-38.84c-3.52-10.47-5.03-17.35-8.37-30.23q-3.63-13.98-5.97-20.35-3.41-9.28-5.73-17.85l-11.65-41.3q-1.31-5.14-3.69-11.99c-1.85-5.31-2.63-9.71-4.19-14.32q-5.08-15.07-9.21-31.56c-3.63-14.46-9.61-30.39-13.17-45.14q-1.52-6.27-3.01-8.66c-4.49-7.21-11.52-11.38-20.18-9.72q-6.48 1.25-12.18 2.35c-5.73 1.11-11.98 3.02-18.34 4.25q-8.75 1.68-16.35 4.25a4.46 4.23 31.3 0 1-.97.21q-7.04.8-10.59 2.12c-10.5 3.91-19.24 6.36-31.1 9.85-3.99 1.17-8 1.77-12.1 2.69q-5.8 1.28-9.03 2.25-20.77 6.21-34.55 9.13-7.63 1.61-16.87 4.65c-7.09 2.32-18.46 4.89-27.43 7.77q-7.42 2.38-10.58 3.14a4.6 4.5-71.7 0 0-1.91.99q-3.06 2.64-7.44 7.16c-6.35 6.55-5.44 15.31-3.19 23.11q2.12 7.35 2.36 9.57c.45 4.16 2.53 9.16 3.73 14.44q1.78 7.82 3.44 13.02c.65 2.04.75 5.12 1.57 7.61q2.46 7.43 5.87 19.93c2 7.32 3.6 11.83 6.32 20.36.79 2.47 2.28 4.83 2.67 6.99q.32 1.82 1.85 5.28 2.05 4.62 4.37 13.49c3.3 12.65 7.8 23.27 11.64 37.68q1.13 4.22 1.72 8.8c1.3 10.08 5.13 19.24 7.95 29.04q5.95 20.65 9.11 34.82 1.43 6.39 3.8 12.6c3.76 9.82 5.22 14.63 9.86 21.29a6.5 6.33 2.1 0 0 1.31 1.37q2.38 1.85 5.09 4.34c3.33 3.06 5.85 3.33 10.13 2.5q6.91-1.36 20.05-4.2 9.29-2.01 19.79-5.25 18.63-5.75 24.34-7.11 7.6-1.8 10.49-2.84 7.94-2.83 10.4-3.07.05 0 9.65-2.57c6.59-1.75 12.9-4.46 19.45-4.79a7.85 7.67 32.8 0 0 2.3-.47c7.69-2.78 12.16-4.88 18.25-6.34q3.21-.77 23.91-6.48 2.65-.73 13-2.95a6.54 6.44-62.6 0 0 1.26-.41c3.35-1.47 6.65-1.97 10.32-3.62q6.86-3.07 12.76-3.84a6.18 6.1-61.3 0 0 1.8-.54c4.49-2.18 11.56-3.34 16.87-7.14a3.46 3.41-11.6 0 0 1.35-2.02" class="E"/><path d="M549.97 673.73q.19-.66.1-1.72c-1.26-14.39-5.68-30.5-13.84-43.23-19.88-31.02-50.2-51.02-87.27-54.92q-18.2-1.92-26.46-2.04-2.12-.04-3.33.1a1.44 1.43 87.2 0 0-1.26 1.39q-.13 4.72.85 11.46 1.35 9.37 4.69 22.06 1.85 7.05 7.1 18.53c11.74 25.69 33.14 45.13 59.41 54.93 7.04 2.63 16.91 5.31 23.29 6.73q14 3.09 29.06 2.21a.9.9 0 0 0 .75-1.31q-1.13-2.18-2.72-4.27-11.15-14.6-24.78-30.97c-7.08-8.49-13.64-14.04-23.14-21.8-7.18-5.86-16.58-12.06-22.86-17.12q-1.99-1.6-2.92-3.4a1.84 1.83-50.8 0 1-.14-1.4q1.01-3.43 3.85-4.84a2.57 2.55-53.9 0 1 1.49-.24q4.04.6 7.26 2.26 8.06 4.17 16.69 10.86 16.94 13.15 32.75 30.5 5.87 6.43 12.78 14.91 4.58 5.63 7.72 11.43a.51.5-51.5 0 0 .93-.11m157.24-96.72q-14.31-.72-30.62 1.69c-27.48 4.05-55.07 18.16-73.15 39.56q-10.32 12.22-16.92 27.77c-5.42 12.76-7.12 29.46-8.78 43.22q-.23 1.94.37 3.13a.9.9 0 0 0 1.62-.04q4.37-9.65 9.72-18.92 4.71-8.16 17.45-25.52 4.73-6.45 11.58-12.92 9.28-8.77 16.77-13.99 8.27-5.75 11.93-8.39c2.68-1.93 5.78-3.28 8.04-4.4q4.05-2 7.74.98c2.44 1.97 2.97 5.98.11 7.96q-4.05 2.8-15.79 10.89-20.58 14.17-34.28 34.7-3.16 4.73-9.57 15.83c-4.93 8.53-8.25 14.45-10.71 20.47a.84.83-77.9 0 0 .74 1.15q4 .14 8.5-.26 19.12-1.66 37.52-9.94c7.39-3.33 13.77-8.49 19.65-13.1 6.58-5.15 12.6-12.42 17.38-18.34q3.98-4.93 7.37-10.57 8.82-14.67 13.24-27.59 7.07-20.72 11-42.22a.98.98 0 0 0-.91-1.15" class="C"/><path d="M732.11 936.39c.97-4.57-.2-8.22-1.68-13.28-2.38-8.16-7.28-13.87-14.77-18.49-4.59-2.83-11.09-3.24-16.06-3.26a8 7.55-37.2 0 1-1.67-.18q-3.23-.69-6.96-.65c-1.8.02-3.35-.54-3.87-2.15q-2.41-7.49-3.84-10.57a9.44 9.41 26.5 0 1-.65-1.93c-1.49-6.74-3.45-10.81-5.93-17.57q-2.35-6.41-8.56-9.77-5.05-2.74-6.78-3.06-5.88-1.07-16.6-1.05a10.22 10.2 38.5 0 0-2.29.26q-6.39 1.45-12.69.74a2.81 2.77 62.1 0 1-1.02-.32q-.83-.46-1.89-2.91-3.89-9.03-5.26-17.49-.64-3.95-4.78-11.41a8.63 8.42 7.7 0 0-1.57-2.01q-5.66-5.3-6.46-5.8-2.79-1.73-11.2-4.35-.92-.29-9.03-1.33-4.19-.53-9.1-.05-6.94.69-13.21-.1a14.74 14.74 0 0 0-4.15.07c-6.74 1.05-17.8.06-25.47 2.21q-11.33 3.19-20.02 12.94c-3.55 3.99-5.86 9.99-8.33 15.4a8.11 8.03 61.4 0 0-.62 2.15q-.77 5.68-2.71 9.14a3.69 3.68 13.6 0 1-3.06 1.86c-4.22.16-9.38-.69-14.04-.61-5.7.1-10.17.29-14.49 2.27q-6.76 3.09-14.07 9.38c-2.7 2.31-5.25 6.12-6.8 8.44a8.38 8.24 72.3 0 0-.85 1.68q-3.4 9.12-4.88 16.68a2.45 2.45 0 0 1-1.66 1.86q-5.27 1.69-10.66 2.1c-4.35.32-12.24 2.16-14.59 3.85-7.53 5.43-14.85 14.27-16.96 23.5-.93 4.12-3.1 8.57-2.28 13.16a1.68 1.68 0 0 0 1.65 1.38h328.97a.91.91 0 0 0 .89-.73" class="E"/><path d="M833.69 726.61q.84-.47 1.06-1.65 2.41-12.62 5.91-23.07 7.48-22.32 17.66-47.53c3.62-8.96 5.78-17.86 10.27-26.22q.81-1.51 2.58-1.98c4.21-1.11 7.1.94 6.84 5.42q-.17 2.96-1.47 6.7-8.33 23.88-14.84 42.63-5.77 16.65-15.91 54.1-.2.74-.15 1.38a.88.88 0 0 0 1.16.76c1.11-.39 1.9-1.37 2.55-1.85q14.25-10.65 26.85-23.09 15.22-15 25.92-33.38 10.3-17.67 10.66-35.59c.35-16.94-5.88-35.37-13.14-53.07q-1.92-4.69-5.3-10.88a2.8 2.79 71.3 0 0-2.88-1.43q-2.48.38-5.03 1.54-14 6.35-23.22 13.51-9.49 7.37-22.04 21.69-3 3.43-5.27 7.28c-2.12 3.58-6.75 9.91-9.16 15.33-4.79 10.76-6.66 22.35-6.67 34.28q-.01 8.47 2.31 22.14c1.83 10.81 6.4 22.03 10.39 32.64a.64.64 0 0 0 .92.34m-7.94 33.56c4.06-13.49-2.66-25.8-9.53-36.97-6.16-10.03-12.78-16.83-22.58-23.42-15.06-10.13-35.35-13.16-53.05-11.49a1.8 1.8 0 0 0-1.62 1.55q-.46 3.28-.06 6.62 1.87 15.28 8.86 27.79 7.36 13.17 16.06 22.24c6.98 7.26 18.01 14.75 28.32 17.78 7.48 2.2 13.29 3.64 20.13 2.8a1.03 1.02-29.2 0 0 .52-1.82q-14.93-11.85-29.37-23.68c-2.42-1.98-6.76-5.26-4.96-8.41q2.05-3.6 6.21-1.75c14.77 6.55 27.55 18.21 38.58 29.37a1.49 1.49 0 0 0 2.49-.61" class="C"/><path d="M743.37 845.61q1.29 1.78 3.82 3.11c9.53 5.02 23.27 8.76 35.36 9.71q5.71.46 12.5 1.78a9.63 9.23 49.1 0 0 1.93.18l22.07-.19a1.61 1.61 0 0 0 .72-.17q3.83-1.89 3.82-6.01-.03-22.38.01-26.4a1.13 1.13 0 0 0-1.14-1.14q-9.28.07-21.4.37-2.79.07-7.79.99-14.58 2.7-15.15 2.8c-9.01 1.57-16.83 4.65-25.58 8.41q-4.62 1.98-8.94 5.13a1.02 1.02 0 0 0-.23 1.43m95.9 16.58q8.89.4 16.66.01 3.36-.17 17.82-2.76c4.74-.85 9.22-1.5 12.96-2.74 1.99-.66 5.41-1.07 9.26-1.56 6.38-.81 11.63-4.2 17.13-7.16a3.09 3.09 0 0 0 1.61-2.42q.41-4.38-3.72-5.82-4.53-1.6-9.07-3.23a17.39 17.27 58.8 0 0-3.32-.83q-9.82-1.44-19.37-5.11c-3.61-1.39-9.99-1.06-14.97-1.7q-11.8-1.5-26.11-2.09a.54.54 0 0 0-.56.46c-.61 4.25-1.1 8.53-.63 14.03q.52 6.11.48 11.53a8.51 8.42 37.8 0 0 .31 2.34q.86 3.05.87 6.39a.67.67 0 0 0 .65.66m-90.91-.05q1.03 8.38 3.41 15.87 4.53 14.25 7.74 25.6.6 2.12 1.93 5.91c.92 2.64 1.81 6.17 3.29 9.01 1.36 2.59 2.42 5.4 4.41 7.2q3.71 3.35 9.76 4.65 17.43 3.72 33.86 3.98 3.08.05 26.57-.07 10.61-.05 18.19-.75 12.8-1.2 18.11-1.94 5.1-.72 10.25-2.73c4.21-1.64 6.42-4.95 7.72-9.87q1.36-5.17 4.24-12.85c1.98-5.27 3.02-10.53 4.87-14.99q2.5-6.01 3.93-11.13 3.16-11.31 4.88-18.47a.8.8 0 0 0-.77-.99q-1.31-.01-2.31.36-6.72 2.41-10.15 3.72-2.5.95-5.19 1.4c-4.56.76-8.22 2.02-13.23 2.62q-4.28.52-10.34 2.1c-2.93.77-4.91.72-8.19 1.31q-2.46.44-6.2.54-17.55.48-28.54.79c-12.6.35-27.53-1.16-40.13-2.34q-2.71-.25-20.55-4.37-3.5-.81-8.45-2.56-3.96-1.39-8.46-2.57a.53.52-85.9 0 0-.65.57M328.47 663c3.12-.49 4.01-3.01 3.4-5.68q-1.26-5.53-2.89-10.29c-3.46-10.13-6.05-21.38-9.86-30.39a11.93 11.52-62.4 0 1-.73-2.47q-.82-4.51-2.23-8.01a8.11 8.03-59.8 0 1-.52-2.01c-.47-3.99-2.46-8.72-4.59-12.12q-.91-1.46-4.53-1.76-5.01-.41-9.36.73c-5.64 1.47-11.12 1.96-16.69 3.73-4.89 1.56-12.13 2.66-16.41 3.83q-16.21 4.44-25.82 6.98-2.73.72-5.69 1.83-2.49.93-6.34 1.59-3.03.51-12.21 3.78c-2.25.8-5.35 1.13-7.5 1.91q-3.56 1.28-20.13 5.77-7.3 1.98-10.62 3.14c-2.74.96-5.26 1.13-8.3 2.3a7.95 7.36 27.8 0 1-1.6.43q-7.99 1.35-14.51 3.7c-5.89 2.14-10.47 2.29-16.56 4.47q-5.22 1.87-11.31 2.42c-5.39.49-9.3 2.03-11.52 6.37-1.95 3.8-.43 10.49 1.44 14.35a7.59 7.52 27.5 0 1 .65 2.03q1.52 8.99 3.48 17.12.56 2.3.81 6.5.18 3.02 1.54 6.53a7.77 7.64 29.3 0 1 .37 1.27q1.77 9.23 2.81 12.23c1.57 4.54 3.76 11.08 8.74 10.13q4.46-.84 6.8-1.26c7.82-1.4 14.85-3.38 26.14-5.99 3.84-.88 7.05-2.43 10.94-2.78q2.4-.22 8.23-1.89 13.67-3.91 13.91-3.99 3.51-1.19 13.97-3.67 17.88-4.26 35.14-9.44c7.7-2.31 14.12-3.19 21.74-5.78q6.7-2.27 12.61-3.59c3.18-.71 5.71-1.79 9.24-3.01 2-.69 4.88-.53 7.33-1.01q9.78-1.93 21.07-5.27c3.16-.93 6.15-2.19 9.56-2.73m55.92 177.94c.85-2.44.46-5.82-.82-8.33-1.26-2.47-1.15-5.26-2.03-8.24q-1.66-5.67-4.74-15.45c-2.09-6.63-3.44-12.43-5.22-19.14-.97-3.64-2.48-6.95-2.78-9.82-.21-1.98-1.35-4.26-1.85-6.43q-1.05-4.64-5.18-19.78-.17-.64-1.31-3.16a7.19 7.02-64.3 0 1-.41-1.22c-1.45-6.11-3.6-11.91-5.39-18.43q-1.39-5.07-3.03-9.07c-1.31-3.18-1.71-6.11-2.7-8.9q-.78-2.18-1.81-6.74-1.74-7.69-5.41-17.75c-1.85-5.08-2.91-8.57-8.77-7.04q-9.78 2.56-14.88 4.58c-6.94 2.76-11.93 3.38-20.54 5.24q-4.66 1.01-15.45 4.61a8.01 7.65 31.4 0 1-1.52.33c-1.59.19-3.6.41-5.29.97q-13.22 4.43-26.38 7.18c-6.1 1.28-11.73 3.28-18.74 4.86a15.92 15.52 27.3 0 0-2.13.65q-5.41 2.09-7.89 2.51c-6.09 1.03-11.63 3.17-17.42 4.46-1.3.29-2.94 1.23-4.13 1.52q-4.15 1.03-14.57 4.1-6.4 1.89-28.93 6.28-9.5 1.85-11.94 2.64c-1.3.42-4.77 1.11-5.67 2.87q-1.22 2.38-.57 4.94c1.36 5.31 4.89 13.25 6.6 19.78 1.94 7.37 5.92 21.52 9.36 32.24q2.32 7.21 3.25 11.13 4.97 20.99 11.56 40.6 1.28 3.81 1.73 5.85c1.17 5.3 2.83 9.07 4.3 14.67q1.9 7.22 6.65 19.05 1.17 2.91 2.41 5.09c2.05 3.64 2.09 7.08 5.13 9.93a3.41 3.39-27.9 0 0 2.88.88c8.73-1.45 16.89-3.67 25.04-5.9q24.01-6.6 28.88-8.35 7.54-2.72 17.45-5.52c9.87-2.8 16.8-4.51 24.96-7.65q6.28-2.42 14.5-4.78a9.09 8.96-55.4 0 1 1.73-.33q5.9-.56 10.99-2.31c10.53-3.63 25.07-7.31 34.82-10.55 4.39-1.45 8.43-1.87 11.93-3.3q2.9-1.19 8.89-2.68 6.46-1.6 12.98-4.5a2.74 2.73 87.7 0 0 1.46-1.59" class="E"/><path d="M1101.91 628.84a.55.55 0 0 0 .86.51c6.11-4.09 15.08-9.45 23.69-15.42q4.28-2.97 11.53-7.42c2.01-1.23 4.86-5.02 2.53-7.14a1.86 1.86 0 0 0-.91-.46l-50.8-9.31a1.53 1.53 0 0 0-1.73 1.04q-1.74 5.48-4.2 15.9-6.37 26.94-9.92 42.9a.89.88 13.4 0 0 .65 1.05c4.19 1.07 8.63 2.4 12.83 3.31q32.32 7.07 36.11 7.83 3.03.62 6.12.5a1.35 1.34 6.9 0 0 1.24-.96c2.57-8.72 3.76-15.58 6.42-24.98q1.59-5.58 2.66-12.13a.88.87 5.7 0 0-.84-1.02q-.69-.02-1.09.25-19.09 12.84-35.68 19.79-5.94 2.49-10.04-1.36-1.33-1.24-2.21-4.28c-2.01-6.94-1.44-17.87 7.94-18.36a2.4 2.36 58.1 0 1 1.33.32c3.86 2.29 3.86 5.35 3.51 9.44" class="C"/><path stroke="#827575" d="M300.06 606.85a1.01 1 72 0 0-1.22-.63c-12.57 3.68-27.23 6.94-39.31 10.2q-27.58 7.43-35.83 9.61c-6.31 1.66-13.74 2.91-20.67 4.74q-36.1 9.48-53.31 14.22-9.16 2.51-17.01 5.71c-2.95 1.2-5.75 2.37-4.99 6.31q3.41 17.63 9.04 36.38c1.13 3.78 1.77 6.83 6.21 5.9q3.2-.66 4.33-1c12.83-3.83 20.57-6.65 31.14-9.31q2.08-.52 62.52-16.86c7.5-2.02 15.02-3.36 23.59-5.78q9.6-2.72 44.69-11.85 3.26-.84 4.67-1.85a3.08 3.07 62.7 0 0 1.12-3.54l-14.97-42.25"/><path d="M309.28 742.76l31.91-9.52a2.02 2.02 0 0 0 1.36-2.51l-8.64-28.98a6.64 6.09 73.4 0 0-7.73-4.62l-24.11 7.18a6.64 6.09 73.4 0 0-3.94 8.11l8.64 28.98a2.02 2.02 0 0 0 2.51 1.36m-17.69 5.07a3.62 3.62 0 0 0 2.51-4.51l-8.89-30.08a3.62 3.62 0 0 0-4.34-2.48l-28.93 7.19a3.62 3.62 0 0 0-2.62 4.48l8.57 30.96a3.62 3.62 0 0 0 4.45 2.53l29.25-8.09m-47.97 12.95a3.59 3.59 0 0 0 2.58-4.5l-8.86-29.99a3.59 3.59 0 0 0-4.31-2.47l-27.93 6.95a3.59 3.59 0 0 0-2.58 4.5l8.86 29.99a3.59 3.59 0 0 0 4.31 2.47l27.93-6.95m-46.34 11.71a3.23 3.23 0 0 0 2.32-4.04l-9.09-30.79a3.23 3.23 0 0 0-3.74-2.25l-31.65 6.41a3.23 3.23 0 0 0-2.45 4.08l9.48 32.14a3.23 3.23 0 0 0 3.88 2.22l31.25-7.77m123.59 19.46a1.22 1.21 63.2 0 0 1.37.46q14.61-4.74 32.49-8.88 4.06-.94 3.36-5.25-.33-2-.71-3.2-4.32-13.84-9.42-26.7a1.37 1.36-13.7 0 0-1.4-.85q-3.4.33-5.13.89-11.97 3.89-25.45 7.03-2.39.56-4.12 1.63a2.33 2.32 65.9 0 0-1 2.63q7.53 25.95 9.14 30.75.14.43.87 1.49m-54.35-23a2.02 2.02 0 0 0-1.4 2.52l9.6 32.49a2.02 2.02 0 0 0 2.51 1.37l29.12-8.61a2.02 2.02 0 0 0 1.37-2.51l-9.45-31.98a2.02 2.02 0 0 0-2.47-1.37l-29.28 8.09m-46.45 11.12a3.08 3.08 0 0 0-2.15 3.79l8.65 31.26a3.08 3.08 0 0 0 3.71 2.16l29.83-7.42a3.08 3.08 0 0 0 2.21-3.86l-9.41-31.88a3.08 3.08 0 0 0-3.78-2.09l-29.06 8.04m-14.28 7.54a3.78 3.78 0 0 0-4.54-2.6l-31.83 7.93a3.78 3.78 0 0 0-2.71 4.73l8.76 29.68a3.78 3.78 0 0 0 4.53 2.6l31.84-7.93a3.78 3.78 0 0 0 2.71-4.74l-8.76-29.67m132.64 53.67q.86.05 1.31-.04 12.9-2.52 25.3-7.65c3.38-1.4 6.91-4.55 5.83-8.42q-2.34-8.37-8.25-25.45c-.55-1.6-.99-3.31-3.1-2.9q-3.94.76-17.8 5.32c-4.54 1.5-9.7 2.41-14.03 4.2a1.31 1.24-.7 0 0-.67.65q-.77 1.7-.23 3.28c3.31 9.83 5.69 20.58 10.38 30.16a1.52 1.51-10.8 0 0 1.26.85m-46.45 12.24l29.96-8.19a2.47 2.47 0 0 0 1.73-3.04l-7.79-28.46a6.08 4.58 74.7 0 0-6.02-4.66l-25.89 7.09a6.08 4.58 74.7 0 0-2.81 7.07l7.79 28.46a2.47 2.47 0 0 0 3.03 1.73m-54.5 8.08a4.13 4.13 0 0 0 4.96 2.84l31.38-7.81a4.13 4.13 0 0 0 2.97-5.18l-7.68-26.02a4.13 4.13 0 0 0-4.96-2.84l-31.38 7.81a4.13 4.13 0 0 0-2.97 5.18l7.68 26.02m-11.6 7.97q.07-1.14-.18-1.95-5.35-17.59-7.64-27.21-1.08-4.54-5.95-3.61-16.87 3.21-28.26 7.57a1.44 1.44 0 0 0-.83.83c-.68 1.84.11 3.41.52 5.17q3.75 15.83 7.52 27.47a1.36 1.35 74.1 0 0 1.61.9l32.27-8.03a1.25 1.24 84.7 0 0 .94-1.14" class="C"/><path d="M595.35 888.5q.7-.04 1.34-.54c8.07-6.35 18.18-5.51 27-2.09 6.65 2.58 10.04 7.56 12.29 13.86a1.14 1.14 0 0 0 1.96.33c8.55-10.5-7.73-25.35-17.62-25.65-8.13-.25-14.56-1.27-20.17 4.23q-3.72 3.65-6 8.02a1.26 1.26 0 0 0 1.2 1.84m-48.24 17.88c1.28-8.13-8.95-15.29-15.35-18.82-6.51-3.59-15.03-3.92-21.69-2.21q-11.99 3.07-16.59 14.08c-1.38 3.31-1.18 5.74-.75 9.33q.15 1.24.86 1.56a2.17 2.15-60.8 0 0 2.66-.76c1.76-2.59 3.37-5.63 5.65-7.86q3.82-3.75 10.49-5.91 15.76-5.1 27.34 5.45 1.69 1.54 5.36 5.72a1.16 1.16 0 0 0 2.02-.58" class="E"/></g><path d="M1374.16 86.12c9.04 6.97 18.25 15.95 24.94 23.53 7.92 8.98 14.36 19.04 20.85 31.31 7.3 13.78 12.35 28.78 14.68 43.36q3.09 19.24 2.22 37.17-.59 12.02-4.25 28.2-5.1 22.6-17.39 42.55-8.6 13.95-22.32 28.78c-4.92 5.32-10.65 10.03-16.61 15.36q-3.31 2.97-7.05 5.7-22.97 16.82-50.62 25.28c-3 .92-6.82.91-9.48 1.44-6.25 1.26-15.74 2.95-23.56 3.47q-16.69 1.12-30.57.27-8.99-.55-22.96-3.21c-5.75-1.09-12.3-3.35-18.77-5.32q-9.32-2.84-20.34-8.9-16.22-8.93-30.36-21.12-4.48-3.87-14.43-14.57-36.32-39.05-41.82-92.39-.74-7.2-.38-20.54.33-11.83 1.81-20.45 7.05-40.92 32.02-72.77 8.29-10.57 22.04-23.65c4.37-4.16 8.37-6.81 14.04-11.02q20.25-15.06 44.66-21.55 10.68-2.84 14.38-3.59c32.25-6.56 64.36-3.64 95.11 7.87 11.76 4.4 22.28 10.39 33.24 17.05q4.11 2.5 10.92 7.74zm-30.25 249.92c14.18-9.36 25.97-21.9 36.2-35.67 15.05-20.24 24.08-45.07 27.43-70.25q1.9-14.25.58-33.76-.4-5.83-1.95-13.82-2.28-11.71-2.8-13.67c-10.07-37.53-37.09-69.17-71.36-87.19-15.84-8.33-32.77-14.32-50.25-16.4q-9.96-1.19-25-.86c-36.63.81-73.19 18.56-97.62 45.98q-10.49 11.76-16.34 20.86c-10.56 16.42-18.18 33.99-21.69 53.28q-7.31 40.15 6.61 76.74c12.88 33.86 38.46 62 70.21 79.8 19.14 10.72 42.16 16.04 64.08 16.41q17.16.29 30.48-1.77c4.65-.72 11.11-2.44 17.2-3.83 11.79-2.69 23.68-8.9 34.22-15.85zM544.77 76.78l.24 429.96a.58.57 88.6 0 0 .6.58l9.29-.41 42.5.22a.76.76 0 0 0 .77-.76l-.26-72.18q.48-.53.52-1.01.49-5.44-.14-10.11l.89-4.04a2.59 2.58-84.4 0 1 2.46-2.03l15.07-.4 10.41.01 57.42.33c2.85 5.16 2.51 10.12 2.1 16.31q-.06.92.65 1.06l-.25 71.69a1.11 1.11 0 0 0 1.11 1.12h19.38a1.11 1.11 0 0 0 1.11-1.11l-.26-71.73q.55-.8.57-1.28.15-4.7-.13-14.87-.03-1.01-.55-1.14.42-.48.41-1-.15-14.61 0-40.24.02-3.07.98-5.89c1.43-4.22 4.94-3.99 9.39-4.01q35.65-.17 69.94.13 4.42.03 6.06 2.88c1.22 2.11 1.34 7.45 1.38 9.64q.27 13.73.12 37.5 0 .67.37.93-.58.55-.57 1.08.1 7.49-.07 14.98-.02.73.68 1.01-.36.74-.36.99.22 35.59.08 71.19a.96.96 0 0 0 .96.96h22.15a1.04 1.03-90 0 0 1.03-1.04v-71.24a.74.69-61.4 0 0-.09-.35q-.15-.24-.33-.47.54-.56.53-1.06-.11-7.48.07-14.95.01-.45-.58-1 .54-.47.54-1.03-.17-34.95.05-69.9a.79.79 0 0 0-.22-.57l-.25-.27q.51-.48.5-1.01-.04-5.25-.05-10.5 0-.47-.26-.79l.2-.22a.87.84 65.5 0 0 .21-.59q-.14-4.6-.06-10.55c.06-4.31 1.47-6.76 4.91-8.62q1.89-1.02 7.7-1.01 59.62.03 63.56-.01c5.74-.06 11.99.25 12.57 7.28q.42 5.07.17 12.58a1.27 1.24 25.1 0 0 .32.86l.26.28q-.61.45-.64 2.05-.11 6.16.15 9.21.06.63.42.87-.55.5-.55.86.07 35.01-.03 70.02 0 .34.18.56.2.24.46.37-.52.53-.51 1.11.01 7.37.04 14.72.01 1.12.59 1.27-.76.21-.76.98.1 33.78-.01 71.3a.87.87 0 0 0 .87.87h23.37a.89.89 0 0 0 .89-.89v-71.32a1.24 1.04-61.8 0 0-.1-.48q-.09-.19-.19-.43.65-.11.65-1.02-.01-7.39-.05-14.77 0-1.07-.56-1.32l.32-71.01a.39.3 38 0 0-.04-.16l-.36-.67q.55-.02.62-.58.51-4.58-.01-10.85a1.01.95 29.2 0 0-.12-.38q-.26-.41-.54-.33l.24-.43a1.12 1.12 0 0 0 .15-.56l.13-87.43a.43.42-23 0 0-.73-.29q-7.72 7.87-16.58 18.14-5.54 6.42-32.58 35.28c-3.68 3.92-6.41 5.91-11.37 4.56-2.74-.74-7.75-6.4-9.6-8.28q-22.17-22.46-49.19-49.24a1.23 1.22-46.4 0 0-1.76.05l-15.61 17.14q-6.58 5.25-11.32 11.78-.45-.19-.83.2c-7.67 7.77-17.77 19.7-25.03 27.32q-4 4.21-22.57 24.16l-3.54 3.29q-1.82 1.69-3.02 3.75-1.1.27-2.08 1.24-5.55 5.41-10.37 11.44l-1.69 1.28a.73.62-83.4 0 0-.16.15c-5.14 5.87-11.3 12.93-17.96 19.08-4.39 4.05-10.26 3.65-14.42-.49q-15.45-15.43-26.61-26.07a1.58 1.58 0 0 0-2.25.06l-28.6 30.58q-4.71 4.69-9.87 10.29-.9.98-.87 1.75-1.37-.2-2.68 1.21-18.29 19.74-33.98 34.51c-5.44 5.12-11.41-.16-15.51-4.32q-6.9-6.99-9.13-9.52.63-.55.59-2.06 1.88-.61 2.9-1.75 12.39-13.92 25.17-28.08c1.79-1.98 3.89-3.9 5.55-5.78q8.02-9.08 16.23-17.68 1.25-1.31 2.51-3.29l24.85-27.01q7.38-6.74 13.87-13.73 2.74-2.95 5.31-4.19c3.71-1.8 6.33-.26 9.35 2.2q6.13 5 20.22 17.44c4.14 3.66 8.22 6.48 11.81 10.18a.57.55-45.7 0 0 .82-.02l6.62-7.37q.85-.07 1.98-1.13 6.12-5.69 10.65-11.84 2.98-2.27 5.09-4.68 16.9-19.32 34.06-38.42 2.2-2.45 4.78-6.03 7.3-5.91 13-14.08l16.19-18.32q.48-.1 1.02-.59 6.66-6 12.17-12.92 2.49-1.4 6.57-5.34c2.82-2.72 7.58-3.13 10.98-.61q1.81 1.34 3.46 2.94l31.43 30.62q6.57 6.19 12.78 12.9.4.42 2.74 2.32a.24.23-46 0 0 .3-.01l.22-.2q-.22.56.07.91 3.77 4.47 7.6 8.03a1.61 1.6-43.3 0 0 2.12.06q3.97-3.29 4.61-6.45 2.13-.58 3.54-2.17 14.89-16.85 29.98-33.53 17.87-19.76 35.37-39.87.9-1.03 1.2-2.24 2.02-.87 3.48-2.59 3.76-4.47 7.51-8.97.3-.37.64-1.67l.05.25a.24.24 0 0 0 .41.12l30.23-32.49a1.32 1.32 0 0 0-.05-1.85q-6-5.8-12.37-13.01c-2.25-2.54-5.93-6.09-8.67-8.97q-1.69-1.78-2.3-3.85a3.04 3.02 62.6 0 1 1-3.2q1.98-1.58 4.65-2.5 4.89-1.68 41.25-13.43.35-.12.45-.47.06-.22-.29-.19 12.17-4.21 24.15-8.85 3.18-1.24 6.18-2.82c7.31-.91 14.88.14 13.26 9.67-.84 4.94-2.26 10.36-3.16 14.97q-3.61 18.46-7.06 35.86c-1.31 6.56-3.1 17.86-5.41 26.65q-4.41 3.38-8.43 3.08-2.79-.21-4.24.07l-15.6-16.09a.65.65 0 0 0-.85-.08q-2.05 1.47-3.39 3-6.99 7.92-29.64 32.67c-11.19 12.24-21.32 24.57-32.14 34.79q-.52.49-.58.87a1.05 1.04 4.2 0 0 1.04 1.2q55.89.02 62.15 0c3.93-.01 9.33 1.3 9.44 6.3q.36 15.57.29 27.5-.1 17.85.11 74.75.01 1.28 1.08 1.73l.16 9.66q-.97.35-1.18 1.61c-1.04 6.44.09 14.56.02 19.67q-.16 11.15-.11 34.76 0 .05-.35 7.63-.27 5.99 1.3 11.57l.09 13.63q-.99.42-1.17 1.5c-1.03 6.44.33 14.64.21 20.74q-.44 21.74-.1 51.41a.78.78 0 0 0 .81.77l8.25-.28 8.73.88a.88.86-77.9 0 0 .91-.6q2.58-7.8 3.13-15.84.98 0 1.39-1.55 12.28-45.82 22.43-86.18c1.48-5.89 4.43-13.56 10.69-15.93q5.78-2.19 11.96-1.54 10.13 1.07 20.79 2.86c4.01.68 8.71.72 12.55 1.37q14.07 2.38 22.88 4.03 3.63.68 8.55 1.23a2.08 2.07-69.1 0 0 1.93-.87c2.34-3.31 4.81-5.97 8.74-7.16q2.03-.62 6.46.05 9.87 1.48 22.48 4.25a3.07 3.06-64.6 0 0 3.06-1.1c5.17-6.6 13.34-6.71 21.23-5.09 10.06 2.07 29.42 4.94 43.53 7.88 7.24 1.51 13.94 2.25 22.18 3.82q22.56 4.29 45.79 8.81c10.11 1.97 20.19 5.76 23.37 15.95a2.27 2.27 0 0 0 1.84 1.58q11.36 1.72 20.49 4.22 11.63 3.19 16.6 13.18a2.56 2.55 1.8 0 0 .99 1.05c1.98 1.15 4.6.69 6.66 1.03q15.22 2.56 30.99 4.83c6.15.88 13.73 2.57 18.58 3.93 9.83 2.74 17.97 8.98 21.63 18.81q3.6 9.67 3.21 18.95-.2 4.88-2.65 15.74-3.33 14.8-12.2 49.54l-41.12 163.9-59.4 234.84c-2.74 10.79-9.73 22.41-21.73 24.12-8.13 1.17-17.96-1.6-25.47-2.64-14.52-2.01-28.81-5.29-44.5-8.53-5.44-1.13-11.61-1.97-17.66-3.15q-41.77-8.13-89.65-17.94-2.59-.53-9.76-1.99-7.76-1.58-23.67-4.59-13.08-2.47-23.64-4.84c-18.01-4.04-33.14-6.55-49.94-10.4q-15.15-3.47-29.98-6.31l-40.17-8.08c-7.83-1.5-16.89-3.59-23.18-7.48q-13.17-8.13-14.48-24.65-.23-2.95 1.87-12.01 2.48-10.71 5.93-23.83 35.32-134.07 41.6-157.41.03-.1 1.92-6.94 5.77-20.8 10.06-37.78 5.46-21.62 9.86-37.85 9.63-35.56 19.21-72.84.26-.99 1.15-3.22a.59.58 11.3 0 0-.54-.8q-181.81-.27-466.98-.13-11.66.01-33.74.28-6.92.08-8.38-6.43a3.66 3.29 41.9 0 1-.08-.74q.01-7.28.02-23.34.01-34.49-.06-409c0-2.88-.11-7.27 2.4-9.6q6.78-6.28 11.86 1.13zm464.99 163.29a1.33 1.33 0 0 0-1.33-1.33h-56.76a1.33 1.33 0 0 0-1.33 1.33v266.6a1.33 1.33 0 0 0 1.33 1.33h56.76a1.33 1.33 0 0 0 1.33-1.33v-266.6zm-114.97 89.05a1.2 1.2 0 0 0-1.2-1.2h-56.46a1.2 1.2 0 0 0-1.2 1.2v177.64a1.2 1.2 0 0 0 1.2 1.2h56.46a1.2 1.2 0 0 0 1.2-1.2V329.12zm-112.82 53.61a1.39 1.39 0 0 0-1.39-1.39h-56.22a1.39 1.39 0 0 0-1.39 1.39v124.02a1.39 1.39 0 0 0 1.39 1.39h56.22a1.39 1.39 0 0 0 1.39-1.39V382.73zm387.5 47.11a.42.42 0 0 0 .23.36q3.73 1.9 6.9 2.35c5.09.73 9.08 1.89 18.04 3.78 4.33.91 8.99 2.68 14.14 2.94 2.57.12 4.85 1.19 7.78 1.23 3.97.07 7.82 1.45 11.59 1.91q1.93.24 5.67 1.4 1.56.48 6.9 1.25 4.7.69 12.25 3.04a8.66 8.2-31.6 0 0 1.58.33c18.44 2.2 36.42 6.54 55.19 10.1 2.66.51 5.41 1.44 7.72 1.87q14.34 2.66 16.86 3.25c3.55.83 6.72.84 10.02 1.68q3.04.79 7.49 1.32 7 .84 17.48 2.9a1.73 1.73 0 0 0 1.91-1.01q2.5-5.74 4.03-13.69.71-3.71.2-8.82a2.99 2.98-77.5 0 0-1.44-2.27l-6.07-3.61a2.1 1.83-19.1 0 0-.52-.21q-17.14-4.34-19.04-5.07c-3.42-1.31-8.05-3.22-7.89-7.38q.13-3.65-.06-4.45a1.14 1.12 4.6 0 0-.7-.81q-4.82-1.81-8.75-2.13c-6.06-.49-12.31-1.81-18.03-2.66q-10.31-1.53-16.14-2.85-4.64-1.05-6.01-1.21-4.22-.48-6.07-.89-4.27-.94-38.65-7.82-1.14-.22-7.42-2.24a11.26 10.62-31.4 0 0-2.18-.46c-4.64-.51-6.82-.62-10.91-1.6-3.26-.79-13.77-2.95-16.47-.99-4.83 3.51-9.19 7.43-14.51 6.15q-11.02-2.64-18.26-3.2-1.88-.14-2.46 2.08-2.46 9.49-4.03 19.86-.41 2.66-.37 5.57zm-17.18-17.57q-10.06-2.21-24.97-4.41-14.25-2.11-35.98-5.66-1.3-.21-2.86-.08a1.15 1.15 0 0 0-1.02.83q-12.7 44.87-20.73 77.3-3.75 15.12-20.65 79.16-21.41 81.13-37.62 140.87-1.17 4.29-2.26 8.41-26.27 99.14-43.95 167.7-1.21 4.67 3.4 5.73 11.54 2.66 20.04 4.1 12.32 2.09 16.84 2.99 53.37 10.67 73.26 14.44 7.65 1.46 16.87 3.55c13.79 3.13 30.77 6.21 42.28 8.68l63.52 12.83c12.87 2.7 24.73 4.55 38.53 7.44 16.53 3.46 36.51 7.07 54.37 10.35 13.85 2.55 25.35 4.1 38.64 6.47q1.59.29 3.04-.26a1.32 1.31-86.8 0 0 .7-.63q.78-1.48 1.77-5.09 3.75-13.68 15.61-60.98 5.46-21.79 11.62-46.21l66.28-263.41q10.83-42.62 23.13-92.79c.93-3.8 2-7.53 2.12-11.12a1.84 1.84 0 0 0-.94-1.67c-2.7-1.51-7.18-3.17-10.74-3.88-16.87-3.36-29.67-5.29-48.83-7.96a.91.91 0 0 0-.96.57c-4.1 10.68-8.42 21.53-21.31 23.23q-10.4 1.38-22.81-.98-21.14-4.02-42.56-7.66c-8.29-1.41-19.13-4.07-27.9-5.24-18.36-2.44-36.57-6.52-56.53-9.95q-27.29-4.69-41.68-7.47c-11.84-2.28-24.59-3.3-27.95-15.93q-1.86-7.01-.92-13.07.94-6.05 1.64-9.43a.66.65-77.8 0 0-.49-.77zm-479.98 20.36a1.06 1.06 0 0 0-1.06-1.06h-57.52a1.06 1.06 0 0 0-1.06 1.06v74.36a1.06 1.06 0 0 0 1.06 1.06h57.52a1.06 1.06 0 0 0 1.06-1.06v-74.36z" class="F"/><path d="M1049.3 77.29q-3 1.58-6.18 2.82-11.98 4.64-24.15 8.85l-53.78-.21a1.11 1.11 0 0 0-1.11 1.12q.12 37.54.06 75.13-.01.8.47 3.55-.34 1.3-.64 1.67-3.75 4.5-7.51 8.97-1.46 1.72-3.48 2.59l-.12-5.76a.8.8 0 0 0-.8-.78h-68.63a.77.76 0 0 0-.77.76l.23 83.59q-.64 3.16-4.61 6.45a1.61 1.6-43.3 0 1-2.12-.06q-3.83-3.56-7.6-8.03-.29-.35-.07-.91.55-1.43.55-2.04.01-19.97.08-74.68 0-2.55-.14-3.95a1.29 1.28-3 0 0-1.28-1.15h-66.61a1.06 1.05 0 0 0-1.06 1.05l-.02 38.15q-5.51 6.92-12.17 12.92-.54.49-1.02.59l.19-51.03a1.68 1.67.2 0 0-1.68-1.68l-71.12-.01a.63.62 90 0 0-.62.63v69.33a1.19 1.19 0 0 0 1.19 1.19l55.85-.11q-5.7 8.17-13 14.08l-42.95-.2a1.03 1.03 0 0 0-1.03 1.03l.05 48.3q-4.53 6.15-10.65 11.84-1.13 1.06-1.98 1.13-.44-40.88-.15-58.7.04-2.82-.76-3.36a1.45 1.38-27.2 0 0-.78-.23l-65.51.13a.73.72 90 0 0-.72.73l-.08 56.92-24.85 27.01-52.3-.02a.97.96 0 0 0-.97.96v52.88a1.92 1.84-56.8 0 0 .13.69l.78 2.07q.04 1.51-.59 2.06l-.37 18.83a.69.69 0 0 0 .69.7l42.7-.03q.63 4.67.14 10.11-.04.48-.52 1.01l-42.14-.24a.85.85 0 0 0-.85.85l-.02 72.11-9.29.41a.58.57 88.6 0 1-.6-.58l-.24-429.96q12.89.56 35.23.57 234.64.08 469.3-.06zM618.59 89.8a1.03 1.03 0 0 0-1.03-1.03h-61.58a1.03 1.03 0 0 0-1.03 1.03v71.18a1.03 1.03 0 0 0 1.03 1.03h61.58a1.03 1.03 0 0 0 1.03-1.03V89.8zm82.06.19a1.2 1.2 0 0 0-1.2-1.2h-65.3a1.2 1.2 0 0 0-1.2 1.2v70.8a1.2 1.2 0 0 0 1.2 1.2h65.3a1.2 1.2 0 0 0 1.2-1.2v-70.8zm86.37-.05a1.22 1.22 0 0 0-1.22-1.22h-70.92a1.22 1.22 0 0 0-1.22 1.22v70.92a1.22 1.22 0 0 0 1.22 1.22h70.92a1.22 1.22 0 0 0 1.22-1.22V89.94zm82.172-.01a1.04 1.04 0 0 0-1.038-1.042l-67.02-.117a1.04 1.04 0 0 0-1.042 1.038l-.124 71.08a1.04 1.04 0 0 0 1.038 1.042l67.02.117a1.04 1.04 0 0 0 1.042-1.038l.124-71.08zm83.42.031a1.08 1.08 0 0 0-1.078-1.082l-67.7-.118a1.08 1.08 0 0 0-1.082 1.078l-.124 71.04a1.08 1.08 0 0 0 1.078 1.082l67.7.118a1.08 1.08 0 0 0 1.082-1.078l.124-71.04zM618.58 176.58a1.33 1.33 0 0 0-1.33-1.33h-60.98a1.33 1.33 0 0 0-1.33 1.33v68.48a1.33 1.33 0 0 0 1.33 1.33h60.98a1.33 1.33 0 0 0 1.33-1.33v-68.48zm82.08-.13a1.24 1.24 0 0 0-1.24-1.24H634.2a1.24 1.24 0 0 0-1.24 1.24v68.7a1.24 1.24 0 0 0 1.24 1.24h65.22a1.24 1.24 0 0 0 1.24-1.24v-68.7zm-82.059 85.246a1.45 1.45 0 0 0-1.447-1.453l-60.7-.106a1.45 1.45 0 0 0-1.453 1.448l-.121 69.44a1.45 1.45 0 0 0 1.447 1.453l60.7.106a1.45 1.45 0 0 0 1.453-1.447l.121-69.44z" class="G"/><path d="M336.66 116.9q4.16-4.14 10.95-11.28 2.05-2.16 9.53-7.95c11.03-8.53 23.4-13.85 37.18-14.83 14.42-1.03 29-.11 42.22 6.66 27.26 13.95 42.37 37.8 45.3 68.4q.33 3.44.29 10.1c-.1 18.97-7.22 39.05-16.94 54.44q-7.68 12.17-18.86 24.38-16.69 18.21-36.71 34.55c-5.03 4.1-10.35 7.95-13.88 10.81q-22.46 18.23-43.89 34.92-3.8 2.96-6.8 4.98c-11.1 7.46-20.4.41-30.34-6.71q-32.84-23.5-67.89-53.28a298.12 298.12 0 0 1-24.96-23.77q-19.29-20.54-29.05-45.65c-6.96-17.89-9.02-39.89-4.24-58.63q5.13-20.06 17.7-35.57 15.32-18.9 39.51-26.77c9.33-3.02 19.93-3.3 28.92-2.15 12.87 1.65 26.12 8.63 36.79 16.97q9.61 7.51 18.9 18.08 1.12 1.28 3.21 2.62a2.46 2.45 39 0 0 3.06-.32zm-.58 25.12a3.58 3.56-36.4 0 1-3.71-.55q-3.5-2.94-6.5-6.84-2.61-3.37-9.55-12.11c-7.24-9.11-15.65-15.81-25.41-20.92q-6.87-3.6-17.41-4.99-13.61-1.81-25.62 2c-21.56 6.85-37.36 22.44-44.2 43.66q-3.41 10.61-3.67 18.5c-.85 25.81 10.37 49.74 27 69.46q8.4 9.98 14.49 15.92 7.98 7.79 20.77 18.46 19.08 15.92 46.74 36.71 9.85 7.4 20.15 14.13c2.53 1.65 4.64 3.17 7.37 1.32 12.72-8.58 25.12-18.26 37.36-27.63q19.64-15.01 44.09-36.67 10.14-8.98 23.71-25.33 7.87-9.47 12.41-18.13 6.47-12.31 9.12-20.01c10.2-29.62.76-64.14-26.98-81.11-15.65-9.57-34.2-12.76-51.52-7.22q-18.77 6.01-30.32 20.71-8.37 10.68-10.52 13.38c-2.3 2.89-4.51 5.85-7.8 7.26z" class="F"/><path d="M1046.93 164.44l-.06 326.9q-.55 8.04-3.13 15.84a.88.86-77.9 0 1-.91.6l-8.73-.88-.08-71.72a.85.85 0 0 0-.66-.83l-7.26-1.59-.09-13.63c.85-2.13 4.62-1.73 7.08-1.93a1.18 1.18 0 0 0 1.09-1.18v-69.28a2.59 2.58-82.6 0 0-1.92-2.5q-2.64-.69-5.93-.35l-.16-9.66q2.64-1.18 6.25-.69a1.72 1.71-86.1 0 0 1.95-1.7l-.11-164.25q1.45-.28 4.24-.07 4.02.3 8.43-3.08zm-249.17 97.44l.06 69.95a1.18 1.18 0 0 0 1.19 1.18l21.72-.05q.26.32.26.79.01 5.25.05 10.5.01.53-.5 1.01l-101.54-.2q4.82-6.03 10.37-11.44.98-.97 2.08-1.24 1.26.59 2.05.6 26.68.15 52.53.05a1.02 1.01-.6 0 0 1.01-1.02q-.12-18.86-.03-55.51.01-1.02-.57-2.84 4.74-6.53 11.32-11.78z" class="G"/><path d="M396.46 380.46q11.11-5.73 22.52-14.78c7.17-5.69 13.84-10.97 20.62-15.07 5.33-3.22 10.66-4.71 18.08-6.52 6.45-1.56 13.05-1.66 19.51-.73 5.55.79 11.67 5.15 14.87 10.13 5 7.8 6.96 16.47 2.9 25-5.72 12.05-13.09 18.9-23.64 30.33q-14.97 16.2-36.15 36.1-13.55 12.73-31.76 23.48-16.69 9.85-31.95 15.52-7.08 2.63-32.8 11.74-23.22 8.24-47.18 10.23c-5.03.42-13.24.15-19.89-.85q-11.32-1.71-13.95-2.18-6.81-1.22-21.47-6.04c-12.04-3.96-28.09-10.84-42.34-15.73-9.99-3.43-21.02-9.05-33.83-10.93q-4.6-.68-11.92-2.1c-5.75-1.13-13.35-1.6-17.7-1.94q-4.55-.35-32.63.14-4.77.09-10.2-.32c-7.66-.57-10.6-6.66-10.61-13.42q-.08-68.2.07-83.26c.05-4.89 2.73-10.05 7.14-12.44 2.35-1.28 7.77-1.56 9.85-1.57q10.59-.02 20.91-.16 7.72-.1 14.09-1.47 18.14-3.9 32.91-9.48c14.58-5.5 27.66-10.83 40.84-11.89q7.27-.58 8.65-.71c13.66-1.23 27.24-.2 41.16 2.73q.73.15 7.03 1.18c6.68 1.1 12.73 4.19 18.69 8.3q10.72 7.37 20.68 15.05.22.17 3.76 2.1c3.56 1.93 7.86 3.03 11.5 4.42a8.2 8.09-30.1 0 0 1.86.48c4.2.57 7.32 1.26 10.93 1.23q9.87-.09 27.74.56 11.12.4 18.35 2.37 7.14 1.94 9.67 3.86 6.34 4.8 7.48 5.68 1.22.95 4.67 1.26a2.88 2.84-55.7 0 0 1.54-.3zm-300.35-8.22q-.09 60.57.04 74.27.02 2.41 2.42 2.41 32.2.1 39.1-.03 9.93-.19 18.61 1.26 17.45 2.9 33.15 9.43 23.3 9.68 23.68 9.83 15.68 6.41 37.52 12.44 14.95 4.12 29.9 4.98c17.01.97 33.92-3.94 50.75-8.44 15.35-4.11 30.26-9.65 44.4-15.99q29.11-13.08 51.6-33.38 1.13-1.01 15.5-14.49 14.81-13.9 28.43-30.55 6.45-7.89 8.04-11.26 1.88-3.98-.37-8.2c-3.16-5.97-10.18-4.6-16.33-2.99-8.51 2.24-15.31 4.87-22.8 9.98-9.93 6.77-19.39 15.1-28.57 20.7-4.6 2.8-7.15 4.68-11.92 3.97a.72.72 0 0 0-.79.96q3.86 10.48-.97 20.6-4.23 8.85-12.07 12.96c-11.14 5.83-23.12 7.32-37.27 8.16q-7.55.45-18.76.16c-3.85-.1-7.62-1.03-11.75-.95a13.83 13.34-38.9 0 1-2.94-.26c-5.42-1.09-11.79-1.95-16.55-3.1q-17.53-4.23-38.63-12.05-8.08-3-8.95-3.93-3.43-3.66-1.74-9.42c1.6-5.45 5.78-6.14 10.91-4.99q3.92.88 6.31 1.88 22.27 9.28 45.63 12.83c6.43.98 11.58.92 18.39 1.49q3.76.31 13.83-.16 6.26-.3 13.64-.37c7.54-.07 14-1.79 19.78-5.49a5.87 5.81 4.7 0 0 1.12-.94q7.35-8.06 2.14-18.14c-2.49-4.82-4.84-5.85-10.08-7.22-13.91-3.64-27.84-3.16-44.26-3.11-7.22.02-13.92-1.98-22.1-4.52q-4.63-1.44-11.77-5.98-4.25-2.71-14.22-9.74-15.45-10.91-35.01-14.42-15.88-2.84-32.29-2.4-5.93.16-11.72 1.76-9.9 2.72-11.42 3.37-22.59 9.52-46.09 15.45c-14.23 3.59-31.16 3.27-44.87 3a.64.63.4 0 0-.65.63z" class="F"/><path d="M934.66 332.94q.28-.08.54.33a1.01.95 29.2 0 1 .12.38q.52 6.27.01 10.85-.07.56-.62.58l-24.21.01q-.36-.24-.42-.87-.26-3.05-.15-9.21.03-1.6.64-2.05l24.09-.02zm-307.35 36.71l-.19 46.96-10.41-.01-.14-34.91q-.03-.77.87-1.75 5.16-5.6 9.87-10.29zm307.48 47.27q.56.25.56 1.32.04 7.38.05 14.77 0 .91-.65 1.02l-24.07-.03q-.58-.15-.59-1.27-.03-7.35-.04-14.72-.01-.58.51-1.11l24.23.02zm-226.52.07q.52.13.55 1.14.28 10.17.13 14.87-.02.48-.57 1.28-.81-.4-1.88-.4-8.87-.01-17.75.05-.84.01-1.46.38-.71-.14-.65-1.06c.41-6.19.75-11.15-2.1-16.31l23.73.05zm112.15.04q.59.55.58 1-.18 7.47-.07 14.95.01.5-.53 1.06l-23.44-.04q-.7-.28-.68-1.01.17-7.49.07-14.98-.01-.53.57-1.08l23.5.1z" class="G"/><path d="M417.86 853.74c-1.21 16.94-15.62 26.04-30.01 31.09-12.73 4.46-30.01 9.37-45.32 13.43q-45.48 12.09-60.43 16.36c-9.33 2.66-18.55 4.58-26.88 6.65q-28 6.96-51.72 13.47c-8.09 2.22-17.94 4.86-27.04 4.38-10.77-.56-20.38-6.67-24.83-16.24q-2.77-5.98-4.76-12.52-4.24-13.99-7.86-27.45c-2.76-10.24-7.33-25.14-9.81-34.07q-14.73-53.1-30.76-108.45-16.88-58.26-18.54-65.03c-1.84-7.51-3.25-13.27-4.1-19.02-2.68-18.22.76-35.68 17.15-45.36q4.58-2.71 17.37-5.43 10.58-2.25 25.88-6.62 10.52-3.01 25.84-6.86 25.75-6.47 43.38-10.98 17.65-4.53 23.72-6.1 36.35-9.41 66.25-16.61 7.31-1.76 13.91-1.69 21.25.22 29.63 19.37c4.57 10.47 7.01 23.19 10.27 33.33 4.8 14.93 9.5 32.07 13.25 43.7 3.43 10.64 5.5 18.9 9.1 31.33q31.72 109.35 31.78 109.54 11.25 38.7 13.53 47.17 1.51 5.56 1 12.61zm-15.72.79q.79-3.38 1.08-6.68.19-2.23-.92-6.77-5.08-20.83-11.14-38.84c-3.52-10.47-5.03-17.35-8.37-30.23q-3.63-13.98-5.97-20.35-3.41-9.28-5.73-17.85l-11.65-41.3q-1.31-5.14-3.69-11.99c-1.85-5.31-2.63-9.71-4.19-14.32q-5.08-15.07-9.21-31.56c-3.63-14.46-9.61-30.39-13.17-45.14q-1.52-6.27-3.01-8.66c-4.49-7.21-11.52-11.38-20.18-9.72q-6.48 1.25-12.18 2.35c-5.73 1.11-11.98 3.02-18.34 4.25q-8.75 1.68-16.35 4.25a4.46 4.23 31.3 0 1-.97.21q-7.04.8-10.59 2.12c-10.5 3.91-19.24 6.36-31.1 9.85-3.99 1.17-8 1.77-12.1 2.69q-5.8 1.28-9.03 2.25-20.77 6.21-34.55 9.13-7.63 1.61-16.87 4.65c-7.09 2.32-18.46 4.89-27.43 7.77q-7.42 2.38-10.58 3.14a4.6 4.5-71.7 0 0-1.91.99q-3.06 2.64-7.44 7.16c-6.35 6.55-5.44 15.31-3.19 23.11q2.12 7.35 2.36 9.57c.45 4.16 2.53 9.16 3.73 14.44q1.78 7.82 3.44 13.02c.65 2.04.75 5.12 1.57 7.61q2.46 7.43 5.87 19.93c2 7.32 3.6 11.83 6.32 20.36.79 2.47 2.28 4.83 2.67 6.99q.32 1.82 1.85 5.28 2.05 4.62 4.37 13.49c3.3 12.65 7.8 23.27 11.64 37.68q1.13 4.22 1.72 8.8c1.3 10.08 5.13 19.24 7.95 29.04q5.95 20.65 9.11 34.82 1.43 6.39 3.8 12.6c3.76 9.82 5.22 14.63 9.86 21.29a6.5 6.33 2.1 0 0 1.31 1.37q2.38 1.85 5.09 4.34c3.33 3.06 5.85 3.33 10.13 2.5q6.91-1.36 20.05-4.2 9.29-2.01 19.79-5.25 18.63-5.75 24.34-7.11 7.6-1.8 10.49-2.84 7.94-2.83 10.4-3.07.05 0 9.65-2.57c6.59-1.75 12.9-4.46 19.45-4.79a7.85 7.67 32.8 0 0 2.3-.47c7.69-2.78 12.16-4.88 18.25-6.34q3.21-.77 23.91-6.48 2.65-.73 13-2.95a6.54 6.44-62.6 0 0 1.26-.41c3.35-1.47 6.65-1.97 10.32-3.62q6.86-3.07 12.76-3.84a6.18 6.1-61.3 0 0 1.8-.54c4.49-2.18 11.56-3.34 16.87-7.14a3.46 3.41-11.6 0 0 1.35-2.02zm163.39-165.01q-.81.63-.4 1.34a.32.32 0 0 0 .56-.03q.15-.33.17-.84.79-.75.8-1.68c.15-9.81-.19-20.16 1.4-28.65q3.38-17.96 11.71-33.13 7.61-13.85 22.11-27.27 19.34-17.9 42.56-26.54 22.59-8.42 43.8-9.53 5.81-.31 24.47-.31c8.43-.01 12.22 4.21 11.2 12.6q-5.13 42.05-26.45 77.72-14.06 23.52-36 40.02-26.01 19.57-59.11 22.83-10.46 1.03-20.22.98a2.19 2.18-81.4 0 0-2.1 1.56c-7.18 24.46-8.71 50.37-6.86 75.72a1.73 1.72 87.2 0 0 1.76 1.6c11.29-.22 21.52.31 32.04 4.02 16.7 5.9 27.38 21.06 29.17 38.69a.6.6 0 0 0 .62.54c8.48-.38 16.63-.71 25.71 1.65 15.26 3.97 27.26 17.12 31.04 32.18q3.05 12.11 3.68 13.76a2.49 2.36 14.2 0 0 .5.79c1.59 1.64 5.41 1.52 7.05 1.42q1.25-.08 3.94.5c24.32 5.21 37.22 26.29 36.44 50.34-.34 10.53-8.42 14.08-17.77 14.1q-79.1.13-321.6.05-7.71 0-13.92-3.94a4.18 4.17-4.5 0 1-.94-.8q-4.02-4.5-4.29-10.75-1.2-27.34 18.89-44.34 9.71-8.22 20.85-10.47 3.96-.81 7.87-1.86a1.11 1.11 0 0 0 .82-1.02q.26-4.43 2.36-7.92c4.22-6.99 9.03-14.27 14.86-19.56 9.35-8.48 21.22-14.06 33.8-14.36q1.81-.05 8.17-.02a1.46 1.46 0 0 0 1.42-1.12c5.19-21.78 23.3-39.71 46.16-41.41q8.32-.62 14.97-.55a1.36 1.36 0 0 0 1.37-1.39q-.57-22.16-2.1-43.69-1.63-23-9.19-44.37-.66-1.87-3.1-1.91-18.92-.33-32.73-2.74-6.94-1.2-21.81-6.48-25.17-8.93-45.11-27.05-25.47-23.15-35.37-57.07-2.3-7.9-3.72-18.43-1.53-11.38-1.91-18.77c-.31-6.16 1.22-14.91 8.88-15.91q11.91-1.57 21.96-.87 7.98.55 13.07.87 4.41.27 9.04 1.32 1.42.32 8.93 1.95c18.38 3.99 34.38 11.92 51.05 23.84 20.01 14.3 37.4 36.31 43.73 60.05q3.08 11.56 3.83 20.6.94 11.51 1.26 14.03.56 4.58.07 8.13a1.36 1.36 0 0 0 .19.91l.42.67zm-15.56-15.79q.19-.66.1-1.72c-1.26-14.39-5.68-30.5-13.84-43.23-19.88-31.02-50.2-51.02-87.27-54.92q-18.2-1.92-26.46-2.04-2.12-.04-3.33.1a1.44 1.43 87.2 0 0-1.26 1.39q-.13 4.72.85 11.46 1.35 9.37 4.69 22.06 1.85 7.05 7.1 18.53c11.74 25.69 33.14 45.13 59.41 54.93 7.04 2.63 16.91 5.31 23.29 6.73q14 3.09 29.06 2.21a.9.9 0 0 0 .75-1.31q-1.13-2.18-2.72-4.27-11.15-14.6-24.78-30.97c-7.08-8.49-13.64-14.04-23.14-21.8-7.18-5.86-16.58-12.06-22.86-17.12q-1.99-1.6-2.92-3.4a1.84 1.83-50.8 0 1-.14-1.4q1.01-3.43 3.85-4.84a2.57 2.55-53.9 0 1 1.49-.24q4.04.6 7.26 2.26 8.06 4.17 16.69 10.86 16.94 13.15 32.75 30.5 5.87 6.43 12.78 14.91 4.58 5.63 7.72 11.43a.51.5-51.5 0 0 .93-.11zm157.24-96.72q-14.31-.72-30.62 1.69c-27.48 4.05-55.07 18.16-73.15 39.56q-10.32 12.22-16.92 27.77c-5.42 12.76-7.12 29.46-8.78 43.22q-.23 1.94.37 3.13a.9.9 0 0 0 1.62-.04q4.37-9.65 9.72-18.92 4.71-8.16 17.45-25.52 4.73-6.45 11.58-12.92 9.28-8.77 16.77-13.99 8.27-5.75 11.93-8.39c2.68-1.93 5.78-3.28 8.04-4.4q4.05-2 7.74.98c2.44 1.97 2.97 5.98.11 7.96q-4.05 2.8-15.79 10.89-20.58 14.17-34.28 34.7-3.16 4.73-9.57 15.83c-4.93 8.53-8.25 14.45-10.71 20.47a.84.83-77.9 0 0 .74 1.15q4 .14 8.5-.26 19.12-1.66 37.52-9.94c7.39-3.33 13.77-8.49 19.65-13.1 6.58-5.15 12.6-12.42 17.38-18.34q3.98-4.93 7.37-10.57 8.82-14.67 13.24-27.59 7.07-20.72 11-42.22a.98.98 0 0 0-.91-1.15zm24.9 359.38c.97-4.57-.2-8.22-1.68-13.28-2.38-8.16-7.28-13.87-14.77-18.49-4.59-2.83-11.09-3.24-16.06-3.26a8 7.55-37.2 0 1-1.67-.18q-3.23-.69-6.96-.65c-1.8.02-3.35-.54-3.87-2.15q-2.41-7.49-3.84-10.57a9.44 9.41 26.5 0 1-.65-1.93c-1.49-6.74-3.45-10.81-5.93-17.57q-2.35-6.41-8.56-9.77-5.05-2.74-6.78-3.06-5.88-1.07-16.6-1.05a10.22 10.2 38.5 0 0-2.29.26q-6.39 1.45-12.69.74a2.81 2.77 62.1 0 1-1.02-.32q-.83-.46-1.89-2.91-3.89-9.03-5.26-17.49-.64-3.95-4.78-11.41a8.63 8.42 7.7 0 0-1.57-2.01q-5.66-5.3-6.46-5.8-2.79-1.73-11.2-4.35-.92-.29-9.03-1.33-4.19-.53-9.1-.05-6.94.69-13.21-.1a14.74 14.74 0 0 0-4.15.07c-6.74 1.05-17.8.06-25.47 2.21q-11.33 3.19-20.02 12.94c-3.55 3.99-5.86 9.99-8.33 15.4a8.11 8.03 61.4 0 0-.62 2.15q-.77 5.68-2.71 9.14a3.69 3.68 13.6 0 1-3.06 1.86c-4.22.16-9.38-.69-14.04-.61-5.7.1-10.17.29-14.49 2.27q-6.76 3.09-14.07 9.38c-2.7 2.31-5.25 6.12-6.8 8.44a8.38 8.24 72.3 0 0-.85 1.68q-3.4 9.12-4.88 16.68a2.45 2.45 0 0 1-1.66 1.86q-5.27 1.69-10.66 2.1c-4.35.32-12.24 2.16-14.59 3.85-7.53 5.43-14.85 14.27-16.96 23.5-.93 4.12-3.1 8.57-2.28 13.16a1.68 1.68 0 0 0 1.65 1.38h328.97a.91.91 0 0 0 .89-.73zm74.11-243.28a.82.81-4.6 0 0 .84-.98c-1.98-9.39-2.38-17.88-1.97-27.21 1.07-24.58 12.14-45.7 28.41-63.93q11.82-13.25 26.01-23.23 12.56-8.83 27.46-12.67 10.51-2.71 17.42 4.69c5.42 5.81 8.73 14.18 11.39 21.71 7.63 21.53 15.03 43.37 10.73 65.87q-3.26 17.07-13.01 32.16c-6.19 9.59-12.92 18.46-21.36 27.09q-15.4 15.74-32.02 29.51-8.27 6.85-16.59 13.65-3.82 3.12-5.06 8.44c-3.35 14.41-4.08 28.96-3.62 43.02a.99.98-.3 0 0 .97.95c16.42.31 31.65 1.53 47.08 5.56q15.44 4.03 16.72 4.36 12.48 3.24 24.99 11.29 6.9 4.44 4.63 12.28-17.88 61.96-21.58 73.25c-3.83 11.68-9.38 21.6-21.85 25.64q-13.86 4.48-28.06 5.94c-5.96.62-14.43 1.45-22.01 1.58q-24.38.42-37.48-.31-2.99-.16-13.5-2.07-8.74-1.58-16.71-5.26c-8.06-3.71-13.89-12.56-16.46-20.8q-8.91-28.66-22.37-72.34c-1.2-3.91-1.79-7.36-1.54-11.29.34-5.39 3.19-8.05 7.88-10.73q6.1-3.5 13.09-5.89 24.04-8.23 47.86-10.06 14.8-1.14 23.12-1.41a1.28 1.28 0 0 0 1.24-1.32q-.31-10.58-.83-20.1-.23-4.09-1.55-7.59a2.33 2.32 79.1 0 0-2.22-1.51c-11.08.22-21.89.3-32.51-3.84-10.7-4.17-19.6-11.29-28.98-20.13-11.41-10.75-22.36-27.87-27.04-42.88q-3.84-12.32-2.53-27.27.13-1.45 1.65-5.19 2.27-5.58 7.8-6.92c3.7-.89 8.55-1.59 12.83-1.55 13.46.12 27.18 1.87 39.26 7.61q8.78 4.17 18.4 11.46.52.39 1.07.42zm27.47 33.5q.84-.47 1.06-1.65 2.41-12.62 5.91-23.07 7.48-22.32 17.66-47.53c3.62-8.96 5.78-17.86 10.27-26.22q.81-1.51 2.58-1.98c4.21-1.11 7.1.94 6.84 5.42q-.17 2.96-1.47 6.7-8.33 23.88-14.84 42.63-5.77 16.65-15.91 54.1-.2.74-.15 1.38a.88.88 0 0 0 1.16.76c1.11-.39 1.9-1.37 2.55-1.85q14.25-10.65 26.85-23.09 15.22-15 25.92-33.38 10.3-17.67 10.66-35.59c.35-16.94-5.88-35.37-13.14-53.07q-1.92-4.69-5.3-10.88a2.8 2.79 71.3 0 0-2.88-1.43q-2.48.38-5.03 1.54-14 6.35-23.22 13.51-9.49 7.37-22.04 21.69-3 3.43-5.27 7.28c-2.12 3.58-6.75 9.91-9.16 15.33-4.79 10.76-6.66 22.35-6.67 34.28q-.01 8.47 2.31 22.14c1.83 10.81 6.4 22.03 10.39 32.64a.64.64 0 0 0 .92.34zm-7.94 33.56c4.06-13.49-2.66-25.8-9.53-36.97-6.16-10.03-12.78-16.83-22.58-23.42-15.06-10.13-35.35-13.16-53.05-11.49a1.8 1.8 0 0 0-1.62 1.55q-.46 3.28-.06 6.62 1.87 15.28 8.86 27.79 7.36 13.17 16.06 22.24c6.98 7.26 18.01 14.75 28.32 17.78 7.48 2.2 13.29 3.64 20.13 2.8a1.03 1.02-29.2 0 0 .52-1.82q-14.93-11.85-29.37-23.68c-2.42-1.98-6.76-5.26-4.96-8.41q2.05-3.6 6.21-1.75c14.77 6.55 27.55 18.21 38.58 29.37a1.49 1.49 0 0 0 2.49-.61zm-82.38 85.44q1.29 1.78 3.82 3.11c9.53 5.02 23.27 8.76 35.36 9.71q5.71.46 12.5 1.78a9.63 9.23 49.1 0 0 1.93.18l22.07-.19a1.61 1.61 0 0 0 .72-.17q3.83-1.89 3.82-6.01-.03-22.38.01-26.4a1.13 1.13 0 0 0-1.14-1.14q-9.28.07-21.4.37-2.79.07-7.79.99-14.58 2.7-15.15 2.8c-9.01 1.57-16.83 4.65-25.58 8.41q-4.62 1.98-8.94 5.13a1.02 1.02 0 0 0-.23 1.43zm95.9 16.58q8.89.4 16.66.01 3.36-.17 17.82-2.76c4.74-.85 9.22-1.5 12.96-2.74 1.99-.66 5.41-1.07 9.26-1.56 6.38-.81 11.63-4.2 17.13-7.16a3.09 3.09 0 0 0 1.61-2.42q.41-4.38-3.72-5.82-4.53-1.6-9.07-3.23a17.39 17.27 58.8 0 0-3.32-.83q-9.82-1.44-19.37-5.11c-3.61-1.39-9.99-1.06-14.97-1.7q-11.8-1.5-26.11-2.09a.54.54 0 0 0-.56.46c-.61 4.25-1.1 8.53-.63 14.03q.52 6.11.48 11.53a8.51 8.42 37.8 0 0 .31 2.34q.86 3.05.87 6.39a.67.67 0 0 0 .65.66zm-90.91-.05q1.03 8.38 3.41 15.87 4.53 14.25 7.74 25.6.6 2.12 1.93 5.91c.92 2.64 1.81 6.17 3.29 9.01 1.36 2.59 2.42 5.4 4.41 7.2q3.71 3.35 9.76 4.65 17.43 3.72 33.86 3.98 3.08.05 26.57-.07 10.61-.05 18.19-.75 12.8-1.2 18.11-1.94 5.1-.72 10.25-2.73c4.21-1.64 6.42-4.95 7.72-9.87q1.36-5.17 4.24-12.85c1.98-5.27 3.02-10.53 4.87-14.99q2.5-6.01 3.93-11.13 3.16-11.31 4.88-18.47a.8.8 0 0 0-.77-.99q-1.31-.01-2.31.36-6.72 2.41-10.15 3.72-2.5.95-5.19 1.4c-4.56.76-8.22 2.02-13.23 2.62q-4.28.52-10.34 2.1c-2.93.77-4.91.72-8.19 1.31q-2.46.44-6.2.54-17.55.48-28.54.79c-12.6.35-27.53-1.16-40.13-2.34q-2.71-.25-20.55-4.37-3.5-.81-8.45-2.56-3.96-1.39-8.46-2.57a.53.52-85.9 0 0-.65.57z" class="F"/><path d="M565.53 689.52l.33.47q-.02.51-.17.84a.32.32 0 0 1-.56.03q-.41-.71.4-1.34z" class="H"/><g class="D"><path d="M1343.91 336.04c-10.54 6.95-22.43 13.16-34.22 15.85-6.09 1.39-12.55 3.11-17.2 3.83q-13.32 2.06-30.48 1.77c-21.92-.37-44.94-5.69-64.08-16.41-31.75-17.8-57.33-45.94-70.21-79.8q-13.92-36.59-6.61-76.74c3.51-19.29 11.13-36.86 21.69-53.28q5.85-9.1 16.34-20.86c24.43-27.42 60.99-45.17 97.62-45.98q15.04-.33 25 .86c17.48 2.08 34.41 8.07 50.25 16.4 34.27 18.02 61.29 49.66 71.36 87.19q.52 1.96 2.8 13.67 1.55 7.99 1.95 13.82 1.32 19.51-.58 33.76c-3.35 25.18-12.38 50.01-27.43 70.25-10.23 13.77-22.02 26.31-36.2 35.67zM1189.3 116.23c-18.4 14.4-31.83 33.03-39.32 55.01-7.35 21.53-8.81 43.31-3.84 65.29q7.37 32.6 29.31 56.23 29.01 31.23 70.33 38.65c10.08 1.8 21.39 2.03 30.98 1.31 22.22-1.66 45.51-10.65 62.95-24.3s31.76-34.1 38.72-55.27c3-9.13 5.49-20.16 6.17-30.38q2.73-41.89-20.62-77.56-17.66-26.98-47.53-41.96c-20.15-10.11-41.64-13.93-64.3-11.97-23.14 1.99-44.45 10.56-62.85 24.95zm-853.22 25.79c3.29-1.41 5.5-4.37 7.8-7.26q2.15-2.7 10.52-13.38 11.55-14.7 30.32-20.71c17.32-5.54 35.87-2.35 51.52 7.22 27.74 16.97 37.18 51.49 26.98 81.11q-2.65 7.7-9.12 20.01-4.54 8.66-12.41 18.13-13.57 16.35-23.71 25.33-24.45 21.66-44.09 36.67c-12.24 9.37-24.64 19.05-37.36 27.63-2.73 1.85-4.84.33-7.37-1.32q-10.3-6.73-20.15-14.13-27.66-20.79-46.74-36.71-12.79-10.67-20.77-18.46-6.09-5.94-14.49-15.92c-16.63-19.72-27.85-43.65-27-69.46q.26-7.89 3.67-18.5c6.84-21.22 22.64-36.81 44.2-43.66q12.01-3.81 25.62-2 10.54 1.39 17.41 4.99c9.76 5.11 18.17 11.81 25.41 20.92q6.94 8.74 9.55 12.11 3 3.9 6.5 6.84a3.58 3.56-36.4 0 0 3.71.55z"/><rect x="950.34" y="238.74" width="59.42" height="269.26" rx="1.33"/><rect x="835.93" y="327.92" width="58.86" height="180.04" rx="1.2"/></g><path fill="#ffe7c4" d="M96.11 372.24a.64.63.4 0 1 .65-.63c13.71.27 30.64.59 44.87-3q23.5-5.93 46.09-15.45 1.52-.65 11.42-3.37 5.79-1.6 11.72-1.76 16.41-.44 32.29 2.4 19.56 3.51 35.01 14.42 9.97 7.03 14.22 9.74 7.14 4.54 11.77 5.98c8.18 2.54 14.88 4.54 22.1 4.52 16.42-.05 30.35-.53 44.26 3.11 5.24 1.37 7.59 2.4 10.08 7.22q5.21 10.08-2.14 18.14a5.87 5.81 4.7 0 1-1.12.94c-5.78 3.7-12.24 5.42-19.78 5.49q-7.38.07-13.64.37-10.07.47-13.83.16c-6.81-.57-11.96-.51-18.39-1.49q-23.36-3.55-45.63-12.83-2.39-1-6.31-1.88c-5.13-1.15-9.31-.46-10.91 4.99q-1.69 5.76 1.74 9.42.87.93 8.95 3.93 21.1 7.82 38.63 12.05c4.76 1.15 11.13 2.01 16.55 3.1a13.83 13.34-38.9 0 0 2.94.26c4.13-.08 7.9.85 11.75.95q11.21.29 18.76-.16c14.15-.84 26.13-2.33 37.27-8.16q7.84-4.11 12.07-12.96 4.83-10.12.97-20.6a.72.72 0 0 1 .79-.96c4.77.71 7.32-1.17 11.92-3.97 9.18-5.6 18.64-13.93 28.57-20.7 7.49-5.11 14.29-7.74 22.8-9.98 6.15-1.61 13.17-2.98 16.33 2.99q2.25 4.22.37 8.2-1.59 3.37-8.04 11.26-13.62 16.65-28.43 30.55-14.37 13.48-15.5 14.49-22.49 20.3-51.6 33.38c-14.14 6.34-29.05 11.88-44.4 15.99-16.83 4.5-33.74 9.41-50.75 8.44q-14.95-.86-29.9-4.98-21.84-6.03-37.52-12.44-.38-.15-23.68-9.83-15.7-6.53-33.15-9.43-8.68-1.45-18.61-1.26-6.9.13-39.1.03-2.4 0-2.42-2.41-.13-13.7-.04-74.27z"/><rect x="722.97" y="381.34" width="59" height="126.8" rx="1.39" class="D"/><path d="M1169.47 429.84q-.04-2.91.37-5.57 1.57-10.37 4.03-19.86.58-2.22 2.46-2.08 7.24.56 18.26 3.2c5.32 1.28 9.68-2.64 14.51-6.15 2.7-1.96 13.21.2 16.47.99 4.09.98 6.27 1.09 10.91 1.6a11.26 10.62-31.4 0 1 2.18.46q6.28 2.02 7.42 2.24 34.38 6.88 38.65 7.82 1.85.41 6.07.89 1.37.16 6.01 1.21 5.83 1.32 16.14 2.85c5.72.85 11.97 2.17 18.03 2.66q3.93.32 8.75 2.13a1.14 1.12 4.6 0 1 .7.81q.19.8.06 4.45c-.16 4.16 4.47 6.07 7.89 7.38q1.9.73 19.04 5.07a2.1 1.83-19.1 0 1 .52.21l6.07 3.61a2.99 2.98-77.5 0 1 1.44 2.27q.51 5.11-.2 8.82-1.53 7.95-4.03 13.69a1.73 1.73 0 0 1-1.91 1.01q-10.48-2.06-17.48-2.9-4.45-.53-7.49-1.32c-3.3-.84-6.47-.85-10.02-1.68q-2.52-.59-16.86-3.25c-2.31-.43-5.06-1.36-7.72-1.87-18.77-3.56-36.75-7.9-55.19-10.1a8.66 8.2-31.6 0 1-1.58-.33q-7.55-2.35-12.25-3.04-5.34-.77-6.9-1.25-3.74-1.16-5.67-1.4c-3.77-.46-7.62-1.84-11.59-1.91-2.93-.04-5.21-1.11-7.78-1.23-5.15-.26-9.81-2.03-14.14-2.94-8.96-1.89-12.95-3.05-18.04-3.78q-3.17-.45-6.9-2.35a.42.42 0 0 1-.23-.36z" class="H"/><path fill="#ffe7c4" d="M1152.29 412.27a.66.65-77.8 0 1 .49.77q-.7 3.38-1.64 9.43-.94 6.06.92 13.07c3.36 12.63 16.11 13.65 27.95 15.93q14.39 2.78 41.68 7.47c19.96 3.43 38.17 7.51 56.53 9.95 8.77 1.17 19.61 3.83 27.9 5.24q21.42 3.64 42.56 7.66 12.41 2.36 22.81.98c12.89-1.7 17.21-12.55 21.31-23.23a.91.91 0 0 1 .96-.57c19.16 2.67 31.96 4.6 48.83 7.96 3.56.71 8.04 2.37 10.74 3.88a1.84 1.84 0 0 1 .94 1.67c-.12 3.59-1.19 7.32-2.12 11.12q-12.3 50.17-23.13 92.79l-66.28 263.41q-6.16 24.42-11.62 46.21-11.86 47.3-15.61 60.98-.99 3.61-1.77 5.09a1.32 1.31-86.8 0 1-.7.63q-1.45.55-3.04.26l-38.64-6.47-54.37-10.35c-13.8-2.89-25.66-4.74-38.53-7.44l-63.52-12.83-42.28-8.68q-9.22-2.09-16.87-3.55-19.89-3.77-73.26-14.44-4.52-.9-16.84-2.99-8.5-1.44-20.04-4.1-4.61-1.06-3.4-5.73 17.68-68.56 43.95-167.7 1.09-4.12 2.26-8.41 16.21-59.74 37.62-140.87 16.9-64.04 20.65-79.16 8.03-32.43 20.73-77.3a1.15 1.15 0 0 1 1.02-.83q1.56-.13 2.86.08 21.73 3.55 35.98 5.66 14.91 2.2 24.97 4.41zm-63.23 136.31q3.19 1.35 7.93 2.45 33.21 7.7 66.25 11.78c4.21.52 5.98.45 7.18-3.65 2.41-8.19 5.64-22.98 9.13-35.32q4.66-16.49 8.56-33.43 1.18-5.15-2.86-7.08-3.59-1.72-9.38-3.18-22.89-5.78-49.21-9.73-1.81-.27-7.33-.82c-8.16-.8-20.58-4.56-16.54 10.02a2.26 2.22 44.5 0 1 .02 1.14l-14.94 63.95q-.38 1.72.47 3.22a1.58 1.53-2.1 0 0 .72.65zm131.61-46.12q-4.28 2-4.79 7.03c-.69 6.94 7.14 6.36 11.92 7.16q21.7 3.62 41.95 7.08c7.21 1.23 14.27 1.88 21.22 3.37q10.37 2.24 27.53 4.87c13.48 2.07 31.54 6.14 47.94 9.07q16.07 2.87 20.73 3.85 5.28 1.12 5.33 1.12c7.71 1.22 10.49-8.69 5.46-12.95q-1.77-1.5-7.04-2.37-26.13-4.35-63.97-11.65c-5.99-1.16-12.76-1.98-17.76-2.95q-32.9-6.4-67.19-12.07-7-1.15-14.5-2.05-4.59-.56-6.83.49zm170.577 75.532a6.44 6.44 0 0 0-5.014-7.603l-171.112-35.124a6.44 6.44 0 0 0-7.603 5.013l-.285 1.391a6.44 6.44 0 0 0 5.014 7.603l171.112 35.124a6.44 6.44 0 0 0 7.603-5.014l.285-1.391zm-80.21 19.187a7.26 7.26 0 0 0-5.712-8.532l-97.625-19.33a7.26 7.26 0 0 0-8.532 5.712l-.066.333a7.26 7.26 0 0 0 5.712 8.532l97.625 19.33a7.26 7.26 0 0 0 8.532-5.712l.066-.333zM1137.83 672.09q.42-.57.68-1.57c3.21-12.22 6.25-27 9.31-38.8q2.7-10.4 8.4-35.23c.81-3.55.14-4.88-3.01-5.99q-1.49-.53-3.47-.97-11.99-2.67-28.07-5.38c-1.95-.32-5.41-.29-8.09-.87q-14.42-3.06-30.47-5.11c-3.66-.47-6.63-.1-7.56 3.66q-2.64 10.68-8.69 40.28c-2.17 10.62-5.29 21.1-6.7 31.37q-.53 3.83-.5 4.13.23 1.98 2.89 2.66 25.28 6.47 52.21 11.03 3.37.57 6.89.82c4.52.31 9.94 1.49 14.82.78a2.05 2.05 0 0 0 1.36-.81zm99.63 3.13q5.32 4.41 10.66 10.78 7.42 8.87 15.79 19.02c4.6 5.56 8.93 2.42 15.05-.75q50.07-25.96 93.39-49.67 1.78-.97 3.76-3.15a2.95 2.88 71.9 0 0 .72-1.46q1.27-6.82-4.81-10.26-2.11-1.19-3.93-.66-4.6 1.34-9.72 4.32-9.54 5.55-23.58 13.28l-61.19 34.13a1.31 1.3-33.7 0 1-1.64-.32q-11.84-14.48-25.16-29.8c-2.44-2.8-6.77-5.84-10.63-3.76-7.5 4.03-16.16 10.3-22.68 14.36q-45.54 28.36-84.07 54.27a1.11 1.1-40.1 0 1-1.38-.11q-8.55-8.11-15.49-16.3c-2.76-3.26-5.82-5.96-9.32-8.34q-2.89-1.95-6.29.13-45.98 28.11-50.41 30.85c-3.69 2.28-9.78 5.71-9.28 9.07q.63 4.26 3.78 6.76c2.81 2.22 6.52.48 9.17-1.18q30.22-18.9 42.18-26.56 2.46-1.57 4.33-2.21a2.78 2.77-31 0 1 2.94.73q9.92 10.68 18.83 20.63c3.12 3.48 7 5.38 11.45 2.61l31.94-19.7 41.01-25.84q16.22-10.83 33.03-20.98a1.34 1.33-40.7 0 1 1.55.11zm-117.72 127.44q-3.31-2.13-4.59-3.32c-7.55-7.02-15.04-14.19-23.15-20.58a3.15 3.06-17.2 0 0-1.1-.56c-3.71-1.04-7.01.28-10.63 1.8-9.93 4.18-37.37 16.73-58.87 25.18-4.72 1.85-5.92 7.01-3.34 10.94 3.05 4.62 8.61 2.82 13 .96 15-6.34 25.57-11.07 37.63-15.37q10.19-3.63 16.77-6.58a2.66 2.65-36.1 0 1 2.88.45q10.47 9.51 21.76 21.12c4.44 4.56 9.9 2.64 14.93-.94 6.92-4.93 14.9-9.54 21.14-13.84q26-17.87 47.9-32.09 5.48-3.55 11.24-7 3.67-2.19 6.36.75 11.74 12.83 21.53 24.21c3.57 4.15 7.83 2.93 11.87.28q12.69-8.31 25.44-16.82 2.03-1.35 5.49-3.07a2.87 2.85-44.3 0 1 2.56.02q6.57 3.39 13.47 6.98 2.54 1.33 4.65 1.58a4.56 4.47-56.4 0 0 2.87-.61q4.77-2.84 10.53-8.09 21.37-19.46 37.41-35.87 4.73-4.84 5.55-6.68 1.69-3.79 1.7-8.48c0-4.3-5.21-7.47-9.27-5.12q-2.5 1.44-4.06 3.01-20.46 20.59-40.76 40.74-2.21 2.2-4.07 3.15a2.39 2.38-39.5 0 1-2.56-.24q-6.62-5.18-12.21-8.98-4.48-3.04-9.38.54-9.53 6.95-25.15 18.41-1.78 1.3-4.25 2.66a1.34 1.32-47.6 0 1-1.12.06q-1.87-.76-2.76-1.67c-8.75-8.97-17.81-18.15-28.18-24.82q-2.4-1.54-4.89-.2-5.46 2.93-7.37 4.15-36.11 23.34-71.04 48.68c-2.77 2.01-4.61 3.81-7.13 5.28a.78.77-43.1 0 1-.8-.02zm191.27 63.67c3.95-2.38 4.96-8.9 1.27-12.12q-1.19-1.03-5.31-1.81-7.23-1.36-37.42-7.93-23.34-5.08-59.72-12.23c-8.64-1.7-17.01-4.38-25.77-5.43l-13.03-1.66c-5.18-.83-10.24.26-11.1 6.1q-.45 3.04.86 5.1c1.77 2.79 4.84 2.46 8.49 2.76q1.91.16 3.89.57 94.5 19.29 110.33 22.58 21.2 4.41 22.04 4.59 3.37.74 5.47-.52zm-300.78-19.39c1.26 3.48 4.58 5.09 8.36 5.75 14.21 2.51 29.91 6.12 45.98 8.83 7.39 1.25 15.29 3.15 22.74 4.6q56.83 11.02 81.67 16.02 31.23 6.28 58.98 12.06 5.71 1.19 25.95 5.44 24.83 5.21 43.84 9.33 6.03 1.3 9.29-3.3c2.16-3.05 1.08-7.26-1.76-9.52q-1.64-1.3-7.42-2.45l-84.15-16.7q-12.75-2.44-21.84-4.31-18.28-3.76-21.83-4.39c-11.23-2.01-18.03-3.75-29.81-6.23q-3.27-.68-71.91-14.33-18.51-3.68-19.76-3.92c-9-1.76-18.56-3.1-28.04-5.3q-3.51-.82-5.48-.08c-3.42 1.29-6.2 4.69-4.81 8.5z"/><rect x="612.67" y="431.57" width="59.64" height="76.48" rx="1.06" class="D"/><path d="M402.14 854.53a3.46 3.41-11.6 0 1-1.35 2.02c-5.31 3.8-12.38 4.96-16.87 7.14a6.18 6.1-61.3 0 1-1.8.54q-5.9.77-12.76 3.84c-3.67 1.65-6.97 2.15-10.32 3.62a6.54 6.44-62.6 0 1-1.26.41q-10.35 2.22-13 2.95-20.7 5.71-23.91 6.48c-6.09 1.46-10.56 3.56-18.25 6.34a7.85 7.67 32.8 0 1-2.3.47c-6.55.33-12.86 3.04-19.45 4.79q-9.6 2.57-9.65 2.57-2.46.24-10.4 3.07-2.89 1.04-10.49 2.84-5.71 1.36-24.34 7.11-10.5 3.24-19.79 5.25-13.14 2.84-20.05 4.2c-4.28.83-6.8.56-10.13-2.5q-2.71-2.49-5.09-4.34a6.5 6.33 2.1 0 1-1.31-1.37c-4.64-6.66-6.1-11.47-9.86-21.29q-2.37-6.21-3.8-12.6-3.16-14.17-9.11-34.82c-2.82-9.8-6.65-18.96-7.95-29.04q-.59-4.58-1.72-8.8c-3.84-14.41-8.34-25.03-11.64-37.68q-2.32-8.87-4.37-13.49-1.53-3.46-1.85-5.28c-.39-2.16-1.88-4.52-2.67-6.99-2.72-8.53-4.32-13.04-6.32-20.36q-3.41-12.5-5.87-19.93c-.82-2.49-.92-5.57-1.57-7.61q-1.66-5.2-3.44-13.02c-1.2-5.28-3.28-10.28-3.73-14.44q-.24-2.22-2.36-9.57c-2.25-7.8-3.16-16.56 3.19-23.11q4.38-4.52 7.44-7.16a4.6 4.5-71.7 0 1 1.91-.99q3.16-.76 10.58-3.14c8.97-2.88 20.34-5.45 27.43-7.77q9.24-3.04 16.87-4.65 13.78-2.92 34.55-9.13 3.23-.97 9.03-2.25c4.1-.92 8.11-1.52 12.1-2.69 11.86-3.49 20.6-5.94 31.1-9.85q3.55-1.32 10.59-2.12a4.46 4.23 31.3 0 0 .97-.21q7.6-2.57 16.35-4.25c6.36-1.23 12.61-3.14 18.34-4.25q5.7-1.1 12.18-2.35c8.66-1.66 15.69 2.51 20.18 9.72q1.49 2.39 3.01 8.66c3.56 14.75 9.54 30.68 13.17 45.14q4.13 16.49 9.21 31.56c1.56 4.61 2.34 9.01 4.19 14.32q2.38 6.85 3.69 11.99c3.6 13.99 8.06 28.08 11.65 41.3q2.32 8.57 5.73 17.85 2.34 6.37 5.97 20.35c3.34 12.88 4.85 19.76 8.37 30.23q6.06 18.01 11.14 38.84 1.11 4.54.92 6.77-.29 3.3-1.08 6.68zM328.47 663c3.12-.49 4.01-3.01 3.4-5.68q-1.26-5.53-2.89-10.29c-3.46-10.13-6.05-21.38-9.86-30.39a11.93 11.52-62.4 0 1-.73-2.47q-.82-4.51-2.23-8.01a8.11 8.03-59.8 0 1-.52-2.01c-.47-3.99-2.46-8.72-4.59-12.12q-.91-1.46-4.53-1.76-5.01-.41-9.36.73c-5.64 1.47-11.12 1.96-16.69 3.73-4.89 1.56-12.13 2.66-16.41 3.83q-16.21 4.44-25.82 6.98-2.73.72-5.69 1.83-2.49.93-6.34 1.59-3.03.51-12.21 3.78c-2.25.8-5.35 1.13-7.5 1.91q-3.56 1.28-20.13 5.77-7.3 1.98-10.62 3.14c-2.74.96-5.26 1.13-8.3 2.3a7.95 7.36 27.8 0 1-1.6.43q-7.99 1.35-14.51 3.7c-5.89 2.14-10.47 2.29-16.56 4.47q-5.22 1.87-11.31 2.42c-5.39.49-9.3 2.03-11.52 6.37-1.95 3.8-.43 10.49 1.44 14.35a7.59 7.52 27.5 0 1 .65 2.03q1.52 8.99 3.48 17.12.56 2.3.81 6.5.18 3.02 1.54 6.53a7.77 7.64 29.3 0 1 .37 1.27q1.77 9.23 2.81 12.23c1.57 4.54 3.76 11.08 8.74 10.13q4.46-.84 6.8-1.26c7.82-1.4 14.85-3.38 26.14-5.99 3.84-.88 7.05-2.43 10.94-2.78q2.4-.22 8.23-1.89 13.67-3.91 13.91-3.99 3.51-1.19 13.97-3.67 17.88-4.26 35.14-9.44c7.7-2.31 14.12-3.19 21.74-5.78q6.7-2.27 12.61-3.59c3.18-.71 5.71-1.79 9.24-3.01 2-.69 4.88-.53 7.33-1.01q9.78-1.93 21.07-5.27c3.16-.93 6.15-2.19 9.56-2.73zm55.92 177.94c.85-2.44.46-5.82-.82-8.33-1.26-2.47-1.15-5.26-2.03-8.24q-1.66-5.67-4.74-15.45c-2.09-6.63-3.44-12.43-5.22-19.14-.97-3.64-2.48-6.95-2.78-9.82-.21-1.98-1.35-4.26-1.85-6.43q-1.05-4.64-5.18-19.78-.17-.64-1.31-3.16a7.19 7.02-64.3 0 1-.41-1.22c-1.45-6.11-3.6-11.91-5.39-18.43q-1.39-5.07-3.03-9.07c-1.31-3.18-1.71-6.11-2.7-8.9q-.78-2.18-1.81-6.74-1.74-7.69-5.41-17.75c-1.85-5.08-2.91-8.57-8.77-7.04q-9.78 2.56-14.88 4.58c-6.94 2.76-11.93 3.38-20.54 5.24q-4.66 1.01-15.45 4.61a8.01 7.65 31.4 0 1-1.52.33c-1.59.19-3.6.41-5.29.97q-13.22 4.43-26.38 7.18c-6.1 1.28-11.73 3.28-18.74 4.86a15.92 15.52 27.3 0 0-2.13.65q-5.41 2.09-7.89 2.51c-6.09 1.03-11.63 3.17-17.42 4.46-1.3.29-2.94 1.23-4.13 1.52q-4.15 1.03-14.57 4.1-6.4 1.89-28.93 6.28-9.5 1.85-11.94 2.64c-1.3.42-4.77 1.11-5.67 2.87q-1.22 2.38-.57 4.94c1.36 5.31 4.89 13.25 6.6 19.78 1.94 7.37 5.92 21.52 9.36 32.24q2.32 7.21 3.25 11.13 4.97 20.99 11.56 40.6 1.28 3.81 1.73 5.85c1.17 5.3 2.83 9.07 4.3 14.67q1.9 7.22 6.65 19.05 1.17 2.91 2.41 5.09c2.05 3.64 2.09 7.08 5.13 9.93a3.41 3.39-27.9 0 0 2.88.88c8.73-1.45 16.89-3.67 25.04-5.9q24.01-6.6 28.88-8.35 7.54-2.72 17.45-5.52c9.87-2.8 16.8-4.51 24.96-7.65q6.28-2.42 14.5-4.78a9.09 8.96-55.4 0 1 1.73-.33q5.9-.56 10.99-2.31c10.53-3.63 25.07-7.31 34.82-10.55 4.39-1.45 8.43-1.87 11.93-3.3q2.9-1.19 8.89-2.68 6.46-1.6 12.98-4.5a2.74 2.73 87.7 0 0 1.46-1.59z" class="H"/><path d="M549.97 673.73a.51.5-51.5 0 1-.93.11q-3.14-5.8-7.72-11.43-6.91-8.48-12.78-14.91-15.81-17.35-32.75-30.5-8.63-6.69-16.69-10.86-3.22-1.66-7.26-2.26a2.57 2.55-53.9 0 0-1.49.24q-2.84 1.41-3.85 4.84a1.84 1.83-50.8 0 0 .14 1.4q.93 1.8 2.92 3.4c6.28 5.06 15.68 11.26 22.86 17.12 9.5 7.76 16.06 13.31 23.14 21.8q13.63 16.37 24.78 30.97 1.59 2.09 2.72 4.27a.9.9 0 0 1-.75 1.31q-15.06.88-29.06-2.21c-6.38-1.42-16.25-4.1-23.29-6.73-26.27-9.8-47.67-29.24-59.41-54.93q-5.25-11.48-7.1-18.53-3.34-12.69-4.69-22.06-.98-6.74-.85-11.46a1.44 1.43 87.2 0 1 1.26-1.39q1.21-.14 3.33-.1 8.26.12 26.46 2.04c37.07 3.9 67.39 23.9 87.27 54.92 8.16 12.73 12.58 28.84 13.84 43.23q.09 1.06-.1 1.72zm157.24-96.72a.98.98 0 0 1 .91 1.15q-3.93 21.5-11 42.22-4.42 12.92-13.24 27.59-3.39 5.64-7.37 10.57c-4.78 5.92-10.8 13.19-17.38 18.34-5.88 4.61-12.26 9.77-19.65 13.1q-18.4 8.28-37.52 9.94-4.5.4-8.5.26a.84.83-77.9 0 1-.74-1.15c2.46-6.02 5.78-11.94 10.71-20.47q6.41-11.1 9.57-15.83 13.7-20.53 34.28-34.7 11.74-8.09 15.79-10.89c2.86-1.98 2.33-5.99-.11-7.96q-3.69-2.98-7.74-.98c-2.26 1.12-5.36 2.47-8.04 4.4q-3.66 2.64-11.93 8.39-7.49 5.22-16.77 13.99-6.85 6.47-11.58 12.92-12.74 17.36-17.45 25.52-5.35 9.27-9.72 18.92a.9.9 0 0 1-1.62.04q-.6-1.19-.37-3.13c1.66-13.76 3.36-30.46 8.78-43.22q6.6-15.55 16.92-27.77c18.08-21.4 45.67-35.51 73.15-39.56q16.31-2.41 30.62-1.69zm126.48 149.6a.64.64 0 0 1-.92-.34c-3.99-10.61-8.56-21.83-10.39-32.64q-2.32-13.67-2.31-22.14c.01-11.93 1.88-23.52 6.67-34.28 2.41-5.42 7.04-11.75 9.16-15.33q2.27-3.85 5.27-7.28 12.55-14.32 22.04-21.69 9.22-7.16 23.22-13.51 2.55-1.16 5.03-1.54a2.8 2.79 71.3 0 1 2.88 1.43q3.38 6.19 5.3 10.88c7.26 17.7 13.49 36.13 13.14 53.07q-.36 17.92-10.66 35.59-10.7 18.38-25.92 33.38-12.6 12.44-26.85 23.09c-.65.48-1.44 1.46-2.55 1.85a.88.88 0 0 1-1.16-.76q-.05-.64.15-1.38 10.14-37.45 15.91-54.1 6.51-18.75 14.84-42.63 1.3-3.74 1.47-6.7c.26-4.48-2.63-6.53-6.84-5.42q-1.77.47-2.58 1.98c-4.49 8.36-6.65 17.26-10.27 26.22q-10.18 25.21-17.66 47.53-3.5 10.45-5.91 23.07-.22 1.18-1.06 1.65zm-7.94 33.56a1.49 1.49 0 0 1-2.49.61c-11.03-11.16-23.81-22.82-38.58-29.37q-4.16-1.85-6.21 1.75c-1.8 3.15 2.54 6.43 4.96 8.41q14.44 11.83 29.37 23.68a1.03 1.02-29.2 0 1-.52 1.82c-6.84.84-12.65-.6-20.13-2.8-10.31-3.03-21.34-10.52-28.32-17.78q-8.7-9.07-16.06-22.24-6.99-12.51-8.86-27.79-.4-3.34.06-6.62a1.8 1.8 0 0 1 1.62-1.55c17.7-1.67 37.99 1.36 53.05 11.49 9.8 6.59 16.42 13.39 22.58 23.42 6.87 11.17 13.59 23.48 9.53 36.97z" class="D"/><path d="M731.22 937.12H402.25a1.68 1.68 0 0 1-1.65-1.38c-.82-4.59 1.35-9.04 2.28-13.16 2.11-9.23 9.43-18.07 16.96-23.5 2.35-1.69 10.24-3.53 14.59-3.85q5.39-.41 10.66-2.1a2.45 2.45 0 0 0 1.66-1.86q1.48-7.56 4.88-16.68a8.38 8.24 72.3 0 1 .85-1.68c1.55-2.32 4.1-6.13 6.8-8.44q7.31-6.29 14.07-9.38c4.32-1.98 8.79-2.17 14.49-2.27 4.66-.08 9.82.77 14.04.61a3.69 3.68 13.6 0 0 3.06-1.86q1.94-3.46 2.71-9.14a8.11 8.03 61.4 0 1 .62-2.15c2.47-5.41 4.78-11.41 8.33-15.4q8.69-9.75 20.02-12.94c7.67-2.15 18.73-1.16 25.47-2.21a14.74 14.74 0 0 1 4.15-.07q6.27.79 13.21.1 4.91-.48 9.1.05 8.11 1.04 9.03 1.33 8.41 2.62 11.2 4.35.8.5 6.46 5.8a8.63 8.42 7.7 0 1 1.57 2.01q4.14 7.46 4.78 11.41 1.37 8.46 5.26 17.49 1.06 2.45 1.89 2.91a2.81 2.77 62.1 0 0 1.02.32q6.3.71 12.69-.74a10.22 10.2 38.5 0 1 2.29-.26q10.72-.02 16.6 1.05 1.73.32 6.78 3.06 6.21 3.36 8.56 9.77c2.48 6.76 4.44 10.83 5.93 17.57a9.44 9.41 26.5 0 0 .65 1.93q1.43 3.08 3.84 10.57c.52 1.61 2.07 2.17 3.87 2.15q3.73-.04 6.96.65a8 7.55-37.2 0 0 1.67.18c4.97.02 11.47.43 16.06 3.26 7.49 4.62 12.39 10.33 14.77 18.49 1.48 5.06 2.65 8.71 1.68 13.28a.91.91 0 0 1-.89.73zM595.35 888.5q.7-.04 1.34-.54c8.07-6.35 18.18-5.51 27-2.09 6.65 2.58 10.04 7.56 12.29 13.86a1.14 1.14 0 0 0 1.96.33c8.55-10.5-7.73-25.35-17.62-25.65-8.13-.25-14.56-1.27-20.17 4.23q-3.72 3.65-6 8.02a1.26 1.26 0 0 0 1.2 1.84zm-48.24 17.88c1.28-8.13-8.95-15.29-15.35-18.82-6.51-3.59-15.03-3.92-21.69-2.21q-11.99 3.07-16.59 14.08c-1.38 3.31-1.18 5.74-.75 9.33q.15 1.24.86 1.56a2.17 2.15-60.8 0 0 2.66-.76c1.76-2.59 3.37-5.63 5.65-7.86q3.82-3.75 10.49-5.91 15.76-5.1 27.34 5.45 1.69 1.54 5.36 5.72a1.16 1.16 0 0 0 2.02-.58zm196.26-60.77a1.02 1.02 0 0 1 .23-1.43q4.32-3.15 8.94-5.13c8.75-3.76 16.57-6.84 25.58-8.41q.57-.1 15.15-2.8 5-.92 7.79-.99 12.12-.3 21.4-.37a1.13 1.13 0 0 1 1.14 1.14q-.04 4.02-.01 26.4.01 4.12-3.82 6.01a1.61 1.61 0 0 1-.72.17l-22.07.19a9.63 9.23 49.1 0 1-1.93-.18q-6.79-1.32-12.5-1.78c-12.09-.95-25.83-4.69-35.36-9.71q-2.53-1.33-3.82-3.11zm95.9 16.58a.67.67 0 0 1-.65-.66q-.01-3.34-.87-6.39a8.51 8.42 37.8 0 1-.31-2.34q.04-5.42-.48-11.53c-.47-5.5.02-9.78.63-14.03a.54.54 0 0 1 .56-.46q14.31.59 26.11 2.09c4.98.64 11.36.31 14.97 1.7q9.55 3.67 19.37 5.11a17.39 17.27 58.8 0 1 3.32.83q4.54 1.63 9.07 3.23 4.13 1.44 3.72 5.82a3.09 3.09 0 0 1-1.61 2.42c-5.5 2.96-10.75 6.35-17.13 7.16-3.85.49-7.27.9-9.26 1.56-3.74 1.24-8.22 1.89-12.96 2.74q-14.46 2.59-17.82 2.76-7.77.39-16.66-.01zm-90.91-.05a.53.52-85.9 0 1 .65-.57q4.5 1.18 8.46 2.57 4.95 1.75 8.45 2.56 17.84 4.12 20.55 4.37c12.6 1.18 27.53 2.69 40.13 2.34q10.99-.31 28.54-.79 3.74-.1 6.2-.54c3.28-.59 5.26-.54 8.19-1.31q6.06-1.58 10.34-2.1c5.01-.6 8.67-1.86 13.23-2.62q2.69-.45 5.19-1.4 3.43-1.31 10.15-3.72 1-.37 2.31-.36a.8.8 0 0 1 .77.99q-1.72 7.16-4.88 18.47-1.43 5.12-3.93 11.13c-1.85 4.46-2.89 9.72-4.87 14.99q-2.88 7.68-4.24 12.85c-1.3 4.92-3.51 8.23-7.72 9.87q-5.15 2.01-10.25 2.73-5.31.74-18.11 1.94-7.58.7-18.19.75-23.49.12-26.57.07-16.43-.26-33.86-3.98-6.05-1.3-9.76-4.65c-1.99-1.8-3.05-4.61-4.41-7.2-1.48-2.84-2.37-6.37-3.29-9.01q-1.33-3.79-1.93-5.91-3.21-11.35-7.74-25.6-2.38-7.49-3.41-15.87z" class="H"/><g class="F"><path d="M1339.71 308.42c-17.44 13.65-40.73 22.64-62.95 24.3-9.59.72-20.9.49-30.98-1.31q-41.32-7.42-70.33-38.65-21.94-23.63-29.31-56.23c-4.97-21.98-3.51-43.76 3.84-65.29 7.49-21.98 20.92-40.61 39.32-55.01 18.4-14.39 39.71-22.96 62.85-24.95 22.66-1.96 44.15 1.86 64.3 11.97q29.87 14.98 47.53 41.96 23.35 35.67 20.62 77.56c-.68 10.22-3.17 21.25-6.17 30.38-6.96 21.17-21.28 41.62-38.72 55.27zm-25.08.66q8.25-4 12.07-6.63 24.75-17.06 36.66-44.59 9.04-20.89 9.41-42.89.37-22.23-8-43.13-15.91-39.72-56.04-58.72c-9.86-4.68-21.95-8.25-32.49-9.07q-4.89-.38-17.01-.34-10.55.05-16.89 1.24c-26.03 4.89-48.14 18.83-64.35 39.09-17.79 22.25-25.32 49.29-22.27 78.19q.86 8.13 1.37 10.41c6.7 29.7 25.31 56.76 51.52 72.46q15.21 9.1 33.19 13.57 4.36 1.09 9.2 1.38 12.21.72 23.75.02 11.27-.68 19.36-3.03 10.23-2.98 20.52-7.96zm-226.29 238.85q-.85-1.5-.47-3.22l14.94-63.95a2.26 2.22 44.5 0 0-.02-1.14c-4.04-14.58 8.38-10.82 16.54-10.02q5.52.55 7.33.82 26.32 3.95 49.21 9.73 5.79 1.46 9.38 3.18 4.04 1.93 2.86 7.08-3.9 16.94-8.56 33.43c-3.49 12.34-6.72 27.13-9.13 35.32-1.2 4.1-2.97 4.17-7.18 3.65q-33.04-4.08-66.25-11.78-4.74-1.1-7.93-2.45a1.58 1.53-2.1 0 1-.72-.65zm80.15-30.9a.72.72 0 0 0-1.12-.73q-15.51 10.74-32.72 18.87c-2.92 1.38-5.81 2.17-8.38-.43q-3.18-3.21-5.09-8.11-1.92-4.95.02-8.5c1.99-3.66 6.81-4.89 10.56-2.53a1.84 1.8 8.6 0 1 .77 1.02l1.25 4.23a1.37 1.37 0 0 0 2.09.74q10.4-7.17 26.88-18.62 3.58-2.49 6.06-3.8c2.47-1.29 7.77-3.92 7.55-6.51q-.14-1.64-2.07-2.1-7.84-1.87-10.03-2.27-38.78-7.06-46.35-8.39-2.56-.45-3.3 1.7-.9 2.57-1.13 3.64-2.64 11.87-9.54 43-1.34 6.06-1.11 11.01a1.63 1.63 0 0 0 1.19 1.5q15.23 4.31 31.24 7.23 21.27 3.89 23.04 4.11a1.44 1.42 14.4 0 0 1.48-.86q2.1-4.96 3.74-11.22 2.19-8.36 4.97-22.98zm52.18-14.57q2.24-1.05 6.83-.49 7.5.9 14.5 2.05 34.29 5.67 67.19 12.07c5 .97 11.77 1.79 17.76 2.95q37.84 7.3 63.97 11.65 5.27.87 7.04 2.37c5.03 4.26 2.25 14.17-5.46 12.95q-.05 0-5.33-1.12-4.66-.98-20.73-3.85l-47.94-9.07q-17.16-2.63-27.53-4.87c-6.95-1.49-14.01-2.14-21.22-3.37q-20.25-3.46-41.95-7.08c-4.78-.8-12.61-.22-11.92-7.16q.51-5.03 4.79-7.03z"/><rect x="-93.78" y="-7.15" transform="matrix(.979575 .201078 -.201078 .979575 1299.24 559.83)" width="187.56" height="14.3" rx="6.44"/><rect x="-57.02" y="-7.43" transform="matrix(.980955 .194234 -.194234 .980955 1255.07 586.27)" width="114.04" height="14.86" rx="7.26"/><path d="M1137.83 672.09a2.05 2.05 0 0 1-1.36.81c-4.88.71-10.3-.47-14.82-.78q-3.52-.25-6.89-.82-26.93-4.56-52.21-11.03-2.66-.68-2.89-2.66-.03-.3.5-4.13c1.41-10.27 4.53-20.75 6.7-31.37q6.05-29.6 8.69-40.28c.93-3.76 3.9-4.13 7.56-3.66q16.05 2.05 30.47 5.11c2.68.58 6.14.55 8.09.87q16.08 2.71 28.07 5.38 1.98.44 3.47.97c3.15 1.11 3.82 2.44 3.01 5.99q-5.7 24.83-8.4 35.23c-3.06 11.8-6.1 26.58-9.31 38.8q-.26 1-.68 1.57zm-35.92-43.25a.55.55 0 0 0 .86.51c6.11-4.09 15.08-9.45 23.69-15.42q4.28-2.97 11.53-7.42c2.01-1.23 4.86-5.02 2.53-7.14a1.86 1.86 0 0 0-.91-.46l-50.8-9.31a1.53 1.53 0 0 0-1.73 1.04q-1.74 5.48-4.2 15.9-6.37 26.94-9.92 42.9a.89.88 13.4 0 0 .65 1.05c4.19 1.07 8.63 2.4 12.83 3.31q32.32 7.07 36.11 7.83 3.03.62 6.12.5a1.35 1.34 6.9 0 0 1.24-.96c2.57-8.72 3.76-15.58 6.42-24.98q1.59-5.58 2.66-12.13a.88.87 5.7 0 0-.84-1.02q-.69-.02-1.09.25-19.09 12.84-35.68 19.79-5.94 2.49-10.04-1.36-1.33-1.24-2.21-4.28c-2.01-6.94-1.44-17.87 7.94-18.36a2.4 2.36 58.1 0 1 1.33.32c3.86 2.29 3.86 5.35 3.51 9.44zm-770.04 28.48c.61 2.67-.28 5.19-3.4 5.68-3.41.54-6.4 1.8-9.56 2.73q-11.29 3.34-21.07 5.27c-2.45.48-5.33.32-7.33 1.01l-9.24 3.01q-5.91 1.32-12.61 3.59c-7.62 2.59-14.04 3.47-21.74 5.78q-17.26 5.18-35.14 9.44-10.46 2.48-13.97 3.67-.24.08-13.91 3.99-5.83 1.67-8.23 1.89c-3.89.35-7.1 1.9-10.94 2.78-11.29 2.61-18.32 4.59-26.14 5.99q-2.34.42-6.8 1.26c-4.98.95-7.17-5.59-8.74-10.13q-1.04-3-2.81-12.23a7.77 7.64 29.3 0 0-.37-1.27q-1.36-3.51-1.54-6.53-.25-4.2-.81-6.5-1.96-8.13-3.48-17.12a7.59 7.52 27.5 0 0-.65-2.03c-1.87-3.86-3.39-10.55-1.44-14.35 2.22-4.34 6.13-5.88 11.52-6.37q6.09-.55 11.31-2.42c6.09-2.18 10.67-2.33 16.56-4.47q6.52-2.35 14.51-3.7a7.95 7.36 27.8 0 0 1.6-.43c3.04-1.17 5.56-1.34 8.3-2.3q3.32-1.16 10.62-3.14 16.57-4.49 20.13-5.77c2.15-.78 5.25-1.11 7.5-1.91q9.18-3.27 12.21-3.78 3.85-.66 6.34-1.59 2.96-1.11 5.69-1.83 9.61-2.54 25.82-6.98c4.28-1.17 11.52-2.27 16.41-3.83 5.57-1.77 11.05-2.26 16.69-3.73q4.35-1.14 9.36-.73 3.62.3 4.53 1.76c2.13 3.4 4.12 8.13 4.59 12.12a8.11 8.03-59.8 0 0 .52 2.01q1.41 3.5 2.23 8.01a11.93 11.52-62.4 0 0 .73 2.47c3.81 9.01 6.4 20.26 9.86 30.39q1.63 4.76 2.89 10.29zm-31.81-50.47a1.01 1 72 0 0-1.22-.63c-12.57 3.68-27.23 6.94-39.31 10.2q-27.58 7.43-35.83 9.61c-6.31 1.66-13.74 2.91-20.67 4.74q-36.1 9.48-53.31 14.22-9.16 2.51-17.01 5.71c-2.95 1.2-5.75 2.37-4.99 6.31q3.41 17.63 9.04 36.38c1.13 3.78 1.77 6.83 6.21 5.9q3.2-.66 4.33-1c12.83-3.83 20.57-6.65 31.14-9.31q2.08-.52 62.52-16.86c7.5-2.02 15.02-3.36 23.59-5.78q9.6-2.72 44.69-11.85 3.26-.84 4.67-1.85a3.08 3.07 62.7 0 0 1.12-3.54l-14.97-42.25zm937.4 68.37a1.34 1.33-40.7 0 0-1.55-.11q-16.81 10.15-33.03 20.98c-13.42 8.97-25.01 15.64-41.01 25.84-9.84 6.28-23.28 14.33-31.94 19.7-4.45 2.77-8.33.87-11.45-2.61q-8.91-9.95-18.83-20.63a2.78 2.77-31 0 0-2.94-.73q-1.87.64-4.33 2.21-11.96 7.66-42.18 26.56c-2.65 1.66-6.36 3.4-9.17 1.18q-3.15-2.5-3.78-6.76c-.5-3.36 5.59-6.79 9.28-9.07q4.43-2.74 50.41-30.85 3.4-2.08 6.29-.13c3.5 2.38 6.56 5.08 9.32 8.34q6.94 8.19 15.49 16.3a1.11 1.1-40.1 0 0 1.38.11q38.53-25.91 84.07-54.27c6.52-4.06 15.18-10.33 22.68-14.36 3.86-2.08 8.19.96 10.63 3.76q13.32 15.32 25.16 29.8a1.31 1.3-33.7 0 0 1.64.32l61.19-34.13q14.04-7.73 23.58-13.28 5.12-2.98 9.72-4.32 1.82-.53 3.93.66 6.08 3.44 4.81 10.26a2.95 2.88 71.9 0 1-.72 1.46q-1.98 2.18-3.76 3.15-43.32 23.71-93.39 49.67c-6.12 3.17-10.45 6.31-15.05.75q-8.37-10.15-15.79-19.02-5.34-6.37-10.66-10.78zM384.39 840.94a2.74 2.73 87.7 0 1-1.46 1.59q-6.52 2.9-12.98 4.5-5.99 1.49-8.89 2.68c-3.5 1.43-7.54 1.85-11.93 3.3-9.75 3.24-24.29 6.92-34.82 10.55q-5.09 1.75-10.99 2.31a9.09 8.96-55.4 0 0-1.73.33q-8.22 2.36-14.5 4.78c-8.16 3.14-15.09 4.85-24.96 7.65q-9.91 2.8-17.45 5.52-4.87 1.75-28.88 8.35c-8.15 2.23-16.31 4.45-25.04 5.9a3.41 3.39-27.9 0 1-2.88-.88c-3.04-2.85-3.08-6.29-5.13-9.93q-1.24-2.18-2.41-5.09-4.75-11.83-6.65-19.05c-1.47-5.6-3.13-9.37-4.3-14.67q-.45-2.04-1.73-5.85-6.59-19.61-11.56-40.6-.93-3.92-3.25-11.13c-3.44-10.72-7.42-24.87-9.36-32.24-1.71-6.53-5.24-14.47-6.6-19.78q-.65-2.56.57-4.94c.9-1.76 4.37-2.45 5.67-2.87q2.44-.79 11.94-2.64 22.53-4.39 28.93-6.28 10.42-3.07 14.57-4.1c1.19-.29 2.83-1.23 4.13-1.52 5.79-1.29 11.33-3.43 17.42-4.46q2.48-.42 7.89-2.51a15.92 15.52 27.3 0 1 2.13-.65c7.01-1.58 12.64-3.58 18.74-4.86q13.16-2.75 26.38-7.18c1.69-.56 3.7-.78 5.29-.97a8.01 7.65 31.4 0 0 1.52-.33q10.79-3.6 15.45-4.61c8.61-1.86 13.6-2.48 20.54-5.24q5.1-2.02 14.88-4.58c5.86-1.53 6.92 1.96 8.77 7.04q3.67 10.06 5.41 17.75 1.03 4.56 1.81 6.74c.99 2.79 1.39 5.72 2.7 8.9q1.64 4 3.03 9.07c1.79 6.52 3.94 12.32 5.39 18.43a7.19 7.02-64.3 0 0 .41 1.22q1.14 2.52 1.31 3.16 4.13 15.14 5.18 19.78c.5 2.17 1.64 4.45 1.85 6.43.3 2.87 1.81 6.18 2.78 9.82 1.78 6.71 3.13 12.51 5.22 19.14q3.08 9.78 4.74 15.45c.88 2.98.77 5.77 2.03 8.24 1.28 2.51 1.67 5.89.82 8.33zm-75.11-98.18l31.91-9.52a2.02 2.02 0 0 0 1.36-2.51l-8.64-28.98a6.64 6.09 73.4 0 0-7.73-4.62l-24.11 7.18a6.64 6.09 73.4 0 0-3.94 8.11l8.64 28.98a2.02 2.02 0 0 0 2.51 1.36zm-17.69 5.07a3.62 3.62 0 0 0 2.51-4.51l-8.89-30.08a3.62 3.62 0 0 0-4.34-2.48l-28.93 7.19a3.62 3.62 0 0 0-2.62 4.48l8.57 30.96a3.62 3.62 0 0 0 4.45 2.53l29.25-8.09zm-47.97 12.95a3.59 3.59 0 0 0 2.58-4.5l-8.86-29.99a3.59 3.59 0 0 0-4.31-2.47l-27.93 6.95a3.59 3.59 0 0 0-2.58 4.5l8.86 29.99a3.59 3.59 0 0 0 4.31 2.47l27.93-6.95zm-46.34 11.71a3.23 3.23 0 0 0 2.32-4.04l-9.09-30.79a3.23 3.23 0 0 0-3.74-2.25l-31.65 6.41a3.23 3.23 0 0 0-2.45 4.08l9.48 32.14a3.23 3.23 0 0 0 3.88 2.22l31.25-7.77zm123.59 19.46a1.22 1.21 63.2 0 0 1.37.46q14.61-4.74 32.49-8.88 4.06-.94 3.36-5.25-.33-2-.71-3.2-4.32-13.84-9.42-26.7a1.37 1.36-13.7 0 0-1.4-.85q-3.4.33-5.13.89-11.97 3.89-25.45 7.03-2.39.56-4.12 1.63a2.33 2.32 65.9 0 0-1 2.63q7.53 25.95 9.14 30.75.14.43.87 1.49zm-54.35-23a2.02 2.02 0 0 0-1.4 2.52l9.6 32.49a2.02 2.02 0 0 0 2.51 1.37l29.12-8.61a2.02 2.02 0 0 0 1.37-2.51l-9.45-31.98a2.02 2.02 0 0 0-2.47-1.37l-29.28 8.09zm-46.45 11.12a3.08 3.08 0 0 0-2.15 3.79l8.65 31.26a3.08 3.08 0 0 0 3.71 2.16l29.83-7.42a3.08 3.08 0 0 0 2.21-3.86l-9.41-31.88a3.08 3.08 0 0 0-3.78-2.09l-29.06 8.04zm-14.28 7.54a3.78 3.78 0 0 0-4.54-2.6l-31.83 7.93a3.78 3.78 0 0 0-2.71 4.73l8.76 29.68a3.78 3.78 0 0 0 4.53 2.6l31.84-7.93a3.78 3.78 0 0 0 2.71-4.74l-8.76-29.67zm132.64 53.67q.86.05 1.31-.04 12.9-2.52 25.3-7.65c3.38-1.4 6.91-4.55 5.83-8.42q-2.34-8.37-8.25-25.45c-.55-1.6-.99-3.31-3.1-2.9q-3.94.76-17.8 5.32c-4.54 1.5-9.7 2.41-14.03 4.2a1.31 1.24-.7 0 0-.67.65q-.77 1.7-.23 3.28c3.31 9.83 5.69 20.58 10.38 30.16a1.52 1.51-10.8 0 0 1.26.85zm-46.45 12.24l29.96-8.19a2.47 2.47 0 0 0 1.73-3.04l-7.79-28.46a6.08 4.58 74.7 0 0-6.02-4.66l-25.89 7.09a6.08 4.58 74.7 0 0-2.81 7.07l7.79 28.46a2.47 2.47 0 0 0 3.03 1.73zm-54.5 8.08a4.13 4.13 0 0 0 4.96 2.84l31.38-7.81a4.13 4.13 0 0 0 2.97-5.18l-7.68-26.02a4.13 4.13 0 0 0-4.96-2.84l-31.38 7.81a4.13 4.13 0 0 0-2.97 5.18l7.68 26.02zm-11.6 7.97q.07-1.14-.18-1.95-5.35-17.59-7.64-27.21-1.08-4.54-5.95-3.61-16.87 3.21-28.26 7.57a1.44 1.44 0 0 0-.83.83c-.68 1.84.11 3.41.52 5.17q3.75 15.83 7.52 27.47a1.36 1.35 74.1 0 0 1.61.9l32.27-8.03a1.25 1.24 84.7 0 0 .94-1.14zm894.66-66.89c2.52-1.47 4.36-3.27 7.13-5.28q34.93-25.34 71.04-48.68 1.91-1.22 7.37-4.15 2.49-1.34 4.89.2c10.37 6.67 19.43 15.85 28.18 24.82q.89.91 2.76 1.67a1.34 1.32-47.6 0 0 1.12-.06q2.47-1.36 4.25-2.66 15.62-11.46 25.15-18.41 4.9-3.58 9.38-.54 5.59 3.8 12.21 8.98a2.39 2.38-39.5 0 0 2.56.24q1.86-.95 4.07-3.15 20.3-20.15 40.76-40.74 1.56-1.57 4.06-3.01c4.06-2.35 9.27.82 9.27 5.12q-.01 4.69-1.7 8.48-.82 1.84-5.55 6.68-16.04 16.41-37.41 35.87-5.76 5.25-10.53 8.09a4.56 4.47-56.4 0 1-2.87.61q-2.11-.25-4.65-1.58-6.9-3.59-13.47-6.98a2.87 2.85-44.3 0 0-2.56-.02q-3.46 1.72-5.49 3.07-12.75 8.51-25.44 16.82c-4.04 2.65-8.3 3.87-11.87-.28q-9.79-11.38-21.53-24.21-2.69-2.94-6.36-.75-5.76 3.45-11.24 7-21.9 14.22-47.9 32.09c-6.24 4.3-14.22 8.91-21.14 13.84-5.03 3.58-10.49 5.5-14.93.94q-11.29-11.61-21.76-21.12a2.66 2.65-36.1 0 0-2.88-.45q-6.58 2.95-16.77 6.58c-12.06 4.3-22.63 9.03-37.63 15.37-4.39 1.86-9.95 3.66-13-.96-2.58-3.93-1.38-9.09 3.34-10.94 21.5-8.45 48.94-21 58.87-25.18 3.62-1.52 6.92-2.84 10.63-1.8a3.15 3.06-17.2 0 1 1.1.56c8.11 6.39 15.6 13.56 23.15 20.58q1.28 1.19 4.59 3.32a.78.77-43.1 0 0 .8.02zm190.47 63.65q-2.1 1.26-5.47.52-.84-.18-22.04-4.59-15.83-3.29-110.33-22.58-1.98-.41-3.89-.57c-3.65-.3-6.72.03-8.49-2.76q-1.31-2.06-.86-5.1c.86-5.84 5.92-6.93 11.1-6.1 4.07.64 6.71.89 13.03 1.66 8.76 1.05 17.13 3.73 25.77 5.43q36.38 7.15 59.72 12.23 30.19 6.57 37.42 7.93 4.12.78 5.31 1.81c3.69 3.22 2.68 9.74-1.27 12.12zm-300.78-19.39c-1.39-3.81 1.39-7.21 4.81-8.5q1.97-.74 5.48.08c9.48 2.2 19.04 3.54 28.04 5.3q1.25.24 19.76 3.92 68.64 13.65 71.91 14.33c11.78 2.48 18.58 4.22 29.81 6.23q3.55.63 21.83 4.39 9.09 1.87 21.84 4.31l84.15 16.7q5.78 1.15 7.42 2.45c2.84 2.26 3.92 6.47 1.76 9.52q-3.26 4.6-9.29 3.3-19.01-4.12-43.84-9.33-20.24-4.25-25.95-5.44-27.75-5.78-58.98-12.06-24.84-5-81.67-16.02c-7.45-1.45-15.35-3.35-22.74-4.6-16.07-2.71-31.77-6.32-45.98-8.83-3.78-.66-7.1-2.27-8.36-5.75zM595.35 888.5a1.26 1.26 0 0 1-1.2-1.84q2.28-4.37 6-8.02c5.61-5.5 12.04-4.48 20.17-4.23 9.89.3 26.17 15.15 17.62 25.65a1.14 1.14 0 0 1-1.96-.33c-2.25-6.3-5.64-11.28-12.29-13.86-8.82-3.42-18.93-4.26-27 2.09q-.64.5-1.34.54zm-48.24 17.88a1.16 1.16 0 0 1-2.02.58q-3.67-4.18-5.36-5.72-11.58-10.55-27.34-5.45-6.67 2.16-10.49 5.91c-2.28 2.23-3.89 5.27-5.65 7.86a2.17 2.15-60.8 0 1-2.66.76q-.71-.32-.86-1.56c-.43-3.59-.63-6.02.75-9.33q4.6-11.01 16.59-14.08c6.66-1.71 15.18-1.38 21.69 2.21 6.4 3.53 16.63 10.69 15.35 18.82z"/></g><path d="M1314.63 309.08q-10.29 4.98-20.52 7.96-8.09 2.35-19.36 3.03-11.54.7-23.75-.02-4.84-.29-9.2-1.38-17.98-4.47-33.19-13.57c-26.21-15.7-44.82-42.76-51.52-72.46q-.51-2.28-1.37-10.41c-3.05-28.9 4.48-55.94 22.27-78.19 16.21-20.26 38.32-34.2 64.35-39.09q6.34-1.19 16.89-1.24 12.12-.04 17.01.34c10.54.82 22.63 4.39 32.49 9.07q40.13 19 56.04 58.72 8.37 20.9 8 43.13-.37 22-9.41 42.89-11.91 27.53-36.66 44.59-3.82 2.63-12.07 6.63zm-41.8-144.28a.92.91-86.7 0 1 1.02-.91q8 .95 13.5 6.72.71.75 2.65 4.4c2.25 4.25 3.84 5.99 8.92 5.66 8.5-.55 11.51-9.48 8.08-16.16-6.61-12.9-20.7-15.47-33.5-18.55a.86.85-82.3 0 1-.66-.87c.21-5.74.98-15.5-7.58-15.98q-5.69-.31-7.62 5.26a3.38 3.26 56.5 0 0-.2 1.08l-.23 9.28a1.32 1.32 0 0 1-1.17 1.28q-15.14 1.73-26.65 12.15-9.92 8.98-10.72 23c-.46 8.11 1.72 13.81 6.06 20.36 5.89 8.89 21.22 15.04 31.64 17.77a1.11 1.11 0 0 1 .82 1.07v37.22a1.66 1.66 0 0 1-1.99 1.63q-10.62-2.14-16.33-11.85c-1.49-2.55-2.88-8.76-5.59-10.72-5.52-3.97-16.29.95-15.92 8.22q.62 11.89 9.09 20.76c7.88 8.24 18.65 11.16 29.04 12.57a1.88 1.87 4.8 0 1 1.62 1.91c-.14 4.82-.77 11.72 3.5 14.53 4.29 2.82 9.81 1.03 11.67-3.88 1.16-3.05.48-8.11.79-11.26a1.6 1.6 0 0 1 1.28-1.41c11.3-2.3 20.89-5.9 28.55-14.9 7.92-9.32 10.31-23.75 5.24-35.96-6.52-15.71-19.41-21.24-34.59-25.72a1 .99 8.2 0 1-.72-.95V164.8zm-104.34 352.23q-2.78 14.62-4.97 22.98-1.64 6.26-3.74 11.22a1.44 1.42 14.4 0 1-1.48.86q-1.77-.22-23.04-4.11-16.01-2.92-31.24-7.23a1.63 1.63 0 0 1-1.19-1.5q-.23-4.95 1.11-11.01 6.9-31.13 9.54-43 .23-1.07 1.13-3.64.74-2.15 3.3-1.7 7.57 1.33 46.35 8.39 2.19.4 10.03 2.27 1.93.46 2.07 2.1c.22 2.59-5.08 5.22-7.55 6.51q-2.48 1.31-6.06 3.8-16.48 11.45-26.88 18.62a1.37 1.37 0 0 1-2.09-.74l-1.25-4.23a1.84 1.8 8.6 0 0-.77-1.02c-3.75-2.36-8.57-1.13-10.56 2.53q-1.94 3.55-.02 8.5 1.91 4.9 5.09 8.11c2.57 2.6 5.46 1.81 8.38.43q17.21-8.13 32.72-18.87a.72.72 0 0 1 1.12.73zm-66.58 111.81c.35-4.09.35-7.15-3.51-9.44a2.4 2.36 58.1 0 0-1.33-.32c-9.38.49-9.95 11.42-7.94 18.36q.88 3.04 2.21 4.28 4.1 3.85 10.04 1.36 16.59-6.95 35.68-19.79.4-.27 1.09-.25a.88.87 5.7 0 1 .84 1.02q-1.07 6.55-2.66 12.13c-2.66 9.4-3.85 16.26-6.42 24.98a1.35 1.34 6.9 0 1-1.24.96q-3.09.12-6.12-.5-3.79-.76-36.11-7.83c-4.2-.91-8.64-2.24-12.83-3.31a.89.88 13.4 0 1-.65-1.05q3.55-15.96 9.92-42.9 2.46-10.42 4.2-15.9a1.53 1.53 0 0 1 1.73-1.04l50.8 9.31a1.86 1.86 0 0 1 .91.46c2.33 2.12-.52 5.91-2.53 7.14q-7.25 4.45-11.53 7.42c-8.61 5.97-17.58 11.33-23.69 15.42a.55.55 0 0 1-.86-.51z" class="D"/><path d="M300.06 606.85l14.97 42.25a3.08 3.07 62.7 0 1-1.12 3.54q-1.41 1.01-4.67 1.85-35.09 9.13-44.69 11.85c-8.57 2.42-16.09 3.76-23.59 5.78q-60.44 16.34-62.52 16.86c-10.57 2.66-18.31 5.48-31.14 9.31q-1.13.34-4.33 1c-4.44.93-5.08-2.12-6.21-5.9q-5.63-18.75-9.04-36.38c-.76-3.94 2.04-5.11 4.99-6.31q7.85-3.2 17.01-5.71 17.21-4.74 53.31-14.22c6.93-1.83 14.36-3.08 20.67-4.74q8.25-2.18 35.83-9.61c12.08-3.26 26.74-6.52 39.31-10.2a1.01 1 72 0 1 1.22.63z" class="G"/><path d="M309.28 742.76a2.02 2.02 0 0 1-2.51-1.36l-8.64-28.98a6.64 6.09 73.4 0 1 3.94-8.11l24.11-7.18a6.64 6.09 73.4 0 1 7.73 4.62l8.64 28.98a2.02 2.02 0 0 1-1.36 2.51l-31.91 9.52zm-17.69 5.07l-29.25 8.09a3.62 3.62 0 0 1-4.45-2.53l-8.57-30.96a3.62 3.62 0 0 1 2.62-4.48l28.93-7.19a3.62 3.62 0 0 1 4.34 2.48l8.89 30.08a3.62 3.62 0 0 1-2.51 4.51zm-47.97 12.95l-27.93 6.95a3.59 3.59 0 0 1-4.31-2.47l-8.86-29.99a3.59 3.59 0 0 1 2.58-4.5l27.93-6.95a3.59 3.59 0 0 1 4.31 2.47l8.86 29.99a3.59 3.59 0 0 1-2.58 4.5zm-46.34 11.71l-31.25 7.77a3.23 3.23 0 0 1-3.88-2.22l-9.48-32.14a3.23 3.23 0 0 1 2.45-4.08l31.65-6.41a3.23 3.23 0 0 1 3.74 2.25l9.09 30.79a3.23 3.23 0 0 1-2.32 4.04zm123.59 19.46q-.73-1.06-.87-1.49-1.61-4.8-9.14-30.75a2.33 2.32 65.9 0 1 1-2.63q1.73-1.07 4.12-1.63 13.48-3.14 25.45-7.03 1.73-.56 5.13-.89a1.37 1.36-13.7 0 1 1.4.85q5.1 12.86 9.42 26.7.38 1.2.71 3.2.7 4.31-3.36 5.25-17.88 4.14-32.49 8.88a1.22 1.21 63.2 0 1-1.37-.46zm-54.35-23l29.28-8.09a2.02 2.02 0 0 1 2.47 1.37l9.45 31.98a2.02 2.02 0 0 1-1.37 2.51l-29.12 8.61a2.02 2.02 0 0 1-2.51-1.37l-9.6-32.49a2.02 2.02 0 0 1 1.4-2.52zm-46.45 11.12l29.06-8.04a3.08 3.08 0 0 1 3.78 2.09l9.41 31.88a3.08 3.08 0 0 1-2.21 3.86l-29.83 7.42a3.08 3.08 0 0 1-3.71-2.16l-8.65-31.26a3.08 3.08 0 0 1 2.15-3.79zm-14.28 7.54l8.76 29.67a3.78 3.78 0 0 1-2.71 4.74L180 829.95a3.78 3.78 0 0 1-4.53-2.6l-8.76-29.68a3.78 3.78 0 0 1 2.71-4.73l31.83-7.93a3.78 3.78 0 0 1 4.54 2.6zm132.64 53.67a1.52 1.51-10.8 0 1-1.26-.85c-4.69-9.58-7.07-20.33-10.38-30.16q-.54-1.58.23-3.28a1.31 1.24-.7 0 1 .67-.65c4.33-1.79 9.49-2.7 14.03-4.2q13.86-4.56 17.8-5.32c2.11-.41 2.55 1.3 3.1 2.9q5.91 17.08 8.25 25.45c1.08 3.87-2.45 7.02-5.83 8.42q-12.4 5.13-25.3 7.65-.45.09-1.31.04zm-46.45 12.24a2.47 2.47 0 0 1-3.03-1.73l-7.79-28.46a6.08 4.58 74.7 0 1 2.81-7.07l25.89-7.09a6.08 4.58 74.7 0 1 6.02 4.66l7.79 28.46a2.47 2.47 0 0 1-1.73 3.04l-29.96 8.19zm-54.5 8.08l-7.68-26.02a4.13 4.13 0 0 1 2.97-5.18l31.38-7.81a4.13 4.13 0 0 1 4.96 2.84l7.68 26.02a4.13 4.13 0 0 1-2.97 5.18l-31.38 7.81a4.13 4.13 0 0 1-4.96-2.84zm-11.6 7.97a1.25 1.24 84.7 0 1-.94 1.14l-32.27 8.03a1.36 1.35 74.1 0 1-1.61-.9q-3.77-11.64-7.52-27.47c-.41-1.76-1.2-3.33-.52-5.17a1.44 1.44 0 0 1 .83-.83q11.39-4.36 28.26-7.57 4.87-.93 5.95 3.61 2.29 9.62 7.64 27.21.25.81.18 1.95z" class="D"/><path d="M1272.83 164.8v35.75a1 .99 8.2 0 0 .72.95c15.18 4.48 28.07 10.01 34.59 25.72 5.07 12.21 2.68 26.64-5.24 35.96-7.66 9-17.25 12.6-28.55 14.9a1.6 1.6 0 0 0-1.28 1.41c-.31 3.15.37 8.21-.79 11.26-1.86 4.91-7.38 6.7-11.67 3.88-4.27-2.81-3.64-9.71-3.5-14.53a1.88 1.87 4.8 0 0-1.62-1.91c-10.39-1.41-21.16-4.33-29.04-12.57q-8.47-8.87-9.09-20.76c-.37-7.27 10.4-12.19 15.92-8.22 2.71 1.96 4.1 8.17 5.59 10.72q5.71 9.71 16.33 11.85a1.66 1.66 0 0 0 1.99-1.63v-37.22a1.11 1.11 0 0 0-.82-1.07c-10.42-2.73-25.75-8.88-31.64-17.77-4.34-6.55-6.52-12.25-6.06-20.36q.8-14.02 10.72-23 11.51-10.42 26.65-12.15a1.32 1.32 0 0 0 1.17-1.28l.23-9.28a3.38 3.26 56.5 0 1 .2-1.08q1.93-5.57 7.62-5.26c8.56.48 7.79 10.24 7.58 15.98a.86.85-82.3 0 0 .66.87c12.8 3.08 26.89 5.65 33.5 18.55 3.43 6.68.42 15.61-8.08 16.16-5.08.33-6.67-1.41-8.92-5.66q-1.94-3.65-2.65-4.4-5.5-5.77-13.5-6.72a.92.91-86.7 0 0-1.02.91zm-15.47 29.6l-.16-30.24a.15.15 0 0 0-.15-.15h-.12a15.49 15.27-.3 0 0-15.41 15.35 15.49 15.27-.3 0 0 15.57 15.19h.12a.15.15 0 0 0 .15-.15zm15.39 33.61l.1 29.7a.26.26 0 0 0 .26.26h.74a15.64 15.08-.2 0 0 15.59-15.14v-.06a15.64 15.08-.2 0 0-15.69-15.02h-.74a.26.26 0 0 0-.26.26z" class="F"/><path d="M1257.36 194.4a.15.15 0 0 1-.15.15h-.12a15.49 15.27-.3 0 1-15.57-15.19 15.49 15.27-.3 0 1 15.41-15.35h.12a.15.15 0 0 1 .15.15l.16 30.24zm15.39 33.61a.26.26 0 0 1 .26-.26h.74a15.64 15.08-.2 0 1 15.69 15.02v.06a15.64 15.08-.2 0 1-15.59 15.14h-.74a.26.26 0 0 1-.26-.26l-.1-29.7z" class="D"/></svg>