<svg xmlns="http://www.w3.org/2000/svg" viewBox="0 0 1536 1024" xmlns:v="https://vecta.io/nano"><style><![CDATA[.B{stroke:#838187}.C{stroke:#6c3e38}.D{fill:#d26225}.E{fill:#061a4a}.F{fill:#ffe7c4}.G{stroke:#6c3435}.H{stroke:#e9a575}.I{fill:#060644}.J{fill:#42657f}.K{stroke:#244065}]]></style><g fill="none" stroke-width="2"><path d="M1151.09 683.7c-4.41-15-10.23-29.68-15.65-43.89q-8.58-22.47-21.73-42.5-13.48-20.55-38.38-36.59-7.14-4.6-13.69-7.84-16.45-8.14-37.18-16.58-45.92-18.68-71.59-30.14-20.61-9.2-37.69-18.15a.45.44 21.2 0 0-.63.27q-5.37 19.78-18.29 36.48c-24.23 31.31-59.91 49.56-99.33 55.54-4.21.64-9.24.53-14.12 1.15q-4 .51-10.59.55-11.98.08-25.43-1.58-26.33-3.26-46.09-16.32c-13.24-8.75-23.33-23.78-23.27-39.7q.03-6.88 1-14.68a.6.6 0 0 0-.86-.61q-6.29 3.2-12.41 5.77-40.62 17.09-73.7 30.07c-9.91 3.89-19.51 8.38-30.9 13.62-10.05 4.62-18.36 9.59-26.95 17.31q-3.81 3.43-8.96 9.98-5.51 7.04-8.01 10.89a.91.91 0 0 0 .8 1.4c1.8-.06 3.73-.45 5.77-.45q61.37.04 96.55-.03c9.01-.02 16.33 5.21 16.33 14.84q.02 130.03-.04 263.49c0 8.24-8.92 10.75-15.55 10.75q-32.62-.02-51 .08-3.16.01-6.35-.55a.51.51 0 0 0-.57.66l21.14 67.2a1.47 1.35-61 0 1 .07.29l.31 2.25a2.26 2.25-1.1 0 0 2.02 1.94q37.61 3.64 78.88 6.13 160.69 9.71 326.5 2.28 9.85-.44 16.14-.93a.77.77 0 0 0 .69-.94q-.4-1.82-.36-4.16c.13-6.45 1.44-13.17 1.29-18.9-.14-5.76.87-12.06.81-18.14-.11-10.53.92-23.38 1.06-34.29q.27-20.12.2-33.14a.85.85 0 0 0-.86-.84q-5.84.1-11.44-1.16-4.94-1.12-5.37-5.33-3.07-29.49-4.11-64.46-.9-30.49.8-54.24 1.16-16.34 2.32-24.86 2.92-21.63 9.37-43.6 9.64-32.82 29.24-59.23 7.99-10.76 18.69-18.33 2.37-1.67 4.25 1.05a1.16 1.15-53.6 0 1 .15 1.02q-.68 2.07-1.31 2.76-10.95 12.09-21.73 31.31-17.38 30.98-23.81 63.1-3.06 15.25-4.25 25.53-2.45 21.11-3.07 44.24-.64 23.85.94 46.59 1.09 15.75 1.37 21.36.54 10.54 1.67 21.35a.85.84-89.2 0 0 .72.75q1.63.24 6.6.35 25.48.59 48.51-1.17c9.19-.71 15.29-.6 23.24-2.48a5.67 5.51 37.1 0 1 1.2-.15q3.46-.05 6.82-1.17" class="C"/><path d="M1093.38 849.1q-10.98 3.45-22.86 4.4c-11.15.9-16.87 1.61-25.4 1.41q-1.85-.04-21.82.46a.51.51 0 0 0-.5.51c.14 24.47-.96 48.03-1.8 72.19-.35 9.81-1.09 18.75-1.17 28.7q-.02 2.38-.98 7.83a.83.83 0 0 0 .86.97q59.02-3.24 116.5-8.81a.89.88-90 0 0 .79-.8l2.65-29.23a2.77 2.75 21.5 0 0-1.07-2.44c-2.72-2.1-4.36-4.02-6.45-6.33q-19.81-21.84-27.57-50.46-2.45-9.03-3.46-18.59" class="B"/><path d="M1087.45 422.94q5.9-.49 8.58-3.16 18.72-18.69 56.72-58.28 14.01-14.6 28.3-29.7 4.38-4.62 8.98-9.03 1.57-1.49 3.19-.49 14.98 9.28 40.79 26.22 1.6 1.05 4.21 2.38a1.78 1.77 35.1 0 0 2.1-.36c7.54-8.04 17.34-17.38 25.13-26.16 6.06-6.81 12.5-12.68 20.95-21.6l47.85-50.61q22.61-24.29 42.37-44.7a1.42 1.41 41.6 0 1 1.91-.11q8.4 6.78 14.92 13.81a.91.91 0 0 0 1.56-.48l8.72-56.68a.35.34-.6 0 0-.4-.39q-18.55 3.24-39.52 6.49-9.23 1.44-15.45 2.04a.71.71 0 0 0-.49 1.14c3.94 5.14 9.66 10.85 13.64 17.25.93 1.5.72 3.17-.4 4.34q-20.15 21-51.93 54.56l-47.35 49.41q-12.15 13.05-25.77 26.43a1.61 1.61 0 0 1-1.8.32q-2.15-.99-3.47-1.86-17.67-11.64-36.92-24.53c-2.11-1.41-4.07-2.23-5.99-.29l-46.05 47.61c-7.98 8.05-16.48 17.63-25.58 26.52-9.49 9.28-16.9 17.16-27.67 28.55q-5.57 5.9-11.84 10.45m-445.54-64.1q.52 12.05 3.47 26.63 5.41 26.7 18.01 48.51.29.5.55.64a.66.65-76.4 0 0 .98-.6q-.39-8.82-.33-17.1.03-3.21 1.05-5.52a1.55 1.53 37.9 0 1 2.61-.31q.49.61.83 2.22c2.17 10.43 2.53 19.97 3.03 31.83a8.39 8.28 29.9 0 0 1 3.62c2.89 5.34 6.46 9.29 11.62 15.9a.62.62 0 0 0 1.11-.44q-.91-9.63.2-22.5.12-1.43.7-2.26a1.38 1.38 0 0 1 2.46.39q.96 3.2 1.21 5.87.84 8.84 1.02 23.55c.04 3.03.75 4.72 2.49 6.93q5.51 7 12.77 12.2a.55.54 13.1 0 0 .86-.53q-2.08-12.77 1.09-25.53.21-.84 1.02-1.23a1.2 1.12-23.8 0 1 1.61.56q1.06 2.71 1.32 5.76 1.09 12.79.94 25.11a2.83 2.82 14 0 0 1.53 2.54l13.29 6.83a.79.79 0 0 0 1.15-.8c-.88-6.66-1.03-15.61 1.73-21.67a1.23 1.2 30.9 0 1 1.84-.44c1.75 1.32 2.22 5.79 2.29 7.42q.43 10.14.17 17.27a1.15 1.15 0 0 0 .85 1.16q8.33 2.23 18.08 3.07a1.24 1.23-89.4 0 0 1.33-1.31q-.6-9.74.05-17.87.31-3.93 1.45-6.84a1.32 1.32 0 0 1 2.12-.5c3.32 3 1.93 21.35 1.95 25.99a.72.72 0 0 0 .68.72q10.35.65 19.58-1.05a.74.74 0 0 0 .6-.75q-.31-7.42-.03-14.9.1-2.76 1.88-11.52.29-1.37 1.34-2.01a1.63 1.61 63.9 0 1 2.35.82q.76 1.97.87 4.24.46 8.86-.78 16.64-.3 1.94-.43 5.8a.8.8 0 0 0 .94.81c21.76-3.97 39.8-13.96 57.48-27.59q19.63-15.14 36.04-37.29 21.27-28.69 27.89-63.35 1.69-8.84 3.57-17.91" class="C"/><path d="M902.63 349.14q4.18 2.6 6.58 6a2.44 2.42-25.2 0 0 2.64.94q3.25-.9 5.44-2.54c10.44-7.8 17.82-19.5 24.37-32.49q8.57-16.96 12.14-36.29 1.34-7.25 1.07-16.59c-.24-8.78-4.67-20.81-15.2-20.68-5.57.08-12.21 5-15.38 8.78-3.19 3.79-6.37 8.45-9.15 13.74-1.48 2.83-4.67 9.42-7.76 13.9" class="B"/><path d="M907.38 283.91q-8.4-.04-15.63-4.87" class="C"/><path d="M891.75 279.04q-1.78-1.52-1.76-4.29.09-11.22-1.08-22.64-.89-8.66-2.8-14.92c-2.62-8.54-5.98-19.16-6.18-29.69q-.11-5.83 0-34.77a6.62 6.52-52.7 0 0-.21-1.65q-.84-3.1-2.31-5.47-4.21-6.75-7.89-14.26-11.15-22.76-3.47-46.37a.74.74 0 0 0-.71-.97c-8.29.11-15.71 2.04-24.31 4.01-11.42 2.6-21.72 7.6-33.13 10.95-13.88 4.09-29.78 7.2-44.56 7.23q-14.69.02-15.83 0-15.39-.28-31.27-4.2c-14.09-3.47-25.87-9.65-38.03-16.86a1.76 1.76 0 0 0-2.24.37c-5.06 5.97-12.28 12.66-17.27 19.31q-15.48 20.58-20.09 46.49-1.8 10.14-2.16 14.92c-1.11 14.81-1.69 32.08-.68 49.9q.6 10.44.29 27.37-.18 10.25-1.22 17.57-2.53 17.93-3.57 34.43-.61 9.77-.07 32.43" class="B"/><path d="M891.75 279.04q-.56 3.38-1.85 15.44-.78 7.28-4.05 21.87-4.13 18.41-12.95 35.09-6.34 11.99-16.51 19.46-6.7 4.93-16.75 6.76" class="H"/><path d="M839.64 377.66q2.06-4.91 2.3-7.48c2.44-26.33-18.15-42.09-40.86-49.81-1.79-.61-4.79-.71-6.41-.11a2.83 2.75-13.6 0 0-1.84 2.92q.27 2.39 2.66 3.57c8.62 4.27 17.9 8.68 25.21 14.95" class="B"/><path stroke="#f8d5b1" d="M820.7 341.7q.06 1.78-1.19 1.41-6.68-1.99-8.49-2.21-12.48-1.51-24.73-4.26-.81-.18-2.58-.16-1.69.02-2.38-.87"/><path d="M781.33 335.61c6.59-10.71 1.12-22.71-10.12-27.07q-1.79-.7-3.01-.17a2.2 2.13-29.3 0 0-.96 3.22q2.18 3.09 4.28 5.84 3.5 4.58 2.92 9.81c-.43 3.91-1.87 5.37-5.69 6.23-12.24 2.79-27.72 5.77-41.74 5.64q-7.05-.06-10.54-1.38-13.6-5.14-9.28-19.55c1.83-6.1 6.02-13.11 10.84-22.34q11.97-22.93 7.87-48.81c-.48-3.08-2.82-13.94-6.94-14.21q-1.85-.12-3.23 1.23a1.6 1.6 0 0 0-.47.85q-.61 2.89-.27 5.1c3.02 19.29 2.12 38.11-7.79 55.21q-5.31 9.14-8.88 16.91c-3.62 7.87-3.48 19.84 3.08 26.78" class="B"/><path stroke="#f8d5b1" d="M701.4 338.9q-9.29 2.64-18.46 3.08c-2.21.11-3.9.5-5.86.95a.96.92 52.5 0 1-.67-.1q-.63-.35-.58-1.05"/><path d="M675.83 341.78q3.89-4.3 8.7-8.02 3.37-2.61 2.39-6.59a1.52 1.52 0 0 0-1.81-1.11q-7.54 1.71-13.23 6.6c-10.43 8.97-16.5 18.77-14.8 32.83q.61 5.05 3.51 10.35" class="B"/><path d="M660.59 375.84q-11.07-.78-18.72-11.73-3.7-5.3-6.89-10.92a3.4 3.34-86.1 0 0-.82-.96q-2.59-2.09-2.96-4.3" class="H"/><path stroke="#7b6f74" d="M830.96 354.78q-3.53-7.36-10.26-13.08"/><path d="M660.59 375.84q4.54.41 5.17-1.28.51-1.37.37-2.83-.86-8.68.58-17.58" class="C"/><path stroke="#e19361" d="M666.71 354.15q1 6.3 5.68 7.94 3.51 1.23 7.11-1.39"/><path d="M679.5 360.7c-.62 2.49-2.48 4.25.6 6.24q1.44.93 2.46 1.62" class="C"/><path d="M682.56 368.56q-.34 2.61-.56 5.12-.23 2.61.03 5.12 1.62 15.81 6.53 31.45 4.74 15.08 13.98 24.82c2.53 2.66 4.83 3.98 7.6 6.26 4.33 3.56 8.49 4.49 12.78.56q2.97-2.72 7.19-4.76" class="H"/><path d="M730.11 437.13q8.5 2.97 17.97 2.87 2.59-.02 6.57-.57 3.46-.48 6.54-.91" class="C"/><path d="M761.19 438.52q3.19 3.04 6.67 5.33 3.92 2.58 7.15 2.59 3.63.01 7.38-2 10.62-5.72 18.05-14.76 19.22-23.38 22.79-53.4.3-2.5-.13-6.55-.23-2.11-2.07-2.26" class="H"/><path d="M821.03 367.47q2.47-2.91 1.41-7" class="C"/><path stroke="#e19361" d="M822.44 360.47q7.43 1.82 8.52-5.69"/><path d="M830.96 354.78q3.4 8.1 3.34 17c-.02 2.13.24 4 1.43 5.49q1.41 1.8 3.91.39" class="C"/><path d="M781.33 335.61c-3.27 4.66-11.31 6.03-16.85 6.96q-5.79.97-10.16 2.05-17.17 4.23-35.77 2.49-5.55-.52-9.37-2.38-4.59-2.23-7.78-5.83m-25.57 2.88q-6.25 6.21-9.12 12.37m155.73 6.32q-2.04-1.96-4.94-1.9a2.13 2.13 0 0 0-.96.25c-2.86 1.59-4.98 3.5-8.9 4.76q-15.92 5.09-31.14 5.99c-5.39.32-9.61 1.25-15.01 1.31q-22.68.27-39.85-.68-5.93-.32-12.35-2.04-9.48-2.54-14.54-4.36c-3.06-1.11-5.84-2.78-8.39-4.14q-4.14-2.21-6.86 1.04" stroke="#7b6f74"/><path d="M821.03 367.47l-4.69 2.54a1.31 1.31 0 0 0-.62.72c-1.84 4.99-3.53 9.66-6.23 14.07q-3.05 4.97-7.15 8.97-12.88 12.54-31.66 16.64-10.22 2.24-18.67 2.66-6.55.32-15.52-.84c-24.22-3.14-41.69-15.91-49.39-39.8q-.89-2.77-4.54-3.87" class="B"/><path d="M902.63 349.14q-.59-.55-.48-1.39 1.08-8.55.96-15.19-.07-3.71.59-8.6.37-2.74.3-8.66a14.45 14.02-40.5 0 1 .28-3c.94-4.74.34-9.98 1.21-14.45.55-2.89.38-6.73 1.1-10.21q.39-1.84.79-3.73" class="H"/><path d="M761.19 438.52c4.21-1.54 9.21-3.88 11.36-7.82a1.81 1.81 0 0 0-1.14-2.62q-1.57-.41-2.51-.24c-12.32 2.23-24.04 2.84-36.17.13-3.82-.86-7.42-2.28-11.09-2.1a1.74 1.74 0 0 0-1.66 1.73c-.04 5.46 6.46 8.09 10.13 9.53M621.04 321.55c.25-2.54-.31-5.5.01-8.39 1.14-10.49 1.76-22.45 3.49-34.18.57-3.83.25-7.39 1.24-11.23a4.25 4.24 48.7 0 0 .1-1.58q-.74-6.37-3.61-11.16-2.79-4.65-7.38-1.61-4.7 3.11-5.48 9.21-.95 7.39-.01 16.53 2.26 21.95 10.95 42.51a.36.36 0 0 0 .69-.1m269.36 97.3a.29.29 0 0 0-.54-.16c-10.25 20.51-24.98 37.57-42.14 52.87q-12.46 11.11-27.7 19.72-22.25 12.58-48.61 16.25-18.87 2.63-38.86-.88-14.92-2.63-28.65-9.83-5.37-2.81-9.89-6.79a.59.59 0 0 0-.98.46c.12 3.18.27 5.25-.11 7.7q-.67 4.38-.78 5.88c-.34 5.06-2.59 11.55-2.83 14.95q-.62 9.05.87 14.02 4.55 15.09 19.3 23.53 20.32 11.63 43.88 13.2 10.49.7 10.65.72c6.47.65 15.36-.42 21.77-.53q3.94-.06 11.14-1.16 20.48-3.11 38.82-10.87 27.13-11.47 46.96-33.98c6.42-7.27 11.09-16.24 14.83-24.42q3.31-7.23 4.8-14.91a1.65 1.65 0 0 0-.62-1.62c-3.05-2.33-6.37-5.4-7.84-8.94q-2.16-5.22-2.88-11.07-1.14-9.34-1.42-26.97-.13-8.69.83-17.17" class="B"/><path d="M1254.64 609.2a.87.87 0 0 0 .79-1.22c-3.61-8.12-8.22-16.28-12.67-25.82-2.96-6.35-9.05-16.85-6.03-21.44a1.64 1.33 35.1 0 1 2.16-.15q3.75 2.75 6.16 6.42 3.41 5.19 10.77 19.17 4.52 8.57 11.09 21.73a2.33 2.31-13.2 0 0 2.08 1.28h28.47a2.08 2.06 11.7 0 0 1.9-1.23q4.61-10.5 10-22.41c2.77-6.11 10.56-24.15 15.48-23.64a2.3 2.14-89.3 0 1 1.92 2.12q.25 3.81-1.18 7.56-6.68 17.51-15.42 36.39a.88.88 0 0 0 .8 1.26h15.68a3.61 3.61 0 0 0 2.73-1.25c5.88-6.79 10.52-13.52 16.13-20.34q20.17-24.51 23.21-28.16 1.86-2.22 3.26-4.64a1.25 1.25 0 0 0-.92-1.87q-3.7-.49-11.8-.71c-8.06-.22-13.33-3.44-17.85-9.69-4.94-6.84-10.24-11.74-19.25-9.16-8.44 2.41-16.46 6.2-23.01 8.45q-7.25 2.49-12.14 1.92c-6.77-.79-16.53-4.64-23.11-7.98-3.44-1.74-7.79-2.58-11.52-2.92-10.06-.91-14.42 5.26-21.68 13.06q-4.56 4.9-12.47 5.83-7.41.87-12.1 1.07c-3.12.13-6.51.94-9.17 2.34a1.76 1.75-22.9 0 0-.86 2.1c.55 1.68 1.82 3.73 3.08 5.21q27.16 31.79 39.07 45.43a3.78 3.77 69.3 0 0 2.84 1.29h13.56" class="C"/><path d="M591.81 845.83q-.13-6.07-.12-11.83.12-100.6.14-106 .02-5.13-4.8-5.12-18.78.02-32.77.08-3.14.01-3.15 2.66-.09 53.03.06 106.24.01 2.79-.29 7.02-.26 3.52-.3 7.04" class="K"/><path d="M550.58 845.92l-22.7.09" class="B"/><path d="M527.88 846.01q-.2-31.01-.03-61.84c.04-5.92.72-11.17.7-17.64a1.77 1.73 27.6 0 0-.33-1.02q-2.2-3.09-5.71-3.06-19.78.15-34.52.09a1.42 1.42 0 0 0-1.43 1.42l.04 82" class="K"/><path d="M486.6 845.96h-20.81" class="B"/><path d="M465.79 845.96q.2-9.19-.25-11.97-1.05-6.5 0-12.47a7.21 7.18 44.9 0 0-.01-2.58q-.82-4.35-.29-10.3c.6-6.81.69-12.03-.38-18.56a1.78 1.78 0 0 0-1.76-1.5h-36.46a2.23 2.23 0 0 0-2.17 1.73q-.99 4.32-1.08 8.44-.13 6.7.15 19.95 0 .29.52 10.7.41 8.1-.34 16.5" class="K"/><path d="M423.72 845.9l-74.69.11a.85.85 0 0 1-.85-.84q-.33-129.65.08-217.16.01-2.4-1.6-3.42c-3.12-1.96-9.84-1.73-9.85 3.62q-.07 77.78.07 224.3.01 4.6 4.86 4.6 140.07.05 255.76.01 4.47 0 10.38-.23a.46.45 89.4 0 0 .44-.46v-9.2a1.39 1.39 0 0 0-1.39-1.39l-15.12-.01" class="B"/><path d="M423.72 845.9l42.07.06m20.81 0l41.28.05m22.7-.09l41.23-.09" stroke="#a1a6a2"/><path d="M1327.72 636.67q-3-.58-9.97-.53c-16.55.1-43.41-.21-75.45-.04-3.36.01-5.15.72-7.86 2.32q-8.49 5.01-17.2 11.57-50.56 38.07-80.73 93.27-12.35 22.62-19.8 49.53-1.54 5.58-2.75 14.14-1.64 11.7-1.8 14.31c-.56 8.99-.59 20.73 1.02 30.64q3.82 23.49 14.92 42.32 12.38 20.99 34.74 35.34 2.14 1.38 5.58 3.12c4.65 2.37 9.48 5.49 14 7.6q12.42 5.82 26.62 9.84c5.76 1.63 10.39 2.21 17.18 3.55 15.09 2.98 29.2 3.97 48.3 4.37q20.27.42 40.87-1.43 32.82-2.95 62.97-15.99c20.58-8.9 39.23-22.86 52.27-40.99q4.99-6.95 6.1-8.9c12.69-22.35 16.96-48.89 14.37-74.15-3.22-31.39-15.52-62.4-32.6-88.77q-18-27.77-40.22-50.26c-7.18-7.26-18.67-17.12-25.63-23.15q-3.87-3.34-22.78-16.79a5.37 5.33-21.6 0 0-2.15-.92m-861.74 75.06q18.87 14.79 29.71 22.75 2.36 1.74 6.64 4.37 3.94 2.42 7.51-.26 2.7-2.03 3.08-2.42 9.18-9.78 56.42-60.85a1.81 1.81 0 0 1 2.43-.21q6.26 4.82 8.07 6.31c1.92 1.58 4.71 3.43 7.19 2.44 1.85-.75 2.29-4.03 2.56-5.98q2.35-17.05 3.55-27.63.38-3.28.5-6.89a2.81 2.8-74.1 0 0-1.4-2.53q-2.65-1.53-6.1-.67-18.73 4.65-30.31 8.43-4.87 1.59-8.78 4.69a2.99 2.74-30.3 0 0-1.01 3.25q.33.88 1.65 1.81 2.16 1.51 11.31 7.23a1.29 1.29 0 0 1 .28 1.95q-3.24 3.62-12.45 13.06-11.86 12.16-23.29 24.72-7.47 8.2-16.45 18.06a1.66 1.66 0 0 1-2.1.29q-4.37-2.73-8.29-5.59-13.52-9.87-24.39-18.3c-7.04-5.47-10.85-5.06-16.96 1.09q-10.14 10.22-37.75 39.75-.39.42-4.85 4.9-10.03 10.07-23.34 24.16-4.89 5.18-12.2 12.79c-3.83 4-10.48 10.09-3.04 14.16q6.02 3.29 11.7-2.71 13.34-14.11 26.97-28.89c15.79-17.13 30-31.62 50.67-53.11a1.85 1.85 0 0 1 2.47-.17" class="C"/><path d="M1155.905 210.038a72.8 71.9-4.2 0 0-77.87-66.375 72.8 71.9-4.2 0 0-67.339 77.039 72.8 71.9-4.2 0 0 77.87 66.375 72.8 71.9-4.2 0 0 67.339-77.039" class="B"/><path stroke="#061047" d="M344.3 120.47l-3.09-.53"/><path d="M341.21 119.94l-1.59-.18a2.94 2.89 67.7 0 1-1.5-.64q-1.69-1.39-2.7-2.71-7.8-10.1-13.42-15.2c-12.27-11.14-32.24-12.12-45.61-3.07q-7.97 5.39-11.94 13.26c-10.92 21.67.34 43.77 15.52 59.62q9.05 9.45 19.35 18.56 15.49 13.69 32.78 28.23 5.6 4.7 10.25 7.94a2.81 2.8 40.8 0 0 3.51-.25q11.21-10.45 24.51-22.22c9.52-8.43 18.28-16.87 27.24-25.41q6.68-6.36 14.06-16.34c10.57-14.33 15.86-33.04 7.09-49.34q-9.67-17.99-29.25-20.03-10.82-1.13-20.16 4.68c-8.48 5.28-13.14 12.04-19.75 20.75q-2.29 3.02-5.3 2.88" class="C"/><path d="M341.21 119.94q-2.15 3.92-1.27 10.29a2.35 2.31-5 0 0 2.41 1.99q2.11-.09 2.24-2.41c.2-3.26.38-6.11-.29-9.34m10.846 5.406a2.25 2.25 0 0 0-1.253-2.925l-.167-.067a2.25 2.25 0 0 0-2.925 1.254l-2.466 6.165a2.25 2.25 0 0 0 1.253 2.925l.167.067a2.25 2.25 0 0 0 2.925-1.254l2.466-6.165m7.901 8.132a2.33 2.33 0 0 0-.029-3.295l-.143-.14a2.33 2.33 0 0 0-3.295.029l-4.668 4.75a2.33 2.33 0 0 0 .029 3.295l.143.14a2.33 2.33 0 0 0 3.295-.029l4.668-4.75" class="G"/><path stroke="#8a6452" d="M323.74 177.45l9.55.21"/><path d="M333.29 177.66c.65 4.45 1.27 6.8 4.52 9.72a1.38 1.37 41.3 0 0 1.95-.12l1.41-1.62a1.44 1.43 41.7 0 0-.12-2.01c-1.77-1.6-2.58-3.42-2.59-6.1q-.02-11.02-.02-22.53a1.5 1.49-1.2 0 1 1.44-1.49l.13-.01a1.31 1.3-2 0 1 1.4 1.3l.04 10.9a2.41 2.41 0 0 0 2.64 2.39h.03a2.56 2.56 0 0 0 2.57-2.56l-.01-18.76a1.47 1.47 0 0 1 1.45-1.47h.06a1.49 1.48-89.8 0 1 1.47 1.49l.01 17.2a2.44 2.43 1 0 0 2.36 2.43l.3.02a2.34 2.32-87.7 0 0 2.5-2.32l.03-12.39a1.47 1.47 0 0 1 1.41-1.47h.14a1.37 1.37 0 0 1 1.46 1.37q-.03 14.24.04 20.5a2.65 2.63-84.8 0 0 2.13 2.57c2.22.43 3.8-2.52 5.71-4.92a1.56 1.55-56.7 0 1 1.96-.41l.05.03a1.28 1.28 0 0 1 .5 1.75q-4.38 7.75-11.21 12.45a1.29 1.29 0 0 0-.55 1.18q.14 1.75 1.77 2.8a1.26 1.25 46.6 0 0 1.32.04c6.18-3.57 9.14-7.99 12.5-13.04 4.05-6.07-1.79-12.46-8.49-9.51a.48.48 0 0 1-.67-.38q-.05-.33.01-11.68.05-8.01-7.82-7.93a.82.8-12.8 0 1-.75-.46q-2.65-5.61-8.84-3.94a1.27 1.27 0 0 0-.63.37l-2.87 3.07" class="G"/><path stroke="#8a6452" d="M342.03 144.12l-4.14-.64"/><path d="M337.89 143.48c-.21-2.3.13-5.25-.82-7.05q-1.64-3.08-5.35-3.8a2.95 2.79-43.4 0 0-1.01 0q-4.08.74-5.81 4.71a.96.96 0 0 1-.99.58q-5.16-.59-7.04 4.2a3.12 2.95-35.6 0 0-.22 1.13v14.28a.39.39 0 0 1-.58.34q-5.4-2.84-8.76 1.47c-1.79 2.28-1.87 5.21-.23 7.57 3.53 5.07 6.97 9.88 12.44 13.15q2.11 1.26 4.22-2.61" class="G"/><path d="M337.89 143.48q-1.65 4.48-4.78.97a1.56 1.55-65.9 0 1-.39-1.03v-4.35a1.24 1.24 0 0 0-1.24-1.24h-.28a1.52 1.52 0 0 0-1.52 1.52l-.03 17.31a2.34 2.33-89.1 0 1-2.41 2.34h-.21a2.46 2.46 0 0 1-2.52-2.46l-.02-12.33a1.45 1.44-.2 0 0-1.46-1.44h-.05a1.47 1.46 0 0 0-1.47 1.46l-.02 17.56a.76.75-83.8 0 0 .59.74q3.31.74 5.57 2.58a2.08 2.08 0 0 1 .53 2.57l-.26.52a2.37 2.37 0 0 1-3.37.93q-2.47-1.54-4.52-1.67c-1.61-.1-2.25.09-3.3-1.23q-1.72-2.15-2.8-3.36-.93-1.05-1.44-1.09-.92-.07-1.48 1.05a.72.72 0 0 0 .03.7q4.92 8.21 12.7 13.92m18.29-33.33q-.64 1.61-.72 3.69a.52.51-87.3 0 1-.54.5q-5.65-.35-7.34 5.02a2.99 2.88 55.2 0 0-.15.93l.01 23.4" stroke="#243662"/><path d="M767.4 222.6q1.69.8 3.37.56 8.85-1.25 18.22-1.82 14.84-.92 28.64 4.1 5.73 2.09 15.03 7.52c3.35 1.95 6.61 4.97 9.79 7.11q1.63 1.1 2.77.64a3.83 3.82 79.4 0 0 2.4-3.51c.05-3.69-3.01-8.56-5.46-11.4-15.17-17.59-37.83-23.23-60.27-19.89-6.21.92-13.09 4.74-14.99 11.24q-.39 1.32-.07 4.63a1.04 1.03-80.1 0 0 .57.82m-121.86 16.85c1.19 2.82 3.48 2.55 5.27.95 7.51-6.74 15.82-13.27 25.68-15.86 6.52-1.73 16.13-2.62 23.8-.99 4 .84 12.81 3.23 12.81-3.99-.02-11.58-18.77-14.11-26.88-13.77q-20.76.86-34.63 16.3c-3.04 3.39-8.28 12.09-6.05 17.36m169.41 16.93a.51.51 0 0 1 .79-.49q7.45 5.27 14.21 9.38 1.72 1.05 3.31.97a2.39 2.1 83.8 0 0 1.92-2.73c-1.5-9.69-14.96-17.61-23.64-20.34-6.47-2.04-15.27-1.9-21.54-1.18q-7.94.91-15.96 7.51-5.4 4.42-3.85 10.93a2 2 0 0 0 2.4 1.49q3.17-.72 5.88-2.97 4.93-4.09 10.44-5.92a.91.91 0 0 1 1.19.97c-.78 6.54.03 13.82 6.15 17.43 4.64 2.73 12.07 2.34 15.64-2.59q4.02-5.55 3.06-12.46m-114.24-.71q.88.72 2.68 2.67c2.4 2.6 8.98 5.22 8.92-1.13-.04-5.86-5.76-10.51-10.88-12.19-14.74-4.85-31.02-.79-41.54 10.08-2.29 2.37-4.82 6.19-4.54 9.39a2.39 2.03 1.5 0 0 2.11 1.89c3.54.38 6.06-2.34 10.05-5.37q3.28-2.49 6.47-3.8a.7.69-12 0 1 .96.62c.17 5.1 1.96 11.64 6.32 14.35 5.57 3.46 12.84 2.27 16.15-3.44q3.44-5.95 2.43-12.58a.54.53 15.4 0 1 .87-.49m140.222 14.178a12.05 3.84-175.8 0 0 11.736 4.712 12.05 3.84-175.8 0 0 12.299-2.947 12.05 3.84-175.8 0 0-11.736-4.712 12.05 3.84-175.8 0 0-12.299 2.947" class="B"/><path stroke="#837784" d="M1106.44 207.52q4.8-.03 12.2.02c2.41.01 3.6-.4 3.95-2.78q.04-.25.11-9.11.05-6.21-.92-8.98-2.59-7.42-11.58-7.47-2.89-.01-46.7.01c-8.78.01-14.52 6.37-14.49 15.27q.06 16.41.03 55.83a2.05 1.9-59.1 0 0 .17.81c1.21 2.67 3.62 1.74 5.72.32q8.29-5.58 9.36-6.26a.59.59 0 0 1 .65.01q3.93 2.74 9.08 6.1c1.75 1.14 3.09 2.31 5.2.9q7.11-4.75 10.27-6.87a.89.88-45.3 0 1 .98-.01q3.09 1.99 8.8 5.9 2.37 1.62 3.24 1.65c1.88.07 3.32-1.49 3.32-3.39q.01-28.25-.03-41.31a.65.64-.5 0 1 .64-.64"/><path d="M1099.71 243.88q-.03-26.27-.01-52.89 0-2.37.93-5.35a.42.42 0 0 0-.4-.54q-22.7.15-29.87.01-8.53-.17-10.58.77-4.96 2.27-4.96 8.63 0 48.35.01 49.11a.36.36 0 0 0 .54.3q2.16-1.24 6.92-4.61 1.94-1.38 3.55-.56.9.46 10.94 7.28a.87.87 0 0 0 .96 0l10.68-7.14a2.88 2.86-44.6 0 1 3.2.01l7.69 5.19a.26.25-72.6 0 0 .4-.21" class="G"/><path stroke="#243662" d="M1106.2 201.62l10.06-.02a.41.41 0 0 0 .41-.41l-.01-10.41a5.6 5.26 89.9 0 0-5.27-5.59h-.36a5.6 5.26 89.9 0 0-5.25 5.61l.01 10.41a.41.41 0 0 0 .41.41"/><path d="M1072.85 220.07a.46.44-50.8 0 1-.61.07l-8.75-6.56a2.83 2.83 0 0 0-4.02.64l-.11.16a3 2.99 36.9 0 0 .59 4.13q3.65 2.83 10.56 7.98c2.03 1.51 3.48 1.56 5.15-.33q18.76-21.4 19.48-22.27a2.95 2.94 39.9 0 0-.37-4.12l-.14-.12a2.95 2.94 41.4 0 0-4.17.26l-17.61 20.16" class="G"/><path d="M175.67 390.3h34.4a4.8 4.8 0 0 0 4.8-4.8v-33.29a7.17 6.17 90 0 0-6.17-7.17h-31.66a7.17 6.17-90 0 0-6.17 7.17v33.29a4.8 4.8 0 0 0 4.8 4.8m124.37-39.917a5.27 5.27 0 0 0-5.279-5.261l-31.96.056a5.27 5.27 0 0 0-5.261 5.279l.06 34.54a5.27 5.27 0 0 0 5.279 5.261l31.96-.056a5.27 5.27 0 0 0 5.261-5.279l-.06-34.54m103.75 17.007l.12 35.1a3.52 3.52 0 0 0 3.53 3.51l32.49-.11a5.43 5.25 89.8 0 0 5.23-5.45l-.1-31.28a5.43 5.25 89.8 0 0-5.27-5.41l-32.49.11a3.52 3.52 0 0 0-3.51 3.53m122.14.214a3.85 3.85 0 0 0-3.857-3.843l-33.38.058a3.85 3.85 0 0 0-3.843 3.857l.06 34.42a3.85 3.85 0 0 0 3.857 3.843l33.38-.058a3.85 3.85 0 0 0 3.843-3.857l-.06-34.42m-311.09 62.508a5.25 5.25 0 0 0-5.259-5.241l-33.54.059a5.25 5.25 0 0 0-5.241 5.259l.059 33.96a5.25 5.25 0 0 0 5.259 5.241l33.54-.059a5.25 5.25 0 0 0 5.241-5.259l-.059-33.96m47.14 39.188l33.8-.06a4.42 4.42 0 0 0 4.41-4.43l-.06-33.67a6.41 6.33-.1 0 0-6.42-6.32l-29.82.06a6.41 6.33-.1 0 0-6.4 6.34l.06 33.67a4.42 4.42 0 0 0 4.43 4.41m183.15-27a4.47 4.47 0 0 0-4.47-4.47H408.3a4.47 4.47 0 0 0-4.47 4.47v34.04a4.47 4.47 0 0 0 4.47 4.47h32.36a4.47 4.47 0 0 0 4.47-4.47V442.3m80.949.536a4.96 4.96 0 0 0-4.951-4.969l-31.28-.055a4.96 4.96 0 0 0-4.969 4.951l-.058 33.12a4.96 4.96 0 0 0 4.951 4.969l31.28.055a4.96 4.96 0 0 0 4.969-4.951l.058-33.12M217.03 542.14l38.39-.06a3.14 3.14 0 0 0 3.14-3.15l-.03-19.11A18.64 17.85-.1 0 0 239.86 502l-7.4.02a18.64 17.85-.1 0 0-18.61 17.88l.03 19.11a3.14 3.14 0 0 0 3.15 3.13m702.4-213.15q3.29.68 5.16-2.43c4.83-8.08 15.09-27.17 2.2-33.42a1.51 1.51 0 0 1-.78-1.82c1.8-5.61 4.22-9.79 8.77-14.64 2.63-2.79 7.58-7.45 7.29-10.5a2.3 2.17 82.8 0 0-2.51-2.07q-3.22.51-5.77 2.69c-8.92 7.63-18.48 19.89-19.01 31.98a1.04 1.04 0 0 0 .97 1.09c2.8.22 8.13.54 8.17 4.21q.07 5.44-1.5 10.4-1.66 5.25-4.28 12.15a1.77 1.76 16.5 0 0 1.29 2.36" class="B"/><path d="M882.181 363.855a15.67 2.96-85.2 0 0-4.261 15.367 15.67 2.96-85.2 0 0 1.638 15.863 15.67 2.96-85.2 0 0 4.261-15.367 15.67 2.96-85.2 0 0-1.638-15.863M862.68 418.47l3.02.2a1.26 1.26 0 0 0 1.34-1.18l1.03-15.52a13.36 2.52-86.2 0 0-1.63-13.5l-.5-.03a13.36 2.52-86.2 0 0-3.4 13.16l-1.03 15.53a1.26 1.26 0 0 0 1.17 1.34m-14.699-5.581a17.35 3.2-85.7 0 0-4.492 17.061 17.35 3.2-85.7 0 0 1.89 17.541 17.35 3.2-85.7 0 0 4.492-17.061 17.35 3.2-85.7 0 0-1.89-17.541m-23.635 21.641a16.97 3.22-86.6 0 0-4.221 16.749 16.97 3.22-86.6 0 0 2.208 17.131 16.97 3.22-86.6 0 0 4.221-16.749 16.97 3.22-86.6 0 0-2.208-17.131m-24.412 20.049a14.7 3.18-87.1 0 0-3.92 14.52 14.7 3.18-87.1 0 0 2.432 14.842 14.7 3.18-87.1 0 0 3.92-14.52 14.7 3.18-87.1 0 0-2.432-14.842" class="C"/><path stroke="#838da5" d="M700.77 374.94a.33.33 0 0 0-.39.39q.69 3.23 2.61 6.44 10 16.81 28.96 20.19 17.77 3.16 37.54-.52c15.04-2.8 28.48-13.07 33.8-27.71a.61.6-83 0 0-.63-.81q-2.54.26-4.44.78c-20.83 5.78-40.8 7.39-61.51 6.48-12.65-.55-22.86-2.67-35.94-5.24"/><path d="M690.46 670.85q.16 0 .2.03 3.67 2.71 7.16 5.49a1.17 1.16 19.3 0 1 .44.91v1.99a.98.97-71.9 0 0 .39.78l5.21 3.95a.45.45 0 0 0 .71-.24q.84-3.13 3.71-4.56a.34.33 50.3 0 0 .05-.57q-10.05-7.55-17.6-13.38-.05-.04-.27-.04-.23 0-.28.04-7.53 5.85-17.56 13.43a.34.33-50.4 0 0 .05.57q2.88 1.42 3.72 4.55a.45.45 0 0 0 .71.24l5.2-3.97a.98.97 71.7 0 0 .39-.78v-1.99a1.17 1.16-19.5 0 1 .43-.91q3.49-2.79 7.15-5.51.04-.03.19-.03m14.07 21.97l10.45 7.93a.23.23 0 0 0 .37-.18v-6.48a.4.39 0 0 0-.4-.39h-1.15a1.72 1.68 63.1 0 1-1.03-.35l-21.99-16.68a.52.52 0 0 0-.62 0l-21.87 16.64a2.01 1.98 26.1 0 1-1.2.4q-.38-.01-.42-.03a.45.45 0 0 0-.67.39l.03 6.04a.28.27 71.3 0 0 .44.22l9.94-7.56a.23.23 0 0 1 .37.19v25.8a1.25 1.23-71.7 0 0 .49.99l7.51 5.69a.36.36 0 0 0 .58-.28v-4.27a1.37 1.35 18.9 0 0-.54-1.08l-1.65-1.25a1.1 1.07 19.2 0 1-.43-.86v-29.53a.57.55-19.5 0 1 .22-.44l4.36-3.32a.09.09 0 0 1 .14.08v45.93a.27.27 0 0 1-.43.22l-12.57-9.54a.82.8-72.1 0 1-.32-.65v-21.11a.28.28 0 0 0-.45-.23l-7.21 5.48a.6.6 0 0 0-.04.92q1.71 1.55 1.91 3 .11.76.02 14.79a1.17 1.17 0 0 0 .46.93l21.33 16.18a.6.59 44.5 0 0 .73 0l21.24-16.15a1.17 1.16 72.2 0 0 .46-.91q.06-4.54-.01-13.65c-.01-1.64.77-3.52 2.17-4.23a.31.31 0 0 0 .05-.52l-7.64-5.79a.27.27 0 0 0-.43.21v21a1.1 1.09-18.8 0 1-.43.87l-12.35 9.39a.32.32 0 0 1-.51-.26v-45.38a.34.33 18.9 0 1 .54-.26l3.62 2.74a1.63 1.62 18.9 0 1 .64 1.29v28.95a1.13 1.13 0 0 1-.46.91l-1.56 1.19a1.54 1.53 71.4 0 0-.6 1.22v4.23a.32.32 0 0 0 .51.25l7.64-5.8a1.12 1.1 71.6 0 0 .43-.88v-25.84a.21.21 0 0 1 .33-.17m27.52 15.44q1.68 0 2.07.01a.62.61.2 0 1 .62.61v10.79a.27.27 0 0 0 .27.27H742a.29.28 0 0 0 .29-.28q.07-20.29-.02-28.84c-.07-6.56-5.37-6.12-10.21-6.12-4.85 0-10.15-.44-10.22 6.11q-.09 8.55-.03 28.84a.29.28 0 0 0 .29.28l6.99.01a.27.27 0 0 0 .27-.27v-10.79a.62.61-.2 0 1 .62-.62q.39 0 2.07 0m29.53-18.28q1.29 0 1.75.12a.93.92 7.5 0 1 .69.89v28.55a.41.41 0 0 0 .41.41h6.72a.43.42 90 0 0 .42-.43q.03-12.56.01-25.02c0-2.52.29-4.99-.95-7.13-1.93-3.33-5.58-2.67-9.05-2.67-3.48 0-7.12-.66-9.06 2.67-1.23 2.14-.94 4.61-.94 7.13q-.03 12.46 0 25.02a.43.42-90 0 0 .42.43h6.72a.41.41 0 0 0 .41-.41l.01-28.55a.93.92-7.5 0 1 .69-.89q.46-.12 1.75-.12m31.7 19.09v5.3a.88.88 0 0 1-.88.88h-3.7a.83.83 0 0 1-.83-.83V690.8a1.1 1.1 0 0 1 1.1-1.1h3.31a1 1 0 0 1 1 1v3.66a.7.7 0 0 0 .7.7h5.54a.87.87 0 0 0 .87-.82c.32-4.44-.16-9.34-5.66-9.47q-2.57-.07-6.59-.13c-4.68-.08-7.77 1.39-7.79 6.39q-.05 10.41-.07 20.9c-.01 5.11 1.18 8.58 6.72 8.58 5.17 0 12.52 1.22 13.26-5.02q.21-1.75.12-6.44a.26.26 0 0 0-.26-.26h-6.56a.28.28 0 0 0-.28.28m66.01-18.52a5.89 5.89 0 0 0-5.89-5.89h-8.72a5.89 5.89 0 0 0-5.89 5.89v24.02a5.89 5.89 0 0 0 5.89 5.89h8.72a5.89 5.89 0 0 0 5.89-5.89v-24.02m-40.11 15.72q1.99 0 2.36.01a.62.62 0 0 1 .6.62v12.77a.28.27-90 0 0 .27.28h7.02a.27.27 0 0 0 .27-.27v-34.16a.43.42-90 0 0-.42-.43h-6.75a.4.4 0 0 0-.4.4v13.6a.6.6 0 0 1-.59.6q-.25.01-2.36.01-2.11 0-2.36-.01a.6.6 0 0 1-.59-.6l-.01-13.6a.4.4 0 0 0-.4-.4l-6.75.01a.43.42 90 0 0-.42.43l.02 34.16a.27.27 0 0 0 .27.27l7.02-.01a.28.27 90 0 0 .27-.28l-.01-12.77a.62.62 0 0 1 .61-.62q.36-.01 2.35-.01m66.96-4.8c3.32-1.96 2.58-6.52 2.36-10.68-.26-4.8-3.69-5.77-8.04-5.71q-3.24.05-11.53.01a.42.42 0 0 0-.42.42v34.13a.3.3 0 0 0 .3.3h7.02a.31.3-90 0 0 .3-.31v-13.44a.52.51 0 0 1 .52-.51h3.28a.75.75 0 0 1 .75.75v13.16a.36.36 0 0 0 .36.36h6.89a.39.38 90 0 0 .38-.39v-14.28a2.63 2.62-57.9 0 0-.26-1.14q-.7-1.48-1.86-1.98a.39.39 0 0 1-.05-.69m-105.11 38.96q.35 0 .54.01a.72.71-88.8 0 1 .68.72v3.91a.58.58 0 0 0 .58.58h2.25a.59.58-90 0 0 .58-.59v-12.7a2.54 2.54 0 0 0-2.45-2.54q-.59-.02-2.16-.02-1.58 0-2.16.01a2.54 2.54 0 0 0-2.46 2.54l-.04 12.7a.59.58-89.8 0 0 .58.59h2.25a.58.58 0 0 0 .58-.57l.01-3.91a.72.71 89 0 1 .68-.72q.19-.01.54-.01m-14.96 5.2q1.47 0 1.48-.01a.88.87 88.8 0 0 .64-.67l2.99-14.5a.42.41 6.1 0 0-.41-.5h-2.31a.66.66 0 0 0-.65.57q-1.42 9.94-1.74 9.93-.33.01-1.74-9.94a.66.66 0 0 0-.65-.56h-2.31a.42.41-6.1 0 0-.41.5l2.98 14.5a.88.87-88.7 0 0 .64.67q.01.01 1.49.01m32.15 0a.48.48 0 0 0 .48-.48v-1.88a.48.48 0 0 0-.48-.48h-2.69a.48.48 0 0 1-.48-.48v-11.87a.48.48 0 0 0-.48-.48h-2.54a.48.48 0 0 0-.48.48v14.71a.48.48 0 0 0 .48.48h6.19m11.99-2.87l-2.42.05a.59.59 0 0 1-.6-.59l.05-11.7a.57.57 0 0 0-.57-.57h-2.38a.55.55 0 0 0-.55.55l-.04 14.48a.63.63 0 0 0 .63.63l5.89.02a.68.67-1.2 0 0 .68-.7l-.06-1.58a.62.61-1.4 0 0-.63-.59m5.7-4.95q0 6.77-.06 7.3a.47.46-86.7 0 0 .46.52h6.13a.67.67 0 0 0 .67-.67v-1.5a.63.63 0 0 0-.63-.63h-2.64a.56.56 0 0 1-.56-.56v-2.44a.62.62 0 0 1 .62-.62h2.05a.84.84 0 0 0 .82-.64q.08-.31.08-.76 0-.45-.08-.75a.84.84 0 0 0-.82-.64l-2.05-.01a.62.62 0 0 1-.62-.62v-2.44a.56.56 0 0 1 .56-.56l2.64.01a.63.63 0 0 0 .63-.63l.01-1.5a.67.67 0 0 0-.67-.67l-6.13-.01a.47.46 86.7 0 0-.46.52q.06.54.05 7.3m16.52 7.82q.61 0 1.18-.09a.71.7 85.8 0 0 .59-.7v-4.94a.58.55 57.4 0 1 .04-.21q1.89-5.22 3.12-8.98a.58.57 8.8 0 0-.55-.75h-1.72a1.07 1.07 0 0 0-1.04.82q-1.17 4.97-1.59 4.95-.42.02-1.56-4.96a1.07 1.07 0 0 0-1.04-.82l-1.72-.01a.58.57-8.5 0 0-.55.74q1.21 3.77 3.07 9a.58.55-57.1 0 1 .04.21l-.03 4.94a.71.7-85.5 0 0 .59.7q.57.09 1.17.1m54.68-7.964a.33.33 0 0 0-.331-.329l-38.62.067a.33.33 0 0 0-.329.331v.04a.33.33 0 0 0 .331.329l38.62-.067a.33.33 0 0 0 .329-.331v-.04m-136.7.294a.37.37 0 0 0-.37-.37H721.6a.37.37 0 0 0-.37.37v.04a.37.37 0 0 0 .37.37h28.44a.37.37 0 0 0 .37-.37v-.04" class="G"/><path d="M121.92 841.33l2.88 19.68" class="B"/><path d="M124.8 861.01q.12 2.51.25 4.99.12 2.26 2.24 2.3 5.57.09 10.45.36 1.48.08 2.65-.39a2.37 1.79-42.6 0 1 .3-.08q.53-.09 35.56-.07 40.2.02 86.86-.11c5.18-.02 4.99-2.67 4.73-6.83" class="C"/><path d="M267.84 861.18l4.12-26.24" class="B"/><path d="M271.96 834.94l-150.53-.56a.53.53 0 0 0-.53.49q-.15 1.86.09 2.42.35.86.47 2 .11 1.06.46 2.04" class="C"/><path d="M271.96 834.94l-150 .45a.33.33 0 0 0-.33.35l.29 5.59m145.92 19.85l-1.31 5.17a.67.66-82.6 0 1-.64.5q-69.12.09-138.25.02 1.54-.18 3.09-.13a.07.07 0 0 0 .05-.02q.02-.01.03-.01a.02.02 0 0 0 0-.04q-1.56-.02-2.85-.11a1.83 1.82-7.8 0 1-1.6-1.21l-1.56-4.34" class="H"/><g class="C"><path d="M256.28 879.72a.81.8-87.1 0 0-.8-.89H139.32a1.33 1.33 0 0 0-1.32 1.53q4.27 28.55 7.21 49.93c1.29 9.39 2.83 21.35 13.93 23.72q4.12.88 6.22.91 33.98.55 63.82-.03 9.65-.19 15.31-8.08a5.38 5.15-18.4 0 0 .69-1.31c2.5-6.95 3.5-13.76 4.44-20.69q3.03-22.12 5.77-37.19.26-1.43.89-7.9m1018.14-172.39q-2.94.39-6.61 1.04-15.7 2.78-27.12 13.42-8.14 7.59-11.51 16.51-3.82 10.1-2.69 19.96 1.96 16.95 15.24 29.04 13.5 12.29 32.53 14.93a.87.86-86.2 0 1 .75.86v46.06a.96.95 4.6 0 1-1.11.94q-10.75-1.77-19.85-5.67c-4.94-2.13-10.29-5.83-14.06-8.12q-2.32-1.41-4.42-1a1.78 1.72-73.8 0 0-.98.56c-4.68 5.29-7.81 11.55-11.25 18.11a2.17 2.17 0 0 0 .35 2.51c9.77 10.32 24.59 16.91 38.15 18.91q9.98 1.46 12.7 1.57a.63.63 0 0 1 .61.65q-.15 5.6-.1 13.81c.02 4.68-.41 7.86 4.96 8.31q5.66.48 10.39-.02c3.45-.37 4.07-4.1 4.09-6.96q.14-14 .15-16.13a.53.52-3.1 0 1 .47-.52q11.44-1.28 21.53-6.23c17.4-8.55 29.02-25.56 27.7-45.28q-.51-7.58-2.98-13.37c-8.47-19.83-26.12-27.97-45.95-33.33a1.11 1.11 0 0 1-.82-1.07v-41.41a.87.87 0 0 1 1.04-.85q14.05 2.87 27.49 9.84 2.15 1.12 3.6.01 2.73-2.08 5.36-6.32 3.9-6.31 7.89-13.73a1.9 1.89 38.7 0 0-.24-2.14q-.83-.95-3.09-2.25c-12.93-7.44-25.52-12.69-40.67-13.01a1.31 1.31 0 0 1-1.29-1.31q.01-6.19-.18-17.89c-.11-6.51-6.74-5.68-11.55-5.7-4.88-.03-7.8 1.46-7.82 6.74q-.04 6.98-.06 17.79a.75.75 0 0 1-.65.74"/><path d="M1275.08 771.17l-.06-34.96a.04.04 0 0 0-.04-.04h-.14a17.43 16.86 89.9 0 0-16.83 17.45v.18a17.43 16.86 89.9 0 0 16.89 17.41h.14a.04.04 0 0 0 .04-.04m19.52 38.5v38.32a.74.74 0 0 0 .91.72q13.31-3.01 16.84-15.59 1.85-6.58-1.14-13.2c-2.59-5.74-9.96-9.29-15.7-10.94a.72.71-82.1 0 0-.91.69"/></g><path d="M734.74 690.37a.64.64 0 0 0-.64-.64h-4.08a.64.64 0 0 0-.64.64v11.48a.64.64 0 0 0 .64.64h4.08a.64.64 0 0 0 .64-.64v-11.48m116.96.35a1.02 1.02 0 0 0-1.02-1.02h-3.28a1.02 1.02 0 0 0-1.02 1.02v23.54a1.02 1.02 0 0 0 1.02 1.02h3.28a1.02 1.02 0 0 0 1.02-1.02v-23.54m29.36.13a.56.56 0 0 0-.56-.56h-3.84a.56.56 0 0 0-.56.56v9.02a.56.56 0 0 0 .56.56h3.84a.56.56 0 0 0 .56-.56v-9.02m-98.834 41.978a.71.71 0 0 0-.711-.709l-1.06.002a.71.71 0 0 0-.709.711l.008 4.36a.71.71 0 0 0 .711.709l1.06-.002a.71.71 0 0 0 .709-.711l-.008-4.36" class="G"/></g><path d="M1151.09 683.7c-4.41-15-10.23-29.68-15.65-43.89q-8.58-22.47-21.73-42.5-13.48-20.55-38.38-36.59-7.14-4.6-13.69-7.84-16.45-8.14-37.18-16.58-45.92-18.68-71.59-30.14-20.61-9.2-37.69-18.15a.45.44 21.2 0 0-.63.27q-5.37 19.78-18.29 36.48c-24.23 31.31-59.91 49.56-99.33 55.54-4.21.64-9.24.53-14.12 1.15q-4 .51-10.59.55-11.98.08-25.43-1.58-26.33-3.26-46.09-16.32c-13.24-8.75-23.33-23.78-23.27-39.7q.03-6.88 1-14.68a.6.6 0 0 0-.86-.61q-6.29 3.2-12.41 5.77-40.62 17.09-73.7 30.07c-9.91 3.89-19.51 8.38-30.9 13.62-10.05 4.62-18.36 9.59-26.95 17.31q-3.81 3.43-8.96 9.98-5.51 7.04-8.01 10.89a.91.91 0 0 0 .8 1.4c1.8-.06 3.73-.45 5.77-.45q61.37.04 96.55-.03c9.01-.02 16.33 5.21 16.33 14.84q.02 130.03-.04 263.49c0 8.24-8.92 10.75-15.55 10.75q-32.62-.02-51 .08-3.16.01-6.35-.55a.51.51 0 0 0-.57.66l21.14 67.2a1.47 1.35-61 0 1 .07.29l.31 2.25a2.26 2.25-1.1 0 0 2.02 1.94q37.61 3.64 78.88 6.13 160.69 9.71 326.5 2.28 9.85-.44 16.14-.93a.77.77 0 0 0 .69-.94q-.4-1.82-.36-4.16c.13-6.45 1.44-13.17 1.29-18.9-.14-5.76.87-12.06.81-18.14-.11-10.53.92-23.38 1.06-34.29q.27-20.12.2-33.14a.85.85 0 0 0-.86-.84q-5.84.1-11.44-1.16-4.94-1.12-5.37-5.33-3.07-29.49-4.11-64.46-.9-30.49.8-54.24 1.16-16.34 2.32-24.86 2.92-21.63 9.37-43.6 9.64-32.82 29.24-59.23 7.99-10.76 18.69-18.33 2.37-1.67 4.25 1.05a1.16 1.15-53.6 0 1 .15 1.02q-.68 2.07-1.31 2.76-10.95 12.09-21.73 31.31-17.38 30.98-23.81 63.1-3.06 15.25-4.25 25.53-2.45 21.11-3.07 44.24-.64 23.85.94 46.59 1.09 15.75 1.37 21.36.54 10.54 1.67 21.35a.85.84-89.2 0 0 .72.75q1.63.24 6.6.35 25.48.59 48.51-1.17c9.19-.71 15.29-.6 23.24-2.48a5.67 5.51 37.1 0 1 1.2-.15q3.46-.05 6.82-1.17 2.17 4.44 2.11 10.18-10.98 3.45-22.86 4.4c-11.15.9-16.87 1.61-25.4 1.41q-1.85-.04-21.82.46a.51.51 0 0 0-.5.51c.14 24.47-.96 48.03-1.8 72.19-.35 9.81-1.09 18.75-1.17 28.7q-.02 2.38-.98 7.83a.83.83 0 0 0 .86.97q59.02-3.24 116.5-8.81a.89.88-90 0 0 .79-.8l2.65-29.23a2.77 2.75 21.5 0 0-1.07-2.44c-2.72-2.1-4.36-4.02-6.45-6.33q-19.81-21.84-27.57-50.46-2.45-9.03-3.46-18.59-1.35-11.98-.63-24.16 1.38-23.53 8.01-45.3 6.41-21.07 18.78-43.46 15.06-27.25 35.2-50.28 4.68-5.34 10.26-11.32 23.57-25.22 52.17-42.06a.91.91 0 0 0 .28-1.31c-1.54-2.2-3.38-4.38-3.86-6.86-1.15-5.83 1.53-9.03 5.75-12.68a.45.44 42.7 0 0-.03-.69q-1.07-.8-4.13-4.19-16.52-18.27-30.6-34.39c-3.92-4.48-9.47-10.23-9.25-16.15.43-11.95 13.79-14.42 23.51-14.76q7.02-.24 11.39-1.36c3.88-1 6.62-4.48 9.57-7.94 8.64-10.14 19.65-13.69 33-9.44q6.34 2.02 14.7 6.2c5.45 2.72 12.11 4.61 18.03 2.97q7.99-2.22 18.82-7.14c10.02-4.56 21.73-5.82 30.48 1.84 3.08 2.7 4.92 6.39 7.39 9.62 2.54 3.33 7.79 3.99 11.61 4.09 8.01.19 22.17-.07 24.13 9.69q.81 4.02-.76 6.88-2.49 4.56-8.88 12.1-3.13 3.69-9.98 12.02-13.71 16.67-25.12 29.86a1.21 1.21 0 0 0 .34 1.86q5.8 3.1 6.58 9.25c.53 4.22-.65 6.19-3.15 8.86-1.39 1.47-1.76 3.05.04 4.33q41.69 29.79 72.31 70.67 23.6 31.5 36.15 67.62 5.42 15.6 8.6 35.07.85 5.2 1.1 11.93.4 10.41.37 11.99-.27 14.21-1.64 22.71-4.82 29.82-23.23 53.72c-3.37 4.37-7.4 9.55-11.72 13.61q-21.93 20.54-50.49 31.67c-17.7 6.9-36.51 11.22-54.95 13.76q-1.94.26-12.67 1.34-7.35.74-12.7.88-26.2.71-40.39-.35-20.27-1.51-40.59-6.05c-23.56-5.27-44.47-14.97-63.6-28.89a.92.91-73.4 0 0-1.45.79q.29 6.51-.38 10.92-.64 4.29-.69 8.28-.03 2.29-1.18 8.24-.47 2.44-3.2 3.42a2.05 1.91 32.9 0 1-.56.1q-5.48.11-9.07.44c-160.79 14.85-322.67 16.98-484.01 7.08q-34.87-2.14-61.26-4.64-9.69-.92-21.37-1.63c-6.2-.37-10.65-2.28-12.57-8.52q-10.31-33.42-22.01-71.61a1.24 1.24 0 0 0-1.18-.87H403.72a.39.38 8 0 0-.37.27q-16.91 54.95-21.77 70.38-1.08 3.42-2.31 5.45a4.33 4.33 0 0 1-2.92 2.01q-6.41 1.18-13.61.85-4.43-.2-6.55-1.3a1.34 1.3 1.8 0 1-.6-.62q-1.7-3.51-.37-7.96 11.67-39.09 20.76-68.41a.6.59 8.6 0 0-.57-.77q-46.93.1-59.12-.06-5.68-.07-7.83-4.21-1.86-3.59-1.86-8.29.03-43.96.03-262.6 0-7.06 1.58-9.58 2.57-4.1 8.78-4.08 48.74.14 156.26.17 9.71 0 27.07-.2a1.84 1.82 13.8 0 0 1.57-.94q13.03-23.66 35.95-38.71c12.96-8.52 25.3-14.25 40.43-20.67l76.05-31.07c9.54-3.99 15.79-6.35 24.56-10.33 1.95-.88 3.43-1.05 3.48-3.71q.21-11.85-7.15-20.74-11.85-14.3-12.99-15.71-29.6-36.62-38.83-83.13-1.93-9.73-2.24-16.03c-.24-4.86-1.18-9.73-1.02-15.36a5.51 5.51 0 0 0-1.24-3.62q-6.16-7.51-9.98-16.62-9.18-21.91-10.48-45.71c-.52-9.36-.95-24.86 8.13-30.6q4.87-3.07 10.13-4.69a.87.87 0 0 0 .53-1.22l-.89-2.02a4.81 4.78-60.1 0 1-.38-1.42l-2.8-24.35a2.08.88-75.4 0 1-.01-.25q.05-5.43-.41-8.83c-1.13-8.16-.59-12.82-.67-25.06q-.07-11.46 1.19-19.31 1.94-12.07 3.93-18.94 4.04-13.91 12.84-26.66c10.08-14.62 19.22-25.79 31.6-36.17Q668.72 69.89 679 64c23.45-13.45 48.8-19.94 75.75-21.73q8.2-.55 27.61-.21 6.29.11 11.23.89c4.97.78 9.96 1.11 14.89 2.21q21.49 4.78 32.02 8.4 20.39 7.01 37.21 16.01 8.63 4.62 18.66 13.11c5.82 4.92 10.38 12.02 13.82 17.68 2.24 3.67 4.96 5.19 9.31 7.96 3.2 2.03 6.69 5.26 9.07 8.83q12.3 18.49 15.64 38.37 2.99 17.87 2.23 32.23-.69 13.12-.8 14.73-1.18 17.08-4.04 33.53a.78.78 0 0 0 .71.91c21.48 1.73 23.6 25.09 22.66 41.6q-.25 4.27-.78 7.44-3.84 22.74-14.16 43.2c-3.06 6.09-8.08 13.29-11.62 18.24q-5.63 7.86-13.85 13.91-6.98 5.14-16.06 6.42a1.88 1.86-3.5 0 0-1.61 1.8c-.04 1.98.04 4.67-.33 7.28q-1.75 12.31-3.12 20.47-.59 3.48-.7 5.99c-.11 2.61-.98 5.22-.89 7.97.14 4.15-.7 8.29-.92 12.45q-.98 18.75 1.04 36.8c.83 7.37 5.59 10.27 12.21 13.85q18.61 10.06 41.73 20.49 30.92 13.95 64.38 27.13 8.61 3.39 28.76 12.22c7.9 3.46 15.23 7.61 23.55 11.99q6.62 3.47 19.23 12.78 20.91 15.42 34.78 37.97c6.3 10.24 12.3 21.56 17.13 33.5q8.79 21.72 14.9 42.01c1.06 3.51.1 5.16-2.79 7.42q-2.45 1.91-4.76 3.85zM631.2 347.93q.52 12.05 3.47 26.63 5.41 26.7 18.01 48.51.29.5.55.64a.66.65-76.4 0 0 .98-.6q-.39-8.82-.33-17.1.03-3.21 1.05-5.52a1.55 1.53 37.9 0 1 2.61-.31q.49.61.83 2.22c2.17 10.43 2.53 19.97 3.03 31.83a8.39 8.28 29.9 0 0 1 3.62c2.89 5.34 6.46 9.29 11.62 15.9a.62.62 0 0 0 1.11-.44q-.91-9.63.2-22.5.12-1.43.7-2.26a1.38 1.38 0 0 1 2.46.39q.96 3.2 1.21 5.87.84 8.84 1.02 23.55c.04 3.03.75 4.72 2.49 6.93q5.51 7 12.77 12.2a.55.54 13.1 0 0 .86-.53q-2.08-12.77 1.09-25.53.21-.84 1.02-1.23a1.2 1.12-23.8 0 1 1.61.56q1.06 2.71 1.32 5.76 1.09 12.79.94 25.11a2.83 2.82 14 0 0 1.53 2.54l13.29 6.83a.79.79 0 0 0 1.15-.8c-.88-6.66-1.03-15.61 1.73-21.67a1.23 1.2 30.9 0 1 1.84-.44c1.75 1.32 2.22 5.79 2.29 7.42q.43 10.14.17 17.27a1.15 1.15 0 0 0 .85 1.16q8.33 2.23 18.08 3.07a1.24 1.23-89.4 0 0 1.33-1.31q-.6-9.74.05-17.87.31-3.93 1.45-6.84a1.32 1.32 0 0 1 2.12-.5c3.32 3 1.93 21.35 1.95 25.99a.72.72 0 0 0 .68.72q10.35.65 19.58-1.05a.74.74 0 0 0 .6-.75q-.31-7.42-.03-14.9.1-2.76 1.88-11.52.29-1.37 1.34-2.01a1.63 1.61 63.9 0 1 2.35.82q.76 1.97.87 4.24.46 8.86-.78 16.64-.3 1.94-.43 5.8a.8.8 0 0 0 .94.81c21.76-3.97 39.8-13.96 57.48-27.59q19.63-15.14 36.04-37.29 21.27-28.69 27.89-63.35 1.69-8.84 3.57-17.91 4.18 2.6 6.58 6a2.44 2.42-25.2 0 0 2.64.94q3.25-.9 5.44-2.54c10.44-7.8 17.82-19.5 24.37-32.49q8.57-16.96 12.14-36.29 1.34-7.25 1.07-16.59c-.24-8.78-4.67-20.81-15.2-20.68-5.57.08-12.21 5-15.38 8.78-3.19 3.79-6.37 8.45-9.15 13.74-1.48 2.83-4.67 9.42-7.76 13.9q-8.4-.04-15.63-4.87-1.78-1.52-1.76-4.29.09-11.22-1.08-22.64-.89-8.66-2.8-14.92c-2.62-8.54-5.98-19.16-6.18-29.69q-.11-5.83 0-34.77a6.62 6.52-52.7 0 0-.21-1.65q-.84-3.1-2.31-5.47-4.21-6.75-7.89-14.26-11.15-22.76-3.47-46.37a.74.74 0 0 0-.71-.97c-8.29.11-15.71 2.04-24.31 4.01-11.42 2.6-21.72 7.6-33.13 10.95-13.88 4.09-29.78 7.2-44.56 7.23q-14.69.02-15.83 0-15.39-.28-31.27-4.2c-14.09-3.47-25.87-9.65-38.03-16.86a1.76 1.76 0 0 0-2.24.37c-5.06 5.97-12.28 12.66-17.27 19.31q-15.48 20.58-20.09 46.49-1.8 10.14-2.16 14.92c-1.11 14.81-1.69 32.08-.68 49.9q.6 10.44.29 27.37-.18 10.25-1.22 17.57-2.53 17.93-3.57 34.43-.61 9.77-.07 32.43zm-10.16-26.38c.25-2.54-.31-5.5.01-8.39 1.14-10.49 1.76-22.45 3.49-34.18.57-3.83.25-7.39 1.24-11.23a4.25 4.24 48.7 0 0 .1-1.58q-.74-6.37-3.61-11.16-2.79-4.65-7.38-1.61-4.7 3.11-5.48 9.21-.95 7.39-.01 16.53 2.26 21.95 10.95 42.51a.36.36 0 0 0 .69-.1zm269.36 97.3a.29.29 0 0 0-.54-.16c-10.25 20.51-24.98 37.57-42.14 52.87q-12.46 11.11-27.7 19.72-22.25 12.58-48.61 16.25-18.87 2.63-38.86-.88-14.92-2.63-28.65-9.83-5.37-2.81-9.89-6.79a.59.59 0 0 0-.98.46c.12 3.18.27 5.25-.11 7.7q-.67 4.38-.78 5.88c-.34 5.06-2.59 11.55-2.83 14.95q-.62 9.05.87 14.02 4.55 15.09 19.3 23.53 20.32 11.63 43.88 13.2 10.49.7 10.65.72c6.47.65 15.36-.42 21.77-.53q3.94-.06 11.14-1.16 20.48-3.11 38.82-10.87 27.13-11.47 46.96-33.98c6.42-7.27 11.09-16.24 14.83-24.42q3.31-7.23 4.8-14.91a1.65 1.65 0 0 0-.62-1.62c-3.05-2.33-6.37-5.4-7.84-8.94q-2.16-5.22-2.88-11.07-1.14-9.34-1.42-26.97-.13-8.69.83-17.17zm364.24 190.35a.87.87 0 0 0 .79-1.22c-3.61-8.12-8.22-16.28-12.67-25.82-2.96-6.35-9.05-16.85-6.03-21.44a1.64 1.33 35.1 0 1 2.16-.15q3.75 2.75 6.16 6.42 3.41 5.19 10.77 19.17 4.52 8.57 11.09 21.73a2.33 2.31-13.2 0 0 2.08 1.28h28.47a2.08 2.06 11.7 0 0 1.9-1.23q4.61-10.5 10-22.41c2.77-6.11 10.56-24.15 15.48-23.64a2.3 2.14-89.3 0 1 1.92 2.12q.25 3.81-1.18 7.56-6.68 17.51-15.42 36.39a.88.88 0 0 0 .8 1.26h15.68a3.61 3.61 0 0 0 2.73-1.25c5.88-6.79 10.52-13.52 16.13-20.34q20.17-24.51 23.21-28.16 1.86-2.22 3.26-4.64a1.25 1.25 0 0 0-.92-1.87q-3.7-.49-11.8-.71c-8.06-.22-13.33-3.44-17.85-9.69-4.94-6.84-10.24-11.74-19.25-9.16-8.44 2.41-16.46 6.2-23.01 8.45q-7.25 2.49-12.14 1.92c-6.77-.79-16.53-4.64-23.11-7.98-3.44-1.74-7.79-2.58-11.52-2.92-10.06-.91-14.42 5.26-21.68 13.06q-4.56 4.9-12.47 5.83-7.41.87-12.1 1.07c-3.12.13-6.51.94-9.17 2.34a1.76 1.75-22.9 0 0-.86 2.1c.55 1.68 1.82 3.73 3.08 5.21q27.16 31.79 39.07 45.43a3.78 3.77 69.3 0 0 2.84 1.29h13.56zM591.81 845.83q-.13-6.07-.12-11.83.12-100.6.14-106 .02-5.13-4.8-5.12-18.78.02-32.77.08-3.14.01-3.15 2.66-.09 53.03.06 106.24.01 2.79-.29 7.02-.26 3.52-.3 7.04l-22.7.09q-.2-31.01-.03-61.84c.04-5.92.72-11.17.7-17.64a1.77 1.73 27.6 0 0-.33-1.02q-2.2-3.09-5.71-3.06-19.78.15-34.52.09a1.42 1.42 0 0 0-1.43 1.42l.04 82h-20.81q.2-9.19-.25-11.97-1.05-6.5 0-12.47a7.21 7.18 44.9 0 0-.01-2.58q-.82-4.35-.29-10.3c.6-6.81.69-12.03-.38-18.56a1.78 1.78 0 0 0-1.76-1.5h-36.46a2.23 2.23 0 0 0-2.17 1.73q-.99 4.32-1.08 8.44-.13 6.7.15 19.95 0 .29.52 10.7.41 8.1-.34 16.5l-74.69.11a.85.85 0 0 1-.85-.84q-.33-129.65.08-217.16.01-2.4-1.6-3.42c-3.12-1.96-9.84-1.73-9.85 3.62q-.07 77.78.07 224.3.01 4.6 4.86 4.6 140.07.05 255.76.01 4.47 0 10.38-.23a.46.45 89.4 0 0 .44-.46v-9.2a1.39 1.39 0 0 0-1.39-1.39l-15.12-.01zm735.91-209.16q-3-.58-9.97-.53c-16.55.1-43.41-.21-75.45-.04-3.36.01-5.15.72-7.86 2.32q-8.49 5.01-17.2 11.57-50.56 38.07-80.73 93.27-12.35 22.62-19.8 49.53-1.54 5.58-2.75 14.14-1.64 11.7-1.8 14.31c-.56 8.99-.59 20.73 1.02 30.64q3.82 23.49 14.92 42.32 12.38 20.99 34.74 35.34 2.14 1.38 5.58 3.12c4.65 2.37 9.48 5.49 14 7.6q12.42 5.82 26.62 9.84c5.76 1.63 10.39 2.21 17.18 3.55 15.09 2.98 29.2 3.97 48.3 4.37q20.27.42 40.87-1.43 32.82-2.95 62.97-15.99c20.58-8.9 39.23-22.86 52.27-40.99q4.99-6.95 6.1-8.9c12.69-22.35 16.96-48.89 14.37-74.15-3.22-31.39-15.52-62.4-32.6-88.77q-18-27.77-40.22-50.26c-7.18-7.26-18.67-17.12-25.63-23.15q-3.87-3.34-22.78-16.79a5.37 5.33-21.6 0 0-2.15-.92zm-861.74 75.06q18.87 14.79 29.71 22.75 2.36 1.74 6.64 4.37 3.94 2.42 7.51-.26 2.7-2.03 3.08-2.42 9.18-9.78 56.42-60.85a1.81 1.81 0 0 1 2.43-.21q6.26 4.82 8.07 6.31c1.92 1.58 4.71 3.43 7.19 2.44 1.85-.75 2.29-4.03 2.56-5.98q2.35-17.05 3.55-27.63.38-3.28.5-6.89a2.81 2.8-74.1 0 0-1.4-2.53q-2.65-1.53-6.1-.67-18.73 4.65-30.31 8.43-4.87 1.59-8.78 4.69a2.99 2.74-30.3 0 0-1.01 3.25q.33.88 1.65 1.81 2.16 1.51 11.31 7.23a1.29 1.29 0 0 1 .28 1.95q-3.24 3.62-12.45 13.06-11.86 12.16-23.29 24.72-7.47 8.2-16.45 18.06a1.66 1.66 0 0 1-2.1.29q-4.37-2.73-8.29-5.59-13.52-9.87-24.39-18.3c-7.04-5.47-10.85-5.06-16.96 1.09q-10.14 10.22-37.75 39.75-.39.42-4.85 4.9-10.03 10.07-23.34 24.16-4.89 5.18-12.2 12.79c-3.83 4-10.48 10.09-3.04 14.16q6.02 3.29 11.7-2.71 13.34-14.11 26.97-28.89c15.79-17.13 30-31.62 50.67-53.11a1.85 1.85 0 0 1 2.47-.17zm654.78-384.22v8.31a2.15 2.05 60.7 0 1-.26 1.02q-1.77 3.24-3.3 4.64-7.68 7.03-14.8 14.17c-2.64 2.64-8.1 7.77-12.14 7.99q-5.05.29-11.49.13c-7.5-.17-9.28-4.39-9.87-11.48q-.84-10.06-1.01-14.01-.11-2.63-1.03-5.6a1.84 1.83-2.7 0 0-1.38-1.25q-8.5-1.76-24.71-5.44-1.28-.29-5.03-.33c-2.15-.02-3.57 1.32-4.74 2.84q-8.7 11.26-10.64 13.58c-6.75 8.11-13.59 1.81-19.61-3.08q-10.83-8.8-21.97-17.27c-3.53-2.69-7.39-6.39-4.63-11.33q2.05-3.69 4.17-5.84 2.84-2.88 11.01-11.52a1.69 1.68 51.1 0 0 .21-2.03q-5.51-9.01-9.39-19.37c-5.22-13.97-6.91-20.4-12.91-29.87-2.97-4.68-6.76-7.61-10.77-10.29a2.62 2.61 5.6 0 1-.93-1.13c-1.99-4.76-.65-9.12-.48-13.77.25-7 .82-10.05 1.33-16.89q.04-.49 1.18-4.18c.79-2.53 5.56-3.68 8.12-3.9a2.36 2.36 0 0 0 2.1-1.8q4.02-16.49 10.32-31.4a2.53 2.53 0 0 0-.76-2.96q-5.54-4.42-10.71-10.09c-3.85-4.22-6.42-6.83-7.52-11.59-.75-3.21 5.39-10.26 7.69-12.72q13.01-13.89 14.3-15.19 3.53-3.55 7.47-6.31 3.74-2.62 7.9-.19 4.29 2.52 7.68 5.85 6.1 6.01 11.88 10.58a1.8 1.78 46.4 0 0 2.13.06q1.87-1.31 3.72-2.19 12.94-6.14 25.02-10.41a.63.62-10 0 0 .42-.59q.04-13.22-.48-21.06c-.38-5.71.55-11 6.55-12.06q19.02-3.35 35.78-2.29 7.26.46 8.35 7.99.5 3.51 1.56 20.74.04.55.91 3.79a1.49 1.46 8.8 0 0 .65.87q1.76 1.09 3.12 1.2 13 1.05 25.35 6.3a1.54 1.53 30.7 0 0 1.78-.45q7.9-9.73 13.55-16.24 1.61-1.85 3.88-3.62c4.85-3.76 10.24-.47 14.35 2.5q13 9.42 25.1 20.84c2.86 2.71 2.14 5.35.66 9.19q-.67 1.76-2.27 4.02-6.23 8.78-11.07 13.78a1.55 1.55 0 0 0-.15 1.99q9.61 13.39 16.56 26.66a1.17 1.14-13.4 0 0 1.03.62q9.72-.01 20.44-2.25 1-.21 4.85-.01c4.49.24 7.51 2.71 8.44 7.12q.53 2.53 5.27 30.55c.85 5.05 1.09 10.16-3.43 13.05q-3.58 2.29-7.69 3.14-8.16 1.69-17.1 3.98a1.79 1.79 0 0 0-1.3 1.3c-.4 1.53-.69 2.71-.88 4.29q-3.17 27.09-19.57 46.47-15.04 17.77-36.55 36.43c-7.67 6.65-14.62 11.14-23.33 14.64a1.48 1.47-10.9 0 0-.93 1.37zm35.145-117.472a72.8 71.9-4.2 0 0-77.87-66.375 72.8 71.9-4.2 0 0-67.339 77.039 72.8 71.9-4.2 0 0 77.87 66.375 72.8 71.9-4.2 0 0 67.339-77.039zM341.64 104.23a.85.85 0 0 0 1.34-.05c7.38-10.23 15.63-18.15 27.63-22.75q11.23-4.3 23.04-2.2c23.36 4.14 39.99 22.25 42.12 45.77q1.2 13.28-4.05 26.99c-7.46 19.47-24.87 33.93-39.59 48.04q-5.17 4.96-7.67 7c-3.45 2.81-6.37 6.12-10.13 9.43q-23.39 20.57-25.42 22.13c-5.56 4.26-8.92 2.24-14.15-2.13q-22.75-18.99-39.16-33.22-14.51-12.58-26.49-25.25c-6.57-6.93-14.14-17.07-17.68-26.2q-6.2-15.98-3.21-32.49c3.32-18.36 17.2-33.44 34.68-38.66 18.79-5.62 39.04 1.11 51.93 15.75q4.33 4.92 6.81 7.84zm2.66 16.24l-3.09-.53-1.59-.18a2.94 2.89 67.7 0 1-1.5-.64q-1.69-1.39-2.7-2.71-7.8-10.1-13.42-15.2c-12.27-11.14-32.24-12.12-45.61-3.07q-7.97 5.39-11.94 13.26c-10.92 21.67.34 43.77 15.52 59.62q9.05 9.45 19.35 18.56 15.49 13.69 32.78 28.23 5.6 4.7 10.25 7.94a2.81 2.8 40.8 0 0 3.51-.25q11.21-10.45 24.51-22.22c9.52-8.43 18.28-16.87 27.24-25.41q6.68-6.36 14.06-16.34c10.57-14.33 15.86-33.04 7.09-49.34q-9.67-17.99-29.25-20.03-10.82-1.13-20.16 4.68c-8.48 5.28-13.14 12.04-19.75 20.75q-2.29 3.02-5.3 2.88zm743.15 302.47q5.9-.49 8.58-3.16 18.72-18.69 56.72-58.28 14.01-14.6 28.3-29.7 4.38-4.62 8.98-9.03 1.57-1.49 3.19-.49 14.98 9.28 40.79 26.22 1.6 1.05 4.21 2.38a1.78 1.77 35.1 0 0 2.1-.36c7.54-8.04 17.34-17.38 25.13-26.16 6.06-6.81 12.5-12.68 20.95-21.6l47.85-50.61q22.61-24.29 42.37-44.7a1.42 1.41 41.6 0 1 1.91-.11q8.4 6.78 14.92 13.81a.91.91 0 0 0 1.56-.48l8.72-56.68a.35.34-.6 0 0-.4-.39q-18.55 3.24-39.52 6.49-9.23 1.44-15.45 2.04a.71.71 0 0 0-.49 1.14c3.94 5.14 9.66 10.85 13.64 17.25.93 1.5.72 3.17-.4 4.34q-20.15 21-51.93 54.56l-47.35 49.41q-12.15 13.05-25.77 26.43a1.61 1.61 0 0 1-1.8.32q-2.15-.99-3.47-1.86-17.67-11.64-36.92-24.53c-2.11-1.41-4.07-2.23-5.99-.29l-46.05 47.61c-7.98 8.05-16.48 17.63-25.58 26.52-9.49 9.28-16.9 17.16-27.67 28.55q-5.57 5.9-11.84 10.45-4.2-2.52-6.18-6.75a2.97 2.96 50.7 0 1 .29-3q2.98-4.09 6.04-7.14 45.92-45.84 71.84-73.41 10.14-10.78 17.51-18.16c4.53-4.54 7.56-8.15 12.26-13.06q4.76-4.97 7.75-6.64c4.44-2.47 7.93.6 12.12 3.5q19.91 13.81 30.45 21.35 1.45 1.03 3.26 2.57a1.4 1.4 0 0 0 1.96-.13q10.89-12.24 24.7-26.67 17.14-17.88 42.19-44.07 10.28-10.74 17.74-18.76 5.89-6.33 11.63-12.59 7.93-8.64 16.09-16.68a1.47 1.47 0 0 0 .08-2.01q-6.88-7.98-14.22-16.11-1.67-1.86-2.03-4.71c-.7-5.66 3.58-7.39 8.27-8.34q11.44-2.31 25.97-4.37 11.31-1.59 29.88-5.21 2.25-.44 14.45-2.25a3.87 3.84-40.7 0 1 1.69.12q4.55 1.32 6.26 5.42.8 1.93-.29 8.36-4.26 25.16-10.2 62.89c-.58 3.68-.67 7.01-2.37 10.32-1.93 3.76-8.19 2.76-10.82.67q-8.12-6.49-14.56-13.89a1 .99 42 0 0-1.57.08c-2.28 3.26-5.48 6.12-8.03 8.9l-53.13 56.76q-3.74 4.04-37.04 38.71-31.63 32.92-33.5 34.74c-4.23 4.09-8.02 2.33-12.75-.83q-8.92-5.98-37.86-24.81a.96.96 0 0 0-1.18.1c-9.04 8.52-16.81 17.19-25.39 25.95q-11.1 11.33-23.75 24.42l-37.14 38.11q-4.43 4.53-6.54 5.74c-5.49 3.17-10.54-3.95-13.17-8.21z" class="E"/><path d="M1087.45 422.94l-10.71-10.91q6.27-4.55 11.84-10.45l27.67-28.55c9.1-8.89 17.6-18.47 25.58-26.52l46.05-47.61c1.92-1.94 3.88-1.12 5.99.29q19.25 12.89 36.92 24.53 1.32.87 3.47 1.86a1.61 1.61 0 0 0 1.8-.32q13.62-13.38 25.77-26.43l47.35-49.41q31.78-33.56 51.93-54.56c1.12-1.17 1.33-2.84.4-4.34-3.98-6.4-9.7-12.11-13.64-17.25a.71.71 0 0 1 .49-1.14q6.22-.6 15.45-2.04 20.97-3.25 39.52-6.49a.35.34-.6 0 1 .4.39l-8.72 56.68a.91.91 0 0 1-1.56.48q-6.52-7.03-14.92-13.81a1.42 1.41 41.6 0 0-1.91.11q-19.76 20.41-42.37 44.7l-47.85 50.61c-8.45 8.92-14.89 14.79-20.95 21.6-7.79 8.78-17.59 18.12-25.13 26.16a1.78 1.77 35.1 0 1-2.1.36q-2.61-1.33-4.21-2.38-25.81-16.94-40.79-26.22-1.62-1-3.19.49-4.6 4.41-8.98 9.03-14.29 15.1-28.3 29.7-38 39.59-56.72 58.28-2.68 2.67-8.58 3.16z" class="D"/><path d="M126.93 541.42a.24.23-6.1 0 0 .19-.23V334.25a.61.6 88.7 0 0-.63-.61q-4.64.25-17.49-.09-3.63-.09-5.36-3.91c-1.69-3.75.82-6.54 3.83-8.95q66.55-53.14 119.33-94.34c1.43-1.12 3.45-2.3 5.5-3.53 3.56-2.15 8.48 1.1 11.57 3.5q54.29 42.14 78.63 60.2 21.05 15.62 43.88 33.59c2.24 1.76 4.35 4.29 4.52 7.3q.34 5.81-6.45 6.3-8.06.59-16 1.12a1.7 1.69-2 0 0-1.58 1.69v204.27a1.14 1.14 0 0 0 1.14 1.14h9.3a.83.83 0 0 0 .83-.83V347.23a1.73 1.73 0 0 1 1.53-1.72c11.48-1.31 20.66-4.63 21.61-17.7.43-5.92-2.83-8.84-5.68-13.4-2.58-4.12.18-7.98 2.66-12.16q9.08-15.28 14.78-24.7c3.41-5.64 8.64-11.91 15.43-13.38q1.62-.35 10.58-.38 22.53-.06 112.44-.13c10.18 0 15.64 11.99 19.95 19.62q1.91 3.37 5.23 8.43 4.42 6.72 12.67 20.51c3.69 6.17 7.1 11.01 11.6 17.56a4 3.63 21.7 0 1 .5 1.02c2.38 7.58-3.89 9.92-9.88 10.28a1.09 1.09 0 0 0-1.03 1.09q-.08 85.08.11 180.58c.02 5.15-.8 7.41-5.04 9.64q-7.88 4.14-20.77 9.68c-8.44 3.63-14.68 7.09-22.11 11.65-2.4 1.48-4.4 2.17-7.44 2.17q-312.91.02-406.53 0c-6.53-.01-9.28-5.61-6.79-10.94q1.69-3.61 7.07-3.49 12.42.26 15.22.28 1.11.01 2.68-.32zm48.74-151.12h34.4a4.8 4.8 0 0 0 4.8-4.8v-33.29a7.17 6.17 90 0 0-6.17-7.17h-31.66a7.17 6.17-90 0 0-6.17 7.17v33.29a4.8 4.8 0 0 0 4.8 4.8zm124.37-39.917a5.27 5.27 0 0 0-5.279-5.261l-31.96.056a5.27 5.27 0 0 0-5.261 5.279l.06 34.54a5.27 5.27 0 0 0 5.279 5.261l31.96-.056a5.27 5.27 0 0 0 5.261-5.279l-.06-34.54zm103.75 17.007l.12 35.1a3.52 3.52 0 0 0 3.53 3.51l32.49-.11a5.43 5.25 89.8 0 0 5.23-5.45l-.1-31.28a5.43 5.25 89.8 0 0-5.27-5.41l-32.49.11a3.52 3.52 0 0 0-3.51 3.53zm122.14.214a3.85 3.85 0 0 0-3.857-3.843l-33.38.058a3.85 3.85 0 0 0-3.843 3.857l.06 34.42a3.85 3.85 0 0 0 3.857 3.843l33.38-.058a3.85 3.85 0 0 0 3.843-3.857l-.06-34.42zm-311.09 62.507a5.25 5.25 0 0 0-5.259-5.241l-33.54.059a5.25 5.25 0 0 0-5.241 5.259l.059 33.96a5.25 5.25 0 0 0 5.259 5.241l33.54-.059a5.25 5.25 0 0 0 5.241-5.259l-.059-33.96zm47.14 39.188l33.8-.06a4.42 4.42 0 0 0 4.41-4.43l-.06-33.67a6.41 6.33-.1 0 0-6.42-6.32l-29.82.06a6.41 6.33-.1 0 0-6.4 6.34l.06 33.67a4.42 4.42 0 0 0 4.43 4.41zm183.15-27a4.47 4.47 0 0 0-4.47-4.47H408.3a4.47 4.47 0 0 0-4.47 4.47v34.04a4.47 4.47 0 0 0 4.47 4.47h32.36a4.47 4.47 0 0 0 4.47-4.47V442.3zm80.949.536a4.96 4.96 0 0 0-4.951-4.969l-31.28-.055a4.96 4.96 0 0 0-4.969 4.951l-.058 33.12a4.96 4.96 0 0 0 4.951 4.969l31.28.055a4.96 4.96 0 0 0 4.969-4.951l.058-33.12zM217.03 542.14l38.39-.06a3.14 3.14 0 0 0 3.14-3.15l-.03-19.11A18.64 17.85-.1 0 0 239.86 502l-7.4.02a18.64 17.85-.1 0 0-18.61 17.88l.03 19.11a3.14 3.14 0 0 0 3.15 3.13zm989.94-55.09l.18-93.55c.09-7.17 7.84-6.31 13.6-6.34q19.04-.07 39 .06c5.5.03 6.9 2.7 6.89 7.78q-.1 47.59-.02 92.06a1 .99 89.7 0 0 .99.99h13.34a1.72 1.72 0 0 0 1.71-1.53q.11-1.06.12-6.77.19-122.49.2-122.75c.2-6.12-.59-12.24 3.83-14.71q1.75-.99 6.79-1 19.41-.06 37.86.02c4.87.02 8.33 1.04 9.49 5.74q.88 3.6.87 8.98-.12 71.89.04 130.49a1.43 1.42 0 0 0 1.43 1.42H1357a1.34 1.34 0 0 0 1.34-1.35q-.04-20.45-.1-206.33 0-5.13 3.91-7.12 2.07-1.05 8.48-1.1 30.24-.21 39.1-.07 4.58.07 7.2 4.1 1.1 1.69 1.11 7.69.06 36.08.07 203.23a1.28 1.27 89.3 0 0 1.3 1.28q8.86-.21 14.84-.09c5.02.1 8.69 4.3 6.94 9.29-1.26 3.58-4.27 3.92-8 3.92q-272.7-.04-324.91.03c-5.44 0-7.78-5.51-5.37-9.56q2.22-3.72 7.44-3.76.74 0 19.08-.01a1 1 0 0 0 1-1q-.01-2.57-.03-54.3c0-4.47-.54-10.74 3.24-13.02q1.22-.73 5.57-.76 25.51-.17 42.91-.07c2.16.01 6.59-.09 7.33 2.62q.96 3.54.94 10.21-.1 36.65.01 54.95a1.26 1.26 0 0 0 1.26 1.25h14.39a.92.92 0 0 0 .92-.92z" class="E"/><path d="M1151.09 683.7c-29.02 35.3-52 78.69-59.64 123.76-.72 4.22-.71 7.95-1.32 11.23-.72 3.85-.4 8.03-.42 13.31q0 2.9 1.56 6.92-3.36 1.12-6.82 1.17a5.67 5.51 37.1 0 0-1.2.15c-7.95 1.88-14.05 1.77-23.24 2.48q-23.03 1.76-48.51 1.17-4.97-.11-6.6-.35a.85.84-89.2 0 1-.72-.75q-1.13-10.81-1.67-21.35-.28-5.61-1.37-21.36-1.58-22.74-.94-46.59.62-23.13 3.07-44.24 1.19-10.28 4.25-25.53 6.43-32.12 23.81-63.1 10.78-19.22 21.73-31.31.63-.69 1.31-2.76a1.16 1.15-53.6 0 0-.15-1.02q-1.88-2.72-4.25-1.05-10.7 7.57-18.69 18.33-19.6 26.41-29.24 59.23-6.45 21.97-9.37 43.6-1.16 8.52-2.32 24.86-1.7 23.75-.8 54.24 1.04 34.97 4.11 64.46.43 4.21 5.37 5.33 5.6 1.26 11.44 1.16a.85.85 0 0 1 .86.84q.07 13.02-.2 33.14c-.14 10.91-1.17 23.76-1.06 34.29.06 6.08-.95 12.38-.81 18.14.15 5.73-1.16 12.45-1.29 18.9q-.04 2.34.36 4.16a.77.77 0 0 1-.69.94q-6.29.49-16.14.93-165.81 7.43-326.5-2.28-41.27-2.49-78.88-6.13a2.26 2.25-1.1 0 1-2.02-1.94l-.31-2.25a1.47 1.35-61 0 0-.07-.29l-21.14-67.2a.51.51 0 0 1 .57-.66q3.19.56 6.35.55 18.38-.1 51-.08c6.63 0 15.55-2.51 15.55-10.75q.06-133.46.04-263.49c0-9.63-7.32-14.86-16.33-14.84q-35.18.07-96.55.03c-2.04 0-3.97.39-5.77.45a.91.91 0 0 1-.8-1.4q2.5-3.85 8.01-10.89 5.15-6.55 8.96-9.98c8.59-7.72 16.9-12.69 26.95-17.31 11.39-5.24 20.99-9.73 30.9-13.62q33.08-12.98 73.7-30.07 6.12-2.57 12.41-5.77a.6.6 0 0 1 .86.61q-.97 7.8-1 14.68c-.06 15.92 10.03 30.95 23.27 39.7q19.76 13.06 46.09 16.32 13.45 1.66 25.43 1.58 6.59-.04 10.59-.55c4.88-.62 9.91-.51 14.12-1.15 39.42-5.98 75.1-24.23 99.33-55.54q12.92-16.7 18.29-36.48a.45.44 21.2 0 1 .63-.27q17.08 8.95 37.69 18.15 25.67 11.46 71.59 30.14 20.73 8.44 37.18 16.58 6.55 3.24 13.69 7.84 24.9 16.04 38.38 36.59 13.15 20.03 21.73 42.5c5.42 14.21 11.24 28.89 15.65 43.89zm-460.63-12.85q.16 0 .2.03 3.67 2.71 7.16 5.49a1.17 1.16 19.3 0 1 .44.91v1.99a.98.97-71.9 0 0 .39.78l5.21 3.95a.45.45 0 0 0 .71-.24q.84-3.13 3.71-4.56a.34.33 50.3 0 0 .05-.57q-10.05-7.55-17.6-13.38-.05-.04-.27-.04-.23 0-.28.04-7.53 5.85-17.56 13.43a.34.33-50.4 0 0 .05.57q2.88 1.42 3.72 4.55a.45.45 0 0 0 .71.24l5.2-3.97a.98.97 71.7 0 0 .39-.78v-1.99a1.17 1.16-19.5 0 1 .43-.91q3.49-2.79 7.15-5.51.04-.03.19-.03zm14.07 21.97l10.45 7.93a.23.23 0 0 0 .37-.18v-6.48a.4.39 0 0 0-.4-.39h-1.15a1.72 1.68 63.1 0 1-1.03-.35l-21.99-16.68a.52.52 0 0 0-.62 0l-21.87 16.64a2.01 1.98 26.1 0 1-1.2.4q-.38-.01-.42-.03a.45.45 0 0 0-.67.39l.03 6.04a.28.27 71.3 0 0 .44.22l9.94-7.56a.23.23 0 0 1 .37.19v25.8a1.25 1.23-71.7 0 0 .49.99l7.51 5.69a.36.36 0 0 0 .58-.28v-4.27a1.37 1.35 18.9 0 0-.54-1.08l-1.65-1.25a1.1 1.07 19.2 0 1-.43-.86v-29.53a.57.55-19.5 0 1 .22-.44l4.36-3.32a.09.09 0 0 1 .14.08v45.93a.27.27 0 0 1-.43.22l-12.57-9.54a.82.8-72.1 0 1-.32-.65v-21.11a.28.28 0 0 0-.45-.23l-7.21 5.48a.6.6 0 0 0-.04.92q1.71 1.55 1.91 3 .11.76.02 14.79a1.17 1.17 0 0 0 .46.93l21.33 16.18a.6.59 44.5 0 0 .73 0l21.24-16.15a1.17 1.16 72.2 0 0 .46-.91q.06-4.54-.01-13.65c-.01-1.64.77-3.52 2.17-4.23a.31.31 0 0 0 .05-.52l-7.64-5.79a.27.27 0 0 0-.43.21v21a1.1 1.09-18.8 0 1-.43.87l-12.35 9.39a.32.32 0 0 1-.51-.26v-45.38a.34.33 18.9 0 1 .54-.26l3.62 2.74a1.63 1.62 18.9 0 1 .64 1.29v28.95a1.13 1.13 0 0 1-.46.91l-1.56 1.19a1.54 1.53 71.4 0 0-.6 1.22v4.23a.32.32 0 0 0 .51.25l7.64-5.8a1.12 1.1 71.6 0 0 .43-.88v-25.84a.21.21 0 0 1 .33-.17zm27.52 15.44q1.68 0 2.07.01a.62.61.2 0 1 .62.61v10.79a.27.27 0 0 0 .27.27H742a.29.28 0 0 0 .29-.28q.07-20.29-.02-28.84c-.07-6.56-5.37-6.12-10.21-6.12-4.85 0-10.15-.44-10.22 6.11q-.09 8.55-.03 28.84a.29.28 0 0 0 .29.28l6.99.01a.27.27 0 0 0 .27-.27v-10.79a.62.61-.2 0 1 .62-.62q.39 0 2.07 0zm29.53-18.28q1.29 0 1.75.12a.93.92 7.5 0 1 .69.89v28.55a.41.41 0 0 0 .41.41h6.72a.43.42 90 0 0 .42-.43q.03-12.56.01-25.02c0-2.52.29-4.99-.95-7.13-1.93-3.33-5.58-2.67-9.05-2.67-3.48 0-7.12-.66-9.06 2.67-1.23 2.14-.94 4.61-.94 7.13q-.03 12.46 0 25.02a.43.42-90 0 0 .42.43h6.72a.41.41 0 0 0 .41-.41l.01-28.55a.93.92-7.5 0 1 .69-.89q.46-.12 1.75-.12zm31.7 19.09v5.3a.88.88 0 0 1-.88.88h-3.7a.83.83 0 0 1-.83-.83V690.8a1.1 1.1 0 0 1 1.1-1.1h3.31a1 1 0 0 1 1 1v3.66a.7.7 0 0 0 .7.7h5.54a.87.87 0 0 0 .87-.82c.32-4.44-.16-9.34-5.66-9.47q-2.57-.07-6.59-.13c-4.68-.08-7.77 1.39-7.79 6.39q-.05 10.41-.07 20.9c-.01 5.11 1.18 8.58 6.72 8.58 5.17 0 12.52 1.22 13.26-5.02q.21-1.75.12-6.44a.26.26 0 0 0-.26-.26h-6.56a.28.28 0 0 0-.28.28zm66.01-18.52a5.89 5.89 0 0 0-5.89-5.89h-8.72a5.89 5.89 0 0 0-5.89 5.89v24.02a5.89 5.89 0 0 0 5.89 5.89h8.72a5.89 5.89 0 0 0 5.89-5.89v-24.02zm-40.11 15.72q1.99 0 2.36.01a.62.62 0 0 1 .6.62v12.77a.28.27-90 0 0 .27.28h7.02a.27.27 0 0 0 .27-.27v-34.16a.43.42-90 0 0-.42-.43h-6.75a.4.4 0 0 0-.4.4v13.6a.6.6 0 0 1-.59.6q-.25.01-2.36.01-2.11 0-2.36-.01a.6.6 0 0 1-.59-.6l-.01-13.6a.4.4 0 0 0-.4-.4l-6.75.01a.43.42 90 0 0-.42.43l.02 34.16a.27.27 0 0 0 .27.27l7.02-.01a.28.27 90 0 0 .27-.28l-.01-12.77a.62.62 0 0 1 .61-.62q.36-.01 2.35-.01zm66.96-4.8c3.32-1.96 2.58-6.52 2.36-10.68-.26-4.8-3.69-5.77-8.04-5.71q-3.24.05-11.53.01a.42.42 0 0 0-.42.42v34.13a.3.3 0 0 0 .3.3h7.02a.31.3-90 0 0 .3-.31v-13.44a.52.51 0 0 1 .52-.51h3.28a.75.75 0 0 1 .75.75v13.16a.36.36 0 0 0 .36.36h6.89a.39.38 90 0 0 .38-.39v-14.28a2.63 2.62-57.9 0 0-.26-1.14q-.7-1.48-1.86-1.98a.39.39 0 0 1-.05-.69zm-105.11 38.96q.35 0 .54.01a.72.71-88.8 0 1 .68.72v3.91a.58.58 0 0 0 .58.58h2.25a.59.58-90 0 0 .58-.59v-12.7a2.54 2.54 0 0 0-2.45-2.54q-.59-.02-2.16-.02-1.58 0-2.16.01a2.54 2.54 0 0 0-2.46 2.54l-.04 12.7a.59.58-89.8 0 0 .58.59h2.25a.58.58 0 0 0 .58-.57l.01-3.91a.72.71 89 0 1 .68-.72q.19-.01.54-.01zm-14.96 5.2q1.47 0 1.48-.01a.88.87 88.8 0 0 .64-.67l2.99-14.5a.42.41 6.1 0 0-.41-.5h-2.31a.66.66 0 0 0-.65.57q-1.42 9.94-1.74 9.93-.33.01-1.74-9.94a.66.66 0 0 0-.65-.56h-2.31a.42.41-6.1 0 0-.41.5l2.98 14.5a.88.87-88.7 0 0 .64.67q.01.01 1.49.01zm32.15 0a.48.48 0 0 0 .48-.48v-1.88a.48.48 0 0 0-.48-.48h-2.69a.48.48 0 0 1-.48-.48v-11.87a.48.48 0 0 0-.48-.48h-2.54a.48.48 0 0 0-.48.48v14.71a.48.48 0 0 0 .48.48h6.19zm11.99-2.87l-2.42.05a.59.59 0 0 1-.6-.59l.05-11.7a.57.57 0 0 0-.57-.57h-2.38a.55.55 0 0 0-.55.55l-.04 14.48a.63.63 0 0 0 .63.63l5.89.02a.68.67-1.2 0 0 .68-.7l-.06-1.58a.62.61-1.4 0 0-.63-.59zm5.7-4.95q0 6.77-.06 7.3a.47.46-86.7 0 0 .46.52h6.13a.67.67 0 0 0 .67-.67v-1.5a.63.63 0 0 0-.63-.63h-2.64a.56.56 0 0 1-.56-.56v-2.44a.62.62 0 0 1 .62-.62h2.05a.84.84 0 0 0 .82-.64q.08-.31.08-.76 0-.45-.08-.75a.84.84 0 0 0-.82-.64l-2.05-.01a.62.62 0 0 1-.62-.62v-2.44a.56.56 0 0 1 .56-.56l2.64.01a.63.63 0 0 0 .63-.63l.01-1.5a.67.67 0 0 0-.67-.67l-6.13-.01a.47.46 86.7 0 0-.46.52q.06.54.05 7.3zm16.52 7.82q.61 0 1.18-.09a.71.7 85.8 0 0 .59-.7v-4.94a.58.55 57.4 0 1 .04-.21q1.89-5.22 3.12-8.98a.58.57 8.8 0 0-.55-.75h-1.72a1.07 1.07 0 0 0-1.04.82q-1.17 4.97-1.59 4.95-.42.02-1.56-4.96a1.07 1.07 0 0 0-1.04-.82l-1.72-.01a.58.57-8.5 0 0-.55.74q1.21 3.77 3.07 9a.58.55-57.1 0 1 .04.21l-.03 4.94a.71.7-85.5 0 0 .59.7q.57.09 1.17.1zm54.68-7.964a.33.33 0 0 0-.331-.329l-38.62.067a.33.33 0 0 0-.329.331v.04a.33.33 0 0 0 .331.329l38.62-.067a.33.33 0 0 0 .329-.331v-.04zm-136.7.294a.37.37 0 0 0-.37-.37H721.6a.37.37 0 0 0-.37.37v.04a.37.37 0 0 0 .37.37h28.44a.37.37 0 0 0 .37-.37v-.04z" class="D"/><path d="M189.08 773.13c.48-1.15 0-3.1.01-4.47q.15-29.07.06-32.4c-.09-3.75-3.03-7.09-5.63-9.99q-5.13-5.72-12.69-13.34a3.22 3.2 69.2 0 0-2.1-.95q-4.84-.27-13.7-1.38c-26.76-3.35-45.89-26.98-50.33-52.8-1.03-6.04-2.26-11.83-1.15-17.13a2.36 2.32-14.9 0 1 .76-1.29q2.49-2.14 5.95-2.24 24.75-.68 43.75 13.08c14.61 10.58 22.55 24.91 23.89 42.6q.55 7.26.56 8.05c.04 3.54 1.48 5.94 3.61 8.09q4.09 4.11 6.64 8.09a.74.74 0 0 0 1.36-.34q1.58-19.14.96-39.9a3.88 3.88 0 0 0-.46-1.75q-1.92-3.64-4.39-6.49c-11.85-13.64-17.99-27.42-16.18-46.34 1.5-15.59 11.35-29.56 22.46-39.78 4.24-3.9 9.44-5.07 13.8-.45q3.99 4.23 10.95 13.56c13.41 18 14.38 41.47 2.48 60.4q-5.17 8.23-15.6 17.67a2.74 2.66-10.4 0 0-.67.94q-.54 1.27-.66 3.92-.88 20.54-.9 39.15-.01 2.62.51 5.11a1.15 1.15 0 0 0 2.03.47q.02-.03 3.75-4.58c1.6-1.95 1.73-9.67 1.91-12.3.83-11.78 4.86-21.96 12.82-31.21 9.82-11.4 24.23-18.46 38.55-19.74q3.15-.28 15.07-.27 4.46 0 5.93.78a3.17 3.06 80.7 0 1 .79.59c1.89 1.96 1.75 5.85 1.43 8.21-2.85 21.43-13.12 41.6-31.53 53.19-10.44 6.58-22.94 8.98-35.06 8.22a3.27 3.27 0 0 0-2.5.94l-12.15 12.15a2.47 2.44 71.2 0 0-.7 1.45q-.58 5.2-.59 7.73-.02 6.95-.19 35.74-.02 2.94.59 5.18a1.47 1.46 57.9 0 0 2.52.58c2.04-2.37 2.04-5.92 2.1-8.87a8.58 8.38-38.3 0 1 .23-1.78q7.16-29.97 35.53-38.37c9.49-2.81 21.29-2.46 31.1-1.34 2.78.32 9.29 1.12 9.25 4.75q-.05 3.43-1.11 8.14c-6.28 27.77-27.54 49.69-56.96 50.06-3.73.05-8.81-1.79-12.43-.84-3.24.85-10.86 5.02-10.89 9.3q-.05 5.6-.02 10.68a.61.6.5 0 0 .6.6q42.72.05 70.59-.06 4.83-.02 6.79.95c4.79 2.38 4.79 7.06 4.06 11.77q-.82 5.35-3.68 27.61c-1.04 8.11-1.52 16.47-11.72 16.43a.87.87 0 0 0-.87.82q-.09 1.44-.87 7.07-3.03 21.7-8.16 53.31-.56 3.48-1.67 7.48-3.85 13.93-16.33 18.36-4.69 1.66-15.36 1.72-22.48.11-53.72-.1-5.73-.04-13.01-.78-6.17-.64-12.95-5.54c-6.65-4.8-9.04-11.56-10.29-19.5q-3.57-22.69-7.88-55.22c-.28-2.16-.18-4.2-.38-6.16a1.72 1.72 0 0 0-1.89-1.53q-5.75.59-9.15-3.93-1.48-1.97-2.54-8.53-2.22-13.8-4.47-31.27-.69-5.39.57-8.13 2.22-4.8 9-4.77 41 .14 70.23-.03a.59.58-1.4 0 0 .58-.6q-.32-13.03-.16-30.57.01-1.9-1.53-3.39-5.41-5.25-11.9-9.93a2.08 2.08 0 0 0-2.01-.24c-4.85 1.97-7.9 2.18-14.64 2.95q-5.46.61-9.15 0c-11.95-1.98-20.73-5.59-29.79-14.02q-7.96-7.39-11.63-13.13-6.16-9.62-9.99-20.5-1.12-3.19.38-4.83c1.53-1.67 7.56-4.07 9.87-4.38q12.16-1.63 12.84-1.69 9.78-.86 19.91.9c17.55 3.04 34.21 15.91 38.73 33.73q2.13 8.4 2.42 9.93c.66 3.35 2.96 5.06 5.63 6.95a.52.52 0 0 0 .78-.23zm-67.16 68.2l2.88 19.68q.12 2.51.25 4.99.12 2.26 2.24 2.3 5.57.09 10.45.36 1.48.08 2.65-.39a2.37 1.79-42.6 0 1 .3-.08q.53-.09 35.56-.07 40.2.02 86.86-.11c5.18-.02 4.99-2.67 4.73-6.83l4.12-26.24-150.53-.56a.53.53 0 0 0-.53.49q-.15 1.86.09 2.42.35.86.47 2 .11 1.06.46 2.04zm134.36 38.39a.81.8-87.1 0 0-.8-.89H139.32a1.33 1.33 0 0 0-1.32 1.53q4.27 28.55 7.21 49.93c1.29 9.39 2.83 21.35 13.93 23.72q4.12.88 6.22.91 33.98.55 63.82-.03 9.65-.19 15.31-8.08a5.38 5.15-18.4 0 0 .69-1.31c2.5-6.95 3.5-13.76 4.44-20.69q3.03-22.12 5.77-37.19.26-1.43.89-7.9z" class="E"/><path d="M1093.38 849.1q3.51 1.86 7.72-.19 1.01 9.56 3.46 18.59 7.76 28.62 27.57 50.46c2.09 2.31 3.73 4.23 6.45 6.33a2.77 2.75 21.5 0 1 1.07 2.44l-2.65 29.23a.89.88-90 0 1-.79.8q-57.48 5.57-116.5 8.81a.83.83 0 0 1-.86-.97q.96-5.45.98-7.83c.08-9.95.82-18.89 1.17-28.7.84-24.16 1.94-47.72 1.8-72.19a.51.51 0 0 1 .5-.51q19.97-.5 21.82-.46c8.53.2 14.25-.51 25.4-1.41q11.88-.95 22.86-4.4z" class="F"/><path d="M341.21 119.94q-2.15 3.92-1.27 10.29a2.35 2.31-5 0 0 2.41 1.99q2.11-.09 2.24-2.41c.2-3.26.38-6.11-.29-9.34q3.01.14 5.3-2.88c6.61-8.71 11.27-15.47 19.75-20.75q9.34-5.81 20.16-4.68 19.58 2.04 29.25 20.03c8.77 16.3 3.48 35.01-7.09 49.34q-7.38 9.98-14.06 16.34l-27.24 25.41q-13.3 11.77-24.51 22.22a2.81 2.8 40.8 0 1-3.51.25q-4.65-3.24-10.25-7.94-17.29-14.54-32.78-28.23-10.3-9.11-19.35-18.56c-15.18-15.85-26.44-37.95-15.52-59.62q3.97-7.87 11.94-13.26c13.37-9.05 33.34-8.07 45.61 3.07q5.62 5.1 13.42 15.2 1.01 1.32 2.7 2.71a2.94 2.89 67.7 0 0 1.5.64l1.59.18zm13.936 5.936a2.25 2.25 0 0 0-1.253-2.925l-.167-.067a2.25 2.25 0 0 0-2.925 1.254l-2.466 6.165a2.25 2.25 0 0 0 1.253 2.925l.167.067a2.25 2.25 0 0 0 2.925-1.254l2.466-6.165zm7.902 8.132a2.33 2.33 0 0 0-.029-3.295l-.143-.14a2.33 2.33 0 0 0-3.295.029l-4.668 4.75a2.33 2.33 0 0 0 .029 3.295l.143.14a2.33 2.33 0 0 0 3.295-.029l4.668-4.75zM323.74 177.45l9.55.21c.65 4.45 1.27 6.8 4.52 9.72a1.38 1.37 41.3 0 0 1.95-.12l1.41-1.62a1.44 1.43 41.7 0 0-.12-2.01c-1.77-1.6-2.58-3.42-2.59-6.1q-.02-11.02-.02-22.53a1.5 1.49-1.2 0 1 1.44-1.49l.13-.01a1.31 1.3-2 0 1 1.4 1.3l.04 10.9a2.41 2.41 0 0 0 2.64 2.39h.03a2.56 2.56 0 0 0 2.57-2.56l-.01-18.76a1.47 1.47 0 0 1 1.45-1.47h.06a1.49 1.48-89.8 0 1 1.47 1.49l.01 17.2a2.44 2.43 1 0 0 2.36 2.43l.3.02a2.34 2.32-87.7 0 0 2.5-2.32l.03-12.39a1.47 1.47 0 0 1 1.41-1.47h.14a1.37 1.37 0 0 1 1.46 1.37q-.03 14.24.04 20.5a2.65 2.63-84.8 0 0 2.13 2.57c2.22.43 3.8-2.52 5.71-4.92a1.56 1.55-56.7 0 1 1.96-.41l.05.03a1.28 1.28 0 0 1 .5 1.75q-4.38 7.75-11.21 12.45a1.29 1.29 0 0 0-.55 1.18q.14 1.75 1.77 2.8a1.26 1.25 46.6 0 0 1.32.04c6.18-3.57 9.14-7.99 12.5-13.04 4.05-6.07-1.79-12.46-8.49-9.51a.48.48 0 0 1-.67-.38q-.05-.33.01-11.68.05-8.01-7.82-7.93a.82.8-12.8 0 1-.75-.46q-2.65-5.61-8.84-3.94a1.27 1.27 0 0 0-.63.37l-2.87 3.07-4.14-.64c-.21-2.3.13-5.25-.82-7.05q-1.64-3.08-5.35-3.8a2.95 2.79-43.4 0 0-1.01 0q-4.08.74-5.81 4.71a.96.96 0 0 1-.99.58q-5.16-.59-7.04 4.2a3.12 2.95-35.6 0 0-.22 1.13v14.28a.39.39 0 0 1-.58.34q-5.4-2.84-8.76 1.47c-1.79 2.28-1.87 5.21-.23 7.57 3.53 5.07 6.97 9.88 12.44 13.15q2.11 1.26 4.22-2.61z" class="D"/><path d="M891.75 279.04q-.56 3.38-1.85 15.44-.78 7.28-4.05 21.87-4.13 18.41-12.95 35.09-6.34 11.99-16.51 19.46-6.7 4.93-16.75 6.76 2.06-4.91 2.3-7.48c2.44-26.33-18.15-42.09-40.86-49.81-1.79-.61-4.79-.71-6.41-.11a2.83 2.75-13.6 0 0-1.84 2.92q.27 2.39 2.66 3.57c8.62 4.27 17.9 8.68 25.21 14.95q.06 1.78-1.19 1.41-6.68-1.99-8.49-2.21-12.48-1.51-24.73-4.26-.81-.18-2.58-.16-1.69.02-2.38-.87c6.59-10.71 1.12-22.71-10.12-27.07q-1.79-.7-3.01-.17a2.2 2.13-29.3 0 0-.96 3.22q2.18 3.09 4.28 5.84 3.5 4.58 2.92 9.81c-.43 3.91-1.87 5.37-5.69 6.23-12.24 2.79-27.72 5.77-41.74 5.64q-7.05-.06-10.54-1.38-13.6-5.14-9.28-19.55c1.83-6.1 6.02-13.11 10.84-22.34q11.97-22.93 7.87-48.81c-.48-3.08-2.82-13.94-6.94-14.21q-1.85-.12-3.23 1.23a1.6 1.6 0 0 0-.47.85q-.61 2.89-.27 5.1c3.02 19.29 2.12 38.11-7.79 55.21q-5.31 9.14-8.88 16.91c-3.62 7.87-3.48 19.84 3.08 26.78q-9.29 2.64-18.46 3.08c-2.21.11-3.9.5-5.86.95a.96.92 52.5 0 1-.67-.1q-.63-.35-.58-1.05 3.89-4.3 8.7-8.02 3.37-2.61 2.39-6.59a1.52 1.52 0 0 0-1.81-1.11q-7.54 1.71-13.23 6.6c-10.43 8.97-16.5 18.77-14.8 32.83q.61 5.05 3.51 10.35-11.07-.78-18.72-11.73-3.7-5.3-6.89-10.92a3.4 3.34-86.1 0 0-.82-.96q-2.59-2.09-2.96-4.3-.54-22.66.07-32.43 1.04-16.5 3.57-34.43 1.04-7.32 1.22-17.57.31-16.93-.29-27.37c-1.01-17.82-.43-35.09.68-49.9q.36-4.78 2.16-14.92 4.61-25.91 20.09-46.49c4.99-6.65 12.21-13.34 17.27-19.31a1.76 1.76 0 0 1 2.24-.37c12.16 7.21 23.94 13.39 38.03 16.86q15.88 3.92 31.27 4.2 1.14.02 15.83 0c14.78-.03 30.68-3.14 44.56-7.23 11.41-3.35 21.71-8.35 33.13-10.95 8.6-1.97 16.02-3.9 24.31-4.01a.74.74 0 0 1 .71.97q-7.68 23.61 3.47 46.37 3.68 7.51 7.89 14.26 1.47 2.37 2.31 5.47a6.62 6.52-52.7 0 1 .21 1.65q-.11 28.94 0 34.77c.2 10.53 3.56 21.15 6.18 29.69q1.91 6.26 2.8 14.92 1.17 11.42 1.08 22.64-.02 2.77 1.76 4.29zM767.4 222.6q1.69.8 3.37.56 8.85-1.25 18.22-1.82 14.84-.92 28.64 4.1 5.73 2.09 15.03 7.52c3.35 1.95 6.61 4.97 9.79 7.11q1.63 1.1 2.77.64a3.83 3.82 79.4 0 0 2.4-3.51c.05-3.69-3.01-8.56-5.46-11.4-15.17-17.59-37.83-23.23-60.27-19.89-6.21.92-13.09 4.74-14.99 11.24q-.39 1.32-.07 4.63a1.04 1.03-80.1 0 0 .57.82zm-121.86 16.85c1.19 2.82 3.48 2.55 5.27.95 7.51-6.74 15.82-13.27 25.68-15.86 6.52-1.73 16.13-2.62 23.8-.99 4 .84 12.81 3.23 12.81-3.99-.02-11.58-18.77-14.11-26.88-13.77q-20.76.86-34.63 16.3c-3.04 3.39-8.28 12.09-6.05 17.36zm169.41 16.93a.51.51 0 0 1 .79-.49q7.45 5.27 14.21 9.38 1.72 1.05 3.31.97a2.39 2.1 83.8 0 0 1.92-2.73c-1.5-9.69-14.96-17.61-23.64-20.34-6.47-2.04-15.27-1.9-21.54-1.18q-7.94.91-15.96 7.51-5.4 4.42-3.85 10.93a2 2 0 0 0 2.4 1.49q3.17-.72 5.88-2.97 4.93-4.09 10.44-5.92a.91.91 0 0 1 1.19.97c-.78 6.54.03 13.82 6.15 17.43 4.64 2.73 12.07 2.34 15.64-2.59q4.02-5.55 3.06-12.46zm-114.24-.71q.88.72 2.68 2.67c2.4 2.6 8.98 5.22 8.92-1.13-.04-5.86-5.76-10.51-10.88-12.19-14.74-4.85-31.02-.79-41.54 10.08-2.29 2.37-4.82 6.19-4.54 9.39a2.39 2.03 1.5 0 0 2.11 1.89c3.54.38 6.06-2.34 10.05-5.37q3.28-2.49 6.47-3.8a.7.69-12 0 1 .96.62c.17 5.1 1.96 11.64 6.32 14.35 5.57 3.46 12.84 2.27 16.15-3.44q3.44-5.95 2.43-12.58a.54.53 15.4 0 1 .87-.49zm140.222 14.178a12.05 3.84-175.8 0 0 11.736 4.712 12.05 3.84-175.8 0 0 12.299-2.947 12.05 3.84-175.8 0 0-11.736-4.712 12.05 3.84-175.8 0 0-12.299 2.947z" class="F"/><path d="M341.21 119.94l3.09.53c.67 3.23.49 6.08.29 9.34q-.13 2.32-2.24 2.41a2.35 2.31-5 0 1-2.41-1.99q-.88-6.37 1.27-10.29z" class="I"/><path d="M1155.905 210.038a72.8 71.9-4.2 0 1-67.339 77.039 72.8 71.9-4.2 0 1-77.87-66.375 72.8 71.9-4.2 0 1 67.339-77.039 72.8 71.9-4.2 0 1 77.87 66.375zm-49.465-2.518q4.8-.03 12.2.02c2.41.01 3.6-.4 3.95-2.78q.04-.25.11-9.11.05-6.21-.92-8.98-2.59-7.42-11.58-7.47-2.89-.01-46.7.01c-8.78.01-14.52 6.37-14.49 15.27q.06 16.41.03 55.83a2.05 1.9-59.1 0 0 .17.81c1.21 2.67 3.62 1.74 5.72.32q8.29-5.58 9.36-6.26a.59.59 0 0 1 .65.01q3.93 2.74 9.08 6.1c1.75 1.14 3.09 2.31 5.2.9q7.11-4.75 10.27-6.87a.89.88-45.3 0 1 .98-.01q3.09 1.99 8.8 5.9 2.37 1.62 3.24 1.65c1.88.07 3.32-1.49 3.32-3.39q.01-28.25-.03-41.31a.65.64-.5 0 1 .64-.64z" class="F"/><path d="M781.33 335.61c-3.27 4.66-11.31 6.03-16.85 6.96q-5.79.97-10.16 2.05-17.17 4.23-35.77 2.49-5.55-.52-9.37-2.38-4.59-2.23-7.78-5.83c-6.56-6.94-6.7-18.91-3.08-26.78q3.57-7.77 8.88-16.91c9.91-17.1 10.81-35.92 7.79-55.21q-.34-2.21.27-5.1a1.6 1.6 0 0 1 .47-.85q1.38-1.35 3.23-1.23c4.12.27 6.46 11.13 6.94 14.21q4.1 25.88-7.87 48.81c-4.82 9.23-9.01 16.24-10.84 22.34q-4.32 14.41 9.28 19.55 3.49 1.32 10.54 1.38c14.02.13 29.5-2.85 41.74-5.64 3.82-.86 5.26-2.32 5.69-6.23q.58-5.23-2.92-9.81-2.1-2.75-4.28-5.84a2.2 2.13-29.3 0 1 .96-3.22q1.22-.53 3.01.17c11.24 4.36 16.71 16.36 10.12 27.07z" class="E"/><path d="M902.63 349.14q-.59-.55-.48-1.39 1.08-8.55.96-15.19-.07-3.71.59-8.6.37-2.74.3-8.66a14.45 14.02-40.5 0 1 .28-3c.94-4.74.34-9.98 1.21-14.45.55-2.89.38-6.73 1.1-10.21q.39-1.84.79-3.73c3.09-4.48 6.28-11.07 7.76-13.9 2.78-5.29 5.96-9.95 9.15-13.74 3.17-3.78 9.81-8.7 15.38-8.78 10.53-.13 14.96 11.9 15.2 20.68q.27 9.34-1.07 16.59-3.57 19.33-12.14 36.29c-6.55 12.99-13.93 24.69-24.37 32.49q-2.19 1.64-5.44 2.54a2.44 2.42-25.2 0 1-2.64-.94q-2.4-3.4-6.58-6zm16.8-20.15q3.29.68 5.16-2.43c4.83-8.08 15.09-27.17 2.2-33.42a1.51 1.51 0 0 1-.78-1.82c1.8-5.61 4.22-9.79 8.77-14.64 2.63-2.79 7.58-7.45 7.29-10.5a2.3 2.17 82.8 0 0-2.51-2.07q-3.22.51-5.77 2.69c-8.92 7.63-18.48 19.89-19.01 31.98a1.04 1.04 0 0 0 .97 1.09c2.8.22 8.13.54 8.17 4.21q.07 5.44-1.5 10.4-1.66 5.25-4.28 12.15a1.77 1.76 16.5 0 0 1.29 2.36zm-298.39-7.44a.36.36 0 0 1-.69.1q-8.69-20.56-10.95-42.51-.94-9.14.01-16.53.78-6.1 5.48-9.21 4.59-3.04 7.38 1.61 2.87 4.79 3.61 11.16a4.25 4.24 48.7 0 1-.1 1.58c-.99 3.84-.67 7.4-1.24 11.23-1.73 11.73-2.35 23.69-3.49 34.18-.32 2.89.24 5.85-.01 8.39z" class="F"/><path d="M907.38 283.91q-.4 1.89-.79 3.73c-.72 3.48-.55 7.32-1.1 10.21-.87 4.47-.27 9.71-1.21 14.45a14.45 14.02-40.5 0 0-.28 3q.07 5.92-.3 8.66-.66 4.89-.59 8.6.12 6.64-.96 15.19-.11.84.48 1.39-1.88 9.07-3.57 17.91-6.62 34.66-27.89 63.35-16.41 22.15-36.04 37.29c-17.68 13.63-35.72 23.62-57.48 27.59a.8.8 0 0 1-.94-.81q.13-3.86.43-5.8 1.24-7.78.78-16.64-.11-2.27-.87-4.24a1.63 1.61 63.9 0 0-2.35-.82q-1.05.64-1.34 2.01-1.78 8.76-1.88 11.52-.28 7.48.03 14.9a.74.74 0 0 1-.6.75q-9.23 1.7-19.58 1.05a.72.72 0 0 1-.68-.72c-.02-4.64 1.37-22.99-1.95-25.99a1.32 1.32 0 0 0-2.12.5q-1.14 2.91-1.45 6.84-.65 8.13-.05 17.87a1.24 1.23-89.4 0 1-1.33 1.31q-9.75-.84-18.08-3.07a1.15 1.15 0 0 1-.85-1.16q.26-7.13-.17-17.27c-.07-1.63-.54-6.1-2.29-7.42a1.23 1.2 30.9 0 0-1.84.44c-2.76 6.06-2.61 15.01-1.73 21.67a.79.79 0 0 1-1.15.8l-13.29-6.83a2.83 2.82 14 0 1-1.53-2.54q.15-12.32-.94-25.11-.26-3.05-1.32-5.76a1.2 1.12-23.8 0 0-1.61-.56q-.81.39-1.02 1.23-3.17 12.76-1.09 25.53a.55.54 13.1 0 1-.86.53q-7.26-5.2-12.77-12.2c-1.74-2.21-2.45-3.9-2.49-6.93q-.18-14.71-1.02-23.55-.25-2.67-1.21-5.87a1.38 1.38 0 0 0-2.46-.39q-.58.83-.7 2.26-1.11 12.87-.2 22.5a.62.62 0 0 1-1.11.44c-5.16-6.61-8.73-10.56-11.62-15.9a8.39 8.28 29.9 0 1-1-3.62c-.5-11.86-.86-21.4-3.03-31.83q-.34-1.61-.83-2.22a1.55 1.53 37.9 0 0-2.61.31q-1.02 2.31-1.05 5.52-.06 8.28.33 17.1a.66.65-76.4 0 1-.98.6q-.26-.14-.55-.64-12.6-21.81-18.01-48.51-2.95-14.58-3.47-26.63.37 2.21 2.96 4.3a3.4 3.34-86.1 0 1 .82.96q3.19 5.62 6.89 10.92 7.65 10.95 18.72 11.73 4.54.41 5.17-1.28.51-1.37.37-2.83-.86-8.68.58-17.58 1 6.3 5.68 7.94 3.51 1.23 7.11-1.39c-.62 2.49-2.48 4.25.6 6.24q1.44.93 2.46 1.62-.34 2.61-.56 5.12-.23 2.61.03 5.12 1.62 15.81 6.53 31.45 4.74 15.08 13.98 24.82c2.53 2.66 4.83 3.98 7.6 6.26 4.33 3.56 8.49 4.49 12.78.56q2.97-2.72 7.19-4.76 8.5 2.97 17.97 2.87 2.59-.02 6.57-.57 3.46-.48 6.54-.91 3.19 3.04 6.67 5.33 3.92 2.58 7.15 2.59 3.63.01 7.38-2 10.62-5.72 18.05-14.76 19.22-23.38 22.79-53.4.3-2.5-.13-6.55-.23-2.11-2.07-2.26 2.47-2.91 1.41-7 7.43 1.82 8.52-5.69 3.4 8.1 3.34 17c-.02 2.13.24 4 1.43 5.49q1.41 1.8 3.91.39 10.05-1.83 16.75-6.76 10.17-7.47 16.51-19.46 8.82-16.68 12.95-35.09 3.27-14.59 4.05-21.87 1.29-12.06 1.85-15.44 7.23 4.83 15.63 4.87zm-25.199 79.945a15.67 2.96-85.2 0 0-4.261 15.367 15.67 2.96-85.2 0 0 1.638 15.863 15.67 2.96-85.2 0 0 4.261-15.367 15.67 2.96-85.2 0 0-1.638-15.863zM862.68 418.47l3.02.2a1.26 1.26 0 0 0 1.34-1.18l1.03-15.52a13.36 2.52-86.2 0 0-1.63-13.5l-.5-.03a13.36 2.52-86.2 0 0-3.4 13.16l-1.03 15.53a1.26 1.26 0 0 0 1.17 1.34zm-14.699-5.581a17.35 3.2-85.7 0 0-4.492 17.061 17.35 3.2-85.7 0 0 1.89 17.541 17.35 3.2-85.7 0 0 4.492-17.061 17.35 3.2-85.7 0 0-1.89-17.541zm-23.635 21.641a16.97 3.22-86.6 0 0-4.221 16.749 16.97 3.22-86.6 0 0 2.208 17.131 16.97 3.22-86.6 0 0 4.221-16.749 16.97 3.22-86.6 0 0-2.208-17.131zm-24.413 20.049a14.7 3.18-87.1 0 0-3.92 14.52 14.7 3.18-87.1 0 0 2.432 14.842 14.7 3.18-87.1 0 0 3.92-14.52 14.7 3.18-87.1 0 0-2.432-14.842z" class="D"/><path d="M839.64 377.66q-2.5 1.41-3.91-.39c-1.19-1.49-1.45-3.36-1.43-5.49q.06-8.9-3.34-17-3.53-7.36-10.26-13.08c-7.31-6.27-16.59-10.68-25.21-14.95q-2.39-1.18-2.66-3.57a2.83 2.75-13.6 0 1 1.84-2.92c1.62-.6 4.62-.5 6.41.11 22.71 7.72 43.3 23.48 40.86 49.81q-.24 2.57-2.3 7.48zm-163.81-35.88q-6.25 6.21-9.12 12.37-1.44 8.9-.58 17.58.14 1.46-.37 2.83-.63 1.69-5.17 1.28-2.9-5.3-3.51-10.35c-1.7-14.06 4.37-23.86 14.8-32.83q5.69-4.89 13.23-6.6a1.52 1.52 0 0 1 1.81 1.11q.98 3.98-2.39 6.59-4.81 3.72-8.7 8.02z" class="E"/><path fill="#f0c39d" d="M781.33 335.61q.69.89 2.38.87 1.77-.02 2.58.16 12.25 2.75 24.73 4.26 1.81.22 8.49 2.21 1.25.37 1.19-1.41 6.73 5.72 10.26 13.08-1.09 7.51-8.52 5.69-2.04-1.96-4.94-1.9a2.13 2.13 0 0 0-.96.25c-2.86 1.59-4.98 3.5-8.9 4.76q-15.92 5.09-31.14 5.99c-5.39.32-9.61 1.25-15.01 1.31q-22.68.27-39.85-.68-5.93-.32-12.35-2.04-9.48-2.54-14.54-4.36c-3.06-1.11-5.84-2.78-8.39-4.14q-4.14-2.21-6.86 1.04-3.6 2.62-7.11 1.39-4.68-1.64-5.68-7.94 2.87-6.16 9.12-12.37-.05.7.58 1.05a.96.92 52.5 0 0 .67.1c1.96-.45 3.65-.84 5.86-.95q9.17-.44 18.46-3.08 3.19 3.6 7.78 5.83 3.82 1.86 9.37 2.38 18.6 1.74 35.77-2.49 4.37-1.08 10.16-2.05c5.54-.93 13.58-2.3 16.85-6.96z"/><g class="F"><path d="M175.67 390.3a4.8 4.8 0 0 1-4.8-4.8v-33.29a7.17 6.17 90 0 1 6.17-7.17h31.66a7.17 6.17 90 0 1 6.17 7.17v33.29a4.8 4.8 0 0 1-4.8 4.8h-34.4z"/><rect x="-21.25" y="-22.54" transform="matrix(.999998 -.001745 .001745 .999998 278.82 367.69)" width="42.5" height="45.08" rx="5.27"/></g><path d="M822.44 360.47q1.06 4.09-1.41 7l-4.69 2.54a1.31 1.31 0 0 0-.62.72c-1.84 4.99-3.53 9.66-6.23 14.07q-3.05 4.97-7.15 8.97-12.88 12.54-31.66 16.64-10.22 2.24-18.67 2.66-6.55.32-15.52-.84c-24.22-3.14-41.69-15.91-49.39-39.8q-.89-2.77-4.54-3.87-1.02-.69-2.46-1.62c-3.08-1.99-1.22-3.75-.6-6.24q2.72-3.25 6.86-1.04c2.55 1.36 5.33 3.03 8.39 4.14q5.06 1.82 14.54 4.36 6.42 1.72 12.35 2.04 17.17.95 39.85.68c5.4-.06 9.62-.99 15.01-1.31q15.22-.9 31.14-5.99c3.92-1.26 6.04-3.17 8.9-4.76a2.13 2.13 0 0 1 .96-.25q2.9-.06 4.94 1.9zm-121.67 14.47a.33.33 0 0 0-.39.39q.69 3.23 2.61 6.44 10 16.81 28.96 20.19 17.77 3.16 37.54-.52c15.04-2.8 28.48-13.07 33.8-27.71a.61.6-83 0 0-.63-.81q-2.54.26-4.44.78c-20.83 5.78-40.8 7.39-61.51 6.48-12.65-.55-22.86-2.67-35.94-5.24z" class="E"/><g class="F"><path d="M403.79 367.39a3.52 3.52 0 0 1 3.51-3.53l32.49-.11a5.43 5.25 89.8 0 1 5.27 5.41l.1 31.28a5.43 5.25 89.8 0 1-5.23 5.45l-32.49.11a3.52 3.52 0 0 1-3.53-3.51l-.12-35.1z"/><rect x="-20.54" y="-21.06" transform="matrix(.999998 -.001745 .001745 .999998 505.42 384.85)" width="41.08" height="42.12" rx="3.85"/><path d="M761.19 438.52c4.21-1.54 9.21-3.88 11.36-7.82a1.81 1.81 0 0 0-1.14-2.62q-1.57-.41-2.51-.24c-12.32 2.23-24.04 2.84-36.17.13-3.82-.86-7.42-2.28-11.09-2.1a1.74 1.74 0 0 0-1.66 1.73c-.04 5.46 6.46 8.09 10.13 9.53q-4.22 2.04-7.19 4.76c-4.29 3.93-8.45 3-12.78-.56-2.77-2.28-5.07-3.6-7.6-6.26q-9.24-9.74-13.98-24.82-4.91-15.64-6.53-31.45-.26-2.51-.03-5.12.22-2.51.56-5.12 3.65 1.1 4.54 3.87c7.7 23.89 25.17 36.66 49.39 39.8q8.97 1.16 15.52.84 8.45-.42 18.67-2.66 18.78-4.1 31.66-16.64 4.1-4 7.15-8.97c2.7-4.41 4.39-9.08 6.23-14.07a1.31 1.31 0 0 1 .62-.72l4.69-2.54q1.84.15 2.07 2.26.43 4.05.13 6.55-3.57 30.02-22.79 53.4-7.43 9.04-18.05 14.76-3.75 2.01-7.38 2-3.23-.01-7.15-2.59-3.48-2.29-6.67-5.33zm129.21-19.67q-.96 8.48-.83 17.17.28 17.63 1.42 26.97.72 5.85 2.88 11.07c1.47 3.54 4.79 6.61 7.84 8.94a1.65 1.65 0 0 1 .62 1.62q-1.49 7.68-4.8 14.91c-3.74 8.18-8.41 17.15-14.83 24.42q-19.83 22.51-46.96 33.98-18.34 7.76-38.82 10.87-7.2 1.1-11.14 1.16c-6.41.11-15.3 1.18-21.77.53q-.16-.02-10.65-.72-23.56-1.57-43.88-13.2-14.75-8.44-19.3-23.53-1.49-4.97-.87-14.02c.24-3.4 2.49-9.89 2.83-14.95q.11-1.5.78-5.88c.38-2.45.23-4.52.11-7.7a.59.59 0 0 1 .98-.46q4.52 3.98 9.89 6.79 13.73 7.2 28.65 9.83 19.99 3.51 38.86.88 26.36-3.67 48.61-16.25 15.24-8.61 27.7-19.72c17.16-15.3 31.89-32.36 42.14-52.87a.29.29 0 0 1 .54.16z"/><rect x="-22.02" y="-22.23" transform="matrix(.999998 -.001745 .001745 .999998 192.85 447.13)" width="44.04" height="44.46" rx="5.25"/><path d="M261.98 469.3a4.42 4.42 0 0 1-4.43-4.41l-.06-33.67a6.41 6.33-.1 0 1 6.4-6.34l29.82-.06a6.41 6.33-.1 0 1 6.42 6.32l.06 33.67a4.42 4.42 0 0 1-4.41 4.43l-33.8.06z"/></g><path d="M761.19 438.52q-3.08.43-6.54.91-3.98.55-6.57.57-9.47.1-17.97-2.87c-3.67-1.44-10.17-4.07-10.13-9.53a1.74 1.74 0 0 1 1.66-1.73c3.67-.18 7.27 1.24 11.09 2.1 12.13 2.71 23.85 2.1 36.17-.13q.94-.17 2.51.24a1.81 1.81 0 0 1 1.14 2.62c-2.15 3.94-7.15 6.28-11.36 7.82z" class="E"/><g class="F"><rect x="403.83" y="437.83" width="41.3" height="42.98" rx="4.47"/><rect x="-20.6" y="-21.52" transform="matrix(.999998 .001745 -.001745 .999998 505.45 459.36)" width="41.2" height="43.04" rx="4.96"/><path d="M217.03 542.14a3.14 3.14 0 0 1-3.15-3.13l-.03-19.11a18.64 17.85-.1 0 1 18.61-17.88l7.4-.02a18.64 17.85-.1 0 1 18.67 17.82l.03 19.11a3.14 3.14 0 0 1-3.14 3.15l-38.39.06z"/></g><path d="M1254.64 609.2h-13.56a3.78 3.77 69.3 0 1-2.84-1.29q-11.91-13.64-39.07-45.43c-1.26-1.48-2.53-3.53-3.08-5.21a1.76 1.75-22.9 0 1 .86-2.1c2.66-1.4 6.05-2.21 9.17-2.34q4.69-.2 12.1-1.07 7.91-.93 12.47-5.83c7.26-7.8 11.62-13.97 21.68-13.06 3.73.34 8.08 1.18 11.52 2.92 6.58 3.34 16.34 7.19 23.11 7.98q4.89.57 12.14-1.92c6.55-2.25 14.57-6.04 23.01-8.45 9.01-2.58 14.31 2.32 19.25 9.16 4.52 6.25 9.79 9.47 17.85 9.69q8.1.22 11.8.71a1.25 1.25 0 0 1 .92 1.87q-1.4 2.42-3.26 4.64-3.04 3.65-23.21 28.16c-5.61 6.82-10.25 13.55-16.13 20.34a3.61 3.61 0 0 1-2.73 1.25h-15.68a.88.88 0 0 1-.8-1.26q8.74-18.88 15.42-36.39 1.43-3.75 1.18-7.56a2.3 2.14-89.3 0 0-1.92-2.12c-4.92-.51-12.71 17.53-15.48 23.64q-5.39 11.91-10 22.41a2.08 2.06 11.7 0 1-1.9 1.23h-28.47a2.33 2.31-13.2 0 1-2.08-1.28q-6.57-13.16-11.09-21.73-7.36-13.98-10.77-19.17-2.41-3.67-6.16-6.42a1.64 1.33 35.1 0 0-2.16.15c-3.02 4.59 3.07 15.09 6.03 21.44 4.45 9.54 9.06 17.7 12.67 25.82a.87.87 0 0 1-.79 1.22z" class="D"/><path d="M423.72 845.9l42.07.06h20.81l41.28.05 22.7-.09 41.23-.09 15.12.01a1.39 1.39 0 0 1 1.39 1.39v9.2a.46.45 89.4 0 1-.44.46q-5.91.23-10.38.23-115.69.04-255.76-.01-4.85 0-4.86-4.6-.14-146.52-.07-224.3c.01-5.35 6.73-5.58 9.85-3.62q1.61 1.02 1.6 3.42-.41 87.51-.08 217.16a.85.85 0 0 0 .85.84l74.69-.11z" class="F"/><path d="M1329.87 637.59q18.91 13.45 22.78 16.79c6.96 6.03 18.45 15.89 25.63 23.15q22.22 22.49 40.22 50.26c17.08 26.37 29.38 57.38 32.6 88.77 2.59 25.26-1.68 51.8-14.37 74.15q-1.11 1.95-6.1 8.9c-13.04 18.13-31.69 32.09-52.27 40.99q-30.15 13.04-62.97 15.99-20.6 1.85-40.87 1.43c-19.1-.4-33.21-1.39-48.3-4.37-6.79-1.34-11.42-1.92-17.18-3.55q-14.2-4.02-26.62-9.84c-4.52-2.11-9.35-5.23-14-7.6q-3.44-1.74-5.58-3.12-22.36-14.35-34.74-35.34-11.1-18.83-14.92-42.32c-1.61-9.91-1.58-21.65-1.02-30.64q.16-2.61 1.8-14.31 1.21-8.56 2.75-14.14 7.45-26.91 19.8-49.53 30.17-55.2 80.73-93.27 8.71-6.56 17.2-11.57c2.71-1.6 4.5-2.31 7.86-2.32l75.45.04q6.97-.05 9.97.53a5.37 5.33-21.6 0 1 2.15.92zm-55.45 69.74q-2.94.39-6.61 1.04-15.7 2.78-27.12 13.42-8.14 7.59-11.51 16.51-3.82 10.1-2.69 19.96 1.96 16.95 15.24 29.04 13.5 12.29 32.53 14.93a.87.86-86.2 0 1 .75.86v46.06a.96.95 4.6 0 1-1.11.94q-10.75-1.77-19.85-5.67c-4.94-2.13-10.29-5.83-14.06-8.12q-2.32-1.41-4.42-1a1.78 1.72-73.8 0 0-.98.56c-4.68 5.29-7.81 11.55-11.25 18.11a2.17 2.17 0 0 0 .35 2.51c9.77 10.32 24.59 16.91 38.15 18.91q9.98 1.46 12.7 1.57a.63.63 0 0 1 .61.65q-.15 5.6-.1 13.81c.02 4.68-.41 7.86 4.96 8.31q5.66.48 10.39-.02c3.45-.37 4.07-4.1 4.09-6.96q.14-14 .15-16.13a.53.52-3.1 0 1 .47-.52q11.44-1.28 21.53-6.23c17.4-8.55 29.02-25.56 27.7-45.28q-.51-7.58-2.98-13.37c-8.47-19.83-26.12-27.97-45.95-33.33a1.11 1.11 0 0 1-.82-1.07v-41.41a.87.87 0 0 1 1.04-.85q14.05 2.87 27.49 9.84 2.15 1.12 3.6.01 2.73-2.08 5.36-6.32 3.9-6.31 7.89-13.73a1.9 1.89 38.7 0 0-.24-2.14q-.83-.95-3.09-2.25c-12.93-7.44-25.52-12.69-40.67-13.01a1.31 1.31 0 0 1-1.29-1.31q.01-6.19-.18-17.89c-.11-6.51-6.74-5.68-11.55-5.7-4.88-.03-7.8 1.46-7.82 6.74q-.04 6.98-.06 17.79a.75.75 0 0 1-.65.74zm-808.44 4.4a1.85 1.85 0 0 0-2.47.17l-50.67 53.11q-13.63 14.78-26.97 28.89-5.68 6-11.7 2.71c-7.44-4.07-.79-10.16 3.04-14.16q7.31-7.61 12.2-12.79 13.31-14.09 23.34-24.16 4.46-4.48 4.85-4.9 27.61-29.53 37.75-39.75c6.11-6.15 9.92-6.56 16.96-1.09q10.87 8.43 24.39 18.3 3.92 2.86 8.29 5.59a1.66 1.66 0 0 0 2.1-.29q8.98-9.86 16.45-18.06 11.43-12.56 23.29-24.72 9.21-9.44 12.45-13.06a1.29 1.29 0 0 0-.28-1.95q-9.15-5.72-11.31-7.23-1.32-.93-1.65-1.81a2.99 2.74-30.3 0 1 1.01-3.25q3.91-3.1 8.78-4.69 11.58-3.78 30.31-8.43 3.45-.86 6.1.67a2.81 2.8-74.1 0 1 1.4 2.53q-.12 3.61-.5 6.89-1.2 10.58-3.55 27.63c-.27 1.95-.71 5.23-2.56 5.98-2.48.99-5.27-.86-7.19-2.44q-1.81-1.49-8.07-6.31a1.81 1.81 0 0 0-2.43.21q-47.24 51.07-56.42 60.85-.38.39-3.08 2.42-3.57 2.68-7.51.26-4.28-2.63-6.64-4.37-10.84-7.96-29.71-22.75z" class="D"/><path d="M690.46 665.21q.22 0 .27.04 7.55 5.83 17.6 13.38a.34.33 50.3 0 1-.05.57q-2.87 1.43-3.71 4.56a.45.45 0 0 1-.71.24l-5.21-3.95a.98.97-71.9 0 1-.39-.78v-1.99a1.17 1.16 19.3 0 0-.44-.91q-3.49-2.78-7.16-5.49-.04-.03-.2-.03-.15 0-.19.03-3.66 2.72-7.15 5.51a1.17 1.16-19.5 0 0-.43.91v1.99a.98.97 71.7 0 1-.39.78l-5.2 3.97a.45.45 0 0 1-.71-.24q-.84-3.13-3.72-4.55a.34.33-50.4 0 1-.05-.57q10.03-7.58 17.56-13.43.05-.04.28-.04zm14.07 27.61a.21.21 0 0 0-.33.17v25.84a1.12 1.1 71.6 0 1-.43.88l-7.64 5.8a.32.32 0 0 1-.51-.25v-4.23a1.54 1.53 71.4 0 1 .6-1.22l1.56-1.19a1.13 1.13 0 0 0 .46-.91v-28.95a1.63 1.62 18.9 0 0-.64-1.29l-3.62-2.74a.34.33 18.9 0 0-.54.26v45.38a.32.32 0 0 0 .51.26l12.35-9.39a1.1 1.09-18.8 0 0 .43-.87v-21a.27.27 0 0 1 .43-.21l7.64 5.79a.31.31 0 0 1-.05.52c-1.4.71-2.18 2.59-2.17 4.23q.07 9.11.01 13.65a1.17 1.16 72.2 0 1-.46.91l-21.24 16.15a.6.59 44.5 0 1-.73 0l-21.33-16.18a1.17 1.17 0 0 1-.46-.93q.09-14.03-.02-14.79-.2-1.45-1.91-3a.6.6 0 0 1 .04-.92l7.21-5.48a.28.28 0 0 1 .45.23v21.11a.82.8-72.1 0 0 .32.65l12.57 9.54a.27.27 0 0 0 .43-.22v-45.93a.09.09 0 0 0-.14-.08l-4.36 3.32a.57.55-19.5 0 0-.22.44v29.53a1.1 1.07 19.2 0 0 .43.86l1.65 1.25a1.37 1.35 18.9 0 1 .54 1.08v4.27a.36.36 0 0 1-.58.28l-7.51-5.69a1.25 1.23-71.7 0 1-.49-.99v-25.8a.23.23 0 0 0-.37-.19l-9.94 7.56a.28.27 71.3 0 1-.44-.22l-.03-6.04a.45.45 0 0 1 .67-.39q.04.02.42.03a2.01 1.98 26.1 0 0 1.2-.4l21.87-16.64a.52.52 0 0 1 .62 0l21.99 16.68a1.72 1.68 63.1 0 0 1.03.35h1.15a.4.39 0 0 1 .4.39v6.48a.23.23 0 0 1-.37.18l-10.45-7.93zm27.53-8.12c4.84 0 10.14-.44 10.21 6.12q.09 8.55.02 28.84a.29.28 0 0 1-.29.28h-6.99a.27.27 0 0 1-.27-.27v-10.79a.62.61.2 0 0-.62-.61q-.39-.01-2.07-.01-1.68 0-2.07 0a.62.61-.2 0 0-.62.62v10.79a.27.27 0 0 1-.27.27l-6.99-.01a.29.28 0 0 1-.29-.28q-.06-20.29.03-28.84c.07-6.55 5.37-6.11 10.22-6.11zm2.68 5.67a.64.64 0 0 0-.64-.64h-4.08a.64.64 0 0 0-.64.64v11.48a.64.64 0 0 0 .64.64h4.08a.64.64 0 0 0 .64-.64v-11.48zm26.84-5.67c3.47 0 7.12-.66 9.05 2.67 1.24 2.14.95 4.61.95 7.13q.02 12.46-.01 25.02a.43.42 90 0 1-.42.43h-6.72a.41.41 0 0 1-.41-.41v-28.55a.93.92 7.5 0 0-.69-.89q-.46-.12-1.75-.12-1.29 0-1.75.12a.93.92-7.5 0 0-.69.89l-.01 28.55a.41.41 0 0 1-.41.41H752a.43.42-90 0 1-.42-.43q-.03-12.56 0-25.02c0-2.52-.29-4.99.94-7.13 1.94-3.33 5.58-2.67 9.06-2.67zm31.7 24.37a.28.28 0 0 1 .28-.28h6.56a.26.26 0 0 1 .26.26q.09 4.69-.12 6.44c-.74 6.24-8.09 5.02-13.26 5.02-5.54 0-6.73-3.47-6.72-8.58q.02-10.49.07-20.9c.02-5 3.11-6.47 7.79-6.39q4.02.06 6.59.13c5.5.13 5.98 5.03 5.66 9.47a.87.87 0 0 1-.87.82h-5.54a.7.7 0 0 1-.7-.7v-3.66a1 1 0 0 0-1-1h-3.31a1.1 1.1 0 0 0-1.1 1.1v23.62a.83.83 0 0 0 .83.83h3.7a.88.88 0 0 0 .88-.88v-5.3zm66.01 5.5a5.89 5.89 0 0 1-5.89 5.89h-8.72a5.89 5.89 0 0 1-5.89-5.89v-24.02a5.89 5.89 0 0 1 5.89-5.89h8.72a5.89 5.89 0 0 1 5.89 5.89v24.02zm-7.59-23.85a1.02 1.02 0 0 0-1.02-1.02h-3.28a1.02 1.02 0 0 0-1.02 1.02v23.54a1.02 1.02 0 0 0 1.02 1.02h3.28a1.02 1.02 0 0 0 1.02-1.02v-23.54zm-32.52 8.98q2.11 0 2.36-.01a.6.6 0 0 0 .59-.6v-13.6a.4.4 0 0 1 .4-.4h6.75a.43.42-90 0 1 .42.43v34.16a.27.27 0 0 1-.27.27h-7.02a.28.27-90 0 1-.27-.28V706.9a.62.62 0 0 0-.6-.62q-.37-.01-2.36-.01-1.99 0-2.35.01a.62.62 0 0 0-.61.62l.01 12.77a.28.27 90 0 1-.27.28l-7.02.01a.27.27 0 0 1-.27-.27l-.02-34.16a.43.42 90 0 1 .42-.43l6.75-.01a.4.4 0 0 1 .4.4l.01 13.6a.6.6 0 0 0 .59.6q.25.01 2.36.01zm67.01 2.46q1.16.5 1.86 1.98a2.63 2.62-57.9 0 1 .26 1.14v14.28a.39.38 90 0 1-.38.39h-6.89a.36.36 0 0 1-.36-.36v-13.16a.75.75 0 0 0-.75-.75h-3.28a.52.51 0 0 0-.52.51v13.44a.31.3 90 0 1-.3.31h-7.02a.3.3 0 0 1-.3-.3v-34.13a.42.42 0 0 1 .42-.42q8.29.04 11.53-.01c4.35-.06 7.78.91 8.04 5.71.22 4.16.96 8.72-2.36 10.68a.39.39 0 0 0 .05.69zm-5.13-11.31a.56.56 0 0 0-.56-.56h-3.84a.56.56 0 0 0-.56.56v9.02a.56.56 0 0 0 .56.56h3.84a.56.56 0 0 0 .56-.56v-9.02z" class="I"/><path d="M591.81 845.83l-41.23.09q.04-3.52.3-7.04.3-4.23.29-7.02-.15-53.21-.06-106.24.01-2.65 3.15-2.66 13.99-.06 32.77-.08 4.82-.01 4.8 5.12-.02 5.4-.14 106-.01 5.76.12 11.83z" class="J"/><g class="I"><path d="M781.05 729.8q1.57 0 2.16.02a2.54 2.54 0 0 1 2.45 2.54v12.7a.59.58 90 0 1-.58.59h-2.25a.58.58 0 0 1-.58-.58v-3.91a.72.71-88.8 0 0-.68-.72q-.19-.01-.54-.01-.35 0-.54.01a.72.71 89 0 0-.68.72l-.01 3.91a.58.58 0 0 1-.58.57h-2.25a.59.58-89.8 0 1-.58-.59l.04-12.7a2.54 2.54 0 0 1 2.46-2.54q.58-.01 2.16-.01zm1.176 3.028a.71.71 0 0 0-.711-.709l-1.06.002a.71.71 0 0 0-.709.711l.008 4.36a.71.71 0 0 0 .711.709l1.06-.002a.71.71 0 0 0 .709-.711l-.008-4.36zm-16.156 7.622q.32.01 1.74-9.93a.66.66 0 0 1 .65-.57h2.31a.42.41 6.1 0 1 .41.5l-2.99 14.5a.88.87 88.8 0 1-.64.67q-.01.01-1.48.01-1.48 0-1.49-.01a.88.87-88.7 0 1-.64-.67l-2.98-14.5a.42.41-6.1 0 1 .41-.5h2.31a.66.66 0 0 1 .65.56q1.41 9.95 1.74 9.94zm32.15 5.18h-6.19a.48.48 0 0 1-.48-.48v-14.71a.48.48 0 0 1 .48-.48h2.54a.48.48 0 0 1 .48.48v11.87a.48.48 0 0 0 .48.48h2.69a.48.48 0 0 1 .48.48v1.88a.48.48 0 0 1-.48.48zm11.99-2.87a.62.61-1.4 0 1 .63.59l.06 1.58a.68.67-1.2 0 1-.68.7l-5.89-.02a.63.63 0 0 1-.63-.63l.04-14.48a.55.55 0 0 1 .55-.55h2.38a.57.57 0 0 1 .57.57l-.05 11.7a.59.59 0 0 0 .6.59l2.42-.05zm12.64-4.95q0 .45-.08.76a.84.84 0 0 1-.82.64h-2.05a.62.62 0 0 0-.62.62v2.44a.56.56 0 0 0 .56.56h2.64a.63.63 0 0 1 .63.63v1.5a.67.67 0 0 1-.67.67h-6.13a.47.46-86.7 0 1-.46-.52q.06-.53.06-7.3.01-6.76-.05-7.3a.47.46 86.7 0 1 .46-.52l6.13.01a.67.67 0 0 1 .67.67l-.01 1.5a.63.63 0 0 1-.63.63l-2.64-.01a.56.56 0 0 0-.56.56v2.44a.62.62 0 0 0 .62.62l2.05.01a.84.84 0 0 1 .82.64q.08.3.08.75zm9.61-2.08q.42.02 1.59-4.95a1.07 1.07 0 0 1 1.04-.82h1.72a.58.57 8.8 0 1 .55.75q-1.23 3.76-3.12 8.98a.58.55 57.4 0 0-.04.21v4.94a.71.7 85.8 0 1-.59.7q-.57.09-1.18.09-.6-.01-1.17-.1a.71.7-85.5 0 1-.59-.7l.03-4.94a.58.55-57.1 0 0-.04-.21q-1.86-5.23-3.07-9a.58.57-8.5 0 1 .55-.74l1.72.01a1.07 1.07 0 0 1 1.04.82q1.14 4.98 1.56 4.96z"/><rect x="-19.64" y="-.35" transform="matrix(.999998 -.001745 .001745 .999998 867.47 737.72)" width="39.28" height=".7" rx=".33"/><rect x="721.23" y="737.59" width="29.18" height=".78" rx=".37"/></g><path d="M527.88 846.01l-41.28-.05-.04-82a1.42 1.42 0 0 1 1.43-1.42q14.74.06 34.52-.09 3.51-.03 5.71 3.06a1.77 1.73 27.6 0 1 .33 1.02c.02 6.47-.66 11.72-.7 17.64q-.17 30.83.03 61.84zm-62.09-.05l-42.07-.06q.75-8.4.34-16.5-.52-10.41-.52-10.7-.28-13.25-.15-19.95.09-4.12 1.08-8.44a2.23 2.23 0 0 1 2.17-1.73h36.46a1.78 1.78 0 0 1 1.76 1.5c1.07 6.53.98 11.75.38 18.56q-.53 5.95.29 10.3a7.21 7.18 44.9 0 1 .01 2.58q-1.05 5.97 0 12.47.45 2.78.25 11.97z" class="J"/><path d="M271.96 834.94l-150 .45a.33.33 0 0 0-.33.35l.29 5.59q-.35-.98-.46-2.04-.12-1.14-.47-2-.24-.56-.09-2.42a.53.53 0 0 1 .53-.49l150.53.56z" class="D"/><path d="M271.96 834.94l-4.12 26.24-1.31 5.17a.67.66-82.6 0 1-.64.5q-69.12.09-138.25.02 1.54-.18 3.09-.13a.07.07 0 0 0 .05-.02q.02-.01.03-.01a.02.02 0 0 0 0-.04q-1.56-.02-2.85-.11a1.83 1.82-7.8 0 1-1.6-1.21l-1.56-4.34-2.88-19.68-.29-5.59a.33.33 0 0 1 .33-.35l150-.45z" class="F"/><path d="M267.84 861.18c.26 4.16.45 6.81-4.73 6.83q-46.66.13-86.86.11-35.03-.02-35.56.07a2.37 1.79-42.6 0 0-.3.08q-1.17.47-2.65.39-4.88-.27-10.45-.36-2.12-.04-2.24-2.3-.13-2.48-.25-4.99l1.56 4.34a1.83 1.82-7.8 0 0 1.6 1.21q1.29.09 2.85.11a.02.02 0 0 1 0 .04q-.01 0-.03.01a.07.07 0 0 1-.05.02q-1.55-.05-3.09.13 69.13.07 138.25-.02a.67.66-82.6 0 0 .64-.5l1.31-5.17zm-11.56 18.54q-.63 6.47-.89 7.9-2.74 15.07-5.77 37.19c-.94 6.93-1.94 13.74-4.44 20.69a5.38 5.15-18.4 0 1-.69 1.31q-5.66 7.89-15.31 8.08-29.84.58-63.82.03-2.1-.03-6.22-.91c-11.1-2.37-12.64-14.33-13.93-23.72q-2.94-21.38-7.21-49.93a1.33 1.33 0 0 1 1.32-1.53h116.16a.81.8-87.1 0 1 .8.89z" class="D"/><g class="I"><rect x="-2.34" y="-5.57" transform="matrix(.928486 .371368 -.371368 .928486 351.74 128.09)" width="4.68" height="11.14" rx="2.25"/><rect x="-2.43" y="-5.66" transform="matrix(.71325 .700909 -.700909 .71325 358.98 134.68)" width="4.86" height="11.32" rx="2.33"/><path d="M337.89 143.48q-1.65 4.48-4.78.97a1.56 1.55-65.9 0 1-.39-1.03v-4.35a1.24 1.24 0 0 0-1.24-1.24h-.28a1.52 1.52 0 0 0-1.52 1.52l-.03 17.31a2.34 2.33-89.1 0 1-2.41 2.34h-.21a2.46 2.46 0 0 1-2.52-2.46l-.02-12.33a1.45 1.44-.2 0 0-1.46-1.44h-.05a1.47 1.46 0 0 0-1.47 1.46l-.02 17.56a.76.75-83.8 0 0 .59.74q3.31.74 5.57 2.58a2.08 2.08 0 0 1 .53 2.57l-.26.52a2.37 2.37 0 0 1-3.37.93q-2.47-1.54-4.52-1.67c-1.61-.1-2.25.09-3.3-1.23q-1.72-2.15-2.8-3.36-.93-1.05-1.44-1.09-.92-.07-1.48 1.05a.72.72 0 0 0 .03.7q4.92 8.21 12.7 13.92-2.11 3.87-4.22 2.61c-5.47-3.27-8.91-8.08-12.44-13.15-1.64-2.36-1.56-5.29.23-7.57q3.36-4.31 8.76-1.47a.39.39 0 0 0 .58-.34v-14.28a3.12 2.95-35.6 0 1 .22-1.13q1.88-4.79 7.04-4.2a.96.96 0 0 0 .99-.58q1.73-3.97 5.81-4.71a2.95 2.79-43.4 0 1 1.01 0q3.71.72 5.35 3.8c.95 1.8.61 4.75.82 7.05z"/></g><path d="M337.89 143.48l4.14.64q-.64 1.61-.72 3.69a.52.51-87.3 0 1-.54.5q-5.65-.35-7.34 5.02a2.99 2.88 55.2 0 0-.15.93l.01 23.4-9.55-.21q-7.78-5.71-12.7-13.92a.72.72 0 0 1-.03-.7q.56-1.12 1.48-1.05.51.04 1.44 1.09 1.08 1.21 2.8 3.36c1.05 1.32 1.69 1.13 3.3 1.23q2.05.13 4.52 1.67a2.37 2.37 0 0 0 3.37-.93l.26-.52a2.08 2.08 0 0 0-.53-2.57q-2.26-1.84-5.57-2.58a.76.75-83.8 0 1-.59-.74l.02-17.56a1.47 1.46 0 0 1 1.47-1.46h.05a1.45 1.44-.2 0 1 1.46 1.44l.02 12.33a2.46 2.46 0 0 0 2.52 2.46h.21a2.34 2.33-89.1 0 0 2.41-2.34l.03-17.31a1.52 1.52 0 0 1 1.52-1.52h.28a1.24 1.24 0 0 1 1.24 1.24v4.35a1.56 1.55-65.9 0 0 .39 1.03q3.13 3.51 4.78-.97z" class="J"/><path d="M333.29 177.66l-.01-23.4a2.99 2.88 55.2 0 1 .15-.93q1.69-5.37 7.34-5.02a.52.51-87.3 0 0 .54-.5q.08-2.08.72-3.69l2.87-3.07a1.27 1.27 0 0 1 .63-.37q6.19-1.67 8.84 3.94a.82.8-12.8 0 0 .75.46q7.87-.08 7.82 7.93-.06 11.35-.01 11.68a.48.48 0 0 0 .67.38c6.7-2.95 12.54 3.44 8.49 9.51-3.36 5.05-6.32 9.47-12.5 13.04a1.26 1.25 46.6 0 1-1.32-.04q-1.63-1.05-1.77-2.8a1.29 1.29 0 0 1 .55-1.18q6.83-4.7 11.21-12.45a1.28 1.28 0 0 0-.5-1.75l-.05-.03a1.56 1.55-56.7 0 0-1.96.41c-1.91 2.4-3.49 5.35-5.71 4.92a2.65 2.63-84.8 0 1-2.13-2.57q-.07-6.26-.04-20.5a1.37 1.37 0 0 0-1.46-1.37h-.14a1.47 1.47 0 0 0-1.41 1.47l-.03 12.39a2.34 2.32-87.7 0 1-2.5 2.32l-.3-.02a2.44 2.43 1 0 1-2.36-2.43l-.01-17.2a1.49 1.48-89.8 0 0-1.47-1.49h-.06a1.47 1.47 0 0 0-1.45 1.47l.01 18.76a2.56 2.56 0 0 1-2.57 2.56h-.03a2.41 2.41 0 0 1-2.64-2.39l-.04-10.9a1.31 1.3-2 0 0-1.4-1.3l-.13.01a1.5 1.49-1.2 0 0-1.44 1.49q0 11.51.02 22.53c.01 2.68.82 4.5 2.59 6.1a1.44 1.43 41.7 0 1 .12 2.01l-1.41 1.62a1.38 1.37 41.3 0 1-1.95.12c-3.25-2.92-3.87-5.27-4.52-9.72zm772.51 30.5q.04 13.06.03 41.31c0 1.9-1.44 3.46-3.32 3.39q-.87-.03-3.24-1.65-5.71-3.91-8.8-5.9a.89.88-45.3 0 0-.98.01q-3.16 2.12-10.27 6.87c-2.11 1.41-3.45.24-5.2-.9q-5.15-3.36-9.08-6.1a.59.59 0 0 0-.65-.01q-1.07.68-9.36 6.26c-2.1 1.42-4.51 2.35-5.72-.32a2.05 1.9-59.1 0 1-.17-.81q.03-39.42-.03-55.83c-.03-8.9 5.71-15.26 14.49-15.27q43.81-.02 46.7-.01 8.99.05 11.58 7.47.97 2.77.92 8.98-.07 8.86-.11 9.11c-.35 2.38-1.54 2.79-3.95 2.78q-7.4-.05-12.2-.02a.65.64-.5 0 0-.64.64zm-6.09 35.72q-.03-26.27-.01-52.89 0-2.37.93-5.35a.42.42 0 0 0-.4-.54q-22.7.15-29.87.01-8.53-.17-10.58.77-4.96 2.27-4.96 8.63 0 48.35.01 49.11a.36.36 0 0 0 .54.3q2.16-1.24 6.92-4.61 1.94-1.38 3.55-.56.9.46 10.94 7.28a.87.87 0 0 0 .96 0l10.68-7.14a2.88 2.86-44.6 0 1 3.2.01l7.69 5.19a.26.25-72.6 0 0 .4-.21zm6.49-42.26l10.06-.02a.41.41 0 0 0 .41-.41l-.01-10.41a5.6 5.26 89.9 0 0-5.27-5.59h-.36a5.6 5.26 89.9 0 0-5.25 5.61l.01 10.41a.41.41 0 0 0 .41.41z" class="I"/><g class="E"><path d="M766.83 221.78q-.32-3.31.07-4.63c1.9-6.5 8.78-10.32 14.99-11.24 22.44-3.34 45.1 2.3 60.27 19.89 2.45 2.84 5.51 7.71 5.46 11.4a3.83 3.82 79.4 0 1-2.4 3.51q-1.14.46-2.77-.64c-3.18-2.14-6.44-5.16-9.79-7.11q-9.3-5.43-15.03-7.52-13.8-5.02-28.64-4.1-9.37.57-18.22 1.82-1.68.24-3.37-.56a1.04 1.03-80.1 0 1-.57-.82zM650.81 240.4c-1.79 1.6-4.08 1.87-5.27-.95-2.23-5.27 3.01-13.97 6.05-17.36q13.87-15.44 34.63-16.3c8.11-.34 26.86 2.19 26.88 13.77 0 7.22-8.81 4.83-12.81 3.99-7.67-1.63-17.28-.74-23.8.99-9.86 2.59-18.17 9.12-25.68 15.86zm164.14 15.98q.96 6.91-3.06 12.46c-3.57 4.93-11 5.32-15.64 2.59-6.12-3.61-6.93-10.89-6.15-17.43a.91.91 0 0 0-1.19-.97q-5.51 1.83-10.44 5.92-2.71 2.25-5.88 2.97a2 2 0 0 1-2.4-1.49q-1.55-6.51 3.85-10.93 8.02-6.6 15.96-7.51c6.27-.72 15.07-.86 21.54 1.18 8.68 2.73 22.14 10.65 23.64 20.34a2.39 2.1 83.8 0 1-1.92 2.73q-1.59.08-3.31-.97-6.76-4.11-14.21-9.38a.51.51 0 0 0-.79.49zm-114.24-.71a.54.53 15.4 0 0-.87.49q1.01 6.63-2.43 12.58c-3.31 5.71-10.58 6.9-16.15 3.44-4.36-2.71-6.15-9.25-6.32-14.35a.7.69-12 0 0-.96-.62q-3.19 1.31-6.47 3.8c-3.99 3.03-6.51 5.75-10.05 5.37a2.39 2.03 1.5 0 1-2.11-1.89c-.28-3.2 2.25-7.02 4.54-9.39 10.52-10.87 26.8-14.93 41.54-10.08 5.12 1.68 10.84 6.33 10.88 12.19.06 6.35-6.52 3.73-8.92 1.13q-1.8-1.95-2.68-2.67zm218.72 73.32a1.77 1.76 16.5 0 1-1.29-2.36q2.62-6.9 4.28-12.15 1.57-4.96 1.5-10.4c-.04-3.67-5.37-3.99-8.17-4.21a1.04 1.04 0 0 1-.97-1.09c.53-12.09 10.09-24.35 19.01-31.98q2.55-2.18 5.77-2.69a2.3 2.17 82.8 0 1 2.51 2.07c.29 3.05-4.66 7.71-7.29 10.5-4.55 4.85-6.97 9.03-8.77 14.64a1.51 1.51 0 0 0 .78 1.82c12.89 6.25 2.63 25.34-2.2 33.42q-1.87 3.11-5.16 2.43z"/><ellipse cx="0" cy="0" transform="matrix(-.997314 -.073238 .073238 -.997314 852.95 270.73)" rx="12.05" ry="3.84"/><ellipse cx="0" cy="0" transform="matrix(.083678 -.996493 .996493 .083678 880.87 379.47)" rx="15.67" ry="2.96"/></g><path fill="#fff" d="M700.77 374.94c13.08 2.57 23.29 4.69 35.94 5.24 20.71.91 40.68-.7 61.51-6.48q1.9-.52 4.44-.78a.61.6-83 0 1 .63.81c-5.32 14.64-18.76 24.91-33.8 27.71q-19.77 3.68-37.54.52-18.96-3.38-28.96-20.19-1.92-3.21-2.61-6.44a.33.33 0 0 1 .39-.39z"/><g class="E"><path d="M862.68 418.47a1.26 1.26 0 0 1-1.17-1.34l1.03-15.53a13.36 2.52-86.2 0 1 3.4-13.16l.5.03a13.36 2.52-86.2 0 1 1.63 13.5l-1.03 15.52a1.26 1.26 0 0 1-1.34 1.18l-3.02-.2z"/><ellipse cx="0" cy="0" transform="matrix(.074979 -.997185 .997185 .074979 846.68 430.19)" rx="17.35" ry="3.2"/><ellipse cx="0" cy="0" transform="matrix(.059306 -.99824 .99824 .059306 823.34 451.47)" rx="16.97" ry="3.22"/><ellipse cx="0" cy="0" transform="matrix(.050593 -.998719 .998719 .050593 799.19 469.26)" rx="14.7" ry="3.18"/><path d="M1274.42 707.33a.75.75 0 0 0 .65-.74q.02-10.81.06-17.79c.02-5.28 2.94-6.77 7.82-6.74 4.81.02 11.44-.81 11.55 5.7q.19 11.7.18 17.89a1.31 1.31 0 0 0 1.29 1.31c15.15.32 27.74 5.57 40.67 13.01q2.26 1.3 3.09 2.25a1.9 1.89 38.7 0 1 .24 2.14q-3.99 7.42-7.89 13.73-2.63 4.24-5.36 6.32-1.45 1.11-3.6-.01-13.44-6.97-27.49-9.84a.87.87 0 0 0-1.04.85v41.41a1.11 1.11 0 0 0 .82 1.07c19.83 5.36 37.48 13.5 45.95 33.33q2.47 5.79 2.98 13.37c1.32 19.72-10.3 36.73-27.7 45.28q-10.09 4.95-21.53 6.23a.53.52-3.1 0 0-.47.52q-.01 2.13-.15 16.13c-.02 2.86-.64 6.59-4.09 6.96q-4.73.5-10.39.02c-5.37-.45-4.94-3.63-4.96-8.31q-.05-8.21.1-13.81a.63.63 0 0 0-.61-.65q-2.72-.11-12.7-1.57c-13.56-2-28.38-8.59-38.15-18.91a2.17 2.17 0 0 1-.35-2.51c3.44-6.56 6.57-12.82 11.25-18.11a1.78 1.72-73.8 0 1 .98-.56q2.1-.41 4.42 1c3.77 2.29 9.12 5.99 14.06 8.12q9.1 3.9 19.85 5.67a.96.95 4.6 0 0 1.11-.94v-46.06a.87.86-86.2 0 0-.75-.86q-19.03-2.64-32.53-14.93-13.28-12.09-15.24-29.04-1.13-9.86 2.69-19.96 3.37-8.92 11.51-16.51 11.42-10.64 27.12-13.42 3.67-.65 6.61-1.04zm.66 63.84l-.06-34.96a.04.04 0 0 0-.04-.04h-.14a17.43 16.86 89.9 0 0-16.83 17.45v.18a17.43 16.86 89.9 0 0 16.89 17.41h.14a.04.04 0 0 0 .04-.04zm19.52 38.5v38.32a.74.74 0 0 0 .91.72q13.31-3.01 16.84-15.59 1.85-6.58-1.14-13.2c-2.59-5.74-9.96-9.29-15.7-10.94a.72.71-82.1 0 0-.91.69z"/></g><g class="D"><rect x="729.38" y="689.73" width="5.36" height="12.76" rx=".64"/><rect x="846.38" y="689.7" width="5.32" height="25.58" rx="1.02"/><rect x="876.1" y="690.29" width="4.96" height="10.14" rx=".56"/><rect x="-1.24" y="-2.89" transform="matrix(.999998 -.001745 .001745 .999998 780.99 735.01)" width="2.48" height="5.78" rx=".71"/><path d="M1099.71 243.88a.26.25-72.6 0 1-.4.21l-7.69-5.19a2.88 2.86-44.6 0 0-3.2-.01l-10.68 7.14a.87.87 0 0 1-.96 0q-10.04-6.82-10.94-7.28-1.61-.82-3.55.56-4.76 3.37-6.92 4.61a.36.36 0 0 1-.54-.3q-.01-.76-.01-49.11 0-6.36 4.96-8.63 2.05-.94 10.58-.77 7.17.14 29.87-.01a.42.42 0 0 1 .4.54q-.93 2.98-.93 5.35-.02 26.62.01 52.89zm-26.86-23.81a.46.44-50.8 0 1-.61.07l-8.75-6.56a2.83 2.83 0 0 0-4.02.64l-.11.16a3 2.99 36.9 0 0 .59 4.13q3.65 2.83 10.56 7.98c2.03 1.51 3.48 1.56 5.15-.33q18.76-21.4 19.48-22.27a2.95 2.94 39.9 0 0-.37-4.12l-.14-.12a2.95 2.94 41.4 0 0-4.17.26l-17.61 20.16z"/></g><path d="M1106.2 201.62a.41.41 0 0 1-.41-.41l-.01-10.41a5.6 5.26 89.9 0 1 5.25-5.61h.36a5.6 5.26 89.9 0 1 5.27 5.59l.01 10.41a.41.41 0 0 1-.41.41l-10.06.02z" class="J"/><path d="M1275.08 771.17a.04.04 0 0 1-.04.04h-.14a17.43 16.86 89.9 0 1-16.89-17.41v-.18a17.43 16.86 89.9 0 1 16.83-17.45h.14a.04.04 0 0 1 .04.04l.06 34.96zm20.43 37.81c5.74 1.65 13.11 5.2 15.7 10.94q2.99 6.62 1.14 13.2-3.53 12.58-16.84 15.59a.74.74 0 0 1-.91-.72v-38.32a.72.71-82.1 0 1 .91-.69z" class="D"/><path d="M1072.85 220.07l17.61-20.16a2.95 2.94 41.4 0 1 4.17-.26l.14.12a2.95 2.94 39.9 0 1 .37 4.12q-.72.87-19.48 22.27c-1.67 1.89-3.12 1.84-5.15.33q-6.91-5.15-10.56-7.98a3 2.99 36.9 0 1-.59-4.13l.11-.16a2.83 2.83 0 0 1 4.02-.64l8.75 6.56a.46.44-50.8 0 0 .61-.07z" class="I"/></svg>