<?xml version="1.0" encoding="UTF-8" standalone="no"?>
<!DOCTYPE svg PUBLIC "-//W3C//DTD SVG 1.0//EN" "http://www.w3.org/TR/2001/REC-SVG-20010904/DTD/svg10.dtd">
<svg xmlns="http://www.w3.org/2000/svg" version="1.0" viewBox="0.00 0.00 832.00 1183.00">
<g stroke-width="2.00" fill="none" stroke-linecap="butt">
<path stroke="#7d8095" d="
  M 505.70 203.71
  C 527.06 178.65 534.61 143.56 527.58 111.67
  C 521.21 82.75 502.55 58.06 476.95 43.77
  Q 452.27 29.99 422.97 30.08
  C 380.17 30.21 342.18 57.25 326.39 96.67
  Q 323.91 102.85 321.26 115.94
  Q 319.95 122.41 319.92 131.45
  Q 319.88 144.97 320.13 147.05
  Q 324.16 181.42 345.82 205.96
  C 364.57 227.21 392.39 240.83 421.59 241.53
  Q 432.81 241.80 440.52 240.53
  Q 479.79 234.10 505.70 203.71"
/>
<path stroke="#7d8095" d="
  M 461.1278 93.2569
  A 36.48 36.34 -2.0 0 0 423.4018 58.2121
  A 36.48 36.34 -2.0 0 0 388.2122 95.8031
  A 36.48 36.34 -2.0 0 0 425.9382 130.8479
  A 36.48 36.34 -2.0 0 0 461.1278 93.2569"
/>
<path stroke="#7d8095" d="
  M 424.78 226.34
  Q 442.69 226.36 459.87 219.49
  C 467.07 216.62 486.81 206.89 487.15 198.01
  Q 487.36 192.64 487.50 181.30
  Q 487.63 170.92 485.48 164.83
  C 480.53 150.86 468.56 142.81 453.75 142.73
  Q 442.99 142.67 424.86 142.65
  Q 406.74 142.63 395.98 142.67
  C 381.17 142.72 369.18 150.74 364.20 164.70
  Q 362.04 170.79 362.15 181.17
  Q 362.26 192.51 362.46 197.88
  C 362.78 206.76 382.50 216.53 389.69 219.42
  Q 406.86 226.32 424.78 226.34"
/>
<path stroke="#723831" d="
  M 760.91 74.36
  A 7.31 7.31 0.0 0 0 753.60 67.05
  L 631.58 67.05
  A 7.31 7.31 0.0 0 0 624.27 74.36
  L 624.27 183.08
  A 7.31 7.31 0.0 0 0 631.58 190.39
  L 753.60 190.39
  A 7.31 7.31 0.0 0 0 760.91 183.08
  L 760.91 74.36"
/>
<path stroke="#7d8095" d="
  M 447.34 94.63
  A 22.63 22.63 0.0 0 0 424.71 72.00
  A 22.63 22.63 0.0 0 0 402.08 94.63
  A 22.63 22.63 0.0 0 0 424.71 117.26
  A 22.63 22.63 0.0 0 0 447.34 94.63"
/>
<path stroke="#723831" d="
  M 677.26 150.61
  Q 675.35 149.03 674.00 147.65
  Q 660.53 133.90 654.36 128.00
  C 650.33 124.14 645.97 126.20 643.60 130.35
  C 641.87 133.38 643.82 135.78 645.91 138.09
  C 651.19 143.95 658.61 150.88 665.29 158.12
  Q 668.85 161.98 672.93 165.31
  C 676.12 167.92 679.38 167.68 682.65 164.60
  Q 686.53 160.96 689.48 157.73
  Q 720.07 124.19 735.50 107.72
  C 738.39 104.63 741.91 99.53 738.33 95.71
  C 733.66 90.73 730.68 93.05 726.92 97.17
  C 713.64 111.77 694.63 133.37 678.17 150.55
  A 0.67 0.67 0.0 0 1 677.26 150.61"
/>
<path stroke="#723831" d="
  M 424.67 212.29
  C 439.12 212.40 452.58 209.07 465.15 202.12
  C 468.91 200.05 473.71 197.42 473.69 193.50
  Q 473.65 187.51 473.65 178.60
  Q 473.65 172.04 472.67 169.48
  C 469.87 162.16 463.72 157.01 455.71 156.76
  Q 452.92 156.67 425.07 156.47
  Q 397.21 156.27 394.42 156.32
  C 386.41 156.46 380.19 161.52 377.29 168.80
  Q 376.27 171.35 376.18 177.91
  Q 376.05 186.82 375.92 192.81
  C 375.85 196.73 380.61 199.42 384.34 201.55
  C 396.82 208.67 410.23 212.19 424.67 212.29"
/>
<path stroke="#7d8095" d="
  M 271.08 371.94
  A 5.67 5.67 0.0 0 0 265.41 366.27
  L 116.39 366.27
  A 5.67 5.67 0.0 0 0 110.72 371.94
  L 110.72 570.48
  A 5.67 5.67 0.0 0 0 116.39 576.15
  L 265.41 576.15
  A 5.67 5.67 0.0 0 0 271.08 570.48
  L 271.08 371.94"
/>
<path stroke="#7d8095" d="
  M 505.17 371.88
  A 5.63 5.63 0.0 0 0 499.54 366.25
  L 350.66 366.25
  A 5.63 5.63 0.0 0 0 345.03 371.88
  L 345.03 570.48
  A 5.63 5.63 0.0 0 0 350.66 576.11
  L 499.54 576.11
  A 5.63 5.63 0.0 0 0 505.17 570.48
  L 505.17 371.88"
/>
<path stroke="#7d8095" d="
  M 739.05 371.86
  A 5.59 5.59 0.0 0 0 733.46 366.27
  L 585.00 366.27
  A 5.59 5.59 0.0 0 0 579.41 371.86
  L 579.41 570.56
  A 5.59 5.59 0.0 0 0 585.00 576.15
  L 733.46 576.15
  A 5.59 5.59 0.0 0 0 739.05 570.56
  L 739.05 371.86"
/>
<path stroke="#7d8095" d="
  M 198.87 438.41
  C 199.93 437.63 201.93 437.23 203.40 436.51
  C 214.69 431.00 220.68 417.87 218.42 406.01
  C 215.47 390.55 203.41 380.86 187.51 382.02
  Q 175.40 382.90 167.96 392.03
  C 163.60 397.37 160.43 405.80 161.43 413.19
  C 163.14 425.79 169.33 434.81 181.86 438.13
  Q 182.36 438.27 182.58 438.57
  A 0.37 0.36 73.5 0 1 182.27 439.15
  Q 177.70 438.88 170.33 438.83
  Q 162.65 438.78 159.26 440.03
  Q 153.67 442.08 149.60 445.63
  Q 140.64 453.43 140.32 465.77
  Q 140.29 466.72 140.08 480.11
  C 139.99 485.69 141.62 491.25 148.25 491.28
  Q 191.02 491.46 231.73 491.25
  C 237.96 491.21 239.82 486.17 239.84 481.00
  Q 239.87 470.22 239.90 469.30
  C 240.35 455.39 234.40 444.69 220.72 440.00
  Q 217.61 438.93 211.76 438.86
  Q 204.63 438.77 199.09 439.02
  A 0.34 0.34 0.0 0 1 198.87 438.41"
/>
<path stroke="#7d8095" d="
  M 248.04 512.00
  A 6.57 6.57 0.0 0 0 241.47 505.43
  L 142.47 505.43
  A 6.57 6.57 0.0 0 0 135.90 512.00
  L 135.90 513.06
  A 6.57 6.57 0.0 0 0 142.47 519.63
  L 241.47 519.63
  A 6.57 6.57 0.0 0 0 248.04 513.06
  L 248.04 512.00"
/>
<path stroke="#7d8095" d="
  M 227.4910 540.4100
  A 6.40 6.40 0.0 0 0 221.1022 533.9988
  L 142.2823 533.8612
  A 6.40 6.40 0.0 0 0 135.8712 540.2500
  L 135.8690 541.4900
  A 6.40 6.40 0.0 0 0 142.2578 547.9012
  L 221.0777 548.0388
  A 6.40 6.40 0.0 0 0 227.4888 541.6500
  L 227.4910 540.4100"
/>
<path stroke="#7d8095" d="
  M 424.14 491.35
  Q 449.66 491.46 459.26 491.47
  Q 467.51 491.48 469.18 490.88
  Q 473.82 489.24 474.00 482.73
  Q 474.17 476.98 474.21 471.58
  Q 474.26 463.56 473.50 460.48
  Q 470.21 447.18 457.68 441.32
  C 450.68 438.05 442.00 438.72 432.28 439.16
  Q 431.94 439.17 431.72 439.05
  A 0.30 0.29 51.7 0 1 431.78 438.51
  Q 452.56 432.61 453.23 410.72
  C 453.66 396.81 443.40 384.95 430.02 382.16
  Q 429.01 381.95 424.59 381.93
  Q 420.17 381.91 419.16 382.11
  C 405.76 384.79 395.40 396.57 395.71 410.48
  Q 396.20 432.38 416.93 438.45
  A 0.30 0.29 -51.2 0 1 416.99 438.99
  Q 416.77 439.11 416.43 439.09
  C 406.71 438.57 398.04 437.83 391.01 441.04
  Q 378.43 446.80 375.03 460.07
  Q 374.24 463.14 374.23 471.16
  Q 374.22 476.56 374.35 482.32
  Q 374.47 488.83 379.10 490.51
  Q 380.76 491.12 389.02 491.18
  Q 398.61 491.25 424.14 491.35"
/>
<path stroke="#7d8095" d="
  M 481.24 511.91
  A 6.50 6.50 0.0 0 0 474.74 505.41
  L 375.12 505.41
  A 6.50 6.50 0.0 0 0 368.62 511.91
  L 368.62 513.13
  A 6.50 6.50 0.0 0 0 375.12 519.63
  L 474.74 519.63
  A 6.50 6.50 0.0 0 0 481.24 513.13
  L 481.24 511.91"
/>
<path stroke="#7d8095" d="
  M 461.35 540.42
  A 6.47 6.47 0.0 0 0 454.88 533.95
  L 375.14 533.95
  A 6.47 6.47 0.0 0 0 368.67 540.42
  L 368.67 541.50
  A 6.47 6.47 0.0 0 0 375.14 547.97
  L 454.88 547.97
  A 6.47 6.47 0.0 0 0 461.35 541.50
  L 461.35 540.42"
/>
<path stroke="#7d8095" d="
  M 665.81 438.62
  C 666.95 437.81 668.51 437.64 670.14 436.87
  Q 686.58 429.02 687.05 411.06
  C 687.38 398.14 678.61 386.28 666.47 382.98
  C 652.72 379.25 638.87 384.91 632.44 397.66
  C 625.34 411.75 630.16 428.20 643.80 435.89
  C 645.59 436.90 647.82 437.39 649.57 438.27
  A 0.46 0.46 0.0 0 1 649.35 439.15
  C 642.26 438.86 634.95 438.17 629.01 440.05
  C 619.93 442.93 613.51 449.34 610.27 458.26
  Q 608.94 461.94 608.99 470.41
  Q 609.06 481.84 609.05 482.75
  C 609.00 486.59 611.37 490.54 615.49 491.00
  Q 618.06 491.29 619.76 491.29
  Q 679.81 491.47 700.44 491.24
  Q 707.60 491.16 708.59 483.52
  Q 708.74 482.31 708.72 470.30
  Q 708.71 463.34 707.52 459.32
  C 704.80 450.12 698.19 442.59 688.97 439.86
  Q 685.40 438.81 677.53 438.88
  Q 668.93 438.97 665.97 439.10
  A 0.26 0.26 0.0 0 1 665.81 438.62"
/>
<path stroke="#7d8095" d="
  M 715.86 512.01
  A 6.58 6.58 0.0 0 0 709.28 505.43
  L 609.72 505.43
  A 6.58 6.58 0.0 0 0 603.14 512.01
  L 603.14 513.05
  A 6.58 6.58 0.0 0 0 609.72 519.63
  L 709.28 519.63
  A 6.58 6.58 0.0 0 0 715.86 513.05
  L 715.86 512.01"
/>
<path stroke="#7d8095" d="
  M 696.15 540.17
  A 6.19 6.19 0.0 0 0 689.96 533.98
  L 609.50 533.98
  A 6.19 6.19 0.0 0 0 603.31 540.17
  L 603.31 541.79
  A 6.19 6.19 0.0 0 0 609.50 547.98
  L 689.96 547.98
  A 6.19 6.19 0.0 0 0 696.15 541.79
  L 696.15 540.17"
/>
<path stroke="#7d8095" d="
  M 185.9590 425.6645
  A 15.39 14.94 105.3 0 0 204.4305 414.7623
  A 15.39 14.94 105.3 0 0 194.0810 395.9755
  A 15.39 14.94 105.3 0 0 175.6095 406.8777
  A 15.39 14.94 105.3 0 0 185.9590 425.6645"
/>
<path stroke="#723831" d="
  M 154.62 478.20
  L 225.72 478.20
  A 0.60 0.60 0.0 0 0 226.32 477.60
  L 226.32 466.02
  A 13.62 12.99 90.0 0 0 213.33 452.40
  L 167.01 452.40
  A 13.62 12.99 90.0 0 0 154.02 466.02
  L 154.02 477.60
  A 0.60 0.60 0.0 0 0 154.62 478.20"
/>
<path stroke="#7d8095" d="
  M 423.4358 426.0488
  A 15.35 14.89 94.2 0 0 439.4100 411.8305
  A 15.35 14.89 94.2 0 0 425.6842 395.4312
  A 15.35 14.89 94.2 0 0 409.7100 409.6495
  A 15.35 14.89 94.2 0 0 423.4358 426.0488"
/>
<path stroke="#273c63" d="
  M 388.36 478.23
  L 459.56 478.11
  A 0.95 0.95 0.0 0 0 460.51 477.16
  L 460.49 467.42
  A 15.23 14.63 89.9 0 0 445.84 452.21
  L 402.00 452.29
  A 15.23 14.63 89.9 0 0 387.39 467.54
  L 387.41 477.28
  A 0.95 0.95 0.0 0 0 388.36 478.23"
/>
<path stroke="#7d8095" d="
  M 656.7437 426.0592
  A 15.37 14.97 95.1 0 0 673.0207 412.0807
  A 15.37 14.97 95.1 0 0 659.4763 395.4408
  A 15.37 14.97 95.1 0 0 643.1993 409.4193
  A 15.37 14.97 95.1 0 0 656.7437 426.0592"
/>
<path stroke="#723831" d="
  M 623.30 478.15
  L 694.14 478.27
  A 0.99 0.99 0.0 0 0 695.13 477.28
  L 695.15 466.85
  A 14.34 13.76 -89.9 0 0 681.41 452.49
  L 636.11 452.41
  A 14.34 13.76 -89.9 0 0 622.33 466.73
  L 622.31 477.16
  A 0.99 0.99 0.0 0 0 623.30 478.15"
/>
<path stroke="#723831" d="
  M 785.20 673.18
  L 752.92 673.18
  A 3.64 3.63 -8.9 0 1 749.46 670.66
  L 738.55 636.73
  A 0.14 0.14 0.0 0 0 738.30 636.70
  Q 737.58 637.82 737.04 639.30
  Q 732.76 651.14 728.46 665.44
  Q 727.55 668.47 725.38 672.00
  A 2.00 1.97 0.4 0 1 724.69 672.67
  Q 723.63 673.29 721.01 673.27
  Q 704.39 673.16 692.00 673.02
  Q 691.22 673.01 690.79 673.24
  A 0.51 0.51 0.0 0 0 690.71 674.09
  Q 705.56 685.67 713.79 691.74
  C 717.13 694.20 718.74 696.17 717.46 700.24
  Q 711.92 717.76 707.52 730.02
  Q 707.23 730.82 707.13 731.91
  A 0.49 0.49 0.0 0 0 707.91 732.34
  Q 730.69 714.90 733.80 712.61
  Q 738.86 708.88 743.06 711.98
  Q 754.81 720.65 767.08 730.85
  A 0.60 0.60 0.0 0 0 768.04 730.22
  Q 764.26 717.63 759.88 704.62
  C 758.19 699.60 756.68 696.53 761.12 693.11
  Q 769.19 686.91 785.48 673.98
  A 0.45 0.45 0.0 0 0 785.20 673.18"
/>
<path stroke="#273c63" d="
  M 639.3976 861.6871
  A 23.53 23.26 111.0 0 0 669.5451 848.0556
  A 23.53 23.26 111.0 0 0 656.2624 817.7529
  A 23.53 23.26 111.0 0 0 626.1149 831.3844
  A 23.53 23.26 111.0 0 0 639.3976 861.6871"
/>
<path stroke="#273c63" d="
  M 574.41 970.42
  A 21.96 21.96 0.0 0 0 552.45 948.46
  A 21.96 21.96 0.0 0 0 530.49 970.42
  A 21.96 21.96 0.0 0 0 552.45 992.38
  A 21.96 21.96 0.0 0 0 574.41 970.42"
/>
<path stroke="#273c63" d="
  M 721.9019 1080.0308
  A 22.52 21.70 84.9 0 0 741.5141 1055.6710
  A 22.52 21.70 84.9 0 0 717.8981 1035.1692
  A 22.52 21.70 84.9 0 0 698.2859 1059.5290
  A 22.52 21.70 84.9 0 0 721.9019 1080.0308"
/>
<path stroke="#723831" d="
  M 508.34 1114.01
  A 0.96 0.96 0.0 0 0 508.33 1115.33
  L 531.31 1139.80
  A 0.96 0.96 0.0 0 0 532.70 1139.81
  L 555.89 1115.54
  A 0.96 0.96 0.0 0 0 555.90 1114.22
  L 532.92 1089.76
  A 0.96 0.96 0.0 0 0 531.53 1089.75
  L 508.34 1114.01"
/>
<path stroke="#273c63" d="
  M 505.52 670.08
  L 507.94 672.01"
/>
<path stroke="#273c63" d="
  M 507.94 672.01
  L 511.95 679.62
  A 0.18 0.17 63.4 0 0 512.18 679.70
  Q 512.44 679.58 512.31 679.28
  Q 510.68 675.31 507.94 672.01"
/>
<path stroke="#273c63" d="
  M 507.94 672.01
  C 502.01 661.87 491.38 651.07 479.82 647.04"
/>
<path stroke="#723831" d="
  M 479.82 647.04
  L 472.10 641.82
  A 1.32 1.27 66.6 0 0 471.67 641.64
  L 468.19 640.85
  A 0.06 0.05 -41.0 0 1 468.20 640.74
  Q 468.34 640.73 468.44 640.64
  A 0.15 0.15 0.0 0 0 468.41 640.40
  L 466.54 639.40"
/>
<path stroke="#273c63" d="
  M 466.54 639.40
  Q 466.31 639.25 466.11 639.27
  A 0.13 0.12 -21.2 0 0 466.02 639.47
  Q 466.10 639.56 466.24 639.71"
/>
<path stroke="#723831" d="
  M 466.24 639.71
  Q 464.99 639.15 463.89 638.88
  Q 464.23 639.00 465.14 638.83
  A 0.09 0.09 0.0 0 0 465.14 638.66
  L 462.89 638.29
  A 0.15 0.15 0.0 0 1 462.88 638.00
  Q 462.90 638.00 463.15 638.00
  A 0.07 0.07 0.0 0 0 463.18 637.87
  C 460.08 636.22 457.02 635.68 452.88 634.99
  A 0.10 0.10 0.0 0 0 452.77 635.13
  Q 452.86 635.30 453.08 635.09
  A 0.30 0.30 0.0 0 0 452.91 634.57
  Q 452.54 634.52 452.39 634.27
  A 0.35 0.33 -16.8 0 0 452.11 634.13
  L 449.61 634.13
  A 1.14 0.98 49.4 0 1 449.29 634.08
  Q 424.80 627.66 401.65 632.76
  C 371.69 639.36 343.36 662.80 331.87 691.41
  Q 327.92 701.24 325.30 715.80
  Q 324.23 721.79 324.20 729.51
  Q 324.17 739.49 324.49 743.27
  C 326.06 761.86 333.99 781.18 346.13 795.58
  Q 355.26 806.41 364.12 813.15
  Q 390.87 833.50 424.95 833.27
  Q 456.17 833.06 481.81 815.86
  C 503.46 801.34 519.01 778.50 523.85 752.88
  C 527.91 731.41 525.78 710.57 517.33 690.08
  C 516.84 688.89 515.92 688.68 516.12 686.96
  A 1.24 1.23 -58.4 0 0 515.93 686.15
  L 505.52 670.08"
/>
<path stroke="#98664d" d="
  M 466.24 639.71
  Q 466.39 639.55 466.54 639.40"
/>
<path stroke="#98664d" d="
  M 479.82 647.04
  C 480.76 647.63 482.82 648.08 483.38 648.65
  A 0.14 0.14 0.0 0 1 483.21 648.87
  Q 482.48 648.45 482.47 648.45
  A 0.20 0.20 0.0 0 0 482.35 648.82
  C 483.90 649.85 485.67 649.75 486.84 650.94
  Q 495.58 659.87 500.12 664.18
  A 0.23 0.22 42.4 0 0 500.44 664.17
  L 500.66 663.95
  A 0.07 0.06 -48.6 0 0 500.66 663.86
  L 494.12 657.61
  A 0.11 0.10 46.8 0 1 494.12 657.46
  L 494.33 657.30
  A 0.24 0.23 -42.5 0 1 494.67 657.31
  Q 496.73 659.64 499.02 661.72
  Q 499.98 662.60 501.69 665.51
  Q 503.19 668.06 505.52 670.08"
/>
<path stroke="#98664d" d="
  M 471.93 642.48
  A 0.20 0.20 0.0 0 0 472.21 642.23
  Q 472.11 641.97 471.72 641.91
  Q 471.22 641.83 471.43 642.17
  Q 471.45 642.21 471.93 642.48"
/>
<path stroke="#723831" d="
  M 425.40 662.20
  Q 425.60 662.20 425.74 662.30
  Q 433.41 668.14 442.60 675.11
  A 1.47 1.47 0.0 0 1 443.18 676.28
  L 443.18 681.77
  A 1.14 1.13 -70.9 0 0 443.61 682.66
  L 456.56 692.89
  A 0.29 0.28 26.3 0 0 457.01 692.74
  Q 459.18 684.67 466.17 681.18
  A 0.63 0.63 0.0 0 0 466.26 680.11
  Q 442.17 662.20 425.65 649.36
  Q 425.45 649.21 425.38 649.21
  Q 425.31 649.21 425.12 649.36
  Q 408.63 662.24 384.59 680.22
  A 0.63 0.63 0.0 0 0 384.68 681.29
  Q 391.68 684.76 393.87 692.82
  A 0.29 0.28 -26.5 0 0 394.32 692.97
  L 407.24 682.71
  A 1.14 1.13 70.8 0 0 407.67 681.82
  L 407.65 676.33
  A 1.47 1.47 0.0 0 1 408.23 675.16
  Q 417.40 668.16 425.06 662.30
  Q 425.19 662.20 425.40 662.20"
/>
<path stroke="#723831" d="
  M 425.42 820.95
  Q 425.82 820.95 426.01 820.81
  Q 452.07 801.49 475.38 783.28
  A 0.99 0.96 71.9 0 0 475.76 782.50
  Q 475.82 762.68 475.74 752.73
  C 475.70 747.37 476.67 743.45 481.03 740.82
  A 0.32 0.32 0.0 0 0 481.06 740.30
  L 463.22 726.21
  A 0.39 0.39 0.0 0 0 462.59 726.51
  L 462.59 775.66
  A 1.02 1.00 71.6 0 1 462.20 776.46
  L 432.60 799.10
  A 0.25 0.25 0.0 0 1 432.20 798.90
  L 432.20 693.60
  A 0.35 0.35 0.0 0 1 432.77 693.32
  L 442.82 701.26
  A 0.77 0.74 19.8 0 1 443.11 701.85
  L 443.11 769.76
  A 1.03 1.02 -19.2 0 1 442.71 770.57
  L 437.65 774.44
  A 1.25 1.23 71.7 0 0 437.16 775.43
  L 437.16 787.08
  A 0.29 0.29 0.0 0 0 437.62 787.31
  L 456.28 773.03
  A 0.68 0.67 72.0 0 0 456.55 772.49
  L 456.55 711.96
  A 0.35 0.35 0.0 0 1 457.12 711.68
  L 481.06 730.59
  A 0.43 0.43 0.0 0 0 481.76 730.25
  L 481.76 714.54
  A 0.38 0.38 0.0 0 0 481.26 714.18
  C 477.86 715.34 476.64 713.98 473.58 711.65
  Q 449.25 693.16 425.75 675.21
  Q 425.68 675.16 425.46 675.16
  Q 425.24 675.16 425.18 675.21
  Q 401.66 693.14 377.32 711.62
  C 374.26 713.95 373.04 715.31 369.64 714.14
  A 0.38 0.38 0.0 0 0 369.14 714.50
  L 369.13 730.21
  A 0.43 0.43 0.0 0 0 369.83 730.55
  L 393.78 711.66
  A 0.35 0.35 0.0 0 1 394.35 711.94
  L 394.31 772.47
  A 0.68 0.67 -71.9 0 0 394.58 773.01
  L 413.23 787.30
  A 0.29 0.29 0.0 0 0 413.69 787.07
  L 413.70 775.42
  A 1.25 1.23 -71.6 0 0 413.21 774.43
  L 408.15 770.56
  A 1.03 1.02 19.2 0 1 407.75 769.75
  L 407.80 701.84
  A 0.77 0.74 -19.8 0 1 408.09 701.25
  L 418.14 693.32
  A 0.35 0.35 0.0 0 1 418.71 693.60
  L 418.65 798.90
  A 0.25 0.25 0.0 0 1 418.25 799.10
  L 388.66 776.44
  A 1.02 1.00 -71.5 0 1 388.27 775.64
  L 388.30 726.49
  A 0.39 0.39 0.0 0 0 387.67 726.19
  L 369.82 740.26
  A 0.32 0.32 0.0 0 0 369.85 740.78
  C 374.21 743.42 375.18 747.34 375.14 752.70
  Q 375.05 762.65 375.10 782.47
  A 0.99 0.96 -71.8 0 0 375.48 783.25
  Q 398.77 801.47 424.82 820.81
  Q 425.01 820.95 425.42 820.95"
/>
<path stroke="#273c63" d="
  M 153.47 669.33
  A 1.71 1.71 0.0 0 0 151.81 668.06
  L 127.22 668.06
  A 1.71 1.71 0.0 0 0 125.58 669.30
  L 116.57 700.77
  A 1.71 1.71 0.0 0 0 118.22 702.95
  L 160.12 702.95
  A 1.71 1.71 0.0 0 0 161.77 700.80
  L 153.47 669.33"
/>
<path stroke="#7d8095" d="
  M 113.86 714.94
  A 0.35 0.35 0.0 0 0 113.52 715.20
  L 104.80 748.16
  A 0.35 0.35 0.0 0 0 105.32 748.55
  L 159.48 715.59
  A 0.35 0.35 0.0 0 0 159.30 714.94
  L 113.86 714.94"
/>
<path stroke="#273c63" d="
  M 178.31 767.68
  A 1.31 1.31 0.0 0 0 179.57 766.02
  L 168.19 725.78
  A 1.31 1.31 0.0 0 0 166.24 725.02
  L 100.37 765.39
  A 1.31 1.31 0.0 0 0 101.05 767.82
  L 178.31 767.68"
/>
<path stroke="#273c63" d="
  M 92.71 832.49
  A 0.91 0.91 0.0 0 0 93.11 834.22
  L 197.30 834.22
  A 0.91 0.91 0.0 0 0 198.18 833.06
  L 185.50 788.50
  A 0.91 0.91 0.0 0 0 184.22 787.94
  L 92.71 832.49"
/>
<path stroke="#7d8095" d="
  M 388.96 907.35
  A 6.63 6.63 0.0 0 0 382.33 900.72
  L 176.25 900.72
  A 6.63 6.63 0.0 0 0 169.62 907.35
  L 169.62 1085.27
  A 6.63 6.63 0.0 0 0 176.25 1091.90
  L 382.33 1091.90
  A 6.63 6.63 0.0 0 0 388.96 1085.27
  L 388.96 907.35"
/>
<path stroke="#7d8095" d="
  M 239.8927 947.3657
  A 5.48 5.48 0.0 0 0 234.4223 941.8762
  L 204.4223 941.8238
  A 5.48 5.48 0.0 0 0 198.9328 947.2943
  L 198.9273 950.4143
  A 5.48 5.48 0.0 0 0 204.3977 955.9038
  L 234.3977 955.9562
  A 5.48 5.48 0.0 0 0 239.8872 950.4857
  L 239.8927 947.3657"
/>
<path stroke="#7d8095" d="
  M 364.36 947.62
  A 5.80 5.80 0.0 0 0 358.56 941.82
  L 267.74 941.82
  A 5.80 5.80 0.0 0 0 261.94 947.62
  L 261.94 950.12
  A 5.80 5.80 0.0 0 0 267.74 955.92
  L 358.56 955.92
  A 5.80 5.80 0.0 0 0 364.36 950.12
  L 364.36 947.62"
/>
<path stroke="#7d8095" d="
  M 239.86 995.15
  A 5.36 5.36 0.0 0 0 234.50 989.79
  L 204.22 989.79
  A 5.36 5.36 0.0 0 0 198.86 995.15
  L 198.86 998.07
  A 5.36 5.36 0.0 0 0 204.22 1003.43
  L 234.50 1003.43
  A 5.36 5.36 0.0 0 0 239.86 998.07
  L 239.86 995.15"
/>
<path stroke="#7d8095" d="
  M 364.38 995.31
  A 5.54 5.54 0.0 0 0 358.84 989.77
  L 267.48 989.77
  A 5.54 5.54 0.0 0 0 261.94 995.31
  L 261.94 997.95
  A 5.54 5.54 0.0 0 0 267.48 1003.49
  L 358.84 1003.49
  A 5.54 5.54 0.0 0 0 364.38 997.95
  L 364.38 995.31"
/>
<path stroke="#7d8095" d="
  M 239.8551 1043.2616
  A 5.40 5.40 0.0 0 0 234.4740 1037.8428
  L 204.2741 1037.7373
  A 5.40 5.40 0.0 0 0 198.8553 1043.1185
  L 198.8449 1046.0984
  A 5.40 5.40 0.0 0 0 204.2260 1051.5172
  L 234.4259 1051.6227
  A 5.40 5.40 0.0 0 0 239.8447 1046.2415
  L 239.8551 1043.2616"
/>
<path stroke="#7d8095" d="
  M 364.37 1043.19
  A 5.42 5.42 0.0 0 0 358.95 1037.77
  L 267.37 1037.77
  A 5.42 5.42 0.0 0 0 261.95 1043.19
  L 261.95 1046.15
  A 5.42 5.42 0.0 0 0 267.37 1051.57
  L 358.95 1051.57
  A 5.42 5.42 0.0 0 0 364.37 1046.15
  L 364.37 1043.19"
/>
</g>
<g>
<path fill="#010d47" d="
  M 416.56 322.04
  A 0.80 0.80 0.0 0 0 417.93 321.48
  L 417.93 256.56
  A 1.09 1.09 0.0 0 0 416.90 255.47
  Q 387.26 253.48 361.73 237.42
  A 0.68 0.67 -54.7 0 0 360.84 237.58
  L 298.33 316.75
  A 0.74 0.74 0.0 0 0 299.09 317.93
  Q 314.99 313.89 323.99 312.18
  Q 326.02 311.80 327.74 313.03
  C 332.01 316.10 332.73 322.14 328.26 325.43
  Q 326.90 326.43 323.22 327.24
  Q 298.15 332.80 283.78 335.81
  C 278.64 336.89 271.96 335.65 271.96 329.00
  Q 271.96 314.20 271.97 285.50
  C 271.97 280.40 273.73 274.28 280.24 274.97
  Q 286.12 275.59 286.04 282.45
  Q 285.91 293.23 286.07 306.69
  C 286.09 308.17 285.47 309.53 285.77 310.89
  A 0.31 0.30 55.8 0 0 286.32 311.00
  Q 290.93 304.12 299.32 293.07
  C 323.00 261.87 337.35 242.87 348.17 229.29
  A 1.00 0.99 -50.7 0 0 348.04 227.91
  Q 328.19 211.17 317.26 188.97
  Q 307.46 169.06 305.73 145.62
  C 304.26 125.60 306.92 105.11 315.03 86.77
  C 332.32 47.70 369.68 19.85 412.59 16.19
  C 443.38 13.55 472.40 21.66 497.28 39.84
  C 521.07 57.24 538.11 84.20 542.62 112.97
  Q 544.46 124.72 544.41 137.32
  Q 544.35 149.06 541.66 161.55
  Q 533.13 201.07 501.17 227.87
  A 1.12 1.11 50.6 0 0 501.02 229.42
  Q 517.80 250.37 543.13 283.47
  C 548.18 290.06 557.50 300.99 562.06 307.18
  Q 563.53 309.19 563.78 310.12
  A 0.47 0.47 0.0 0 0 564.69 310.14
  C 565.26 308.26 564.43 305.21 564.47 302.99
  Q 564.64 291.52 564.27 284.64
  Q 564.07 280.74 564.96 278.96
  C 568.23 272.42 578.09 274.26 578.11 281.90
  Q 578.19 305.31 578.31 329.08
  C 578.34 335.02 572.75 336.91 567.81 335.89
  Q 542.52 330.68 524.92 326.67
  Q 522.83 326.19 521.48 325.43
  C 515.73 322.22 517.39 314.96 522.37 312.33
  Q 524.06 311.44 527.77 312.26
  Q 531.22 313.03 534.17 313.75
  Q 542.39 315.76 550.89 317.13
  Q 551.63 317.25 552.03 317.10
  A 0.61 0.61 0.0 0 0 552.22 316.06
  Q 549.91 314.08 548.01 311.74
  Q 518.99 276.05 489.27 237.50
  A 0.89 0.88 -34.9 0 0 488.09 237.30
  C 471.65 247.82 453.61 254.14 433.46 255.51
  A 1.47 1.47 0.0 0 0 432.08 257.01
  Q 432.22 266.15 432.07 322.62
  Q 432.07 322.97 432.30 323.23
  A 0.66 0.66 0.0 0 0 433.27 323.24
  Q 437.96 318.24 443.54 313.06
  C 447.05 309.80 450.53 308.45 454.19 312.04
  C 459.00 316.77 455.55 321.29 451.52 325.03
  Q 436.02 339.39 428.84 346.30
  Q 427.56 347.53 424.77 347.44
  C 422.94 347.37 420.86 345.23 419.26 343.81
  Q 404.24 330.47 396.40 322.64
  Q 391.69 317.94 394.96 313.04
  C 397.68 308.98 401.96 308.88 405.70 312.06
  Q 412.18 317.56 416.56 322.04
  Z
  M 505.70 203.71
  C 527.06 178.65 534.61 143.56 527.58 111.67
  C 521.21 82.75 502.55 58.06 476.95 43.77
  Q 452.27 29.99 422.97 30.08
  C 380.17 30.21 342.18 57.25 326.39 96.67
  Q 323.91 102.85 321.26 115.94
  Q 319.95 122.41 319.92 131.45
  Q 319.88 144.97 320.13 147.05
  Q 324.16 181.42 345.82 205.96
  C 364.57 227.21 392.39 240.83 421.59 241.53
  Q 432.81 241.80 440.52 240.53
  Q 479.79 234.10 505.70 203.71
  Z"
/>
<path fill="#010d47" d="
  M 774.66 182.79
  A 21.21 21.21 0.0 0 1 753.45 204.00
  L 631.19 204.00
  A 21.21 21.21 0.0 0 1 609.98 182.79
  L 609.98 74.21
  A 21.21 21.21 0.0 0 1 631.19 53.00
  L 753.45 53.00
  A 21.21 21.21 0.0 0 1 774.66 74.21
  L 774.66 182.79
  Z
  M 760.91 74.36
  A 7.31 7.31 0.0 0 0 753.60 67.05
  L 631.58 67.05
  A 7.31 7.31 0.0 0 0 624.27 74.36
  L 624.27 183.08
  A 7.31 7.31 0.0 0 0 631.58 190.39
  L 753.60 190.39
  A 7.31 7.31 0.0 0 0 760.91 183.08
  L 760.91 74.36
  Z"
/>
<path fill="#010d47" d="
  M 285.31 572.12
  A 18.34 18.34 0.0 0 1 266.97 590.46
  L 115.39 590.46
  A 18.34 18.34 0.0 0 1 97.05 572.12
  L 97.05 370.32
  A 18.34 18.34 0.0 0 1 115.39 351.98
  L 266.97 351.98
  A 18.34 18.34 0.0 0 1 285.31 370.32
  L 285.31 572.12
  Z
  M 271.08 371.94
  A 5.67 5.67 0.0 0 0 265.41 366.27
  L 116.39 366.27
  A 5.67 5.67 0.0 0 0 110.72 371.94
  L 110.72 570.48
  A 5.67 5.67 0.0 0 0 116.39 576.15
  L 265.41 576.15
  A 5.67 5.67 0.0 0 0 271.08 570.48
  L 271.08 371.94
  Z"
/>
<path fill="#010d47" d="
  M 519.37 573.06
  A 17.34 17.34 0.0 0 1 502.03 590.40
  L 348.41 590.40
  A 17.34 17.34 0.0 0 1 331.07 573.06
  L 331.07 369.28
  A 17.34 17.34 0.0 0 1 348.41 351.94
  L 502.03 351.94
  A 17.34 17.34 0.0 0 1 519.37 369.28
  L 519.37 573.06
  Z
  M 505.17 371.88
  A 5.63 5.63 0.0 0 0 499.54 366.25
  L 350.66 366.25
  A 5.63 5.63 0.0 0 0 345.03 371.88
  L 345.03 570.48
  A 5.63 5.63 0.0 0 0 350.66 576.11
  L 499.54 576.11
  A 5.63 5.63 0.0 0 0 505.17 570.48
  L 505.17 371.88
  Z"
/>
<path fill="#010d47" d="
  M 752.98 572.17
  A 18.26 18.26 0.0 0 1 734.72 590.43
  L 583.24 590.43
  A 18.26 18.26 0.0 0 1 564.98 572.17
  L 564.98 370.25
  A 18.26 18.26 0.0 0 1 583.24 351.99
  L 734.72 351.99
  A 18.26 18.26 0.0 0 1 752.98 370.25
  L 752.98 572.17
  Z
  M 739.05 371.86
  A 5.59 5.59 0.0 0 0 733.46 366.27
  L 585.00 366.27
  A 5.59 5.59 0.0 0 0 579.41 371.86
  L 579.41 570.56
  A 5.59 5.59 0.0 0 0 585.00 576.15
  L 733.46 576.15
  A 5.59 5.59 0.0 0 0 739.05 570.56
  L 739.05 371.86
  Z"
/>
<path fill="#010d47" d="
  M 587.33 959.14
  Q 592.69 958.89 596.00 958.85
  Q 612.09 958.69 667.78 958.73
  Q 693.52 958.75 710.54 978.02
  Q 726.97 996.62 726.42 1021.79
  A 0.88 0.88 0.0 0 0 727.18 1022.68
  Q 731.97 1023.37 736.41 1025.84
  C 750.54 1033.72 757.40 1049.65 754.04 1065.50
  C 750.64 1081.52 737.41 1092.34 721.10 1093.86
  A 2.21 2.21 0.0 0 0 719.42 1094.90
  C 708.09 1113.33 689.74 1122.51 668.16 1122.56
  Q 613.95 1122.68 570.31 1122.41
  Q 568.32 1122.39 565.49 1125.25
  Q 562.43 1128.33 539.70 1151.70
  C 537.15 1154.32 532.22 1157.23 528.59 1155.15
  Q 526.16 1153.76 523.73 1151.29
  Q 510.07 1137.43 496.76 1123.38
  A 3.79 3.79 0.0 0 0 493.80 1122.21
  Q 489.45 1122.47 485.52 1122.55
  C 481.30 1122.64 477.98 1120.03 477.82 1115.81
  C 477.71 1112.77 480.14 1109.28 483.49 1108.97
  Q 487.21 1108.63 492.19 1108.83
  Q 494.22 1108.91 495.72 1107.22
  Q 500.44 1101.88 522.45 1078.96
  C 526.24 1075.02 531.75 1069.46 537.04 1073.79
  Q 540.43 1076.56 545.01 1081.86
  Q 558.74 1097.74 569.30 1107.96
  Q 570.22 1108.84 571.75 1108.83
  Q 594.90 1108.70 661.41 1108.90
  Q 673.18 1108.93 678.98 1107.51
  Q 694.70 1103.67 706.08 1091.41
  A 0.47 0.46 35.9 0 0 705.96 1090.69
  C 699.33 1087.01 693.63 1083.12 689.78 1076.51
  C 679.69 1059.19 685.72 1034.80 703.99 1025.45
  C 706.30 1024.27 709.34 1023.55 711.71 1022.72
  A 1.04 1.02 -9.5 0 0 712.40 1021.77
  C 712.94 1000.31 699.68 979.90 678.63 974.38
  Q 673.20 972.95 663.26 972.97
  Q 613.64 973.04 590.50 972.85
  Q 588.02 972.83 587.97 972.83
  A 0.75 0.75 0.0 0 0 587.23 973.60
  Q 587.30 975.96 586.57 978.80
  C 582.23 995.58 568.17 1006.90 550.99 1006.21
  C 534.28 1005.54 520.26 992.38 517.87 976.08
  Q 515.88 962.53 522.68 951.31
  Q 529.80 939.55 544.59 935.79
  A 0.76 0.75 -7.8 0 0 545.16 935.05
  Q 544.93 902.25 545.26 887.78
  C 545.51 876.50 549.66 864.20 556.70 854.76
  C 566.37 841.79 580.24 833.89 596.27 832.35
  Q 603.16 831.69 610.65 832.24
  A 1.20 1.19 -82.1 0 0 611.91 831.28
  C 615.67 812.21 634.47 799.88 653.29 802.68
  C 668.51 804.95 680.53 816.24 684.22 831.08
  A 0.37 0.36 82.8 0 0 684.57 831.36
  C 710.72 831.49 729.94 810.55 730.44 785.00
  Q 730.88 762.37 730.44 733.03
  A 0.90 0.89 71.4 0 0 729.02 732.32
  Q 728.16 732.94 704.60 750.59
  C 700.60 753.59 695.94 755.90 691.52 751.96
  C 688.49 749.26 688.68 746.47 689.95 742.53
  Q 696.96 720.79 703.37 703.08
  A 2.11 2.11 0.0 0 0 702.68 700.70
  Q 690.29 691.03 673.76 677.14
  C 669.69 673.72 664.04 668.67 668.33 662.82
  Q 671.13 659.01 676.51 659.01
  Q 707.41 659.03 715.09 659.03
  A 1.52 1.52 0.0 0 0 716.53 658.00
  Q 722.81 639.67 728.15 623.17
  C 729.33 619.52 730.90 614.69 733.95 613.03
  Q 738.45 610.56 743.37 613.10
  A 3.16 3.05 -3.5 0 1 744.46 614.03
  Q 746.60 616.95 747.37 619.42
  Q 752.67 636.48 759.85 658.53
  A 0.78 0.77 80.3 0 0 760.60 659.07
  Q 778.69 658.98 802.51 658.97
  Q 806.09 658.97 808.01 661.21
  Q 811.77 665.59 810.48 669.86
  Q 809.79 672.15 804.25 676.55
  Q 780.65 695.35 777.05 698.30
  Q 775.87 699.27 773.87 700.54
  A 1.24 1.23 65.5 0 0 773.35 701.94
  Q 782.47 731.59 786.72 744.79
  C 787.37 746.80 786.53 749.44 784.93 751.07
  Q 779.61 756.51 773.20 751.76
  Q 757.50 740.12 745.37 730.63
  A 0.55 0.55 0.0 0 0 744.48 731.06
  Q 744.34 751.62 744.53 765.95
  Q 744.83 788.64 743.51 795.98
  C 739.76 816.88 725.54 834.38 705.59 841.87
  Q 695.74 845.56 685.46 845.30
  A 1.33 1.32 7.1 0 0 684.13 846.33
  Q 679.92 864.99 663.17 873.34
  C 655.28 877.27 646.10 878.07 637.58 875.68
  C 624.83 872.10 612.95 860.70 611.43 846.76
  A 0.86 0.85 88.4 0 0 610.63 846.00
  C 602.73 845.59 592.03 846.11 584.49 849.94
  Q 569.89 857.35 563.67 871.68
  Q 561.15 877.49 559.94 886.73
  Q 559.71 888.48 559.81 902.29
  Q 559.88 912.01 559.83 935.02
  A 0.97 0.96 2.6 0 0 560.71 935.98
  C 572.81 937.00 582.23 947.53 586.32 958.48
  A 1.04 1.02 -11.3 0 0 587.33 959.14
  Z
  M 785.20 673.18
  L 752.92 673.18
  A 3.64 3.63 -8.9 0 1 749.46 670.66
  L 738.55 636.73
  A 0.14 0.14 0.0 0 0 738.30 636.70
  Q 737.58 637.82 737.04 639.30
  Q 732.76 651.14 728.46 665.44
  Q 727.55 668.47 725.38 672.00
  A 2.00 1.97 0.4 0 1 724.69 672.67
  Q 723.63 673.29 721.01 673.27
  Q 704.39 673.16 692.00 673.02
  Q 691.22 673.01 690.79 673.24
  A 0.51 0.51 0.0 0 0 690.71 674.09
  Q 705.56 685.67 713.79 691.74
  C 717.13 694.20 718.74 696.17 717.46 700.24
  Q 711.92 717.76 707.52 730.02
  Q 707.23 730.82 707.13 731.91
  A 0.49 0.49 0.0 0 0 707.91 732.34
  Q 730.69 714.90 733.80 712.61
  Q 738.86 708.88 743.06 711.98
  Q 754.81 720.65 767.08 730.85
  A 0.60 0.60 0.0 0 0 768.04 730.22
  Q 764.26 717.63 759.88 704.62
  C 758.19 699.60 756.68 696.53 761.12 693.11
  Q 769.19 686.91 785.48 673.98
  A 0.45 0.45 0.0 0 0 785.20 673.18
  Z
  M 639.3976 861.6871
  A 23.53 23.26 111.0 0 0 669.5451 848.0556
  A 23.53 23.26 111.0 0 0 656.2624 817.7529
  A 23.53 23.26 111.0 0 0 626.1149 831.3844
  A 23.53 23.26 111.0 0 0 639.3976 861.6871
  Z
  M 574.41 970.42
  A 21.96 21.96 0.0 0 0 552.45 948.46
  A 21.96 21.96 0.0 0 0 530.49 970.42
  A 21.96 21.96 0.0 0 0 552.45 992.38
  A 21.96 21.96 0.0 0 0 574.41 970.42
  Z
  M 721.9019 1080.0308
  A 22.52 21.70 84.9 0 0 741.5141 1055.6710
  A 22.52 21.70 84.9 0 0 717.8981 1035.1692
  A 22.52 21.70 84.9 0 0 698.2859 1059.5290
  A 22.52 21.70 84.9 0 0 721.9019 1080.0308
  Z
  M 508.34 1114.01
  A 0.96 0.96 0.0 0 0 508.33 1115.33
  L 531.31 1139.80
  A 0.96 0.96 0.0 0 0 532.70 1139.81
  L 555.89 1115.54
  A 0.96 0.96 0.0 0 0 555.90 1114.22
  L 532.92 1089.76
  A 0.96 0.96 0.0 0 0 531.53 1089.75
  L 508.34 1114.01
  Z"
/>
<path fill="#010d47" d="
  M 310.59 739.51
  Q 310.55 739.07 310.52 738.63
  Q 307.89 682.99 347.95 645.94
  C 369.55 625.97 398.66 615.94 428.54 616.86
  C 463.88 617.96 496.93 635.24 517.71 663.26
  Q 534.32 685.66 538.53 714.63
  Q 538.80 716.54 539.07 724.38
  Q 539.09 724.81 539.11 725.26
  Q 541.74 780.90 501.68 817.95
  C 480.08 837.92 450.97 847.95 421.09 847.03
  C 385.75 845.93 352.70 828.65 331.92 800.63
  Q 315.31 778.23 311.10 749.26
  Q 310.83 747.35 310.59 739.51
  Z
  M 505.52 670.08
  L 507.94 672.01
  L 511.95 679.62
  A 0.18 0.17 63.4 0 0 512.18 679.70
  Q 512.44 679.58 512.31 679.28
  Q 510.68 675.31 507.94 672.01
  C 502.01 661.87 491.38 651.07 479.82 647.04
  L 472.10 641.82
  A 1.32 1.27 66.6 0 0 471.67 641.64
  L 468.19 640.85
  A 0.06 0.05 -41.0 0 1 468.20 640.74
  Q 468.34 640.73 468.44 640.64
  A 0.15 0.15 0.0 0 0 468.41 640.40
  L 466.54 639.40
  Q 466.31 639.25 466.11 639.27
  A 0.13 0.12 -21.2 0 0 466.02 639.47
  Q 466.10 639.56 466.24 639.71
  Q 464.99 639.15 463.89 638.88
  Q 464.23 639.00 465.14 638.83
  A 0.09 0.09 0.0 0 0 465.14 638.66
  L 462.89 638.29
  A 0.15 0.15 0.0 0 1 462.88 638.00
  Q 462.90 638.00 463.15 638.00
  A 0.07 0.07 0.0 0 0 463.18 637.87
  C 460.08 636.22 457.02 635.68 452.88 634.99
  A 0.10 0.10 0.0 0 0 452.77 635.13
  Q 452.86 635.30 453.08 635.09
  A 0.30 0.30 0.0 0 0 452.91 634.57
  Q 452.54 634.52 452.39 634.27
  A 0.35 0.33 -16.8 0 0 452.11 634.13
  L 449.61 634.13
  A 1.14 0.98 49.4 0 1 449.29 634.08
  Q 424.80 627.66 401.65 632.76
  C 371.69 639.36 343.36 662.80 331.87 691.41
  Q 327.92 701.24 325.30 715.80
  Q 324.23 721.79 324.20 729.51
  Q 324.17 739.49 324.49 743.27
  C 326.06 761.86 333.99 781.18 346.13 795.58
  Q 355.26 806.41 364.12 813.15
  Q 390.87 833.50 424.95 833.27
  Q 456.17 833.06 481.81 815.86
  C 503.46 801.34 519.01 778.50 523.85 752.88
  C 527.91 731.41 525.78 710.57 517.33 690.08
  C 516.84 688.89 515.92 688.68 516.12 686.96
  A 1.24 1.23 -58.4 0 0 515.93 686.15
  L 505.52 670.08
  Z"
/>
<path fill="#010d47" d="
  M 81.37 781.47
  A 0.45 0.45 0.0 0 0 80.94 780.90
  Q 80.16 780.91 53.14 781.00
  C 47.65 781.01 43.13 779.82 43.17 773.74
  Q 43.20 769.08 48.04 767.19
  A 2.88 2.69 -53.4 0 1 49.02 767.01
  Q 81.49 766.99 81.56 767.00
  C 84.03 767.31 85.44 767.51 86.12 764.85
  Q 93.46 736.44 99.21 716.14
  A 0.74 0.74 0.0 0 0 98.48 715.19
  Q 87.48 715.44 69.51 715.43
  Q 64.00 715.43 62.61 714.82
  C 57.98 712.79 57.57 706.22 60.96 702.91
  C 63.02 700.90 65.50 701.03 68.40 701.01
  Q 85.70 700.89 102.27 701.03
  A 1.27 1.26 7.6 0 0 103.51 700.09
  Q 105.89 691.01 110.55 673.04
  C 112.78 664.43 114.03 654.90 123.54 654.91
  Q 147.00 654.93 155.20 654.84
  Q 162.93 654.75 165.05 662.24
  Q 170.76 682.44 175.43 700.61
  A 0.75 0.73 -7.0 0 0 176.15 701.16
  Q 188.15 701.04 207.24 701.06
  C 211.03 701.06 214.53 701.59 216.14 704.92
  C 217.78 708.31 216.66 713.18 213.03 714.89
  Q 211.42 715.65 207.39 715.63
  Q 191.18 715.54 180.56 715.46
  A 1.12 1.11 -7.8 0 0 179.48 716.88
  L 193.63 766.57
  A 0.73 0.72 -7.9 0 0 194.33 767.09
  Q 205.93 767.01 227.28 766.95
  Q 236.05 766.92 234.90 775.73
  C 234.30 780.33 230.61 780.95 226.29 780.96
  Q 209.40 781.00 198.12 780.86
  A 0.70 0.70 0.0 0 0 197.44 781.75
  L 211.73 831.93
  A 1.21 1.20 81.8 0 0 212.90 832.81
  Q 241.82 832.73 242.75 832.73
  C 248.57 832.72 252.63 837.99 249.70 843.19
  C 247.43 847.21 244.15 846.90 239.29 846.90
  Q 151.65 846.91 34.71 846.89
  C 26.80 846.89 23.76 835.76 31.93 833.08
  Q 32.70 832.83 37.65 832.81
  Q 60.24 832.72 65.88 832.76
  A 1.07 1.07 0.0 0 0 66.92 831.98
  L 81.37 781.47
  Z
  M 153.47 669.33
  A 1.71 1.71 0.0 0 0 151.81 668.06
  L 127.22 668.06
  A 1.71 1.71 0.0 0 0 125.58 669.30
  L 116.57 700.77
  A 1.71 1.71 0.0 0 0 118.22 702.95
  L 160.12 702.95
  A 1.71 1.71 0.0 0 0 161.77 700.80
  L 153.47 669.33
  Z
  M 113.86 714.94
  A 0.35 0.35 0.0 0 0 113.52 715.20
  L 104.80 748.16
  A 0.35 0.35 0.0 0 0 105.32 748.55
  L 159.48 715.59
  A 0.35 0.35 0.0 0 0 159.30 714.94
  L 113.86 714.94
  Z
  M 178.31 767.68
  A 1.31 1.31 0.0 0 0 179.57 766.02
  L 168.19 725.78
  A 1.31 1.31 0.0 0 0 166.24 725.02
  L 100.37 765.39
  A 1.31 1.31 0.0 0 0 101.05 767.82
  L 178.31 767.68
  Z
  M 168.75 781.34
  A 0.23 0.23 0.0 0 0 168.59 780.94
  L 96.90 780.94
  A 0.99 0.98 7.7 0 0 95.95 781.66
  L 84.31 822.35
  A 0.67 0.67 0.0 0 0 85.33 823.08
  Q 89.03 820.51 92.32 818.85
  Q 113.44 808.18 162.99 784.13
  C 165.01 783.16 167.19 782.84 168.75 781.34
  Z
  M 92.71 832.49
  A 0.91 0.91 0.0 0 0 93.11 834.22
  L 197.30 834.22
  A 0.91 0.91 0.0 0 0 198.18 833.06
  L 185.50 788.50
  A 0.91 0.91 0.0 0 0 184.22 787.94
  L 92.71 832.49
  Z"
/>
<path fill="#010d47" d="
  M 402.14 1085.68
  A 19.45 19.45 0.0 0 1 382.69 1105.13
  L 175.19 1105.13
  A 19.45 19.45 0.0 0 1 155.74 1085.68
  L 155.74 905.66
  A 19.45 19.45 0.0 0 1 175.19 886.21
  L 382.69 886.21
  A 19.45 19.45 0.0 0 1 402.14 905.66
  L 402.14 1085.68
  Z
  M 388.96 907.35
  A 6.63 6.63 0.0 0 0 382.33 900.72
  L 176.25 900.72
  A 6.63 6.63 0.0 0 0 169.62 907.35
  L 169.62 1085.27
  A 6.63 6.63 0.0 0 0 176.25 1091.90
  L 382.33 1091.90
  A 6.63 6.63 0.0 0 0 388.96 1085.27
  L 388.96 907.35
  Z"
/>
</g>
<g>
<path fill="#f8f3e2" d="
  M 505.70 203.71
  Q 479.79 234.10 440.52 240.53
  Q 432.81 241.80 421.59 241.53
  C 392.39 240.83 364.57 227.21 345.82 205.96
  Q 324.16 181.42 320.13 147.05
  Q 319.88 144.97 319.92 131.45
  Q 319.95 122.41 321.26 115.94
  Q 323.91 102.85 326.39 96.67
  C 342.18 57.25 380.17 30.21 422.97 30.08
  Q 452.27 29.99 476.95 43.77
  C 502.55 58.06 521.21 82.75 527.58 111.67
  C 534.61 143.56 527.06 178.65 505.70 203.71
  Z
  M 461.1278 93.2569
  A 36.48 36.34 -2.0 0 0 423.4018 58.2121
  A 36.48 36.34 -2.0 0 0 388.2122 95.8031
  A 36.48 36.34 -2.0 0 0 425.9382 130.8479
  A 36.48 36.34 -2.0 0 0 461.1278 93.2569
  Z
  M 424.78 226.34
  Q 442.69 226.36 459.87 219.49
  C 467.07 216.62 486.81 206.89 487.15 198.01
  Q 487.36 192.64 487.50 181.30
  Q 487.63 170.92 485.48 164.83
  C 480.53 150.86 468.56 142.81 453.75 142.73
  Q 442.99 142.67 424.86 142.65
  Q 406.74 142.63 395.98 142.67
  C 381.17 142.72 369.18 150.74 364.20 164.70
  Q 362.04 170.79 362.15 181.17
  Q 362.26 192.51 362.46 197.88
  C 362.78 206.76 382.50 216.53 389.69 219.42
  Q 406.86 226.32 424.78 226.34
  Z"
/>
<path fill="#e3621b" d="
  M 760.91 183.08
  A 7.31 7.31 0.0 0 1 753.60 190.39
  L 631.58 190.39
  A 7.31 7.31 0.0 0 1 624.27 183.08
  L 624.27 74.36
  A 7.31 7.31 0.0 0 1 631.58 67.05
  L 753.60 67.05
  A 7.31 7.31 0.0 0 1 760.91 74.36
  L 760.91 183.08
  Z
  M 677.26 150.61
  Q 675.35 149.03 674.00 147.65
  Q 660.53 133.90 654.36 128.00
  C 650.33 124.14 645.97 126.20 643.60 130.35
  C 641.87 133.38 643.82 135.78 645.91 138.09
  C 651.19 143.95 658.61 150.88 665.29 158.12
  Q 668.85 161.98 672.93 165.31
  C 676.12 167.92 679.38 167.68 682.65 164.60
  Q 686.53 160.96 689.48 157.73
  Q 720.07 124.19 735.50 107.72
  C 738.39 104.63 741.91 99.53 738.33 95.71
  C 733.66 90.73 730.68 93.05 726.92 97.17
  C 713.64 111.77 694.63 133.37 678.17 150.55
  A 0.67 0.67 0.0 0 1 677.26 150.61
  Z"
/>
<path fill="#f8f3e2" d="
  M 271.08 570.48
  A 5.67 5.67 0.0 0 1 265.41 576.15
  L 116.39 576.15
  A 5.67 5.67 0.0 0 1 110.72 570.48
  L 110.72 371.94
  A 5.67 5.67 0.0 0 1 116.39 366.27
  L 265.41 366.27
  A 5.67 5.67 0.0 0 1 271.08 371.94
  L 271.08 570.48
  Z
  M 198.87 438.41
  C 199.93 437.63 201.93 437.23 203.40 436.51
  C 214.69 431.00 220.68 417.87 218.42 406.01
  C 215.47 390.55 203.41 380.86 187.51 382.02
  Q 175.40 382.90 167.96 392.03
  C 163.60 397.37 160.43 405.80 161.43 413.19
  C 163.14 425.79 169.33 434.81 181.86 438.13
  Q 182.36 438.27 182.58 438.57
  A 0.37 0.36 73.5 0 1 182.27 439.15
  Q 177.70 438.88 170.33 438.83
  Q 162.65 438.78 159.26 440.03
  Q 153.67 442.08 149.60 445.63
  Q 140.64 453.43 140.32 465.77
  Q 140.29 466.72 140.08 480.11
  C 139.99 485.69 141.62 491.25 148.25 491.28
  Q 191.02 491.46 231.73 491.25
  C 237.96 491.21 239.82 486.17 239.84 481.00
  Q 239.87 470.22 239.90 469.30
  C 240.35 455.39 234.40 444.69 220.72 440.00
  Q 217.61 438.93 211.76 438.86
  Q 204.63 438.77 199.09 439.02
  A 0.34 0.34 0.0 0 1 198.87 438.41
  Z
  M 248.04 512.00
  A 6.57 6.57 0.0 0 0 241.47 505.43
  L 142.47 505.43
  A 6.57 6.57 0.0 0 0 135.90 512.00
  L 135.90 513.06
  A 6.57 6.57 0.0 0 0 142.47 519.63
  L 241.47 519.63
  A 6.57 6.57 0.0 0 0 248.04 513.06
  L 248.04 512.00
  Z
  M 227.4910 540.4100
  A 6.40 6.40 0.0 0 0 221.1022 533.9988
  L 142.2823 533.8612
  A 6.40 6.40 0.0 0 0 135.8712 540.2500
  L 135.8690 541.4900
  A 6.40 6.40 0.0 0 0 142.2578 547.9012
  L 221.0777 548.0388
  A 6.40 6.40 0.0 0 0 227.4888 541.6500
  L 227.4910 540.4100
  Z"
/>
<path fill="#f8f3e2" d="
  M 505.17 570.48
  A 5.63 5.63 0.0 0 1 499.54 576.11
  L 350.66 576.11
  A 5.63 5.63 0.0 0 1 345.03 570.48
  L 345.03 371.88
  A 5.63 5.63 0.0 0 1 350.66 366.25
  L 499.54 366.25
  A 5.63 5.63 0.0 0 1 505.17 371.88
  L 505.17 570.48
  Z
  M 424.14 491.35
  Q 449.66 491.46 459.26 491.47
  Q 467.51 491.48 469.18 490.88
  Q 473.82 489.24 474.00 482.73
  Q 474.17 476.98 474.21 471.58
  Q 474.26 463.56 473.50 460.48
  Q 470.21 447.18 457.68 441.32
  C 450.68 438.05 442.00 438.72 432.28 439.16
  Q 431.94 439.17 431.72 439.05
  A 0.30 0.29 51.7 0 1 431.78 438.51
  Q 452.56 432.61 453.23 410.72
  C 453.66 396.81 443.40 384.95 430.02 382.16
  Q 429.01 381.95 424.59 381.93
  Q 420.17 381.91 419.16 382.11
  C 405.76 384.79 395.40 396.57 395.71 410.48
  Q 396.20 432.38 416.93 438.45
  A 0.30 0.29 -51.2 0 1 416.99 438.99
  Q 416.77 439.11 416.43 439.09
  C 406.71 438.57 398.04 437.83 391.01 441.04
  Q 378.43 446.80 375.03 460.07
  Q 374.24 463.14 374.23 471.16
  Q 374.22 476.56 374.35 482.32
  Q 374.47 488.83 379.10 490.51
  Q 380.76 491.12 389.02 491.18
  Q 398.61 491.25 424.14 491.35
  Z
  M 481.24 511.91
  A 6.50 6.50 0.0 0 0 474.74 505.41
  L 375.12 505.41
  A 6.50 6.50 0.0 0 0 368.62 511.91
  L 368.62 513.13
  A 6.50 6.50 0.0 0 0 375.12 519.63
  L 474.74 519.63
  A 6.50 6.50 0.0 0 0 481.24 513.13
  L 481.24 511.91
  Z
  M 461.35 540.42
  A 6.47 6.47 0.0 0 0 454.88 533.95
  L 375.14 533.95
  A 6.47 6.47 0.0 0 0 368.67 540.42
  L 368.67 541.50
  A 6.47 6.47 0.0 0 0 375.14 547.97
  L 454.88 547.97
  A 6.47 6.47 0.0 0 0 461.35 541.50
  L 461.35 540.42
  Z"
/>
<path fill="#f8f3e2" d="
  M 739.05 570.56
  A 5.59 5.59 0.0 0 1 733.46 576.15
  L 585.00 576.15
  A 5.59 5.59 0.0 0 1 579.41 570.56
  L 579.41 371.86
  A 5.59 5.59 0.0 0 1 585.00 366.27
  L 733.46 366.27
  A 5.59 5.59 0.0 0 1 739.05 371.86
  L 739.05 570.56
  Z
  M 665.81 438.62
  C 666.95 437.81 668.51 437.64 670.14 436.87
  Q 686.58 429.02 687.05 411.06
  C 687.38 398.14 678.61 386.28 666.47 382.98
  C 652.72 379.25 638.87 384.91 632.44 397.66
  C 625.34 411.75 630.16 428.20 643.80 435.89
  C 645.59 436.90 647.82 437.39 649.57 438.27
  A 0.46 0.46 0.0 0 1 649.35 439.15
  C 642.26 438.86 634.95 438.17 629.01 440.05
  C 619.93 442.93 613.51 449.34 610.27 458.26
  Q 608.94 461.94 608.99 470.41
  Q 609.06 481.84 609.05 482.75
  C 609.00 486.59 611.37 490.54 615.49 491.00
  Q 618.06 491.29 619.76 491.29
  Q 679.81 491.47 700.44 491.24
  Q 707.60 491.16 708.59 483.52
  Q 708.74 482.31 708.72 470.30
  Q 708.71 463.34 707.52 459.32
  C 704.80 450.12 698.19 442.59 688.97 439.86
  Q 685.40 438.81 677.53 438.88
  Q 668.93 438.97 665.97 439.10
  A 0.26 0.26 0.0 0 1 665.81 438.62
  Z
  M 715.86 512.01
  A 6.58 6.58 0.0 0 0 709.28 505.43
  L 609.72 505.43
  A 6.58 6.58 0.0 0 0 603.14 512.01
  L 603.14 513.05
  A 6.58 6.58 0.0 0 0 609.72 519.63
  L 709.28 519.63
  A 6.58 6.58 0.0 0 0 715.86 513.05
  L 715.86 512.01
  Z
  M 696.15 540.17
  A 6.19 6.19 0.0 0 0 689.96 533.98
  L 609.50 533.98
  A 6.19 6.19 0.0 0 0 603.31 540.17
  L 603.31 541.79
  A 6.19 6.19 0.0 0 0 609.50 547.98
  L 689.96 547.98
  A 6.19 6.19 0.0 0 0 696.15 541.79
  L 696.15 540.17
  Z"
/>
<path fill="#e3621b" d="
  M 466.24 639.71
  Q 466.39 639.55 466.54 639.40
  L 468.41 640.40
  A 0.15 0.15 0.0 0 1 468.44 640.64
  Q 468.34 640.73 468.20 640.74
  A 0.06 0.05 -41.0 0 0 468.19 640.85
  L 471.67 641.64
  A 1.32 1.27 66.6 0 1 472.10 641.82
  L 479.82 647.04
  C 480.76 647.63 482.82 648.08 483.38 648.65
  A 0.14 0.14 0.0 0 1 483.21 648.87
  Q 482.48 648.45 482.47 648.45
  A 0.20 0.20 0.0 0 0 482.35 648.82
  C 483.90 649.85 485.67 649.75 486.84 650.94
  Q 495.58 659.87 500.12 664.18
  A 0.23 0.22 42.4 0 0 500.44 664.17
  L 500.66 663.95
  A 0.07 0.06 -48.6 0 0 500.66 663.86
  L 494.12 657.61
  A 0.11 0.10 46.8 0 1 494.12 657.46
  L 494.33 657.30
  A 0.24 0.23 -42.5 0 1 494.67 657.31
  Q 496.73 659.64 499.02 661.72
  Q 499.98 662.60 501.69 665.51
  Q 503.19 668.06 505.52 670.08
  L 515.93 686.15
  A 1.24 1.23 -58.4 0 1 516.12 686.96
  C 515.92 688.68 516.84 688.89 517.33 690.08
  C 525.78 710.57 527.91 731.41 523.85 752.88
  C 519.01 778.50 503.46 801.34 481.81 815.86
  Q 456.17 833.06 424.95 833.27
  Q 390.87 833.50 364.12 813.15
  Q 355.26 806.41 346.13 795.58
  C 333.99 781.18 326.06 761.86 324.49 743.27
  Q 324.17 739.49 324.20 729.51
  Q 324.23 721.79 325.30 715.80
  Q 327.92 701.24 331.87 691.41
  C 343.36 662.80 371.69 639.36 401.65 632.76
  Q 424.80 627.66 449.29 634.08
  A 1.14 0.98 49.4 0 0 449.61 634.13
  L 452.11 634.13
  A 0.35 0.33 -16.8 0 1 452.39 634.27
  Q 452.54 634.52 452.91 634.57
  A 0.30 0.30 0.0 0 1 453.08 635.09
  Q 452.86 635.30 452.77 635.13
  A 0.10 0.10 0.0 0 1 452.88 634.99
  C 457.02 635.68 460.08 636.22 463.18 637.87
  A 0.07 0.07 0.0 0 1 463.15 638.00
  Q 462.90 638.00 462.88 638.00
  A 0.15 0.15 0.0 0 0 462.89 638.29
  L 465.14 638.66
  A 0.09 0.09 0.0 0 1 465.14 638.83
  Q 464.23 639.00 463.89 638.88
  Q 464.99 639.15 466.24 639.71
  Z
  M 471.93 642.48
  A 0.20 0.20 0.0 0 0 472.21 642.23
  Q 472.11 641.97 471.72 641.91
  Q 471.22 641.83 471.43 642.17
  Q 471.45 642.21 471.93 642.48
  Z
  M 425.40 662.20
  Q 425.60 662.20 425.74 662.30
  Q 433.41 668.14 442.60 675.11
  A 1.47 1.47 0.0 0 1 443.18 676.28
  L 443.18 681.77
  A 1.14 1.13 -70.9 0 0 443.61 682.66
  L 456.56 692.89
  A 0.29 0.28 26.3 0 0 457.01 692.74
  Q 459.18 684.67 466.17 681.18
  A 0.63 0.63 0.0 0 0 466.26 680.11
  Q 442.17 662.20 425.65 649.36
  Q 425.45 649.21 425.38 649.21
  Q 425.31 649.21 425.12 649.36
  Q 408.63 662.24 384.59 680.22
  A 0.63 0.63 0.0 0 0 384.68 681.29
  Q 391.68 684.76 393.87 692.82
  A 0.29 0.28 -26.5 0 0 394.32 692.97
  L 407.24 682.71
  A 1.14 1.13 70.8 0 0 407.67 681.82
  L 407.65 676.33
  A 1.47 1.47 0.0 0 1 408.23 675.16
  Q 417.40 668.16 425.06 662.30
  Q 425.19 662.20 425.40 662.20
  Z
  M 425.42 820.95
  Q 425.82 820.95 426.01 820.81
  Q 452.07 801.49 475.38 783.28
  A 0.99 0.96 71.9 0 0 475.76 782.50
  Q 475.82 762.68 475.74 752.73
  C 475.70 747.37 476.67 743.45 481.03 740.82
  A 0.32 0.32 0.0 0 0 481.06 740.30
  L 463.22 726.21
  A 0.39 0.39 0.0 0 0 462.59 726.51
  L 462.59 775.66
  A 1.02 1.00 71.6 0 1 462.20 776.46
  L 432.60 799.10
  A 0.25 0.25 0.0 0 1 432.20 798.90
  L 432.20 693.60
  A 0.35 0.35 0.0 0 1 432.77 693.32
  L 442.82 701.26
  A 0.77 0.74 19.8 0 1 443.11 701.85
  L 443.11 769.76
  A 1.03 1.02 -19.2 0 1 442.71 770.57
  L 437.65 774.44
  A 1.25 1.23 71.7 0 0 437.16 775.43
  L 437.16 787.08
  A 0.29 0.29 0.0 0 0 437.62 787.31
  L 456.28 773.03
  A 0.68 0.67 72.0 0 0 456.55 772.49
  L 456.55 711.96
  A 0.35 0.35 0.0 0 1 457.12 711.68
  L 481.06 730.59
  A 0.43 0.43 0.0 0 0 481.76 730.25
  L 481.76 714.54
  A 0.38 0.38 0.0 0 0 481.26 714.18
  C 477.86 715.34 476.64 713.98 473.58 711.65
  Q 449.25 693.16 425.75 675.21
  Q 425.68 675.16 425.46 675.16
  Q 425.24 675.16 425.18 675.21
  Q 401.66 693.14 377.32 711.62
  C 374.26 713.95 373.04 715.31 369.64 714.14
  A 0.38 0.38 0.0 0 0 369.14 714.50
  L 369.13 730.21
  A 0.43 0.43 0.0 0 0 369.83 730.55
  L 393.78 711.66
  A 0.35 0.35 0.0 0 1 394.35 711.94
  L 394.31 772.47
  A 0.68 0.67 -71.9 0 0 394.58 773.01
  L 413.23 787.30
  A 0.29 0.29 0.0 0 0 413.69 787.07
  L 413.70 775.42
  A 1.25 1.23 -71.6 0 0 413.21 774.43
  L 408.15 770.56
  A 1.03 1.02 19.2 0 1 407.75 769.75
  L 407.80 701.84
  A 0.77 0.74 -19.8 0 1 408.09 701.25
  L 418.14 693.32
  A 0.35 0.35 0.0 0 1 418.71 693.60
  L 418.65 798.90
  A 0.25 0.25 0.0 0 1 418.25 799.10
  L 388.66 776.44
  A 1.02 1.00 -71.5 0 1 388.27 775.64
  L 388.30 726.49
  A 0.39 0.39 0.0 0 0 387.67 726.19
  L 369.82 740.26
  A 0.32 0.32 0.0 0 0 369.85 740.78
  C 374.21 743.42 375.18 747.34 375.14 752.70
  Q 375.05 762.65 375.10 782.47
  A 0.99 0.96 -71.8 0 0 375.48 783.25
  Q 398.77 801.47 424.82 820.81
  Q 425.01 820.95 425.42 820.95
  Z"
/>
<path fill="#e3621b" d="
  M 785.20 673.18
  A 0.45 0.45 0.0 0 1 785.48 673.98
  Q 769.19 686.91 761.12 693.11
  C 756.68 696.53 758.19 699.60 759.88 704.62
  Q 764.26 717.63 768.04 730.22
  A 0.60 0.60 0.0 0 1 767.08 730.85
  Q 754.81 720.65 743.06 711.98
  Q 738.86 708.88 733.80 712.61
  Q 730.69 714.90 707.91 732.34
  A 0.49 0.49 0.0 0 1 707.13 731.91
  Q 707.23 730.82 707.52 730.02
  Q 711.92 717.76 717.46 700.24
  C 718.74 696.17 717.13 694.20 713.79 691.74
  Q 705.56 685.67 690.71 674.09
  A 0.51 0.51 0.0 0 1 690.79 673.24
  Q 691.22 673.01 692.00 673.02
  Q 704.39 673.16 721.01 673.27
  Q 723.63 673.29 724.69 672.67
  A 2.00 1.97 0.4 0 0 725.38 672.00
  Q 727.55 668.47 728.46 665.44
  Q 732.76 651.14 737.04 639.30
  Q 737.58 637.82 738.30 636.70
  A 0.14 0.14 0.0 0 1 738.55 636.73
  L 749.46 670.66
  A 3.64 3.63 -8.9 0 0 752.92 673.18
  L 785.20 673.18
  Z"
/>
<path fill="#4d6a7f" d="
  M 466.54 639.40
  Q 466.39 639.55 466.24 639.71
  Q 466.10 639.56 466.02 639.47
  A 0.13 0.12 -21.2 0 1 466.11 639.27
  Q 466.31 639.25 466.54 639.40
  Z"
/>
<path fill="#4d6a7f" d="
  M 507.94 672.01
  L 505.52 670.08
  Q 503.19 668.06 501.69 665.51
  Q 499.98 662.60 499.02 661.72
  Q 496.73 659.64 494.67 657.31
  A 0.24 0.23 -42.5 0 0 494.33 657.30
  L 494.12 657.46
  A 0.11 0.10 46.8 0 0 494.12 657.61
  L 500.66 663.86
  A 0.07 0.06 -48.6 0 1 500.66 663.95
  L 500.44 664.17
  A 0.23 0.22 42.4 0 1 500.12 664.18
  Q 495.58 659.87 486.84 650.94
  C 485.67 649.75 483.90 649.85 482.35 648.82
  A 0.20 0.20 0.0 0 1 482.47 648.45
  Q 482.48 648.45 483.21 648.87
  A 0.14 0.14 0.0 0 0 483.38 648.65
  C 482.82 648.08 480.76 647.63 479.82 647.04
  C 491.38 651.07 502.01 661.87 507.94 672.01
  Z"
/>
<path fill="#4d6a7f" d="
  M 153.47 669.33
  L 161.77 700.80
  A 1.71 1.71 0.0 0 1 160.12 702.95
  L 118.22 702.95
  A 1.71 1.71 0.0 0 1 116.57 700.77
  L 125.58 669.30
  A 1.71 1.71 0.0 0 1 127.22 668.06
  L 151.81 668.06
  A 1.71 1.71 0.0 0 1 153.47 669.33
  Z"
/>
<path fill="#4d6a7f" d="
  M 507.94 672.01
  Q 510.68 675.31 512.31 679.28
  Q 512.44 679.58 512.18 679.70
  A 0.18 0.17 63.4 0 1 511.95 679.62
  L 507.94 672.01
  Z"
/>
<path fill="#f8f3e2" d="
  M 113.86 714.94
  L 159.30 714.94
  A 0.35 0.35 0.0 0 1 159.48 715.59
  L 105.32 748.55
  A 0.35 0.35 0.0 0 1 104.80 748.16
  L 113.52 715.20
  A 0.35 0.35 0.0 0 1 113.86 714.94
  Z"
/>
<path fill="#4d6a7f" d="
  M 178.31 767.68
  L 101.05 767.82
  A 1.31 1.31 0.0 0 1 100.37 765.39
  L 166.24 725.02
  A 1.31 1.31 0.0 0 1 168.19 725.78
  L 179.57 766.02
  A 1.31 1.31 0.0 0 1 178.31 767.68
  Z"
/>
<path fill="#4d6a7f" d="
  M 92.71 832.49
  L 184.22 787.94
  A 0.91 0.91 0.0 0 1 185.50 788.50
  L 198.18 833.06
  A 0.91 0.91 0.0 0 1 197.30 834.22
  L 93.11 834.22
  A 0.91 0.91 0.0 0 1 92.71 832.49
  Z"
/>
<ellipse fill="#4d6a7f" cx="0.00" cy="0.00" transform="translate(647.83,839.72) rotate(111.0)" rx="23.53" ry="23.26"/>
<path fill="#f8f3e2" d="
  M 388.96 1085.27
  A 6.63 6.63 0.0 0 1 382.33 1091.90
  L 176.25 1091.90
  A 6.63 6.63 0.0 0 1 169.62 1085.27
  L 169.62 907.35
  A 6.63 6.63 0.0 0 1 176.25 900.72
  L 382.33 900.72
  A 6.63 6.63 0.0 0 1 388.96 907.35
  L 388.96 1085.27
  Z
  M 239.8927 947.3657
  A 5.48 5.48 0.0 0 0 234.4223 941.8762
  L 204.4223 941.8238
  A 5.48 5.48 0.0 0 0 198.9328 947.2943
  L 198.9273 950.4143
  A 5.48 5.48 0.0 0 0 204.3977 955.9038
  L 234.3977 955.9562
  A 5.48 5.48 0.0 0 0 239.8872 950.4857
  L 239.8927 947.3657
  Z
  M 364.36 947.62
  A 5.80 5.80 0.0 0 0 358.56 941.82
  L 267.74 941.82
  A 5.80 5.80 0.0 0 0 261.94 947.62
  L 261.94 950.12
  A 5.80 5.80 0.0 0 0 267.74 955.92
  L 358.56 955.92
  A 5.80 5.80 0.0 0 0 364.36 950.12
  L 364.36 947.62
  Z
  M 239.86 995.15
  A 5.36 5.36 0.0 0 0 234.50 989.79
  L 204.22 989.79
  A 5.36 5.36 0.0 0 0 198.86 995.15
  L 198.86 998.07
  A 5.36 5.36 0.0 0 0 204.22 1003.43
  L 234.50 1003.43
  A 5.36 5.36 0.0 0 0 239.86 998.07
  L 239.86 995.15
  Z
  M 364.38 995.31
  A 5.54 5.54 0.0 0 0 358.84 989.77
  L 267.48 989.77
  A 5.54 5.54 0.0 0 0 261.94 995.31
  L 261.94 997.95
  A 5.54 5.54 0.0 0 0 267.48 1003.49
  L 358.84 1003.49
  A 5.54 5.54 0.0 0 0 364.38 997.95
  L 364.38 995.31
  Z
  M 239.8551 1043.2616
  A 5.40 5.40 0.0 0 0 234.4740 1037.8428
  L 204.2741 1037.7373
  A 5.40 5.40 0.0 0 0 198.8553 1043.1185
  L 198.8449 1046.0984
  A 5.40 5.40 0.0 0 0 204.2260 1051.5172
  L 234.4259 1051.6227
  A 5.40 5.40 0.0 0 0 239.8447 1046.2415
  L 239.8551 1043.2616
  Z
  M 364.37 1043.19
  A 5.42 5.42 0.0 0 0 358.95 1037.77
  L 267.37 1037.77
  A 5.42 5.42 0.0 0 0 261.95 1043.19
  L 261.95 1046.15
  A 5.42 5.42 0.0 0 0 267.37 1051.57
  L 358.95 1051.57
  A 5.42 5.42 0.0 0 0 364.37 1046.15
  L 364.37 1043.19
  Z"
/>
<circle fill="#4d6a7f" cx="552.45" cy="970.42" r="21.96"/>
<ellipse fill="#4d6a7f" cx="0.00" cy="0.00" transform="translate(719.90,1057.60) rotate(84.9)" rx="22.52" ry="21.70"/>
<path fill="#e3621b" d="
  M 508.34 1114.01
  L 531.53 1089.75
  A 0.96 0.96 0.0 0 1 532.92 1089.76
  L 555.90 1114.22
  A 0.96 0.96 0.0 0 1 555.89 1115.54
  L 532.70 1139.81
  A 0.96 0.96 0.0 0 1 531.31 1139.80
  L 508.33 1115.33
  A 0.96 0.96 0.0 0 1 508.34 1114.01
  Z"
/>
</g>
<g>
<path fill="#010d47" d="
  M 461.1278 93.2569
  A 36.48 36.34 -2.0 0 1 425.9382 130.8479
  A 36.48 36.34 -2.0 0 1 388.2122 95.8031
  A 36.48 36.34 -2.0 0 1 423.4018 58.2121
  A 36.48 36.34 -2.0 0 1 461.1278 93.2569
  Z
  M 447.34 94.63
  A 22.63 22.63 0.0 0 0 424.71 72.00
  A 22.63 22.63 0.0 0 0 402.08 94.63
  A 22.63 22.63 0.0 0 0 424.71 117.26
  A 22.63 22.63 0.0 0 0 447.34 94.63
  Z"
/>
<path fill="#010d47" d="
  M 677.26 150.61
  A 0.67 0.67 0.0 0 0 678.17 150.55
  C 694.63 133.37 713.64 111.77 726.92 97.17
  C 730.68 93.05 733.66 90.73 738.33 95.71
  C 741.91 99.53 738.39 104.63 735.50 107.72
  Q 720.07 124.19 689.48 157.73
  Q 686.53 160.96 682.65 164.60
  C 679.38 167.68 676.12 167.92 672.93 165.31
  Q 668.85 161.98 665.29 158.12
  C 658.61 150.88 651.19 143.95 645.91 138.09
  C 643.82 135.78 641.87 133.38 643.60 130.35
  C 645.97 126.20 650.33 124.14 654.36 128.00
  Q 660.53 133.90 674.00 147.65
  Q 675.35 149.03 677.26 150.61
  Z"
/>
<path fill="#010d47" d="
  M 424.86 142.65
  Q 442.99 142.67 453.75 142.73
  C 468.56 142.81 480.53 150.86 485.48 164.83
  Q 487.63 170.92 487.50 181.30
  Q 487.36 192.64 487.15 198.01
  C 486.81 206.89 467.07 216.62 459.87 219.49
  Q 442.69 226.36 424.78 226.34
  Q 406.86 226.32 389.69 219.42
  C 382.50 216.53 362.78 206.76 362.46 197.88
  Q 362.26 192.51 362.15 181.17
  Q 362.04 170.79 364.20 164.70
  C 369.18 150.74 381.17 142.72 395.98 142.67
  Q 406.74 142.63 424.86 142.65
  Z
  M 424.67 212.29
  C 439.12 212.40 452.58 209.07 465.15 202.12
  C 468.91 200.05 473.71 197.42 473.69 193.50
  Q 473.65 187.51 473.65 178.60
  Q 473.65 172.04 472.67 169.48
  C 469.87 162.16 463.72 157.01 455.71 156.76
  Q 452.92 156.67 425.07 156.47
  Q 397.21 156.27 394.42 156.32
  C 386.41 156.46 380.19 161.52 377.29 168.80
  Q 376.27 171.35 376.18 177.91
  Q 376.05 186.82 375.92 192.81
  C 375.85 196.73 380.61 199.42 384.34 201.55
  C 396.82 208.67 410.23 212.19 424.67 212.29
  Z"
/>
<path fill="#010d47" d="
  M 198.87 438.41
  A 0.34 0.34 0.0 0 0 199.09 439.02
  Q 204.63 438.77 211.76 438.86
  Q 217.61 438.93 220.72 440.00
  C 234.40 444.69 240.35 455.39 239.90 469.30
  Q 239.87 470.22 239.84 481.00
  C 239.82 486.17 237.96 491.21 231.73 491.25
  Q 191.02 491.46 148.25 491.28
  C 141.62 491.25 139.99 485.69 140.08 480.11
  Q 140.29 466.72 140.32 465.77
  Q 140.64 453.43 149.60 445.63
  Q 153.67 442.08 159.26 440.03
  Q 162.65 438.78 170.33 438.83
  Q 177.70 438.88 182.27 439.15
  A 0.37 0.36 73.5 0 0 182.58 438.57
  Q 182.36 438.27 181.86 438.13
  C 169.33 434.81 163.14 425.79 161.43 413.19
  C 160.43 405.80 163.60 397.37 167.96 392.03
  Q 175.40 382.90 187.51 382.02
  C 203.41 380.86 215.47 390.55 218.42 406.01
  C 220.68 417.87 214.69 431.00 203.40 436.51
  C 201.93 437.23 199.93 437.63 198.87 438.41
  Z
  M 185.9590 425.6645
  A 15.39 14.94 105.3 0 0 204.4305 414.7623
  A 15.39 14.94 105.3 0 0 194.0810 395.9755
  A 15.39 14.94 105.3 0 0 175.6095 406.8777
  A 15.39 14.94 105.3 0 0 185.9590 425.6645
  Z
  M 154.62 478.20
  L 225.72 478.20
  A 0.60 0.60 0.0 0 0 226.32 477.60
  L 226.32 466.02
  A 13.62 12.99 90.0 0 0 213.33 452.40
  L 167.01 452.40
  A 13.62 12.99 90.0 0 0 154.02 466.02
  L 154.02 477.60
  A 0.60 0.60 0.0 0 0 154.62 478.20
  Z"
/>
<path fill="#010d47" d="
  M 424.59 381.93
  Q 429.01 381.95 430.02 382.16
  C 443.40 384.95 453.66 396.81 453.23 410.72
  Q 452.56 432.61 431.78 438.51
  A 0.30 0.29 51.7 0 0 431.72 439.05
  Q 431.94 439.17 432.28 439.16
  C 442.00 438.72 450.68 438.05 457.68 441.32
  Q 470.21 447.18 473.50 460.48
  Q 474.26 463.56 474.21 471.58
  Q 474.17 476.98 474.00 482.73
  Q 473.82 489.24 469.18 490.88
  Q 467.51 491.48 459.26 491.47
  Q 449.66 491.46 424.14 491.35
  Q 398.61 491.25 389.02 491.18
  Q 380.76 491.12 379.10 490.51
  Q 374.47 488.83 374.35 482.32
  Q 374.22 476.56 374.23 471.16
  Q 374.24 463.14 375.03 460.07
  Q 378.43 446.80 391.01 441.04
  C 398.04 437.83 406.71 438.57 416.43 439.09
  Q 416.77 439.11 416.99 438.99
  A 0.30 0.29 -51.2 0 0 416.93 438.45
  Q 396.20 432.38 395.71 410.48
  C 395.40 396.57 405.76 384.79 419.16 382.11
  Q 420.17 381.91 424.59 381.93
  Z
  M 423.4358 426.0488
  A 15.35 14.89 94.2 0 0 439.4100 411.8305
  A 15.35 14.89 94.2 0 0 425.6842 395.4312
  A 15.35 14.89 94.2 0 0 409.7100 409.6495
  A 15.35 14.89 94.2 0 0 423.4358 426.0488
  Z
  M 388.36 478.23
  L 459.56 478.11
  A 0.95 0.95 0.0 0 0 460.51 477.16
  L 460.49 467.42
  A 15.23 14.63 89.9 0 0 445.84 452.21
  L 402.00 452.29
  A 15.23 14.63 89.9 0 0 387.39 467.54
  L 387.41 477.28
  A 0.95 0.95 0.0 0 0 388.36 478.23
  Z"
/>
<path fill="#010d47" d="
  M 665.81 438.62
  A 0.26 0.26 0.0 0 0 665.97 439.10
  Q 668.93 438.97 677.53 438.88
  Q 685.40 438.81 688.97 439.86
  C 698.19 442.59 704.80 450.12 707.52 459.32
  Q 708.71 463.34 708.72 470.30
  Q 708.74 482.31 708.59 483.52
  Q 707.60 491.16 700.44 491.24
  Q 679.81 491.47 619.76 491.29
  Q 618.06 491.29 615.49 491.00
  C 611.37 490.54 609.00 486.59 609.05 482.75
  Q 609.06 481.84 608.99 470.41
  Q 608.94 461.94 610.27 458.26
  C 613.51 449.34 619.93 442.93 629.01 440.05
  C 634.95 438.17 642.26 438.86 649.35 439.15
  A 0.46 0.46 0.0 0 0 649.57 438.27
  C 647.82 437.39 645.59 436.90 643.80 435.89
  C 630.16 428.20 625.34 411.75 632.44 397.66
  C 638.87 384.91 652.72 379.25 666.47 382.98
  C 678.61 386.28 687.38 398.14 687.05 411.06
  Q 686.58 429.02 670.14 436.87
  C 668.51 437.64 666.95 437.81 665.81 438.62
  Z
  M 656.7437 426.0592
  A 15.37 14.97 95.1 0 0 673.0207 412.0807
  A 15.37 14.97 95.1 0 0 659.4763 395.4408
  A 15.37 14.97 95.1 0 0 643.1993 409.4193
  A 15.37 14.97 95.1 0 0 656.7437 426.0592
  Z
  M 623.30 478.15
  L 694.14 478.27
  A 0.99 0.99 0.0 0 0 695.13 477.28
  L 695.15 466.85
  A 14.34 13.76 -89.9 0 0 681.41 452.49
  L 636.11 452.41
  A 14.34 13.76 -89.9 0 0 622.33 466.73
  L 622.31 477.16
  A 0.99 0.99 0.0 0 0 623.30 478.15
  Z"
/>
<rect fill="#010d47" x="368.62" y="505.41" width="112.62" height="14.22" rx="6.50"/>
<rect fill="#010d47" x="135.90" y="505.43" width="112.14" height="14.20" rx="6.57"/>
<rect fill="#010d47" x="603.14" y="505.43" width="112.72" height="14.20" rx="6.58"/>
<rect fill="#010d47" x="-45.81" y="-7.02" transform="translate(181.68,540.95) rotate(0.1)" width="91.62" height="14.04" rx="6.40"/>
<rect fill="#010d47" x="368.67" y="533.95" width="92.68" height="14.02" rx="6.47"/>
<rect fill="#010d47" x="603.31" y="533.98" width="92.84" height="14.00" rx="6.19"/>
<path fill="#4d6a7f" d="
  M 471.93 642.48
  Q 471.45 642.21 471.43 642.17
  Q 471.22 641.83 471.72 641.91
  Q 472.11 641.97 472.21 642.23
  A 0.20 0.20 0.0 0 1 471.93 642.48
  Z"
/>
<path fill="#010d47" d="
  M 425.38 649.21
  Q 425.45 649.21 425.65 649.36
  Q 442.17 662.20 466.26 680.11
  A 0.63 0.63 0.0 0 1 466.17 681.18
  Q 459.18 684.67 457.01 692.74
  A 0.29 0.28 26.3 0 1 456.56 692.89
  L 443.61 682.66
  A 1.14 1.13 -70.9 0 1 443.18 681.77
  L 443.18 676.28
  A 1.47 1.47 0.0 0 0 442.60 675.11
  Q 433.41 668.14 425.74 662.30
  Q 425.60 662.20 425.40 662.20
  Q 425.19 662.20 425.06 662.30
  Q 417.40 668.16 408.23 675.16
  A 1.47 1.47 0.0 0 0 407.65 676.33
  L 407.67 681.82
  A 1.14 1.13 70.8 0 1 407.24 682.71
  L 394.32 692.97
  A 0.29 0.28 -26.5 0 1 393.87 692.82
  Q 391.68 684.76 384.68 681.29
  A 0.63 0.63 0.0 0 1 384.59 680.22
  Q 408.63 662.24 425.12 649.36
  Q 425.31 649.21 425.38 649.21
  Z"
/>
<path fill="#010d47" d="
  M 425.46 675.16
  Q 425.68 675.16 425.75 675.21
  Q 449.25 693.16 473.58 711.65
  C 476.64 713.98 477.86 715.34 481.26 714.18
  A 0.38 0.38 0.0 0 1 481.76 714.54
  L 481.76 730.25
  A 0.43 0.43 0.0 0 1 481.06 730.59
  L 457.12 711.68
  A 0.35 0.35 0.0 0 0 456.55 711.96
  L 456.55 772.49
  A 0.68 0.67 72.0 0 1 456.28 773.03
  L 437.62 787.31
  A 0.29 0.29 0.0 0 1 437.16 787.08
  L 437.16 775.43
  A 1.25 1.23 71.7 0 1 437.65 774.44
  L 442.71 770.57
  A 1.03 1.02 -19.2 0 0 443.11 769.76
  L 443.11 701.85
  A 0.77 0.74 19.8 0 0 442.82 701.26
  L 432.77 693.32
  A 0.35 0.35 0.0 0 0 432.20 693.60
  L 432.20 798.90
  A 0.25 0.25 0.0 0 0 432.60 799.10
  L 462.20 776.46
  A 1.02 1.00 71.6 0 0 462.59 775.66
  L 462.59 726.51
  A 0.39 0.39 0.0 0 1 463.22 726.21
  L 481.06 740.30
  A 0.32 0.32 0.0 0 1 481.03 740.82
  C 476.67 743.45 475.70 747.37 475.74 752.73
  Q 475.82 762.68 475.76 782.50
  A 0.99 0.96 71.9 0 1 475.38 783.28
  Q 452.07 801.49 426.01 820.81
  Q 425.82 820.95 425.42 820.95
  Q 425.01 820.95 424.82 820.81
  Q 398.77 801.47 375.48 783.25
  A 0.99 0.96 -71.8 0 1 375.10 782.47
  Q 375.05 762.65 375.14 752.70
  C 375.18 747.34 374.21 743.42 369.85 740.78
  A 0.32 0.32 0.0 0 1 369.82 740.26
  L 387.67 726.19
  A 0.39 0.39 0.0 0 1 388.30 726.49
  L 388.27 775.64
  A 1.02 1.00 -71.5 0 0 388.66 776.44
  L 418.25 799.10
  A 0.25 0.25 0.0 0 0 418.65 798.90
  L 418.71 693.60
  A 0.35 0.35 0.0 0 0 418.14 693.32
  L 408.09 701.25
  A 0.77 0.74 -19.8 0 0 407.80 701.84
  L 407.75 769.75
  A 1.03 1.02 19.2 0 0 408.15 770.56
  L 413.21 774.43
  A 1.25 1.23 -71.6 0 1 413.70 775.42
  L 413.69 787.07
  A 0.29 0.29 0.0 0 1 413.23 787.30
  L 394.58 773.01
  A 0.68 0.67 -71.9 0 1 394.31 772.47
  L 394.35 711.94
  A 0.35 0.35 0.0 0 0 393.78 711.66
  L 369.83 730.55
  A 0.43 0.43 0.0 0 1 369.13 730.21
  L 369.14 714.50
  A 0.38 0.38 0.0 0 1 369.64 714.14
  C 373.04 715.31 374.26 713.95 377.32 711.62
  Q 401.66 693.14 425.18 675.21
  Q 425.24 675.16 425.46 675.16
  Z"
/>
<rect fill="#010d47" x="-20.48" y="-7.04" transform="translate(219.41,948.89) rotate(0.1)" width="40.96" height="14.08" rx="5.48"/>
<rect fill="#010d47" x="261.94" y="941.82" width="102.42" height="14.10" rx="5.80"/>
<rect fill="#010d47" x="198.86" y="989.79" width="41.00" height="13.64" rx="5.36"/>
<rect fill="#010d47" x="261.94" y="989.77" width="102.44" height="13.72" rx="5.54"/>
<rect fill="#010d47" x="-20.50" y="-6.89" transform="translate(219.35,1044.68) rotate(0.2)" width="41.00" height="13.78" rx="5.40"/>
<rect fill="#010d47" x="261.95" y="1037.77" width="102.42" height="13.80" rx="5.42"/>
</g>
<g>
<circle fill="#f8f3e2" cx="424.71" cy="94.63" r="22.63"/>
<path fill="#e3621b" d="
  M 425.07 156.47
  Q 452.92 156.67 455.71 156.76
  C 463.72 157.01 469.87 162.16 472.67 169.48
  Q 473.65 172.04 473.65 178.60
  Q 473.65 187.51 473.69 193.50
  C 473.71 197.42 468.91 200.05 465.15 202.12
  C 452.58 209.07 439.12 212.40 424.67 212.29
  C 410.23 212.19 396.82 208.67 384.34 201.55
  C 380.61 199.42 375.85 196.73 375.92 192.81
  Q 376.05 186.82 376.18 177.91
  Q 376.27 171.35 377.29 168.80
  C 380.19 161.52 386.41 156.46 394.42 156.32
  Q 397.21 156.27 425.07 156.47
  Z"
/>
<ellipse fill="#f8f3e2" cx="0.00" cy="0.00" transform="translate(424.56,410.74) rotate(94.2)" rx="15.35" ry="14.89"/>
<ellipse fill="#f8f3e2" cx="0.00" cy="0.00" transform="translate(190.02,410.82) rotate(105.3)" rx="15.39" ry="14.94"/>
<ellipse fill="#f8f3e2" cx="0.00" cy="0.00" transform="translate(658.11,410.75) rotate(95.1)" rx="15.37" ry="14.97"/>
<path fill="#4d6a7f" d="
  M 388.36 478.23
  A 0.95 0.95 0.0 0 1 387.41 477.28
  L 387.39 467.54
  A 15.23 14.63 89.9 0 1 402.00 452.29
  L 445.84 452.21
  A 15.23 14.63 89.9 0 1 460.49 467.42
  L 460.51 477.16
  A 0.95 0.95 0.0 0 1 459.56 478.11
  L 388.36 478.23
  Z"
/>
<path fill="#e3621b" d="
  M 154.62 478.20
  A 0.60 0.60 0.0 0 1 154.02 477.60
  L 154.02 466.02
  A 13.62 12.99 -90.0 0 1 167.01 452.40
  L 213.33 452.40
  A 13.62 12.99 -90.0 0 1 226.32 466.02
  L 226.32 477.60
  A 0.60 0.60 0.0 0 1 225.72 478.20
  L 154.62 478.20
  Z"
/>
<path fill="#e3621b" d="
  M 623.30 478.15
  A 0.99 0.99 0.0 0 1 622.31 477.16
  L 622.33 466.73
  A 14.34 13.76 -89.9 0 1 636.11 452.41
  L 681.41 452.49
  A 14.34 13.76 -89.9 0 1 695.15 466.85
  L 695.13 477.28
  A 0.99 0.99 0.0 0 1 694.14 478.27
  L 623.30 478.15
  Z"
/>
</g>
</svg>
