<?xml version="1.0" encoding="UTF-8" standalone="no"?>
<!DOCTYPE svg PUBLIC "-//W3C//DTD SVG 1.0//EN" "http://www.w3.org/TR/2001/REC-SVG-20010904/DTD/svg10.dtd">
<svg xmlns="http://www.w3.org/2000/svg" version="1.0" viewBox="0.00 0.00 1536.00 1024.00">
<g stroke-width="2.00" fill="none" stroke-linecap="butt">
<path stroke="#7c3f36" d="
  M 1061.07 186.86
  Q 1057.31 190.89 1052.43 193.97
  Q 1050.24 195.36 1048.13 193.71
  Q 1045.30 191.48 1043.68 189.92
  Q 1018.77 166.03 968.81 119.68
  Q 966.11 117.18 959.72 113.85"
/>
<path stroke="#7c3f36" d="
  M 1339.67 346.56
  Q 1341.99 346.08 1345.12 346.13
  C 1348.08 346.19 1351.23 342.85 1348.97 340.22
  Q 1273.52 252.54 1266.52 244.01
  C 1262.61 239.24 1258.91 237.64 1254.05 242.42
  Q 1238.72 257.52 1217.89 277.41
  A 0.61 0.60 48.8 0 1 1217.01 277.35
  Q 1201.48 258.41 1182.35 235.89
  C 1169.98 221.32 1157.87 205.40 1147.33 192.59
  Q 1131.98 173.96 1124.93 165.08
  Q 1121.55 160.83 1116.60 156.23
  A 2.49 2.49 0.0 0 0 1113.73 155.86
  Q 1110.51 157.58 1107.52 160.27
  Q 1086.57 179.17 1059.78 204.03
  Q 1055.60 207.92 1051.13 209.23"
/>
<path stroke="#8a8089" d="
  M 655.38 363.40
  A 0.49 0.49 0.0 0 0 656.16 363.45
  Q 661.11 357.69 667.37 353.43
  C 672.48 349.94 678.07 347.91 684.51 345.01
  C 693.48 340.98 700.99 331.82 705.75 322.73
  Q 713.16 308.61 718.69 292.19
  Q 724.32 275.46 726.58 269.07
  C 728.10 264.74 730.86 256.99 734.36 254.84
  C 738.22 252.46 744.99 249.71 748.48 248.40
  Q 772.86 239.28 786.72 233.47
  C 791.14 231.62 798.65 228.86 798.18 223.63
  C 798.04 222.03 796.13 219.87 794.77 219.48
  Q 792.03 218.71 788.48 219.28
  C 773.55 221.69 759.67 224.48 746.12 230.50
  C 735.46 235.25 725.03 239.29 714.13 241.14
  Q 712.34 241.44 710.57 239.88
  C 708.04 237.67 710.24 234.09 712.86 233.08
  C 720.85 229.98 728.59 227.58 735.08 223.70
  Q 742.54 219.23 749.97 214.74
  Q 759.85 208.76 772.59 206.42
  Q 783.96 204.33 797.39 201.27
  Q 800.40 200.58 800.94 197.16
  A 1.68 1.64 34.8 0 0 800.72 196.03
  Q 797.91 191.36 792.85 191.15
  Q 786.94 190.90 778.28 192.32
  Q 769.29 193.79 763.87 195.08
  Q 755.24 197.15 743.60 202.83
  Q 718.10 215.27 701.40 224.63
  C 699.33 225.79 693.61 227.46 692.79 224.01
  Q 692.05 220.89 694.53 219.02
  Q 698.05 216.37 705.79 212.28
  Q 720.83 204.33 743.07 193.67
  C 748.11 191.25 751.69 190.08 758.16 187.85
  A 0.35 0.35 0.0 0 0 758.24 187.23
  Q 757.12 186.45 755.47 186.33
  Q 750.48 185.97 747.03 185.30
  A 3.65 3.63 -50.0 0 0 745.02 185.48
  Q 728.91 191.65 720.50 195.74
  Q 701.65 204.90 683.34 215.71
  A 7.38 7.36 -1.0 0 0 680.63 218.51
  Q 663.84 249.23 649.55 277.36
  Q 640.38 295.42 637.54 299.46
  Q 630.23 309.86 620.09 317.46
  A 0.59 0.59 0.0 0 0 620.02 318.34
  C 633.35 331.76 644.97 347.45 655.38 363.40"
/>
<path stroke="#8a8089" d="
  M 770.10 437.48
  C 767.24 435.43 764.62 434.22 763.18 430.30
  C 760.55 423.09 763.02 414.65 765.82 408.09
  Q 772.10 393.34 775.54 379.03
  Q 776.11 376.69 776.91 369.00
  Q 777.28 365.40 778.43 364.38
  C 781.82 361.33 786.33 364.64 786.22 368.60
  C 786.16 370.59 786.19 371.62 785.89 373.21
  Q 783.05 388.11 777.63 403.42
  C 775.97 408.13 772.45 415.57 771.82 422.51
  C 770.69 434.82 792.02 430.21 797.98 428.66
  A 13.78 13.69 -65.0 0 0 800.51 427.73
  C 802.48 426.78 804.32 424.64 806.85 424.59
  Q 809.43 424.54 810.75 426.26
  A 1.54 1.48 27.5 0 1 811.06 427.17
  L 811.06 430.22
  A 0.70 0.69 -86.2 0 0 811.66 430.91
  Q 822.16 432.20 822.49 432.26
  Q 836.40 434.62 848.55 440.92
  Q 858.48 446.07 864.71 455.72
  C 869.35 462.90 876.39 462.60 882.37 457.15
  Q 888.12 451.91 891.77 446.75
  Q 904.69 428.47 912.92 405.65
  Q 912.94 405.57 918.56 389.05
  Q 919.69 385.70 922.04 382.94
  A 1.99 1.97 36.0 0 1 924.60 382.55
  C 926.91 384.00 928.00 386.29 928.13 389.32
  C 928.39 395.74 929.18 401.68 929.07 408.24
  Q 929.02 410.85 929.77 422.75
  C 930.68 437.07 930.63 454.23 927.84 469.79
  Q 925.70 481.71 919.62 491.07
  Q 896.81 526.19 860.61 547.05
  Q 843.27 557.04 823.90 559.38
  Q 818.78 560.00 815.59 559.79
  Q 811.93 559.53 807.22 558.97
  A 0.78 0.78 0.0 0 0 806.36 559.83
  Q 807.37 569.23 810.90 577.74
  Q 812.60 581.85 820.71 592.94
  Q 830.17 605.88 839.03 621.38
  A 1.29 1.29 0.0 0 0 840.90 621.79
  C 851.38 614.30 861.99 605.27 872.39 598.03
  C 887.40 587.59 899.92 579.67 910.95 568.10
  C 922.44 556.04 931.94 543.99 939.13 529.64
  Q 943.74 520.45 944.21 512.01
  C 944.45 507.72 943.99 502.59 943.28 498.07
  Q 940.67 481.35 940.18 474.17
  C 939.06 458.16 939.94 439.52 939.90 422.00
  Q 939.89 418.69 942.99 418.89
  C 975.13 421.03 983.17 382.93 979.79 358.96
  C 978.48 349.70 973.65 336.43 963.40 334.20
  C 947.90 330.82 938.00 352.32 935.56 364.07
  Q 934.36 369.88 928.32 368.99
  C 921.73 368.02 919.71 364.43 919.34 357.81
  C 917.81 330.63 908.57 305.98 899.15 279.91
  C 895.29 269.22 894.42 257.92 898.71 247.23
  A 0.77 0.77 0.0 0 0 898.18 246.20
  C 882.49 242.31 866.12 241.88 850.47 245.45
  C 832.32 249.59 818.67 255.79 799.14 264.62
  Q 786.43 270.36 773.02 271.73
  Q 770.69 271.97 768.55 271.07
  A 2.67 2.67 0.0 0 1 766.92 268.61
  L 766.92 265.69
  A 0.46 0.46 0.0 0 0 766.35 265.24
  Q 752.38 268.63 738.37 266.39
  A 0.71 0.71 0.0 0 0 737.60 266.83
  Q 732.58 279.31 728.03 293.05
  Q 723.98 305.27 714.44 326.94
  C 713.01 330.16 712.59 332.52 713.19 335.77
  Q 716.24 352.29 717.90 369.51
  Q 721.07 402.37 722.20 411.50
  C 723.83 424.73 726.87 438.56 731.71 452.62
  Q 735.80 464.50 736.52 467.76
  A 0.71 0.71 0.0 0 0 737.90 467.81
  Q 740.08 460.58 741.07 458.02
  C 745.49 446.68 758.61 440.66 769.88 438.50
  A 0.57 0.57 0.0 0 0 770.10 437.48"
/>
<path stroke="#7c3f36" d="
  M 623.50 416.14
  Q 639.56 402.63 654.21 386.81
  A 3.53 3.52 -34.5 0 0 654.90 383.10
  Q 652.43 376.93 648.81 370.93
  Q 645.49 365.44 632.20 347.28
  Q 621.34 332.44 608.39 320.25
  A 1.70 1.69 50.1 0 0 606.31 320.06
  L 568.26 344.28
  A 0.60 0.60 0.0 0 0 568.14 345.19
  Q 580.68 358.64 592.04 371.98
  C 602.95 384.80 614.24 400.00 622.39 415.92
  A 0.72 0.72 0.0 0 0 623.50 416.14"
/>
<path stroke="#7c3f36" d="
  M 644.75 649.37
  C 648.54 629.44 651.91 609.95 656.80 591.04
  C 657.59 587.96 659.97 578.15 663.48 577.05
  C 666.30 576.18 668.14 581.19 668.49 583.04
  Q 668.80 584.70 667.99 587.93
  Q 667.12 591.39 665.43 599.84
  Q 659.21 630.96 651.23 679.48
  Q 648.58 695.55 648.47 705.26
  C 648.25 724.23 647.77 746.99 648.25 766.58
  Q 648.71 784.73 649.12 798.52
  C 649.40 808.05 650.56 820.66 650.91 828.52
  Q 653.07 877.38 655.90 930.28
  A 1.89 1.86 -80.4 0 0 657.04 931.90
  Q 699.83 950.04 745.75 959.47
  Q 785.76 967.69 819.27 970.06
  Q 842.89 971.72 850.75 972.02
  C 920.49 974.61 988.99 966.26 1056.30 948.60
  C 1058.79 947.95 1060.30 947.84 1060.44 945.22
  Q 1060.65 941.19 1061.00 938.51
  C 1065.77 902.05 1068.58 880.47 1071.93 858.46
  A 9.23 9.22 -48.0 0 0 1071.74 854.78
  Q 1067.09 837.12 1061.35 812.01
  Q 1058.43 799.23 1057.32 791.24
  Q 1055.25 776.39 1054.70 770.25
  Q 1053.53 757.11 1054.71 742.76
  Q 1056.30 723.45 1059.52 707.00
  Q 1061.23 698.33 1065.46 683.73
  Q 1070.52 666.31 1079.35 649.38
  Q 1084.09 640.30 1089.00 633.76
  Q 1093.18 628.20 1096.35 625.63
  C 1100.20 622.51 1105.92 626.76 1102.48 631.01
  Q 1096.13 638.87 1090.81 648.30
  Q 1080.14 667.19 1074.38 687.63
  Q 1070.34 701.97 1068.58 712.77
  Q 1065.80 729.81 1065.45 733.82
  Q 1064.68 742.68 1064.81 760.44
  C 1065.01 788.11 1072.15 815.28 1078.75 841.88
  Q 1082.42 856.68 1085.45 867.15
  Q 1099.08 914.18 1105.49 936.76
  Q 1105.64 937.28 1106.04 939.49
  A 1.29 1.29 0.0 0 0 1107.27 940.54
  Q 1153.48 941.82 1197.35 928.81
  Q 1219.65 922.20 1238.11 910.75
  A 1.67 1.66 69.3 0 0 1238.87 909.05
  Q 1237.20 899.35 1232.42 873.28
  Q 1230.65 863.58 1224.03 833.17
  Q 1217.29 802.20 1207.86 763.80
  Q 1206.96 760.12 1203.32 745.71
  Q 1199.94 732.31 1191.97 704.01
  Q 1188.70 692.42 1181.17 672.37
  Q 1177.80 663.41 1172.39 652.45
  Q 1166.21 639.92 1162.07 633.16
  C 1151.90 616.55 1136.73 602.81 1120.60 592.43
  Q 1105.81 582.91 1091.44 575.85
  Q 1078.12 569.31 1057.17 560.64
  C 1038.62 552.96 1008.17 542.29 986.00 533.16
  Q 984.23 532.43 982.28 531.21
  A 0.57 0.57 0.0 0 0 981.40 531.69
  Q 981.32 539.47 979.81 546.27
  Q 977.36 557.29 974.51 564.78
  C 965.05 589.57 954.28 610.63 941.07 635.44
  Q 936.91 643.25 929.37 638.50
  Q 907.48 624.69 904.29 622.47
  C 900.91 620.13 896.76 617.81 892.72 618.69
  C 884.52 620.49 874.19 623.37 864.53 626.92
  Q 849.66 632.38 837.36 636.28
  Q 835.08 637.00 833.68 638.61
  A 2.42 2.38 73.1 0 0 833.18 639.57
  C 830.73 649.03 829.76 658.74 827.83 669.19
  C 824.80 685.67 822.00 703.92 820.20 716.35
  A 0.56 0.56 0.0 0 0 820.71 716.99
  L 838.43 718.28
  A 1.06 1.06 0.0 0 0 839.54 717.50
  C 840.67 713.24 840.90 708.81 841.55 704.84
  Q 848.23 663.98 852.63 642.04
  Q 853.07 639.85 854.77 638.46
  A 2.54 2.51 41.6 0 1 857.75 638.30
  Q 860.77 640.27 860.14 643.98
  Q 859.96 645.04 857.51 660.29
  Q 854.80 677.18 852.04 694.05
  Q 849.73 708.15 847.33 722.54
  Q 846.45 727.88 840.93 727.19
  Q 830.52 725.89 817.13 725.11
  C 810.39 724.71 809.28 719.32 810.30 713.71
  Q 817.50 674.02 822.35 640.10
  C 822.72 637.56 824.89 632.53 827.74 630.85
  Q 829.00 630.10 830.24 629.15
  A 0.33 0.33 0.0 0 0 830.23 628.61
  Q 818.56 620.66 801.46 608.28
  Q 799.07 606.55 793.32 603.72
  C 791.02 602.59 789.49 602.84 787.39 604.12
  Q 776.80 610.60 762.44 620.68
  Q 754.24 626.44 749.88 618.15
  Q 748.17 614.91 748.72 611.26
  Q 750.69 598.24 752.45 587.25
  Q 754.11 576.85 756.64 547.54
  Q 756.86 544.95 756.30 541.12
  A 1.64 1.63 18.3 0 0 755.84 540.21
  C 754.16 538.51 751.06 537.73 749.10 537.22
  Q 735.38 533.63 716.58 530.41
  Q 704.42 528.33 692.78 527.62
  Q 679.73 526.84 668.77 526.89
  Q 659.04 526.95 652.70 526.07
  Q 639.10 524.19 611.38 519.87
  C 594.02 517.16 576.00 512.96 559.06 510.23
  A 2.31 2.30 29.1 0 0 557.19 510.76
  C 544.68 521.40 531.02 528.65 515.62 533.82
  Q 498.28 539.64 479.02 538.57
  C 474.87 538.34 462.69 536.66 464.52 529.79
  C 465.52 526.05 472.50 527.30 475.23 527.81
  A 11.36 11.30 -39.5 0 0 477.35 528.01
  Q 484.41 528.01 488.74 527.65
  Q 495.19 527.10 507.78 524.00
  Q 522.42 520.39 536.83 512.05
  Q 546.88 506.23 551.86 502.36
  Q 559.20 496.67 561.97 493.21
  Q 587.27 461.63 611.38 433.09
  C 612.64 431.60 614.63 428.75 614.50 426.99
  C 614.05 421.15 609.76 414.12 606.67 409.32
  C 599.01 397.41 591.34 388.03 580.91 374.89
  C 574.70 367.07 566.61 358.58 560.00 350.74
  A 1.25 1.25 0.0 0 0 558.35 350.51
  C 540.55 362.35 514.04 379.91 497.42 391.38
  Q 462.79 415.26 432.76 442.23
  Q 414.65 458.49 402.02 477.54
  C 399.02 482.07 394.83 490.04 393.28 495.20
  C 390.36 504.92 390.10 516.69 394.38 526.14
  C 400.32 539.26 408.55 551.27 418.45 562.13
  Q 436.53 581.96 456.55 597.46
  C 477.55 613.73 499.69 627.12 522.49 640.24
  Q 551.71 657.06 580.72 674.27
  Q 606.53 689.59 629.24 706.02
  Q 632.91 708.67 635.95 711.77
  A 0.41 0.41 0.0 0 0 636.65 711.43
  C 635.92 704.66 634.78 696.65 634.83 689.49
  Q 634.89 680.23 634.37 670.57
  C 633.60 656.36 633.63 646.76 633.10 632.05
  Q 632.75 622.16 632.88 612.43
  Q 632.99 603.25 632.02 581.50
  Q 631.84 577.47 632.68 574.92
  C 633.87 571.30 637.37 571.80 639.25 574.53
  Q 641.07 577.18 641.40 578.90
  C 643.58 590.21 643.43 604.19 643.91 615.94
  C 644.33 626.33 643.99 636.57 644.08 644.20
  Q 644.12 647.47 644.51 649.37
  A 0.12 0.12 0.0 0 0 644.75 649.37"
/>
<path stroke="#8a8089" d="
  M 771.76 499.29
  C 774.53 499.14 777.09 497.39 779.58 495.82
  C 787.27 490.97 796.11 489.03 805.49 489.81
  C 815.53 490.63 823.44 496.91 833.21 497.99
  C 842.23 498.99 849.26 494.50 851.43 485.88
  Q 852.64 481.09 851.72 477.26
  Q 846.97 457.44 826.51 454.00
  Q 810.56 451.32 796.84 452.15
  Q 788.15 452.68 774.00 455.69
  C 758.91 458.90 754.41 471.84 756.86 485.56
  C 758.31 493.69 763.27 499.73 771.76 499.29"
/>
<path stroke="#7c3f36" d="
  M 864.19 616.44
  Q 864.52 616.47 864.82 616.36
  Q 877.75 611.61 886.03 609.57
  C 891.70 608.16 897.09 607.41 901.98 609.52
  Q 906.84 611.62 912.60 615.41
  Q 923.35 622.46 932.35 628.18
  A 0.90 0.90 0.0 0 0 933.61 627.88
  Q 949.22 601.08 961.27 572.29
  Q 965.17 562.97 968.18 552.21
  C 970.87 542.61 972.89 530.94 970.31 521.30
  Q 965.42 502.99 953.11 490.93
  A 0.43 0.42 -59.1 0 0 952.41 491.11
  Q 952.29 491.50 952.34 491.76
  Q 954.04 499.99 954.02 508.50
  C 953.98 522.17 947.98 534.47 940.18 546.17
  Q 923.09 571.82 901.10 588.84
  C 895.83 592.92 891.53 596.58 886.23 600.28
  Q 873.21 609.39 863.99 615.68
  A 0.42 0.42 0.0 0 0 864.19 616.44"
/>
<path stroke="#7c3f36" d="
  M 821.21 610.07
  A 0.36 0.35 -18.7 0 0 821.49 609.51
  Q 813.48 598.42 808.49 592.20
  C 804.55 587.29 802.43 582.74 800.77 577.98
  Q 798.48 571.45 797.13 562.61
  Q 796.86 560.85 796.88 560.41
  Q 796.96 558.49 795.00 558.37
  C 791.74 558.19 789.51 558.33 786.44 557.51
  Q 775.61 554.64 768.79 546.62
  A 1.24 1.22 46.1 0 0 766.95 546.57
  Q 766.44 547.13 766.43 547.69
  C 766.16 562.01 763.96 578.04 761.48 593.27
  C 760.69 598.09 760.30 603.77 759.01 608.74
  Q 758.91 609.13 759.07 609.77
  A 0.67 0.67 0.0 0 0 760.10 610.15
  Q 774.08 600.55 784.52 594.05
  Q 789.68 590.84 794.64 592.89
  Q 806.68 597.87 820.46 609.63
  Q 820.98 610.07 821.21 610.07"
/>
<path stroke="#8a8089" d="
  M 760.95 301.48
  A 2.76 2.35 46.0 0 0 761.19 305.33
  C 762.80 306.82 765.35 307.33 768.05 307.94
  C 779.06 310.42 787.87 306.47 796.03 299.04
  Q 797.36 297.84 797.72 296.14
  A 1.56 1.55 -72.4 0 0 796.81 294.37
  C 795.58 293.86 793.96 293.97 792.76 294.60
  Q 787.87 297.17 783.02 299.45
  C 776.30 302.62 772.25 301.78 765.88 301.11
  C 764.37 300.95 762.06 300.56 760.95 301.48"
/>
<path stroke="#8a8089" d="
  M 882.32 298.97
  Q 881.58 300.66 880.91 303.39
  Q 878.76 312.11 877.75 317.70
  Q 875.72 328.85 883.99 335.25
  Q 888.57 338.80 892.97 336.09
  Q 900.37 331.54 900.07 322.29
  Q 899.95 318.82 896.84 317.94
  A 1.90 1.90 0.0 0 0 894.54 319.12
  L 891.17 328.51
  A 1.73 1.73 0.0 0 1 888.45 329.26
  C 883.95 325.58 884.75 321.05 886.33 315.09
  C 887.52 310.59 888.16 301.78 884.18 298.52
  A 1.20 1.20 0.0 0 0 882.32 298.97"
/>
<path stroke="#8a8089" d="
  M 867.83 352.90
  C 869.69 348.12 864.51 344.74 861.03 342.95
  Q 856.22 340.49 847.51 337.49
  Q 845.66 336.85 822.38 329.93
  Q 818.56 328.79 806.98 323.38
  A 8.12 7.72 -11.5 0 1 805.32 322.34
  C 803.02 320.46 799.39 316.27 796.65 318.65
  C 794.12 320.84 795.22 323.91 796.27 327.45
  C 799.13 337.11 806.09 340.50 815.24 342.54
  Q 822.35 344.12 838.45 346.58
  Q 850.19 348.37 863.50 353.96
  Q 865.50 354.81 867.19 353.69
  A 1.72 1.64 -7.4 0 0 867.83 352.90"
/>
<path stroke="#8a8089" d="
  M 780.22 322.57
  Q 779.02 323.75 778.35 325.60
  Q 775.84 332.53 777.40 338.55
  C 778.28 341.94 781.56 345.71 785.26 343.36
  A 2.63 2.49 -87.7 0 0 786.00 342.64
  C 789.67 337.27 784.90 327.42 782.05 322.80
  A 1.18 1.18 0.0 0 0 780.22 322.57"
/>
<path stroke="#8a8089" d="
  M 761.02 325.02
  Q 760.07 326.41 759.92 329.18
  C 759.67 333.93 754.36 336.41 750.43 337.92
  Q 744.50 340.18 734.43 342.66
  C 728.74 344.07 720.96 346.80 719.87 353.32
  Q 719.42 355.98 720.66 357.95
  C 722.60 361.01 725.81 360.32 728.93 358.83
  Q 732.78 357.00 734.74 356.16
  C 740.33 353.78 745.08 352.95 752.09 351.34
  C 759.11 349.73 765.64 346.27 768.38 339.18
  C 769.73 335.70 770.11 326.98 766.17 324.26
  Q 764.04 322.80 761.82 324.24
  A 2.83 2.80 0.4 0 0 761.02 325.02"
/>
<path stroke="#8a8089" d="
  M 954.37 364.95
  C 956.63 359.99 960.85 356.23 964.05 352.31
  C 965.57 350.45 965.47 346.88 962.29 346.92
  C 955.66 347.00 949.36 356.02 946.96 361.73
  Q 945.17 365.99 946.61 369.75
  C 948.56 374.87 956.79 378.59 955.54 384.54
  C 954.87 387.68 952.25 391.75 948.91 393.98
  C 946.33 395.70 945.01 397.28 946.30 400.68
  A 1.49 1.48 -86.7 0 0 946.99 401.46
  Q 949.98 403.02 953.27 400.76
  C 959.00 396.79 964.24 389.60 963.73 382.55
  C 963.23 375.69 959.37 371.77 954.83 367.40
  A 2.15 2.15 0.0 0 1 954.37 364.95"
/>
<path stroke="#8a8089" d="
  M 859.60 373.13
  Q 861.19 370.20 858.33 367.56
  C 850.81 360.60 839.80 357.44 829.69 356.95
  C 825.94 356.76 814.00 358.12 811.60 361.13
  C 808.54 364.96 812.23 368.48 816.25 367.53
  Q 822.30 366.10 829.76 365.78
  C 840.32 365.33 848.00 368.81 856.74 373.93
  A 2.07 2.07 0.0 0 0 859.60 373.13"
/>
<path stroke="#8a8089" d="
  M 769.19 372.19
  C 771.88 367.91 765.16 364.79 761.99 364.25
  Q 751.75 362.53 743.02 366.21
  C 737.93 368.35 726.35 374.81 726.51 380.59
  C 726.62 384.51 730.20 384.84 732.69 382.86
  C 742.44 375.11 751.85 369.79 764.73 372.90
  Q 766.38 373.30 768.38 372.78
  A 1.40 1.39 8.7 0 0 769.19 372.19"
/>
<path stroke="#8a8089" d="
  M 874.2346 382.1620
  A 5.79 3.27 100.0 0 0 878.4603 377.0278
  A 5.79 3.27 100.0 0 0 876.2454 370.7580
  A 5.79 3.27 100.0 0 0 872.0197 375.8922
  A 5.79 3.27 100.0 0 0 874.2346 382.1620"
/>
<path stroke="#8a8089" d="
  M 770.18 481.60
  Q 772.85 482.81 776.27 481.96
  C 781.83 480.57 788.64 477.20 794.63 476.39
  Q 809.84 474.30 822.18 480.58
  Q 823.29 481.15 829.20 484.07
  C 830.89 484.91 833.48 485.38 834.47 483.39
  C 836.24 479.86 832.27 475.98 829.43 474.08
  C 822.39 469.37 813.03 466.02 804.45 466.06
  C 800.16 466.08 796.12 465.76 792.38 466.38
  C 786.41 467.38 769.45 472.50 769.57 480.67
  A 1.04 1.03 -78.4 0 0 770.18 481.60"
/>
<path stroke="#314062" d="
  M 365.58 553.12
  Q 364.56 544.37 361.77 535.52
  A 1.38 1.38 0.0 0 0 360.33 534.55
  Q 354.64 535.03 348.27 536.32
  Q 343.60 537.27 341.62 533.60
  Q 336.07 523.32 329.04 517.29
  C 326.89 515.44 326.06 513.65 326.98 511.21
  C 328.91 506.07 332.61 501.46 334.54 496.56
  A 1.62 1.62 0.0 0 0 333.73 494.51
  L 318.87 487.40
  A 1.58 1.58 0.0 0 0 316.88 487.93
  Q 313.71 492.55 310.35 499.31
  Q 307.93 504.20 302.84 503.47
  Q 298.20 502.80 295.99 502.21
  A 5.77 5.46 -36.7 0 0 294.39 502.02
  Q 291.09 502.13 284.18 502.07
  C 280.47 502.04 278.48 501.11 277.25 497.97
  Q 276.55 496.20 273.65 486.28
  Q 272.89 483.69 270.08 484.47
  Q 261.41 486.90 253.50 489.99
  A 1.56 1.56 0.0 0 0 252.57 491.86
  Q 254.02 497.04 256.26 502.35
  C 257.60 505.53 257.34 507.95 254.49 509.77
  Q 245.60 515.44 240.49 521.52
  C 237.68 524.86 235.65 526.62 231.55 524.96
  Q 220.18 520.37 219.96 520.28
  A 1.97 1.96 25.4 0 0 217.46 521.17
  Q 214.22 527.30 210.95 534.73
  Q 210.12 536.63 210.33 538.15
  A 1.26 1.25 11.2 0 0 210.96 539.08
  Q 217.06 542.53 221.33 545.17
  Q 225.72 547.89 224.73 551.99
  Q 223.99 555.01 224.11 556.04
  C 224.52 559.51 223.74 566.20 224.49 572.39
  Q 225.01 576.71 220.41 578.93
  Q 211.05 583.43 209.88 584.12
  A 1.83 1.83 0.0 0 0 209.13 586.42
  L 215.67 601.46
  A 1.78 1.78 0.0 0 0 217.89 602.43
  Q 220.08 601.65 228.96 598.22
  C 232.00 597.05 233.78 597.93 235.78 600.52
  Q 241.27 607.63 248.68 613.29
  C 250.91 614.99 251.85 616.78 251.03 619.36
  Q 248.95 625.93 247.13 632.02
  A 1.44 1.43 20.1 0 0 247.94 633.75
  Q 261.19 639.46 261.34 639.52
  Q 264.30 640.78 265.62 637.90
  Q 267.64 633.45 269.97 627.99
  Q 271.74 623.86 276.23 623.78
  Q 282.11 623.67 290.09 623.73
  C 293.97 623.76 296.24 624.56 297.78 627.99
  Q 299.83 632.56 301.47 636.78
  Q 302.04 638.25 303.34 639.73
  A 1.24 1.24 0.0 0 0 304.69 640.07
  L 319.69 634.62
  A 1.45 1.45 0.0 0 0 320.56 632.78
  Q 318.65 627.24 317.10 621.01
  Q 316.11 617.05 319.33 614.84
  Q 325.90 610.33 331.36 605.28
  Q 333.93 602.90 337.17 604.65
  Q 339.10 605.69 347.12 610.67
  A 2.16 2.15 32.2 0 0 350.06 610.01
  L 358.39 597.11
  A 1.50 1.50 0.0 0 0 358.15 595.19
  Q 351.74 589.22 349.33 587.38
  C 346.85 585.48 345.21 582.93 345.97 580.20
  Q 348.49 571.07 348.49 564.45
  C 348.49 561.15 349.40 558.30 352.63 557.36
  Q 359.60 555.33 365.06 553.88
  A 0.71 0.70 -11.0 0 0 365.58 553.12"
/>
<path stroke="#314062" d="
  M 325.22 563.72
  A 38.81 38.81 0.0 0 0 286.41 524.91
  A 38.81 38.81 0.0 0 0 247.60 563.72
  A 38.81 38.81 0.0 0 0 286.41 602.53
  A 38.81 38.81 0.0 0 0 325.22 563.72"
/>
<path stroke="#7c3f36" d="
  M 1280.66 676.34
  Q 1285.59 681.46 1289.55 689.28
  A 0.67 0.66 -46.6 0 0 1290.76 689.24
  C 1294.79 680.05 1302.19 672.93 1311.08 668.32
  A 0.72 0.72 0.0 0 0 1311.08 667.03
  Q 1303.69 663.16 1299.34 658.64
  Q 1294.41 653.52 1290.45 645.70
  A 0.67 0.66 -46.6 0 0 1289.24 645.74
  C 1285.21 654.93 1277.81 662.05 1268.92 666.66
  A 0.72 0.72 0.0 0 0 1268.92 667.95
  Q 1276.31 671.82 1280.66 676.34"
/>
<path stroke="#314062" d="
  M 515.84 728.78
  Q 516.10 727.51 515.95 726.02
  Q 514.48 712.27 509.48 700.62
  Q 508.54 698.44 506.50 698.94
  Q 497.78 701.07 487.33 704.27
  C 485.09 704.96 483.56 704.95 482.25 702.99
  C 475.81 693.35 470.06 685.10 461.72 677.28
  Q 458.74 674.47 461.01 670.82
  Q 465.86 663.06 470.87 652.08
  Q 472.02 649.55 469.63 648.16
  Q 458.17 641.50 446.09 636.18
  A 1.90 1.90 0.0 0 0 443.66 637.02
  L 433.44 656.12
  A 3.81 3.81 0.0 0 1 430.69 658.08
  Q 428.46 658.45 426.16 657.83
  Q 420.18 656.24 412.12 654.66
  C 406.77 653.60 403.83 654.07 397.49 654.17
  Q 392.81 654.25 391.44 650.25
  Q 387.33 638.20 385.56 632.75
  Q 384.78 630.36 382.72 630.91
  Q 368.35 634.74 355.78 641.07
  A 2.29 2.29 0.0 0 0 354.62 643.80
  Q 356.10 648.50 359.89 660.29
  Q 361.36 664.86 358.01 666.98
  Q 345.07 675.17 335.93 686.67
  C 333.49 689.74 330.96 689.64 327.55 687.90
  Q 325.12 686.65 312.41 680.83
  C 310.25 679.84 309.06 679.69 307.86 681.86
  Q 301.35 693.62 297.26 707.04
  A 1.73 1.72 -65.5 0 0 297.99 709.00
  Q 310.40 716.80 314.32 719.40
  C 317.18 721.30 317.52 724.65 316.77 727.73
  C 315.91 731.21 316.28 733.79 315.81 737.48
  A 17.72 17.51 -44.7 0 0 315.76 741.62
  C 316.21 745.74 316.11 747.80 316.69 751.69
  Q 317.47 756.90 312.18 759.16
  Q 302.68 763.23 295.30 766.12
  Q 292.44 767.24 293.41 770.27
  Q 298.07 784.80 302.37 794.88
  C 303.54 797.62 304.57 797.68 307.30 796.77
  Q 316.66 793.63 323.76 790.87
  C 326.51 789.80 328.80 789.67 330.48 792.09
  Q 339.12 804.55 350.63 813.30
  Q 352.76 814.93 352.08 816.88
  Q 349.12 825.31 344.28 836.89
  A 2.09 2.08 28.4 0 0 345.04 839.43
  Q 346.56 840.44 349.33 841.66
  Q 360.47 846.57 370.96 850.13
  A 1.74 1.73 22.9 0 0 373.07 849.28
  Q 376.60 842.33 380.59 833.37
  Q 381.46 831.40 382.85 829.62
  A 1.81 1.79 16.4 0 1 384.15 828.92
  Q 389.30 828.51 393.75 829.72
  A 7.27 7.21 -38.5 0 0 395.95 829.96
  Q 399.90 829.81 406.99 829.78
  Q 412.22 829.77 413.58 834.20
  Q 416.96 845.16 419.97 853.65
  A 1.66 1.66 0.0 0 0 421.95 854.70
  L 448.79 847.77
  A 2.15 2.14 -14.2 0 0 450.34 845.18
  Q 448.66 838.32 445.15 826.34
  C 443.94 822.20 445.58 820.42 449.09 818.14
  C 457.53 812.67 462.07 809.42 468.06 803.58
  Q 469.71 801.97 471.68 801.35
  A 2.91 2.89 51.5 0 1 474.06 801.63
  Q 478.17 804.10 490.79 811.92
  Q 493.27 813.46 494.65 811.72
  Q 501.82 802.73 509.25 787.90
  Q 510.46 785.50 507.91 783.89
  Q 503.59 781.16 491.49 773.32
  Q 487.75 770.89 487.77 767.59
  A 3.71 3.49 57.3 0 1 487.99 766.40
  Q 490.52 759.42 491.60 751.14
  C 492.07 747.58 491.78 744.82 491.82 740.70
  C 491.87 734.89 496.18 734.09 501.32 732.89
  Q 505.36 731.94 514.65 729.98
  A 1.54 1.54 0.0 0 0 515.84 728.78"
/>
<path stroke="#314062" d="
  M 425.6512 791.2819
  A 53.44 53.24 65.9 0 0 452.4293 720.7605
  A 53.44 53.24 65.9 0 0 382.0088 693.7181
  A 53.44 53.24 65.9 0 0 355.2307 764.2395
  A 53.44 53.24 65.9 0 0 425.6512 791.2819"
/>
</g>
<g>
<path fill="#141645" d="
  M 210.49 424.96
  A 0.31 0.30 74.0 0 0 210.75 425.11
  Q 235.30 425.12 417.55 425.11
  C 421.37 425.11 422.18 429.23 420.47 431.74
  Q 417.66 435.84 413.63 435.88
  Q 408.79 435.94 207.75 435.87
  C 199.07 435.87 199.53 429.13 199.49 421.66
  Q 198.79 286.01 199.27 234.25
  Q 199.99 157.19 199.62 86.25
  C 199.59 80.63 200.20 75.11 206.38 73.16
  C 213.73 70.84 221.28 71.14 231.00 71.12
  C 246.37 71.11 290.80 70.73 323.43 71.52
  Q 347.19 72.10 352.25 72.10
  Q 663.30 72.10 689.50 72.09
  C 695.78 72.09 703.40 72.43 703.10 80.52
  Q 702.73 90.81 702.95 102.27
  Q 703.17 113.05 703.72 170.72
  Q 703.75 173.26 700.31 174.01
  Q 692.92 175.61 692.78 168.45
  Q 691.89 121.17 692.14 84.32
  A 1.23 1.22 0.2 0 0 690.91 83.09
  Q 498.27 83.34 334.34 82.81
  C 323.28 82.78 310.53 82.21 298.00 82.19
  Q 253.81 82.11 211.67 82.30
  A 1.28 1.28 0.0 0 0 210.39 83.58
  C 210.37 100.45 210.99 115.88 210.83 132.81
  C 209.96 224.71 209.45 325.59 210.28 424.00
  Q 210.28 424.59 210.49 424.96
  Z"
/>
<path fill="#141645" d="
  M 1061.07 186.86
  Q 1057.31 190.89 1052.43 193.97
  Q 1050.24 195.36 1048.13 193.71
  Q 1045.30 191.48 1043.68 189.92
  Q 1018.77 166.03 968.81 119.68
  Q 966.11 117.18 959.72 113.85
  Q 944.34 98.38 928.68 83.07
  Q 927.91 82.31 926.65 79.79
  C 925.24 76.96 926.64 74.30 929.16 72.93
  Q 933.65 70.48 937.23 74.02
  Q 942.12 78.85 944.10 80.66
  Q 993.03 125.27 1051.98 179.78
  Q 1055.47 183.01 1059.25 186.99
  A 0.94 0.92 -27.3 0 0 1060.14 187.26
  Q 1060.57 187.17 1061.07 186.86
  Z"
/>
<path fill="#141645" d="
  M 561.65 271.46
  A 0.65 0.65 0.0 0 0 562.64 270.79
  Q 560.76 261.18 559.67 252.83
  C 558.63 244.89 569.22 244.70 570.69 251.83
  Q 572.33 259.81 577.16 287.41
  Q 577.92 291.77 576.77 293.49
  C 574.05 297.53 567.05 295.74 562.85 294.30
  Q 532.98 284.01 532.06 283.70
  C 529.52 282.85 527.77 280.01 528.56 277.31
  C 529.91 272.64 534.18 272.50 538.22 273.78
  Q 543.55 275.46 548.86 277.41
  A 0.78 0.77 12.0 0 0 549.90 276.74
  Q 549.93 276.29 549.46 275.77
  Q 516.12 238.34 514.29 236.20
  A 0.83 0.82 47.3 0 0 513.08 236.15
  Q 506.43 242.73 498.07 251.59
  Q 494.33 255.55 490.45 251.66
  Q 462.29 223.53 427.24 186.89
  C 415.10 174.20 403.00 162.40 391.76 150.93
  A 1.11 1.10 -45.9 0 0 390.16 150.96
  Q 370.76 172.18 368.71 174.47
  Q 367.22 176.14 365.95 177.26
  Q 362.18 180.61 358.69 177.07
  Q 327.44 145.39 304.62 121.91
  C 300.69 117.86 298.19 113.99 303.78 110.30
  C 307.06 108.13 310.52 110.66 313.14 113.37
  Q 335.35 136.33 359.86 160.52
  C 360.53 161.18 361.13 162.21 361.89 162.90
  A 0.97 0.97 0.0 0 0 363.25 162.84
  Q 376.46 148.55 386.01 138.69
  Q 386.98 137.70 389.22 135.94
  C 392.42 133.43 394.41 135.91 396.84 138.40
  Q 431.24 173.66 449.10 192.32
  Q 461.04 204.81 469.14 212.96
  C 479.94 223.83 486.98 231.44 493.80 237.63
  A 1.30 1.29 42.3 0 0 495.63 237.55
  Q 502.56 229.98 508.36 224.36
  C 510.20 222.58 513.38 220.02 516.01 221.48
  Q 518.90 223.08 521.34 225.90
  Q 540.62 248.20 553.72 262.29
  Q 560.33 269.40 561.17 271.05
  A 0.70 0.66 89.0 0 0 561.46 271.35
  Q 561.64 271.45 561.65 271.46
  Z"
/>
<path fill="#e46826" d="
  M 1061.07 186.86
  L 1110.41 142.57
  A 4.49 4.47 22.5 0 1 1113.18 141.43
  Q 1120.56 141.07 1125.02 146.96
  Q 1131.83 155.95 1133.69 158.08
  Q 1139.86 165.20 1219.32 260.12
  A 0.46 0.46 0.0 0 0 1220.00 260.14
  C 1231.00 248.59 1239.13 241.45 1254.64 226.66
  C 1256.83 224.57 1260.25 222.41 1263.37 223.49
  C 1267.21 224.83 1268.79 229.22 1271.06 231.93
  Q 1312.81 281.72 1356.52 330.48
  Q 1357.20 331.24 1357.45 331.38
  A 0.97 0.96 -66.2 0 0 1358.86 330.83
  Q 1361.69 321.53 1365.38 313.27
  C 1366.96 309.75 1368.92 307.24 1372.83 308.18
  C 1377.82 309.39 1376.74 315.24 1376.83 318.75
  Q 1376.85 319.46 1377.27 323.72
  Q 1379.25 344.15 1385.84 374.91
  Q 1387.27 381.57 1379.97 383.07
  Q 1378.00 383.47 1372.88 381.34
  Q 1339.52 367.47 1320.71 359.29
  C 1317.17 357.75 1314.72 353.62 1318.28 350.55
  Q 1321.07 348.13 1325.00 348.25
  Q 1331.68 348.44 1339.67 346.56
  Q 1341.99 346.08 1345.12 346.13
  C 1348.08 346.19 1351.23 342.85 1348.97 340.22
  Q 1273.52 252.54 1266.52 244.01
  C 1262.61 239.24 1258.91 237.64 1254.05 242.42
  Q 1238.72 257.52 1217.89 277.41
  A 0.61 0.60 48.8 0 1 1217.01 277.35
  Q 1201.48 258.41 1182.35 235.89
  C 1169.98 221.32 1157.87 205.40 1147.33 192.59
  Q 1131.98 173.96 1124.93 165.08
  Q 1121.55 160.83 1116.60 156.23
  A 2.49 2.49 0.0 0 0 1113.73 155.86
  Q 1110.51 157.58 1107.52 160.27
  Q 1086.57 179.17 1059.78 204.03
  Q 1055.60 207.92 1051.13 209.23
  L 959.72 113.85
  Q 966.11 117.18 968.81 119.68
  Q 1018.77 166.03 1043.68 189.92
  Q 1045.30 191.48 1048.13 193.71
  Q 1050.24 195.36 1052.43 193.97
  Q 1057.31 190.89 1061.07 186.86
  Z"
/>
<rect fill="#141645" x="-5.43" y="-15.80" transform="translate(805.91,131.96) rotate(-3.6)" width="10.86" height="31.60" rx="5.24"/>
<rect fill="#141645" x="-5.50" y="-16.29" transform="translate(854.69,142.68) rotate(36.1)" width="11.00" height="32.58" rx="5.36"/>
<rect fill="#141645" x="-5.49" y="-14.45" transform="translate(761.64,150.04) rotate(-39.9)" width="10.98" height="28.90" rx="5.24"/>
<path fill="#141645" d="
  M 251.37 154.11
  L 290.42 154.11
  A 5.91 5.91 0.0 0 1 296.33 160.02
  L 296.33 394.98
  A 5.91 5.91 0.0 0 1 290.42 400.89
  L 251.37 400.89
  A 5.91 5.91 0.0 0 1 245.46 394.98
  L 245.46 160.02
  A 5.91 5.91 0.0 0 1 251.37 154.11
  Z"
/>
<path fill="#141645" d="
  M 1339.67 346.56
  L 1259.97 253.72
  A 0.94 0.93 -42.8 0 0 1258.59 253.67
  Q 1253.86 258.52 1251.21 260.95
  Q 1237.07 273.85 1227.84 283.33
  C 1222.53 288.78 1216.57 294.04 1210.01 286.25
  C 1176.20 246.11 1148.68 212.03 1114.27 170.03
  A 0.69 0.68 -40.7 0 0 1113.29 169.96
  Q 1094.57 186.91 1093.88 187.63
  Q 1091.36 190.27 1072.63 207.62
  C 1069.87 210.18 1065.99 214.15 1061.82 215.02
  Q 1054.79 216.48 1051.13 209.23
  Q 1055.60 207.92 1059.78 204.03
  Q 1086.57 179.17 1107.52 160.27
  Q 1110.51 157.58 1113.73 155.86
  A 2.49 2.49 0.0 0 1 1116.60 156.23
  Q 1121.55 160.83 1124.93 165.08
  Q 1131.98 173.96 1147.33 192.59
  C 1157.87 205.40 1169.98 221.32 1182.35 235.89
  Q 1201.48 258.41 1217.01 277.35
  A 0.61 0.60 48.8 0 0 1217.89 277.41
  Q 1238.72 257.52 1254.05 242.42
  C 1258.91 237.64 1262.61 239.24 1266.52 244.01
  Q 1273.52 252.54 1348.97 340.22
  C 1351.23 342.85 1348.08 346.19 1345.12 346.13
  Q 1341.99 346.08 1339.67 346.56
  Z"
/>
<path fill="#141645" d="
  M 1079.43 879.27
  A 0.60 0.59 20.5 0 0 1078.52 879.68
  Q 1073.74 912.42 1069.75 945.75
  Q 1069.54 947.48 1068.57 951.19
  A 2.70 2.65 75.7 0 1 1067.86 952.41
  Q 1065.60 954.63 1062.90 955.37
  C 954.09 985.22 837.84 990.24 727.78 963.98
  Q 685.86 953.98 647.68 936.79
  A 0.56 0.56 0.0 0 1 647.35 936.37
  Q 646.43 931.38 646.22 926.64
  Q 645.86 918.34 645.63 916.87
  C 644.83 911.55 645.31 906.72 644.73 901.39
  C 644.04 895.21 644.33 889.28 643.80 883.88
  C 643.01 875.91 643.37 867.14 642.55 859.85
  C 641.89 853.95 642.31 849.22 641.71 843.41
  C 640.90 835.57 641.39 827.31 640.54 820.02
  C 639.87 814.21 640.34 809.03 639.78 803.34
  C 638.85 793.77 639.39 783.51 638.73 774.56
  C 637.62 759.41 638.07 741.49 638.14 726.43
  A 2.37 2.37 0.0 0 0 637.25 724.56
  C 614.66 706.23 590.21 690.74 564.87 675.99
  Q 506.45 641.96 492.03 633.22
  Q 467.96 618.64 449.02 603.73
  Q 429.68 588.50 412.56 569.70
  C 400.33 556.25 389.60 541.40 383.56 524.42
  C 381.85 519.60 380.61 512.65 381.26 507.08
  Q 382.61 495.51 385.33 488.84
  C 392.27 471.90 404.27 456.86 417.40 443.90
  Q 429.27 432.18 438.47 424.46
  Q 470.27 397.76 494.85 381.34
  Q 533.23 355.70 537.77 352.61
  Q 553.47 341.93 569.40 332.19
  Q 580.24 325.56 601.08 311.80
  Q 602.23 311.03 606.91 309.49
  A 2.46 2.44 -44.1 0 1 608.52 309.51
  L 612.49 310.94
  A 2.35 2.35 0.0 0 0 614.77 310.55
  Q 622.20 304.47 627.61 297.65
  C 631.10 293.25 634.95 285.48 637.82 280.16
  Q 658.21 242.25 672.22 214.98
  C 674.94 209.70 678.27 208.26 683.09 205.47
  Q 709.14 190.37 736.61 179.35
  C 742.58 176.96 746.16 176.64 753.07 177.51
  C 766.23 179.18 779.45 180.46 790.38 182.32
  A 11.82 11.80 -45.8 0 0 794.69 182.26
  Q 805.70 180.07 817.52 179.40
  Q 837.98 178.23 855.03 179.30
  C 879.27 180.83 905.62 188.41 919.82 209.27
  A 8.18 8.16 -2.7 0 0 922.63 211.82
  C 931.05 216.43 939.16 220.98 946.09 228.15
  Q 964.88 247.56 968.35 274.14
  C 970.53 290.84 970.34 307.82 968.48 324.40
  A 1.93 1.92 -72.3 0 0 969.45 326.29
  C 980.00 332.23 986.59 344.71 988.42 356.27
  C 990.98 372.45 988.79 390.74 981.03 405.49
  C 974.80 417.35 963.43 426.18 950.01 427.20
  A 1.69 1.68 0.4 0 0 948.46 428.72
  C 947.05 443.32 947.99 459.56 949.15 475.13
  Q 949.28 476.98 949.85 478.28
  A 1.52 1.50 -2.7 0 0 950.75 479.09
  Q 957.53 481.34 962.27 486.97
  Q 974.33 501.27 979.27 518.92
  A 1.23 1.22 4.9 0 0 979.94 519.71
  Q 989.54 524.30 1000.63 528.61
  Q 1013.56 533.64 1064.30 553.17
  Q 1071.79 556.05 1092.44 565.83
  Q 1114.90 576.46 1134.44 590.06
  Q 1140.65 594.38 1150.18 603.08
  C 1167.29 618.70 1178.68 640.22 1187.89 662.90
  Q 1194.59 679.41 1199.35 695.17
  C 1215.51 748.68 1228.42 805.65 1240.04 861.95
  Q 1244.51 883.60 1248.79 911.75
  Q 1249.35 915.42 1247.03 917.30
  C 1245.03 918.92 1242.19 918.60 1239.94 919.84
  Q 1235.82 922.10 1225.60 926.82
  Q 1202.65 937.44 1176.01 942.74
  Q 1139.33 950.04 1102.60 948.90
  A 2.53 2.53 0.0 0 1 1100.41 947.51
  Q 1097.69 942.10 1095.69 935.60
  Q 1085.35 902.02 1079.88 879.91
  Q 1079.77 879.49 1079.43 879.27
  Z
  M 655.38 363.40
  A 0.49 0.49 0.0 0 0 656.16 363.45
  Q 661.11 357.69 667.37 353.43
  C 672.48 349.94 678.07 347.91 684.51 345.01
  C 693.48 340.98 700.99 331.82 705.75 322.73
  Q 713.16 308.61 718.69 292.19
  Q 724.32 275.46 726.58 269.07
  C 728.10 264.74 730.86 256.99 734.36 254.84
  C 738.22 252.46 744.99 249.71 748.48 248.40
  Q 772.86 239.28 786.72 233.47
  C 791.14 231.62 798.65 228.86 798.18 223.63
  C 798.04 222.03 796.13 219.87 794.77 219.48
  Q 792.03 218.71 788.48 219.28
  C 773.55 221.69 759.67 224.48 746.12 230.50
  C 735.46 235.25 725.03 239.29 714.13 241.14
  Q 712.34 241.44 710.57 239.88
  C 708.04 237.67 710.24 234.09 712.86 233.08
  C 720.85 229.98 728.59 227.58 735.08 223.70
  Q 742.54 219.23 749.97 214.74
  Q 759.85 208.76 772.59 206.42
  Q 783.96 204.33 797.39 201.27
  Q 800.40 200.58 800.94 197.16
  A 1.68 1.64 34.8 0 0 800.72 196.03
  Q 797.91 191.36 792.85 191.15
  Q 786.94 190.90 778.28 192.32
  Q 769.29 193.79 763.87 195.08
  Q 755.24 197.15 743.60 202.83
  Q 718.10 215.27 701.40 224.63
  C 699.33 225.79 693.61 227.46 692.79 224.01
  Q 692.05 220.89 694.53 219.02
  Q 698.05 216.37 705.79 212.28
  Q 720.83 204.33 743.07 193.67
  C 748.11 191.25 751.69 190.08 758.16 187.85
  A 0.35 0.35 0.0 0 0 758.24 187.23
  Q 757.12 186.45 755.47 186.33
  Q 750.48 185.97 747.03 185.30
  A 3.65 3.63 -50.0 0 0 745.02 185.48
  Q 728.91 191.65 720.50 195.74
  Q 701.65 204.90 683.34 215.71
  A 7.38 7.36 -1.0 0 0 680.63 218.51
  Q 663.84 249.23 649.55 277.36
  Q 640.38 295.42 637.54 299.46
  Q 630.23 309.86 620.09 317.46
  A 0.59 0.59 0.0 0 0 620.02 318.34
  C 633.35 331.76 644.97 347.45 655.38 363.40
  Z
  M 770.10 437.48
  C 767.24 435.43 764.62 434.22 763.18 430.30
  C 760.55 423.09 763.02 414.65 765.82 408.09
  Q 772.10 393.34 775.54 379.03
  Q 776.11 376.69 776.91 369.00
  Q 777.28 365.40 778.43 364.38
  C 781.82 361.33 786.33 364.64 786.22 368.60
  C 786.16 370.59 786.19 371.62 785.89 373.21
  Q 783.05 388.11 777.63 403.42
  C 775.97 408.13 772.45 415.57 771.82 422.51
  C 770.69 434.82 792.02 430.21 797.98 428.66
  A 13.78 13.69 -65.0 0 0 800.51 427.73
  C 802.48 426.78 804.32 424.64 806.85 424.59
  Q 809.43 424.54 810.75 426.26
  A 1.54 1.48 27.5 0 1 811.06 427.17
  L 811.06 430.22
  A 0.70 0.69 -86.2 0 0 811.66 430.91
  Q 822.16 432.20 822.49 432.26
  Q 836.40 434.62 848.55 440.92
  Q 858.48 446.07 864.71 455.72
  C 869.35 462.90 876.39 462.60 882.37 457.15
  Q 888.12 451.91 891.77 446.75
  Q 904.69 428.47 912.92 405.65
  Q 912.94 405.57 918.56 389.05
  Q 919.69 385.70 922.04 382.94
  A 1.99 1.97 36.0 0 1 924.60 382.55
  C 926.91 384.00 928.00 386.29 928.13 389.32
  C 928.39 395.74 929.18 401.68 929.07 408.24
  Q 929.02 410.85 929.77 422.75
  C 930.68 437.07 930.63 454.23 927.84 469.79
  Q 925.70 481.71 919.62 491.07
  Q 896.81 526.19 860.61 547.05
  Q 843.27 557.04 823.90 559.38
  Q 818.78 560.00 815.59 559.79
  Q 811.93 559.53 807.22 558.97
  A 0.78 0.78 0.0 0 0 806.36 559.83
  Q 807.37 569.23 810.90 577.74
  Q 812.60 581.85 820.71 592.94
  Q 830.17 605.88 839.03 621.38
  A 1.29 1.29 0.0 0 0 840.90 621.79
  C 851.38 614.30 861.99 605.27 872.39 598.03
  C 887.40 587.59 899.92 579.67 910.95 568.10
  C 922.44 556.04 931.94 543.99 939.13 529.64
  Q 943.74 520.45 944.21 512.01
  C 944.45 507.72 943.99 502.59 943.28 498.07
  Q 940.67 481.35 940.18 474.17
  C 939.06 458.16 939.94 439.52 939.90 422.00
  Q 939.89 418.69 942.99 418.89
  C 975.13 421.03 983.17 382.93 979.79 358.96
  C 978.48 349.70 973.65 336.43 963.40 334.20
  C 947.90 330.82 938.00 352.32 935.56 364.07
  Q 934.36 369.88 928.32 368.99
  C 921.73 368.02 919.71 364.43 919.34 357.81
  C 917.81 330.63 908.57 305.98 899.15 279.91
  C 895.29 269.22 894.42 257.92 898.71 247.23
  A 0.77 0.77 0.0 0 0 898.18 246.20
  C 882.49 242.31 866.12 241.88 850.47 245.45
  C 832.32 249.59 818.67 255.79 799.14 264.62
  Q 786.43 270.36 773.02 271.73
  Q 770.69 271.97 768.55 271.07
  A 2.67 2.67 0.0 0 1 766.92 268.61
  L 766.92 265.69
  A 0.46 0.46 0.0 0 0 766.35 265.24
  Q 752.38 268.63 738.37 266.39
  A 0.71 0.71 0.0 0 0 737.60 266.83
  Q 732.58 279.31 728.03 293.05
  Q 723.98 305.27 714.44 326.94
  C 713.01 330.16 712.59 332.52 713.19 335.77
  Q 716.24 352.29 717.90 369.51
  Q 721.07 402.37 722.20 411.50
  C 723.83 424.73 726.87 438.56 731.71 452.62
  Q 735.80 464.50 736.52 467.76
  A 0.71 0.71 0.0 0 0 737.90 467.81
  Q 740.08 460.58 741.07 458.02
  C 745.49 446.68 758.61 440.66 769.88 438.50
  A 0.57 0.57 0.0 0 0 770.10 437.48
  Z
  M 623.50 416.14
  Q 639.56 402.63 654.21 386.81
  A 3.53 3.52 -34.5 0 0 654.90 383.10
  Q 652.43 376.93 648.81 370.93
  Q 645.49 365.44 632.20 347.28
  Q 621.34 332.44 608.39 320.25
  A 1.70 1.69 50.1 0 0 606.31 320.06
  L 568.26 344.28
  A 0.60 0.60 0.0 0 0 568.14 345.19
  Q 580.68 358.64 592.04 371.98
  C 602.95 384.80 614.24 400.00 622.39 415.92
  A 0.72 0.72 0.0 0 0 623.50 416.14
  Z
  M 750.26 526.27
  C 749.79 524.73 748.57 523.29 747.67 521.48
  Q 742.13 510.41 739.54 503.46
  Q 732.43 484.40 722.90 454.99
  C 718.27 440.67 715.31 427.47 713.29 413.25
  Q 711.69 402.03 710.37 386.75
  Q 708.07 360.05 705.88 344.42
  Q 705.60 342.45 704.93 341.16
  A 0.66 0.65 -41.6 0 0 703.81 341.10
  C 698.69 348.55 691.47 351.27 681.07 356.58
  Q 670.17 362.14 661.51 371.62
  A 1.86 1.85 -39.2 0 0 661.28 373.82
  C 663.30 377.22 667.35 384.24 665.13 387.90
  Q 662.19 392.75 657.18 397.94
  Q 643.97 411.63 628.59 424.45
  C 627.79 425.11 626.46 426.62 625.42 427.91
  A 6.84 6.78 77.5 0 0 624.62 429.18
  Q 621.35 435.99 614.18 444.43
  Q 598.46 462.90 575.86 491.11
  Q 573.91 493.54 567.78 500.51
  A 0.90 0.90 0.0 0 0 568.27 501.98
  Q 610.50 511.01 654.40 516.50
  Q 660.16 517.22 664.16 517.17
  C 671.76 517.08 679.85 517.09 688.56 517.74
  Q 719.15 520.01 749.23 527.36
  A 0.86 0.86 0.0 0 0 750.26 526.27
  Z
  M 644.75 649.37
  C 648.54 629.44 651.91 609.95 656.80 591.04
  C 657.59 587.96 659.97 578.15 663.48 577.05
  C 666.30 576.18 668.14 581.19 668.49 583.04
  Q 668.80 584.70 667.99 587.93
  Q 667.12 591.39 665.43 599.84
  Q 659.21 630.96 651.23 679.48
  Q 648.58 695.55 648.47 705.26
  C 648.25 724.23 647.77 746.99 648.25 766.58
  Q 648.71 784.73 649.12 798.52
  C 649.40 808.05 650.56 820.66 650.91 828.52
  Q 653.07 877.38 655.90 930.28
  A 1.89 1.86 -80.4 0 0 657.04 931.90
  Q 699.83 950.04 745.75 959.47
  Q 785.76 967.69 819.27 970.06
  Q 842.89 971.72 850.75 972.02
  C 920.49 974.61 988.99 966.26 1056.30 948.60
  C 1058.79 947.95 1060.30 947.84 1060.44 945.22
  Q 1060.65 941.19 1061.00 938.51
  C 1065.77 902.05 1068.58 880.47 1071.93 858.46
  A 9.23 9.22 -48.0 0 0 1071.74 854.78
  Q 1067.09 837.12 1061.35 812.01
  Q 1058.43 799.23 1057.32 791.24
  Q 1055.25 776.39 1054.70 770.25
  Q 1053.53 757.11 1054.71 742.76
  Q 1056.30 723.45 1059.52 707.00
  Q 1061.23 698.33 1065.46 683.73
  Q 1070.52 666.31 1079.35 649.38
  Q 1084.09 640.30 1089.00 633.76
  Q 1093.18 628.20 1096.35 625.63
  C 1100.20 622.51 1105.92 626.76 1102.48 631.01
  Q 1096.13 638.87 1090.81 648.30
  Q 1080.14 667.19 1074.38 687.63
  Q 1070.34 701.97 1068.58 712.77
  Q 1065.80 729.81 1065.45 733.82
  Q 1064.68 742.68 1064.81 760.44
  C 1065.01 788.11 1072.15 815.28 1078.75 841.88
  Q 1082.42 856.68 1085.45 867.15
  Q 1099.08 914.18 1105.49 936.76
  Q 1105.64 937.28 1106.04 939.49
  A 1.29 1.29 0.0 0 0 1107.27 940.54
  Q 1153.48 941.82 1197.35 928.81
  Q 1219.65 922.20 1238.11 910.75
  A 1.67 1.66 69.3 0 0 1238.87 909.05
  Q 1237.20 899.35 1232.42 873.28
  Q 1230.65 863.58 1224.03 833.17
  Q 1217.29 802.20 1207.86 763.80
  Q 1206.96 760.12 1203.32 745.71
  Q 1199.94 732.31 1191.97 704.01
  Q 1188.70 692.42 1181.17 672.37
  Q 1177.80 663.41 1172.39 652.45
  Q 1166.21 639.92 1162.07 633.16
  C 1151.90 616.55 1136.73 602.81 1120.60 592.43
  Q 1105.81 582.91 1091.44 575.85
  Q 1078.12 569.31 1057.17 560.64
  C 1038.62 552.96 1008.17 542.29 986.00 533.16
  Q 984.23 532.43 982.28 531.21
  A 0.57 0.57 0.0 0 0 981.40 531.69
  Q 981.32 539.47 979.81 546.27
  Q 977.36 557.29 974.51 564.78
  C 965.05 589.57 954.28 610.63 941.07 635.44
  Q 936.91 643.25 929.37 638.50
  Q 907.48 624.69 904.29 622.47
  C 900.91 620.13 896.76 617.81 892.72 618.69
  C 884.52 620.49 874.19 623.37 864.53 626.92
  Q 849.66 632.38 837.36 636.28
  Q 835.08 637.00 833.68 638.61
  A 2.42 2.38 73.1 0 0 833.18 639.57
  C 830.73 649.03 829.76 658.74 827.83 669.19
  C 824.80 685.67 822.00 703.92 820.20 716.35
  A 0.56 0.56 0.0 0 0 820.71 716.99
  L 838.43 718.28
  A 1.06 1.06 0.0 0 0 839.54 717.50
  C 840.67 713.24 840.90 708.81 841.55 704.84
  Q 848.23 663.98 852.63 642.04
  Q 853.07 639.85 854.77 638.46
  A 2.54 2.51 41.6 0 1 857.75 638.30
  Q 860.77 640.27 860.14 643.98
  Q 859.96 645.04 857.51 660.29
  Q 854.80 677.18 852.04 694.05
  Q 849.73 708.15 847.33 722.54
  Q 846.45 727.88 840.93 727.19
  Q 830.52 725.89 817.13 725.11
  C 810.39 724.71 809.28 719.32 810.30 713.71
  Q 817.50 674.02 822.35 640.10
  C 822.72 637.56 824.89 632.53 827.74 630.85
  Q 829.00 630.10 830.24 629.15
  A 0.33 0.33 0.0 0 0 830.23 628.61
  Q 818.56 620.66 801.46 608.28
  Q 799.07 606.55 793.32 603.72
  C 791.02 602.59 789.49 602.84 787.39 604.12
  Q 776.80 610.60 762.44 620.68
  Q 754.24 626.44 749.88 618.15
  Q 748.17 614.91 748.72 611.26
  Q 750.69 598.24 752.45 587.25
  Q 754.11 576.85 756.64 547.54
  Q 756.86 544.95 756.30 541.12
  A 1.64 1.63 18.3 0 0 755.84 540.21
  C 754.16 538.51 751.06 537.73 749.10 537.22
  Q 735.38 533.63 716.58 530.41
  Q 704.42 528.33 692.78 527.62
  Q 679.73 526.84 668.77 526.89
  Q 659.04 526.95 652.70 526.07
  Q 639.10 524.19 611.38 519.87
  C 594.02 517.16 576.00 512.96 559.06 510.23
  A 2.31 2.30 29.1 0 0 557.19 510.76
  C 544.68 521.40 531.02 528.65 515.62 533.82
  Q 498.28 539.64 479.02 538.57
  C 474.87 538.34 462.69 536.66 464.52 529.79
  C 465.52 526.05 472.50 527.30 475.23 527.81
  A 11.36 11.30 -39.5 0 0 477.35 528.01
  Q 484.41 528.01 488.74 527.65
  Q 495.19 527.10 507.78 524.00
  Q 522.42 520.39 536.83 512.05
  Q 546.88 506.23 551.86 502.36
  Q 559.20 496.67 561.97 493.21
  Q 587.27 461.63 611.38 433.09
  C 612.64 431.60 614.63 428.75 614.50 426.99
  C 614.05 421.15 609.76 414.12 606.67 409.32
  C 599.01 397.41 591.34 388.03 580.91 374.89
  C 574.70 367.07 566.61 358.58 560.00 350.74
  A 1.25 1.25 0.0 0 0 558.35 350.51
  C 540.55 362.35 514.04 379.91 497.42 391.38
  Q 462.79 415.26 432.76 442.23
  Q 414.65 458.49 402.02 477.54
  C 399.02 482.07 394.83 490.04 393.28 495.20
  C 390.36 504.92 390.10 516.69 394.38 526.14
  C 400.32 539.26 408.55 551.27 418.45 562.13
  Q 436.53 581.96 456.55 597.46
  C 477.55 613.73 499.69 627.12 522.49 640.24
  Q 551.71 657.06 580.72 674.27
  Q 606.53 689.59 629.24 706.02
  Q 632.91 708.67 635.95 711.77
  A 0.41 0.41 0.0 0 0 636.65 711.43
  C 635.92 704.66 634.78 696.65 634.83 689.49
  Q 634.89 680.23 634.37 670.57
  C 633.60 656.36 633.63 646.76 633.10 632.05
  Q 632.75 622.16 632.88 612.43
  Q 632.99 603.25 632.02 581.50
  Q 631.84 577.47 632.68 574.92
  C 633.87 571.30 637.37 571.80 639.25 574.53
  Q 641.07 577.18 641.40 578.90
  C 643.58 590.21 643.43 604.19 643.91 615.94
  C 644.33 626.33 643.99 636.57 644.08 644.20
  Q 644.12 647.47 644.51 649.37
  A 0.12 0.12 0.0 0 0 644.75 649.37
  Z
  M 771.76 499.29
  C 774.53 499.14 777.09 497.39 779.58 495.82
  C 787.27 490.97 796.11 489.03 805.49 489.81
  C 815.53 490.63 823.44 496.91 833.21 497.99
  C 842.23 498.99 849.26 494.50 851.43 485.88
  Q 852.64 481.09 851.72 477.26
  Q 846.97 457.44 826.51 454.00
  Q 810.56 451.32 796.84 452.15
  Q 788.15 452.68 774.00 455.69
  C 758.91 458.90 754.41 471.84 756.86 485.56
  C 758.31 493.69 763.27 499.73 771.76 499.29
  Z
  M 864.19 616.44
  Q 864.52 616.47 864.82 616.36
  Q 877.75 611.61 886.03 609.57
  C 891.70 608.16 897.09 607.41 901.98 609.52
  Q 906.84 611.62 912.60 615.41
  Q 923.35 622.46 932.35 628.18
  A 0.90 0.90 0.0 0 0 933.61 627.88
  Q 949.22 601.08 961.27 572.29
  Q 965.17 562.97 968.18 552.21
  C 970.87 542.61 972.89 530.94 970.31 521.30
  Q 965.42 502.99 953.11 490.93
  A 0.43 0.42 -59.1 0 0 952.41 491.11
  Q 952.29 491.50 952.34 491.76
  Q 954.04 499.99 954.02 508.50
  C 953.98 522.17 947.98 534.47 940.18 546.17
  Q 923.09 571.82 901.10 588.84
  C 895.83 592.92 891.53 596.58 886.23 600.28
  Q 873.21 609.39 863.99 615.68
  A 0.42 0.42 0.0 0 0 864.19 616.44
  Z
  M 821.21 610.07
  A 0.36 0.35 -18.7 0 0 821.49 609.51
  Q 813.48 598.42 808.49 592.20
  C 804.55 587.29 802.43 582.74 800.77 577.98
  Q 798.48 571.45 797.13 562.61
  Q 796.86 560.85 796.88 560.41
  Q 796.96 558.49 795.00 558.37
  C 791.74 558.19 789.51 558.33 786.44 557.51
  Q 775.61 554.64 768.79 546.62
  A 1.24 1.22 46.1 0 0 766.95 546.57
  Q 766.44 547.13 766.43 547.69
  C 766.16 562.01 763.96 578.04 761.48 593.27
  C 760.69 598.09 760.30 603.77 759.01 608.74
  Q 758.91 609.13 759.07 609.77
  A 0.67 0.67 0.0 0 0 760.10 610.15
  Q 774.08 600.55 784.52 594.05
  Q 789.68 590.84 794.64 592.89
  Q 806.68 597.87 820.46 609.63
  Q 820.98 610.07 821.21 610.07
  Z"
/>
<rect fill="#141645" x="326.39" y="210.75" width="51.48" height="190.04" rx="4.86"/>
<path fill="#141645" d="
  M 409.48 399.30
  Q 408.14 397.65 408.14 395.50
  Q 408.09 287.94 408.16 261.51
  C 408.17 257.92 410.49 257.09 413.81 257.04
  Q 434.42 256.75 453.75 257.05
  C 459.21 257.13 458.87 260.68 458.87 265.40
  Q 458.87 307.66 458.88 393.70
  C 458.89 398.78 454.99 400.27 450.50 400.49
  Q 439.89 401.01 416.75 400.79
  Q 413.93 400.77 410.29 399.82
  A 1.57 1.56 -12.1 0 1 409.48 399.30
  Z"
/>
<path fill="#141645" d="
  M 1031.41 276.87
  A 0.76 0.76 0.0 0 0 1030.65 277.63
  Q 1030.81 385.13 1030.84 512.35
  Q 1030.84 516.21 1030.60 517.09
  C 1029.49 521.10 1024.01 521.24 1021.12 519.42
  A 1.75 1.73 -81.0 0 1 1020.37 518.38
  Q 1019.68 515.70 1019.68 513.00
  Q 1019.67 334.25 1019.48 286.13
  C 1019.47 281.16 1018.14 272.05 1020.03 269.53
  C 1022.19 266.64 1024.91 266.10 1028.66 266.10
  Q 1090.98 266.09 1139.70 266.11
  A 4.43 4.22 -35.8 0 1 1140.87 266.27
  Q 1145.78 267.67 1149.27 272.23
  Q 1171.55 301.36 1189.56 324.21
  Q 1193.95 329.80 1195.19 331.07
  Q 1196.27 332.19 1198.51 332.16
  Q 1209.09 332.04 1264.51 332.11
  C 1269.43 332.12 1273.43 334.62 1277.08 338.63
  Q 1287.66 350.22 1296.50 360.75
  Q 1332.21 403.26 1349.98 424.34
  A 2.22 2.20 -19.9 0 0 1351.67 425.12
  Q 1367.47 425.10 1383.21 425.08
  C 1387.89 425.07 1391.72 426.01 1391.77 431.25
  Q 1392.43 501.59 1392.13 570.25
  C 1392.09 577.45 1390.53 580.51 1382.75 580.51
  Q 1192.29 580.58 1136.56 580.58
  C 1131.59 580.58 1130.53 574.62 1132.74 571.21
  A 1.61 1.59 -84.2 0 1 1133.50 570.58
  Q 1135.47 569.82 1138.00 569.78
  Q 1142.69 569.70 1380.33 569.62
  A 0.93 0.92 -0.0 0 0 1381.26 568.70
  L 1381.26 437.52
  A 1.22 1.22 0.0 0 0 1380.03 436.30
  Q 1362.09 436.41 1349.76 435.97
  C 1344.30 435.77 1341.83 432.39 1337.94 427.78
  Q 1286.49 366.79 1267.46 344.39
  A 3.98 3.98 0.0 0 0 1264.40 342.98
  Q 1234.84 343.14 1193.77 343.01
  C 1190.26 343.00 1187.31 338.83 1185.31 336.69
  Q 1182.61 333.80 1181.33 332.21
  Q 1160.59 306.54 1140.35 279.67
  C 1138.61 277.36 1136.60 276.87 1133.60 276.87
  Q 1072.62 276.86 1031.41 276.87
  Z"
/>
<path fill="#141645" d="
  M 538.58 312.62
  Q 539.80 315.95 539.82 317.00
  Q 539.89 322.56 539.87 338.66
  A 5.14 5.10 64.0 0 1 538.82 341.74
  Q 536.89 344.26 534.10 346.11
  Q 515.49 358.46 497.71 367.19
  Q 494.37 368.83 490.71 367.58
  A 1.28 1.24 86.1 0 1 489.98 366.92
  Q 488.81 364.44 488.81 362.00
  Q 488.82 330.69 488.73 316.28
  C 488.70 311.55 492.31 310.74 496.75 310.71
  Q 515.11 310.58 533.49 310.70
  Q 536.07 310.72 537.95 311.86
  A 1.49 1.48 5.6 0 1 538.58 312.62
  Z"
/>
<path fill="#e46826" d="
  M 1198.52 446.33
  A 0.95 0.95 0.0 0 0 1199.81 446.27
  Q 1213.56 432.03 1224.91 421.17
  C 1227.19 418.98 1231.34 416.78 1234.78 418.48
  Q 1235.75 418.96 1238.15 421.63
  Q 1290.97 480.45 1318.46 511.58
  Q 1319.49 512.74 1325.20 519.61
  Q 1325.59 520.08 1325.64 520.10
  A 0.86 0.86 0.0 0 0 1326.82 519.13
  Q 1324.99 510.33 1324.13 501.71
  Q 1323.61 496.45 1328.48 495.30
  Q 1332.82 494.28 1334.55 498.16
  C 1336.25 501.97 1336.81 507.50 1337.83 511.94
  Q 1339.16 517.67 1343.92 538.79
  Q 1344.84 542.87 1344.53 544.21
  C 1343.35 549.28 1337.28 549.33 1333.14 548.61
  Q 1318.58 546.08 1300.07 541.46
  C 1297.17 540.74 1291.55 540.37 1291.21 536.44
  C 1290.69 530.22 1295.70 528.88 1300.76 529.73
  Q 1309.30 531.15 1316.49 531.59
  A 1.05 1.04 -8.2 0 0 1317.54 530.19
  Q 1316.95 528.56 1315.66 527.09
  Q 1276.81 482.86 1231.94 432.71
  A 1.45 1.44 47.0 0 0 1229.87 432.63
  Q 1216.53 445.42 1205.11 458.39
  C 1200.75 463.34 1196.30 460.10 1192.10 456.48
  Q 1119.77 394.32 1072.33 354.07
  Q 1068.78 351.05 1067.58 349.21
  A 2.97 2.86 25.4 0 1 1067.13 348.02
  C 1066.55 343.89 1070.46 340.13 1074.20 340.78
  Q 1076.06 341.10 1080.74 345.10
  Q 1163.70 415.93 1190.20 438.73
  C 1193.45 441.53 1195.79 444.00 1198.52 446.33
  Z"
/>
<path fill="#141645" d="
  M 290.38 634.56
  A 1.07 1.06 79.7 0 0 289.38 633.86
  L 278.48 633.86
  A 1.12 1.11 10.8 0 0 277.44 634.56
  Q 274.29 642.29 270.91 648.33
  C 268.77 652.15 265.60 650.92 261.63 649.49
  Q 247.21 644.28 239.44 639.85
  Q 235.43 637.56 237.09 632.35
  Q 239.98 623.27 240.68 620.84
  A 2.33 2.33 0.0 0 0 239.84 618.35
  Q 233.89 613.89 230.00 608.62
  A 1.12 1.11 -29.1 0 0 228.68 608.25
  Q 223.33 610.47 219.02 612.01
  C 215.68 613.20 212.15 613.93 210.00 610.31
  Q 204.68 601.38 200.34 589.78
  C 198.12 583.82 196.01 580.17 202.48 576.96
  Q 208.41 574.02 213.92 571.57
  A 1.67 1.66 72.9 0 0 214.87 569.77
  Q 213.45 561.64 215.04 553.82
  A 1.56 1.56 0.0 0 0 214.23 552.13
  Q 208.06 548.92 201.94 544.70
  C 199.30 542.88 198.91 541.09 199.79 538.09
  Q 203.48 525.57 211.42 513.40
  C 213.23 510.62 214.59 507.96 218.50 509.50
  Q 225.77 512.36 231.80 515.19
  A 1.38 1.38 0.0 0 0 233.39 514.90
  Q 239.04 508.94 245.52 504.78
  A 1.78 1.77 64.7 0 0 246.25 502.73
  L 241.72 489.04
  A 3.87 3.85 57.3 0 1 242.55 485.20
  Q 243.85 483.80 247.18 482.41
  Q 260.21 476.96 274.05 473.54
  C 277.47 472.69 279.14 473.95 280.29 477.14
  Q 283.37 485.72 285.30 491.86
  A 0.81 0.81 0.0 0 0 286.02 492.44
  L 301.38 493.56
  A 1.16 1.15 -73.1 0 0 302.46 492.98
  Q 307.79 483.57 311.88 477.98
  Q 313.45 475.84 316.61 476.94
  Q 329.85 481.60 342.16 488.65
  C 345.97 490.83 346.92 492.76 344.88 496.89
  Q 344.45 497.75 337.82 510.45
  A 2.17 2.17 0.0 0 0 338.21 513.00
  Q 342.29 517.09 346.37 523.02
  C 347.72 524.99 347.32 526.73 350.77 526.16
  Q 355.90 525.32 363.26 524.26
  C 367.93 523.59 369.31 527.96 370.65 532.11
  Q 373.96 542.41 375.07 550.98
  Q 375.76 556.35 375.77 556.55
  C 375.85 561.83 371.42 562.42 366.41 563.76
  Q 363.01 564.67 359.10 565.44
  A 1.32 1.31 85.6 0 0 358.04 566.68
  Q 357.84 572.46 355.96 579.25
  A 1.65 1.64 -63.0 0 0 356.52 580.99
  Q 358.78 582.79 364.12 587.42
  C 368.49 591.21 370.66 592.96 367.95 598.43
  Q 362.64 609.20 355.04 618.78
  Q 352.88 621.50 350.86 621.89
  C 346.36 622.76 340.48 618.16 336.52 615.40
  A 2.06 2.04 43.1 0 0 334.07 615.47
  L 328.56 619.86
  A 2.59 2.58 -27.6 0 0 327.69 622.62
  C 329.01 626.97 331.77 634.92 330.62 638.40
  A 1.79 1.77 -11.0 0 1 330.06 639.22
  Q 326.61 642.05 324.40 642.94
  Q 314.49 646.91 302.60 650.59
  C 297.60 652.14 296.74 649.27 294.79 645.06
  Q 292.24 639.58 290.38 634.56
  Z
  M 365.58 553.12
  Q 364.56 544.37 361.77 535.52
  A 1.38 1.38 0.0 0 0 360.33 534.55
  Q 354.64 535.03 348.27 536.32
  Q 343.60 537.27 341.62 533.60
  Q 336.07 523.32 329.04 517.29
  C 326.89 515.44 326.06 513.65 326.98 511.21
  C 328.91 506.07 332.61 501.46 334.54 496.56
  A 1.62 1.62 0.0 0 0 333.73 494.51
  L 318.87 487.40
  A 1.58 1.58 0.0 0 0 316.88 487.93
  Q 313.71 492.55 310.35 499.31
  Q 307.93 504.20 302.84 503.47
  Q 298.20 502.80 295.99 502.21
  A 5.77 5.46 -36.7 0 0 294.39 502.02
  Q 291.09 502.13 284.18 502.07
  C 280.47 502.04 278.48 501.11 277.25 497.97
  Q 276.55 496.20 273.65 486.28
  Q 272.89 483.69 270.08 484.47
  Q 261.41 486.90 253.50 489.99
  A 1.56 1.56 0.0 0 0 252.57 491.86
  Q 254.02 497.04 256.26 502.35
  C 257.60 505.53 257.34 507.95 254.49 509.77
  Q 245.60 515.44 240.49 521.52
  C 237.68 524.86 235.65 526.62 231.55 524.96
  Q 220.18 520.37 219.96 520.28
  A 1.97 1.96 25.4 0 0 217.46 521.17
  Q 214.22 527.30 210.95 534.73
  Q 210.12 536.63 210.33 538.15
  A 1.26 1.25 11.2 0 0 210.96 539.08
  Q 217.06 542.53 221.33 545.17
  Q 225.72 547.89 224.73 551.99
  Q 223.99 555.01 224.11 556.04
  C 224.52 559.51 223.74 566.20 224.49 572.39
  Q 225.01 576.71 220.41 578.93
  Q 211.05 583.43 209.88 584.12
  A 1.83 1.83 0.0 0 0 209.13 586.42
  L 215.67 601.46
  A 1.78 1.78 0.0 0 0 217.89 602.43
  Q 220.08 601.65 228.96 598.22
  C 232.00 597.05 233.78 597.93 235.78 600.52
  Q 241.27 607.63 248.68 613.29
  C 250.91 614.99 251.85 616.78 251.03 619.36
  Q 248.95 625.93 247.13 632.02
  A 1.44 1.43 20.1 0 0 247.94 633.75
  Q 261.19 639.46 261.34 639.52
  Q 264.30 640.78 265.62 637.90
  Q 267.64 633.45 269.97 627.99
  Q 271.74 623.86 276.23 623.78
  Q 282.11 623.67 290.09 623.73
  C 293.97 623.76 296.24 624.56 297.78 627.99
  Q 299.83 632.56 301.47 636.78
  Q 302.04 638.25 303.34 639.73
  A 1.24 1.24 0.0 0 0 304.69 640.07
  L 319.69 634.62
  A 1.45 1.45 0.0 0 0 320.56 632.78
  Q 318.65 627.24 317.10 621.01
  Q 316.11 617.05 319.33 614.84
  Q 325.90 610.33 331.36 605.28
  Q 333.93 602.90 337.17 604.65
  Q 339.10 605.69 347.12 610.67
  A 2.16 2.15 32.2 0 0 350.06 610.01
  L 358.39 597.11
  A 1.50 1.50 0.0 0 0 358.15 595.19
  Q 351.74 589.22 349.33 587.38
  C 346.85 585.48 345.21 582.93 345.97 580.20
  Q 348.49 571.07 348.49 564.45
  C 348.49 561.15 349.40 558.30 352.63 557.36
  Q 359.60 555.33 365.06 553.88
  A 0.71 0.70 -11.0 0 0 365.58 553.12
  Z"
/>
<path fill="#141645" d="
  M 1290.73 713.63
  Q 1286.46 714.10 1286.36 710.23
  Q 1286.12 701.68 1283.32 694.46
  C 1277.64 679.82 1266.59 672.77 1251.27 670.74
  C 1248.35 670.36 1246.38 668.83 1247.29 665.79
  A 1.54 1.51 -8.6 0 1 1247.90 664.98
  Q 1250.05 663.62 1251.05 663.52
  C 1268.70 661.82 1281.44 652.10 1284.81 634.30
  Q 1285.64 629.92 1286.38 622.40
  A 3.70 3.70 0.0 0 1 1290.12 619.06
  L 1290.25 619.06
  A 3.51 3.51 0.0 0 1 1293.70 622.43
  Q 1293.87 627.02 1294.16 629.57
  Q 1296.79 653.09 1317.52 661.47
  C 1321.62 663.13 1326.17 663.65 1330.34 664.57
  C 1333.89 665.36 1333.98 669.42 1330.24 670.48
  C 1325.88 671.73 1320.73 672.22 1315.81 674.43
  C 1300.76 681.16 1295.21 693.95 1293.53 710.00
  Q 1293.38 711.44 1291.72 713.15
  A 1.63 1.61 -70.6 0 1 1290.73 713.63
  Z
  M 1280.66 676.34
  Q 1285.59 681.46 1289.55 689.28
  A 0.67 0.66 -46.6 0 0 1290.76 689.24
  C 1294.79 680.05 1302.19 672.93 1311.08 668.32
  A 0.72 0.72 0.0 0 0 1311.08 667.03
  Q 1303.69 663.16 1299.34 658.64
  Q 1294.41 653.52 1290.45 645.70
  A 0.67 0.66 -46.6 0 0 1289.24 645.74
  C 1285.21 654.93 1277.81 662.05 1268.92 666.66
  A 0.72 0.72 0.0 0 0 1268.92 667.95
  Q 1276.31 671.82 1280.66 676.34
  Z"
/>
<path fill="#141645" d="
  M 502.30 741.91
  A 0.54 0.53 -3.4 0 0 501.85 742.41
  Q 501.22 754.14 498.63 764.83
  A 2.54 2.53 -67.5 0 0 499.76 767.58
  Q 510.15 774.02 516.80 778.71
  Q 518.31 779.77 520.00 781.40
  A 3.36 3.35 33.2 0 1 520.78 785.11
  Q 512.89 804.22 499.43 820.80
  C 496.59 824.31 494.33 824.89 490.42 822.59
  Q 483.60 818.58 474.56 813.00
  A 2.17 2.17 0.0 0 0 471.96 813.24
  Q 464.33 820.16 456.62 824.48
  A 2.48 2.48 0.0 0 0 455.42 827.26
  Q 458.63 839.88 460.45 847.63
  Q 461.61 852.57 456.86 854.40
  Q 442.17 860.07 420.82 864.38
  C 416.67 865.22 414.04 864.04 412.55 860.26
  Q 408.90 850.93 405.80 840.83
  A 1.38 1.36 83.2 0 0 404.58 839.86
  L 389.48 838.75
  A 1.60 1.60 0.0 0 0 387.91 839.68
  Q 382.92 850.62 379.31 858.06
  Q 377.63 861.53 373.98 860.84
  Q 370.56 860.20 362.70 857.30
  Q 353.27 853.84 342.88 848.90
  Q 337.27 846.23 334.65 843.96
  Q 332.00 841.65 333.70 837.71
  Q 338.73 826.04 341.07 819.57
  A 2.32 2.31 -60.5 0 0 340.35 816.97
  Q 332.03 810.28 325.66 801.70
  A 2.36 2.36 0.0 0 0 322.97 800.88
  Q 311.29 805.07 304.26 807.52
  C 298.86 809.40 297.61 806.29 295.50 801.73
  Q 287.73 784.96 283.28 768.22
  Q 282.85 766.60 283.24 762.93
  A 1.63 1.62 69.8 0 1 283.66 762.01
  Q 285.36 760.12 286.81 759.54
  Q 291.65 757.59 306.12 751.93
  A 1.32 1.32 0.0 0 0 306.95 750.51
  Q 305.24 738.63 307.10 726.77
  A 1.66 1.66 0.0 0 0 306.36 725.13
  Q 298.25 719.98 289.99 714.96
  Q 286.22 712.65 287.29 708.11
  Q 292.01 688.14 303.43 671.28
  Q 305.84 667.72 310.21 669.73
  Q 328.65 678.23 328.69 678.25
  A 2.25 2.23 32.2 0 0 331.30 677.67
  Q 339.09 668.63 349.38 661.54
  A 1.48 1.47 64.3 0 0 349.95 659.89
  Q 346.47 648.60 344.24 640.48
  Q 343.39 637.41 345.99 635.74
  C 354.75 630.11 365.53 626.43 375.52 623.26
  C 379.43 622.01 387.35 619.40 390.75 621.61
  Q 391.74 622.26 392.49 624.48
  Q 395.18 632.47 399.15 643.23
  A 1.91 1.90 80.9 0 0 400.88 644.49
  Q 414.38 644.95 425.77 648.13
  A 1.26 1.26 0.0 0 0 427.23 647.51
  Q 430.06 642.14 437.46 629.20
  Q 438.78 626.89 441.23 625.63
  A 3.16 3.15 -48.7 0 1 443.78 625.46
  Q 462.90 632.45 479.62 643.67
  Q 483.56 646.32 481.52 651.03
  Q 477.31 660.74 471.04 672.31
  A 1.53 1.53 0.0 0 0 471.35 674.17
  Q 480.33 682.45 486.68 693.38
  A 1.84 1.83 -23.1 0 0 488.78 694.22
  Q 498.41 691.46 508.70 689.17
  Q 511.75 688.49 514.23 689.51
  A 1.56 1.55 86.2 0 1 514.96 690.15
  Q 516.84 693.33 518.00 696.25
  Q 524.24 711.90 525.84 727.70
  C 526.05 729.77 526.23 733.78 525.02 735.51
  Q 524.17 736.73 520.47 737.72
  Q 508.77 740.84 502.30 741.91
  Z
  M 515.84 728.78
  Q 516.10 727.51 515.95 726.02
  Q 514.48 712.27 509.48 700.62
  Q 508.54 698.44 506.50 698.94
  Q 497.78 701.07 487.33 704.27
  C 485.09 704.96 483.56 704.95 482.25 702.99
  C 475.81 693.35 470.06 685.10 461.72 677.28
  Q 458.74 674.47 461.01 670.82
  Q 465.86 663.06 470.87 652.08
  Q 472.02 649.55 469.63 648.16
  Q 458.17 641.50 446.09 636.18
  A 1.90 1.90 0.0 0 0 443.66 637.02
  L 433.44 656.12
  A 3.81 3.81 0.0 0 1 430.69 658.08
  Q 428.46 658.45 426.16 657.83
  Q 420.18 656.24 412.12 654.66
  C 406.77 653.60 403.83 654.07 397.49 654.17
  Q 392.81 654.25 391.44 650.25
  Q 387.33 638.20 385.56 632.75
  Q 384.78 630.36 382.72 630.91
  Q 368.35 634.74 355.78 641.07
  A 2.29 2.29 0.0 0 0 354.62 643.80
  Q 356.10 648.50 359.89 660.29
  Q 361.36 664.86 358.01 666.98
  Q 345.07 675.17 335.93 686.67
  C 333.49 689.74 330.96 689.64 327.55 687.90
  Q 325.12 686.65 312.41 680.83
  C 310.25 679.84 309.06 679.69 307.86 681.86
  Q 301.35 693.62 297.26 707.04
  A 1.73 1.72 -65.5 0 0 297.99 709.00
  Q 310.40 716.80 314.32 719.40
  C 317.18 721.30 317.52 724.65 316.77 727.73
  C 315.91 731.21 316.28 733.79 315.81 737.48
  A 17.72 17.51 -44.7 0 0 315.76 741.62
  C 316.21 745.74 316.11 747.80 316.69 751.69
  Q 317.47 756.90 312.18 759.16
  Q 302.68 763.23 295.30 766.12
  Q 292.44 767.24 293.41 770.27
  Q 298.07 784.80 302.37 794.88
  C 303.54 797.62 304.57 797.68 307.30 796.77
  Q 316.66 793.63 323.76 790.87
  C 326.51 789.80 328.80 789.67 330.48 792.09
  Q 339.12 804.55 350.63 813.30
  Q 352.76 814.93 352.08 816.88
  Q 349.12 825.31 344.28 836.89
  A 2.09 2.08 28.4 0 0 345.04 839.43
  Q 346.56 840.44 349.33 841.66
  Q 360.47 846.57 370.96 850.13
  A 1.74 1.73 22.9 0 0 373.07 849.28
  Q 376.60 842.33 380.59 833.37
  Q 381.46 831.40 382.85 829.62
  A 1.81 1.79 16.4 0 1 384.15 828.92
  Q 389.30 828.51 393.75 829.72
  A 7.27 7.21 -38.5 0 0 395.95 829.96
  Q 399.90 829.81 406.99 829.78
  Q 412.22 829.77 413.58 834.20
  Q 416.96 845.16 419.97 853.65
  A 1.66 1.66 0.0 0 0 421.95 854.70
  L 448.79 847.77
  A 2.15 2.14 -14.2 0 0 450.34 845.18
  Q 448.66 838.32 445.15 826.34
  C 443.94 822.20 445.58 820.42 449.09 818.14
  C 457.53 812.67 462.07 809.42 468.06 803.58
  Q 469.71 801.97 471.68 801.35
  A 2.91 2.89 51.5 0 1 474.06 801.63
  Q 478.17 804.10 490.79 811.92
  Q 493.27 813.46 494.65 811.72
  Q 501.82 802.73 509.25 787.90
  Q 510.46 785.50 507.91 783.89
  Q 503.59 781.16 491.49 773.32
  Q 487.75 770.89 487.77 767.59
  A 3.71 3.49 57.3 0 1 487.99 766.40
  Q 490.52 759.42 491.60 751.14
  C 492.07 747.58 491.78 744.82 491.82 740.70
  C 491.87 734.89 496.18 734.09 501.32 732.89
  Q 505.36 731.94 514.65 729.98
  A 1.54 1.54 0.0 0 0 515.84 728.78
  Z"
/>
</g>
<g>
<path fill="#ffe9cd" d="
  M 655.38 363.40
  C 644.97 347.45 633.35 331.76 620.02 318.34
  A 0.59 0.59 0.0 0 1 620.09 317.46
  Q 630.23 309.86 637.54 299.46
  Q 640.38 295.42 649.55 277.36
  Q 663.84 249.23 680.63 218.51
  A 7.38 7.36 -1.0 0 1 683.34 215.71
  Q 701.65 204.90 720.50 195.74
  Q 728.91 191.65 745.02 185.48
  A 3.65 3.63 -50.0 0 1 747.03 185.30
  Q 750.48 185.97 755.47 186.33
  Q 757.12 186.45 758.24 187.23
  A 0.35 0.35 0.0 0 1 758.16 187.85
  C 751.69 190.08 748.11 191.25 743.07 193.67
  Q 720.83 204.33 705.79 212.28
  Q 698.05 216.37 694.53 219.02
  Q 692.05 220.89 692.79 224.01
  C 693.61 227.46 699.33 225.79 701.40 224.63
  Q 718.10 215.27 743.60 202.83
  Q 755.24 197.15 763.87 195.08
  Q 769.29 193.79 778.28 192.32
  Q 786.94 190.90 792.85 191.15
  Q 797.91 191.36 800.72 196.03
  A 1.68 1.64 34.8 0 1 800.94 197.16
  Q 800.40 200.58 797.39 201.27
  Q 783.96 204.33 772.59 206.42
  Q 759.85 208.76 749.97 214.74
  Q 742.54 219.23 735.08 223.70
  C 728.59 227.58 720.85 229.98 712.86 233.08
  C 710.24 234.09 708.04 237.67 710.57 239.88
  Q 712.34 241.44 714.13 241.14
  C 725.03 239.29 735.46 235.25 746.12 230.50
  C 759.67 224.48 773.55 221.69 788.48 219.28
  Q 792.03 218.71 794.77 219.48
  C 796.13 219.87 798.04 222.03 798.18 223.63
  C 798.65 228.86 791.14 231.62 786.72 233.47
  Q 772.86 239.28 748.48 248.40
  C 744.99 249.71 738.22 252.46 734.36 254.84
  C 730.86 256.99 728.10 264.74 726.58 269.07
  Q 724.32 275.46 718.69 292.19
  Q 713.16 308.61 705.75 322.73
  C 700.99 331.82 693.48 340.98 684.51 345.01
  C 678.07 347.91 672.48 349.94 667.37 353.43
  Q 661.11 357.69 656.16 363.45
  A 0.49 0.49 0.0 0 1 655.38 363.40
  Z"
/>
<path fill="#ffe9cd" d="
  M 770.10 437.48
  A 0.57 0.57 0.0 0 1 769.88 438.50
  C 758.61 440.66 745.49 446.68 741.07 458.02
  Q 740.08 460.58 737.90 467.81
  A 0.71 0.71 0.0 0 1 736.52 467.76
  Q 735.80 464.50 731.71 452.62
  C 726.87 438.56 723.83 424.73 722.20 411.50
  Q 721.07 402.37 717.90 369.51
  Q 716.24 352.29 713.19 335.77
  C 712.59 332.52 713.01 330.16 714.44 326.94
  Q 723.98 305.27 728.03 293.05
  Q 732.58 279.31 737.60 266.83
  A 0.71 0.71 0.0 0 1 738.37 266.39
  Q 752.38 268.63 766.35 265.24
  A 0.46 0.46 0.0 0 1 766.92 265.69
  L 766.92 268.61
  A 2.67 2.67 0.0 0 0 768.55 271.07
  Q 770.69 271.97 773.02 271.73
  Q 786.43 270.36 799.14 264.62
  C 818.67 255.79 832.32 249.59 850.47 245.45
  C 866.12 241.88 882.49 242.31 898.18 246.20
  A 0.77 0.77 0.0 0 1 898.71 247.23
  C 894.42 257.92 895.29 269.22 899.15 279.91
  C 908.57 305.98 917.81 330.63 919.34 357.81
  C 919.71 364.43 921.73 368.02 928.32 368.99
  Q 934.36 369.88 935.56 364.07
  C 938.00 352.32 947.90 330.82 963.40 334.20
  C 973.65 336.43 978.48 349.70 979.79 358.96
  C 983.17 382.93 975.13 421.03 942.99 418.89
  Q 939.89 418.69 939.90 422.00
  C 939.94 439.52 939.06 458.16 940.18 474.17
  Q 940.67 481.35 943.28 498.07
  C 943.99 502.59 944.45 507.72 944.21 512.01
  Q 943.74 520.45 939.13 529.64
  C 931.94 543.99 922.44 556.04 910.95 568.10
  C 899.92 579.67 887.40 587.59 872.39 598.03
  C 861.99 605.27 851.38 614.30 840.90 621.79
  A 1.29 1.29 0.0 0 1 839.03 621.38
  Q 830.17 605.88 820.71 592.94
  Q 812.60 581.85 810.90 577.74
  Q 807.37 569.23 806.36 559.83
  A 0.78 0.78 0.0 0 1 807.22 558.97
  Q 811.93 559.53 815.59 559.79
  Q 818.78 560.00 823.90 559.38
  Q 843.27 557.04 860.61 547.05
  Q 896.81 526.19 919.62 491.07
  Q 925.70 481.71 927.84 469.79
  C 930.63 454.23 930.68 437.07 929.77 422.75
  Q 929.02 410.85 929.07 408.24
  C 929.18 401.68 928.39 395.74 928.13 389.32
  C 928.00 386.29 926.91 384.00 924.60 382.55
  A 1.99 1.97 36.0 0 0 922.04 382.94
  Q 919.69 385.70 918.56 389.05
  Q 912.94 405.57 912.92 405.65
  Q 904.69 428.47 891.77 446.75
  Q 888.12 451.91 882.37 457.15
  C 876.39 462.60 869.35 462.90 864.71 455.72
  Q 858.48 446.07 848.55 440.92
  Q 836.40 434.62 822.49 432.26
  Q 822.16 432.20 811.66 430.91
  A 0.70 0.69 -86.2 0 1 811.06 430.22
  L 811.06 427.17
  A 1.54 1.48 27.5 0 0 810.75 426.26
  Q 809.43 424.54 806.85 424.59
  C 804.32 424.64 802.48 426.78 800.51 427.73
  A 13.78 13.69 -65.0 0 1 797.98 428.66
  C 792.02 430.21 770.69 434.82 771.82 422.51
  C 772.45 415.57 775.97 408.13 777.63 403.42
  Q 783.05 388.11 785.89 373.21
  C 786.19 371.62 786.16 370.59 786.22 368.60
  C 786.33 364.64 781.82 361.33 778.43 364.38
  Q 777.28 365.40 776.91 369.00
  Q 776.11 376.69 775.54 379.03
  Q 772.10 393.34 765.82 408.09
  C 763.02 414.65 760.55 423.09 763.18 430.30
  C 764.62 434.22 767.24 435.43 770.10 437.48
  Z
  M 760.95 301.48
  A 2.76 2.35 46.0 0 0 761.19 305.33
  C 762.80 306.82 765.35 307.33 768.05 307.94
  C 779.06 310.42 787.87 306.47 796.03 299.04
  Q 797.36 297.84 797.72 296.14
  A 1.56 1.55 -72.4 0 0 796.81 294.37
  C 795.58 293.86 793.96 293.97 792.76 294.60
  Q 787.87 297.17 783.02 299.45
  C 776.30 302.62 772.25 301.78 765.88 301.11
  C 764.37 300.95 762.06 300.56 760.95 301.48
  Z
  M 882.32 298.97
  Q 881.58 300.66 880.91 303.39
  Q 878.76 312.11 877.75 317.70
  Q 875.72 328.85 883.99 335.25
  Q 888.57 338.80 892.97 336.09
  Q 900.37 331.54 900.07 322.29
  Q 899.95 318.82 896.84 317.94
  A 1.90 1.90 0.0 0 0 894.54 319.12
  L 891.17 328.51
  A 1.73 1.73 0.0 0 1 888.45 329.26
  C 883.95 325.58 884.75 321.05 886.33 315.09
  C 887.52 310.59 888.16 301.78 884.18 298.52
  A 1.20 1.20 0.0 0 0 882.32 298.97
  Z
  M 867.83 352.90
  C 869.69 348.12 864.51 344.74 861.03 342.95
  Q 856.22 340.49 847.51 337.49
  Q 845.66 336.85 822.38 329.93
  Q 818.56 328.79 806.98 323.38
  A 8.12 7.72 -11.5 0 1 805.32 322.34
  C 803.02 320.46 799.39 316.27 796.65 318.65
  C 794.12 320.84 795.22 323.91 796.27 327.45
  C 799.13 337.11 806.09 340.50 815.24 342.54
  Q 822.35 344.12 838.45 346.58
  Q 850.19 348.37 863.50 353.96
  Q 865.50 354.81 867.19 353.69
  A 1.72 1.64 -7.4 0 0 867.83 352.90
  Z
  M 780.22 322.57
  Q 779.02 323.75 778.35 325.60
  Q 775.84 332.53 777.40 338.55
  C 778.28 341.94 781.56 345.71 785.26 343.36
  A 2.63 2.49 -87.7 0 0 786.00 342.64
  C 789.67 337.27 784.90 327.42 782.05 322.80
  A 1.18 1.18 0.0 0 0 780.22 322.57
  Z
  M 761.02 325.02
  Q 760.07 326.41 759.92 329.18
  C 759.67 333.93 754.36 336.41 750.43 337.92
  Q 744.50 340.18 734.43 342.66
  C 728.74 344.07 720.96 346.80 719.87 353.32
  Q 719.42 355.98 720.66 357.95
  C 722.60 361.01 725.81 360.32 728.93 358.83
  Q 732.78 357.00 734.74 356.16
  C 740.33 353.78 745.08 352.95 752.09 351.34
  C 759.11 349.73 765.64 346.27 768.38 339.18
  C 769.73 335.70 770.11 326.98 766.17 324.26
  Q 764.04 322.80 761.82 324.24
  A 2.83 2.80 0.4 0 0 761.02 325.02
  Z
  M 954.37 364.95
  C 956.63 359.99 960.85 356.23 964.05 352.31
  C 965.57 350.45 965.47 346.88 962.29 346.92
  C 955.66 347.00 949.36 356.02 946.96 361.73
  Q 945.17 365.99 946.61 369.75
  C 948.56 374.87 956.79 378.59 955.54 384.54
  C 954.87 387.68 952.25 391.75 948.91 393.98
  C 946.33 395.70 945.01 397.28 946.30 400.68
  A 1.49 1.48 -86.7 0 0 946.99 401.46
  Q 949.98 403.02 953.27 400.76
  C 959.00 396.79 964.24 389.60 963.73 382.55
  C 963.23 375.69 959.37 371.77 954.83 367.40
  A 2.15 2.15 0.0 0 1 954.37 364.95
  Z
  M 859.60 373.13
  Q 861.19 370.20 858.33 367.56
  C 850.81 360.60 839.80 357.44 829.69 356.95
  C 825.94 356.76 814.00 358.12 811.60 361.13
  C 808.54 364.96 812.23 368.48 816.25 367.53
  Q 822.30 366.10 829.76 365.78
  C 840.32 365.33 848.00 368.81 856.74 373.93
  A 2.07 2.07 0.0 0 0 859.60 373.13
  Z
  M 769.19 372.19
  C 771.88 367.91 765.16 364.79 761.99 364.25
  Q 751.75 362.53 743.02 366.21
  C 737.93 368.35 726.35 374.81 726.51 380.59
  C 726.62 384.51 730.20 384.84 732.69 382.86
  C 742.44 375.11 751.85 369.79 764.73 372.90
  Q 766.38 373.30 768.38 372.78
  A 1.40 1.39 8.7 0 0 769.19 372.19
  Z
  M 874.2346 382.1620
  A 5.79 3.27 100.0 0 0 878.4603 377.0278
  A 5.79 3.27 100.0 0 0 876.2454 370.7580
  A 5.79 3.27 100.0 0 0 872.0197 375.8922
  A 5.79 3.27 100.0 0 0 874.2346 382.1620
  Z"
/>
<path fill="#e46826" d="
  M 623.50 416.14
  A 0.72 0.72 0.0 0 1 622.39 415.92
  C 614.24 400.00 602.95 384.80 592.04 371.98
  Q 580.68 358.64 568.14 345.19
  A 0.60 0.60 0.0 0 1 568.26 344.28
  L 606.31 320.06
  A 1.70 1.69 50.1 0 1 608.39 320.25
  Q 621.34 332.44 632.20 347.28
  Q 645.49 365.44 648.81 370.93
  Q 652.43 376.93 654.90 383.10
  A 3.53 3.52 -34.5 0 1 654.21 386.81
  Q 639.56 402.63 623.50 416.14
  Z"
/>
<path fill="#e46826" d="
  M 644.51 649.37
  Q 644.12 647.47 644.08 644.20
  C 643.99 636.57 644.33 626.33 643.91 615.94
  C 643.43 604.19 643.58 590.21 641.40 578.90
  Q 641.07 577.18 639.25 574.53
  C 637.37 571.80 633.87 571.30 632.68 574.92
  Q 631.84 577.47 632.02 581.50
  Q 632.99 603.25 632.88 612.43
  Q 632.75 622.16 633.10 632.05
  C 633.63 646.76 633.60 656.36 634.37 670.57
  Q 634.89 680.23 634.83 689.49
  C 634.78 696.65 635.92 704.66 636.65 711.43
  A 0.41 0.41 0.0 0 1 635.95 711.77
  Q 632.91 708.67 629.24 706.02
  Q 606.53 689.59 580.72 674.27
  Q 551.71 657.06 522.49 640.24
  C 499.69 627.12 477.55 613.73 456.55 597.46
  Q 436.53 581.96 418.45 562.13
  C 408.55 551.27 400.32 539.26 394.38 526.14
  C 390.10 516.69 390.36 504.92 393.28 495.20
  C 394.83 490.04 399.02 482.07 402.02 477.54
  Q 414.65 458.49 432.76 442.23
  Q 462.79 415.26 497.42 391.38
  C 514.04 379.91 540.55 362.35 558.35 350.51
  A 1.25 1.25 0.0 0 1 560.00 350.74
  C 566.61 358.58 574.70 367.07 580.91 374.89
  C 591.34 388.03 599.01 397.41 606.67 409.32
  C 609.76 414.12 614.05 421.15 614.50 426.99
  C 614.63 428.75 612.64 431.60 611.38 433.09
  Q 587.27 461.63 561.97 493.21
  Q 559.20 496.67 551.86 502.36
  Q 546.88 506.23 536.83 512.05
  Q 522.42 520.39 507.78 524.00
  Q 495.19 527.10 488.74 527.65
  Q 484.41 528.01 477.35 528.01
  A 11.36 11.30 -39.5 0 1 475.23 527.81
  C 472.50 527.30 465.52 526.05 464.52 529.79
  C 462.69 536.66 474.87 538.34 479.02 538.57
  Q 498.28 539.64 515.62 533.82
  C 531.02 528.65 544.68 521.40 557.19 510.76
  A 2.31 2.30 29.1 0 1 559.06 510.23
  C 576.00 512.96 594.02 517.16 611.38 519.87
  Q 639.10 524.19 652.70 526.07
  Q 659.04 526.95 668.77 526.89
  Q 679.73 526.84 692.78 527.62
  Q 704.42 528.33 716.58 530.41
  Q 735.38 533.63 749.10 537.22
  C 751.06 537.73 754.16 538.51 755.84 540.21
  A 1.64 1.63 18.3 0 1 756.30 541.12
  Q 756.86 544.95 756.64 547.54
  Q 754.11 576.85 752.45 587.25
  Q 750.69 598.24 748.72 611.26
  Q 748.17 614.91 749.88 618.15
  Q 754.24 626.44 762.44 620.68
  Q 776.80 610.60 787.39 604.12
  C 789.49 602.84 791.02 602.59 793.32 603.72
  Q 799.07 606.55 801.46 608.28
  Q 818.56 620.66 830.23 628.61
  A 0.33 0.33 0.0 0 1 830.24 629.15
  Q 829.00 630.10 827.74 630.85
  C 824.89 632.53 822.72 637.56 822.35 640.10
  Q 817.50 674.02 810.30 713.71
  C 809.28 719.32 810.39 724.71 817.13 725.11
  Q 830.52 725.89 840.93 727.19
  Q 846.45 727.88 847.33 722.54
  Q 849.73 708.15 852.04 694.05
  Q 854.80 677.18 857.51 660.29
  Q 859.96 645.04 860.14 643.98
  Q 860.77 640.27 857.75 638.30
  A 2.54 2.51 41.6 0 0 854.77 638.46
  Q 853.07 639.85 852.63 642.04
  Q 848.23 663.98 841.55 704.84
  C 840.90 708.81 840.67 713.24 839.54 717.50
  A 1.06 1.06 0.0 0 1 838.43 718.28
  L 820.71 716.99
  A 0.56 0.56 0.0 0 1 820.20 716.35
  C 822.00 703.92 824.80 685.67 827.83 669.19
  C 829.76 658.74 830.73 649.03 833.18 639.57
  A 2.42 2.38 73.1 0 1 833.68 638.61
  Q 835.08 637.00 837.36 636.28
  Q 849.66 632.38 864.53 626.92
  C 874.19 623.37 884.52 620.49 892.72 618.69
  C 896.76 617.81 900.91 620.13 904.29 622.47
  Q 907.48 624.69 929.37 638.50
  Q 936.91 643.25 941.07 635.44
  C 954.28 610.63 965.05 589.57 974.51 564.78
  Q 977.36 557.29 979.81 546.27
  Q 981.32 539.47 981.40 531.69
  A 0.57 0.57 0.0 0 1 982.28 531.21
  Q 984.23 532.43 986.00 533.16
  C 1008.17 542.29 1038.62 552.96 1057.17 560.64
  Q 1078.12 569.31 1091.44 575.85
  Q 1105.81 582.91 1120.60 592.43
  C 1136.73 602.81 1151.90 616.55 1162.07 633.16
  Q 1166.21 639.92 1172.39 652.45
  Q 1177.80 663.41 1181.17 672.37
  Q 1188.70 692.42 1191.97 704.01
  Q 1199.94 732.31 1203.32 745.71
  Q 1206.96 760.12 1207.86 763.80
  Q 1217.29 802.20 1224.03 833.17
  Q 1230.65 863.58 1232.42 873.28
  Q 1237.20 899.35 1238.87 909.05
  A 1.67 1.66 69.3 0 1 1238.11 910.75
  Q 1219.65 922.20 1197.35 928.81
  Q 1153.48 941.82 1107.27 940.54
  A 1.29 1.29 0.0 0 1 1106.04 939.49
  Q 1105.64 937.28 1105.49 936.76
  Q 1099.08 914.18 1085.45 867.15
  Q 1082.42 856.68 1078.75 841.88
  C 1072.15 815.28 1065.01 788.11 1064.81 760.44
  Q 1064.68 742.68 1065.45 733.82
  Q 1065.80 729.81 1068.58 712.77
  Q 1070.34 701.97 1074.38 687.63
  Q 1080.14 667.19 1090.81 648.30
  Q 1096.13 638.87 1102.48 631.01
  C 1105.92 626.76 1100.20 622.51 1096.35 625.63
  Q 1093.18 628.20 1089.00 633.76
  Q 1084.09 640.30 1079.35 649.38
  Q 1070.52 666.31 1065.46 683.73
  Q 1061.23 698.33 1059.52 707.00
  Q 1056.30 723.45 1054.71 742.76
  Q 1053.53 757.11 1054.70 770.25
  Q 1055.25 776.39 1057.32 791.24
  Q 1058.43 799.23 1061.35 812.01
  Q 1067.09 837.12 1071.74 854.78
  A 9.23 9.22 -48.0 0 1 1071.93 858.46
  C 1068.58 880.47 1065.77 902.05 1061.00 938.51
  Q 1060.65 941.19 1060.44 945.22
  C 1060.30 947.84 1058.79 947.95 1056.30 948.60
  C 988.99 966.26 920.49 974.61 850.75 972.02
  Q 842.89 971.72 819.27 970.06
  Q 785.76 967.69 745.75 959.47
  Q 699.83 950.04 657.04 931.90
  A 1.89 1.86 -80.4 0 1 655.90 930.28
  Q 653.07 877.38 650.91 828.52
  C 650.56 820.66 649.40 808.05 649.12 798.52
  Q 648.71 784.73 648.25 766.58
  C 647.77 746.99 648.25 724.23 648.47 705.26
  Q 648.58 695.55 651.23 679.48
  Q 659.21 630.96 665.43 599.84
  Q 667.12 591.39 667.99 587.93
  Q 668.80 584.70 668.49 583.04
  C 668.14 581.19 666.30 576.18 663.48 577.05
  C 659.97 578.15 657.59 587.96 656.80 591.04
  C 651.91 609.95 648.54 629.44 644.75 649.37
  A 0.12 0.12 0.0 0 1 644.51 649.37
  Z"
/>
<path fill="#ffe9cd" d="
  M 771.76 499.29
  C 763.27 499.73 758.31 493.69 756.86 485.56
  C 754.41 471.84 758.91 458.90 774.00 455.69
  Q 788.15 452.68 796.84 452.15
  Q 810.56 451.32 826.51 454.00
  Q 846.97 457.44 851.72 477.26
  Q 852.64 481.09 851.43 485.88
  C 849.26 494.50 842.23 498.99 833.21 497.99
  C 823.44 496.91 815.53 490.63 805.49 489.81
  C 796.11 489.03 787.27 490.97 779.58 495.82
  C 777.09 497.39 774.53 499.14 771.76 499.29
  Z
  M 770.18 481.60
  Q 772.85 482.81 776.27 481.96
  C 781.83 480.57 788.64 477.20 794.63 476.39
  Q 809.84 474.30 822.18 480.58
  Q 823.29 481.15 829.20 484.07
  C 830.89 484.91 833.48 485.38 834.47 483.39
  C 836.24 479.86 832.27 475.98 829.43 474.08
  C 822.39 469.37 813.03 466.02 804.45 466.06
  C 800.16 466.08 796.12 465.76 792.38 466.38
  C 786.41 467.38 769.45 472.50 769.57 480.67
  A 1.04 1.03 -78.4 0 0 770.18 481.60
  Z"
/>
<path fill="#4d6a7f" d="
  M 365.58 553.12
  A 0.71 0.70 -11.0 0 1 365.06 553.88
  Q 359.60 555.33 352.63 557.36
  C 349.40 558.30 348.49 561.15 348.49 564.45
  Q 348.49 571.07 345.97 580.20
  C 345.21 582.93 346.85 585.48 349.33 587.38
  Q 351.74 589.22 358.15 595.19
  A 1.50 1.50 0.0 0 1 358.39 597.11
  L 350.06 610.01
  A 2.16 2.15 32.2 0 1 347.12 610.67
  Q 339.10 605.69 337.17 604.65
  Q 333.93 602.90 331.36 605.28
  Q 325.90 610.33 319.33 614.84
  Q 316.11 617.05 317.10 621.01
  Q 318.65 627.24 320.56 632.78
  A 1.45 1.45 0.0 0 1 319.69 634.62
  L 304.69 640.07
  A 1.24 1.24 0.0 0 1 303.34 639.73
  Q 302.04 638.25 301.47 636.78
  Q 299.83 632.56 297.78 627.99
  C 296.24 624.56 293.97 623.76 290.09 623.73
  Q 282.11 623.67 276.23 623.78
  Q 271.74 623.86 269.97 627.99
  Q 267.64 633.45 265.62 637.90
  Q 264.30 640.78 261.34 639.52
  Q 261.19 639.46 247.94 633.75
  A 1.44 1.43 20.1 0 1 247.13 632.02
  Q 248.95 625.93 251.03 619.36
  C 251.85 616.78 250.91 614.99 248.68 613.29
  Q 241.27 607.63 235.78 600.52
  C 233.78 597.93 232.00 597.05 228.96 598.22
  Q 220.08 601.65 217.89 602.43
  A 1.78 1.78 0.0 0 1 215.67 601.46
  L 209.13 586.42
  A 1.83 1.83 0.0 0 1 209.88 584.12
  Q 211.05 583.43 220.41 578.93
  Q 225.01 576.71 224.49 572.39
  C 223.74 566.20 224.52 559.51 224.11 556.04
  Q 223.99 555.01 224.73 551.99
  Q 225.72 547.89 221.33 545.17
  Q 217.06 542.53 210.96 539.08
  A 1.26 1.25 11.2 0 1 210.33 538.15
  Q 210.12 536.63 210.95 534.73
  Q 214.22 527.30 217.46 521.17
  A 1.97 1.96 25.4 0 1 219.96 520.28
  Q 220.18 520.37 231.55 524.96
  C 235.65 526.62 237.68 524.86 240.49 521.52
  Q 245.60 515.44 254.49 509.77
  C 257.34 507.95 257.60 505.53 256.26 502.35
  Q 254.02 497.04 252.57 491.86
  A 1.56 1.56 0.0 0 1 253.50 489.99
  Q 261.41 486.90 270.08 484.47
  Q 272.89 483.69 273.65 486.28
  Q 276.55 496.20 277.25 497.97
  C 278.48 501.11 280.47 502.04 284.18 502.07
  Q 291.09 502.13 294.39 502.02
  A 5.77 5.46 -36.7 0 1 295.99 502.21
  Q 298.20 502.80 302.84 503.47
  Q 307.93 504.20 310.35 499.31
  Q 313.71 492.55 316.88 487.93
  A 1.58 1.58 0.0 0 1 318.87 487.40
  L 333.73 494.51
  A 1.62 1.62 0.0 0 1 334.54 496.56
  C 332.61 501.46 328.91 506.07 326.98 511.21
  C 326.06 513.65 326.89 515.44 329.04 517.29
  Q 336.07 523.32 341.62 533.60
  Q 343.60 537.27 348.27 536.32
  Q 354.64 535.03 360.33 534.55
  A 1.38 1.38 0.0 0 1 361.77 535.52
  Q 364.56 544.37 365.58 553.12
  Z
  M 325.22 563.72
  A 38.81 38.81 0.0 0 0 286.41 524.91
  A 38.81 38.81 0.0 0 0 247.60 563.72
  A 38.81 38.81 0.0 0 0 286.41 602.53
  A 38.81 38.81 0.0 0 0 325.22 563.72
  Z"
/>
<path fill="#e46826" d="
  M 864.19 616.44
  A 0.42 0.42 0.0 0 1 863.99 615.68
  Q 873.21 609.39 886.23 600.28
  C 891.53 596.58 895.83 592.92 901.10 588.84
  Q 923.09 571.82 940.18 546.17
  C 947.98 534.47 953.98 522.17 954.02 508.50
  Q 954.04 499.99 952.34 491.76
  Q 952.29 491.50 952.41 491.11
  A 0.43 0.42 -59.1 0 1 953.11 490.93
  Q 965.42 502.99 970.31 521.30
  C 972.89 530.94 970.87 542.61 968.18 552.21
  Q 965.17 562.97 961.27 572.29
  Q 949.22 601.08 933.61 627.88
  A 0.90 0.90 0.0 0 1 932.35 628.18
  Q 923.35 622.46 912.60 615.41
  Q 906.84 611.62 901.98 609.52
  C 897.09 607.41 891.70 608.16 886.03 609.57
  Q 877.75 611.61 864.82 616.36
  Q 864.52 616.47 864.19 616.44
  Z"
/>
<path fill="#e46826" d="
  M 821.21 610.07
  Q 820.98 610.07 820.46 609.63
  Q 806.68 597.87 794.64 592.89
  Q 789.68 590.84 784.52 594.05
  Q 774.08 600.55 760.10 610.15
  A 0.67 0.67 0.0 0 1 759.07 609.77
  Q 758.91 609.13 759.01 608.74
  C 760.30 603.77 760.69 598.09 761.48 593.27
  C 763.96 578.04 766.16 562.01 766.43 547.69
  Q 766.44 547.13 766.95 546.57
  A 1.24 1.22 46.1 0 1 768.79 546.62
  Q 775.61 554.64 786.44 557.51
  C 789.51 558.33 791.74 558.19 795.00 558.37
  Q 796.96 558.49 796.88 560.41
  Q 796.86 560.85 797.13 562.61
  Q 798.48 571.45 800.77 577.98
  C 802.43 582.74 804.55 587.29 808.49 592.20
  Q 813.48 598.42 821.49 609.51
  A 0.36 0.35 -18.7 0 1 821.21 610.07
  Z"
/>
<path fill="#4d6a7f" d="
  M 515.84 728.78
  A 1.54 1.54 0.0 0 1 514.65 729.98
  Q 505.36 731.94 501.32 732.89
  C 496.18 734.09 491.87 734.89 491.82 740.70
  C 491.78 744.82 492.07 747.58 491.60 751.14
  Q 490.52 759.42 487.99 766.40
  A 3.71 3.49 57.3 0 0 487.77 767.59
  Q 487.75 770.89 491.49 773.32
  Q 503.59 781.16 507.91 783.89
  Q 510.46 785.50 509.25 787.90
  Q 501.82 802.73 494.65 811.72
  Q 493.27 813.46 490.79 811.92
  Q 478.17 804.10 474.06 801.63
  A 2.91 2.89 51.5 0 0 471.68 801.35
  Q 469.71 801.97 468.06 803.58
  C 462.07 809.42 457.53 812.67 449.09 818.14
  C 445.58 820.42 443.94 822.20 445.15 826.34
  Q 448.66 838.32 450.34 845.18
  A 2.15 2.14 -14.2 0 1 448.79 847.77
  L 421.95 854.70
  A 1.66 1.66 0.0 0 1 419.97 853.65
  Q 416.96 845.16 413.58 834.20
  Q 412.22 829.77 406.99 829.78
  Q 399.90 829.81 395.95 829.96
  A 7.27 7.21 -38.5 0 1 393.75 829.72
  Q 389.30 828.51 384.15 828.92
  A 1.81 1.79 16.4 0 0 382.85 829.62
  Q 381.46 831.40 380.59 833.37
  Q 376.60 842.33 373.07 849.28
  A 1.74 1.73 22.9 0 1 370.96 850.13
  Q 360.47 846.57 349.33 841.66
  Q 346.56 840.44 345.04 839.43
  A 2.09 2.08 28.4 0 1 344.28 836.89
  Q 349.12 825.31 352.08 816.88
  Q 352.76 814.93 350.63 813.30
  Q 339.12 804.55 330.48 792.09
  C 328.80 789.67 326.51 789.80 323.76 790.87
  Q 316.66 793.63 307.30 796.77
  C 304.57 797.68 303.54 797.62 302.37 794.88
  Q 298.07 784.80 293.41 770.27
  Q 292.44 767.24 295.30 766.12
  Q 302.68 763.23 312.18 759.16
  Q 317.47 756.90 316.69 751.69
  C 316.11 747.80 316.21 745.74 315.76 741.62
  A 17.72 17.51 -44.7 0 1 315.81 737.48
  C 316.28 733.79 315.91 731.21 316.77 727.73
  C 317.52 724.65 317.18 721.30 314.32 719.40
  Q 310.40 716.80 297.99 709.00
  A 1.73 1.72 -65.5 0 1 297.26 707.04
  Q 301.35 693.62 307.86 681.86
  C 309.06 679.69 310.25 679.84 312.41 680.83
  Q 325.12 686.65 327.55 687.90
  C 330.96 689.64 333.49 689.74 335.93 686.67
  Q 345.07 675.17 358.01 666.98
  Q 361.36 664.86 359.89 660.29
  Q 356.10 648.50 354.62 643.80
  A 2.29 2.29 0.0 0 1 355.78 641.07
  Q 368.35 634.74 382.72 630.91
  Q 384.78 630.36 385.56 632.75
  Q 387.33 638.20 391.44 650.25
  Q 392.81 654.25 397.49 654.17
  C 403.83 654.07 406.77 653.60 412.12 654.66
  Q 420.18 656.24 426.16 657.83
  Q 428.46 658.45 430.69 658.08
  A 3.81 3.81 0.0 0 0 433.44 656.12
  L 443.66 637.02
  A 1.90 1.90 0.0 0 1 446.09 636.18
  Q 458.17 641.50 469.63 648.16
  Q 472.02 649.55 470.87 652.08
  Q 465.86 663.06 461.01 670.82
  Q 458.74 674.47 461.72 677.28
  C 470.06 685.10 475.81 693.35 482.25 702.99
  C 483.56 704.95 485.09 704.96 487.33 704.27
  Q 497.78 701.07 506.50 698.94
  Q 508.54 698.44 509.48 700.62
  Q 514.48 712.27 515.95 726.02
  Q 516.10 727.51 515.84 728.78
  Z
  M 425.6512 791.2819
  A 53.44 53.24 65.9 0 0 452.4293 720.7605
  A 53.44 53.24 65.9 0 0 382.0088 693.7181
  A 53.44 53.24 65.9 0 0 355.2307 764.2395
  A 53.44 53.24 65.9 0 0 425.6512 791.2819
  Z"
/>
<path fill="#e46826" d="
  M 1280.66 676.34
  Q 1276.31 671.82 1268.92 667.95
  A 0.72 0.72 0.0 0 1 1268.92 666.66
  C 1277.81 662.05 1285.21 654.93 1289.24 645.74
  A 0.67 0.66 -46.6 0 1 1290.45 645.70
  Q 1294.41 653.52 1299.34 658.64
  Q 1303.69 663.16 1311.08 667.03
  A 0.72 0.72 0.0 0 1 1311.08 668.32
  C 1302.19 672.93 1294.79 680.05 1290.76 689.24
  A 0.67 0.66 -46.6 0 1 1289.55 689.28
  Q 1285.59 681.46 1280.66 676.34
  Z"
/>
</g>
<g>
<path fill="#141645" d="
  M 760.95 301.48
  C 762.06 300.56 764.37 300.95 765.88 301.11
  C 772.25 301.78 776.30 302.62 783.02 299.45
  Q 787.87 297.17 792.76 294.60
  C 793.96 293.97 795.58 293.86 796.81 294.37
  A 1.56 1.55 -72.4 0 1 797.72 296.14
  Q 797.36 297.84 796.03 299.04
  C 787.87 306.47 779.06 310.42 768.05 307.94
  C 765.35 307.33 762.80 306.82 761.19 305.33
  A 2.76 2.35 46.0 0 1 760.95 301.48
  Z"
/>
<path fill="#141645" d="
  M 882.32 298.97
  A 1.20 1.20 0.0 0 1 884.18 298.52
  C 888.16 301.78 887.52 310.59 886.33 315.09
  C 884.75 321.05 883.95 325.58 888.45 329.26
  A 1.73 1.73 0.0 0 0 891.17 328.51
  L 894.54 319.12
  A 1.90 1.90 0.0 0 1 896.84 317.94
  Q 899.95 318.82 900.07 322.29
  Q 900.37 331.54 892.97 336.09
  Q 888.57 338.80 883.99 335.25
  Q 875.72 328.85 877.75 317.70
  Q 878.76 312.11 880.91 303.39
  Q 881.58 300.66 882.32 298.97
  Z"
/>
<path fill="#141645" d="
  M 867.19 353.69
  Q 865.50 354.81 863.50 353.96
  Q 850.19 348.37 838.45 346.58
  Q 822.35 344.12 815.24 342.54
  C 806.09 340.50 799.13 337.11 796.27 327.45
  C 795.22 323.91 794.12 320.84 796.65 318.65
  C 799.39 316.27 803.02 320.46 805.32 322.34
  A 8.12 7.72 -11.5 0 0 806.98 323.38
  Q 818.56 328.79 822.38 329.93
  Q 845.66 336.85 847.51 337.49
  Q 856.22 340.49 861.03 342.95
  C 864.51 344.74 869.69 348.12 867.83 352.90
  A 1.72 1.64 -7.4 0 1 867.19 353.69
  Z"
/>
<path fill="#141645" d="
  M 780.22 322.57
  A 1.18 1.18 0.0 0 1 782.05 322.80
  C 784.90 327.42 789.67 337.27 786.00 342.64
  A 2.63 2.49 -87.7 0 1 785.26 343.36
  C 781.56 345.71 778.28 341.94 777.40 338.55
  Q 775.84 332.53 778.35 325.60
  Q 779.02 323.75 780.22 322.57
  Z"
/>
<path fill="#141645" d="
  M 761.82 324.24
  Q 764.04 322.80 766.17 324.26
  C 770.11 326.98 769.73 335.70 768.38 339.18
  C 765.64 346.27 759.11 349.73 752.09 351.34
  C 745.08 352.95 740.33 353.78 734.74 356.16
  Q 732.78 357.00 728.93 358.83
  C 725.81 360.32 722.60 361.01 720.66 357.95
  Q 719.42 355.98 719.87 353.32
  C 720.96 346.80 728.74 344.07 734.43 342.66
  Q 744.50 340.18 750.43 337.92
  C 754.36 336.41 759.67 333.93 759.92 329.18
  Q 760.07 326.41 761.02 325.02
  A 2.83 2.80 0.4 0 1 761.82 324.24
  Z"
/>
<path fill="#141645" d="
  M 954.37 364.95
  A 2.15 2.15 0.0 0 0 954.83 367.40
  C 959.37 371.77 963.23 375.69 963.73 382.55
  C 964.24 389.60 959.00 396.79 953.27 400.76
  Q 949.98 403.02 946.99 401.46
  A 1.49 1.48 -86.7 0 1 946.30 400.68
  C 945.01 397.28 946.33 395.70 948.91 393.98
  C 952.25 391.75 954.87 387.68 955.54 384.54
  C 956.79 378.59 948.56 374.87 946.61 369.75
  Q 945.17 365.99 946.96 361.73
  C 949.36 356.02 955.66 347.00 962.29 346.92
  C 965.47 346.88 965.57 350.45 964.05 352.31
  C 960.85 356.23 956.63 359.99 954.37 364.95
  Z"
/>
<path fill="#141645" d="
  M 859.60 373.13
  A 2.07 2.07 0.0 0 1 856.74 373.93
  C 848.00 368.81 840.32 365.33 829.76 365.78
  Q 822.30 366.10 816.25 367.53
  C 812.23 368.48 808.54 364.96 811.60 361.13
  C 814.00 358.12 825.94 356.76 829.69 356.95
  C 839.80 357.44 850.81 360.60 858.33 367.56
  Q 861.19 370.20 859.60 373.13
  Z"
/>
<path fill="#141645" d="
  M 761.99 364.25
  C 765.16 364.79 771.88 367.91 769.19 372.19
  A 1.40 1.39 8.7 0 1 768.38 372.78
  Q 766.38 373.30 764.73 372.90
  C 751.85 369.79 742.44 375.11 732.69 382.86
  C 730.20 384.84 726.62 384.51 726.51 380.59
  C 726.35 374.81 737.93 368.35 743.02 366.21
  Q 751.75 362.53 761.99 364.25
  Z"
/>
<ellipse fill="#141645" cx="0.00" cy="0.00" transform="translate(875.24,376.46) rotate(100.0)" rx="5.79" ry="3.27"/>
<path fill="#141645" d="
  M 769.57 480.67
  C 769.45 472.50 786.41 467.38 792.38 466.38
  C 796.12 465.76 800.16 466.08 804.45 466.06
  C 813.03 466.02 822.39 469.37 829.43 474.08
  C 832.27 475.98 836.24 479.86 834.47 483.39
  C 833.48 485.38 830.89 484.91 829.20 484.07
  Q 823.29 481.15 822.18 480.58
  Q 809.84 474.30 794.63 476.39
  C 788.64 477.20 781.83 480.57 776.27 481.96
  Q 772.85 482.81 770.18 481.60
  A 1.04 1.03 -78.4 0 1 769.57 480.67
  Z"
/>
<path fill="#141645" d="
  M 325.22 563.72
  A 38.81 38.81 0.0 0 1 286.41 602.53
  A 38.81 38.81 0.0 0 1 247.60 563.72
  A 38.81 38.81 0.0 0 1 286.41 524.91
  A 38.81 38.81 0.0 0 1 325.22 563.72
  Z
  M 315.74 563.78
  A 29.39 29.39 0.0 0 0 286.35 534.39
  A 29.39 29.39 0.0 0 0 256.96 563.78
  A 29.39 29.39 0.0 0 0 286.35 593.17
  A 29.39 29.39 0.0 0 0 315.74 563.78
  Z"
/>
<path fill="#141645" d="
  M 425.6512 791.2819
  A 53.44 53.24 65.9 0 1 355.2307 764.2395
  A 53.44 53.24 65.9 0 1 382.0088 693.7181
  A 53.44 53.24 65.9 0 1 452.4293 720.7605
  A 53.44 53.24 65.9 0 1 425.6512 791.2819
  Z
  M 447.36 742.54
  A 43.49 43.49 0.0 0 0 403.87 699.05
  A 43.49 43.49 0.0 0 0 360.38 742.54
  A 43.49 43.49 0.0 0 0 403.87 786.03
  A 43.49 43.49 0.0 0 0 447.36 742.54
  Z"
/>
</g>
</svg>
