<svg xmlns="http://www.w3.org/2000/svg" fill="none" viewBox="-10.715 -10.715 300 300" id="Optimization--Streamline-Flex" height="300" width="300"><desc>Optimization Streamline Icon: https://streamlinehq.com</desc><g id="optimization--optimization-graph-gear-seo-visibility"><path id="Vector" fill="#d76424" d="M239.34137464285712 154.3249943c-0.003979571428571429 1.0460303499999999 0.3502022857142857 2.062213914285714 1.0028519999999999 2.882204607142857l13.880745142857142 17.386548592857142c2.5111095714285714 3.1249584642857138 4.015387571428572 6.9302246642857135 4.315845214285714 10.918750128571428 0.30244742857142853 3.988525464285714 -0.612854 7.974663185714285 -2.6245273571428567 11.43788522142857l-8.13822357142857 14.00470879285714c-2.007693785714286 3.466206714285714 -5.020229357142857 6.2499169285714276 -8.643629142857142 7.986999857142856 -3.6233997857142857 1.7370829285714284 -7.6885319999999995 2.3479471428571426 -11.666113642857143 1.7510114285714284l-22.110498857142854 -3.3448297857142855c-1.0466272857142858 -0.14525435714285714 -2.111162642857143 0.05571399999999999 -3.028453857142857 0.5730582857142856l-26.19911054285714 15.040790214285714c-0.9103269642857142 0.5312727857142857 -1.6163029357142855 1.3510645 -2.0066988928571425 2.3280492857142856l-8.156927557142858 20.693771428571427c-1.4605027142857143 3.7189095 -4.014790635714285 6.914505357142856 -7.3291767 9.16893257142857 -3.314585042857143 2.2544272142857142 -7.235656771428571 3.4622271428571425 -11.251243321428571 3.4681965h-16.27664612142857c-4.015785528571429 -0.005969357142857142 -7.936658278571428 -1.2137692857142857 -11.251243321428571 -3.4681965 -3.314585042857143 -2.2544272142857142 -5.868872964285714 -5.4500230714285705 -7.329375678571428 -9.16893257142857l-8.156927557142858 -20.693771428571427c-0.3903959571428571 -0.9769847857142856 -1.0963719285714286 -1.7967765 -2.0066988928571425 -2.3280492857142856l-26.198712585714283 -15.040790214285714c-0.9180871285714285 -0.5193340714285715 -1.9830204428571427 -0.7203024285714286 -3.028652835714286 -0.5730582857142856l-22.110896814285713 3.3448297857142855c-3.9771836857142855 0.5969357142857142 -8.043111814285714 -0.013928499999999998 -11.666113642857143 -1.7510114285714284 -3.6232008071428567 -1.7370829285714284 -6.635139442857142 -4.520793142857142 -8.642435271428571 -7.986999857142856l-8.13822357142857 -14.00470879285714c-2.012469271428571 -3.4632220357142858 -2.9277706999999995 -7.449359757142856 -2.6261191857142854 -11.43788522142857 0.30165151428571424 -3.988525464285714 1.8061284928571428 -7.793791664285713 4.316840107142857 -10.918750128571428l13.954168235714285 -17.386548592857142c0.6528486928571428 -0.8199906928571428 1.006632592857143 -1.836174257142857 1.003249957142857 -2.882204607142857V124.2450057c0.003382635714285714 -1.0460303499999999 -0.3504012642857143 -2.062213914285714 -1.003249957142857 -2.882204607142857l-13.954168235714285 -17.386548592857142c-2.510711614285714 -3.1249584642857138 -4.015188592857142 -6.9302246642857135 -4.316840107142857 -10.918750128571428 -0.30165151428571424 -3.988525464285714 0.6136499142857142 -7.974862164285713 2.6261191857142854 -11.43788522142857l8.13822357142857 -14.005305728571429c2.0072958285714284 -3.466206714285714 5.019234464285713 -6.249717949999999 8.642435271428571 -7.986800878571429 3.6230018285714283 -1.7370829285714284 7.688929957142856 -2.347151228571428 11.666113642857143 -1.7504144928571428l22.05518281428571 3.3444318285714285c1.0454334142857142 0.14724414285714285 2.110565707142857 -0.054122171428571425 3.028652835714286 -0.572859307142857l26.254426585714285 -15.113815349999998c0.9103269642857142 -0.5328646142857143 1.6163029357142855 -1.3520593928571427 2.0066988928571425 -2.3280492857142856l8.19413655 -20.619950378571424c1.4605027142857143 -3.719705414285714 4.014790635714285 -6.915281373571427 7.329375678571428 -9.169748383571427C123.20991917142857 11.162658061428571 127.13099089999999 9.954022422857143 131.14657745 9.94892857142857h16.313855114285715c4.015785528571429 0.005093851428571428 7.936658278571428 1.2137294899999997 11.251243321428571 3.468176602142857 3.314585042857143 2.25446701 5.868673985714285 5.450042969285714 7.329375678571428 9.169748383571427l8.156927557142858 20.619950378571424c0.3760695 1.0034489357142857 1.0836373 1.8503017357142857 2.0066988928571425 2.4018703357142854l26.198314628571428 15.039994299999998c0.9192809999999999 0.5173442857142857 1.9838163571428569 0.7187106 3.028453857142857 0.572859307142857l22.110498857142854 -3.3444318285714285c3.9775816428571424 -0.5967367357142856 8.044703642857142 0.013331564285714284 11.668103428571428 1.7504144928571428 3.6214099999999996 1.7370829285714284 6.63394557142857 4.520594164285714 8.641639357142857 7.986800878571429l8.13822357142857 14.005305728571429c2.011673357142857 3.463023057142857 2.9269747857142856 7.449359757142856 2.6265171428571428 11.43788522142857 -0.30244742857142853 3.988525464285714 -1.8067254285714285 7.793791664285713 -4.317835 10.918750128571428l-13.954367214285714 17.386548592857142c-0.6526497142857143 0.8199906928571428 -1.0068315714285714 1.836174257142857 -1.0028519999999999 2.882204607142857v30.079988599999997Z" stroke-width="21.43"></path><path id="Intersect" fill="#4d6a7f" d="M92.03634434285713 138.47953474285714V180.71631814285715l49.75479076428571 -2.937719628571428 -0.005571399999999999 -39.299063771428564c0 -8.954234692857142 -0.45944152142857136 -17.720633614285713 -0.9676327928571428 -26.23114609285714 -0.5577369357142856 -9.342043928571428 -7.507660478571427 -17.284870542857142 -16.852490107142856 -17.79345977142857 -4.719174778571428 -0.2568813357142857 -9.389599807142856 -0.2568813357142857 -14.108973564285712 0 -9.344829628571429 0.5085892285714285 -16.29475317142857 8.451415842857143 -16.852490107142856 17.79345977142857 -0.5079922928571429 8.510512478571428 -0.9676327928571428 17.2769114 -0.9676327928571428 26.23114609285714Z" stroke-width="21.43"></path><path id="Intersect_2" fill="#4d6a7f" d="M142.17257702857142 144.83948682142855c-0.24454466428571428 3.301452457142857 -0.4118856428571428 6.655236278571428 -0.4118856428571428 10.05219845v22.265304185714285h49.75837237857143V154.89168527142857c0 -3.3969621714285716 -0.16734097857142857 -6.7507459928571425 -0.4118856428571428 -10.05219845 -0.7085626928571429 -9.569675414285713 -8.409232385714285 -17.335411099999998 -18.000397485714284 -17.636465678571426 -2.16031035 -0.06765271428571427 -4.3206207 -0.10147907142857143 -6.471579057142856 -0.10147907142857143 -2.150958357142857 0 -4.301916714285714 0.03382635714285714 -6.462227064285714 0.10147907142857143 -9.5911651 0.30105457857142853 -17.29183479285714 8.066790264285714 -18.000397485714284 17.636465678571426Z" stroke-width="21.43"></path><path id="Vector_2" stroke="#060644" stroke-linecap="round" stroke-linejoin="round" d="M239.34137464285712 154.3249943c-0.003979571428571429 1.0460303499999999 0.3502022857142857 2.062213914285714 1.0028519999999999 2.882204607142857l13.880745142857142 17.386548592857142c2.5111095714285714 3.1249584642857138 4.015387571428572 6.9302246642857135 4.315845214285714 10.918750128571428 0.30244742857142853 3.988525464285714 -0.612854 7.974663185714285 -2.6245273571428567 11.43788522142857l-8.13822357142857 14.00470879285714c-2.007693785714286 3.466206714285714 -5.020229357142857 6.2499169285714276 -8.643629142857142 7.986999857142856 -3.6233997857142857 1.7370829285714284 -7.6885319999999995 2.3479471428571426 -11.666113642857143 1.7510114285714284l-22.110498857142854 -3.3448297857142855c-1.0466272857142858 -0.14525435714285714 -2.111162642857143 0.05571399999999999 -3.028453857142857 0.5730582857142856l-26.19911054285714 15.040790214285714c-0.9103269642857142 0.5312727857142857 -1.6163029357142855 1.3510645 -2.0066988928571425 2.3280492857142856l-8.156927557142858 20.693771428571427c-1.4605027142857143 3.7189095 -4.014790635714285 6.914505357142856 -7.3291767 9.16893257142857 -3.314585042857143 2.2544272142857142 -7.235656771428571 3.4622271428571425 -11.251243321428571 3.4681965h-16.27664612142857c-4.015785528571429 -0.005969357142857142 -7.936658278571428 -1.2137692857142857 -11.251243321428571 -3.4681965 -3.314585042857143 -2.2544272142857142 -5.868872964285714 -5.4500230714285705 -7.329375678571428 -9.16893257142857l-8.156927557142858 -20.693771428571427c-0.3903959571428571 -0.9769847857142856 -1.0963719285714286 -1.7967765 -2.0066988928571425 -2.3280492857142856l-26.198712585714283 -15.040790214285714c-0.9180871285714285 -0.5193340714285715 -1.9830204428571427 -0.7203024285714286 -3.028652835714286 -0.5730582857142856l-22.110896814285713 3.3448297857142855c-3.9771836857142855 0.5969357142857142 -8.043111814285714 -0.013928499999999998 -11.666113642857143 -1.7510114285714284 -3.6232008071428567 -1.7370829285714284 -6.635139442857142 -4.520793142857142 -8.642435271428571 -7.986999857142856l-8.13822357142857 -14.00470879285714c-2.012469271428571 -3.4632220357142858 -2.9277706999999995 -7.449359757142856 -2.6261191857142854 -11.43788522142857 0.30165151428571424 -3.988525464285714 1.8061284928571428 -7.793791664285713 4.316840107142857 -10.918750128571428l13.954168235714285 -17.386548592857142c0.6528486928571428 -0.8199906928571428 1.006632592857143 -1.836174257142857 1.003249957142857 -2.882204607142857V124.2450057c0.003382635714285714 -1.0460303499999999 -0.3504012642857143 -2.062213914285714 -1.003249957142857 -2.882204607142857l-13.954168235714285 -17.386548592857142c-2.510711614285714 -3.1249584642857138 -4.015188592857142 -6.9302246642857135 -4.316840107142857 -10.918750128571428 -0.30165151428571424 -3.988525464285714 0.6136499142857142 -7.974862164285713 2.6261191857142854 -11.43788522142857l8.13822357142857 -14.005305728571429c2.0072958285714284 -3.466206714285714 5.019234464285713 -6.249717949999999 8.642435271428571 -7.986800878571429 3.6230018285714283 -1.7370829285714284 7.688929957142856 -2.347151228571428 11.666113642857143 -1.7504144928571428l22.05518281428571 3.3444318285714285c1.0454334142857142 0.14724414285714285 2.110565707142857 -0.054122171428571425 3.028652835714286 -0.572859307142857l26.254426585714285 -15.113815349999998c0.9103269642857142 -0.5328646142857143 1.6163029357142855 -1.3520593928571427 2.0066988928571425 -2.3280492857142856l8.19413655 -20.619950378571424c1.4605027142857143 -3.719705414285714 4.014790635714285 -6.915281373571427 7.329375678571428 -9.169748383571427C123.20991917142857 11.162658061428571 127.13099089999999 9.954022422857143 131.14657745 9.94892857142857h16.313855114285715c4.015785528571429 0.005093851428571428 7.936658278571428 1.2137294899999997 11.251243321428571 3.468176602142857 3.314585042857143 2.25446701 5.868673985714285 5.450042969285714 7.329375678571428 9.169748383571427l8.156927557142858 20.619950378571424c0.3760695 1.0034489357142857 1.0836373 1.8503017357142857 2.0066988928571425 2.4018703357142854l26.198314628571428 15.039994299999998c0.9192809999999999 0.5173442857142857 1.9838163571428569 0.7187106 3.028453857142857 0.572859307142857l22.110498857142854 -3.3444318285714285c3.9775816428571424 -0.5967367357142856 8.044703642857142 0.013331564285714284 11.668103428571428 1.7504144928571428 3.6214099999999996 1.7370829285714284 6.63394557142857 4.520594164285714 8.641639357142857 7.986800878571429l8.13822357142857 14.005305728571429c2.011673357142857 3.463023057142857 2.9269747857142856 7.449359757142856 2.6265171428571428 11.43788522142857 -0.30244742857142853 3.988525464285714 -1.8067254285714285 7.793791664285713 -4.317835 10.918750128571428l-13.954367214285714 17.386548592857142c-0.6526497142857143 0.8199906928571428 -1.0068315714285714 1.836174257142857 -1.0028519999999999 2.882204607142857v30.079988599999997Z" stroke-width="21.43"></path><path id="Intersect_3" stroke="#060644" stroke-linecap="round" stroke-linejoin="round" d="m141.76069138571427 177.15698945714286 0 -22.265304185714285c0 -3.3969621714285716 0.16734097857142857 -6.7507459928571425 0.4118856428571428 -10.05219845 0.7085626928571429 -9.569675414285713 8.409232385714285 -17.335411099999998 18.000397485714284 -17.636465678571426 2.16031035 -0.06765271428571427 4.311268707142857 -0.10147907142857143 6.462227064285714 -0.10147907142857143s4.311268707142857 0.03382635714285714 6.471579057142856 0.10147907142857143c9.5911651 0.30105457857142853 17.29183479285714 8.066790264285714 18.000397485714284 17.636465678571426 0.24454466428571428 3.301452457142857 0.4118856428571428 6.655236278571428 0.4118856428571428 10.05219845v22.265304185714285" stroke-width="21.43"></path><path id="Intersect_4" stroke="#060644" stroke-linecap="round" stroke-linejoin="round" d="m92.03634434285713 180.71631814285715 0 -42.23678339999999c0 -8.954234692857142 0.45964049999999995 -17.720633614285713 0.9676327928571428 -26.23114609285714 0.5577369357142856 -9.342043928571428 7.507660478571427 -17.284870542857142 16.852490107142856 -17.79345977142857 4.719373757142857 -0.2568813357142857 9.389798785714286 -0.2568813357142857 14.108973564285712 0 9.344829628571429 0.5085892285714285 16.29475317142857 8.451415842857143 16.852490107142856 17.79345977142857 0.5081912714285713 8.510512478571428 0.9676327928571428 17.2769114 0.9676327928571428 26.23114609285714 0 11.77097535 0.003979571428571429 31.810903192857143 0.005571399999999999 39.299063771428564" stroke-width="21.43"></path><path id="Intersect_5" stroke="#060644" stroke-linecap="round" stroke-linejoin="round" d="m92.03634434285713 180.71631814285715 0 -42.23678339999999c0 -8.954234692857142 0.45964049999999995 -17.720633614285713 0.9676327928571428 -26.23114609285714 0.5577369357142856 -9.342043928571428 7.507660478571427 -17.284870542857142 16.852490107142856 -17.79345977142857 4.719373757142857 -0.2568813357142857 9.389798785714286 -0.2568813357142857 14.108973564285712 0 9.344829628571429 0.5085892285714285 16.29475317142857 8.451415842857143 16.852490107142856 17.79345977142857 0.5081912714285713 8.510512478571428 0.9676327928571428 17.2769114 0.9676327928571428 26.23114609285714 0 11.77097535 0.003979571428571429 31.810903192857143 0.005571399999999999 39.299063771428564" stroke-width="21.43"></path><path id="Vector 4003" stroke="#060644" stroke-linecap="round" stroke-linejoin="round" d="M72.75154017857142 184.31166195c44.73754608571428 -5.497777928571428 88.32937355714286 -5.497777928571428 133.06791453571427 0" stroke-width="21.43"></path></g></svg>