<?xml version="1.0" encoding="UTF-8" standalone="no"?>
<!DOCTYPE svg PUBLIC "-//W3C//DTD SVG 1.0//EN" "http://www.w3.org/TR/2001/REC-SVG-20010904/DTD/svg10.dtd">
<svg xmlns="http://www.w3.org/2000/svg" version="1.0" viewBox="0.00 0.00 1536.00 1024.00">
<g stroke-width="2.00" fill="none" stroke-linecap="butt">
<path stroke="#763a3a" d="
  M 985.78 289.79
  C 982.92 288.81 980.77 286.50 981.27 283.43
  C 984.75 262.33 979.82 242.72 968.62 224.61
  Q 952.84 199.10 925.92 188.65
  C 907.09 181.34 885.53 181.09 866.02 186.43
  Q 859.24 188.29 857.62 182.14
  Q 853.59 166.81 852.28 163.33
  C 842.04 136.00 822.46 113.82 796.18 100.43
  Q 788.65 96.59 785.62 95.37
  C 771.01 89.47 754.76 86.07 738.58 85.87
  Q 733.09 85.81 728.26 85.93
  C 691.46 86.86 655.75 105.16 634.21 135.13
  Q 625.93 146.65 620.83 157.60
  Q 611.93 176.72 609.81 199.01
  Q 609.69 200.26 608.94 208.24
  Q 608.33 214.75 601.92 215.38
  Q 564.37 219.07 540.08 247.12
  C 519.41 270.98 513.92 303.57 522.64 333.47
  C 526.11 345.36 533.23 358.32 540.63 367.13
  Q 556.12 385.57 581.60 394.16
  C 589.13 396.70 598.11 397.52 605.75 397.51
  Q 742.05 397.48 963.17 397.48
  Q 979.68 397.48 981.83 397.22
  Q 991.33 396.10 999.60 391.85
  Q 1021.14 380.78 1027.39 357.22
  Q 1032.89 336.47 1023.33 318.54
  C 1015.58 303.99 1001.13 295.01 985.78 289.79"
/>
<path stroke="#763a3a" d="
  M 1341.33 121.73
  A 7.88 7.88 0.0 0 0 1333.45 113.85
  L 1056.75 113.85
  A 7.88 7.88 0.0 0 0 1048.87 121.73
  L 1048.87 338.37
  A 7.88 7.88 0.0 0 0 1056.75 346.25
  L 1333.45 346.25
  A 7.88 7.88 0.0 0 0 1341.33 338.37
  L 1341.33 121.73"
/>
<path stroke="#763a3a" d="
  M 1159.55 390.14
  A 1.89 1.89 0.0 0 0 1161.39 392.45
  L 1229.98 392.45
  A 1.89 1.89 0.0 0 0 1231.83 390.14
  L 1224.54 358.53
  A 1.89 1.89 0.0 0 0 1222.70 357.06
  L 1168.51 357.06
  A 1.89 1.89 0.0 0 0 1166.67 358.53
  L 1159.55 390.14"
/>
<path stroke="#763a3a" d="
  M 682.29 201.21
  C 674.23 209.27 669.69 218.97 668.79 230.52
  Q 667.77 243.75 667.41 248.77
  Q 666.92 255.78 667.20 286.06
  C 667.27 294.28 668.18 301.94 668.67 309.77
  Q 670.01 331.27 686.47 344.32
  Q 696.96 352.65 709.75 353.85
  Q 725.57 355.32 730.76 355.52
  Q 744.43 356.02 768.65 355.66
  C 776.64 355.54 782.37 354.79 792.00 354.06
  C 803.58 353.17 813.54 348.66 821.68 340.52
  C 829.82 332.37 834.32 322.41 835.20 310.82
  C 835.93 301.20 836.68 295.47 836.79 287.48
  Q 837.14 263.25 836.63 249.59
  Q 836.42 244.40 834.94 228.58
  Q 833.74 215.79 825.40 205.30
  Q 812.34 188.85 790.84 187.52
  C 783.01 187.04 775.35 186.13 767.13 186.07
  Q 736.85 185.81 729.84 186.30
  Q 724.82 186.67 711.59 187.70
  C 700.04 188.60 690.34 193.15 682.29 201.21"
/>
<path stroke="#763a3a" d="
  M 1324.94 138.59
  A 6.71 6.71 0.0 0 0 1318.23 131.88
  L 1074.59 131.88
  A 6.71 6.71 0.0 0 0 1067.88 138.59
  L 1067.88 302.85
  A 6.71 6.71 0.0 0 0 1074.59 309.56
  L 1318.23 309.56
  A 6.71 6.71 0.0 0 0 1324.94 302.85
  L 1324.94 138.59"
/>
<path stroke="#763a3a" d="
  M 1204.6675 327.5509
  A 5.35 5.35 0.0 0 0 1199.2895 322.2290
  L 1191.2496 322.2711
  A 5.35 5.35 0.0 0 0 1185.9277 327.6491
  L 1185.9325 328.5691
  A 5.35 5.35 0.0 0 0 1191.3105 333.8910
  L 1199.3504 333.8489
  A 5.35 5.35 0.0 0 0 1204.6723 328.4709
  L 1204.6675 327.5509"
/>
<path stroke="#283a66" d="
  M 185.10 236.94
  Q 185.90 237.27 187.02 237.39
  Q 189.76 237.69 198.68 237.80
  C 202.53 237.85 205.91 238.60 207.37 242.17
  Q 209.90 248.34 213.90 257.36
  Q 215.72 261.47 212.97 265.22
  Q 209.96 269.30 206.14 274.13
  Q 204.51 276.20 204.01 278.08
  A 3.03 3.00 35.5 0 0 204.44 280.59
  Q 208.16 286.01 214.21 291.68
  C 217.17 294.45 219.55 295.11 222.87 293.08
  Q 225.39 291.54 232.68 286.22
  Q 235.01 284.52 237.60 284.92
  Q 245.22 286.09 253.86 290.13
  C 262.04 293.96 261.58 302.99 261.31 310.93
  A 1.83 1.83 0.0 0 0 263.14 312.83
  L 283.47 312.83
  A 1.39 1.38 88.1 0 0 284.85 311.35
  C 284.56 307.30 284.42 297.92 287.88 295.11
  Q 294.91 289.43 305.97 285.28
  C 307.89 284.56 309.32 283.85 311.31 285.02
  Q 317.58 288.69 321.07 290.22
  A 8.83 8.79 76.1 0 1 323.00 291.39
  C 324.38 292.49 328.28 295.72 330.33 294.07
  Q 333.62 291.44 342.34 282.34
  C 344.91 279.65 344.20 278.36 341.94 275.92
  C 337.12 270.70 330.60 264.95 333.06 258.30
  C 334.70 253.88 339.46 238.08 346.01 237.89
  Q 357.63 237.55 361.88 237.23
  A 2.10 2.10 0.0 0 0 363.82 235.26
  Q 364.25 228.35 363.61 217.36
  Q 363.43 214.17 360.06 214.05
  Q 348.26 213.63 346.60 213.49
  Q 342.49 213.14 340.42 209.32
  Q 336.01 201.16 335.20 199.33
  C 332.83 193.97 331.10 189.50 333.98 184.55
  C 336.03 181.04 339.39 177.18 342.93 173.87
  A 2.88 2.88 0.0 0 0 343.66 170.76
  Q 342.96 168.92 341.27 167.10
  Q 335.52 160.94 330.00 156.33
  A 2.62 2.52 -16.1 0 0 329.07 155.84
  Q 327.10 155.28 325.36 156.62
  C 320.32 160.51 315.52 164.64 309.23 164.79
  A 3.44 3.35 -35.0 0 1 308.05 164.60
  Q 306.75 164.14 297.90 161.96
  C 295.21 161.30 290.28 159.40 288.87 157.88
  Q 286.13 154.92 286.03 152.95
  Q 285.66 146.00 285.40 140.65
  Q 285.25 137.47 281.85 137.34
  Q 272.68 136.98 263.15 137.30
  A 1.90 1.88 3.7 0 0 261.34 138.88
  Q 260.05 146.72 260.15 152.64
  C 260.19 155.06 259.49 157.30 257.44 158.20
  Q 249.31 161.75 238.87 164.61
  C 236.44 165.28 234.73 164.79 232.67 163.56
  Q 228.21 160.88 222.73 156.78
  Q 219.59 154.42 216.43 156.92
  Q 209.75 162.18 204.24 169.08
  A 2.73 2.73 0.0 0 0 204.13 172.34
  Q 206.63 175.94 212.57 183.40
  Q 215.00 186.45 215.62 189.81
  A 3.48 3.44 -41.1 0 1 215.49 191.58
  Q 212.80 199.44 210.24 205.35
  C 205.73 215.80 195.60 213.81 187.51 214.23
  Q 184.50 214.38 184.60 216.96
  Q 185.01 227.01 184.07 235.19
  A 1.70 1.69 14.5 0 0 185.10 236.94"
/>
<path stroke="#283a66" d="
  M 1314.74 142.97
  A 0.93 0.93 0.0 0 0 1313.81 142.04
  L 1079.69 142.04
  A 0.93 0.93 0.0 0 0 1078.76 142.97
  L 1078.76 297.11
  A 0.93 0.93 0.0 0 0 1079.69 298.04
  L 1313.81 298.04
  A 0.93 0.93 0.0 0 0 1314.74 297.11
  L 1314.74 142.97"
/>
<path stroke="#283a66" d="
  M 316.2458 216.8340
  A 43.29 42.78 -10.2 0 0 266.0643 182.3961
  A 43.29 42.78 -10.2 0 0 231.0342 232.1660
  A 43.29 42.78 -10.2 0 0 281.2157 266.6039
  A 43.29 42.78 -10.2 0 0 316.2458 216.8340"
/>
<path stroke="#283a66" d="
  M 1189.87 169.62
  A 7.72 7.72 0.0 0 0 1182.15 161.90
  L 1140.73 161.90
  A 7.72 7.72 0.0 0 0 1133.01 169.62
  L 1133.01 209.50
  A 7.72 7.72 0.0 0 0 1140.73 217.22
  L 1182.15 217.22
  A 7.72 7.72 0.0 0 0 1189.87 209.50
  L 1189.87 169.62"
/>
<path stroke="#283a66" d="
  M 1257.9570 169.7259
  A 7.95 7.95 0.0 0 0 1249.9655 161.8176
  L 1210.7260 162.0231
  A 7.95 7.95 0.0 0 0 1202.8178 170.0146
  L 1203.0230 209.2141
  A 7.95 7.95 0.0 0 0 1211.0145 217.1224
  L 1250.2540 216.9169
  A 7.95 7.95 0.0 0 0 1258.1622 208.9254
  L 1257.9570 169.7259"
/>
<path stroke="#283a66" d="
  M 1189.9041 235.6903
  A 8.04 8.04 0.0 0 0 1181.8501 227.6643
  L 1140.8901 227.7358
  A 8.04 8.04 0.0 0 0 1132.8642 235.7898
  L 1132.9359 276.8897
  A 8.04 8.04 0.0 0 0 1140.9899 284.9157
  L 1181.9499 284.8442
  A 8.04 8.04 0.0 0 0 1189.9758 276.7902
  L 1189.9041 235.6903"
/>
<path stroke="#283a66" d="
  M 1258.13 235.49
  A 7.73 7.73 0.0 0 0 1250.40 227.76
  L 1210.68 227.76
  A 7.73 7.73 0.0 0 0 1202.95 235.49
  L 1202.95 277.21
  A 7.73 7.73 0.0 0 0 1210.68 284.94
  L 1250.40 284.94
  A 7.73 7.73 0.0 0 0 1258.13 277.21
  L 1258.13 235.49"
/>
<path stroke="#763a3a" d="
  M 304.68 224.64
  A 31.18 31.18 0.0 0 0 273.50 193.46
  A 31.18 31.18 0.0 0 0 242.32 224.64
  A 31.18 31.18 0.0 0 0 273.50 255.82
  A 31.18 31.18 0.0 0 0 304.68 224.64"
/>
<path stroke="#763a3a" d="
  M 751.96 226.21
  Q 819.26 226.20 819.95 226.20
  A 0.80 0.80 0.0 0 0 820.71 225.19
  C 816.97 211.55 804.95 202.26 791.06 201.07
  Q 768.78 199.16 751.96 199.16
  Q 735.14 199.17 712.86 201.08
  C 698.97 202.27 686.95 211.56 683.21 225.20
  A 0.80 0.80 0.0 0 0 683.97 226.20
  Q 684.66 226.21 751.96 226.21"
/>
<path stroke="#283a66" d="
  M 751.99 342.78
  Q 768.38 342.78 791.49 340.76
  C 807.89 339.33 820.18 326.82 821.82 310.54
  Q 825.33 275.58 822.64 240.64
  A 0.93 0.92 87.9 0 0 821.73 239.79
  Q 812.87 239.69 751.99 239.70
  Q 691.10 239.70 682.25 239.79
  A 0.93 0.92 -87.9 0 0 681.34 240.64
  Q 678.65 275.58 682.16 310.54
  C 683.80 326.82 696.09 339.33 712.49 340.77
  Q 735.60 342.78 751.99 342.78"
/>
<path stroke="#283a66" d="
  M 767.8265 259.8182
  A 6.63 6.63 0.0 0 0 763.6282 251.4344
  L 763.4005 251.3587
  A 6.63 6.63 0.0 0 0 755.0167 255.5570
  L 736.1535 312.2618
  A 6.63 6.63 0.0 0 0 740.3518 320.6456
  L 740.5795 320.7213
  A 6.63 6.63 0.0 0 0 748.9633 316.5230
  L 767.8265 259.8182"
/>
<path stroke="#283a66" d="
  M 694.93 289.21
  Q 694.93 290.95 695.48 292.01
  Q 702.99 306.35 717.10 313.89
  C 723.07 317.08 729.10 311.30 726.59 305.23
  Q 725.83 303.40 721.63 300.87
  Q 715.75 297.33 710.63 290.90
  Q 709.85 289.92 709.85 289.21
  Q 709.85 288.50 710.63 287.52
  Q 715.75 281.08 721.63 277.54
  Q 725.83 275.01 726.59 273.18
  C 729.10 267.11 723.07 261.33 717.10 264.52
  Q 702.99 272.06 695.48 286.41
  Q 694.93 287.47 694.93 289.21"
/>
<path stroke="#283a66" d="
  M 809.07 289.20
  Q 809.07 287.46 808.51 286.40
  Q 801.00 272.07 786.90 264.54
  C 780.93 261.35 774.91 267.13 777.42 273.20
  Q 778.18 275.03 782.38 277.55
  Q 788.25 281.09 793.37 287.52
  Q 794.15 288.49 794.15 289.20
  Q 794.15 289.91 793.37 290.89
  Q 788.26 297.32 782.39 300.87
  Q 778.19 303.40 777.43 305.22
  C 774.93 311.29 780.96 317.07 786.92 313.87
  Q 801.02 306.33 808.52 291.99
  Q 809.07 290.94 809.07 289.20"
/>
<path stroke="#283a66" d="
  M 153.83 442.12
  L 493.71 442.12
  A 1.87 1.87 0.0 0 0 495.58 440.25
  L 495.58 419.26
  A 21.84 21.66 -0.0 0 0 473.74 397.60
  L 173.80 397.60
  A 21.84 21.66 0.0 0 0 151.96 419.26
  L 151.96 440.25
  A 1.87 1.87 0.0 0 0 153.83 442.12"
/>
<path stroke="#283a66" d="
  M 264.4166 416.2167
  A 9.27 8.93 -28.5 0 0 252.0090 412.7922
  A 9.27 8.93 -28.5 0 0 248.1234 425.0633
  A 9.27 8.93 -28.5 0 0 260.5310 428.4878
  A 9.27 8.93 -28.5 0 0 264.4166 416.2167"
/>
<path stroke="#283a66" d="
  M 190.35 420.74
  A 9.07 9.07 0.0 0 0 181.28 411.67
  A 9.07 9.07 0.0 0 0 172.21 420.74
  A 9.07 9.07 0.0 0 0 181.28 429.81
  A 9.07 9.07 0.0 0 0 190.35 420.74"
/>
<path stroke="#283a66" d="
  M 227.4293 420.8882
  A 9.15 8.77 -0.7 0 0 218.1729 412.2307
  A 9.15 8.77 -0.7 0 0 209.1307 421.1118
  A 9.15 8.77 -0.7 0 0 218.3871 429.7693
  A 9.15 8.77 -0.7 0 0 227.4293 420.8882"
/>
<path stroke="#763a3a" d="
  M 1422.08 457.20
  A 1.14 1.13 -89.5 0 0 1420.99 456.08
  Q 1390.98 454.91 1364.89 440.34
  Q 1354.46 434.51 1345.50 427.97
  C 1343.76 426.70 1342.60 426.85 1340.96 427.95
  Q 1333.40 433.01 1324.96 438.16
  Q 1318.91 441.84 1304.30 447.74
  Q 1284.23 455.83 1262.91 456.12
  A 1.02 1.01 -90.0 0 0 1261.91 457.13
  Q 1261.78 474.80 1262.01 488.00
  Q 1262.29 503.87 1263.98 514.76
  C 1266.08 528.21 1271.36 541.42 1279.11 553.45
  Q 1291.67 572.96 1310.01 587.23
  Q 1325.33 599.14 1339.80 605.94
  C 1341.98 606.97 1343.67 607.14 1345.80 606.05
  Q 1361.54 597.94 1375.02 587.55
  C 1381.24 582.76 1387.58 576.33 1392.66 570.93
  Q 1415.73 546.45 1420.29 513.02
  C 1422.77 494.88 1422.40 475.39 1422.08 457.20"
/>
<path stroke="#763a3a" d="
  M 1333.45 533.09
  C 1331.05 531.09 1328.63 527.41 1326.66 525.24
  Q 1317.82 515.45 1314.07 510.80
  C 1311.18 507.22 1306.17 504.97 1303.32 509.77
  Q 1302.01 511.96 1302.71 513.32
  Q 1304.63 517.04 1308.10 520.91
  Q 1324.39 539.11 1325.40 540.32
  C 1329.96 545.85 1334.66 549.53 1340.23 543.20
  Q 1356.27 525.02 1383.71 492.64
  C 1386.29 489.60 1390.19 484.78 1385.64 481.32
  Q 1381.52 478.20 1378.26 482.08
  Q 1358.51 505.53 1336.73 531.23
  Q 1334.96 533.32 1334.47 533.39
  A 1.36 1.34 60.8 0 1 1333.45 533.09"
/>
<path stroke="#763a3a" d="
  M 325.83 608.40
  L 325.83 520.25
  A 0.55 0.55 0.0 0 0 324.86 519.90
  Q 309.83 538.19 287.87 561.69
  C 282.25 567.71 274.33 566.71 268.70 561.05
  Q 251.44 543.70 241.13 533.37
  C 238.19 530.43 236.04 528.02 232.34 532.10
  Q 212.89 553.53 191.01 577.51
  Q 189.01 579.71 189.03 582.75
  Q 189.15 603.04 189.14 607.42
  A 1.48 1.48 0.0 0 0 190.62 608.90
  L 325.33 608.90
  A 0.50 0.50 0.0 0 0 325.83 608.40"
/>
<path stroke="#763a3a" d="
  M 1193.04 635.51
  Q 1124.65 635.51 1046.25 635.58
  Q 1040.28 635.58 1038.38 636.05
  A 4.65 4.48 22.5 0 0 1037.21 636.51
  Q 1032.02 639.34 1031.98 647.01
  Q 1031.81 676.59 1031.91 847.77
  Q 1031.91 849.77 1034.15 849.78
  Q 1087.30 849.95 1193.04 849.96
  Q 1298.78 849.96 1351.92 849.79
  Q 1354.16 849.78 1354.16 847.78
  Q 1354.28 676.60 1354.11 647.02
  Q 1354.07 639.35 1348.88 636.52
  A 4.65 4.48 -22.4 0 0 1347.71 636.06
  Q 1345.81 635.59 1339.84 635.59
  Q 1261.44 635.51 1193.04 635.51"
/>
<path stroke="#763a3a" d="
  M 1193.27 908.40
  Q 1386.47 908.42 1386.99 908.43
  A 0.79 0.79 0.0 0 0 1387.66 907.21
  L 1356.74 861.06
  A 2.64 2.62 -13.9 0 0 1354.80 859.90
  Q 1353.95 859.79 1350.00 859.78
  C 1290.13 859.70 1237.88 859.49 1193.28 859.49
  C 1148.68 859.48 1096.43 859.68 1036.56 859.75
  Q 1032.61 859.76 1031.76 859.87
  A 2.64 2.62 13.9 0 0 1029.82 861.03
  L 998.89 907.17
  A 0.79 0.79 0.0 0 0 999.56 908.40
  Q 1000.08 908.39 1193.27 908.40"
/>
<path stroke="#763a3a" d="
  M 1392.51 920.77
  A 1.62 1.61 -83.6 0 0 1390.71 918.51
  Q 1388.08 919.08 1387.01 919.15
  Q 1384.34 919.30 1379.50 918.95
  Q 1373.81 918.54 1372.00 918.62
  C 1366.55 918.85 1361.55 918.46 1355.01 918.45
  Q 1138.23 918.30 1044.75 918.52
  Q 1020.03 918.58 1007.01 918.61
  C 1002.78 918.62 997.73 917.71 993.88 918.16
  A 0.96 0.95 -6.1 0 0 993.04 919.20
  C 993.54 924.76 998.16 929.70 1002.88 932.01
  Q 1005.63 933.37 1011.45 933.43
  Q 1041.48 933.77 1063.08 933.62
  Q 1083.57 933.48 1090.41 933.55
  Q 1105.55 933.69 1117.75 933.68
  Q 1220.49 933.57 1333.75 933.66
  Q 1344.51 933.66 1374.00 933.46
  C 1381.03 933.41 1384.87 931.93 1388.99 927.04
  Q 1390.35 925.42 1392.51 920.77"
/>
<path stroke="#763a3a" d="
  M 1337.71 661.33
  A 6.92 6.92 0.0 0 0 1330.79 654.41
  L 1057.23 654.41
  A 6.92 6.92 0.0 0 0 1050.31 661.33
  L 1050.31 825.85
  A 6.92 6.92 0.0 0 0 1057.23 832.77
  L 1330.79 832.77
  A 6.92 6.92 0.0 0 0 1337.71 825.85
  L 1337.71 661.33"
/>
<path stroke="#283a66" d="
  M 1326.75 665.11
  A 0.27 0.27 0.0 0 0 1326.48 664.84
  L 1061.16 664.84
  A 0.27 0.27 0.0 0 0 1060.89 665.11
  L 1060.89 822.33
  A 0.27 0.27 0.0 0 0 1061.16 822.60
  L 1326.48 822.60
  A 0.27 0.27 0.0 0 0 1326.75 822.33
  L 1326.75 665.11"
/>
<path stroke="#283a66" d="
  M 1263.35 801.99
  L 1291.49 801.95
  A 6.05 6.05 0.0 0 0 1297.53 795.88
  L 1297.36 698.14
  A 8.31 6.48 89.9 0 0 1290.86 689.85
  L 1263.58 689.89
  A 8.31 6.48 89.9 0 0 1257.12 698.22
  L 1257.29 795.96
  A 6.05 6.05 0.0 0 0 1263.35 801.99"
/>
<path stroke="#283a66" d="
  M 1246.0500 726.1250
  A 7.17 7.17 0.0 0 0 1238.8925 718.9425
  L 1213.1325 718.8976
  A 7.17 7.17 0.0 0 0 1205.9500 726.0551
  L 1205.8300 794.8150
  A 7.17 7.17 0.0 0 0 1212.9875 801.9975
  L 1238.7475 802.0424
  A 7.17 7.17 0.0 0 0 1245.9300 794.8849
  L 1246.0500 726.1250"
/>
<path stroke="#283a66" d="
  M 1160.79 802.10
  L 1188.21 802.06
  A 6.73 6.73 0.0 0 0 1194.93 795.31
  L 1194.85 752.78
  A 8.96 8.40 89.9 0 0 1186.44 743.84
  L 1162.36 743.88
  A 8.96 8.40 89.9 0 0 1153.97 752.86
  L 1154.05 795.39
  A 6.73 6.73 0.0 0 0 1160.79 802.10"
/>
<path stroke="#283a66" d="
  M 1102.05 769.97
  L 1101.91 795.55
  A 6.37 6.37 0.0 0 0 1108.25 801.96
  L 1135.23 802.10
  A 8.53 7.89 -89.7 0 0 1143.16 793.61
  L 1143.28 772.35
  A 8.53 7.89 -89.7 0 0 1135.43 763.78
  L 1108.45 763.64
  A 6.37 6.37 0.0 0 0 1102.05 769.97"
/>
<path stroke="#283a66" d="
  M 160.00 740.73
  C 158.29 744.29 159.03 746.80 161.69 749.61
  Q 164.32 752.37 168.62 754.65
  Q 180.49 760.94 192.81 763.72
  C 204.00 766.24 213.67 767.98 224.38 769.30
  Q 230.52 770.06 235.17 770.08
  Q 246.13 770.13 254.23 770.07
  C 259.12 770.03 264.97 768.75 268.99 768.62
  Q 290.55 767.91 311.32 760.80
  Q 319.99 757.84 325.94 754.17
  C 329.13 752.20 334.85 746.71 334.50 742.30
  Q 334.22 738.76 332.19 736.81
  Q 322.69 727.68 309.41 723.89
  Q 293.90 719.47 278.79 717.86
  C 270.11 716.93 260.97 716.92 252.57 716.41
  Q 241.74 715.74 232.91 716.05
  Q 207.49 716.95 182.82 724.35
  C 173.78 727.06 164.14 732.08 160.00 740.73"
/>
<path stroke="#283a66" d="
  M 159.66 763.11
  Q 160.18 772.94 159.75 786.76
  Q 159.60 791.51 161.79 794.30
  C 164.22 797.40 169.84 801.28 174.10 803.23
  Q 180.82 806.31 187.76 808.28
  C 198.40 811.29 208.53 813.64 219.07 814.50
  C 224.82 814.97 233.98 815.87 241.81 815.98
  C 250.75 816.09 255.45 816.61 262.62 815.44
  Q 264.76 815.09 269.88 814.80
  Q 279.41 814.26 290.34 812.16
  C 295.16 811.24 299.27 809.69 303.79 808.83
  C 311.06 807.46 334.91 797.96 334.83 788.73
  Q 334.66 769.81 334.79 761.42
  A 0.48 0.48 0.0 0 0 334.03 761.03
  C 327.26 766.03 319.01 769.27 310.74 772.02
  Q 305.32 773.82 297.09 775.35
  Q 289.25 776.80 283.24 777.81
  Q 271.07 779.87 256.50 779.95
  C 242.40 780.03 231.72 780.61 220.19 779.26
  Q 200.62 776.96 189.22 774.01
  Q 174.67 770.25 160.74 762.43
  A 0.73 0.73 0.0 0 0 159.66 763.11"
/>
<path stroke="#283a66" d="
  M 160.35 806.95
  A 0.41 0.41 0.0 0 0 159.70 807.31
  Q 160.22 815.79 159.99 833.00
  Q 159.95 836.42 160.12 840.45
  C 160.30 844.68 164.81 847.85 168.00 849.74
  Q 187.93 861.51 210.76 863.74
  C 223.08 864.94 231.38 866.11 241.45 866.03
  C 248.13 865.97 255.17 866.46 262.84 865.74
  Q 274.63 864.64 282.24 863.70
  Q 298.76 861.66 313.95 855.69
  Q 320.39 853.16 325.92 849.45
  C 329.30 847.19 334.83 842.11 334.78 837.95
  Q 334.59 820.98 334.90 807.41
  A 0.83 0.82 -16.9 0 0 333.60 806.72
  C 325.10 812.68 316.96 815.44 306.27 818.64
  Q 290.66 823.31 275.30 824.90
  C 270.73 825.38 265.97 825.05 260.92 825.38
  Q 238.60 826.85 216.57 824.87
  Q 197.07 823.11 176.87 815.90
  Q 168.41 812.88 160.35 806.95"
/>
<path stroke="#283a66" d="
  M 160.17 856.99
  A 0.50 0.49 -8.2 0 0 159.80 857.48
  Q 160.13 872.93 159.98 884.25
  C 159.88 891.94 168.96 898.48 175.38 901.63
  Q 191.21 909.39 207.32 911.68
  C 213.10 912.50 221.60 913.73 228.94 913.94
  C 239.08 914.23 248.42 915.50 259.57 914.38
  C 265.36 913.80 272.16 914.16 278.14 913.25
  Q 292.52 911.05 307.13 906.17
  C 316.94 902.89 334.28 894.02 334.63 882.41
  Q 334.93 872.87 334.64 856.85
  A 0.62 0.62 0.0 0 0 333.67 856.35
  C 327.79 860.31 321.70 862.80 314.58 866.04
  Q 308.38 868.87 302.74 870.25
  Q 288.29 873.78 269.21 875.62
  Q 264.66 876.06 260.77 875.92
  C 254.57 875.69 247.48 875.65 239.67 875.87
  Q 228.49 876.19 223.76 875.75
  C 209.55 874.44 195.33 872.12 180.03 867.45
  Q 170.80 864.64 160.54 857.10
  A 0.23 0.22 -19.7 0 0 160.45 857.06
  Q 160.22 856.98 160.17 856.99"
/>
<path stroke="#763a3a" d="
  M 756.01 881.28
  A 1.63 1.63 0.0 0 0 758.34 881.21
  Q 760.14 879.27 761.18 877.41
  Q 773.98 854.50 786.56 831.29
  Q 792.80 819.78 797.86 808.84
  C 804.63 794.23 805.58 777.95 797.81 763.80
  C 791.83 752.89 781.86 743.94 770.03 740.40
  Q 763.82 738.55 755.69 738.66
  C 743.04 738.85 733.46 743.99 724.82 752.62
  C 717.89 759.54 713.09 770.78 711.96 780.65
  C 710.72 791.37 714.38 804.36 719.45 813.82
  Q 745.02 861.49 753.78 878.19
  Q 754.78 880.09 756.01 881.28"
/>
<path stroke="#763a3a" d="
  M 751.6453 760.8994
  A 25.71 25.18 -102.5 0 0 732.6269 791.4499
  A 25.71 25.18 -102.5 0 0 762.7747 811.1006
  A 25.71 25.18 -102.5 0 0 781.7931 780.5501
  A 25.71 25.18 -102.5 0 0 751.6453 760.8994"
/>
<path stroke="#763a3a" d="
  M 615.80 810.34
  Q 627.27 810.32 632.36 810.07
  Q 652.04 809.11 670.13 802.68
  C 674.45 801.15 688.44 794.81 678.71 788.65
  Q 676.19 787.06 674.68 786.46
  Q 661.81 781.37 647.76 779.71
  Q 633.46 778.02 628.48 777.91
  Q 625.68 777.84 615.75 777.85
  Q 605.83 777.87 603.02 777.94
  Q 598.05 778.07 583.75 779.80
  Q 569.71 781.50 556.85 786.62
  Q 555.34 787.23 552.83 788.82
  C 543.11 795.01 557.12 801.31 561.44 802.83
  Q 579.55 809.21 599.24 810.12
  Q 604.32 810.36 615.80 810.34"
/>
<path stroke="#763a3a" d="
  M 682.01 807.59
  Q 681.21 807.77 681.10 807.84
  C 676.86 810.58 671.58 813.00 665.57 814.65
  Q 646.02 820.01 626.49 820.73
  C 598.98 821.74 574.06 819.68 550.02 808.89
  A 0.74 0.73 -75.9 0 0 548.99 809.51
  Q 548.20 820.95 548.62 832.63
  C 548.90 840.53 561.98 845.30 567.88 847.12
  Q 583.90 852.08 600.75 853.04
  Q 604.71 853.27 621.66 853.20
  Q 626.18 853.18 631.32 852.64
  Q 632.55 852.51 640.98 851.87
  Q 655.93 850.73 670.36 844.34
  C 675.82 841.93 682.98 837.45 683.08 830.81
  Q 683.29 817.03 683.11 808.44
  A 0.90 0.89 82.4 0 0 682.01 807.59"
/>
<path stroke="#763a3a" d="
  M 548.51 850.77
  C 548.81 857.75 547.90 867.12 549.04 875.76
  A 4.46 4.42 26.9 0 0 549.57 877.36
  Q 552.21 882.13 557.58 884.96
  Q 570.20 891.59 584.66 893.84
  Q 605.70 897.12 625.25 895.96
  Q 640.08 895.08 643.01 894.75
  C 654.37 893.48 668.04 890.04 677.38 882.66
  C 681.50 879.40 682.90 876.68 683.02 871.19
  Q 683.24 861.37 683.17 850.95
  A 0.91 0.91 0.0 0 0 681.78 850.18
  Q 672.10 856.15 661.06 858.82
  Q 647.47 862.10 637.74 862.68
  Q 626.43 863.35 625.25 863.41
  Q 617.76 863.81 612.75 863.46
  C 605.10 862.94 598.79 863.43 591.43 862.46
  C 574.79 860.26 562.44 857.13 549.08 850.40
  A 0.39 0.39 0.0 0 0 548.51 850.77"
/>
<path stroke="#763a3a" d="
  M 548.65 893.12
  C 548.81 899.46 548.34 906.98 548.62 914.06
  C 548.96 922.41 560.46 925.98 566.89 928.31
  Q 575.92 931.59 586.74 932.79
  Q 596.87 933.91 599.25 934.07
  Q 611.64 934.91 632.75 934.17
  Q 649.13 933.60 665.29 928.54
  C 671.69 926.53 682.32 921.94 682.73 914.49
  Q 683.31 903.84 683.08 897.49
  Q 683.05 896.65 683.15 893.19
  A 0.59 0.59 0.0 0 0 682.23 892.68
  Q 674.81 897.74 665.57 900.27
  Q 651.19 904.20 630.69 906.12
  Q 619.95 907.13 609.31 906.56
  Q 596.15 905.85 588.00 904.68
  Q 573.34 902.57 561.31 898.19
  Q 554.24 895.62 549.18 892.80
  A 0.36 0.36 0.0 0 0 548.65 893.12"
/>
<path stroke="#763a3a" d="
  M 1253.53 889.34
  A 4.76 4.76 0.0 0 0 1248.77 884.58
  L 1135.19 884.58
  A 4.76 4.76 0.0 0 0 1130.43 889.34
  L 1130.43 889.46
  A 4.76 4.76 0.0 0 0 1135.19 894.22
  L 1248.77 894.22
  A 4.76 4.76 0.0 0 0 1253.53 889.46
  L 1253.53 889.34"
/>
</g>
<g>
<path fill="#0d0f4d" d="
  M 1041.23 348.74
  A 0.34 0.33 -50.7 0 0 1040.64 348.80
  C 1039.91 350.61 1040.21 352.57 1039.75 354.73
  Q 1033.07 386.37 1006.26 400.73
  Q 995.98 406.23 983.46 407.70
  Q 979.69 408.14 959.50 408.14
  Q 711.31 408.12 620.92 408.15
  Q 594.71 408.16 588.64 407.24
  Q 571.23 404.61 555.94 395.05
  C 530.82 379.35 515.25 354.98 509.16 326.28
  Q 508.12 321.36 507.92 317.07
  C 507.74 313.09 507.03 309.36 507.16 304.68
  Q 507.86 278.64 519.83 256.60
  C 535.04 228.58 563.87 208.78 595.66 204.62
  Q 597.58 204.37 597.78 202.02
  Q 601.74 155.77 631.28 120.29
  Q 633.58 117.52 641.35 109.99
  C 654.57 97.18 670.62 87.98 688.19 81.69
  Q 697.63 78.31 704.95 77.09
  Q 733.46 72.36 758.05 75.92
  C 771.82 77.92 788.19 82.92 801.07 89.75
  C 817.48 98.46 830.93 109.95 842.78 124.17
  C 853.24 136.71 860.56 151.68 865.68 167.32
  Q 866.49 169.81 866.93 172.89
  A 0.92 0.92 0.0 0 0 867.99 173.67
  Q 871.70 173.07 877.87 172.23
  C 908.24 168.10 939.73 176.96 961.94 198.54
  Q 987.97 223.84 993.20 259.45
  C 994.23 266.46 994.00 272.45 993.87 279.93
  A 1.50 1.49 11.3 0 0 994.82 281.35
  C 1012.31 288.23 1027.16 299.76 1035.24 317.21
  C 1036.10 319.07 1036.32 320.65 1036.89 322.53
  A 0.62 0.62 0.0 0 0 1038.10 322.35
  Q 1038.06 238.52 1038.07 130.50
  C 1038.07 121.79 1037.55 114.95 1042.66 108.94
  Q 1045.44 105.67 1049.15 104.04
  Q 1051.36 103.07 1057.21 103.07
  Q 1249.41 103.06 1335.92 103.10
  Q 1341.80 103.10 1346.48 108.28
  Q 1351.44 113.77 1351.45 121.27
  Q 1351.67 333.18 1351.69 333.75
  C 1351.93 340.48 1352.20 345.81 1347.61 351.08
  C 1342.96 356.44 1338.53 357.16 1330.86 357.15
  Q 1317.92 357.14 1244.75 357.12
  Q 1239.14 357.12 1236.50 356.86
  A 1.14 1.14 0.0 0 0 1235.32 358.41
  Q 1236.35 361.06 1236.84 363.23
  Q 1239.76 375.95 1242.82 391.06
  A 0.66 0.65 -6.3 0 0 1243.48 391.58
  Q 1248.82 391.48 1269.37 391.36
  Q 1274.41 391.32 1275.83 392.20
  C 1279.25 394.30 1279.77 400.72 1275.67 402.66
  Q 1274.01 403.44 1269.90 403.44
  Q 1140.20 403.40 1124.73 403.50
  C 1120.49 403.53 1116.82 404.04 1115.18 400.22
  C 1113.35 395.98 1115.86 391.80 1120.52 391.66
  Q 1129.79 391.38 1147.54 391.44
  A 1.52 1.51 4.4 0 0 1149.04 390.16
  Q 1151.50 374.49 1156.04 357.93
  A 0.87 0.87 0.0 0 0 1155.16 356.83
  Q 1149.11 357.16 1142.75 357.16
  Q 1133.72 357.16 1058.99 357.15
  C 1052.21 357.15 1044.99 354.51 1041.23 348.74
  Z
  M 985.78 289.79
  C 982.92 288.81 980.77 286.50 981.27 283.43
  C 984.75 262.33 979.82 242.72 968.62 224.61
  Q 952.84 199.10 925.92 188.65
  C 907.09 181.34 885.53 181.09 866.02 186.43
  Q 859.24 188.29 857.62 182.14
  Q 853.59 166.81 852.28 163.33
  C 842.04 136.00 822.46 113.82 796.18 100.43
  Q 788.65 96.59 785.62 95.37
  C 771.01 89.47 754.76 86.07 738.58 85.87
  Q 733.09 85.81 728.26 85.93
  C 691.46 86.86 655.75 105.16 634.21 135.13
  Q 625.93 146.65 620.83 157.60
  Q 611.93 176.72 609.81 199.01
  Q 609.69 200.26 608.94 208.24
  Q 608.33 214.75 601.92 215.38
  Q 564.37 219.07 540.08 247.12
  C 519.41 270.98 513.92 303.57 522.64 333.47
  C 526.11 345.36 533.23 358.32 540.63 367.13
  Q 556.12 385.57 581.60 394.16
  C 589.13 396.70 598.11 397.52 605.75 397.51
  Q 742.05 397.48 963.17 397.48
  Q 979.68 397.48 981.83 397.22
  Q 991.33 396.10 999.60 391.85
  Q 1021.14 380.78 1027.39 357.22
  Q 1032.89 336.47 1023.33 318.54
  C 1015.58 303.99 1001.13 295.01 985.78 289.79
  Z
  M 1341.33 121.73
  A 7.88 7.88 0.0 0 0 1333.45 113.85
  L 1056.75 113.85
  A 7.88 7.88 0.0 0 0 1048.87 121.73
  L 1048.87 338.37
  A 7.88 7.88 0.0 0 0 1056.75 346.25
  L 1333.45 346.25
  A 7.88 7.88 0.0 0 0 1341.33 338.37
  L 1341.33 121.73
  Z
  M 1159.55 390.14
  A 1.89 1.89 0.0 0 0 1161.39 392.45
  L 1229.98 392.45
  A 1.89 1.89 0.0 0 0 1231.83 390.14
  L 1224.54 358.53
  A 1.89 1.89 0.0 0 0 1222.70 357.06
  L 1168.51 357.06
  A 1.89 1.89 0.0 0 0 1166.67 358.53
  L 1159.55 390.14
  Z"
/>
<path fill="#0d0f4d" d="
  M 345.26 191.39
  L 349.84 200.80
  A 2.26 2.24 78.9 0 0 351.68 202.05
  C 362.69 202.84 374.71 201.34 374.85 215.49
  Q 375.01 231.73 374.95 236.50
  Q 374.82 246.95 365.04 247.70
  Q 359.02 248.16 353.03 248.42
  Q 349.70 248.56 348.63 251.11
  Q 346.34 256.63 345.53 258.29
  Q 344.00 261.41 346.19 263.79
  C 352.61 270.79 361.54 279.10 352.81 288.87
  Q 346.63 295.80 337.18 304.30
  Q 333.44 307.67 330.64 308.00
  C 324.65 308.70 322.67 306.85 318.01 302.63
  Q 314.67 299.61 311.11 297.98
  C 308.06 296.57 301.47 300.41 299.06 301.92
  A 2.99 2.98 -13.7 0 0 297.68 304.18
  Q 296.94 312.77 296.44 315.99
  C 295.21 324.07 289.67 325.12 281.97 325.07
  Q 273.51 325.03 260.24 324.94
  Q 250.66 324.88 250.17 315.40
  Q 249.95 310.99 249.01 301.92
  A 2.64 2.63 5.3 0 0 247.13 299.66
  Q 242.70 298.38 239.00 297.77
  C 235.77 297.25 230.75 301.76 226.97 304.66
  Q 222.52 308.07 220.34 308.13
  C 214.78 308.27 213.08 306.51 208.51 302.46
  Q 202.08 296.78 195.93 290.15
  C 191.57 285.45 187.73 280.41 192.02 273.97
  Q 195.03 269.45 199.97 264.48
  C 202.52 261.92 202.42 259.74 201.06 256.43
  Q 199.44 252.47 198.74 250.77
  Q 197.83 248.55 195.25 248.45
  Q 191.51 248.31 183.79 248.07
  C 176.73 247.85 172.48 244.53 172.24 237.25
  Q 172.17 234.89 172.27 214.50
  Q 172.32 204.34 182.51 202.99
  Q 188.68 202.18 194.90 202.15
  A 3.49 3.49 0.0 0 0 197.91 200.40
  Q 200.54 195.85 202.27 191.28
  Q 202.95 189.51 201.33 187.88
  C 198.29 184.83 192.21 178.18 190.38 172.88
  C 189.19 169.43 192.11 164.88 194.41 162.15
  Q 200.74 154.67 207.05 149.03
  Q 213.67 143.12 215.55 142.47
  Q 220.89 140.63 226.07 144.49
  C 231.89 148.82 235.98 153.41 241.75 152.05
  C 245.49 151.17 249.50 150.31 249.76 145.99
  Q 249.93 143.15 250.26 135.53
  Q 250.73 124.59 261.47 124.35
  Q 277.91 124.00 286.53 124.69
  Q 295.25 125.40 296.52 134.12
  Q 297.53 141.04 297.65 145.80
  Q 297.69 147.25 298.53 148.62
  A 1.90 1.81 86.6 0 0 299.24 149.28
  C 303.31 151.37 309.70 153.86 313.17 151.17
  Q 319.90 145.96 323.02 143.90
  Q 329.98 139.30 335.82 145.12
  Q 346.51 155.75 352.39 161.73
  C 356.43 165.83 358.17 171.06 354.79 176.27
  Q 350.83 182.38 345.70 188.18
  A 2.92 2.92 0.0 0 0 345.26 191.39
  Z
  M 185.10 236.94
  Q 185.90 237.27 187.02 237.39
  Q 189.76 237.69 198.68 237.80
  C 202.53 237.85 205.91 238.60 207.37 242.17
  Q 209.90 248.34 213.90 257.36
  Q 215.72 261.47 212.97 265.22
  Q 209.96 269.30 206.14 274.13
  Q 204.51 276.20 204.01 278.08
  A 3.03 3.00 35.5 0 0 204.44 280.59
  Q 208.16 286.01 214.21 291.68
  C 217.17 294.45 219.55 295.11 222.87 293.08
  Q 225.39 291.54 232.68 286.22
  Q 235.01 284.52 237.60 284.92
  Q 245.22 286.09 253.86 290.13
  C 262.04 293.96 261.58 302.99 261.31 310.93
  A 1.83 1.83 0.0 0 0 263.14 312.83
  L 283.47 312.83
  A 1.39 1.38 88.1 0 0 284.85 311.35
  C 284.56 307.30 284.42 297.92 287.88 295.11
  Q 294.91 289.43 305.97 285.28
  C 307.89 284.56 309.32 283.85 311.31 285.02
  Q 317.58 288.69 321.07 290.22
  A 8.83 8.79 76.1 0 1 323.00 291.39
  C 324.38 292.49 328.28 295.72 330.33 294.07
  Q 333.62 291.44 342.34 282.34
  C 344.91 279.65 344.20 278.36 341.94 275.92
  C 337.12 270.70 330.60 264.95 333.06 258.30
  C 334.70 253.88 339.46 238.08 346.01 237.89
  Q 357.63 237.55 361.88 237.23
  A 2.10 2.10 0.0 0 0 363.82 235.26
  Q 364.25 228.35 363.61 217.36
  Q 363.43 214.17 360.06 214.05
  Q 348.26 213.63 346.60 213.49
  Q 342.49 213.14 340.42 209.32
  Q 336.01 201.16 335.20 199.33
  C 332.83 193.97 331.10 189.50 333.98 184.55
  C 336.03 181.04 339.39 177.18 342.93 173.87
  A 2.88 2.88 0.0 0 0 343.66 170.76
  Q 342.96 168.92 341.27 167.10
  Q 335.52 160.94 330.00 156.33
  A 2.62 2.52 -16.1 0 0 329.07 155.84
  Q 327.10 155.28 325.36 156.62
  C 320.32 160.51 315.52 164.64 309.23 164.79
  A 3.44 3.35 -35.0 0 1 308.05 164.60
  Q 306.75 164.14 297.90 161.96
  C 295.21 161.30 290.28 159.40 288.87 157.88
  Q 286.13 154.92 286.03 152.95
  Q 285.66 146.00 285.40 140.65
  Q 285.25 137.47 281.85 137.34
  Q 272.68 136.98 263.15 137.30
  A 1.90 1.88 3.7 0 0 261.34 138.88
  Q 260.05 146.72 260.15 152.64
  C 260.19 155.06 259.49 157.30 257.44 158.20
  Q 249.31 161.75 238.87 164.61
  C 236.44 165.28 234.73 164.79 232.67 163.56
  Q 228.21 160.88 222.73 156.78
  Q 219.59 154.42 216.43 156.92
  Q 209.75 162.18 204.24 169.08
  A 2.73 2.73 0.0 0 0 204.13 172.34
  Q 206.63 175.94 212.57 183.40
  Q 215.00 186.45 215.62 189.81
  A 3.48 3.44 -41.1 0 1 215.49 191.58
  Q 212.80 199.44 210.24 205.35
  C 205.73 215.80 195.60 213.81 187.51 214.23
  Q 184.50 214.38 184.60 216.96
  Q 185.01 227.01 184.07 235.19
  A 1.70 1.69 14.5 0 0 185.10 236.94
  Z"
/>
<path fill="#0d0f4d" d="
  M 553.70 165.70
  Q 543.61 156.20 533.16 145.10
  C 531.41 143.25 529.57 140.47 530.18 137.93
  Q 531.55 132.15 537.87 132.96
  Q 540.31 133.27 543.09 136.17
  Q 562.46 156.31 571.88 165.27
  Q 574.80 168.05 576.01 168.98
  A 1.97 1.89 8.8 0 1 576.59 169.74
  C 578.26 173.59 575.66 177.04 572.97 179.73
  Q 554.60 198.13 541.86 211.37
  Q 536.66 216.78 531.76 210.98
  Q 528.05 206.60 532.33 202.35
  Q 544.55 190.18 554.06 180.94
  A 0.64 0.63 -67.5 0 0 553.61 179.85
  Q 531.20 180.08 472.77 179.87
  Q 457.33 179.81 452.36 181.31
  C 441.69 184.53 432.87 193.17 429.77 204.31
  Q 428.80 207.82 428.77 214.30
  Q 428.72 225.22 428.88 240.23
  C 428.91 243.48 428.58 245.76 425.69 247.18
  C 421.70 249.14 417.35 245.64 417.31 241.50
  Q 417.08 216.87 417.35 209.30
  Q 417.43 206.75 418.96 200.47
  C 423.56 181.53 442.79 167.96 461.77 167.61
  C 492.29 167.04 523.02 167.44 553.13 167.15
  A 0.84 0.84 0.0 0 0 553.70 165.70
  Z"
/>
<rect fill="#0d0f4d" x="-5.70" y="-13.71" transform="translate(423.26,273.26) rotate(-0.4)" width="11.40" height="27.42" rx="5.44"/>
<rect fill="#0d0f4d" x="-5.74" y="-13.93" transform="translate(423.68,313.75) rotate(0.4)" width="11.48" height="27.86" rx="5.49"/>
<rect fill="#0d0f4d" x="-5.83" y="-14.18" transform="translate(423.79,353.08) rotate(-0.1)" width="11.66" height="28.36" rx="5.58"/>
<path fill="#0d0f4d" d="
  M 506.4507 635.3790
  A 32.11 32.11 0.0 0 1 474.2847 667.4329
  L 172.8251 666.9067
  A 32.11 32.11 0.0 0 1 140.7712 634.7407
  L 141.1493 418.1010
  A 32.11 32.11 0.0 0 1 173.3153 386.0471
  L 474.7749 386.5733
  A 32.11 32.11 0.0 0 1 506.8288 418.7393
  L 506.4507 635.3790
  Z
  M 153.83 442.12
  L 493.71 442.12
  A 1.87 1.87 0.0 0 0 495.58 440.25
  L 495.58 419.26
  A 21.84 21.66 -0.0 0 0 473.74 397.60
  L 173.80 397.60
  A 21.84 21.66 0.0 0 0 151.96 419.26
  L 151.96 440.25
  A 1.87 1.87 0.0 0 0 153.83 442.12
  Z
  M 323.58 655.43
  Q 387.18 655.44 470.25 655.39
  Q 476.94 655.39 479.02 654.98
  C 488.54 653.11 494.91 644.15 494.98 634.49
  Q 495.16 608.30 495.08 459.50
  Q 495.08 455.29 494.97 454.45
  A 0.87 0.86 4.4 0 0 494.36 453.75
  C 493.54 453.51 491.68 453.87 490.28 453.87
  Q 406.95 453.91 323.62 453.90
  Q 240.28 453.88 156.95 453.81
  C 155.55 453.81 153.69 453.45 152.87 453.69
  A 0.87 0.86 -4.4 0 0 152.26 454.39
  Q 152.15 455.23 152.15 459.44
  Q 152.02 608.24 152.19 634.43
  C 152.26 644.09 158.62 653.05 168.14 654.93
  Q 170.22 655.34 176.91 655.34
  Q 259.98 655.42 323.58 655.43
  Z"
/>
<path fill="#0d0f4d" d="
  M 1338.86 416.38
  C 1341.89 414.25 1345.43 414.43 1348.39 416.62
  Q 1358.58 424.17 1365.84 428.38
  Q 1392.88 444.04 1423.13 446.01
  C 1430.41 446.48 1432.56 450.06 1432.70 457.00
  Q 1432.72 458.46 1432.59 490.25
  Q 1432.53 504.04 1431.27 513.76
  Q 1428.92 531.86 1421.31 548.38
  Q 1414.29 563.62 1401.01 578.15
  C 1388.11 592.26 1372.85 603.46 1356.09 612.83
  Q 1351.71 615.28 1346.87 616.89
  Q 1341.17 618.79 1336.05 616.45
  Q 1328.68 613.07 1323.84 610.18
  C 1301.53 596.85 1281.47 578.95 1267.98 556.99
  C 1256.89 538.94 1251.76 516.79 1251.66 495.76
  Q 1251.55 471.10 1251.73 455.50
  C 1251.83 447.21 1256.52 446.37 1263.94 445.94
  C 1285.20 444.69 1306.77 437.14 1324.50 425.99
  Q 1330.66 422.13 1338.86 416.38
  Z
  M 1422.08 457.20
  A 1.14 1.13 -89.5 0 0 1420.99 456.08
  Q 1390.98 454.91 1364.89 440.34
  Q 1354.46 434.51 1345.50 427.97
  C 1343.76 426.70 1342.60 426.85 1340.96 427.95
  Q 1333.40 433.01 1324.96 438.16
  Q 1318.91 441.84 1304.30 447.74
  Q 1284.23 455.83 1262.91 456.12
  A 1.02 1.01 -90.0 0 0 1261.91 457.13
  Q 1261.78 474.80 1262.01 488.00
  Q 1262.29 503.87 1263.98 514.76
  C 1266.08 528.21 1271.36 541.42 1279.11 553.45
  Q 1291.67 572.96 1310.01 587.23
  Q 1325.33 599.14 1339.80 605.94
  C 1341.98 606.97 1343.67 607.14 1345.80 606.05
  Q 1361.54 597.94 1375.02 587.55
  C 1381.24 582.76 1387.58 576.33 1392.66 570.93
  Q 1415.73 546.45 1420.29 513.02
  C 1422.77 494.88 1422.40 475.39 1422.08 457.20
  Z"
/>
<path fill="#0d0f4d" d="
  M 747.54 442.26
  L 746.93 442.58
  A 1.08 0.96 -0.6 0 0 746.59 442.89
  Q 744.92 445.33 742.89 447.39
  Q 737.76 452.59 724.83 465.33
  C 721.02 469.08 717.79 472.54 713.35 468.08
  Q 708.91 463.63 714.29 458.35
  Q 722.19 450.62 749.55 423.67
  Q 754.65 418.64 759.80 423.81
  Q 767.52 431.55 793.90 458.37
  Q 795.16 459.65 796.03 460.99
  C 798.21 464.35 796.74 469.38 792.50 470.08
  Q 788.94 470.66 785.84 467.43
  Q 775.57 456.76 764.84 446.18
  Q 763.43 444.79 761.57 442.44
  A 0.68 0.68 0.0 0 0 760.36 442.77
  Q 760.06 444.83 760.06 448.25
  Q 760.05 464.64 760.06 552.48
  C 760.06 558.98 752.18 560.37 748.81 555.31
  C 747.84 553.84 748.03 549.29 748.02 546.61
  Q 747.98 502.25 748.07 448.00
  Q 748.08 445.73 748.44 442.89
  A 0.62 0.62 0.0 0 0 747.54 442.26
  Z"
/>
<rect fill="#0d0f4d" x="-5.60" y="-14.66" transform="translate(1195.47,437.77) rotate(-0.4)" width="11.20" height="29.32" rx="5.37"/>
<rect fill="#0d0f4d" x="950.99" y="423.91" width="11.08" height="28.22" rx="5.16"/>
<rect fill="#0d0f4d" x="951.03" y="462.93" width="10.92" height="28.04" rx="5.23"/>
<path fill="#0d0f4d" d="
  M 1190.63 494.13
  Q 1183.51 502.22 1173.51 506.24
  C 1169.72 507.76 1163.93 509.34 1161.30 505.49
  C 1158.92 502.00 1160.04 499.02 1163.81 497.48
  C 1170.92 494.56 1176.47 492.56 1181.88 486.42
  C 1187.28 480.28 1188.56 474.52 1190.55 467.09
  C 1191.60 463.16 1194.41 461.67 1198.18 463.59
  C 1202.33 465.71 1201.50 471.65 1200.47 475.60
  Q 1197.76 486.03 1190.63 494.13
  Z"
/>
<rect fill="#0d0f4d" x="-13.59" y="-5.96" transform="translate(1017.53,502.97) rotate(0.1)" width="27.18" height="11.92" rx="5.69"/>
<rect fill="#0d0f4d" x="-12.66" y="-6.00" transform="translate(1056.52,502.93) rotate(-0.4)" width="25.32" height="12.00" rx="5.62"/>
<rect fill="#0d0f4d" x="-13.61" y="-5.97" transform="translate(1095.51,502.93) rotate(-0.8)" width="27.22" height="11.94" rx="5.70"/>
<rect fill="#0d0f4d" x="-13.57" y="-6.00" transform="translate(1135.46,502.96) rotate(-0.5)" width="27.14" height="12.00" rx="5.62"/>
<rect fill="#0d0f4d" x="-5.60" y="-13.80" transform="translate(956.64,518.47) rotate(0.4)" width="11.20" height="27.60" rx="5.36"/>
<path fill="#0d0f4d" d="
  M 979.66 531.59
  C 975.48 530.65 975.73 519.15 976.16 516.34
  C 976.87 511.66 979.99 508.60 985.09 510.23
  Q 990.04 511.80 989.37 517.31
  C 988.64 523.33 987.17 533.29 979.66 531.59
  Z"
/>
<rect fill="#0d0f4d" x="-15.49" y="-6.09" transform="translate(542.68,518.65) rotate(-0.2)" width="30.98" height="12.18" rx="5.76"/>
<rect fill="#0d0f4d" x="570.93" y="512.56" width="28.64" height="12.12" rx="5.58"/>
<rect fill="#0d0f4d" x="-14.23" y="-6.07" transform="translate(627.87,518.58) rotate(0.1)" width="28.46" height="12.14" rx="5.50"/>
<rect fill="#0d0f4d" x="655.09" y="512.54" width="27.72" height="12.22" rx="5.57"/>
<rect fill="#0d0f4d" x="-13.59" y="-6.08" transform="translate(709.53,518.61) rotate(-0.5)" width="27.18" height="12.16" rx="4.90"/>
<rect fill="#0d0f4d" x="-5.88" y="-14.57" transform="translate(981.14,558.59) rotate(-0.6)" width="11.76" height="29.14" rx="5.62"/>
<rect fill="#0d0f4d" x="-5.74" y="-14.72" transform="translate(956.82,559.78) rotate(0.5)" width="11.48" height="29.44" rx="5.50"/>
<rect fill="#0d0f4d" x="-5.73" y="-14.52" transform="translate(753.75,585.48) rotate(0.5)" width="11.46" height="29.04" rx="5.49"/>
<rect fill="#0d0f4d" x="-5.80" y="-14.36" transform="translate(981.21,602.15) rotate(0.1)" width="11.60" height="28.72" rx="5.55"/>
<rect fill="#0d0f4d" x="-5.64" y="-14.34" transform="translate(956.76,602.34) rotate(0.6)" width="11.28" height="28.68" rx="5.40"/>
<path fill="#0d0f4d" d="
  M 612.61 728.59
  A 0.85 0.85 0.0 0 0 614.12 728.06
  Q 613.98 701.84 613.89 683.22
  Q 613.84 671.60 615.57 664.45
  Q 620.48 644.30 636.63 631.16
  C 649.80 620.44 668.80 614.54 685.49 614.51
  Q 718.51 614.46 742.40 614.62
  A 8.09 7.99 33.3 0 0 745.69 613.96
  C 749.32 612.39 755.27 608.65 758.50 612.98
  C 761.31 616.74 760.06 621.53 756.26 624.02
  C 753.88 625.58 751.05 625.94 747.79 625.94
  Q 727.16 625.96 693.36 625.94
  Q 682.01 625.93 676.68 626.84
  C 663.53 629.08 651.89 633.27 641.66 642.20
  Q 629.01 653.25 625.78 670.07
  Q 624.87 674.79 625.04 694.49
  Q 625.23 716.07 624.91 729.02
  Q 624.90 729.32 625.28 729.50
  Q 625.87 729.79 626.30 729.27
  C 630.51 724.19 634.32 718.89 639.48 716.33
  C 642.52 714.83 645.23 718.52 646.25 721.01
  C 647.26 723.43 645.58 726.03 644.02 727.53
  C 636.79 734.49 630.85 742.02 623.95 748.41
  Q 621.88 750.32 619.10 750.10
  Q 617.72 749.99 614.98 747.35
  Q 610.13 742.66 595.87 727.65
  Q 589.97 721.43 596.53 716.81
  C 599.85 714.46 602.62 717.08 605.10 719.83
  Q 609.59 724.79 612.61 728.59
  Z"
/>
<path fill="#0d0f4d" d="
  M 1021.70 851.83
  Q 1021.87 783.58 1021.79 649.81
  C 1021.79 646.71 1021.54 640.46 1022.73 636.88
  C 1024.95 630.22 1030.38 626.17 1036.98 625.12
  Q 1038.84 624.83 1047.05 624.83
  Q 1249.73 624.89 1341.49 624.69
  C 1344.00 624.68 1348.14 624.57 1350.49 625.33
  Q 1359.27 628.20 1362.63 635.81
  Q 1364.10 639.14 1364.07 649.95
  Q 1363.91 712.56 1364.00 850.75
  Q 1364.01 853.07 1365.91 855.80
  Q 1377.93 873.08 1392.95 895.60
  Q 1397.13 901.87 1400.21 906.53
  C 1402.97 910.72 1404.21 914.39 1403.68 919.36
  C 1402.38 931.41 1394.29 939.96 1382.88 942.96
  Q 1379.20 943.92 1371.03 943.92
  Q 1160.61 943.93 1013.00 943.93
  Q 999.50 943.93 991.47 936.17
  C 983.16 928.15 978.22 917.13 985.65 906.38
  Q 1001.41 883.57 1018.54 858.30
  Q 1020.64 855.20 1021.48 853.02
  A 3.43 3.27 -35.9 0 0 1021.70 851.83
  Z
  M 1193.04 635.51
  Q 1124.65 635.51 1046.25 635.58
  Q 1040.28 635.58 1038.38 636.05
  A 4.65 4.48 22.5 0 0 1037.21 636.51
  Q 1032.02 639.34 1031.98 647.01
  Q 1031.81 676.59 1031.91 847.77
  Q 1031.91 849.77 1034.15 849.78
  Q 1087.30 849.95 1193.04 849.96
  Q 1298.78 849.96 1351.92 849.79
  Q 1354.16 849.78 1354.16 847.78
  Q 1354.28 676.60 1354.11 647.02
  Q 1354.07 639.35 1348.88 636.52
  A 4.65 4.48 -22.4 0 0 1347.71 636.06
  Q 1345.81 635.59 1339.84 635.59
  Q 1261.44 635.51 1193.04 635.51
  Z
  M 1193.27 908.40
  Q 1386.47 908.42 1386.99 908.43
  A 0.79 0.79 0.0 0 0 1387.66 907.21
  L 1356.74 861.06
  A 2.64 2.62 -13.9 0 0 1354.80 859.90
  Q 1353.95 859.79 1350.00 859.78
  C 1290.13 859.70 1237.88 859.49 1193.28 859.49
  C 1148.68 859.48 1096.43 859.68 1036.56 859.75
  Q 1032.61 859.76 1031.76 859.87
  A 2.64 2.62 13.9 0 0 1029.82 861.03
  L 998.89 907.17
  A 0.79 0.79 0.0 0 0 999.56 908.40
  Q 1000.08 908.39 1193.27 908.40
  Z
  M 1392.51 920.77
  A 1.62 1.61 -83.6 0 0 1390.71 918.51
  Q 1388.08 919.08 1387.01 919.15
  Q 1384.34 919.30 1379.50 918.95
  Q 1373.81 918.54 1372.00 918.62
  C 1366.55 918.85 1361.55 918.46 1355.01 918.45
  Q 1138.23 918.30 1044.75 918.52
  Q 1020.03 918.58 1007.01 918.61
  C 1002.78 918.62 997.73 917.71 993.88 918.16
  A 0.96 0.95 -6.1 0 0 993.04 919.20
  C 993.54 924.76 998.16 929.70 1002.88 932.01
  Q 1005.63 933.37 1011.45 933.43
  Q 1041.48 933.77 1063.08 933.62
  Q 1083.57 933.48 1090.41 933.55
  Q 1105.55 933.69 1117.75 933.68
  Q 1220.49 933.57 1333.75 933.66
  Q 1344.51 933.66 1374.00 933.46
  C 1381.03 933.41 1384.87 931.93 1388.99 927.04
  Q 1390.35 925.42 1392.51 920.77
  Z"
/>
<rect fill="#0d0f4d" x="951.03" y="629.23" width="10.92" height="29.58" rx="5.25"/>
<rect fill="#0d0f4d" x="-5.81" y="-13.89" transform="translate(753.99,658.78) rotate(0.5)" width="11.62" height="27.78" rx="5.54"/>
<path fill="#0d0f4d" d="
  M 953.39 670.38
  C 959.24 667.54 962.76 674.04 961.54 679.08
  C 958.44 692.00 948.47 702.43 936.60 707.76
  Q 930.00 710.73 928.03 703.99
  Q 926.76 699.69 930.96 697.73
  Q 941.57 692.77 947.06 683.98
  C 949.36 680.31 950.39 674.39 952.58 671.08
  A 2.01 1.91 2.7 0 1 953.39 670.38
  Z"
/>
<path fill="#0d0f4d" d="
  M 754.07 696.26
  C 751.61 693.13 753.26 690.27 755.66 687.39
  C 758.33 684.18 761.24 686.71 763.63 689.44
  Q 769.78 696.45 779.82 698.53
  Q 782.37 699.06 786.76 698.96
  C 792.36 698.82 797.12 697.90 800.11 701.14
  Q 802.48 703.71 800.59 707.64
  Q 798.86 711.24 793.97 711.54
  C 786.89 711.97 776.29 711.11 769.86 708.37
  Q 760.46 704.39 754.07 696.26
  Z"
/>
<rect fill="#0d0f4d" x="-13.98" y="-6.13" transform="translate(826.19,704.71) rotate(0.2)" width="27.96" height="12.26" rx="5.80"/>
<rect fill="#0d0f4d" x="-13.48" y="-6.09" transform="translate(903.12,704.75) rotate(0.5)" width="26.96" height="12.18" rx="5.76"/>
<rect fill="#0d0f4d" x="-13.12" y="-6.11" transform="translate(865.09,704.76) rotate(0.4)" width="26.24" height="12.22" rx="5.58"/>
<path fill="#0d0f4d" d="
  M 344.55 738.63
  Q 345.07 740.86 345.03 749.50
  Q 344.93 766.61 345.06 868.25
  Q 345.07 877.82 345.27 882.25
  C 345.64 890.57 340.17 898.68 333.89 903.89
  Q 323.59 912.45 310.07 917.07
  Q 293.09 922.88 276.74 924.70
  C 272.77 925.14 264.92 925.89 258.82 925.96
  Q 250.16 926.04 239.61 926.03
  C 231.63 926.02 225.15 925.18 216.40 924.47
  C 194.46 922.68 154.15 912.04 148.63 886.32
  Q 148.06 883.65 148.05 876.64
  Q 147.95 760.96 148.14 743.09
  Q 148.21 736.29 153.49 729.47
  Q 158.86 722.53 168.78 718.03
  Q 182.80 711.67 197.72 708.97
  C 209.74 706.79 222.20 705.10 235.51 705.04
  Q 254.83 704.94 262.00 705.28
  Q 262.87 705.32 275.18 706.38
  Q 283.40 707.09 288.31 707.95
  Q 306.11 711.10 310.38 712.41
  C 323.52 716.43 341.08 723.77 344.55 738.63
  Z
  M 160.00 740.73
  C 158.29 744.29 159.03 746.80 161.69 749.61
  Q 164.32 752.37 168.62 754.65
  Q 180.49 760.94 192.81 763.72
  C 204.00 766.24 213.67 767.98 224.38 769.30
  Q 230.52 770.06 235.17 770.08
  Q 246.13 770.13 254.23 770.07
  C 259.12 770.03 264.97 768.75 268.99 768.62
  Q 290.55 767.91 311.32 760.80
  Q 319.99 757.84 325.94 754.17
  C 329.13 752.20 334.85 746.71 334.50 742.30
  Q 334.22 738.76 332.19 736.81
  Q 322.69 727.68 309.41 723.89
  Q 293.90 719.47 278.79 717.86
  C 270.11 716.93 260.97 716.92 252.57 716.41
  Q 241.74 715.74 232.91 716.05
  Q 207.49 716.95 182.82 724.35
  C 173.78 727.06 164.14 732.08 160.00 740.73
  Z
  M 159.66 763.11
  Q 160.18 772.94 159.75 786.76
  Q 159.60 791.51 161.79 794.30
  C 164.22 797.40 169.84 801.28 174.10 803.23
  Q 180.82 806.31 187.76 808.28
  C 198.40 811.29 208.53 813.64 219.07 814.50
  C 224.82 814.97 233.98 815.87 241.81 815.98
  C 250.75 816.09 255.45 816.61 262.62 815.44
  Q 264.76 815.09 269.88 814.80
  Q 279.41 814.26 290.34 812.16
  C 295.16 811.24 299.27 809.69 303.79 808.83
  C 311.06 807.46 334.91 797.96 334.83 788.73
  Q 334.66 769.81 334.79 761.42
  A 0.48 0.48 0.0 0 0 334.03 761.03
  C 327.26 766.03 319.01 769.27 310.74 772.02
  Q 305.32 773.82 297.09 775.35
  Q 289.25 776.80 283.24 777.81
  Q 271.07 779.87 256.50 779.95
  C 242.40 780.03 231.72 780.61 220.19 779.26
  Q 200.62 776.96 189.22 774.01
  Q 174.67 770.25 160.74 762.43
  A 0.73 0.73 0.0 0 0 159.66 763.11
  Z
  M 160.35 806.95
  A 0.41 0.41 0.0 0 0 159.70 807.31
  Q 160.22 815.79 159.99 833.00
  Q 159.95 836.42 160.12 840.45
  C 160.30 844.68 164.81 847.85 168.00 849.74
  Q 187.93 861.51 210.76 863.74
  C 223.08 864.94 231.38 866.11 241.45 866.03
  C 248.13 865.97 255.17 866.46 262.84 865.74
  Q 274.63 864.64 282.24 863.70
  Q 298.76 861.66 313.95 855.69
  Q 320.39 853.16 325.92 849.45
  C 329.30 847.19 334.83 842.11 334.78 837.95
  Q 334.59 820.98 334.90 807.41
  A 0.83 0.82 -16.9 0 0 333.60 806.72
  C 325.10 812.68 316.96 815.44 306.27 818.64
  Q 290.66 823.31 275.30 824.90
  C 270.73 825.38 265.97 825.05 260.92 825.38
  Q 238.60 826.85 216.57 824.87
  Q 197.07 823.11 176.87 815.90
  Q 168.41 812.88 160.35 806.95
  Z
  M 160.17 856.99
  A 0.50 0.49 -8.2 0 0 159.80 857.48
  Q 160.13 872.93 159.98 884.25
  C 159.88 891.94 168.96 898.48 175.38 901.63
  Q 191.21 909.39 207.32 911.68
  C 213.10 912.50 221.60 913.73 228.94 913.94
  C 239.08 914.23 248.42 915.50 259.57 914.38
  C 265.36 913.80 272.16 914.16 278.14 913.25
  Q 292.52 911.05 307.13 906.17
  C 316.94 902.89 334.28 894.02 334.63 882.41
  Q 334.93 872.87 334.64 856.85
  A 0.62 0.62 0.0 0 0 333.67 856.35
  C 327.79 860.31 321.70 862.80 314.58 866.04
  Q 308.38 868.87 302.74 870.25
  Q 288.29 873.78 269.21 875.62
  Q 264.66 876.06 260.77 875.92
  C 254.57 875.69 247.48 875.65 239.67 875.87
  Q 228.49 876.19 223.76 875.75
  C 209.55 874.44 195.33 872.12 180.03 867.45
  Q 170.80 864.64 160.54 857.10
  A 0.23 0.22 -19.7 0 0 160.45 857.06
  Q 160.22 856.98 160.17 856.99
  Z"
/>
<path fill="#0d0f4d" d="
  M 759.76 893.96
  C 754.64 894.85 749.79 893.70 747.22 889.04
  Q 738.98 874.12 712.24 824.49
  Q 706.39 813.61 702.98 802.01
  C 699.80 791.22 699.90 776.54 704.11 765.47
  C 712.18 744.27 729.98 729.48 752.67 727.62
  C 779.69 725.40 805.18 743.59 812.41 770.13
  C 815.58 781.80 814.37 794.47 810.98 806.29
  Q 809.23 812.39 801.60 826.35
  Q 795.26 837.95 775.08 876.07
  C 772.67 880.61 768.98 887.82 764.57 892.06
  C 763.15 893.42 761.93 893.59 759.76 893.96
  Z
  M 756.01 881.28
  A 1.63 1.63 0.0 0 0 758.34 881.21
  Q 760.14 879.27 761.18 877.41
  Q 773.98 854.50 786.56 831.29
  Q 792.80 819.78 797.86 808.84
  C 804.63 794.23 805.58 777.95 797.81 763.80
  C 791.83 752.89 781.86 743.94 770.03 740.40
  Q 763.82 738.55 755.69 738.66
  C 743.04 738.85 733.46 743.99 724.82 752.62
  C 717.89 759.54 713.09 770.78 711.96 780.65
  C 710.72 791.37 714.38 804.36 719.45 813.82
  Q 745.02 861.49 753.78 878.19
  Q 754.78 880.09 756.01 881.28
  Z"
/>
<path fill="#0d0f4d" d="
  M 546.33 929.96
  C 541.71 926.32 538.91 921.60 538.89 915.75
  Q 538.68 855.16 538.74 800.63
  Q 538.75 790.81 539.08 789.39
  C 540.29 784.30 543.62 780.82 548.35 778.18
  Q 556.61 773.56 565.75 771.52
  C 572.83 769.93 580.42 768.31 588.17 767.68
  Q 601.78 766.58 615.83 766.31
  C 625.18 766.13 634.57 767.18 645.75 768.02
  Q 653.67 768.62 667.20 772.03
  C 675.76 774.18 688.05 779.67 692.07 788.04
  Q 693.08 790.16 693.08 796.35
  C 693.05 844.05 693.28 881.00 692.97 912.92
  Q 692.90 919.60 691.48 922.43
  Q 689.04 927.26 684.50 930.69
  C 674.41 938.31 663.52 941.28 650.50 943.53
  C 641.09 945.15 634.97 945.17 622.82 945.81
  Q 603.91 946.80 583.48 943.74
  C 574.99 942.47 566.99 940.14 558.63 937.16
  Q 552.81 935.08 546.33 929.96
  Z
  M 615.80 810.34
  Q 627.27 810.32 632.36 810.07
  Q 652.04 809.11 670.13 802.68
  C 674.45 801.15 688.44 794.81 678.71 788.65
  Q 676.19 787.06 674.68 786.46
  Q 661.81 781.37 647.76 779.71
  Q 633.46 778.02 628.48 777.91
  Q 625.68 777.84 615.75 777.85
  Q 605.83 777.87 603.02 777.94
  Q 598.05 778.07 583.75 779.80
  Q 569.71 781.50 556.85 786.62
  Q 555.34 787.23 552.83 788.82
  C 543.11 795.01 557.12 801.31 561.44 802.83
  Q 579.55 809.21 599.24 810.12
  Q 604.32 810.36 615.80 810.34
  Z
  M 682.01 807.59
  Q 681.21 807.77 681.10 807.84
  C 676.86 810.58 671.58 813.00 665.57 814.65
  Q 646.02 820.01 626.49 820.73
  C 598.98 821.74 574.06 819.68 550.02 808.89
  A 0.74 0.73 -75.9 0 0 548.99 809.51
  Q 548.20 820.95 548.62 832.63
  C 548.90 840.53 561.98 845.30 567.88 847.12
  Q 583.90 852.08 600.75 853.04
  Q 604.71 853.27 621.66 853.20
  Q 626.18 853.18 631.32 852.64
  Q 632.55 852.51 640.98 851.87
  Q 655.93 850.73 670.36 844.34
  C 675.82 841.93 682.98 837.45 683.08 830.81
  Q 683.29 817.03 683.11 808.44
  A 0.90 0.89 82.4 0 0 682.01 807.59
  Z
  M 548.51 850.77
  C 548.81 857.75 547.90 867.12 549.04 875.76
  A 4.46 4.42 26.9 0 0 549.57 877.36
  Q 552.21 882.13 557.58 884.96
  Q 570.20 891.59 584.66 893.84
  Q 605.70 897.12 625.25 895.96
  Q 640.08 895.08 643.01 894.75
  C 654.37 893.48 668.04 890.04 677.38 882.66
  C 681.50 879.40 682.90 876.68 683.02 871.19
  Q 683.24 861.37 683.17 850.95
  A 0.91 0.91 0.0 0 0 681.78 850.18
  Q 672.10 856.15 661.06 858.82
  Q 647.47 862.10 637.74 862.68
  Q 626.43 863.35 625.25 863.41
  Q 617.76 863.81 612.75 863.46
  C 605.10 862.94 598.79 863.43 591.43 862.46
  C 574.79 860.26 562.44 857.13 549.08 850.40
  A 0.39 0.39 0.0 0 0 548.51 850.77
  Z
  M 548.65 893.12
  C 548.81 899.46 548.34 906.98 548.62 914.06
  C 548.96 922.41 560.46 925.98 566.89 928.31
  Q 575.92 931.59 586.74 932.79
  Q 596.87 933.91 599.25 934.07
  Q 611.64 934.91 632.75 934.17
  Q 649.13 933.60 665.29 928.54
  C 671.69 926.53 682.32 921.94 682.73 914.49
  Q 683.31 903.84 683.08 897.49
  Q 683.05 896.65 683.15 893.19
  A 0.59 0.59 0.0 0 0 682.23 892.68
  Q 674.81 897.74 665.57 900.27
  Q 651.19 904.20 630.69 906.12
  Q 619.95 907.13 609.31 906.56
  Q 596.15 905.85 588.00 904.68
  Q 573.34 902.57 561.31 898.19
  Q 554.24 895.62 549.18 892.80
  A 0.36 0.36 0.0 0 0 548.65 893.12
  Z"
/>
<path fill="#0d0f4d" d="
  M 967.19 853.25
  A 0.68 0.68 0.0 0 0 966.73 852.07
  Q 915.05 852.24 833.04 852.15
  C 825.12 852.14 823.14 841.28 831.30 840.61
  Q 833.04 840.46 841.50 840.46
  C 907.00 840.44 946.42 840.42 966.49 840.24
  A 0.84 0.84 0.0 0 0 967.08 838.80
  Q 953.79 825.58 945.49 817.26
  C 943.42 815.19 940.98 812.20 942.31 809.31
  Q 944.03 805.53 948.42 805.25
  A 2.20 2.19 -32.2 0 1 949.62 805.52
  Q 952.22 806.91 953.49 808.18
  Q 972.55 827.32 985.02 839.65
  C 987.71 842.31 989.96 845.61 987.52 849.30
  Q 985.22 852.76 980.58 857.33
  Q 970.83 866.94 956.04 881.52
  C 951.86 885.65 948.37 888.12 943.14 884.71
  Q 942.36 884.20 941.39 882.22
  C 940.42 880.24 942.39 877.50 943.68 876.18
  Q 957.57 862.06 967.19 853.25
  Z"
/>
<rect fill="#0d0f4d" x="-12.75" y="-5.93" transform="translate(380.74,824.04) rotate(0.1)" width="25.50" height="11.86" rx="5.27"/>
<rect fill="#0d0f4d" x="-13.20" y="-5.93" transform="translate(417.80,824.01) rotate(0.4)" width="26.40" height="11.86" rx="5.66"/>
<rect fill="#0d0f4d" x="-13.55" y="-5.92" transform="translate(455.52,824.01) rotate(-0.4)" width="27.10" height="11.84" rx="5.66"/>
<rect fill="#0d0f4d" x="-13.98" y="-5.94" transform="translate(494.93,824.04) rotate(-0.2)" width="27.96" height="11.88" rx="5.55"/>
</g>
<g>
<path fill="#df6526" d="
  M 981.27 283.43
  C 980.77 286.50 982.92 288.81 985.78 289.79
  C 1001.13 295.01 1015.58 303.99 1023.33 318.54
  Q 1032.89 336.47 1027.39 357.22
  Q 1021.14 380.78 999.60 391.85
  Q 991.33 396.10 981.83 397.22
  Q 979.68 397.48 963.17 397.48
  Q 742.05 397.48 605.75 397.51
  C 598.11 397.52 589.13 396.70 581.60 394.16
  Q 556.12 385.57 540.63 367.13
  C 533.23 358.32 526.11 345.36 522.64 333.47
  C 513.92 303.57 519.41 270.98 540.08 247.12
  Q 564.37 219.07 601.92 215.38
  Q 608.33 214.75 608.94 208.24
  Q 609.69 200.26 609.81 199.01
  Q 611.93 176.72 620.83 157.60
  Q 625.93 146.65 634.21 135.13
  C 655.75 105.16 691.46 86.86 728.26 85.93
  Q 733.09 85.81 738.58 85.87
  C 754.76 86.07 771.01 89.47 785.62 95.37
  Q 788.65 96.59 796.18 100.43
  C 822.46 113.82 842.04 136.00 852.28 163.33
  Q 853.59 166.81 857.62 182.14
  Q 859.24 188.29 866.02 186.43
  C 885.53 181.09 907.09 181.34 925.92 188.65
  Q 952.84 199.10 968.62 224.61
  C 979.82 242.72 984.75 262.33 981.27 283.43
  Z
  M 682.29 201.21
  C 674.23 209.27 669.69 218.97 668.79 230.52
  Q 667.77 243.75 667.41 248.77
  Q 666.92 255.78 667.20 286.06
  C 667.27 294.28 668.18 301.94 668.67 309.77
  Q 670.01 331.27 686.47 344.32
  Q 696.96 352.65 709.75 353.85
  Q 725.57 355.32 730.76 355.52
  Q 744.43 356.02 768.65 355.66
  C 776.64 355.54 782.37 354.79 792.00 354.06
  C 803.58 353.17 813.54 348.66 821.68 340.52
  C 829.82 332.37 834.32 322.41 835.20 310.82
  C 835.93 301.20 836.68 295.47 836.79 287.48
  Q 837.14 263.25 836.63 249.59
  Q 836.42 244.40 834.94 228.58
  Q 833.74 215.79 825.40 205.30
  Q 812.34 188.85 790.84 187.52
  C 783.01 187.04 775.35 186.13 767.13 186.07
  Q 736.85 185.81 729.84 186.30
  Q 724.82 186.67 711.59 187.70
  C 700.04 188.60 690.34 193.15 682.29 201.21
  Z"
/>
<path fill="#df6526" d="
  M 1341.33 338.37
  A 7.88 7.88 0.0 0 1 1333.45 346.25
  L 1056.75 346.25
  A 7.88 7.88 0.0 0 1 1048.87 338.37
  L 1048.87 121.73
  A 7.88 7.88 0.0 0 1 1056.75 113.85
  L 1333.45 113.85
  A 7.88 7.88 0.0 0 1 1341.33 121.73
  L 1341.33 338.37
  Z
  M 1324.94 138.59
  A 6.71 6.71 0.0 0 0 1318.23 131.88
  L 1074.59 131.88
  A 6.71 6.71 0.0 0 0 1067.88 138.59
  L 1067.88 302.85
  A 6.71 6.71 0.0 0 0 1074.59 309.56
  L 1318.23 309.56
  A 6.71 6.71 0.0 0 0 1324.94 302.85
  L 1324.94 138.59
  Z
  M 1204.6675 327.5509
  A 5.35 5.35 0.0 0 0 1199.2895 322.2290
  L 1191.2496 322.2711
  A 5.35 5.35 0.0 0 0 1185.9277 327.6491
  L 1185.9325 328.5691
  A 5.35 5.35 0.0 0 0 1191.3105 333.8910
  L 1199.3504 333.8489
  A 5.35 5.35 0.0 0 0 1204.6723 328.4709
  L 1204.6675 327.5509
  Z"
/>
<path fill="#42657f" d="
  M 185.10 236.94
  A 1.70 1.69 14.5 0 1 184.07 235.19
  Q 185.01 227.01 184.60 216.96
  Q 184.50 214.38 187.51 214.23
  C 195.60 213.81 205.73 215.80 210.24 205.35
  Q 212.80 199.44 215.49 191.58
  A 3.48 3.44 -41.1 0 0 215.62 189.81
  Q 215.00 186.45 212.57 183.40
  Q 206.63 175.94 204.13 172.34
  A 2.73 2.73 0.0 0 1 204.24 169.08
  Q 209.75 162.18 216.43 156.92
  Q 219.59 154.42 222.73 156.78
  Q 228.21 160.88 232.67 163.56
  C 234.73 164.79 236.44 165.28 238.87 164.61
  Q 249.31 161.75 257.44 158.20
  C 259.49 157.30 260.19 155.06 260.15 152.64
  Q 260.05 146.72 261.34 138.88
  A 1.90 1.88 3.7 0 1 263.15 137.30
  Q 272.68 136.98 281.85 137.34
  Q 285.25 137.47 285.40 140.65
  Q 285.66 146.00 286.03 152.95
  Q 286.13 154.92 288.87 157.88
  C 290.28 159.40 295.21 161.30 297.90 161.96
  Q 306.75 164.14 308.05 164.60
  A 3.44 3.35 -35.0 0 0 309.23 164.79
  C 315.52 164.64 320.32 160.51 325.36 156.62
  Q 327.10 155.28 329.07 155.84
  A 2.62 2.52 -16.1 0 1 330.00 156.33
  Q 335.52 160.94 341.27 167.10
  Q 342.96 168.92 343.66 170.76
  A 2.88 2.88 0.0 0 1 342.93 173.87
  C 339.39 177.18 336.03 181.04 333.98 184.55
  C 331.10 189.50 332.83 193.97 335.20 199.33
  Q 336.01 201.16 340.42 209.32
  Q 342.49 213.14 346.60 213.49
  Q 348.26 213.63 360.06 214.05
  Q 363.43 214.17 363.61 217.36
  Q 364.25 228.35 363.82 235.26
  A 2.10 2.10 0.0 0 1 361.88 237.23
  Q 357.63 237.55 346.01 237.89
  C 339.46 238.08 334.70 253.88 333.06 258.30
  C 330.60 264.95 337.12 270.70 341.94 275.92
  C 344.20 278.36 344.91 279.65 342.34 282.34
  Q 333.62 291.44 330.33 294.07
  C 328.28 295.72 324.38 292.49 323.00 291.39
  A 8.83 8.79 76.1 0 0 321.07 290.22
  Q 317.58 288.69 311.31 285.02
  C 309.32 283.85 307.89 284.56 305.97 285.28
  Q 294.91 289.43 287.88 295.11
  C 284.42 297.92 284.56 307.30 284.85 311.35
  A 1.39 1.38 88.1 0 1 283.47 312.83
  L 263.14 312.83
  A 1.83 1.83 0.0 0 1 261.31 310.93
  C 261.58 302.99 262.04 293.96 253.86 290.13
  Q 245.22 286.09 237.60 284.92
  Q 235.01 284.52 232.68 286.22
  Q 225.39 291.54 222.87 293.08
  C 219.55 295.11 217.17 294.45 214.21 291.68
  Q 208.16 286.01 204.44 280.59
  A 3.03 3.00 35.5 0 1 204.01 278.08
  Q 204.51 276.20 206.14 274.13
  Q 209.96 269.30 212.97 265.22
  Q 215.72 261.47 213.90 257.36
  Q 209.90 248.34 207.37 242.17
  C 205.91 238.60 202.53 237.85 198.68 237.80
  Q 189.76 237.69 187.02 237.39
  Q 185.90 237.27 185.10 236.94
  Z
  M 316.2458 216.8340
  A 43.29 42.78 -10.2 0 0 266.0643 182.3961
  A 43.29 42.78 -10.2 0 0 231.0342 232.1660
  A 43.29 42.78 -10.2 0 0 281.2157 266.6039
  A 43.29 42.78 -10.2 0 0 316.2458 216.8340
  Z"
/>
<path fill="#df6526" d="
  M 1159.55 390.14
  L 1166.67 358.53
  A 1.89 1.89 0.0 0 1 1168.51 357.06
  L 1222.70 357.06
  A 1.89 1.89 0.0 0 1 1224.54 358.53
  L 1231.83 390.14
  A 1.89 1.89 0.0 0 1 1229.98 392.45
  L 1161.39 392.45
  A 1.89 1.89 0.0 0 1 1159.55 390.14
  Z"
/>
<path fill="#42657f" d="
  M 153.83 442.12
  A 1.87 1.87 0.0 0 1 151.96 440.25
  L 151.96 419.26
  A 21.84 21.66 0.0 0 1 173.80 397.60
  L 473.74 397.60
  A 21.84 21.66 -0.0 0 1 495.58 419.26
  L 495.58 440.25
  A 1.87 1.87 0.0 0 1 493.71 442.12
  L 153.83 442.12
  Z
  M 264.4166 416.2167
  A 9.27 8.93 -28.5 0 0 252.0090 412.7922
  A 9.27 8.93 -28.5 0 0 248.1234 425.0633
  A 9.27 8.93 -28.5 0 0 260.5310 428.4878
  A 9.27 8.93 -28.5 0 0 264.4166 416.2167
  Z
  M 190.35 420.74
  A 9.07 9.07 0.0 0 0 181.28 411.67
  A 9.07 9.07 0.0 0 0 172.21 420.74
  A 9.07 9.07 0.0 0 0 181.28 429.81
  A 9.07 9.07 0.0 0 0 190.35 420.74
  Z
  M 227.4293 420.8882
  A 9.15 8.77 -0.7 0 0 218.1729 412.2307
  A 9.15 8.77 -0.7 0 0 209.1307 421.1118
  A 9.15 8.77 -0.7 0 0 218.3871 429.7693
  A 9.15 8.77 -0.7 0 0 227.4293 420.8882
  Z"
/>
<path fill="#df6526" d="
  M 1422.08 457.20
  C 1422.40 475.39 1422.77 494.88 1420.29 513.02
  Q 1415.73 546.45 1392.66 570.93
  C 1387.58 576.33 1381.24 582.76 1375.02 587.55
  Q 1361.54 597.94 1345.80 606.05
  C 1343.67 607.14 1341.98 606.97 1339.80 605.94
  Q 1325.33 599.14 1310.01 587.23
  Q 1291.67 572.96 1279.11 553.45
  C 1271.36 541.42 1266.08 528.21 1263.98 514.76
  Q 1262.29 503.87 1262.01 488.00
  Q 1261.78 474.80 1261.91 457.13
  A 1.02 1.01 -90.0 0 1 1262.91 456.12
  Q 1284.23 455.83 1304.30 447.74
  Q 1318.91 441.84 1324.96 438.16
  Q 1333.40 433.01 1340.96 427.95
  C 1342.60 426.85 1343.76 426.70 1345.50 427.97
  Q 1354.46 434.51 1364.89 440.34
  Q 1390.98 454.91 1420.99 456.08
  A 1.14 1.13 -89.5 0 1 1422.08 457.20
  Z
  M 1333.45 533.09
  C 1331.05 531.09 1328.63 527.41 1326.66 525.24
  Q 1317.82 515.45 1314.07 510.80
  C 1311.18 507.22 1306.17 504.97 1303.32 509.77
  Q 1302.01 511.96 1302.71 513.32
  Q 1304.63 517.04 1308.10 520.91
  Q 1324.39 539.11 1325.40 540.32
  C 1329.96 545.85 1334.66 549.53 1340.23 543.20
  Q 1356.27 525.02 1383.71 492.64
  C 1386.29 489.60 1390.19 484.78 1385.64 481.32
  Q 1381.52 478.20 1378.26 482.08
  Q 1358.51 505.53 1336.73 531.23
  Q 1334.96 533.32 1334.47 533.39
  A 1.36 1.34 60.8 0 1 1333.45 533.09
  Z"
/>
<path fill="#df6526" d="
  M 1193.04 849.96
  Q 1087.30 849.95 1034.15 849.78
  Q 1031.91 849.77 1031.91 847.77
  Q 1031.81 676.59 1031.98 647.01
  Q 1032.02 639.34 1037.21 636.51
  A 4.65 4.48 22.5 0 1 1038.38 636.05
  Q 1040.28 635.58 1046.25 635.58
  Q 1124.65 635.51 1193.04 635.51
  Q 1261.44 635.51 1339.84 635.59
  Q 1345.81 635.59 1347.71 636.06
  A 4.65 4.48 -22.4 0 1 1348.88 636.52
  Q 1354.07 639.35 1354.11 647.02
  Q 1354.28 676.60 1354.16 847.78
  Q 1354.16 849.78 1351.92 849.79
  Q 1298.78 849.96 1193.04 849.96
  Z
  M 1337.71 661.33
  A 6.92 6.92 0.0 0 0 1330.79 654.41
  L 1057.23 654.41
  A 6.92 6.92 0.0 0 0 1050.31 661.33
  L 1050.31 825.85
  A 6.92 6.92 0.0 0 0 1057.23 832.77
  L 1330.79 832.77
  A 6.92 6.92 0.0 0 0 1337.71 825.85
  L 1337.71 661.33
  Z"
/>
<path fill="#42657f" d="
  M 161.69 749.61
  C 159.03 746.80 158.29 744.29 160.00 740.73
  C 164.14 732.08 173.78 727.06 182.82 724.35
  Q 207.49 716.95 232.91 716.05
  Q 241.74 715.74 252.57 716.41
  C 260.97 716.92 270.11 716.93 278.79 717.86
  Q 293.90 719.47 309.41 723.89
  Q 322.69 727.68 332.19 736.81
  Q 334.22 738.76 334.50 742.30
  C 334.85 746.71 329.13 752.20 325.94 754.17
  Q 319.99 757.84 311.32 760.80
  Q 290.55 767.91 268.99 768.62
  C 264.97 768.75 259.12 770.03 254.23 770.07
  Q 246.13 770.13 235.17 770.08
  Q 230.52 770.06 224.38 769.30
  C 213.67 767.98 204.00 766.24 192.81 763.72
  Q 180.49 760.94 168.62 754.65
  Q 164.32 752.37 161.69 749.61
  Z"
/>
<path fill="#df6526" d="
  M 756.01 881.28
  Q 754.78 880.09 753.78 878.19
  Q 745.02 861.49 719.45 813.82
  C 714.38 804.36 710.72 791.37 711.96 780.65
  C 713.09 770.78 717.89 759.54 724.82 752.62
  C 733.46 743.99 743.04 738.85 755.69 738.66
  Q 763.82 738.55 770.03 740.40
  C 781.86 743.94 791.83 752.89 797.81 763.80
  C 805.58 777.95 804.63 794.23 797.86 808.84
  Q 792.80 819.78 786.56 831.29
  Q 773.98 854.50 761.18 877.41
  Q 760.14 879.27 758.34 881.21
  A 1.63 1.63 0.0 0 1 756.01 881.28
  Z
  M 751.6453 760.8994
  A 25.71 25.18 -102.5 0 0 732.6269 791.4499
  A 25.71 25.18 -102.5 0 0 762.7747 811.1006
  A 25.71 25.18 -102.5 0 0 781.7931 780.5501
  A 25.71 25.18 -102.5 0 0 751.6453 760.8994
  Z"
/>
<path fill="#42657f" d="
  M 159.66 763.11
  A 0.73 0.73 0.0 0 1 160.74 762.43
  Q 174.67 770.25 189.22 774.01
  Q 200.62 776.96 220.19 779.26
  C 231.72 780.61 242.40 780.03 256.50 779.95
  Q 271.07 779.87 283.24 777.81
  Q 289.25 776.80 297.09 775.35
  Q 305.32 773.82 310.74 772.02
  C 319.01 769.27 327.26 766.03 334.03 761.03
  A 0.48 0.48 0.0 0 1 334.79 761.42
  Q 334.66 769.81 334.83 788.73
  C 334.91 797.96 311.06 807.46 303.79 808.83
  C 299.27 809.69 295.16 811.24 290.34 812.16
  Q 279.41 814.26 269.88 814.80
  Q 264.76 815.09 262.62 815.44
  C 255.45 816.61 250.75 816.09 241.81 815.98
  C 233.98 815.87 224.82 814.97 219.07 814.50
  C 208.53 813.64 198.40 811.29 187.76 808.28
  Q 180.82 806.31 174.10 803.23
  C 169.84 801.28 164.22 797.40 161.79 794.30
  Q 159.60 791.51 159.75 786.76
  Q 160.18 772.94 159.66 763.11
  Z"
/>
<path fill="#df6526" d="
  M 615.75 777.85
  Q 625.68 777.84 628.48 777.91
  Q 633.46 778.02 647.76 779.71
  Q 661.81 781.37 674.68 786.46
  Q 676.19 787.06 678.71 788.65
  C 688.44 794.81 674.45 801.15 670.13 802.68
  Q 652.04 809.11 632.36 810.07
  Q 627.27 810.32 615.80 810.34
  Q 604.32 810.36 599.24 810.12
  Q 579.55 809.21 561.44 802.83
  C 557.12 801.31 543.11 795.01 552.83 788.82
  Q 555.34 787.23 556.85 786.62
  Q 569.71 781.50 583.75 779.80
  Q 598.05 778.07 603.02 777.94
  Q 605.83 777.87 615.75 777.85
  Z"
/>
<path fill="#42657f" d="
  M 160.35 806.95
  Q 168.41 812.88 176.87 815.90
  Q 197.07 823.11 216.57 824.87
  Q 238.60 826.85 260.92 825.38
  C 265.97 825.05 270.73 825.38 275.30 824.90
  Q 290.66 823.31 306.27 818.64
  C 316.96 815.44 325.10 812.68 333.60 806.72
  A 0.83 0.82 -16.9 0 1 334.90 807.41
  Q 334.59 820.98 334.78 837.95
  C 334.83 842.11 329.30 847.19 325.92 849.45
  Q 320.39 853.16 313.95 855.69
  Q 298.76 861.66 282.24 863.70
  Q 274.63 864.64 262.84 865.74
  C 255.17 866.46 248.13 865.97 241.45 866.03
  C 231.38 866.11 223.08 864.94 210.76 863.74
  Q 187.93 861.51 168.00 849.74
  C 164.81 847.85 160.30 844.68 160.12 840.45
  Q 159.95 836.42 159.99 833.00
  Q 160.22 815.79 159.70 807.31
  A 0.41 0.41 0.0 0 1 160.35 806.95
  Z"
/>
<path fill="#df6526" d="
  M 682.01 807.59
  A 0.90 0.89 82.4 0 1 683.11 808.44
  Q 683.29 817.03 683.08 830.81
  C 682.98 837.45 675.82 841.93 670.36 844.34
  Q 655.93 850.73 640.98 851.87
  Q 632.55 852.51 631.32 852.64
  Q 626.18 853.18 621.66 853.20
  Q 604.71 853.27 600.75 853.04
  Q 583.90 852.08 567.88 847.12
  C 561.98 845.30 548.90 840.53 548.62 832.63
  Q 548.20 820.95 548.99 809.51
  A 0.74 0.73 -75.9 0 1 550.02 808.89
  C 574.06 819.68 598.98 821.74 626.49 820.73
  Q 646.02 820.01 665.57 814.65
  C 671.58 813.00 676.86 810.58 681.10 807.84
  Q 681.21 807.77 682.01 807.59
  Z"
/>
<path fill="#df6526" d="
  M 548.51 850.77
  A 0.39 0.39 0.0 0 1 549.08 850.40
  C 562.44 857.13 574.79 860.26 591.43 862.46
  C 598.79 863.43 605.10 862.94 612.75 863.46
  Q 617.76 863.81 625.25 863.41
  Q 626.43 863.35 637.74 862.68
  Q 647.47 862.10 661.06 858.82
  Q 672.10 856.15 681.78 850.18
  A 0.91 0.91 0.0 0 1 683.17 850.95
  Q 683.24 861.37 683.02 871.19
  C 682.90 876.68 681.50 879.40 677.38 882.66
  C 668.04 890.04 654.37 893.48 643.01 894.75
  Q 640.08 895.08 625.25 895.96
  Q 605.70 897.12 584.66 893.84
  Q 570.20 891.59 557.58 884.96
  Q 552.21 882.13 549.57 877.36
  A 4.46 4.42 26.9 0 1 549.04 875.76
  C 547.90 867.12 548.81 857.75 548.51 850.77
  Z"
/>
<path fill="#42657f" d="
  M 160.17 856.99
  Q 160.22 856.98 160.45 857.06
  A 0.23 0.22 -19.7 0 1 160.54 857.10
  Q 170.80 864.64 180.03 867.45
  C 195.33 872.12 209.55 874.44 223.76 875.75
  Q 228.49 876.19 239.67 875.87
  C 247.48 875.65 254.57 875.69 260.77 875.92
  Q 264.66 876.06 269.21 875.62
  Q 288.29 873.78 302.74 870.25
  Q 308.38 868.87 314.58 866.04
  C 321.70 862.80 327.79 860.31 333.67 856.35
  A 0.62 0.62 0.0 0 1 334.64 856.85
  Q 334.93 872.87 334.63 882.41
  C 334.28 894.02 316.94 902.89 307.13 906.17
  Q 292.52 911.05 278.14 913.25
  C 272.16 914.16 265.36 913.80 259.57 914.38
  C 248.42 915.50 239.08 914.23 228.94 913.94
  C 221.60 913.73 213.10 912.50 207.32 911.68
  Q 191.21 909.39 175.38 901.63
  C 168.96 898.48 159.88 891.94 159.98 884.25
  Q 160.13 872.93 159.80 857.48
  A 0.50 0.49 -8.2 0 1 160.17 856.99
  Z"
/>
<path fill="#df6526" d="
  M 1193.28 859.49
  C 1237.88 859.49 1290.13 859.70 1350.00 859.78
  Q 1353.95 859.79 1354.80 859.90
  A 2.64 2.62 -13.9 0 1 1356.74 861.06
  L 1387.66 907.21
  A 0.79 0.79 0.0 0 1 1386.99 908.43
  Q 1386.47 908.42 1193.27 908.40
  Q 1000.08 908.39 999.56 908.40
  A 0.79 0.79 0.0 0 1 998.89 907.17
  L 1029.82 861.03
  A 2.64 2.62 13.9 0 1 1031.76 859.87
  Q 1032.61 859.76 1036.56 859.75
  C 1096.43 859.68 1148.68 859.48 1193.28 859.49
  Z
  M 1253.53 889.34
  A 4.76 4.76 0.0 0 0 1248.77 884.58
  L 1135.19 884.58
  A 4.76 4.76 0.0 0 0 1130.43 889.34
  L 1130.43 889.46
  A 4.76 4.76 0.0 0 0 1135.19 894.22
  L 1248.77 894.22
  A 4.76 4.76 0.0 0 0 1253.53 889.46
  L 1253.53 889.34
  Z"
/>
<path fill="#df6526" d="
  M 548.65 893.12
  A 0.36 0.36 0.0 0 1 549.18 892.80
  Q 554.24 895.62 561.31 898.19
  Q 573.34 902.57 588.00 904.68
  Q 596.15 905.85 609.31 906.56
  Q 619.95 907.13 630.69 906.12
  Q 651.19 904.20 665.57 900.27
  Q 674.81 897.74 682.23 892.68
  A 0.59 0.59 0.0 0 1 683.15 893.19
  Q 683.05 896.65 683.08 897.49
  Q 683.31 903.84 682.73 914.49
  C 682.32 921.94 671.69 926.53 665.29 928.54
  Q 649.13 933.60 632.75 934.17
  Q 611.64 934.91 599.25 934.07
  Q 596.87 933.91 586.74 932.79
  Q 575.92 931.59 566.89 928.31
  C 560.46 925.98 548.96 922.41 548.62 914.06
  C 548.34 906.98 548.81 899.46 548.65 893.12
  Z"
/>
<path fill="#df6526" d="
  M 1392.51 920.77
  Q 1390.35 925.42 1388.99 927.04
  C 1384.87 931.93 1381.03 933.41 1374.00 933.46
  Q 1344.51 933.66 1333.75 933.66
  Q 1220.49 933.57 1117.75 933.68
  Q 1105.55 933.69 1090.41 933.55
  Q 1083.57 933.48 1063.08 933.62
  Q 1041.48 933.77 1011.45 933.43
  Q 1005.63 933.37 1002.88 932.01
  C 998.16 929.70 993.54 924.76 993.04 919.20
  A 0.96 0.95 -6.1 0 1 993.88 918.16
  C 997.73 917.71 1002.78 918.62 1007.01 918.61
  Q 1020.03 918.58 1044.75 918.52
  Q 1138.23 918.30 1355.01 918.45
  C 1361.55 918.46 1366.55 918.85 1372.00 918.62
  Q 1373.81 918.54 1379.50 918.95
  Q 1384.34 919.30 1387.01 919.15
  Q 1388.08 919.08 1390.71 918.51
  A 1.62 1.61 -83.6 0 1 1392.51 920.77
  Z"
/>
</g>
<g>
<path fill="#0d0f4d" d="
  M 1324.94 302.85
  A 6.71 6.71 0.0 0 1 1318.23 309.56
  L 1074.59 309.56
  A 6.71 6.71 0.0 0 1 1067.88 302.85
  L 1067.88 138.59
  A 6.71 6.71 0.0 0 1 1074.59 131.88
  L 1318.23 131.88
  A 6.71 6.71 0.0 0 1 1324.94 138.59
  L 1324.94 302.85
  Z
  M 1314.74 142.97
  A 0.93 0.93 0.0 0 0 1313.81 142.04
  L 1079.69 142.04
  A 0.93 0.93 0.0 0 0 1078.76 142.97
  L 1078.76 297.11
  A 0.93 0.93 0.0 0 0 1079.69 298.04
  L 1313.81 298.04
  A 0.93 0.93 0.0 0 0 1314.74 297.11
  L 1314.74 142.97
  Z"
/>
<path fill="#0d0f4d" d="
  M 316.2458 216.8340
  A 43.29 42.78 -10.2 0 1 281.2157 266.6039
  A 43.29 42.78 -10.2 0 1 231.0342 232.1660
  A 43.29 42.78 -10.2 0 1 266.0643 182.3961
  A 43.29 42.78 -10.2 0 1 316.2458 216.8340
  Z
  M 304.68 224.64
  A 31.18 31.18 0.0 0 0 273.50 193.46
  A 31.18 31.18 0.0 0 0 242.32 224.64
  A 31.18 31.18 0.0 0 0 273.50 255.82
  A 31.18 31.18 0.0 0 0 304.68 224.64
  Z"
/>
<path fill="#0d0f4d" d="
  M 821.68 340.52
  C 813.54 348.66 803.58 353.17 792.00 354.06
  C 782.37 354.79 776.64 355.54 768.65 355.66
  Q 744.43 356.02 730.76 355.52
  Q 725.57 355.32 709.75 353.85
  Q 696.96 352.65 686.47 344.32
  Q 670.01 331.27 668.67 309.77
  C 668.18 301.94 667.27 294.28 667.20 286.06
  Q 666.92 255.78 667.41 248.77
  Q 667.77 243.75 668.79 230.52
  C 669.69 218.97 674.23 209.27 682.29 201.21
  C 690.34 193.15 700.04 188.60 711.59 187.70
  Q 724.82 186.67 729.84 186.30
  Q 736.85 185.81 767.13 186.07
  C 775.35 186.13 783.01 187.04 790.84 187.52
  Q 812.34 188.85 825.40 205.30
  Q 833.74 215.79 834.94 228.58
  Q 836.42 244.40 836.63 249.59
  Q 837.14 263.25 836.79 287.48
  C 836.68 295.47 835.93 301.20 835.20 310.82
  C 834.32 322.41 829.82 332.37 821.68 340.52
  Z
  M 751.96 226.21
  Q 819.26 226.20 819.95 226.20
  A 0.80 0.80 0.0 0 0 820.71 225.19
  C 816.97 211.55 804.95 202.26 791.06 201.07
  Q 768.78 199.16 751.96 199.16
  Q 735.14 199.17 712.86 201.08
  C 698.97 202.27 686.95 211.56 683.21 225.20
  A 0.80 0.80 0.0 0 0 683.97 226.20
  Q 684.66 226.21 751.96 226.21
  Z
  M 751.99 342.78
  Q 768.38 342.78 791.49 340.76
  C 807.89 339.33 820.18 326.82 821.82 310.54
  Q 825.33 275.58 822.64 240.64
  A 0.93 0.92 87.9 0 0 821.73 239.79
  Q 812.87 239.69 751.99 239.70
  Q 691.10 239.70 682.25 239.79
  A 0.93 0.92 -87.9 0 0 681.34 240.64
  Q 678.65 275.58 682.16 310.54
  C 683.80 326.82 696.09 339.33 712.49 340.77
  Q 735.60 342.78 751.99 342.78
  Z"
/>
<rect fill="#0d0f4d" x="-9.37" y="-5.81" transform="translate(1195.30,328.06) rotate(-0.3)" width="18.74" height="11.62" rx="5.35"/>
<ellipse fill="#0d0f4d" cx="0.00" cy="0.00" transform="translate(256.27,420.64) rotate(-28.5)" rx="9.27" ry="8.93"/>
<circle fill="#0d0f4d" cx="181.28" cy="420.74" r="9.07"/>
<ellipse fill="#0d0f4d" cx="0.00" cy="0.00" transform="translate(218.28,421.00) rotate(-0.7)" rx="9.15" ry="8.77"/>
<path fill="#0d0f4d" d="
  M 1334.47 533.39
  Q 1334.96 533.32 1336.73 531.23
  Q 1358.51 505.53 1378.26 482.08
  Q 1381.52 478.20 1385.64 481.32
  C 1390.19 484.78 1386.29 489.60 1383.71 492.64
  Q 1356.27 525.02 1340.23 543.20
  C 1334.66 549.53 1329.96 545.85 1325.40 540.32
  Q 1324.39 539.11 1308.10 520.91
  Q 1304.63 517.04 1302.71 513.32
  Q 1302.01 511.96 1303.32 509.77
  C 1306.17 504.97 1311.18 507.22 1314.07 510.80
  Q 1317.82 515.45 1326.66 525.24
  C 1328.63 527.41 1331.05 531.09 1333.45 533.09
  A 1.36 1.34 60.8 0 0 1334.47 533.39
  Z"
/>
<rect fill="#0d0f4d" x="-51.64" y="-6.18" transform="translate(410.60,493.23) rotate(0.1)" width="103.28" height="12.36" rx="5.69"/>
<path fill="#0d0f4d" d="
  M 279.49 554.48
  Q 281.61 553.18 283.40 551.14
  Q 309.65 521.32 323.34 505.35
  Q 326.26 501.96 330.01 501.36
  A 1.99 1.99 0.0 0 1 330.97 501.44
  C 336.95 503.44 336.21 509.29 336.19 515.25
  Q 336.11 531.34 336.18 607.94
  Q 336.19 613.98 334.89 615.97
  Q 332.72 619.33 327.74 619.36
  Q 287.80 619.57 192.18 619.45
  Q 184.21 619.44 182.88 618.98
  Q 178.55 617.50 178.48 611.45
  Q 178.21 585.52 178.43 581.00
  Q 178.72 575.17 182.47 570.97
  Q 200.46 550.82 213.13 536.80
  C 218.06 531.35 222.39 525.58 228.38 521.02
  C 237.40 514.16 243.32 520.05 250.21 526.98
  Q 261.14 537.98 275.15 551.79
  Q 275.61 552.25 278.29 554.41
  A 1.05 1.03 48.0 0 0 279.49 554.48
  Z
  M 325.83 608.40
  L 325.83 520.25
  A 0.55 0.55 0.0 0 0 324.86 519.90
  Q 309.83 538.19 287.87 561.69
  C 282.25 567.71 274.33 566.71 268.70 561.05
  Q 251.44 543.70 241.13 533.37
  C 238.19 530.43 236.04 528.02 232.34 532.10
  Q 212.89 553.53 191.01 577.51
  Q 189.01 579.71 189.03 582.75
  Q 189.15 603.04 189.14 607.42
  A 1.48 1.48 0.0 0 0 190.62 608.90
  L 325.33 608.90
  A 0.50 0.50 0.0 0 0 325.83 608.40
  Z"
/>
<rect fill="#0d0f4d" x="359.08" y="527.92" width="103.08" height="12.22" rx="5.71"/>
<rect fill="#0d0f4d" x="358.97" y="567.03" width="103.30" height="12.20" rx="5.68"/>
<rect fill="#0d0f4d" x="358.95" y="607.40" width="103.18" height="12.00" rx="5.46"/>
<path fill="#0d0f4d" d="
  M 1337.71 825.85
  A 6.92 6.92 0.0 0 1 1330.79 832.77
  L 1057.23 832.77
  A 6.92 6.92 0.0 0 1 1050.31 825.85
  L 1050.31 661.33
  A 6.92 6.92 0.0 0 1 1057.23 654.41
  L 1330.79 654.41
  A 6.92 6.92 0.0 0 1 1337.71 661.33
  L 1337.71 825.85
  Z
  M 1326.75 665.11
  A 0.27 0.27 0.0 0 0 1326.48 664.84
  L 1061.16 664.84
  A 0.27 0.27 0.0 0 0 1060.89 665.11
  L 1060.89 822.33
  A 0.27 0.27 0.0 0 0 1061.16 822.60
  L 1326.48 822.60
  A 0.27 0.27 0.0 0 0 1326.75 822.33
  L 1326.75 665.11
  Z"
/>
<path fill="#0d0f4d" d="
  M 751.6453 760.8994
  A 25.71 25.18 -102.5 0 1 781.7931 780.5501
  A 25.71 25.18 -102.5 0 1 762.7747 811.1006
  A 25.71 25.18 -102.5 0 1 732.6269 791.4499
  A 25.71 25.18 -102.5 0 1 751.6453 760.8994
  Z
  M 771.61 786.08
  A 14.47 14.47 0.0 0 0 757.14 771.61
  A 14.47 14.47 0.0 0 0 742.67 786.08
  A 14.47 14.47 0.0 0 0 757.14 800.55
  A 14.47 14.47 0.0 0 0 771.61 786.08
  Z"
/>
<rect fill="#0d0f4d" x="1130.43" y="884.58" width="123.10" height="9.64" rx="4.76"/>
</g>
<g>
<path fill="#42657f" d="
  M 1314.74 297.11
  A 0.93 0.93 0.0 0 1 1313.81 298.04
  L 1079.69 298.04
  A 0.93 0.93 0.0 0 1 1078.76 297.11
  L 1078.76 142.97
  A 0.93 0.93 0.0 0 1 1079.69 142.04
  L 1313.81 142.04
  A 0.93 0.93 0.0 0 1 1314.74 142.97
  L 1314.74 297.11
  Z
  M 1189.87 169.62
  A 7.72 7.72 0.0 0 0 1182.15 161.90
  L 1140.73 161.90
  A 7.72 7.72 0.0 0 0 1133.01 169.62
  L 1133.01 209.50
  A 7.72 7.72 0.0 0 0 1140.73 217.22
  L 1182.15 217.22
  A 7.72 7.72 0.0 0 0 1189.87 209.50
  L 1189.87 169.62
  Z
  M 1257.9570 169.7259
  A 7.95 7.95 0.0 0 0 1249.9655 161.8176
  L 1210.7260 162.0231
  A 7.95 7.95 0.0 0 0 1202.8178 170.0146
  L 1203.0230 209.2141
  A 7.95 7.95 0.0 0 0 1211.0145 217.1224
  L 1250.2540 216.9169
  A 7.95 7.95 0.0 0 0 1258.1622 208.9254
  L 1257.9570 169.7259
  Z
  M 1189.9041 235.6903
  A 8.04 8.04 0.0 0 0 1181.8501 227.6643
  L 1140.8901 227.7358
  A 8.04 8.04 0.0 0 0 1132.8642 235.7898
  L 1132.9359 276.8897
  A 8.04 8.04 0.0 0 0 1140.9899 284.9157
  L 1181.9499 284.8442
  A 8.04 8.04 0.0 0 0 1189.9758 276.7902
  L 1189.9041 235.6903
  Z
  M 1258.13 235.49
  A 7.73 7.73 0.0 0 0 1250.40 227.76
  L 1210.68 227.76
  A 7.73 7.73 0.0 0 0 1202.95 235.49
  L 1202.95 277.21
  A 7.73 7.73 0.0 0 0 1210.68 284.94
  L 1250.40 284.94
  A 7.73 7.73 0.0 0 0 1258.13 277.21
  L 1258.13 235.49
  Z"
/>
<circle fill="#df6526" cx="273.50" cy="224.64" r="31.18"/>
<path fill="#df6526" d="
  M 751.96 199.16
  Q 768.78 199.16 791.06 201.07
  C 804.95 202.26 816.97 211.55 820.71 225.19
  A 0.80 0.80 0.0 0 1 819.95 226.20
  Q 819.26 226.20 751.96 226.21
  Q 684.66 226.21 683.97 226.20
  A 0.80 0.80 0.0 0 1 683.21 225.20
  C 686.95 211.56 698.97 202.27 712.86 201.08
  Q 735.14 199.17 751.96 199.16
  Z"
/>
<path fill="#42657f" d="
  M 751.99 239.70
  Q 812.87 239.69 821.73 239.79
  A 0.93 0.92 87.9 0 1 822.64 240.64
  Q 825.33 275.58 821.82 310.54
  C 820.18 326.82 807.89 339.33 791.49 340.76
  Q 768.38 342.78 751.99 342.78
  Q 735.60 342.78 712.49 340.77
  C 696.09 339.33 683.80 326.82 682.16 310.54
  Q 678.65 275.58 681.34 240.64
  A 0.93 0.92 -87.9 0 1 682.25 239.79
  Q 691.10 239.70 751.99 239.70
  Z
  M 767.8265 259.8182
  A 6.63 6.63 0.0 0 0 763.6282 251.4344
  L 763.4005 251.3587
  A 6.63 6.63 0.0 0 0 755.0167 255.5570
  L 736.1535 312.2618
  A 6.63 6.63 0.0 0 0 740.3518 320.6456
  L 740.5795 320.7213
  A 6.63 6.63 0.0 0 0 748.9633 316.5230
  L 767.8265 259.8182
  Z
  M 694.93 289.21
  Q 694.93 290.95 695.48 292.01
  Q 702.99 306.35 717.10 313.89
  C 723.07 317.08 729.10 311.30 726.59 305.23
  Q 725.83 303.40 721.63 300.87
  Q 715.75 297.33 710.63 290.90
  Q 709.85 289.92 709.85 289.21
  Q 709.85 288.50 710.63 287.52
  Q 715.75 281.08 721.63 277.54
  Q 725.83 275.01 726.59 273.18
  C 729.10 267.11 723.07 261.33 717.10 264.52
  Q 702.99 272.06 695.48 286.41
  Q 694.93 287.47 694.93 289.21
  Z
  M 809.07 289.20
  Q 809.07 287.46 808.51 286.40
  Q 801.00 272.07 786.90 264.54
  C 780.93 261.35 774.91 267.13 777.42 273.20
  Q 778.18 275.03 782.38 277.55
  Q 788.25 281.09 793.37 287.52
  Q 794.15 288.49 794.15 289.20
  Q 794.15 289.91 793.37 290.89
  Q 788.26 297.32 782.39 300.87
  Q 778.19 303.40 777.43 305.22
  C 774.93 311.29 780.96 317.07 786.92 313.87
  Q 801.02 306.33 808.52 291.99
  Q 809.07 290.94 809.07 289.20
  Z"
/>
<path fill="#df6526" d="
  M 325.83 608.40
  A 0.50 0.50 0.0 0 1 325.33 608.90
  L 190.62 608.90
  A 1.48 1.48 0.0 0 1 189.14 607.42
  Q 189.15 603.04 189.03 582.75
  Q 189.01 579.71 191.01 577.51
  Q 212.89 553.53 232.34 532.10
  C 236.04 528.02 238.19 530.43 241.13 533.37
  Q 251.44 543.70 268.70 561.05
  C 274.33 566.71 282.25 567.71 287.87 561.69
  Q 309.83 538.19 324.86 519.90
  A 0.55 0.55 0.0 0 1 325.83 520.25
  L 325.83 608.40
  Z"
/>
<path fill="#42657f" d="
  M 1326.75 822.33
  A 0.27 0.27 0.0 0 1 1326.48 822.60
  L 1061.16 822.60
  A 0.27 0.27 0.0 0 1 1060.89 822.33
  L 1060.89 665.11
  A 0.27 0.27 0.0 0 1 1061.16 664.84
  L 1326.48 664.84
  A 0.27 0.27 0.0 0 1 1326.75 665.11
  L 1326.75 822.33
  Z
  M 1263.35 801.99
  L 1291.49 801.95
  A 6.05 6.05 0.0 0 0 1297.53 795.88
  L 1297.36 698.14
  A 8.31 6.48 89.9 0 0 1290.86 689.85
  L 1263.58 689.89
  A 8.31 6.48 89.9 0 0 1257.12 698.22
  L 1257.29 795.96
  A 6.05 6.05 0.0 0 0 1263.35 801.99
  Z
  M 1246.0500 726.1250
  A 7.17 7.17 0.0 0 0 1238.8925 718.9425
  L 1213.1325 718.8976
  A 7.17 7.17 0.0 0 0 1205.9500 726.0551
  L 1205.8300 794.8150
  A 7.17 7.17 0.0 0 0 1212.9875 801.9975
  L 1238.7475 802.0424
  A 7.17 7.17 0.0 0 0 1245.9300 794.8849
  L 1246.0500 726.1250
  Z
  M 1160.79 802.10
  L 1188.21 802.06
  A 6.73 6.73 0.0 0 0 1194.93 795.31
  L 1194.85 752.78
  A 8.96 8.40 89.9 0 0 1186.44 743.84
  L 1162.36 743.88
  A 8.96 8.40 89.9 0 0 1153.97 752.86
  L 1154.05 795.39
  A 6.73 6.73 0.0 0 0 1160.79 802.10
  Z
  M 1102.05 769.97
  L 1101.91 795.55
  A 6.37 6.37 0.0 0 0 1108.25 801.96
  L 1135.23 802.10
  A 8.53 7.89 -89.7 0 0 1143.16 793.61
  L 1143.28 772.35
  A 8.53 7.89 -89.7 0 0 1135.43 763.78
  L 1108.45 763.64
  A 6.37 6.37 0.0 0 0 1102.05 769.97
  Z"
/>
</g>
<g>
<path fill="#0d0f4d" d="
  M 1189.87 209.50
  A 7.72 7.72 0.0 0 1 1182.15 217.22
  L 1140.73 217.22
  A 7.72 7.72 0.0 0 1 1133.01 209.50
  L 1133.01 169.62
  A 7.72 7.72 0.0 0 1 1140.73 161.90
  L 1182.15 161.90
  A 7.72 7.72 0.0 0 1 1189.87 169.62
  L 1189.87 209.50
  Z
  M 1179.4486 173.1412
  A 1.11 1.11 0.0 0 0 1178.3406 172.0292
  L 1144.8806 171.9708
  A 1.11 1.11 0.0 0 0 1143.7687 173.0789
  L 1143.7114 205.9188
  A 1.11 1.11 0.0 0 0 1144.8194 207.0308
  L 1178.2794 207.0892
  A 1.11 1.11 0.0 0 0 1179.3913 205.9811
  L 1179.4486 173.1412
  Z"
/>
<path fill="#0d0f4d" d="
  M 1258.1622 208.9254
  A 7.95 7.95 0.0 0 1 1250.2540 216.9169
  L 1211.0145 217.1224
  A 7.95 7.95 0.0 0 1 1203.0230 209.2141
  L 1202.8178 170.0146
  A 7.95 7.95 0.0 0 1 1210.7260 162.0231
  L 1249.9655 161.8176
  A 7.95 7.95 0.0 0 1 1257.9570 169.7259
  L 1258.1622 208.9254
  Z
  M 1248.04 173.09
  A 1.06 1.06 0.0 0 0 1246.98 172.03
  L 1214.08 172.03
  A 1.06 1.06 0.0 0 0 1213.02 173.09
  L 1213.02 205.99
  A 1.06 1.06 0.0 0 0 1214.08 207.05
  L 1246.98 207.05
  A 1.06 1.06 0.0 0 0 1248.04 205.99
  L 1248.04 173.09
  Z"
/>
<path fill="#0d0f4d" d="
  M 1189.9758 276.7902
  A 8.04 8.04 0.0 0 1 1181.9499 284.8442
  L 1140.9899 284.9157
  A 8.04 8.04 0.0 0 1 1132.9359 276.8897
  L 1132.8642 235.7898
  A 8.04 8.04 0.0 0 1 1140.8901 227.7358
  L 1181.8501 227.6643
  A 8.04 8.04 0.0 0 1 1189.9041 235.6903
  L 1189.9758 276.7902
  Z
  M 1179.32 239.01
  A 0.96 0.96 0.0 0 0 1178.36 238.05
  L 1144.62 238.05
  A 0.96 0.96 0.0 0 0 1143.66 239.01
  L 1143.66 273.57
  A 0.96 0.96 0.0 0 0 1144.62 274.53
  L 1178.36 274.53
  A 0.96 0.96 0.0 0 0 1179.32 273.57
  L 1179.32 239.01
  Z"
/>
<path fill="#0d0f4d" d="
  M 1258.13 277.21
  A 7.73 7.73 0.0 0 1 1250.40 284.94
  L 1210.68 284.94
  A 7.73 7.73 0.0 0 1 1202.95 277.21
  L 1202.95 235.49
  A 7.73 7.73 0.0 0 1 1210.68 227.76
  L 1250.40 227.76
  A 7.73 7.73 0.0 0 1 1258.13 235.49
  L 1258.13 277.21
  Z
  M 1247.9698 238.9295
  A 0.96 0.96 0.0 0 0 1247.0081 237.9712
  L 1213.9881 238.0288
  A 0.96 0.96 0.0 0 0 1213.0298 238.9905
  L 1213.0902 273.6105
  A 0.96 0.96 0.0 0 0 1214.0519 274.5688
  L 1247.0719 274.5112
  A 0.96 0.96 0.0 0 0 1248.0302 273.5495
  L 1247.9698 238.9295
  Z"
/>
<rect fill="#0d0f4d" x="-6.75" y="-36.51" transform="translate(751.99,286.04) rotate(18.4)" width="13.50" height="73.02" rx="6.63"/>
<path fill="#0d0f4d" d="
  M 709.85 289.21
  Q 709.85 289.92 710.63 290.90
  Q 715.75 297.33 721.63 300.87
  Q 725.83 303.40 726.59 305.23
  C 729.10 311.30 723.07 317.08 717.10 313.89
  Q 702.99 306.35 695.48 292.01
  Q 694.93 290.95 694.93 289.21
  Q 694.93 287.47 695.48 286.41
  Q 702.99 272.06 717.10 264.52
  C 723.07 261.33 729.10 267.11 726.59 273.18
  Q 725.83 275.01 721.63 277.54
  Q 715.75 281.08 710.63 287.52
  Q 709.85 288.50 709.85 289.21
  Z"
/>
<path fill="#0d0f4d" d="
  M 809.07 289.20
  Q 809.07 290.94 808.52 291.99
  Q 801.02 306.33 786.92 313.87
  C 780.96 317.07 774.93 311.29 777.43 305.22
  Q 778.19 303.40 782.39 300.87
  Q 788.26 297.32 793.37 290.89
  Q 794.15 289.91 794.15 289.20
  Q 794.15 288.49 793.37 287.52
  Q 788.25 281.09 782.38 277.55
  Q 778.18 275.03 777.42 273.20
  C 774.91 267.13 780.93 261.35 786.90 264.54
  Q 801.00 272.07 808.51 286.40
  Q 809.07 287.46 809.07 289.20
  Z"
/>
<path fill="#0d0f4d" d="
  M 1263.35 801.99
  A 6.05 6.05 0.0 0 1 1257.29 795.96
  L 1257.12 698.22
  A 8.31 6.48 89.9 0 1 1263.58 689.89
  L 1290.86 689.85
  A 8.31 6.48 89.9 0 1 1297.36 698.14
  L 1297.53 795.88
  A 6.05 6.05 0.0 0 1 1291.49 801.95
  L 1263.35 801.99
  Z
  M 1286.76 701.30
  A 1.21 1.21 0.0 0 0 1285.55 700.09
  L 1268.19 700.09
  A 1.21 1.21 0.0 0 0 1266.98 701.30
  L 1266.98 791.44
  A 1.21 1.21 0.0 0 0 1268.19 792.65
  L 1285.55 792.65
  A 1.21 1.21 0.0 0 0 1286.76 791.44
  L 1286.76 701.30
  Z"
/>
<path fill="#0d0f4d" d="
  M 1245.9300 794.8849
  A 7.17 7.17 0.0 0 1 1238.7475 802.0424
  L 1212.9875 801.9975
  A 7.17 7.17 0.0 0 1 1205.8300 794.8150
  L 1205.9500 726.0551
  A 7.17 7.17 0.0 0 1 1213.1325 718.8976
  L 1238.8925 718.9425
  A 7.17 7.17 0.0 0 1 1246.0500 726.1250
  L 1245.9300 794.8849
  Z
  M 1235.65 730.97
  A 1.04 1.04 0.0 0 0 1234.61 729.93
  L 1216.95 729.93
  A 1.04 1.04 0.0 0 0 1215.91 730.97
  L 1215.91 791.19
  A 1.04 1.04 0.0 0 0 1216.95 792.23
  L 1234.61 792.23
  A 1.04 1.04 0.0 0 0 1235.65 791.19
  L 1235.65 730.97
  Z"
/>
<path fill="#0d0f4d" d="
  M 1160.79 802.10
  A 6.73 6.73 0.0 0 1 1154.05 795.39
  L 1153.97 752.86
  A 8.96 8.40 89.9 0 1 1162.36 743.88
  L 1186.44 743.84
  A 8.96 8.40 89.9 0 1 1194.85 752.78
  L 1194.93 795.31
  A 6.73 6.73 0.0 0 1 1188.21 802.06
  L 1160.79 802.10
  Z
  M 1184.49 755.40
  A 1.25 1.25 0.0 0 0 1183.24 754.15
  L 1165.28 754.15
  A 1.25 1.25 0.0 0 0 1164.03 755.40
  L 1164.03 791.62
  A 1.25 1.25 0.0 0 0 1165.28 792.87
  L 1183.24 792.87
  A 1.25 1.25 0.0 0 0 1184.49 791.62
  L 1184.49 755.40
  Z"
/>
<path fill="#0d0f4d" d="
  M 1102.05 769.97
  A 6.37 6.37 0.0 0 1 1108.45 763.64
  L 1135.43 763.78
  A 8.53 7.89 -89.7 0 1 1143.28 772.35
  L 1143.16 793.61
  A 8.53 7.89 -89.7 0 1 1135.23 802.10
  L 1108.25 801.96
  A 6.37 6.37 0.0 0 1 1101.91 795.55
  L 1102.05 769.97
  Z
  M 1133.7285 775.2379
  A 1.25 1.25 0.0 0 0 1132.4828 773.9835
  L 1113.3029 773.9166
  A 1.25 1.25 0.0 0 0 1112.0486 775.1622
  L 1111.9915 791.5021
  A 1.25 1.25 0.0 0 0 1113.2372 792.7565
  L 1132.4171 792.8234
  A 1.25 1.25 0.0 0 0 1133.6714 791.5778
  L 1133.7285 775.2379
  Z"
/>
</g>
</svg>
