<svg xmlns="http://www.w3.org/2000/svg" viewBox="0 0 1536 1024" xmlns:v="https://vecta.io/nano"><style><![CDATA[.B{stroke:#857a84}.C{stroke:#763830}.D{fill:#e16421}.E{fill:#0b0c3f}.F{fill:#43647c}.G{fill:#ffe8c8}.H{stroke:#27385e}.I{stroke:#f0a675}.J{stroke:#85869f}]]></style><g fill="none" stroke-width="2"><path d="M1134.56 394.96q-1.09.47-1.18 1.2a.77.76-16.3 0 0 1.25.68q.93-.77.33-1.79" class="H"/><path d="M1033.53 115.33q-5.46 3.06-13.02 6.64-28.61 13.52-60.24 7.21c-8.23-1.64-17.28-3.79-17.95-3.22a.59.58 40.1 0 0 .09.94q3.51 2.15 8.06 3.86c21.56 8.08 46.24 7.9 67.29-2.23q9.75-4.69 16.39-12.45a.5.49 5.6 0 0-.62-.75M890.56 296.78q-.15 14.87-.42 29.75c-.23 12.41.39 23.59 1.78 34.81 5.67 46.04 31.04 93.35 72.79 116.23q12.19 6.68 28.37 9.16c20.34 3.12 41.13-1.92 59.23-11.92q24.42-13.47 42.36-33.39 12.49-13.87 19.67-25.26c9.59-15.22 13.85-34.05 15.95-51.91q3.57-30.38 2.69-61.06" class="C"/><path d="M1132.98 303.19q-.43-3.89-.74-7.79c-.68-8.65-1.87-16.94-2.79-26.28-.66-6.77-.5-12.9-1.01-19.55q-.43-5.55-.39-14.67.04-11.28.05-26.4 0-2.72-1.45-5.14-4.61-7.67-6.62-11.14-6.26-10.84-8.44-24.29-2.6-16.07-3.57-22.18-.51-3.23-1.72-6.82a3.49 3.48-6.5 0 0-2.96-2.35l-8.4-.8a.45.33-27.3 0 1-.13-.02q-8.6-2.07-17.8-8.14-2.28-1.49-5.96-2.58a3.98 3.95-46 0 0-2.35.05q-1.28.43-4.28 1.89-7.81 3.8-13.54 6.57-28.69 13.84-60.72 16.05c-21.32 1.48-42.38-1.94-62.59-8.94-2.71-.94-3.77-.93-6.05.6q-15.84 10.59-22.28 28.72-2.93 8.27-3.85 14.7c-2.36 16.48-3.15 32.9-3.51 51.19q-.59 30.45-1.32 60.91" class="B"/><path d="M1132.98 303.19c-1.63-.67-1.38-3.22-3.69-3.21a2.33 2.09-88.5 0 0-2.09 2.21c-.32 6.61-.53 11.91-2.17 17.72q-4.24 15.07-9.87 24.77-7.13 12.28-17.71 26.76-4.44 6.08-10.43 11.29" class="I"/><path d="M1087.02 382.73c1.7-11.43 2.66-20.54-3.05-30.18q-8.29-14.01-23.95-18.81-7.02-2.15-12.71-1.83a1.47 1.47 0 0 0-1.2 2.18q1.57 2.84 5.06 4.18 6.51 2.49 12.8 5.13" class="B"/><path stroke="#f8d6b3" d="M1063.97 343.4q-.2 1.2-1.7.94-12.8-2.22-25.49-2.51"/><path d="M1036.78 341.83c1.49-5.31 1.15-11.23-2.68-15.37-1.74-1.88-5.43-4.48-7.98-3.37a2.06 1.84 56.9 0 0-.47 3.11q4.99 5.79.86 13.08a3.06 3.01-1.6 0 1-1.04 1.08q-3.32 2.1-7.5 2.88-7.41 1.37-12.33 2.61-9.23 2.32-12.36 2.25c-5.99-.13-12.95-.6-17.62-3.77-6.9-4.69-13.75-13.8-7.02-21.72q18.14-21.33 20-49.11.54-8.01-3.44-14.13-1.35-2.07-2.66-2.18-2.84-.23-2.62 2.63 1.51 19.93-4.69 37.86-1.21 3.49-4.17 8.54c-2.97 5.03-9.13 10.04-12.35 14.77-4.33 6.38-3.46 12.92-.18 19.68" class="B"/><path stroke="#f8d6b3" d="M958.53 340.67l-14.51-1.4"/><path d="M944.02 339.27q2.97-2.51 4.04-4.44a1.05 1.04 12.9 0 0-.98-1.55c-13.21.78-25.29 12.58-29.68 23.67q-3.99 10.07-.12 23.87" class="B"/><path d="M917.28 380.82q-4.81-5.48-11.09-14.24c-6.84-9.52-10.41-17.98-12.5-29.59q-1.72-9.52-1.99-15.23-.4-8.25-.06-20.72a3.79 3.71 38.4 0 0-.15-1.18l-.93-3.08" class="I"/><path d="M917.28 380.82q.37.07.9 2.57a1.19 1.19 0 0 0 2.25.23c2.13-4.88 1.29-10.68 1.98-15.92q.25-1.88 1.92-5.61" class="C"/><path stroke="#e9945f" d="M924.33 362.09q1.7 1.85 3.91 3.19 1.69 1.03 3.49.7 1.11-.21 4.81-1.19"/><path d="M936.54 364.79q-1.13 3.46-.27 6.82" class="C"/><path d="M936.27 371.61q-.78 7.34.21 13.91 1.45 9.69 3.94 18.14c7.01 23.81 24.55 38.95 48.31 43.65 17.83 3.54 37.21 1.71 51.1-10.25q20.36-17.56 28.15-44.11 3.58-12.23-1.17-24.12" class="I"/><path d="M1066.81 368.83l.15-.85" class="C"/><path stroke="#e9945f" d="M1066.96 367.98l5.48 1.46a2.85 2.7 46.5 0 0 1.14.06q5.67-.88 6.59-5.22"/><path d="M1080.17 364.28l.65 4.16a13.63 12.6-50.9 0 1 .15 2.35q-.19 7.1 1.75 14.81a1.16 1.16 0 0 0 2.08.37l2.22-3.24" class="C"/><path d="M1036.78 341.83q-2.42 3.36-5.95 5.81-2.77 1.91-7.58 3.42-6.27 1.97-15.55 5.6c-9.72 3.79-26.99 4.94-35.29-2.31-7.27-6.35-11.12-8.96-13.88-13.68m121.64 23.61l-1.51-6.84a4.29 3.95-65.8 0 0-.25-.75c-2.71-5.89-8.59-10.29-14.44-13.29m-119.95-4.13q-1.45 1.35-6.62 5.13-9.02 6.59-13.07 17.69m142.63 5.89c-1.53-6-7.88-4.42-11.79-2.74q-9.53 4.1-22.74 6.53-16.33 2.99-35.31 2.7-8.59-.13-17.56-1.27-13.84-1.74-17.39-2.61-12.79-3.15-25.63-5.8" stroke="#7e686e"/><path d="M1066.81 368.83q-1.54 7.89-6.24 13.75-15.18 18.92-38.82 24.2-23.21 5.18-45.57-.54c-18.55-4.74-30.97-17.99-37.53-35.35a.93.93 0 0 0-1.6-.25l-.78.97" class="B"/><path d="M1126.36 166.6q-.15.84.04 1.77c2.74 12.81 10.12 22.89 19.42 31.8a2.49 2.48-23 0 0 1.72.69h.4a.53.53 0 0 0 .38-.89q-9.3-10.09-14.88-20.42-4.25-7.87-6.69-13.01a.21.21 0 0 0-.39.06M880.1 225.58q1.66-8.55 6.11-28.62c.85-3.85.89-7.85 1.68-11.77a.56.55-27 0 0-1.05-.34c-5.74 12.34-7.59 25.69-7.69 39.83q0 .64.28 1.04a.37.37 0 0 0 .67-.14" class="C"/><path d="M1148.18 354.53c9.18-3.34 13.99-13.06 18.8-22.08 8.75-16.45 17.22-35.15 17.46-54.2.12-9.48-5.44-16.94-15.67-15.67-11.23 1.39-20.16 13.05-23.19 23.06-.81 2.65-2.48 8.49-2.48 11.72q.01 23.55-1.69 48.24-.34 5.01.43 6.18 1.74 2.66 5.19 2.91a2.67 2.61-52.3 0 0 1.15-.16m-267.06-14.1q-.34-16.81-.06-46.93c.08-9.2-.32-18.77-3.94-26.85q-2.14-4.79-7.34-3.65c-3.24.7-5.03 4.25-5.4 7.39q-1.5 12.74 1.47 25.99 4.33 19.34 11.75 38.23 1.41 3.59 3.22 5.93a.17.17 0 0 0 .3-.11" class="B"/><path d="M793.53 541.18a.4.39-37.5 0 0 .5.06l14.23-9.05a3.59 3.58 74 0 0 1.66-3.01l.02-195.2c.01-3.69-.21-7.56-1.51-10.71-3.92-9.52-16.55-9.39-24.95-9.39q-184.37-.03-402.48.03-5.47 0-9.15.97c-11.16 2.97-11.55 11.92-11.55 21.62q.11 232.75.07 277.93a1.1 1.09 0 0 0 1.1 1.09h14.13a1.33 1.33 0 0 0 1.33-1.33q-.33-47.73-.14-92.28l-.05-89.66q.09-20.55-.15-90.8c-.01-2.83.55-4.9 2.57-6.59q1.03-.86 5.33-.86 170.07.06 398.01-.01c5.95 0 10.81-.49 10.84 6.51q.12 26.54-.01 135.37 0 3.55.27 31.26.12 11.67-.3 33.54a.45.39 40.7 0 0 .03.2q.08.19.2.31" class="H"/><path d="M386.6 344.3v265.49a.38.38 0 0 0 .38.38h356.98a.84.84 0 0 0 .77-.5q8.39-18.94 17.39-33.59 8.17-13.3 20.4-25.63a2.54 2.51-23 0 0 .73-1.77V344.36a.54.54 0 0 0-.54-.54H387.08a.48.48 0 0 0-.48.48" class="B"/><path d="M1444.68 344.55a.85.85 0 0 0-.85-.85h-57.58a.85.85 0 0 0-.85.85v271.7a.85.85 0 0 0 .85.85h57.58a.85.85 0 0 0 .85-.85v-271.7" class="C"/><path d="M1123.68 420.82q-.85.8-1.03 1.07-15.84 23.83-34.57 41.44c-17.37 16.33-38.09 29.84-60.52 35.73-32.18 8.44-65.2-2.07-89.5-24.24a.5.49 21.9 0 0-.83.35q-.08 4.31-.65 6.73c-1.01 4.28-.77 8.01-1.22 13.86-1.56 20.24 6.93 35.04 23.37 46.85q15.9 11.41 35.76 14.91 36.7 6.45 70.99-8.03c22.87-9.65 44.4-25.86 60.68-44.56q6.63-7.61 10.38-16.96a1.1 1.09 29.1 0 0-.38-1.31c-8.36-5.94-9.68-14.91-10.71-24.14q-2.31-20.84-1.37-41.51a.24.24 0 0 0-.4-.19" class="B"/><path d="M1346.32 611.03q.22-.4.22-1.03-.06-10.06-.09-168.78a.82.82 0 0 0-.82-.82h-53.24a.54.54 0 0 0-.54.54v104.48a1.77 1.77 0 0 0 .83 1.5q11.24 7.23 21.38 16.81c13.29 12.56 24.29 30.32 31.74 47.28a.29.29 0 0 0 .52.02m-198.77-126a.72.72 0 0 0-1.01.35q-3.98 9.47-4.59 10.95c-3.95 9.45-10.09 17.19-17.12 24.01q-21.58 20.9-48.01 34.43-33.33 17.06-73.33 13.79c-25.77-2.1-51.34-14.04-66.62-34.95-8.01-10.95-10.76-24.77-9.59-38.84a.55.55 0 0 0-.75-.56q-31.06 11.94-59.93 24.21-10.73 4.57-23.13 9.61-28.77 11.68-29.81 12.05c-6.03 2.14-11.39 5.46-16.03 9.31q-18.38 15.23-30.42 36.15-18.14 31.53-26.9 63.82-8.72 32.08-12.77 45.69-11.22 37.62-24.65 70.81c-.75 1.84-1.77 3.68-2.69 5.49a.95.95 0 0 0 .41 1.27c9.93 5.16 17.01 8.7 27.58 12.4l55.8 19.43a.68.68 0 0 0 .88-.73q-2.31-17.77-2.66-34.72-.84-40.01 2.72-76.5 2.84-29.12 8.19-55.04 1.02-4.92 3.05-9.07a2 2 0 0 1 2.97-.74c2.36 1.72 1.74 4.68 1.37 7.35-6.01 43.6-10.13 83.5-9.29 124q.61 29.39 2.59 45.75 4.93 40.78 4.01 79.49-.78 32.77-1.9 50.3a.8.8 0 0 0 .8.86h409.5a.97.96-88.8 0 0 .96-.93l3.04-86.8a1.17 1.16-82.9 0 0-.91-1.18q-2.87-.66-5.54-.79c-4.72-.22-7.47-.9-7.57-5.87q-.72-36.95.08-68.82.85-34.13 4.69-61.88 2.08-15 5.92-33.29 5.1-24.25 14.62-46.35c6.51-15.12 15.14-30.17 26.77-41.42q2.7-2.62 6.11-1.92a1.7 1.69-73.3 0 1 1.23 2.3q-1.24 3.07-3.54 5.41-5.41 5.5-9.73 12.49-11.57 18.68-18.44 38.86-5.16 15.17-9.78 36.41-4 18.42-5.68 37.27c-3.38 38.03-3.57 76.12-3.32 115.95a.85.85 0 0 0 .85.85h30.3a.61.61 0 0 0 .57-.81q-7.73-21.51-6.95-44.16c1.27-36.56 20.78-71.03 50.41-91.91 20.48-14.42 43.31-20.48 67.95-21.51q4.04-.17 8.19.17a.69.69 0 0 0 .73-.86q-6.63-26.67-16.02-51.79-8.01-21.41-20.44-38.77-5.78-8.07-11-13.25c-10.66-10.58-23.14-19.61-37.64-27.44q-13.94-7.52-17.65-9.3-32.89-15.8-73.12-33.56-6.8-3-13.49-6.06c-7.47-3.42-15.05-8.51-20.27-11.41" class="C"/><path d="M451.88 621.31q.16.72.71 1.3 6.15 6.45 7.99 15.29.96 4.65 1.58 10.76a1.68 1.67 87.1 0 0 1.66 1.51h265.24a1.78 1.77-80.6 0 0 1.68-1.21l9.19-27.02a.87.87 0 0 0-.82-1.15H452.3a.43.42-6.4 0 0-.42.52" class="H"/><path d="M485.62 902.85q-2.37-17.16-6.02-41.22-11.63-76.55-31.9-209.38c-.97-6.37-.48-15.2-6.54-19.13q-1.8-1.16-7.55-1.15-156.32.16-278.68.07c-6.11-.01-9.57.87-11.25 6.68-.69 2.41.15 6.45.56 9.29q11.53 78.21 23.74 159.49.22 1.51 13.86 95.12a.6.6 0 0 0 .59.51h302.94a.25.25 0 0 0 .25-.28m775.84-173.14q-25.54 33.4-22.09 75.51c4.1 50.13 46.78 90.77 95.99 94.56q13.88 1.07 28.28-1.93c59.22-12.35 95.57-73.72 79.53-132.05q-9.2-33.45-35.99-55-19.93-16.02-44.65-20.84-39.28-7.67-72.95 13.89-16.34 10.46-28.12 25.86M585.9 903.04q37.92-.02 112.24-.07 5.27 0 8.17 1.06 4.13 1.52 6.86 4.56 10.92 12.17.14 25.57a.57.56 19.2 0 0 .45.92h72.32a.93.92 1.6 0 0 .93-.87q.92-16.07 1.02-31.7c.2-33.01.96-55.34-1.43-81.14q-.21-2.29-.62-4.08a1.14 1.13 1.4 0 0-.81-.84q-7.27-1.94-14.97-4.65-25.68-9.03-49.06-17.9c-2.74-1.04-5.83-2.97-7.83-3.59a.55.55 0 0 0-.71.46q-.17 1.32-.75 3.13c-4.99 15.82-9.33 32.23-15.08 47.21a.58.57-76.9 0 0 .48.78q4.24.37 8.24 2.48a6.88 6.88 0 0 1 3.65 5.67l.01.08a2.48 2.47 10.1 0 1-3.46 2.41q-5.26-2.28-10.94-1.29c-7.98 1.4-18.64 4.37-27.48 7.61-27.06 9.92-52.2 24.25-76.28 39.87q-3.17 2.05-5.22 4a.19.18 23.2 0 0 .13.32M1345.58 929l1.99-18.38a.46.46 0 0 0-.47-.51q-24.52.69-47.34-9.59c-24.3-10.94-44.67-28.59-57.16-52.23a1.13 1.13 0 0 0-1-.6h-22.15a.31.31 0 0 0-.31.31q.1 42.03-2.9 86.52a.68.68 0 0 0 .68.73q61.18.18 124.83-.97.95-.02 1.73-.59" class="B"/><path d="M456.78 913.19a1.09 1.09 0 0 0-1.01 1.09v17.65a1.56 1.55-.2 0 0 1.57 1.55q41.45-.51 76.84-.14c8.95.1 19.84-.31 28.32-.22q33.47.38 66.11.11l59.57.21q6.65 0 9.46-.87c5.54-1.72 12.82-6.54 10.94-13.02q-1.1-3.76-4.44-5.55-2.03-1.08-7-1.07-37.37.12-105.89-.05-48.58-.12-56-.1-74.54.26-76.75.33-1.27.04-1.72.08" class="H"/><path d="M568.99 235.76q-.03-30.42.11-35.28.06-2.21-1.77-4.3-7.34-8.37-13.94-15.6a4.92 4.92 0 0 1 .1-6.75l.25-.27a4.37 4.37 0 0 1 6.41.03l13.43 14.65a1.16 1.15-45.8 0 0 1.72-.03q3.69-4.3 12.2-13.7c5.04-5.55 10.67 1.17 7.74 5.78-2.34 3.67-6.96 7.71-9.68 10.94q-2.15 2.56-5.73 6.48a3.29 3.21-15 0 0-.69 1.16q-.43 1.26-.41 3.63.15 16.1-.14 33.42a.78.78 0 0 0 .8.8q12.6-.36 14.32-.29 4.42.2 4.76-4.46.43-6.04 2.26-14.71 2.22-10.48 10.12-20.2 6.04-7.44 8.91-12.27c18.59-31.24-.89-69.01-34.97-76.41-13.82-3.01-29.92-.13-41.25 8.32q-19.71 14.7-21.6 39.23-1.43 18.53 9.61 33.04 3.15 4.16 7.04 8.94 7.76 9.55 9.49 21.66 1.88 13.1 1.89 13.15.7 3.56 4.25 3.65 8.18.2 14.04.13a.74.74 0 0 0 .73-.74" class="C"/><path d="M594.84 248.38a2.34 2.34 0 0 0-2.34-2.34h-35.44a2.34 2.34 0 0 0-2.34 2.34v3.56a2.34 2.34 0 0 0 2.34 2.34h35.44a2.34 2.34 0 0 0 2.34-2.34v-3.56m-3.71 15.58l-33.42-.06a.11.11 0 0 0-.11.11v.02a11.74 9.99.1 0 0 11.72 10.01l10.16.02a11.74 9.99.1 0 0 11.76-9.97v-.02a.11.11 0 0 0-.11-.11" class="H"/><path d="M1088.58 257.96c2.65 2.41 6.17-.09 7.29-2.59s-.27-5.98-1.71-8.29q-7.75-12.4-21.05-17.68-19.83-7.88-42.21-5.61-5.62.57-8.02 5.29-2.48 4.88 1.18 8.4 1.94 1.88 4.25 1.5 16.12-2.59 31.97 1.51c11.84 3.07 19.55 9.56 28.3 17.47m-186.13-2.41c3.48 1.68 6.48-1.86 10.31-4.83 10.38-8.06 22.82-10.28 36-11.4q4.38-.37 8.08.2c5.23.8 13.03 1.9 14.09-4.78.87-5.55-3.34-9.26-8.42-9.73-20.47-1.89-42.34 2.64-56.88 17.55-3.47 3.56-6.14 7.28-3.94 12.21a1.6 1.58-89.6 0 0 .76.78m31.9 11.27l-1.24 3.89a1.3 1.29 54.1 0 0-.06.39c-.3 8.04 5.81 12.25 13.31 11.45 7.34-.78 11.29-10.13 9.85-16.72a.62.62 0 0 1 .92-.67q4.45 2.54 7.62 6.11a2.1 2.1 0 0 0 3.55-.72l.43-1.28a4.21 4.2-55.5 0 0-.74-4.04q-6.95-8.43-17.53-9.27-19.56-1.55-35.37 13.44a3.01 3.01 0 0 0 .12 4.47l.12.1a4.02 4.02 0 0 0 5.14.07q6.49-5.23 13.18-7.88a.53.53 0 0 1 .7.66m111.22-2.19c-2.21 6.24-.99 14.1 5.06 17.19 2.87 1.47 9.54 2.5 12.12-.8q4.4-5.61 4.48-12.02a.5.5 0 0 1 .79-.41q5.03 3.58 7.39 7.35a1.94 1.94 0 0 0 3.33-.05l.59-1.03a5.57 5.56 41.8 0 0-.35-6.1q-2.05-2.76-5.18-5.02c-12.25-8.81-29.84-11.35-42.63-2.31q-3.97 2.8-3.48 7.54.16 1.62.91 2.39a1.88 1.81-46.5 0 0 2.7-.12q5.28-5.94 13.81-7.16a.42.42 0 0 1 .46.55m49.182 12.334a9.37 2.49-178.8 0 0 9.316 2.686 9.37 2.49-178.8 0 0 9.42-2.293 9.37 2.49-178.8 0 0-9.316-2.686 9.37 2.49-178.8 0 0-9.42 2.293m-181.867 4.508a8.22 3.04-37.8 0 0-8.358 2.636 8.22 3.04-37.8 0 0-4.632 7.44 8.22 3.04-37.8 0 0 8.358-2.636 8.22 3.04-37.8 0 0 4.632-7.44m180.601 1.998a9.98 2.8-143.9 0 0 6.414 8.143 9.98 2.8-143.9 0 0 9.713 3.618 9.98 2.8-143.9 0 0-6.414-8.143 9.98 2.8-143.9 0 0-9.713-3.618" class="B"/><path d="M246.85 292.19q.12 4.99.01 7.87-.2 5.16-5.29 5.21-9.45.11-101.62.07-4.06 0-5.12-.8c-3.48-2.64-2.83-7.48-2.64-12.17a.46.46 0 0 0-.46-.47q-39.77 0-45.49.03-5.34.03-5.34 5.32-.02 123.27 0 262.2c0 4.17.41 7.07 5.11 7.08q46.44.08 202.49.04c2.99-.01 6.6-.49 6.6-4.57q.02-250.52.01-260.71c-.01-5.49.83-9.45-5.83-9.41q-4.94.03-42.15.02a.29.28-90 0 0-.28.29" class="J"/><path d="M1153.86 323.84q3.05.96 5.6-1.67c5.44-5.61 3.08-12.83 1.59-20.66-1.25-6.57 4.95-13.75 10.02-17.56 2.23-1.68 4.42-3.33 2.36-5.87-1.8-2.2-5.45-.13-7.15 1.23-6.23 4.99-14.67 15.44-12.33 23.84q2.86 10.3-.62 19.6a.84.83-71.1 0 0 .53 1.09" class="B"/><path d="M126.15 361.5q-.26 0-.48-.25-5.57-6.17-9.91-10.63c-4.56-4.67-9.8-1.78-12.21 3.34-.88 1.88.06 3.75 1.26 5.06q2.49 2.71 12.37 13.08 4.67 4.9 5.09 5.21c6.19 4.5 10.38-.83 14.79-6.36q18.75-23.55 21.71-26.96 2.41-2.77 2.24-5.68c-.26-4.41-4.35-7.62-8.7-6.15q-1.67.55-4.48 4.06-.14.18-21.1 24.99-.24.28-.58.29m142.39-9.46a6.58 6.58 0 0 0-6.58-6.58h-79.42a6.58 6.58 0 0 0-6.58 6.58v.3a6.58 6.58 0 0 0 6.58 6.58h79.42a6.58 6.58 0 0 0 6.58-6.58v-.3m-142.37 66.97q-.26.01-.48-.24-5.62-6.16-10-10.61c-4.59-4.66-9.83-1.73-12.21 3.42-.88 1.88.07 3.76 1.28 5.07q2.51 2.69 12.48 13.04 4.7 4.89 5.13 5.2c6.23 4.48 10.4-.88 14.79-6.45q18.67-23.71 21.63-27.15 2.39-2.79 2.21-5.7c-.28-4.42-4.41-7.62-8.76-6.13q-1.67.56-4.47 4.1-.14.18-21.02 25.16-.24.28-.58.29m142.38-10.99a6.58 6.58 0 0 0-6.58-6.58h-79.46a6.58 6.58 0 0 0-6.58 6.58v.32a6.58 6.58 0 0 0 6.58 6.58h79.46a6.58 6.58 0 0 0 6.58-6.58v-.32m-142.32 67.32q-.26.01-.48-.24-5.63-6.15-10.02-10.59c-4.6-4.65-9.84-1.71-12.21 3.44-.87 1.89.08 3.76 1.3 5.07q2.51 2.69 12.5 13.02 4.71 4.88 5.14 5.18c6.24 4.47 10.4-.9 14.78-6.48q18.62-23.75 21.57-27.19 2.39-2.8 2.2-5.71c-.29-4.42-4.42-7.61-8.77-6.11q-1.67.57-4.46 4.11-.14.18-20.97 25.21-.24.28-.58.29m142.32-11.47a6.76 6.76 0 0 0-6.76-6.76h-79.1a6.76 6.76 0 0 0-6.76 6.76v.24a6.76 6.76 0 0 0 6.76 6.76h79.1a6.76 6.76 0 0 0 6.76-6.76v-.24m-142.37 68.2q-.26.01-.48-.24-5.64-6.15-10.04-10.59c-4.6-4.65-9.85-1.7-12.21 3.45-.87 1.9.08 3.77 1.3 5.08q2.52 2.69 12.52 13.02 4.72 4.88 5.15 5.18c6.25 4.47 10.41-.91 14.79-6.5q18.62-23.79 21.56-27.23 2.39-2.81 2.2-5.72c-.29-4.42-4.43-7.61-8.78-6.11q-1.67.57-4.46 4.12-.14.18-20.97 25.25-.24.28-.58.29m142.41-11.289a6.61 6.61 0 0 0-6.598-6.622l-79.32-.138a6.61 6.61 0 0 0-6.621 6.598v.22a6.61 6.61 0 0 0 6.598 6.622l79.32.138a6.61 6.61 0 0 0 6.621-6.598v-.22" class="J"/><path d="M1117.07 364.281a11.1 2.49-84 0 0-3.637 10.779 11.1 2.49-84 0 0 1.316 11.299 11.1 2.49-84 0 0 3.637-10.779 11.1 2.49-84 0 0-1.316-11.3m-212.395 19.605a8.44 2-106.2 0 0 .434 8.663 8.44 2-106.2 0 0 4.275 7.547 8.44 2-106.2 0 0-.434-8.663 8.44 2-106.2 0 0-4.275-7.547m205.691 14.442a8.62 2.14-85.5 0 0-2.81 8.426 8.62 2.14-85.5 0 0 1.457 8.761 8.62 2.14-85.5 0 0 2.81-8.425 8.62 2.14-85.5 0 0-1.457-8.761m-13.225 1.311a8.83 2.29-76.1 0 0-4.344 8.021 8.83 2.29-76.1 0 0 .102 9.122 8.83 2.29-76.1 0 0 4.344-8.021 8.83 2.29-76.1 0 0-.102-9.122m-178.686 14.607a8.89 2.37-106.5 0 0 .252 9.197 8.89 2.37-106.5 0 0 4.797 7.851 8.89 2.37-106.5 0 0-.253-9.197 8.89 2.37-106.5 0 0-4.797-7.851m161.293 3.055a11.49 2.53-80.7 0 0-4.353 10.93 11.49 2.53-80.7 0 0 .64 11.748 11.49 2.53-80.7 0 0 4.353-10.93 11.49 2.53-80.7 0 0-.64-11.748m14.632 12.316a4.02 1.52-93.3 0 0-1.286 4.101 4.02 1.52-93.3 0 0 1.749 3.926 4.02 1.52-93.3 0 0 1.286-4.101 4.02 1.52-93.3 0 0-1.749-3.926m-160.336 1.439a8.83 2.21-99.3 0 0-.754 9.071 8.83 2.21-99.3 0 0 3.608 8.357 8.83 2.21-99.3 0 0 .754-9.071 8.83 2.21-99.3 0 0-3.608-8.357m126.287 9.081a9.84 2.44-84.4 0 0-3.389 9.555 9.84 2.44-84.4 0 0 1.468 10.031 9.84 2.44-84.4 0 0 3.389-9.555 9.84 2.44-84.4 0 0-1.468-10.031m-106.075 6.154a9.48 2.29-97 0 0-1.118 9.688 9.48 2.29-97 0 0 3.428 9.13 9.48 2.29-97 0 0 1.118-9.688 9.48 2.29-97 0 0-3.428-9.13m83.894 5.689a9.23 2.37-87.4 0 0-2.786 9.113 9.23 2.37-87.4 0 0 1.949 9.328 9.23 2.37-87.4 0 0 2.786-9.113 9.23 2.37-87.4 0 0-1.949-9.328m-61.235 5.038a9.33 2.42-93.6 0 0-1.829 9.464 9.33 2.42-93.6 0 0 3.001 9.16 9.33 2.42-93.6 0 0 1.829-9.464 9.33 2.42-93.6 0 0-3.001-9.16m21.166 5.784a9.09 2.42-91.2 0 0-2.229 9.139 9.09 2.42-91.2 0 0 2.61 9.037 9.09 2.42-91.2 0 0 2.229-9.139 9.09 2.42-91.2 0 0-2.61-9.037m21.743.056a7.28 2.07-87.3 0 0-2.411 7.174 7.28 2.07-87.3 0 0 1.725 7.369 7.28 2.07-87.3 0 0 2.411-7.174 7.28 2.07-87.3 0 0-1.725-7.369" class="C"/><path d="M704.11 388.39a.83.82 46.2 0 1-.02 1.19q-13.03 12.19-25.96 24.05-2.14 1.96-4.28 3.96-35.32 33.05-37.07 34.7-1.42 1.35-3.06 1.64-5.89 1.04-14.38 1.18c-4.02.07-8.37.85-12.31.88-6.56.03-12.22 1.27-19.28 1.13q-5.7-.11-9.37 4.98-3.23 4.5-21.53 27.39c-1.96 2.44-3.17 4.06-5.61 4.51q-14.42 2.68-38.47 7.18c-3.39.63-4.78 1.35-6.79 3.8q-7.21 8.76-16.17 19.22a1.26 1.19 12.9 0 1-.66.39l-55.79 12.04q-4.49 1.18-6.21 4.86c-3.35 7.16 3.77 14.87 11.13 13.31q27.81-5.88 56.22-11.8 2.66-.56 3.84-1.37c2.96-2.01 6.05-5.38 8.3-7.99q7.04-8.17 12.57-13.38a3.88 3.85 17.9 0 1 1.93-.98q23.59-4.47 37.13-6.98c4.21-.78 6.27-.49 9.12-4.41q3.87-5.33 20.14-24.76c1.58-1.89 3.64-4.8 5.98-5.03q12.32-1.21 24.52-2.62 9.53-1.1 18.92-2.24c3.46-.42 6.58-.53 10.58-1.39a5.03 5.02 13.9 0 0 2.8-1.68q2.05-2.42 4.08-4.26 30.46-27.56 66.6-60.11a1.09 1.09 0 0 1 1.66.25q2.92 4.82 8.11 7.9c4.01 2.37 8.1.5 8.65-4.27q1.73-14.94 4.36-32.9c.57-3.88.13-7.77-3.51-9.35-1.5-.65-6.24-.45-8.22-.09-4.74.84-9.07.63-13.42 1q-17.88 1.52-21.89 1.88a3.07 3.07 0 0 0-2.71 2.35q-1.07 4.46 2.46 8.1 1.89 1.96 7.61 7.72m-129.7 11.33a.48.48 0 0 1-.03.64l-40.43 40.42a.83.82 45.7 0 1-1.19-.02q-9.21-9.8-18.26-18.52c-6.17-5.94-10.22-2.35-15.1 2.16q-21.69 20-69.54 62.45-4.47 3.96-2.33 9.62c1.52 3.99 5.87 7.15 10.23 5.46q1.91-.74 4.25-2.92c15.27-14.22 44.06-39.11 64.63-57.76a.71.7 42.9 0 1 .91-.03q11.81 9.25 22.03 19.69c3.43 3.51 6.92 2.17 10.31-1.2 3.62-3.59 7.07-6.31 10.88-10.2q20.49-20.93 39.84-38.54a.69.68-22.3 0 1 1.15.48c.22 6.57-1.25 12.46 6.33 15.48 3.04 1.22 8.69.29 8.73-3.95q.09-10.75.07-28.75c-.01-3.86-.34-6.11-3.36-8.14q-1.59-1.07-6.75-1-12.64.17-29.46-.27a3.36 3.35-71.8 0 0-2.82 1.43c-2.12 3.02-2.18 8.03 1.75 10.01q2.22 1.13 7.91 3.16a.39.18 64.9 0 1 .06.05l.19.25m121.73 170.93a.47.47 0 0 1-.47.47h-16.65a.28.28 0 0 1-.28-.29q.23-21.36-.03-78.49-.03-6.41-6.06-6.43-31.38-.06-34.34-.05c-5.57.02-6.38 3.61-6.34 8.14q.06 5.48.07 76.36a.72.72 0 0 1-.72.72h-15.95a.49.49 0 0 1-.49-.49q.04-24.62 0-49.21c-.02-5.59-3.99-6.45-8.63-6.44q-14.78.01-29.15-.01c-4.24 0-8.22.59-8.22 5.5q-.05 41.23.02 50.19a.5.5 0 0 1-.5.51h-12.7a.34.34 0 0 1-.34-.34q.15-13.96.02-22.43c-.11-6.88-3.58-8.14-10.06-8.04q-13.44.19-23.97-.07c-5.43-.14-9.36.43-9.42 6.51q-.16 16.16.01 23.6a.72.71-.8 0 1-.72.73q-66.55-.04-77.52.01-1.82.01-4.53 1.34a1.35 1.34 87.6 0 0-.65.71c-1.65 4.17 1.31 7.96 5.73 7.95q1.65 0 21.75.09 37.1.19 282.5.13 7.56 0 6.88-7.09a1.86 1.74-61.5 0 0-.12-.46l-1.12-2.5a2.53 2.36-58.9 0 1-.21-1q0-74.17.02-115.87c0-5.31-.3-9.62-6.43-9.61q-22.82.06-35.27.02c-5.17-.01-6.14 3.83-6.14 8.45q-.02 85.42.03 117.39" class="B"/><path d="M1053.41 373.49q-1.32-.55-2.72-.04-8.04 2.92-17.33 4.35-13.3 2.05-22.58 2.22-11.15.2-21.47-.07-14.68-.38-34.23-5.5-1.6-.42-1.66-.39a2.63 2.53 69.7 0 0-1.37 3.14c3.22 10.59 16.5 17.86 26.7 20.3q24.73 5.91 48.9-2.34 14.64-5 24.07-16.67 1.6-1.98 2.17-4a.84.83-71.1 0 0-.48-1" class="J"/><path d="M998.39 434.61q10.34.22 19.95-3c2.65-.89 7.2-3.68 5.69-7.1-1.14-2.59-2.6-2.67-5.31-1.82q-9.51 2.99-20.13 2.77-10.63-.23-20.01-3.62c-2.66-.97-4.13-.95-5.37 1.59-1.66 3.35 2.77 6.33 5.38 7.33q9.47 3.63 19.8 3.85" class="B"/><path d="M734.06 455.93a.96.96 0 0 0-.96-.96h-26.2a.96.96 0 0 0-.96.96v114.18a.96.96 0 0 0 .96.96h26.2a.96.96 0 0 0 .96-.96V455.93m-65.19 40.78a.86.86 0 0 0-.86-.86h-25.28a.86.86 0 0 0-.86.86v73.52a.86.86 0 0 0 .86.86h25.28a.86.86 0 0 0 .86-.86v-73.52m-63.762 29.353a1.02 1.02 0 0 0-1.018-1.022l-24.16-.042a1.02 1.02 0 0 0-1.022 1.018l-.077 43.96a1.02 1.02 0 0 0 1.018 1.022l24.16.042a1.02 1.02 0 0 0 1.022-1.018l.077-43.96m-58.922 26.008a1.12 1.12 0 0 0-1.118-1.122l-22.28-.039a1.12 1.12 0 0 0-1.122 1.118l-.031 17.88a1.12 1.12 0 0 0 1.118 1.122l22.28.039a1.12 1.12 0 0 0 1.122-1.118l.031-17.88m611.544-44.251a.57.57 0 0 0-1.08-.22q-2.61 5.68-6.67 10.63c-21.51 26.22-47.62 47.89-78.75 59.97-30.31 11.76-65.06 14.37-96.2 4.49q-22.63-7.18-39.59-23.63c-9.93-9.63-17.61-20.65-20.73-33.77q-1.74-7.3-1.95-17.1a.99.99 0 0 0-1.9-.35c-2.15 5.21-1.84 9.79-1.79 16.79.02 4.07.83 9.39 1.99 12.32 3.48 8.8 9.32 16.75 16.17 24.38q4.01 4.47 8.8 8.34 24.76 20 56.23 24.57 29.94 4.36 59.75-2.38c25.09-5.67 48.87-18.32 68.78-34.56q20.87-17.02 33.76-38.46 3.36-5.59 3.18-11.02M907.79 663.75q.22 0 .24.02 4.22 3.17 6.9 5.26a1.27 1.27 0 0 1 .5 1.01v1.92a.84.83-71.2 0 0 .32.66l5.02 3.89a.58.58 0 0 0 .92-.32q.71-2.78 3.34-4.05a.58.58 0 0 0 .09-.99q-8.63-6.4-17.24-13.02c-.04-.03-.02-.01-.09-.01-.08 0-.06-.02-.09.01q-8.6 6.64-17.21 13.06a.58.58 0 0 0 .09.99q2.63 1.27 3.35 4.04a.58.58 0 0 0 .92.32l5.01-3.9a.84.83 71.1 0 0 .32-.66l-.01-1.92a1.27 1.27 0 0 1 .5-1.01q2.68-2.1 6.89-5.28.02-.02.23-.02m.03 68.39q.04 0 .07 0a.18.03.3 0 0 .15-.02l21.13-16.06a.93.92-19.2 0 0 .36-.73q-.05-9.57 0-14.62.01-1.05 1.97-3.05a.46.45-49.3 0 0-.05-.68l-7.02-5.45a.38.38 0 0 0-.61.3v20.56a.87.87 0 0 1-.34.69l-12.31 9.36a.28.27 71.3 0 1-.44-.22v-45.1a.1.09-72.3 0 1 .15-.08l4.33 3.36a.53.52 19.9 0 1 .2.41v28.94a1.07 1.05-19 0 1-.42.84l-1.55 1.18a1.47 1.45-18.8 0 0-.58 1.16v4.14a.33.32 71.3 0 0 .52.26l7.38-5.61a1.13 1.12-19.1 0 0 .44-.89v-25.39a.29.28-71.2 0 1 .46-.23l9.95 7.72a.33.33 0 0 0 .54-.26v-5.97a.56.56 0 0 0-.56-.56h-.93a1.56 1.53-26 0 1-.93-.31q-12.21-9.19-21.49-16.35-.23-.17-.45-.17-.22 0-.44.17-9.28 7.17-21.48 16.37a1.56 1.53 26 0 1-.93.31h-.93a.56.56 0 0 0-.56.56l.01 5.97a.33.33 0 0 0 .54.26l9.94-7.73a.29.28 71.1 0 1 .46.23l.03 25.39a1.13 1.12 19 0 0 .44.89l7.38 5.61a.33.32-71.4 0 0 .52-.27v-4.14a1.47 1.45 18.8 0 0-.58-1.15l-1.55-1.18a1.07 1.05 18.9 0 1-.43-.84l-.02-28.94a.53.52-19.9 0 1 .2-.41l4.32-3.37a.1.09 72.3 0 1 .15.08l.05 45.1a.28.27-71.4 0 1-.44.22l-12.32-9.35a.87.87 0 0 1-.34-.68l-.02-20.56a.38.38 0 0 0-.61-.3l-7.02 5.45a.46.45 49.3 0 0-.05.68q1.96 2 1.98 3.05.05 5.05.01 14.62a.93.92 19.2 0 0 .36.73l21.15 16.04a.18.03-.4 0 0 .14.02q.04 0 .07 0m40.82-31.64q1.33 0 2.03.06a.66.65-88 0 1 .6.65v10.33a.32.32 0 0 0 .32.32h6.83a.26.26 0 0 0 .26-.26q.12-25.56-.08-28.88c-.36-5.91-5.5-5.46-9.97-5.45-4.47 0-9.62-.45-9.97 5.46q-.2 3.32-.04 28.88a.26.26 0 0 0 .26.26l6.83-.01a.32.32 0 0 0 .32-.32l-.02-10.33a.66.65 87.9 0 1 .6-.65q.71-.06 2.03-.06m28.98-17.94q1.56 0 1.96.13a.7.69 9.9 0 1 .47.66v28.1a.42.42 0 0 0 .42.42h6.52a.46.45 90 0 0 .45-.46q-.02-17.52.02-26.3.02-3.51-.86-5.1c-1.78-3.18-4.92-2.76-8.98-2.76-4.07 0-7.2-.42-8.98 2.76q-.88 1.59-.86 5.1.03 8.78.01 26.3a.46.45-90 0 0 .45.46h6.52a.42.42 0 0 0 .42-.42l.01-28.1a.7.69-9.9 0 1 .46-.66q.41-.13 1.97-.13m31.16 4.87h6.59a.31.3-85.6 0 0 .3-.26c.73-5.61-.57-10.2-6.91-9.93-5.65.24-12.82-1.69-12.68 7q.03 1.63.01 20.23c-.01 4.06.58 7.09 4.74 7.77q1.77.29 7.4.22c4.58-.05 7.41-1.46 7.5-6.22q.08-4.06.1-4.12a.79.79 0 0 0-.74-1.06h-5.55a.85.85 0 0 0-.85.85v4.48a.93.93 0 0 1-.93.93h-3.24a1.12 1.12 0 0 1-1.12-1.12v-22.91a1 1 0 0 1 .95-1q1.71-.08 3.79.05.95.05.38 4.8a.26.26 0 0 0 .26.29m64.84-4.258a5.95 5.95 0 0 0-5.96-5.94l-8.34.015a5.95 5.95 0 0 0-5.94 5.96l.041 23.28a5.95 5.95 0 0 0 5.96 5.94l8.34-.015a5.95 5.95 0 0 0 5.94-5.96l-.041-23.28m-39.43 15.318q1.64 0 2.19.01a.72.71-89.8 0 1 .71.71v12.37a.29.29 0 0 0 .29.29h6.86a.31.3 90 0 0 .3-.31v-33.49a.33.33 0 0 0-.33-.33h-6.83a.28.28 0 0 0-.28.28v13.32a.7.7 0 0 1-.66.7q-.92.06-2.25.06-1.33 0-2.24-.06a.7.7 0 0 1-.66-.7v-13.32a.28.28 0 0 0-.28-.28h-6.83a.33.33 0 0 0-.33.33l-.01 33.49a.31.3-90 0 0 .3.31h6.86a.29.29 0 0 0 .29-.29l.01-12.37a.72.71 89.8 0 1 .7-.72q.55 0 2.19 0m65.67-4.74q1.11-.55 1.64-1.34a2.41 2.36-26.5 0 0 .42-1.21q.13-1.81.1-7.44c-.01-3.36-1.66-5.8-4.82-5.93q-4.31-.16-14.29-.08a.29.29 0 0 0-.29.29v33.48a.35.34 0 0 0 .35.34h6.76a.34.34 0 0 0 .34-.34v-12.95a.67.66 0 0 1 .67-.66h2.87a.94.93 0 0 1 .94.93v12.6a.43.43 0 0 0 .43.43h6.49a.46.46 0 0 0 .46-.46q.02-8.23 0-13.94c0-1.43-.79-2.54-2.06-3.13a.33.33 0 0 1-.01-.59M996.7 732.04q.19 0 .32 0a.85.85 0 0 1 .84.85v3.62a.43.43 0 0 0 .43.43h2.44a.5.5 0 0 0 .5-.5q-.03-8.48 0-10.94.02-2.83-.96-3.38a5.32 5.28 69.8 0 0-.92-.43q-.34-.12-2.64-.13-2.29 0-2.63.12a5.32 5.28-69.7 0 0-.92.43q-.99.55-.97 3.38.02 2.46-.02 10.94a.5.5 0 0 0 .5.5l2.44.01a.43.43 0 0 0 .43-.43v-3.62a.85.85 0 0 1 .85-.85q.13 0 .31 0m-14.67 4.89q.91 0 1.28 0a.72.71 5.7 0 0 .69-.56l3.18-14.06a.41.41 0 0 0-.4-.5h-2.54a.47.46-85.7 0 0-.46.4q-1.38 9.9-1.75 9.9-.36 0-1.76-9.9a.47.46 85.6 0 0-.46-.4l-2.54.01a.41.41 0 0 0-.4.5l3.2 14.05a.72.71-5.8 0 0 .69.56q.37 0 1.27 0m32.12-2.13a.45.45 0 0 0-.45-.45h-2.84a.45.45 0 0 1-.45-.45v-11.64a.45.45 0 0 0-.45-.45h-2.44a.45.45 0 0 0-.45.45v14.22a.45.45 0 0 0 .45.45h6.18a.45.45 0 0 0 .45-.45v-1.68m8.16-1.07l.03-11.53a.4.39-90 0 0-.39-.4l-2.57.02a.38.38 0 0 0-.38.38l-.02 14.13a.61.61 0 0 0 .61.61h5.75a.77.77 0 0 0 .78-.78l-.02-1.17a.68.68 0 0 0-.7-.68l-2.43.06a.64.64 0 0 1-.66-.64m8.6-4.31q0 3.44-.02 7.14a.42.41 90 0 0 .41.42h5.97a.82.81 90 0 0 .81-.82v-1.09a.74.74 0 0 0-.74-.74h-2.51a.57.56 0 0 1-.57-.56v-2.48a.65.64.4 0 1 .66-.64q.82.02 1.95.09.42.03.74-.38.1-.13.1-.94 0-.82-.1-.95-.32-.41-.74-.38-1.13.07-1.95.09a.65.64-.4 0 1-.66-.64v-2.48a.57.56 0 0 1 .57-.56h2.51a.74.74 0 0 0 .74-.74v-1.09a.82.81-90 0 0-.81-.82h-5.97a.42.41-90 0 0-.41.42q.02 3.7.02 7.15m16.31 7.5q.75 0 1 0a.67.67 0 0 0 .66-.67v-4.56a.64.54 58.7 0 1 .03-.19l3.12-9.15a.41.41 0 0 0-.39-.54h-1.94a.95.94-83.5 0 0-.92.74q-1.12 5.04-1.55 5.06-.44-.02-1.55-5.07a.95.94 83.6 0 0-.92-.73l-1.94-.01a.41.41 0 0 0-.39.54l3.11 9.16a.64.54-58.6 0 1 .03.19l-.01 4.56a.67.67 0 0 0 .66.67q.25 0 1 0m53.66-7.66a.42.42 0 0 0-.42-.42h-37.82a.42.42 0 0 0-.42.42v.04a.42.42 0 0 0 .42.42h37.82a.42.42 0 0 0 .42-.42v-.04m-134.17.455a.36.36 0 0 0-.359-.361l-28-.049a.36.36 0 0 0-.361.359v.02a.36.36 0 0 0 .359.361l28 .049a.36.36 0 0 0 .361-.359v-.02" class="C"/><path d="M389.58 700.07a.56.55 53.1 0 1 .89.13c3.02 5.76 9.39 15.26 17.21 11.97q2.84-1.19 2.34-4.18-2.35-14.08-4.17-36.57c-.29-3.5-2.62-3.85-5.46-3.52q-19.05 2.27-30.58 3.98c-3.76.56-7.87-.7-10.03 3.35-2.55 4.78 7.87 10.7 11 12.59a1.47 1.47 0 0 1 .34 2.23l-46.48 52.74a.66.65-51.1 0 1-.88.1q-15.08-10.97-28.12-20.27c-3.58-2.56-7.03-4.5-11.16-1.77a2.7 2.67-85.2 0 0-.49.42q-5.14 5.82-5.96 6.74-15.71 17.55-32.45 35.56-14.72 15.84-19.09 20.67-2.08 2.31-4.32 5.29c-3.56 4.74 1.38 10.22 6.15 9.56q2.4-.34 6.51-4.46.39-.39 10.26-9.53 6.64-6.15 14.14-14.36c9.57-10.46 22.85-23.09 30.4-30.9a1.15 1.14 38.6 0 1 1.46-.16q18.03 11.97 29.76 20c4.32 2.96 7.47 5.05 11.67.58q28.73-30.51 57.06-60.19m3.3 129.04h-9.67a.65.64-3.5 0 1-.64-.56q-7.92-57.53-9.09-65.24-.68-4.47-4.96-4.44-11.15.08-25.31 1.13c-4.96.36-5.32 3.05-4.67 7.6q7.52 52.41 8.77 60.99a.44.44 0 0 1-.43.51h-12.75a.61.6-3.8 0 1-.6-.52q-3.72-26.99-5.76-43.33-.41-3.28-3.28-5.08a1.4 1.37-28.9 0 0-.72-.2h-30.38a3.12 3.11-82.1 0 0-3 2.28q-.62 2.2-.27 4.75 5.49 40.97 5.69 41.58a.41.41 0 0 1-.39.54l-12.94-.03a.73.72-4.1 0 1-.72-.62q-.48-3.16-2.32-17.37c-.56-4.31-.86-8.55-6.71-8.05q-10.19.86-23.74 1.01c-4.34.04-6.77.79-7.71 5.06a1.3 1.19 48.8 0 0-.01.47l2.62 19.01a.43.42 86.4 0 1-.42.48l-23.18.02a3.41 3.41 0 0 0-3.21 4.55l.02.05a6.72 6.71-10 0 0 6.31 4.41l212.52-.07a4 4 0 0 0 4-4v-2.28a2.7 2.7 0 0 0-2.7-2.7h-6.32a.81.8 88.5 0 1-.8-.77q-.1-2.47-.49-5.15-9.13-63.84-12.94-91.03c-.39-2.76-2.97-4.04-5.89-4.03q-7.28.02-14.89-.73c-3.61-.36-6.53-.05-9.36-.31-4.58-.41-7.9.67-7.16 5.84q4.51 31.71 13.85 95.82a.36.35 85.8 0 1-.35.41m51.96 38.33a5.57 5.57 0 0 0-5.57-5.57h-211.5a5.57 5.57 0 0 0-5.57 5.57v.08a5.57 5.57 0 0 0 5.57 5.57h211.5a5.57 5.57 0 0 0 5.57-5.57v-.08" class="B"/><path d="M951.31 682.925a.6.6 0 0 0-.599-.601l-4.06-.007a.6.6 0 0 0-.601.599l-.02 11.2a.6.6 0 0 0 .599.601l4.06.007a.6.6 0 0 0 .601-.599l.02-11.2m114.89.335a.97.97 0 0 0-.97-.97h-3.4a.97.97 0 0 0-.97.97v23.08a.97.97 0 0 0 .97.97h3.4a.97.97 0 0 0 .97-.97v-23.08m28.758-.006a.45.45 0 0 0-.449-.451l-4.02-.007a.45.45 0 0 0-.451.449l-.016 8.96a.45.45 0 0 0 .449.451l4.02.007a.45.45 0 0 0 .451-.449l.016-8.96" class="C"/><g class="B"><path d="M1341.168 707.819a86.81 84.95-90.8 0 0-83.73 87.988 86.81 84.95-90.8 0 0 86.154 85.615 86.81 84.95-90.8 0 0 83.73-87.988 86.81 84.95-90.8 0 0-86.154-85.615"/><path d="M1343.718 716.902a77.83 76.04-89 0 0-77.387 76.491 77.83 76.04-89 0 0 74.67 79.145 77.83 76.04-89 0 0 77.387-76.491 77.83 76.04-89 0 0-74.67-79.145"/><path d="M1348.39 841.18q14.71-2.73 22.02-14.25c6.32-9.95 6.36-24.84-4.47-31.89-9.57-6.23-22.27-9.01-30.96-12.2q-7.78-2.86-8.07-10.57c-.16-4.36 3.72-9.02 7.67-9.88q15.2-3.31 25.01 7.66c5.43 6.09 15.25-3.07 11.15-9.26-4.61-6.94-14.06-11.43-22-12.85a1 .99-82.9 0 1-.81-1.05c.21-2.89 1-8.91-1.57-10.96-5.67-4.53-11.95-.11-11.45 6.58q.16 2.23-.28 3.62a.91.89 1.5 0 1-.66.61c-15.32 3.54-25.14 13.36-23.94 30.05.82 11.44 11.14 18.91 21.4 22.09q12.28 3.81 19.31 6.59c6.17 2.44 7.88 8.7 5.19 14.49-1.68 3.63-7.54 6.78-11.06 6.9q-7.38.25-9.98-.26-6.46-1.25-12.31-5.71c-3.44-2.64-6.13-7.6-11.27-3.6-5.4 4.21-3.66 9.25.4 13.29q9.05 9 22.24 11.31a1.28 1.28 0 0 1 1.06 1.33c-.3 5.2-.98 12.63 6.12 12.82 8.44.23 6.91-8.66 6.71-14.17a.68.68 0 0 1 .55-.69"/></g><path d="M997.85 724.37a.58.58 0 0 0-.58-.58h-1.16a.58.58 0 0 0-.58.58v4.56a.58.58 0 0 0 .58.58h1.16a.58.58 0 0 0 .58-.58v-4.56M420.8 828.94a1.03 1.03 0 0 0 1.02-1.18l-13.04-89.83a1.03 1.03 0 0 0-.93-.88l-18.48-1.62a1.03 1.03 0 0 0-1.11 1.18l13.27 91.45a1.03 1.03 0 0 0 1.02.88h18.25m-73.07-61.25a.68.68 0 0 0-.68.78l8.71 59.92a.68.68 0 0 0 .67.58h17.09a.68.68 0 0 0 .68-.78l-8.71-59.92a.68.68 0 0 0-.67-.58h-17.09m-48.22 20.76a.56.56 0 0 0-.56.63l5.17 39.34a.56.56 0 0 0 .55.49h19.67a.56.56 0 0 0 .56-.63l-5.18-39.34a.56.56 0 0 0-.55-.49h-19.66m-28.34 24.19a.98.98 0 0 0-1.03-.85l-18.78 1.11a.98.98 0 0 0-.91 1.1l1.85 14.1a.98.98 0 0 0 .97.85h18.92a.98.98 0 0 0 .97-1.11l-1.99-15.2" class="C"/></g><rect x="568.92" y="52.26" width="10.06" height="30.94" rx="4.85" class="D"/><path d="M1134.56 394.96q-1.09.47-1.18 1.2a.77.76-16.3 0 0 1.25.68q.93-.77.33-1.79l.78-.19a2.12 2.09-76.3 0 0 1.09-.67l202.4-229.64a1.33 1.32 41.1 0 0-.13-1.89q-22.5-19.13-35.35-29.57-3.07-2.5-3.52-3.93c-1.18-3.76 1.03-6.29 4.71-7.48q150.11-48.57 163.05-52.71 4.03-1.28 6-1.76c3.07-.73 6.33 2 7.44 4.41q.59 1.29-.04 5.3-12 75.29-27.31 168.57-1.12 6.84-2.3 7.96-3.06 2.9-8.23.59a1.62 1.36 71.8 0 1-.34-.21l-38.9-33.49a.47.46 41 0 0-.65.04l-235.17 263.95a1.23 1.23 0 0 0 .41 1.94c43.65 19.85 79.23 36.31 111.89 53.1a.29.29 0 0 0 .42-.26q-.11-76.44.01-101.85.04-6.89 6.76-6.9 44.13-.09 62.54.05 6.29.05 6.3 6.34.04 30.69.03 179.27a1.05 1.04 90 0 0 1.04 1.05h16.48a.73.73 0 0 0 .73-.73q-.01-133.4-.01-272.82c0-2.13.54-5.25 1.27-6.92q1.24-2.83 4.65-2.8 4.56.05 68.28.01 5.58 0 5.58 5.43 0 23.85 0 277.03a.9.9 0 0 0 .92.9q9.65-.2 15.43.03c6.16.23 8.84 10.2-.71 10.25q-45.94.24-116.77-.03a.87.86-9.4 0 0-.82 1.14q7.94 23.4 14.78 49.91a.74.74 0 0 0 .62.56c55.01 8.23 97.27 49.39 102.55 105.45q.18 1.92.08 11.55-.07 6.95-.6 11.46c-6.03 51.28-43.29 89.58-93.39 99.7q-10.03 2.03-19.64 2.87a.23.23 0 0 0-.2.2l-2.59 29.8a1.29 1.27-89.7 0 1-1.16 1.16q-10.98.9-29.62 1.08-61.32.61-153.75.7-222.37.23-465.91-.53c-4.93-.02-10.72.7-15.34.77q-9.25.15-39.82.15-368.92-.04-439.18.08-5 .01-13.5-.35-7.43-.31-11.89-2.26-12.32-5.4-17.04-18.97-1.01-2.88-2.2-11.06-9.9-67.61-39.99-268.58-1.81-12.08 6.48-20.4 6.08-6.09 14.64-6.1 96.59-.13 194.74-.03a.83.83 0 0 0 .83-.83q.03-166.35-.01-269.26-.01-16.2 1.08-20.14c2.71-9.71 10.92-18.27 21.12-20.69q2.99-.7 9.61-.7 386.27.02 415.6-.03 9.74-.01 13.58 1.18c8.35 2.6 14.88 9.5 17.73 17.61q1.36 3.85 1.35 11.97-.07 140.13.02 172.49a.9.9 0 0 0 1.58.59l76.85-86.26a1.36 1.36 0 0 0 .2-1.52q-14.8-29.26-18.43-62.75a3.07 3.04-71.5 0 0-.93-1.89q-8.57-8.29-13.02-19.89c-6.27-16.32-12.18-35.34-13.49-52.98q-.48-6.64.97-13.73c2.08-10.15 8.02-16.64 18.9-14.46a.69.68.9 0 0 .81-.78q-3.77-23.1-5.12-46.9c-.28-4.94-.32-12.56.46-19.18q.23-1.87.57-5.45 1.77-18.34 10.04-33.58 1.51-2.8 8.34-14.09c3.56-5.91 5.13-12.89 9.51-18q6.94-8.09 16.64-15.68c23.65-18.51 50.57-27.5 80.76-30.74 37.66-4.03 77.6 3.02 108.86 25.09q11.46 8.1 19.58 18.41c3.59 4.56 6.73 9.88 12.27 13.93 23.87 17.45 33.7 41.84 36.22 70.86q.82 9.35-.48 21.82-1.77 17.13-5.27 32.56a.63.62-87 0 0 .68.76c2.22-.27 4.13-.54 6.28-.15 9.26 1.67 15.93 8.4 17.88 17.54 1.11 5.16 1.06 7.92.55 13.59-1.2 13.15-5.89 26.97-11.59 39.35q-1.45 3.15-7.87 15.11-3.07 5.7-6.14 10.01c-4.68 6.57-8.34 11.1-15.27 13.8q-5.96 2.33-11.13-.1a1.08 1.08 0 0 0-1.53.85q-1.92 15.71-5.48 30.51a.71.71 0 0 0 .14.61l.32.38zm-101.03-279.63q-5.46 3.06-13.02 6.64-28.61 13.52-60.24 7.21c-8.23-1.64-17.28-3.79-17.95-3.22a.59.58 40.1 0 0 .09.94q3.51 2.15 8.06 3.86c21.56 8.08 46.24 7.9 67.29-2.23q9.75-4.69 16.39-12.45a.5.49 5.6 0 0-.62-.75zM890.56 296.78q-.15 14.87-.42 29.75c-.23 12.41.39 23.59 1.78 34.81 5.67 46.04 31.04 93.35 72.79 116.23q12.19 6.68 28.37 9.16c20.34 3.12 41.13-1.92 59.23-11.92q24.42-13.47 42.36-33.39 12.49-13.87 19.67-25.26c9.59-15.22 13.85-34.05 15.95-51.91q3.57-30.38 2.69-61.06-.43-3.89-.74-7.79c-.68-8.65-1.87-16.94-2.79-26.28-.66-6.77-.5-12.9-1.01-19.55q-.43-5.55-.39-14.67.04-11.28.05-26.4 0-2.72-1.45-5.14-4.61-7.67-6.62-11.14-6.26-10.84-8.44-24.29-2.6-16.07-3.57-22.18-.51-3.23-1.72-6.82a3.49 3.48-6.5 0 0-2.96-2.35l-8.4-.8a.45.33-27.3 0 1-.13-.02q-8.6-2.07-17.8-8.14-2.28-1.49-5.96-2.58a3.98 3.95-46 0 0-2.35.05q-1.28.43-4.28 1.89-7.81 3.8-13.54 6.57-28.69 13.84-60.72 16.05c-21.32 1.48-42.38-1.94-62.59-8.94-2.71-.94-3.77-.93-6.05.6q-15.84 10.59-22.28 28.72-2.93 8.27-3.85 14.7c-2.36 16.48-3.15 32.9-3.51 51.19q-.59 30.45-1.32 60.91zm235.8-130.18q-.15.84.04 1.77c2.74 12.81 10.12 22.89 19.42 31.8a2.49 2.48-23 0 0 1.72.69h.4a.53.53 0 0 0 .38-.89q-9.3-10.09-14.88-20.42-4.25-7.87-6.69-13.01a.21.21 0 0 0-.39.06zM880.1 225.58q1.66-8.55 6.11-28.62c.85-3.85.89-7.85 1.68-11.77a.56.55-27 0 0-1.05-.34c-5.74 12.34-7.59 25.69-7.69 39.83q0 .64.28 1.04a.37.37 0 0 0 .67-.14zm268.08 128.95c9.18-3.34 13.99-13.06 18.8-22.08 8.75-16.45 17.22-35.15 17.46-54.2.12-9.48-5.44-16.94-15.67-15.67-11.23 1.39-20.16 13.05-23.19 23.06-.81 2.65-2.48 8.49-2.48 11.72q.01 23.55-1.69 48.24-.34 5.01.43 6.18 1.74 2.66 5.19 2.91a2.67 2.61-52.3 0 0 1.15-.16zm-267.06-14.1q-.34-16.81-.06-46.93c.08-9.2-.32-18.77-3.94-26.85q-2.14-4.79-7.34-3.65c-3.24.7-5.03 4.25-5.4 7.39q-1.5 12.74 1.47 25.99 4.33 19.34 11.75 38.23 1.41 3.59 3.22 5.93a.17.17 0 0 0 .3-.11zm-87.59 200.75a.4.39-37.5 0 0 .5.06l14.23-9.05a3.59 3.58 74 0 0 1.66-3.01l.02-195.2c.01-3.69-.21-7.56-1.51-10.71-3.92-9.52-16.55-9.39-24.95-9.39q-184.37-.03-402.48.03-5.47 0-9.15.97c-11.16 2.97-11.55 11.92-11.55 21.62q.11 232.75.07 277.93a1.1 1.09 0 0 0 1.1 1.09h14.13a1.33 1.33 0 0 0 1.33-1.33q-.33-47.73-.14-92.28l-.05-89.66q.09-20.55-.15-90.8c-.01-2.83.55-4.9 2.57-6.59q1.03-.86 5.33-.86 170.07.06 398.01-.01c5.95 0 10.81-.49 10.84 6.51q.12 26.54-.01 135.37 0 3.55.27 31.26.12 11.67-.3 33.54a.45.39 40.7 0 0 .03.2q.08.19.2.31zM386.6 344.3v265.49a.38.38 0 0 0 .38.38h356.98a.84.84 0 0 0 .77-.5q8.39-18.94 17.39-33.59 8.17-13.3 20.4-25.63a2.54 2.51-23 0 0 .73-1.77V344.36a.54.54 0 0 0-.54-.54H387.08a.48.48 0 0 0-.48.48zm1058.08.25a.85.85 0 0 0-.85-.85h-57.58a.85.85 0 0 0-.85.85v271.7a.85.85 0 0 0 .85.85h57.58a.85.85 0 0 0 .85-.85v-271.7zm-321 76.27q-.85.8-1.03 1.07-15.84 23.83-34.57 41.44c-17.37 16.33-38.09 29.84-60.52 35.73-32.18 8.44-65.2-2.07-89.5-24.24a.5.49 21.9 0 0-.83.35q-.08 4.31-.65 6.73c-1.01 4.28-.77 8.01-1.22 13.86-1.56 20.24 6.93 35.04 23.37 46.85q15.9 11.41 35.76 14.91 36.7 6.45 70.99-8.03c22.87-9.65 44.4-25.86 60.68-44.56q6.63-7.61 10.38-16.96a1.1 1.09 29.1 0 0-.38-1.31c-8.36-5.94-9.68-14.91-10.71-24.14q-2.31-20.84-1.37-41.51a.24.24 0 0 0-.4-.19zm222.64 190.21q.22-.4.22-1.03-.06-10.06-.09-168.78a.82.82 0 0 0-.82-.82h-53.24a.54.54 0 0 0-.54.54v104.48a1.77 1.77 0 0 0 .83 1.5q11.24 7.23 21.38 16.81c13.29 12.56 24.29 30.32 31.74 47.28a.29.29 0 0 0 .52.02zm-198.77-126a.72.72 0 0 0-1.01.35q-3.98 9.47-4.59 10.95c-3.95 9.45-10.09 17.19-17.12 24.01q-21.58 20.9-48.01 34.43-33.33 17.06-73.33 13.79c-25.77-2.1-51.34-14.04-66.62-34.95-8.01-10.95-10.76-24.77-9.59-38.84a.55.55 0 0 0-.75-.56q-31.06 11.94-59.93 24.21-10.73 4.57-23.13 9.61-28.77 11.68-29.81 12.05c-6.03 2.14-11.39 5.46-16.03 9.31q-18.38 15.23-30.42 36.15-18.14 31.53-26.9 63.82-8.72 32.08-12.77 45.69-11.22 37.62-24.65 70.81c-.75 1.84-1.77 3.68-2.69 5.49a.95.95 0 0 0 .41 1.27c9.93 5.16 17.01 8.7 27.58 12.4l55.8 19.43a.68.68 0 0 0 .88-.73q-2.31-17.77-2.66-34.72-.84-40.01 2.72-76.5 2.84-29.12 8.19-55.04 1.02-4.92 3.05-9.07a2 2 0 0 1 2.97-.74c2.36 1.72 1.74 4.68 1.37 7.35-6.01 43.6-10.13 83.5-9.29 124q.61 29.39 2.59 45.75 4.93 40.78 4.01 79.49-.78 32.77-1.9 50.3a.8.8 0 0 0 .8.86h409.5a.97.96-88.8 0 0 .96-.93l3.04-86.8a1.17 1.16-82.9 0 0-.91-1.18q-2.87-.66-5.54-.79c-4.72-.22-7.47-.9-7.57-5.87q-.72-36.95.08-68.82.85-34.13 4.69-61.88 2.08-15 5.92-33.29 5.1-24.25 14.62-46.35c6.51-15.12 15.14-30.17 26.77-41.42q2.7-2.62 6.11-1.92a1.7 1.69-73.3 0 1 1.23 2.3q-1.24 3.07-3.54 5.41-5.41 5.5-9.73 12.49-11.57 18.68-18.44 38.86-5.16 15.17-9.78 36.41-4 18.42-5.68 37.27c-3.38 38.03-3.57 76.12-3.32 115.95a.85.85 0 0 0 .85.85h30.3a.61.61 0 0 0 .57-.81q-7.73-21.51-6.95-44.16c1.27-36.56 20.78-71.03 50.41-91.91 20.48-14.42 43.31-20.48 67.95-21.51q4.04-.17 8.19.17a.69.69 0 0 0 .73-.86q-6.63-26.67-16.02-51.79-8.01-21.41-20.44-38.77-5.78-8.07-11-13.25c-10.66-10.58-23.14-19.61-37.64-27.44q-13.94-7.52-17.65-9.3-32.89-15.8-73.12-33.56-6.8-3-13.49-6.06c-7.47-3.42-15.05-8.51-20.27-11.41zM451.88 621.31q.16.72.71 1.3 6.15 6.45 7.99 15.29.96 4.65 1.58 10.76a1.68 1.67 87.1 0 0 1.66 1.51h265.24a1.78 1.77-80.6 0 0 1.68-1.21l9.19-27.02a.87.87 0 0 0-.82-1.15H452.3a.43.42-6.4 0 0-.42.52zm33.74 281.54q-2.37-17.16-6.02-41.22-11.63-76.55-31.9-209.38c-.97-6.37-.48-15.2-6.54-19.13q-1.8-1.16-7.55-1.15-156.32.16-278.68.07c-6.11-.01-9.57.87-11.25 6.68-.69 2.41.15 6.45.56 9.29q11.53 78.21 23.74 159.49.22 1.51 13.86 95.12a.6.6 0 0 0 .59.51h302.94a.25.25 0 0 0 .25-.28zm60.09-241.6a.7.7 0 0 0-.68-.86h-80.41a.83.83 0 0 0-.82.96l37.17 241.24a.64.63-4.2 0 0 .63.54h65.28a5.25 5.25 0 0 0 3.48-1.32c8.1-7.17 17.08-12.89 29.53-20.66q7.61-4.75 24.78-14.02 15.55-8.4 25.63-12.39 16.62-6.57 33.89-11.04a3.23 3.22 2.4 0 0 2.24-2.05c3.16-8.98 6.55-17.78 9.74-28.04q4.49-14.43 9.73-26.41a1.38 1.37 22.2 0 0-.78-1.84q-6.39-2.35-12.05-6.38a2.83 2.71 2.7 0 1-.74-.78c-2.25-3.54-1.02-7.79.55-11.61 14.1-34.42 25.14-70.16 34.64-105.02a.93.93 0 0 0-.9-1.17h-105.1a.65.65 0 0 0-.65.65v46.64a.54.54 0 0 0 .54.54q30.03-.12 46.08-.01c8.9.06 16.12 5.89 16.16 15.03.03 5.37 1.4 12.65-4.93 12.65q-76.67-.01-176.38 0c-4.16 0-6.71-.35-7.16-4.68q-.14-1.33-.07-8.64c.09-8.64 6.97-14.1 15.41-14.39q1.51-.05 23.44.01a1.44 1.42 6.3 0 0 1.4-1.11l10.35-45.84zm715.75 68.46q-25.54 33.4-22.09 75.51c4.1 50.13 46.78 90.77 95.99 94.56q13.88 1.07 28.28-1.93c59.22-12.35 95.57-73.72 79.53-132.05q-9.2-33.45-35.99-55-19.93-16.02-44.65-20.84-39.28-7.67-72.95 13.89-16.34 10.46-28.12 25.86zM585.9 903.04q37.92-.02 112.24-.07 5.27 0 8.17 1.06 4.13 1.52 6.86 4.56 10.92 12.17.14 25.57a.57.56 19.2 0 0 .45.92h72.32a.93.92 1.6 0 0 .93-.87q.92-16.07 1.02-31.7c.2-33.01.96-55.34-1.43-81.14q-.21-2.29-.62-4.08a1.14 1.13 1.4 0 0-.81-.84q-7.27-1.94-14.97-4.65-25.68-9.03-49.06-17.9c-2.74-1.04-5.83-2.97-7.83-3.59a.55.55 0 0 0-.71.46q-.17 1.32-.75 3.13c-4.99 15.82-9.33 32.23-15.08 47.21a.58.57-76.9 0 0 .48.78q4.24.37 8.24 2.48a6.88 6.88 0 0 1 3.65 5.67l.01.08a2.48 2.47 10.1 0 1-3.46 2.41q-5.26-2.28-10.94-1.29c-7.98 1.4-18.64 4.37-27.48 7.61-27.06 9.92-52.2 24.25-76.28 39.87q-3.17 2.05-5.22 4a.19.18 23.2 0 0 .13.32zm757.58 30.65q.46.59.96.28 2.29-1.42 1.14-4.97l1.99-18.38a.46.46 0 0 0-.47-.51q-24.52.69-47.34-9.59c-24.3-10.94-44.67-28.59-57.16-52.23a1.13 1.13 0 0 0-1-.6h-22.15a.31.31 0 0 0-.31.31q.1 42.03-2.9 86.52a.68.68 0 0 0 .68.73q61.18.18 124.83-.97.95-.02 1.73-.59zm-886.7-20.5a1.09 1.09 0 0 0-1.01 1.09v17.65a1.56 1.55-.2 0 0 1.57 1.55q41.45-.51 76.84-.14c8.95.1 19.84-.31 28.32-.22q33.47.38 66.11.11l59.57.21q6.65 0 9.46-.87c5.54-1.72 12.82-6.54 10.94-13.02q-1.1-3.76-4.44-5.55-2.03-1.08-7-1.07-37.37.12-105.89-.05-48.58-.12-56-.1-74.54.26-76.75.33-1.27.04-1.72.08z" class="E"/><g class="D"><rect x="-14.25" y="-4.78" transform="matrix(.714473 .699663 -.699663 .714473 515.8 90.24)" width="28.5" height="9.56" rx="4.64"/><rect x="-14.28" y="-4.71" transform="matrix(.716911 -.697165 .697165 .716911 632.27 90.26)" width="28.56" height="9.42" rx="4.58"/></g><path d="M544.42 242.87q-.22-.98-2.29-4.24c-.97-1.54-1.45-4.61-1.61-7.21-.68-11.07-2.96-20.36-9.71-28.75-5.16-6.41-9.51-11.33-12.33-17.45q-6.31-13.76-5.78-26.8 1.34-32.86 28.55-51.24 9.44-6.38 22.2-8.53c4.43-.75 8.5-.38 12.74-.57q2.25-.1 5.09.29c20.52 2.8 38.14 14.96 47.84 32.92 11.49 21.28 8.58 46.17-6.29 65.3-4 5.16-8.73 10.2-11.53 17.12q-2.94 7.28-3.37 15.82c-.24 4.76-1.02 7.03-2.67 11.11a5.62 5.56-34.5 0 0-.39 2.05v11.91a3.6 3.54-32.3 0 1-.37 1.58l-2.05 4.12a4.27 4.2-27.8 0 0-.4 1.26c-1.04 7.04-2.07 12.84-7.78 17.51-5.98 4.88-16.36 5.19-24.5 4.75-13.07-.69-20.31-6.43-21.67-19.84q-.45-4.49-2.54-7.96c-1.5-2.5-.79-11.55-1.14-13.15zm24.57-7.11q-.03-30.42.11-35.28.06-2.21-1.77-4.3-7.34-8.37-13.94-15.6a4.92 4.92 0 0 1 .1-6.75l.25-.27a4.37 4.37 0 0 1 6.41.03l13.43 14.65a1.16 1.15-45.8 0 0 1.72-.03q3.69-4.3 12.2-13.7c5.04-5.55 10.67 1.17 7.74 5.78-2.34 3.67-6.96 7.71-9.68 10.94q-2.15 2.56-5.73 6.48a3.29 3.21-15 0 0-.69 1.16q-.43 1.26-.41 3.63.15 16.1-.14 33.42a.78.78 0 0 0 .8.8q12.6-.36 14.32-.29 4.42.2 4.76-4.46.43-6.04 2.26-14.71 2.22-10.48 10.12-20.2 6.04-7.44 8.91-12.27c18.59-31.24-.89-69.01-34.97-76.41-13.82-3.01-29.92-.13-41.25 8.32q-19.71 14.7-21.6 39.23-1.43 18.53 9.61 33.04 3.15 4.16 7.04 8.94 7.76 9.55 9.49 21.66 1.88 13.1 1.89 13.15.7 3.56 4.25 3.65 8.18.2 14.04.13a.74.74 0 0 0 .73-.74zm25.85 12.62a2.34 2.34 0 0 0-2.34-2.34h-35.44a2.34 2.34 0 0 0-2.34 2.34v3.56a2.34 2.34 0 0 0 2.34 2.34h35.44a2.34 2.34 0 0 0 2.34-2.34v-3.56zm-3.71 15.58l-33.42-.06a.11.11 0 0 0-.11.11v.02a11.74 9.99.1 0 0 11.72 10.01l10.16.02a11.74 9.99.1 0 0 11.76-9.97v-.02a.11.11 0 0 0-.11-.11zm-344.26 15.69a.52.51-90 0 0 .51.52q38.18-.05 38.56-.06c9.46-.27 16.99 2.36 20.61 10.96q1.34 3.17 1.33 11.58-.03 178.18.01 255.05 0 5.47-.98 8.42c-1.91 5.77-6.2 10.09-11.67 12.03q-2.16.76-8.58.76-165.03-.09-196.42.04-7.47.03-10.21-1.08c-6.44-2.59-10.59-8.15-11.67-14.92q-.24-1.47-.24-9.42.01-188.65 0-256.27c0-6.99 4.37-13.13 10.21-15.77q3.66-1.65 14.56-1.41 6.6.14 38.48 0a.95.95 0 0 0 .93-1.09c-.48-3.16-.61-8 1.86-10.64q1.17-1.25 4.53-1.3 15.43-.23 24.38-.02a1.06 1.06 0 0 0 1.08-1.02c.96-24.62 32.26-32.24 46.34-13.99q4.66 6.05 4.61 14.09a1.01 1.01 0 0 0 1.05 1.02q10.28-.36 23.91-.07c8.17.17 6.82 5.86 6.81 12.59zm-.02 12.54q.12 4.99.01 7.87-.2 5.16-5.29 5.21-9.45.11-101.62.07-4.06 0-5.12-.8c-3.48-2.64-2.83-7.48-2.64-12.17a.46.46 0 0 0-.46-.47q-39.77 0-45.49.03-5.34.03-5.34 5.32-.02 123.27 0 262.2c0 4.17.41 7.07 5.11 7.08q46.44.08 202.49.04c2.99-.01 6.6-.49 6.6-4.57q.02-250.52.01-260.71c-.01-5.49.83-9.45-5.83-9.41q-4.94.03-42.15.02a.29.28-90 0 0-.28.29z" class="E"/><path d="M1134.56 394.96l.4.09q.6 1.02-.33 1.79a.77.76-16.3 0 1-1.25-.68q.09-.73 1.18-1.2z" class="F"/><path d="M568.26 236.5q-5.86.07-14.04-.13-3.55-.09-4.25-3.65-.01-.05-1.89-13.15-1.73-12.11-9.49-21.66-3.89-4.78-7.04-8.94-11.04-14.51-9.61-33.04 1.89-24.53 21.6-39.23c11.33-8.45 27.43-11.33 41.25-8.32 34.08 7.4 53.56 45.17 34.97 76.41q-2.87 4.83-8.91 12.27-7.9 9.72-10.12 20.2-1.83 8.67-2.26 14.71-.34 4.66-4.76 4.46-1.72-.07-14.32.29a.78.78 0 0 1-.8-.8q.29-17.32.14-33.42-.02-2.37.41-3.63a3.29 3.21-15 0 1 .69-1.16q3.58-3.92 5.73-6.48c2.72-3.23 7.34-7.27 9.68-10.94 2.93-4.61-2.7-11.33-7.74-5.78q-8.51 9.4-12.2 13.7a1.16 1.15-45.8 0 1-1.72.03l-13.43-14.65a4.37 4.37 0 0 0-6.41-.03l-.25.27a4.92 4.92 0 0 0-.1 6.75q6.6 7.23 13.94 15.6 1.83 2.09 1.77 4.3-.14 4.86-.11 35.28a.74.74 0 0 1-.73.74zm465.27-121.17a.5.49 5.6 0 1 .62.75q-6.64 7.76-16.39 12.45c-21.05 10.13-45.73 10.31-67.29 2.23q-4.55-1.71-8.06-3.86a.59.58 40.1 0 1-.09-.94c.67-.57 9.72 1.58 17.95 3.22q31.63 6.31 60.24-7.21 7.56-3.58 13.02-6.64z" class="D"/><path d="M1132.98 303.19c-1.63-.67-1.38-3.22-3.69-3.21a2.33 2.09-88.5 0 0-2.09 2.21c-.32 6.61-.53 11.91-2.17 17.72q-4.24 15.07-9.87 24.77-7.13 12.28-17.71 26.76-4.44 6.08-10.43 11.29c1.7-11.43 2.66-20.54-3.05-30.18q-8.29-14.01-23.95-18.81-7.02-2.15-12.71-1.83a1.47 1.47 0 0 0-1.2 2.18q1.57 2.84 5.06 4.18 6.51 2.49 12.8 5.13-.2 1.2-1.7.94-12.8-2.22-25.49-2.51c1.49-5.31 1.15-11.23-2.68-15.37-1.74-1.88-5.43-4.48-7.98-3.37a2.06 1.84 56.9 0 0-.47 3.11q4.99 5.79.86 13.08a3.06 3.01-1.6 0 1-1.04 1.08q-3.32 2.1-7.5 2.88-7.41 1.37-12.33 2.61-9.23 2.32-12.36 2.25c-5.99-.13-12.95-.6-17.62-3.77-6.9-4.69-13.75-13.8-7.02-21.72q18.14-21.33 20-49.11.54-8.01-3.44-14.13-1.35-2.07-2.66-2.18-2.84-.23-2.62 2.63 1.51 19.93-4.69 37.86-1.21 3.49-4.17 8.54c-2.97 5.03-9.13 10.04-12.35 14.77-4.33 6.38-3.46 12.92-.18 19.68l-14.51-1.4q2.97-2.51 4.04-4.44a1.05 1.04 12.9 0 0-.98-1.55c-13.21.78-25.29 12.58-29.68 23.67q-3.99 10.07-.12 23.87-4.81-5.48-11.09-14.24c-6.84-9.52-10.41-17.98-12.5-29.59q-1.72-9.52-1.99-15.23-.4-8.25-.06-20.72a3.79 3.71 38.4 0 0-.15-1.18l-.93-3.08q.73-30.46 1.32-60.91c.36-18.29 1.15-34.71 3.51-51.19q.92-6.43 3.85-14.7 6.44-18.13 22.28-28.72c2.28-1.53 3.34-1.54 6.05-.6 20.21 7 41.27 10.42 62.59 8.94q32.03-2.21 60.72-16.05 5.73-2.77 13.54-6.57 3-1.46 4.28-1.89a3.98 3.95-46 0 1 2.35-.05q3.68 1.09 5.96 2.58 9.2 6.07 17.8 8.14a.45.33-27.3 0 0 .13.02l8.4.8a3.49 3.48-6.5 0 1 2.96 2.35q1.21 3.59 1.72 6.82.97 6.11 3.57 22.18 2.18 13.45 8.44 24.29 2.01 3.47 6.62 11.14 1.45 2.42 1.45 5.14-.01 15.12-.05 26.4-.04 9.12.39 14.67c.51 6.65.35 12.78 1.01 19.55l2.79 26.28q.31 3.9.74 7.79zm-44.4-45.23c2.65 2.41 6.17-.09 7.29-2.59s-.27-5.98-1.71-8.29q-7.75-12.4-21.05-17.68-19.83-7.88-42.21-5.61-5.62.57-8.02 5.29-2.48 4.88 1.18 8.4 1.94 1.88 4.25 1.5 16.12-2.59 31.97 1.51c11.84 3.07 19.55 9.56 28.3 17.47zm-186.13-2.41c3.48 1.68 6.48-1.86 10.31-4.83 10.38-8.06 22.82-10.28 36-11.4q4.38-.37 8.08.2c5.23.8 13.03 1.9 14.09-4.78.87-5.55-3.34-9.26-8.42-9.73-20.47-1.89-42.34 2.64-56.88 17.55-3.47 3.56-6.14 7.28-3.94 12.21a1.6 1.58-89.6 0 0 .76.78zm31.9 11.27l-1.24 3.89a1.3 1.29 54.1 0 0-.06.39c-.3 8.04 5.81 12.25 13.31 11.45 7.34-.78 11.29-10.13 9.85-16.72a.62.62 0 0 1 .92-.67q4.45 2.54 7.62 6.11a2.1 2.1 0 0 0 3.55-.72l.43-1.28a4.21 4.2-55.5 0 0-.74-4.04q-6.95-8.43-17.53-9.27-19.56-1.55-35.37 13.44a3.01 3.01 0 0 0 .12 4.47l.12.1a4.02 4.02 0 0 0 5.14.07q6.49-5.23 13.18-7.88a.53.53 0 0 1 .7.66zm111.22-2.19c-2.21 6.24-.99 14.1 5.06 17.19 2.87 1.47 9.54 2.5 12.12-.8q4.4-5.61 4.48-12.02a.5.5 0 0 1 .79-.41q5.03 3.58 7.39 7.35a1.94 1.94 0 0 0 3.33-.05l.59-1.03a5.57 5.56 41.8 0 0-.35-6.1q-2.05-2.76-5.18-5.02c-12.25-8.81-29.84-11.35-42.63-2.31q-3.97 2.8-3.48 7.54.16 1.62.91 2.39a1.88 1.81-46.5 0 0 2.7-.12q5.28-5.94 13.81-7.16a.42.42 0 0 1 .46.55zm49.182 12.334a9.37 2.49-178.8 0 0 9.316 2.686 9.37 2.49-178.8 0 0 9.42-2.293 9.37 2.49-178.8 0 0-9.316-2.686 9.37 2.49-178.8 0 0-9.42 2.293zm-181.867 4.508a8.22 3.04-37.8 0 0-8.358 2.636 8.22 3.04-37.8 0 0-4.632 7.44 8.22 3.04-37.8 0 0 8.358-2.636 8.22 3.04-37.8 0 0 4.632-7.44zm180.601 1.998a9.98 2.8-143.9 0 0 6.414 8.143 9.98 2.8-143.9 0 0 9.713 3.618 9.98 2.8-143.9 0 0-6.414-8.143 9.98 2.8-143.9 0 0-9.713-3.618z" class="G"/><path d="M1126.36 166.6a.21.21 0 0 1 .39-.06q2.44 5.14 6.69 13.01 5.58 10.33 14.88 20.42a.53.53 0 0 1-.38.89h-.4a2.49 2.48-23 0 1-1.72-.69c-9.3-8.91-16.68-18.99-19.42-31.8q-.19-.93-.04-1.77zM880.1 225.58a.37.37 0 0 1-.67.14q-.28-.4-.28-1.04c.1-14.14 1.95-27.49 7.69-39.83a.56.55-27 0 1 1.05.34c-.79 3.92-.83 7.92-1.68 11.77q-4.45 20.07-6.11 28.62z" class="D"/><rect x="554.72" y="246.04" width="40.12" height="8.24" rx="2.34" class="F"/><path d="M1036.78 341.83q-2.42 3.36-5.95 5.81-2.77 1.91-7.58 3.42-6.27 1.97-15.55 5.6c-9.72 3.79-26.99 4.94-35.29-2.31-7.27-6.35-11.12-8.96-13.88-13.68-3.28-6.76-4.15-13.3.18-19.68 3.22-4.73 9.38-9.74 12.35-14.77q2.96-5.05 4.17-8.54 6.2-17.93 4.69-37.86-.22-2.86 2.62-2.63 1.31.11 2.66 2.18 3.98 6.12 3.44 14.13-1.86 27.78-20 49.11c-6.73 7.92.12 17.03 7.02 21.72 4.67 3.17 11.63 3.64 17.62 3.77q3.13.07 12.36-2.25 4.92-1.24 12.33-2.61 4.18-.78 7.5-2.88a3.06 3.01-1.6 0 0 1.04-1.08q4.13-7.29-.86-13.08a2.06 1.84 56.9 0 1 .47-3.11c2.55-1.11 6.24 1.49 7.98 3.37 3.83 4.14 4.17 10.06 2.68 15.37z" class="E"/><path d="M1147.03 354.69q-3.45-.25-5.19-2.91-.77-1.17-.43-6.18 1.7-24.69 1.69-48.24c0-3.23 1.67-9.07 2.48-11.72 3.03-10.01 11.96-21.67 23.19-23.06 10.23-1.27 15.79 6.19 15.67 15.67-.24 19.05-8.71 37.75-17.46 54.2-4.81 9.02-9.62 18.74-18.8 22.08a2.67 2.61-52.3 0 1-1.15.16zm6.83-30.85q3.05.96 5.6-1.67c5.44-5.61 3.08-12.83 1.59-20.66-1.25-6.57 4.95-13.75 10.02-17.56 2.23-1.68 4.42-3.33 2.36-5.87-1.8-2.2-5.45-.13-7.15 1.23-6.23 4.99-14.67 15.44-12.33 23.84q2.86 10.3-.62 19.6a.84.83-71.1 0 0 .53 1.09zm-273.04 16.7q-1.81-2.34-3.22-5.93-7.42-18.89-11.75-38.23-2.97-13.25-1.47-25.99c.37-3.14 2.16-6.69 5.4-7.39q5.2-1.14 7.34 3.65c3.62 8.08 4.02 17.65 3.94 26.85q-.28 30.12.06 46.93a.17.17 0 0 1-.3.11z" class="G"/><path d="M591.13 263.96a.11.11 0 0 1 .11.11v.02a11.74 9.99.1 0 1-11.76 9.97l-10.16-.02a11.74 9.99.1 0 1-11.72-10.01v-.02a.11.11 0 0 1 .11-.11l33.42.06z" class="F"/><path fill="#fff" d="M246.85 292.19a.29.28 90 0 1 .28-.29q37.21.01 42.15-.02c6.66-.04 5.82 3.92 5.83 9.41q.01 10.19-.01 260.71c0 4.08-3.61 4.56-6.6 4.57q-156.05.04-202.49-.04c-4.7-.01-5.11-2.91-5.11-7.08q-.02-138.93 0-262.2 0-5.29 5.34-5.32 5.72-.03 45.49-.03a.46.46 0 0 1 .46.47c-.19 4.69-.84 9.53 2.64 12.17q1.06.8 5.12.8 92.17.04 101.62-.07 5.09-.05 5.29-5.21.11-2.88-.01-7.87zm-120.7 69.31q-.26 0-.48-.25-5.57-6.17-9.91-10.63c-4.56-4.67-9.8-1.78-12.21 3.34-.88 1.88.06 3.75 1.26 5.06q2.49 2.71 12.37 13.08 4.67 4.9 5.09 5.21c6.19 4.5 10.38-.83 14.79-6.36q18.75-23.55 21.71-26.96 2.41-2.77 2.24-5.68c-.26-4.41-4.35-7.62-8.7-6.15q-1.67.55-4.48 4.06-.14.18-21.1 24.99-.24.28-.58.29zm142.39-9.46a6.58 6.58 0 0 0-6.58-6.58h-79.42a6.58 6.58 0 0 0-6.58 6.58v.3a6.58 6.58 0 0 0 6.58 6.58h79.42a6.58 6.58 0 0 0 6.58-6.58v-.3zm-142.37 66.97q-.26.01-.48-.24-5.62-6.16-10-10.61c-4.59-4.66-9.83-1.73-12.21 3.42-.88 1.88.07 3.76 1.28 5.07q2.51 2.69 12.48 13.04 4.7 4.89 5.13 5.2c6.23 4.48 10.4-.88 14.79-6.45q18.67-23.71 21.63-27.15 2.39-2.79 2.21-5.7c-.28-4.42-4.41-7.62-8.76-6.13q-1.67.56-4.47 4.1-.14.18-21.02 25.16-.24.28-.58.29zm142.38-10.99a6.58 6.58 0 0 0-6.58-6.58h-79.46a6.58 6.58 0 0 0-6.58 6.58v.32a6.58 6.58 0 0 0 6.58 6.58h79.46a6.58 6.58 0 0 0 6.58-6.58v-.32zm-142.32 67.32q-.26.01-.48-.24-5.63-6.15-10.02-10.59c-4.6-4.65-9.84-1.71-12.21 3.44-.87 1.89.08 3.76 1.3 5.07q2.51 2.69 12.5 13.02 4.71 4.88 5.14 5.18c6.24 4.47 10.4-.9 14.78-6.48q18.62-23.75 21.57-27.19 2.39-2.8 2.2-5.71c-.29-4.42-4.42-7.61-8.77-6.11q-1.67.57-4.46 4.11-.14.18-20.97 25.21-.24.28-.58.29zm142.32-11.47a6.76 6.76 0 0 0-6.76-6.76h-79.1a6.76 6.76 0 0 0-6.76 6.76v.24a6.76 6.76 0 0 0 6.76 6.76h79.1a6.76 6.76 0 0 0 6.76-6.76v-.24zm-142.37 68.2q-.26.01-.48-.24-5.64-6.15-10.04-10.59c-4.6-4.65-9.85-1.7-12.21 3.45-.87 1.9.08 3.77 1.3 5.08q2.52 2.69 12.52 13.02 4.72 4.88 5.15 5.18c6.25 4.47 10.41-.91 14.79-6.5q18.62-23.79 21.56-27.23 2.39-2.81 2.2-5.72c-.29-4.42-4.43-7.61-8.78-6.11q-1.67.57-4.46 4.12-.14.18-20.97 25.25-.24.28-.58.29zm142.41-11.289a6.61 6.61 0 0 0-6.598-6.622l-79.32-.138a6.61 6.61 0 0 0-6.621 6.598v.22a6.61 6.61 0 0 0 6.598 6.622l79.32.138a6.61 6.61 0 0 0 6.621-6.598v-.22z"/><path d="M917.28 380.82q.37.07.9 2.57a1.19 1.19 0 0 0 2.25.23c2.13-4.88 1.29-10.68 1.98-15.92q.25-1.88 1.92-5.61 1.7 1.85 3.91 3.19 1.69 1.03 3.49.7 1.11-.21 4.81-1.19-1.13 3.46-.27 6.82-.78 7.34.21 13.91 1.45 9.69 3.94 18.14c7.01 23.81 24.55 38.95 48.31 43.65 17.83 3.54 37.21 1.71 51.1-10.25q20.36-17.56 28.15-44.11 3.58-12.23-1.17-24.12l.15-.85 5.48 1.46a2.85 2.7 46.5 0 0 1.14.06q5.67-.88 6.59-5.22l.65 4.16a13.63 12.6-50.9 0 1 .15 2.35q-.19 7.1 1.75 14.81a1.16 1.16 0 0 0 2.08.37l2.22-3.24q5.99-5.21 10.43-11.29 10.58-14.48 17.71-26.76 5.63-9.7 9.87-24.77c1.64-5.81 1.85-11.11 2.17-17.72a2.33 2.09-88.5 0 1 2.09-2.21c2.31-.01 2.06 2.54 3.69 3.21q.88 30.68-2.69 61.06c-2.1 17.86-6.36 36.69-15.95 51.91q-7.18 11.39-19.67 25.26-17.94 19.92-42.36 33.39c-18.1 10-38.89 15.04-59.23 11.92q-16.18-2.48-28.37-9.16c-41.75-22.88-67.12-70.19-72.79-116.23-1.39-11.22-2.01-22.4-1.78-34.81q.27-14.88.42-29.75l.93 3.08a3.79 3.71 38.4 0 1 .15 1.18q-.34 12.47.06 20.72.27 5.71 1.99 15.23c2.09 11.61 5.66 20.07 12.5 29.59q6.28 8.76 11.09 14.24zm199.79-16.539a11.1 2.49-84 0 0-3.637 10.779 11.1 2.49-84 0 0 1.316 11.299 11.1 2.49-84 0 0 3.637-10.779 11.1 2.49-84 0 0-1.316-11.3zm-212.395 19.604a8.44 2-106.2 0 0 .434 8.663 8.44 2-106.2 0 0 4.275 7.547 8.44 2-106.2 0 0-.434-8.663 8.44 2-106.2 0 0-4.275-7.547zm205.691 14.441a8.62 2.14-85.5 0 0-2.81 8.426 8.62 2.14-85.5 0 0 1.457 8.761 8.62 2.14-85.5 0 0 2.81-8.425 8.62 2.14-85.5 0 0-1.457-8.761zm-13.225 1.312a8.83 2.29-76.1 0 0-4.344 8.021 8.83 2.29-76.1 0 0 .102 9.122 8.83 2.29-76.1 0 0 4.344-8.021 8.83 2.29-76.1 0 0-.102-9.122zm-178.686 14.608a8.89 2.37-106.5 0 0 .252 9.197 8.89 2.37-106.5 0 0 4.797 7.851 8.89 2.37-106.5 0 0-.253-9.197 8.89 2.37-106.5 0 0-4.797-7.851zm161.292 3.055a11.49 2.53-80.7 0 0-4.353 10.93 11.49 2.53-80.7 0 0 .64 11.748 11.49 2.53-80.7 0 0 4.353-10.93 11.49 2.53-80.7 0 0-.64-11.748zm14.632 12.316a4.02 1.52-93.3 0 0-1.286 4.101 4.02 1.52-93.3 0 0 1.749 3.926 4.02 1.52-93.3 0 0 1.286-4.101 4.02 1.52-93.3 0 0-1.749-3.926zm-160.336 1.439a8.83 2.21-99.3 0 0-.754 9.071 8.83 2.21-99.3 0 0 3.608 8.357 8.83 2.21-99.3 0 0 .754-9.071 8.83 2.21-99.3 0 0-3.608-8.357zm126.287 9.081a9.84 2.44-84.4 0 0-3.389 9.555 9.84 2.44-84.4 0 0 1.468 10.031 9.84 2.44-84.4 0 0 3.389-9.555 9.84 2.44-84.4 0 0-1.468-10.031zm-106.076 6.154a9.48 2.29-97 0 0-1.118 9.688 9.48 2.29-97 0 0 3.428 9.13 9.48 2.29-97 0 0 1.118-9.688 9.48 2.29-97 0 0-3.428-9.13zm83.894 5.689a9.23 2.37-87.4 0 0-2.786 9.113 9.23 2.37-87.4 0 0 1.949 9.328 9.23 2.37-87.4 0 0 2.786-9.113 9.23 2.37-87.4 0 0-1.949-9.328zm-61.234 5.039a9.33 2.42-93.6 0 0-1.829 9.464 9.33 2.42-93.6 0 0 3.001 9.16 9.33 2.42-93.6 0 0 1.829-9.464 9.33 2.42-93.6 0 0-3.001-9.16zm21.165 5.784a9.09 2.42-91.2 0 0-2.229 9.139 9.09 2.42-91.2 0 0 2.61 9.037 9.09 2.42-91.2 0 0 2.229-9.139 9.09 2.42-91.2 0 0-2.61-9.037zm21.743.056a7.28 2.07-87.3 0 0-2.411 7.174 7.28 2.07-87.3 0 0 1.725 7.369 7.28 2.07-87.3 0 0 2.411-7.174 7.28 2.07-87.3 0 0-1.725-7.369z" class="D"/><path d="M793.53 541.18q-.12-.12-.2-.31a.45.39 40.7 0 1-.03-.2q.42-21.87.3-33.54-.27-27.71-.27-31.26.13-108.83.01-135.37c-.03-7-4.89-6.51-10.84-6.51q-227.94.07-398.01.01-4.3 0-5.33.86c-2.02 1.69-2.58 3.76-2.57 6.59q.24 70.25.15 90.8l.05 89.66q-.19 44.55.14 92.28a1.33 1.33 0 0 1-1.33 1.33h-14.13a1.1 1.09 0 0 1-1.1-1.09q.04-45.18-.07-277.93c0-9.7.39-18.65 11.55-21.62q3.68-.97 9.15-.97 218.11-.06 402.48-.03c8.4 0 21.03-.13 24.95 9.39 1.3 3.15 1.52 7.02 1.51 10.71l-.02 195.2a3.59 3.58 74 0 1-1.66 3.01l-14.23 9.05a.4.39-37.5 0 1-.5-.06z" class="F"/><path d="M1087.02 382.73l-2.22 3.24a1.16 1.16 0 0 1-2.08-.37q-1.94-7.71-1.75-14.81a13.63 12.6-50.9 0 0-.15-2.35l-.65-4.16-1.51-6.84a4.29 3.95-65.8 0 0-.25-.75c-2.71-5.89-8.59-10.29-14.44-13.29q-6.29-2.64-12.8-5.13-3.49-1.34-5.06-4.18a1.47 1.47 0 0 1 1.2-2.18q5.69-.32 12.71 1.83 15.66 4.8 23.95 18.81c5.71 9.64 4.75 18.75 3.05 30.18zm-143-43.46q-1.45 1.35-6.62 5.13-9.02 6.59-13.07 17.69-1.67 3.73-1.92 5.61c-.69 5.24.15 11.04-1.98 15.92a1.19 1.19 0 0 1-2.25-.23q-.53-2.5-.9-2.57-3.87-13.8.12-23.87c4.39-11.09 16.47-22.89 29.68-23.67a1.05 1.04 12.9 0 1 .98 1.55q-1.07 1.93-4.04 4.44z" class="E"/><path fill="#f0c39d" d="M944.02 339.27l14.51 1.4c2.76 4.72 6.61 7.33 13.88 13.68 8.3 7.25 25.57 6.1 35.29 2.31q9.28-3.63 15.55-5.6 4.81-1.51 7.58-3.42 3.53-2.45 5.95-5.81 12.69.29 25.49 2.51 1.5.26 1.7-.94c5.85 3 11.73 7.4 14.44 13.29a4.29 3.95-65.8 0 1 .25.75l1.51 6.84q-.92 4.34-6.59 5.22a2.85 2.7 46.5 0 1-1.14-.06l-5.48-1.46c-1.53-6-7.88-4.42-11.79-2.74q-9.53 4.1-22.74 6.53-16.33 2.99-35.31 2.7-8.59-.13-17.56-1.27-13.84-1.74-17.39-2.61-12.79-3.15-25.63-5.8-3.7.98-4.81 1.19-1.8.33-3.49-.7-2.21-1.34-3.91-3.19 4.05-11.1 13.07-17.69 5.17-3.78 6.62-5.13z"/><path d="M387.08 343.82h395.63a.54.54 0 0 1 .54.54v204.32a2.54 2.51-23 0 1-.73 1.77q-12.23 12.33-20.4 25.63-9 14.65-17.39 33.59a.84.84 0 0 1-.77.5H386.98a.38.38 0 0 1-.38-.38V344.3a.48.48 0 0 1 .48-.48zm317.03 44.57a.83.82 46.2 0 1-.02 1.19q-13.03 12.19-25.96 24.05-2.14 1.96-4.28 3.96-35.32 33.05-37.07 34.7-1.42 1.35-3.06 1.64-5.89 1.04-14.38 1.18c-4.02.07-8.37.85-12.31.88-6.56.03-12.22 1.27-19.28 1.13q-5.7-.11-9.37 4.98-3.23 4.5-21.53 27.39c-1.96 2.44-3.17 4.06-5.61 4.51q-14.42 2.68-38.47 7.18c-3.39.63-4.78 1.35-6.79 3.8q-7.21 8.76-16.17 19.22a1.26 1.19 12.9 0 1-.66.39l-55.79 12.04q-4.49 1.18-6.21 4.86c-3.35 7.16 3.77 14.87 11.13 13.31q27.81-5.88 56.22-11.8 2.66-.56 3.84-1.37c2.96-2.01 6.05-5.38 8.3-7.99q7.04-8.17 12.57-13.38a3.88 3.85 17.9 0 1 1.93-.98q23.59-4.47 37.13-6.98c4.21-.78 6.27-.49 9.12-4.41q3.87-5.33 20.14-24.76c1.58-1.89 3.64-4.8 5.98-5.03q12.32-1.21 24.52-2.62 9.53-1.1 18.92-2.24c3.46-.42 6.58-.53 10.58-1.39a5.03 5.02 13.9 0 0 2.8-1.68q2.05-2.42 4.08-4.26 30.46-27.56 66.6-60.11a1.09 1.09 0 0 1 1.66.25q2.92 4.82 8.11 7.9c4.01 2.37 8.1.5 8.65-4.27q1.73-14.94 4.36-32.9c.57-3.88.13-7.77-3.51-9.35-1.5-.65-6.24-.45-8.22-.09-4.74.84-9.07.63-13.42 1q-17.88 1.52-21.89 1.88a3.07 3.07 0 0 0-2.71 2.35q-1.07 4.46 2.46 8.1 1.89 1.96 7.61 7.72zm-129.7 11.33a.48.48 0 0 1-.03.64l-40.43 40.42a.83.82 45.7 0 1-1.19-.02q-9.21-9.8-18.26-18.52c-6.17-5.94-10.22-2.35-15.1 2.16q-21.69 20-69.54 62.45-4.47 3.96-2.33 9.62c1.52 3.99 5.87 7.15 10.23 5.46q1.91-.74 4.25-2.92c15.27-14.22 44.06-39.11 64.63-57.76a.71.7 42.9 0 1 .91-.03q11.81 9.25 22.03 19.69c3.43 3.51 6.92 2.17 10.31-1.2 3.62-3.59 7.07-6.31 10.88-10.2q20.49-20.93 39.84-38.54a.69.68-22.3 0 1 1.15.48c.22 6.57-1.25 12.46 6.33 15.48 3.04 1.22 8.69.29 8.73-3.95q.09-10.75.07-28.75c-.01-3.86-.34-6.11-3.36-8.14q-1.59-1.07-6.75-1-12.64.17-29.46-.27a3.36 3.35-71.8 0 0-2.82 1.43c-2.12 3.02-2.18 8.03 1.75 10.01q2.22 1.13 7.91 3.16a.39.18 64.9 0 1 .06.05l.19.25zm121.73 170.93a.47.47 0 0 1-.47.47h-16.65a.28.28 0 0 1-.28-.29q.23-21.36-.03-78.49-.03-6.41-6.06-6.43-31.38-.06-34.34-.05c-5.57.02-6.38 3.61-6.34 8.14q.06 5.48.07 76.36a.72.72 0 0 1-.72.72h-15.95a.49.49 0 0 1-.49-.49q.04-24.62 0-49.21c-.02-5.59-3.99-6.45-8.63-6.44q-14.78.01-29.15-.01c-4.24 0-8.22.59-8.22 5.5q-.05 41.23.02 50.19a.5.5 0 0 1-.5.51h-12.7a.34.34 0 0 1-.34-.34q.15-13.96.02-22.43c-.11-6.88-3.58-8.14-10.06-8.04q-13.44.19-23.97-.07c-5.43-.14-9.36.43-9.42 6.51q-.16 16.16.01 23.6a.72.71-.8 0 1-.72.73q-66.55-.04-77.52.01-1.82.01-4.53 1.34a1.35 1.34 87.6 0 0-.65.71c-1.65 4.17 1.31 7.96 5.73 7.95q1.65 0 21.75.09 37.1.19 282.5.13 7.56 0 6.88-7.09a1.86 1.74-61.5 0 0-.12-.46l-1.12-2.5a2.53 2.36-58.9 0 1-.21-1q0-74.17.02-115.87c0-5.31-.3-9.62-6.43-9.61q-22.82.06-35.27.02c-5.17-.01-6.14 3.83-6.14 8.45q-.02 85.42.03 117.39z" class="G"/><rect x="1385.4" y="343.7" width="59.28" height="273.4" rx=".85" class="D"/><path d="M1066.96 367.98l-.15.85q-1.54 7.89-6.24 13.75-15.18 18.92-38.82 24.2-23.21 5.18-45.57-.54c-18.55-4.74-30.97-17.99-37.53-35.35a.93.93 0 0 0-1.6-.25l-.78.97q-.86-3.36.27-6.82 12.84 2.65 25.63 5.8 3.55.87 17.39 2.61 8.97 1.14 17.56 1.27 18.98.29 35.31-2.7 13.21-2.43 22.74-6.53c3.91-1.68 10.26-3.26 11.79 2.74zm-13.55 5.51q-1.32-.55-2.72-.04-8.04 2.92-17.33 4.35-13.3 2.05-22.58 2.22-11.15.2-21.47-.07-14.68-.38-34.23-5.5-1.6-.42-1.66-.39a2.63 2.53 69.7 0 0-1.37 3.14c3.22 10.59 16.5 17.86 26.7 20.3q24.73 5.91 48.9-2.34 14.64-5 24.07-16.67 1.6-1.98 2.17-4a.84.83-71.1 0 0-.48-1z" class="E"/><path d="M1066.81 368.83q4.75 11.89 1.17 24.12-7.79 26.55-28.15 44.11c-13.89 11.96-33.27 13.79-51.1 10.25-23.76-4.7-41.3-19.84-48.31-43.65q-2.49-8.45-3.94-18.14-.99-6.57-.21-13.91l.78-.97a.93.93 0 0 1 1.6.25c6.56 17.36 18.98 30.61 37.53 35.35q22.36 5.72 45.57.54 23.64-5.28 38.82-24.2 4.7-5.86 6.24-13.75zm-68.42 65.78q10.34.22 19.95-3c2.65-.89 7.2-3.68 5.69-7.1-1.14-2.59-2.6-2.67-5.31-1.82q-9.51 2.99-20.13 2.77-10.63-.23-20.01-3.62c-2.66-.97-4.13-.95-5.37 1.59-1.66 3.35 2.77 6.33 5.38 7.33q9.47 3.63 19.8 3.85zm125.29-13.79a.24.24 0 0 1 .4.19q-.94 20.67 1.37 41.51c1.03 9.23 2.35 18.2 10.71 24.14a1.1 1.09 29.1 0 1 .38 1.31q-3.75 9.35-10.38 16.96c-16.28 18.7-37.81 34.91-60.68 44.56q-34.29 14.48-70.99 8.03-19.86-3.5-35.76-14.91c-16.44-11.81-24.93-26.61-23.37-46.85.45-5.85.21-9.58 1.22-13.86q.57-2.42.65-6.73a.5.49 21.9 0 1 .83-.35c24.3 22.17 57.32 32.68 89.5 24.24 22.43-5.89 43.15-19.4 60.52-35.73q18.73-17.61 34.57-41.44.18-.27 1.03-1.07z" class="G"/><path d="M1346.32 611.03a.29.29 0 0 1-.52-.02c-7.45-16.96-18.45-34.72-31.74-47.28q-10.14-9.58-21.38-16.81a1.77 1.77 0 0 1-.83-1.5V440.94a.54.54 0 0 1 .54-.54h53.24a.82.82 0 0 1 .82.82q.03 158.72.09 168.78 0 .63-.22 1.03zm-198.77-126c5.22 2.9 12.8 7.99 20.27 11.41q6.69 3.06 13.49 6.06 40.23 17.76 73.12 33.56 3.71 1.78 17.65 9.3c14.5 7.83 26.98 16.86 37.64 27.44q5.22 5.18 11 13.25 12.43 17.36 20.44 38.77 9.39 25.12 16.02 51.79a.69.69 0 0 1-.73.86q-4.15-.34-8.19-.17c-24.64 1.03-47.47 7.09-67.95 21.51-29.63 20.88-49.14 55.35-50.41 91.91q-.78 22.65 6.95 44.16a.61.61 0 0 1-.57.81h-30.3a.85.85 0 0 1-.85-.85c-.25-39.83-.06-77.92 3.32-115.95q1.68-18.85 5.68-37.27 4.62-21.24 9.78-36.41 6.87-20.18 18.44-38.86 4.32-6.99 9.73-12.49 2.3-2.34 3.54-5.41a1.7 1.69-73.3 0 0-1.23-2.3q-3.41-.7-6.11 1.92c-11.63 11.25-20.26 26.3-26.77 41.42q-9.52 22.1-14.62 46.35-3.84 18.29-5.92 33.29-3.84 27.75-4.69 61.88-.8 31.87-.08 68.82c.1 4.97 2.85 5.65 7.57 5.87q2.67.13 5.54.79a1.17 1.16-82.9 0 1 .91 1.18l-3.04 86.8a.97.96-88.8 0 1-.96.93h-409.5a.8.8 0 0 1-.8-.86q1.12-17.53 1.9-50.3.92-38.71-4.01-79.49-1.98-16.36-2.59-45.75c-.84-40.5 3.28-80.4 9.29-124 .37-2.67.99-5.63-1.37-7.35a2 2 0 0 0-2.97.74q-2.03 4.15-3.05 9.07-5.35 25.92-8.19 55.04-3.56 36.49-2.72 76.5.35 16.95 2.66 34.72a.68.68 0 0 1-.88.73c-18.86-6.16-30.98-10.75-55.8-19.43-10.57-3.7-17.65-7.24-27.58-12.4a.95.95 0 0 1-.41-1.27c.92-1.81 1.94-3.65 2.69-5.49q13.43-33.19 24.65-70.81 4.05-13.61 12.77-45.69 8.76-32.29 26.9-63.82 12.04-20.92 30.42-36.15c4.64-3.85 10-7.17 16.03-9.31q1.04-.37 29.81-12.05 12.4-5.04 23.13-9.61 28.87-12.27 59.93-24.21a.55.55 0 0 1 .75.56c-1.17 14.07 1.58 27.89 9.59 38.84 15.28 20.91 40.85 32.85 66.62 34.95q40 3.27 73.33-13.79 26.43-13.53 48.01-34.43c7.03-6.82 13.17-14.56 17.12-24.01q.61-1.48 4.59-10.95a.72.72 0 0 1 1.01-.35zm10.18 22.79a.57.57 0 0 0-1.08-.22q-2.61 5.68-6.67 10.63c-21.51 26.22-47.62 47.89-78.75 59.97-30.31 11.76-65.06 14.37-96.2 4.49q-22.63-7.18-39.59-23.63c-9.93-9.63-17.61-20.65-20.73-33.77q-1.74-7.3-1.95-17.1a.99.99 0 0 0-1.9-.35c-2.15 5.21-1.84 9.79-1.79 16.79.02 4.07.83 9.39 1.99 12.32 3.48 8.8 9.32 16.75 16.17 24.38q4.01 4.47 8.8 8.34 24.76 20 56.23 24.57 29.94 4.36 59.75-2.38c25.09-5.67 48.87-18.32 68.78-34.56q20.87-17.02 33.76-38.46 3.36-5.59 3.18-11.02zM907.79 663.75q.22 0 .24.02 4.22 3.17 6.9 5.26a1.27 1.27 0 0 1 .5 1.01v1.92a.84.83-71.2 0 0 .32.66l5.02 3.89a.58.58 0 0 0 .92-.32q.71-2.78 3.34-4.05a.58.58 0 0 0 .09-.99q-8.63-6.4-17.24-13.02c-.04-.03-.02-.01-.09-.01-.08 0-.06-.02-.09.01q-8.6 6.64-17.21 13.06a.58.58 0 0 0 .09.99q2.63 1.27 3.35 4.04a.58.58 0 0 0 .92.32l5.01-3.9a.84.83 71.1 0 0 .32-.66l-.01-1.92a1.27 1.27 0 0 1 .5-1.01q2.68-2.1 6.89-5.28.02-.02.23-.02zm.03 68.39q.04 0 .07 0a.18.03.3 0 0 .15-.02l21.13-16.06a.93.92-19.2 0 0 .36-.73q-.05-9.57 0-14.62.01-1.05 1.97-3.05a.46.45-49.3 0 0-.05-.68l-7.02-5.45a.38.38 0 0 0-.61.3v20.56a.87.87 0 0 1-.34.69l-12.31 9.36a.28.27 71.3 0 1-.44-.22v-45.1a.1.09-72.3 0 1 .15-.08l4.33 3.36a.53.52 19.9 0 1 .2.41v28.94a1.07 1.05-19 0 1-.42.84l-1.55 1.18a1.47 1.45-18.8 0 0-.58 1.16v4.14a.33.32 71.3 0 0 .52.26l7.38-5.61a1.13 1.12-19.1 0 0 .44-.89v-25.39a.29.28-71.2 0 1 .46-.23l9.95 7.72a.33.33 0 0 0 .54-.26v-5.97a.56.56 0 0 0-.56-.56h-.93a1.56 1.53-26 0 1-.93-.31q-12.21-9.19-21.49-16.35-.23-.17-.45-.17-.22 0-.44.17-9.28 7.17-21.48 16.37a1.56 1.53 26 0 1-.93.31h-.93a.56.56 0 0 0-.56.56l.01 5.97a.33.33 0 0 0 .54.26l9.94-7.73a.29.28 71.1 0 1 .46.23l.03 25.39a1.13 1.12 19 0 0 .44.89l7.38 5.61a.33.32-71.4 0 0 .52-.27v-4.14a1.47 1.45 18.8 0 0-.58-1.15l-1.55-1.18a1.07 1.05 18.9 0 1-.43-.84l-.02-28.94a.53.52-19.9 0 1 .2-.41l4.32-3.37a.1.09 72.3 0 1 .15.08l.05 45.1a.28.27-71.4 0 1-.44.22l-12.32-9.35a.87.87 0 0 1-.34-.68l-.02-20.56a.38.38 0 0 0-.61-.3l-7.02 5.45a.46.45 49.3 0 0-.05.68q1.96 2 1.98 3.05.05 5.05.01 14.62a.93.92 19.2 0 0 .36.73l21.15 16.04a.18.03-.4 0 0 .14.02q.04 0 .07 0zm40.82-31.64q1.33 0 2.03.06a.66.65-88 0 1 .6.65v10.33a.32.32 0 0 0 .32.32h6.83a.26.26 0 0 0 .26-.26q.12-25.56-.08-28.88c-.36-5.91-5.5-5.46-9.97-5.45-4.47 0-9.62-.45-9.97 5.46q-.2 3.32-.04 28.88a.26.26 0 0 0 .26.26l6.83-.01a.32.32 0 0 0 .32-.32l-.02-10.33a.66.65 87.9 0 1 .6-.65q.71-.06 2.03-.06zm28.98-17.94q1.56 0 1.96.13a.7.69 9.9 0 1 .47.66v28.1a.42.42 0 0 0 .42.42h6.52a.46.45 90 0 0 .45-.46q-.02-17.52.02-26.3.02-3.51-.86-5.1c-1.78-3.18-4.92-2.76-8.98-2.76-4.07 0-7.2-.42-8.98 2.76q-.88 1.59-.86 5.1.03 8.78.01 26.3a.46.45-90 0 0 .45.46h6.52a.42.42 0 0 0 .42-.42l.01-28.1a.7.69-9.9 0 1 .46-.66q.41-.13 1.97-.13zm31.16 4.87h6.59a.31.3-85.6 0 0 .3-.26c.73-5.61-.57-10.2-6.91-9.93-5.65.24-12.82-1.69-12.68 7q.03 1.63.01 20.23c-.01 4.06.58 7.09 4.74 7.77q1.77.29 7.4.22c4.58-.05 7.41-1.46 7.5-6.22q.08-4.06.1-4.12a.79.79 0 0 0-.74-1.06h-5.55a.85.85 0 0 0-.85.85v4.48a.93.93 0 0 1-.93.93h-3.24a1.12 1.12 0 0 1-1.12-1.12v-22.91a1 1 0 0 1 .95-1q1.71-.08 3.79.05.95.05.38 4.8a.26.26 0 0 0 .26.29zm64.84-4.258a5.95 5.95 0 0 0-5.96-5.94l-8.34.015a5.95 5.95 0 0 0-5.94 5.96l.041 23.28a5.95 5.95 0 0 0 5.96 5.94l8.34-.015a5.95 5.95 0 0 0 5.94-5.96l-.041-23.28zm-39.43 15.318q1.64 0 2.19.01a.72.71-89.8 0 1 .71.71v12.37a.29.29 0 0 0 .29.29h6.86a.31.3 90 0 0 .3-.31v-33.49a.33.33 0 0 0-.33-.33h-6.83a.28.28 0 0 0-.28.28v13.32a.7.7 0 0 1-.66.7q-.92.06-2.25.06-1.33 0-2.24-.06a.7.7 0 0 1-.66-.7v-13.32a.28.28 0 0 0-.28-.28h-6.83a.33.33 0 0 0-.33.33l-.01 33.49a.31.3-90 0 0 .3.31h6.86a.29.29 0 0 0 .29-.29l.01-12.37a.72.71 89.8 0 1 .7-.72q.55 0 2.19 0zm65.67-4.74q1.11-.55 1.64-1.34a2.41 2.36-26.5 0 0 .42-1.21q.13-1.81.1-7.44c-.01-3.36-1.66-5.8-4.82-5.93q-4.31-.16-14.29-.08a.29.29 0 0 0-.29.29v33.48a.35.34 0 0 0 .35.34h6.76a.34.34 0 0 0 .34-.34v-12.95a.67.66 0 0 1 .67-.66h2.87a.94.93 0 0 1 .94.93v12.6a.43.43 0 0 0 .43.43h6.49a.46.46 0 0 0 .46-.46q.02-8.23 0-13.94c0-1.43-.79-2.54-2.06-3.13a.33.33 0 0 1-.01-.59zM996.7 732.04q.19 0 .32 0a.85.85 0 0 1 .84.85v3.62a.43.43 0 0 0 .43.43h2.44a.5.5 0 0 0 .5-.5q-.03-8.48 0-10.94.02-2.83-.96-3.38a5.32 5.28 69.8 0 0-.92-.43q-.34-.12-2.64-.13-2.29 0-2.63.12a5.32 5.28-69.7 0 0-.92.43q-.99.55-.97 3.38.02 2.46-.02 10.94a.5.5 0 0 0 .5.5l2.44.01a.43.43 0 0 0 .43-.43v-3.62a.85.85 0 0 1 .85-.85q.13 0 .31 0zm-14.67 4.89q.91 0 1.28 0a.72.71 5.7 0 0 .69-.56l3.18-14.06a.41.41 0 0 0-.4-.5h-2.54a.47.46-85.7 0 0-.46.4q-1.38 9.9-1.75 9.9-.36 0-1.76-9.9a.47.46 85.6 0 0-.46-.4l-2.54.01a.41.41 0 0 0-.4.5l3.2 14.05a.72.71-5.8 0 0 .69.56q.37 0 1.27 0zm32.12-2.13a.45.45 0 0 0-.45-.45h-2.84a.45.45 0 0 1-.45-.45v-11.64a.45.45 0 0 0-.45-.45h-2.44a.45.45 0 0 0-.45.45v14.22a.45.45 0 0 0 .45.45h6.18a.45.45 0 0 0 .45-.45v-1.68zm8.16-1.07l.03-11.53a.4.39-90 0 0-.39-.4l-2.57.02a.38.38 0 0 0-.38.38l-.02 14.13a.61.61 0 0 0 .61.61h5.75a.77.77 0 0 0 .78-.78l-.02-1.17a.68.68 0 0 0-.7-.68l-2.43.06a.64.64 0 0 1-.66-.64zm8.6-4.31q0 3.44-.02 7.14a.42.41 90 0 0 .41.42h5.97a.82.81 90 0 0 .81-.82v-1.09a.74.74 0 0 0-.74-.74h-2.51a.57.56 0 0 1-.57-.56v-2.48a.65.64.4 0 1 .66-.64q.82.02 1.95.09.42.03.74-.38.1-.13.1-.94 0-.82-.1-.95-.32-.41-.74-.38-1.13.07-1.95.09a.65.64-.4 0 1-.66-.64v-2.48a.57.56 0 0 1 .57-.56h2.51a.74.74 0 0 0 .74-.74v-1.09a.82.81-90 0 0-.81-.82h-5.97a.42.41-90 0 0-.41.42q.02 3.7.02 7.15zm16.31 7.5q.75 0 1 0a.67.67 0 0 0 .66-.67v-4.56a.64.54 58.7 0 1 .03-.19l3.12-9.15a.41.41 0 0 0-.39-.54h-1.94a.95.94-83.5 0 0-.92.74q-1.12 5.04-1.55 5.06-.44-.02-1.55-5.07a.95.94 83.6 0 0-.92-.73l-1.94-.01a.41.41 0 0 0-.39.54l3.11 9.16a.64.54-58.6 0 1 .03.19l-.01 4.56a.67.67 0 0 0 .66.67q.25 0 1 0zm53.66-7.66a.42.42 0 0 0-.42-.42h-37.82a.42.42 0 0 0-.42.42v.04a.42.42 0 0 0 .42.42h37.82a.42.42 0 0 0 .42-.42v-.04zm-134.17.455a.36.36 0 0 0-.359-.361l-28-.049a.36.36 0 0 0-.361.359v.02a.36.36 0 0 0 .359.361l28 .049a.36.36 0 0 0 .361-.359v-.02z" class="D"/><path d="M451.88 621.31a.43.42-6.4 0 1 .42-.52h286.81a.87.87 0 0 1 .82 1.15l-9.19 27.02a1.78 1.77-80.6 0 1-1.68 1.21H463.82a1.68 1.67 87.1 0 1-1.66-1.51q-.62-6.11-1.58-10.76-1.84-8.84-7.99-15.29-.55-.58-.71-1.3z" class="F"/><path d="M485.62 902.85a.25.25 0 0 1-.25.28H182.43a.6.6 0 0 1-.59-.51q-13.64-93.61-13.86-95.12-12.21-81.28-23.74-159.49c-.41-2.84-1.25-6.88-.56-9.29 1.68-5.81 5.14-6.69 11.25-6.68q122.36.09 278.68-.07 5.75-.01 7.55 1.15c6.06 3.93 5.57 12.76 6.54 19.13q20.27 132.83 31.9 209.38 3.65 24.06 6.02 41.22zm-96.04-202.78a.56.55 53.1 0 1 .89.13c3.02 5.76 9.39 15.26 17.21 11.97q2.84-1.19 2.34-4.18-2.35-14.08-4.17-36.57c-.29-3.5-2.62-3.85-5.46-3.52q-19.05 2.27-30.58 3.98c-3.76.56-7.87-.7-10.03 3.35-2.55 4.78 7.87 10.7 11 12.59a1.47 1.47 0 0 1 .34 2.23l-46.48 52.74a.66.65-51.1 0 1-.88.1q-15.08-10.97-28.12-20.27c-3.58-2.56-7.03-4.5-11.16-1.77a2.7 2.67-85.2 0 0-.49.42q-5.14 5.82-5.96 6.74-15.71 17.55-32.45 35.56-14.72 15.84-19.09 20.67-2.08 2.31-4.32 5.29c-3.56 4.74 1.38 10.22 6.15 9.56q2.4-.34 6.51-4.46.39-.39 10.26-9.53 6.64-6.15 14.14-14.36c9.57-10.46 22.85-23.09 30.4-30.9a1.15 1.14 38.6 0 1 1.46-.16q18.03 11.97 29.76 20c4.32 2.96 7.47 5.05 11.67.58q28.73-30.51 57.06-60.19zm3.3 129.04h-9.67a.65.64-3.5 0 1-.64-.56q-7.92-57.53-9.09-65.24-.68-4.47-4.96-4.44-11.15.08-25.31 1.13c-4.96.36-5.32 3.05-4.67 7.6q7.52 52.41 8.77 60.99a.44.44 0 0 1-.43.51h-12.75a.61.6-3.8 0 1-.6-.52q-3.72-26.99-5.76-43.33-.41-3.28-3.28-5.08a1.4 1.37-28.9 0 0-.72-.2h-30.38a3.12 3.11-82.1 0 0-3 2.28q-.62 2.2-.27 4.75 5.49 40.97 5.69 41.58a.41.41 0 0 1-.39.54l-12.94-.03a.73.72-4.1 0 1-.72-.62q-.48-3.16-2.32-17.37c-.56-4.31-.86-8.55-6.71-8.05q-10.19.86-23.74 1.01c-4.34.04-6.77.79-7.71 5.06a1.3 1.19 48.8 0 0-.01.47l2.62 19.01a.43.42 86.4 0 1-.42.48l-23.18.02a3.41 3.41 0 0 0-3.21 4.55l.02.05a6.72 6.71-10 0 0 6.31 4.41l212.52-.07a4 4 0 0 0 4-4v-2.28a2.7 2.7 0 0 0-2.7-2.7h-6.32a.81.8 88.5 0 1-.8-.77q-.1-2.47-.49-5.15-9.13-63.84-12.94-91.03c-.39-2.76-2.97-4.04-5.89-4.03q-7.28.02-14.89-.73c-3.61-.36-6.53-.05-9.36-.31-4.58-.41-7.9.67-7.16 5.84q4.51 31.71 13.85 95.82a.36.35 85.8 0 1-.35.41zm51.96 38.33a5.57 5.57 0 0 0-5.57-5.57h-211.5a5.57 5.57 0 0 0-5.57 5.57v.08a5.57 5.57 0 0 0 5.57 5.57h211.5a5.57 5.57 0 0 0 5.57-5.57v-.08zm816.62-137.73q11.78-15.4 28.12-25.86 33.67-21.56 72.95-13.89 24.72 4.82 44.65 20.84 26.79 21.55 35.99 55c16.04 58.33-20.31 119.7-79.53 132.05q-14.4 3-28.28 1.93c-49.21-3.79-91.89-44.43-95.99-94.56q-3.45-42.11 22.09-75.51zm79.708-21.892a86.81 84.95-90.8 0 0-83.73 87.988 86.81 84.95-90.8 0 0 86.154 85.615 86.81 84.95-90.8 0 0 83.73-87.988 86.81 84.95-90.8 0 0-86.154-85.615zM585.77 902.72q2.05-1.95 5.22-4c24.08-15.62 49.22-29.95 76.28-39.87 8.84-3.24 19.5-6.21 27.48-7.61q5.68-.99 10.94 1.29a2.48 2.47 10.1 0 0 3.46-2.41l-.01-.08a6.88 6.88 0 0 0-3.65-5.67q-4-2.11-8.24-2.48a.58.57-76.9 0 1-.48-.78c5.75-14.98 10.09-31.39 15.08-47.21q.58-1.81.75-3.13a.55.55 0 0 1 .71-.46c2 .62 5.09 2.55 7.83 3.59q23.38 8.87 49.06 17.9 7.7 2.71 14.97 4.65a1.14 1.13 1.4 0 1 .81.84q.41 1.79.62 4.08c2.39 25.8 1.63 48.13 1.43 81.14q-.1 15.63-1.02 31.7a.93.92 1.6 0 1-.93.87h-72.32a.57.56 19.2 0 1-.45-.92q10.78-13.4-.14-25.57-2.73-3.04-6.86-4.56-2.9-1.06-8.17-1.06-74.32.05-112.24.07a.19.18 23.2 0 1-.13-.32zM1345.58 929c-2.64 0-2.61 2.88-2.1 4.69q-.78.57-1.73.59-63.65 1.15-124.83.97a.68.68 0 0 1-.68-.73q3-44.49 2.9-86.52a.31.31 0 0 1 .31-.31h22.15a1.13 1.13 0 0 1 1 .6c12.49 23.64 32.86 41.29 57.16 52.23q22.82 10.28 47.34 9.59a.46.46 0 0 1 .47.51l-1.99 18.38z" class="G"/><path d="M456.78 913.19q.45-.04 1.72-.08 2.21-.07 76.75-.33 7.42-.02 56 .1 68.52.17 105.89.05 4.97-.01 7 1.07 3.34 1.79 4.44 5.55c1.88 6.48-5.4 11.3-10.94 13.02q-2.81.87-9.46.87l-59.57-.21q-32.64.27-66.11-.11c-8.48-.09-19.37.32-28.32.22q-35.39-.37-76.84.14a1.56 1.55-.2 0 1-1.57-1.55v-17.65a1.09 1.09 0 0 1 1.01-1.09z" class="F"/><g class="E"><path d="M1095.87 255.37c-1.12 2.5-4.64 5-7.29 2.59-8.75-7.91-16.46-14.4-28.3-17.47q-15.85-4.1-31.97-1.51-2.31.38-4.25-1.5-3.66-3.52-1.18-8.4 2.4-4.72 8.02-5.29 22.38-2.27 42.21 5.61 13.3 5.28 21.05 17.68c1.44 2.31 2.83 5.79 1.71 8.29zm-194.18-.6c-2.2-4.93.47-8.65 3.94-12.21 14.54-14.91 36.41-19.44 56.88-17.55 5.08.47 9.29 4.18 8.42 9.73-1.06 6.68-8.86 5.58-14.09 4.78q-3.7-.57-8.08-.2c-13.18 1.12-25.62 3.34-36 11.4-3.83 2.97-6.83 6.51-10.31 4.83a1.6 1.58-89.6 0 1-.76-.78zm32.66 12.05a.53.53 0 0 0-.7-.66q-6.69 2.65-13.18 7.88a4.02 4.02 0 0 1-5.14-.07l-.12-.1a3.01 3.01 0 0 1-.12-4.47q15.81-14.99 35.37-13.44 10.58.84 17.53 9.27a4.21 4.2-55.5 0 1 .74 4.04l-.43 1.28a2.1 2.1 0 0 1-3.55.72q-3.17-3.57-7.62-6.11a.62.62 0 0 0-.92.67c1.44 6.59-2.51 15.94-9.85 16.72-7.5.8-13.61-3.41-13.31-11.45a1.3 1.29 54.1 0 1 .06-.39l1.24-3.89zm111.22-2.19a.42.42 0 0 0-.46-.55q-8.53 1.22-13.81 7.16a1.88 1.81-46.5 0 1-2.7.12q-.75-.77-.91-2.39-.49-4.74 3.48-7.54c12.79-9.04 30.38-6.5 42.63 2.31q3.13 2.26 5.18 5.02a5.57 5.56 41.8 0 1 .35 6.1l-.59 1.03a1.94 1.94 0 0 1-3.33.05q-2.36-3.77-7.39-7.35a.5.5 0 0 0-.79.41q-.08 6.41-4.48 12.02c-2.58 3.3-9.25 2.27-12.12.8-6.05-3.09-7.27-10.95-5.06-17.19z"/><ellipse cx="0" cy="0" transform="matrix(-.999781 -.020942 .020942 -.999781 1104.12 277.16)" rx="9.37" ry="2.49"/><path d="M1153.86 323.84a.84.83-71.1 0 1-.53-1.09q3.48-9.3.62-19.6c-2.34-8.4 6.1-18.85 12.33-23.84 1.7-1.36 5.35-3.43 7.15-1.23 2.06 2.54-.13 4.19-2.36 5.87-5.07 3.81-11.27 10.99-10.02 17.56 1.49 7.83 3.85 15.05-1.59 20.66q-2.55 2.63-5.6 1.67z"/><ellipse cx="0" cy="0" transform="matrix(.790155 -.612907 .612907 .790155 906.39 286.51)" rx="8.22" ry="3.04"/><ellipse cx="0" cy="0" transform="matrix(-.80799 -.589196 .589196 -.80799 1101.55 289.35)" rx="9.98" ry="2.8"/><path d="M126.15 361.5q.34-.01.58-.29 20.96-24.81 21.1-24.99 2.81-3.51 4.48-4.06c4.35-1.47 8.44 1.74 8.7 6.15q.17 2.91-2.24 5.68-2.96 3.41-21.71 26.96c-4.41 5.53-8.6 10.86-14.79 6.36q-.42-.31-5.09-5.21-9.88-10.37-12.37-13.08c-1.2-1.31-2.14-3.18-1.26-5.06 2.41-5.12 7.65-8.01 12.21-3.34q4.34 4.46 9.91 10.63.22.25.48.25z"/><rect x="175.96" y="345.46" width="92.58" height="13.46" rx="6.58"/><ellipse cx="0" cy="0" transform="matrix(.104528 -.994522 .994522 .104528 1115.91 375.32)" rx="11.1" ry="2.49"/><path d="M704.11 388.39q-5.72-5.76-7.61-7.72-3.53-3.64-2.46-8.1a3.07 3.07 0 0 1 2.71-2.35q4.01-.36 21.89-1.88c4.35-.37 8.68-.16 13.42-1 1.98-.36 6.72-.56 8.22.09 3.64 1.58 4.08 5.47 3.51 9.35q-2.63 17.96-4.36 32.9c-.55 4.77-4.64 6.64-8.65 4.27q-5.19-3.08-8.11-7.9a1.09 1.09 0 0 0-1.66-.25q-36.14 32.55-66.6 60.11-2.03 1.84-4.08 4.26a5.03 5.02 13.9 0 1-2.8 1.68c-4 .86-7.12.97-10.58 1.39q-9.39 1.14-18.92 2.24-12.2 1.41-24.52 2.62c-2.34.23-4.4 3.14-5.98 5.03q-16.27 19.43-20.14 24.76c-2.85 3.92-4.91 3.63-9.12 4.41q-13.54 2.51-37.13 6.98a3.88 3.85 17.9 0 0-1.93.98q-5.53 5.21-12.57 13.38c-2.25 2.61-5.34 5.98-8.3 7.99q-1.18.81-3.84 1.37-28.41 5.92-56.22 11.8c-7.36 1.56-14.48-6.15-11.13-13.31q1.72-3.68 6.21-4.86c11.49-3.01 27.57-6.07 55.79-12.04a1.26 1.19 12.9 0 0 .66-.39q8.96-10.46 16.17-19.22c2.01-2.45 3.4-3.17 6.79-3.8q24.05-4.5 38.47-7.18c2.44-.45 3.65-2.07 5.61-4.51q18.3-22.89 21.53-27.39 3.67-5.09 9.37-4.98c7.06.14 12.72-1.1 19.28-1.13 3.94-.03 8.29-.81 12.31-.88q8.49-.14 14.38-1.18 1.64-.29 3.06-1.64 1.75-1.65 37.07-34.7 2.14-2 4.28-3.96 12.93-11.86 25.96-24.05a.83.82 46.2 0 0 .02-1.19z"/></g><path fill="#fff" d="M1053.41 373.49a.84.83-71.1 0 1 .48 1q-.57 2.02-2.17 4-9.43 11.67-24.07 16.67-24.17 8.25-48.9 2.34c-10.2-2.44-23.48-9.71-26.7-20.3a2.63 2.53 69.7 0 1 1.37-3.14q.06-.03 1.66.39 19.55 5.12 34.23 5.5 10.32.27 21.47.07 9.28-.17 22.58-2.22 9.29-1.43 17.33-4.35 1.4-.51 2.72.04z"/><g class="E"><ellipse cx="0" cy="0" transform="matrix(-.278991 -.960294 .960294 -.278991 907.03 391.99)" rx="8.44" ry="2"/><path d="M574.41 399.72l-.19-.25a.39.18 64.9 0 0-.06-.05q-5.69-2.03-7.91-3.16c-3.93-1.98-3.87-6.99-1.75-10.01a3.36 3.35-71.8 0 1 2.82-1.43q16.82.44 29.46.27 5.16-.07 6.75 1c3.02 2.03 3.35 4.28 3.36 8.14q.02 18-.07 28.75c-.04 4.24-5.69 5.17-8.73 3.95-7.58-3.02-6.11-8.91-6.33-15.48a.69.68-22.3 0 0-1.15-.48q-19.35 17.61-39.84 38.54c-3.81 3.89-7.26 6.61-10.88 10.2-3.39 3.37-6.88 4.71-10.31 1.2q-10.22-10.44-22.03-19.69a.71.7 42.9 0 0-.91.03l-64.63 57.76q-2.34 2.18-4.25 2.92c-4.36 1.69-8.71-1.47-10.23-5.46q-2.14-5.66 2.33-9.62 47.85-42.45 69.54-62.45c4.88-4.51 8.93-8.1 15.1-2.16q9.05 8.72 18.26 18.52a.83.82 45.7 0 0 1.19.02l40.43-40.42a.48.48 0 0 0 .03-.64zm-448.24 19.29q.34-.01.58-.29 20.88-24.98 21.02-25.16 2.8-3.54 4.47-4.1c4.35-1.49 8.48 1.71 8.76 6.13q.18 2.91-2.21 5.7-2.96 3.44-21.63 27.15c-4.39 5.57-8.56 10.93-14.79 6.45q-.43-.31-5.13-5.2-9.97-10.35-12.48-13.04c-1.21-1.31-2.16-3.19-1.28-5.07 2.38-5.15 7.62-8.08 12.21-3.42q4.38 4.45 10 10.61.22.25.48.24z"/><ellipse cx="0" cy="0" transform="matrix(.078459 -.996917 .996917 .078459 1109.69 406.92)" rx="8.62" ry="2.14"/><ellipse cx="0" cy="0" transform="matrix(.240228 -.970716 .970716 .240228 1095.02 408.21)" rx="8.83" ry="2.29"/><rect x="175.93" y="401.44" width="92.62" height="13.48" rx="6.58"/><ellipse cx="0" cy="0" transform="matrix(-.284015 -.95882 .95882 -.284015 920.98 422.77)" rx="8.89" ry="2.37"/><ellipse cx="0" cy="0" transform="matrix(.161604 -.986856 .986856 .161604 1077.89 428.64)" rx="11.49" ry="2.53"/><path d="M998.59 425.46q10.62.22 20.13-2.77c2.71-.85 4.17-.77 5.31 1.82 1.51 3.42-3.04 6.21-5.69 7.1q-9.61 3.22-19.95 3-10.33-.22-19.8-3.85c-2.61-1-7.04-3.98-5.38-7.33 1.24-2.54 2.71-2.56 5.37-1.59q9.38 3.39 20.01 3.62z"/><ellipse cx="0" cy="0" transform="matrix(-.057564 -.998342 .998342 -.057564 1094.61 433.63)" rx="4.02" ry="1.52"/><ellipse cx="0" cy="0" transform="matrix(-.161604 -.986856 .986856 -.161604 935.47 439.77)" rx="8.83" ry="2.21"/><ellipse cx="0" cy="0" transform="matrix(.097583 -.995227 .995227 .097583 1059.37 449.93)" rx="9.84" ry="2.44"/><path d="M696.14 570.65q-.05-31.97-.03-117.39c0-4.62.97-8.46 6.14-8.45q12.45.04 35.27-.02c6.13-.01 6.43 4.3 6.43 9.61q-.02 41.7-.02 115.87a2.53 2.36-58.9 0 0 .21 1l1.12 2.5a1.86 1.74-61.5 0 1 .12.46q.68 7.09-6.88 7.09-245.4.06-282.5-.13-20.1-.09-21.75-.09c-4.42.01-7.38-3.78-5.73-7.95a1.35 1.34 87.6 0 1 .65-.71q2.71-1.33 4.53-1.34 10.97-.05 77.52-.01a.72.71-.8 0 0 .72-.73q-.17-7.44-.01-23.6c.06-6.08 3.99-6.65 9.42-6.51q10.53.26 23.97.07c6.48-.1 9.95 1.16 10.06 8.04q.13 8.47-.02 22.43a.34.34 0 0 0 .34.34h12.7a.5.5 0 0 0 .5-.51q-.07-8.96-.02-50.19c0-4.91 3.98-5.5 8.22-5.5q14.37.02 29.15.01c4.64-.01 8.61.85 8.63 6.44q.04 24.59 0 49.21a.49.49 0 0 0 .49.49h15.95a.72.72 0 0 0 .72-.72q-.01-70.88-.07-76.36c-.04-4.53.77-8.12 6.34-8.14q2.96-.01 34.34.05 6.03.02 6.06 6.43.26 57.13.03 78.49a.28.28 0 0 0 .28.29h16.65a.47.47 0 0 0 .47-.47zm37.92-114.72a.96.96 0 0 0-.96-.96h-26.2a.96.96 0 0 0-.96.96v114.18a.96.96 0 0 0 .96.96h26.2a.96.96 0 0 0 .96-.96V455.93zm-65.19 40.78a.86.86 0 0 0-.86-.86h-25.28a.86.86 0 0 0-.86.86v73.52a.86.86 0 0 0 .86.86h25.28a.86.86 0 0 0 .86-.86v-73.52zm-63.762 29.353a1.02 1.02 0 0 0-1.018-1.022l-24.16-.042a1.02 1.02 0 0 0-1.022 1.018l-.077 43.96a1.02 1.02 0 0 0 1.018 1.022l24.16.042a1.02 1.02 0 0 0 1.022-1.018l.077-43.96zm-58.923 26.009a1.12 1.12 0 0 0-1.118-1.122l-22.28-.039a1.12 1.12 0 0 0-1.122 1.118l-.031 17.88a1.12 1.12 0 0 0 1.118 1.122l22.28.039a1.12 1.12 0 0 0 1.122-1.118l.031-17.88zM126.23 475.34q.34-.01.58-.29 20.83-25.03 20.97-25.21 2.79-3.54 4.46-4.11c4.35-1.5 8.48 1.69 8.77 6.11q.19 2.91-2.2 5.71-2.95 3.44-21.57 27.19c-4.38 5.58-8.54 10.95-14.78 6.48q-.43-.3-5.14-5.18-9.99-10.33-12.5-13.02c-1.22-1.31-2.17-3.18-1.3-5.07 2.37-5.15 7.61-8.09 12.21-3.44q4.39 4.44 10.02 10.59.22.25.48.24z"/><ellipse cx="0" cy="0" transform="matrix(-.121869 -.992546 .992546 -.121869 955.41 455.7)" rx="9.48" ry="2.29"/><ellipse cx="0" cy="0" transform="matrix(.045363 -.998971 .998971 .045363 1037.73 461.2)" rx="9.23" ry="2.37"/><rect x="175.93" y="457.11" width="92.62" height="13.76" rx="6.76"/><ellipse cx="0" cy="0" transform="matrix(-.062791 -.998027 .998027 -.062791 977.5 466.33)" rx="9.33" ry="2.42"/><ellipse cx="0" cy="0" transform="matrix(-.020942 -.999781 .999781 -.020942 998.27 471.89)" rx="9.09" ry="2.42"/><ellipse cx="0" cy="0" transform="matrix(.047106 -.99889 .99889 .047106 1019.48 470.13)" rx="7.28" ry="2.07"/><path d="M126.18 532.07q.34-.01.58-.29 20.83-25.07 20.97-25.25 2.79-3.55 4.46-4.12c4.35-1.5 8.49 1.69 8.78 6.11q.19 2.91-2.2 5.72-2.94 3.44-21.56 27.23c-4.38 5.59-8.54 10.97-14.79 6.5q-.43-.3-5.15-5.18-10-10.33-12.52-13.02c-1.22-1.31-2.17-3.18-1.3-5.08 2.36-5.15 7.61-8.1 12.21-3.45q4.4 4.44 10.04 10.59.22.25.48.24zm1031.55-24.25q.18 5.43-3.18 11.02-12.89 21.44-33.76 38.46c-19.91 16.24-43.69 28.89-68.78 34.56q-29.81 6.74-59.75 2.38-31.47-4.57-56.23-24.57-4.79-3.87-8.8-8.34c-6.85-7.63-12.69-15.58-16.17-24.38-1.16-2.93-1.97-8.25-1.99-12.32-.05-7-.36-11.58 1.79-16.79a.99.99 0 0 1 1.9.35q.21 9.8 1.95 17.1c3.12 13.12 10.8 24.14 20.73 33.77q16.96 16.45 39.59 23.63c31.14 9.88 65.89 7.27 96.2-4.49 31.13-12.08 57.24-33.75 78.75-59.97q4.06-4.95 6.67-10.63a.57.57 0 0 1 1.08.22z"/><rect x="-46.27" y="-6.72" transform="matrix(.999998 .001745 -.001745 .999998 222.32 520.81)" width="92.54" height="13.44" rx="6.61"/><path d="M907.79 663.75q-.21 0-.23.02-4.21 3.18-6.89 5.28a1.27 1.27 0 0 0-.5 1.01l.01 1.92a.84.83 71.1 0 1-.32.66l-5.01 3.9a.58.58 0 0 1-.92-.32q-.72-2.77-3.35-4.04a.58.58 0 0 1-.09-.99q8.61-6.42 17.21-13.06c.03-.03.01-.01.09-.01.07 0 .05-.02.09.01q8.61 6.62 17.24 13.02a.58.58 0 0 1-.09.99q-2.63 1.27-3.34 4.05a.58.58 0 0 1-.92.32l-5.02-3.89a.84.83-71.2 0 1-.32-.66v-1.92a1.27 1.27 0 0 0-.5-1.01q-2.68-2.09-6.9-5.26-.02-.02-.24-.02zm-518.21 36.32q-28.33 29.68-57.06 60.19c-4.2 4.47-7.35 2.38-11.67-.58q-11.73-8.03-29.76-20a1.15 1.14 38.6 0 0-1.46.16c-7.55 7.81-20.83 20.44-30.4 30.9q-7.5 8.21-14.14 14.36-9.87 9.14-10.26 9.53-4.11 4.12-6.51 4.46c-4.77.66-9.71-4.82-6.15-9.56q2.24-2.98 4.32-5.29 4.37-4.83 19.09-20.67 16.74-18.01 32.45-35.56.82-.92 5.96-6.74a2.7 2.67-85.2 0 1 .49-.42c4.13-2.73 7.58-.79 11.16 1.77q13.04 9.3 28.12 20.27a.66.65-51.1 0 0 .88-.1l46.48-52.74a1.47 1.47 0 0 0-.34-2.23c-3.13-1.89-13.55-7.81-11-12.59 2.16-4.05 6.27-2.79 10.03-3.35q11.53-1.71 30.58-3.98c2.84-.33 5.17.02 5.46 3.52q1.82 22.49 4.17 36.57.5 2.99-2.34 4.18c-7.82 3.29-14.19-6.21-17.21-11.97a.56.55 53.1 0 0-.89-.13zm518.21-30.76q.22 0 .45.17 9.28 7.16 21.49 16.35a1.56 1.53-26 0 0 .93.31h.93a.56.56 0 0 1 .56.56v5.97a.33.33 0 0 1-.54.26l-9.95-7.72a.29.28-71.2 0 0-.46.23v25.39a1.13 1.12-19.1 0 1-.44.89l-7.38 5.61a.33.32 71.3 0 1-.52-.26v-4.14a1.47 1.45-18.8 0 1 .58-1.16l1.55-1.18a1.07 1.05-19 0 0 .42-.84v-28.94a.53.52 19.9 0 0-.2-.41l-4.33-3.36a.1.09-72.3 0 0-.15.08v45.1a.28.27 71.3 0 0 .44.22l12.31-9.36a.87.87 0 0 0 .34-.69v-20.56a.38.38 0 0 1 .61-.3l7.02 5.45a.46.45-49.3 0 1 .05.68q-1.96 2-1.97 3.05-.05 5.05 0 14.62a.93.92-19.2 0 1-.36.73l-21.13 16.06a.18.03.3 0 1-.15.02q-.03 0-.07 0-.03 0-.07 0a.18.03-.4 0 1-.14-.02l-21.15-16.04a.93.92 19.2 0 1-.36-.73q.04-9.57-.01-14.62-.02-1.05-1.98-3.05a.46.45 49.3 0 1 .05-.68l7.02-5.45a.38.38 0 0 1 .61.3l.02 20.56a.87.87 0 0 0 .34.68l12.32 9.35a.28.27-71.4 0 0 .44-.22l-.05-45.1a.1.09 72.3 0 0-.15-.08l-4.32 3.37a.53.52-19.9 0 0-.2.41l.02 28.94a1.07 1.05 18.9 0 0 .43.84l1.55 1.18a1.47 1.45 18.8 0 1 .58 1.15v4.14a.33.32-71.4 0 1-.52.27l-7.38-5.61a1.13 1.12 19 0 1-.44-.89l-.03-25.39a.29.28 71.1 0 0-.46-.23l-9.94 7.73a.33.33 0 0 1-.54-.26l-.01-5.97a.56.56 0 0 1 .56-.56h.93a1.56 1.53 26 0 0 .93-.31q12.2-9.2 21.48-16.37.22-.17.44-.17zm40.84 7.96c4.47-.01 9.61-.46 9.97 5.45q.2 3.32.08 28.88a.26.26 0 0 1-.26.26h-6.83a.32.32 0 0 1-.32-.32v-10.33a.66.65-88 0 0-.6-.65q-.7-.06-2.03-.06-1.32 0-2.03.06a.66.65 87.9 0 0-.6.65l.02 10.33a.32.32 0 0 1-.32.32l-6.83.01a.26.26 0 0 1-.26-.26q-.16-25.56.04-28.88c.35-5.91 5.5-5.46 9.97-5.46zm2.68 5.655a.6.6 0 0 0-.599-.601l-4.06-.007a.6.6 0 0 0-.601.599l-.02 11.2a.6.6 0 0 0 .599.601l4.06.007a.6.6 0 0 0 .601-.599l.02-11.2zm26.31-5.675c4.06 0 7.2-.42 8.98 2.76q.88 1.59.86 5.1-.04 8.78-.02 26.3a.46.45 90 0 1-.45.46h-6.52a.42.42 0 0 1-.42-.42v-28.1a.7.69 9.9 0 0-.47-.66q-.4-.13-1.96-.13-1.56 0-1.97.13a.7.69-9.9 0 0-.46.66l-.01 28.1a.42.42 0 0 1-.42.42h-6.52a.46.45-90 0 1-.45-.46q.02-17.52-.01-26.3-.02-3.51.86-5.1c1.78-3.18 4.91-2.76 8.98-2.76zm31.16 10.18a.26.26 0 0 1-.26-.29q.57-4.75-.38-4.8-2.08-.13-3.79-.05a1 1 0 0 0-.95 1v22.91a1.12 1.12 0 0 0 1.12 1.12h3.24a.93.93 0 0 0 .93-.93v-4.48a.85.85 0 0 1 .85-.85h5.55a.79.79 0 0 1 .74 1.06q-.02.06-.1 4.12c-.09 4.76-2.92 6.17-7.5 6.22q-5.63.07-7.4-.22c-4.16-.68-4.75-3.71-4.74-7.77q.02-18.6-.01-20.23c-.14-8.69 7.03-6.76 12.68-7 6.34-.27 7.64 4.32 6.91 9.93a.31.3-85.6 0 1-.3.26h-6.59zm64.88 19.022a5.95 5.95 0 0 1-5.94 5.96l-8.34.015a5.95 5.95 0 0 1-5.96-5.94l-.041-23.28a5.95 5.95 0 0 1 5.94-5.96l8.34-.015a5.95 5.95 0 0 1 5.96 5.94l.041 23.28zm-7.46-23.192a.97.97 0 0 0-.97-.97h-3.4a.97.97 0 0 0-.97.97v23.08a.97.97 0 0 0 .97.97h3.4a.97.97 0 0 0 .97-.97v-23.08zm-32.01 8.84q1.33 0 2.25-.06a.7.7 0 0 0 .66-.7v-13.32a.28.28 0 0 1 .28-.28h6.83a.33.33 0 0 1 .33.33v33.49a.31.3 90 0 1-.3.31h-6.86a.29.29 0 0 1-.29-.29v-12.37a.72.71-89.8 0 0-.71-.71q-.55-.01-2.19-.01-1.64 0-2.19 0a.72.71 89.8 0 0-.7.72l-.01 12.37a.29.29 0 0 1-.29.29h-6.86a.31.3-90 0 1-.3-.31l.01-33.49a.33.33 0 0 1 .33-.33h6.83a.28.28 0 0 1 .28.28v13.32a.7.7 0 0 0 .66.7q.91.06 2.24.06zm65.68 2.24c1.27.59 2.06 1.7 2.06 3.13q.02 5.71 0 13.94a.46.46 0 0 1-.46.46h-6.49a.43.43 0 0 1-.43-.43v-12.6a.94.93 0 0 0-.94-.93h-2.87a.67.66 0 0 0-.67.66v12.95a.34.34 0 0 1-.34.34h-6.76a.35.34 0 0 1-.35-.34v-33.48a.29.29 0 0 1 .29-.29q9.98-.08 14.29.08c3.16.13 4.81 2.57 4.82 5.93q.03 5.63-.1 7.44a2.41 2.36-26.5 0 1-.42 1.21q-.53.79-1.64 1.34a.33.33 0 0 0 .01.59zm-4.912-11.086a.45.45 0 0 0-.449-.451l-4.02-.007a.45.45 0 0 0-.451.449l-.016 8.96a.45.45 0 0 0 .449.451l4.02.007a.45.45 0 0 0 .451-.449l.016-8.96zm246.21 24.565a86.81 84.95-90.8 0 1 86.154 85.615 86.81 84.95-90.8 0 1-83.73 87.988 86.81 84.95-90.8 0 1-86.154-85.615 86.81 84.95-90.8 0 1 83.73-87.988zm2.55 9.083a77.83 76.04-89 0 0-77.387 76.491 77.83 76.04-89 0 0 74.67 79.145 77.83 76.04-89 0 0 77.387-76.491 77.83 76.04-89 0 0-74.67-79.145zM996.71 721.56q2.3.01 2.64.13a5.32 5.28 69.8 0 1 .92.43q.98.55.96 3.38-.03 2.46 0 10.94a.5.5 0 0 1-.5.5h-2.44a.43.43 0 0 1-.43-.43v-3.62a.85.85 0 0 0-.84-.85q-.13 0-.32 0-.18 0-.31 0a.85.85 0 0 0-.85.85v3.62a.43.43 0 0 1-.43.43l-2.44-.01a.5.5 0 0 1-.5-.5q.04-8.48.02-10.94-.02-2.83.97-3.38a5.32 5.28-69.7 0 1 .92-.43q.34-.12 2.63-.12zm1.14 2.81a.58.58 0 0 0-.58-.58h-1.16a.58.58 0 0 0-.58.58v4.56a.58.58 0 0 0 .58.58h1.16a.58.58 0 0 0 .58-.58v-4.56zm-15.82 7.74q.37 0 1.75-9.9a.47.46-85.7 0 1 .46-.4h2.54a.41.41 0 0 1 .4.5L984 736.37a.72.71 5.7 0 1-.69.56q-.37 0-1.28 0-.9 0-1.27 0a.72.71-5.8 0 1-.69-.56l-3.2-14.05a.41.41 0 0 1 .4-.5l2.54-.01a.47.46 85.6 0 1 .46.4q1.4 9.9 1.76 9.9zm32.12 2.69v1.68a.45.45 0 0 1-.45.45h-6.18a.45.45 0 0 1-.45-.45v-14.22a.45.45 0 0 1 .45-.45h2.44a.45.45 0 0 1 .45.45v11.64a.45.45 0 0 0 .45.45h2.84a.45.45 0 0 1 .45.45zm8.16-1.07a.64.64 0 0 0 .66.64l2.43-.06a.68.68 0 0 1 .7.68l.02 1.17a.77.77 0 0 1-.78.78h-5.75a.61.61 0 0 1-.61-.61l.02-14.13a.38.38 0 0 1 .38-.38l2.57-.02a.4.39-90 0 1 .39.4l-.03 11.53zm15.4-4.31q0 .81-.1.94-.32.41-.74.38-1.13-.07-1.95-.09a.65.64.4 0 0-.66.64v2.48a.57.56 0 0 0 .57.56h2.51a.74.74 0 0 1 .74.74v1.09a.82.81-90 0 1-.81.82h-5.97a.42.41 90 0 1-.41-.42q.02-3.7.02-7.14 0-3.45-.02-7.15a.42.41-90 0 1 .41-.42h5.97a.82.81-90 0 1 .81.82v1.09a.74.74 0 0 1-.74.74h-2.51a.57.56 0 0 0-.57.56v2.48a.65.64-.4 0 0 .66.64q.82-.02 1.95-.09.42-.03.74.38.1.13.1.95zm9.52-1.81q.43-.02 1.55-5.06a.95.94-83.5 0 1 .92-.74h1.94a.41.41 0 0 1 .39.54l-3.12 9.15a.64.54 58.7 0 0-.03.19v4.56a.67.67 0 0 1-.66.67q-.25 0-1 0-.75 0-1 0a.67.67 0 0 1-.66-.67l.01-4.56a.64.54-58.6 0 0-.03-.19l-3.11-9.16a.41.41 0 0 1 .39-.54l1.94.01a.95.94 83.6 0 1 .92.73q1.11 5.05 1.55 5.07zm-654.35 101.5a.36.35 85.8 0 0 .35-.41q-9.34-64.11-13.85-95.82c-.74-5.17 2.58-6.25 7.16-5.84 2.83.26 5.75-.05 9.36.31q7.61.75 14.89.73c2.92-.01 5.5 1.27 5.89 4.03q3.81 27.19 12.94 91.03.39 2.68.49 5.15a.81.8 88.5 0 0 .8.77h6.32a2.7 2.7 0 0 1 2.7 2.7v2.28a4 4 0 0 1-4 4l-212.52.07a6.72 6.71-10 0 1-6.31-4.41l-.02-.05a3.41 3.41 0 0 1 3.21-4.55l23.18-.02a.43.42 86.4 0 0 .42-.48l-2.62-19.01a1.3 1.19 48.8 0 1 .01-.47c.94-4.27 3.37-5.02 7.71-5.06q13.55-.15 23.74-1.01c5.85-.5 6.15 3.74 6.71 8.05q1.84 14.21 2.32 17.37a.73.72-4.1 0 0 .72.62l12.94.03a.41.41 0 0 0 .39-.54q-.2-.61-5.69-41.58-.35-2.55.27-4.75a3.12 3.11-82.1 0 1 3-2.28h30.38a1.4 1.37-28.9 0 1 .72.2q2.87 1.8 3.28 5.08 2.04 16.34 5.76 43.33a.61.6-3.8 0 0 .6.52h12.75a.44.44 0 0 0 .43-.51q-1.25-8.58-8.77-60.99c-.65-4.55-.29-7.24 4.67-7.6q14.16-1.05 25.31-1.13 4.28-.03 4.96 4.44 1.17 7.71 9.09 65.24a.65.64-3.5 0 0 .64.56h9.67zm27.92-.17a1.03 1.03 0 0 0 1.02-1.18l-13.04-89.83a1.03 1.03 0 0 0-.93-.88l-18.48-1.62a1.03 1.03 0 0 0-1.11 1.18l13.27 91.45a1.03 1.03 0 0 0 1.02.88h18.25zm-73.07-61.25a.68.68 0 0 0-.68.78l8.71 59.92a.68.68 0 0 0 .67.58h17.09a.68.68 0 0 0 .68-.78l-8.71-59.92a.68.68 0 0 0-.67-.58h-17.09zm-48.22 20.76a.56.56 0 0 0-.56.63l5.17 39.34a.56.56 0 0 0 .55.49h19.67a.56.56 0 0 0 .56-.63l-5.18-39.34a.56.56 0 0 0-.55-.49h-19.66zm-28.34 24.19a.98.98 0 0 0-1.03-.85l-18.78 1.11a.98.98 0 0 0-.91 1.1l1.85 14.1a.98.98 0 0 0 .97.85h18.92a.98.98 0 0 0 .97-1.11l-1.99-15.2z"/><rect x="1062.22" y="728.84" width="38.66" height=".88" rx=".42"/><rect x="-14.36" y="-.37" transform="matrix(.999998 .001745 -.001745 .999998 952.35 729.7)" width="28.72" height=".74" rx=".36"/><rect x="222.2" y="861.87" width="222.64" height="11.22" rx="5.57"/></g><g class="D"><rect x="705.94" y="454.97" width="28.12" height="116.1" rx=".96"/><rect x="641.87" y="495.85" width="27" height="75.24" rx=".86"/><rect x="-13.1" y="-23" transform="matrix(.999998 .001745 -.001745 .999998 591.97 548.02)" width="26.2" height="46" rx="1.02"/><rect x="-12.26" y="-10.06" transform="matrix(.999998 .001745 -.001745 .999998 533.91 560.99)" width="24.52" height="20.12" rx="1.12"/><rect x="-2.63" y="-6.2" transform="matrix(.999998 .001745 -.001745 .999998 948.67 688.52)" width="5.26" height="12.4" rx=".6"/><rect x="1060.86" y="682.29" width="5.34" height="25.02" rx=".97"/><rect x="-2.46" y="-4.93" transform="matrix(.999998 .001745 -.001745 .999998 1092.49 687.73)" width="4.92" height="9.86" rx=".45"/></g><path d="M1343.718 716.902a77.83 76.04-89 0 1 74.67 79.145 77.83 76.04-89 0 1-77.387 76.491 77.83 76.04-89 0 1-74.67-79.145 77.83 76.04-89 0 1 77.387-76.491zm4.672 124.278q14.71-2.73 22.02-14.25c6.32-9.95 6.36-24.84-4.47-31.89-9.57-6.23-22.27-9.01-30.96-12.2q-7.78-2.86-8.07-10.57c-.16-4.36 3.72-9.02 7.67-9.88q15.2-3.31 25.01 7.66c5.43 6.09 15.25-3.07 11.15-9.26-4.61-6.94-14.06-11.43-22-12.85a1 .99-82.9 0 1-.81-1.05c.21-2.89 1-8.91-1.57-10.96-5.67-4.53-11.95-.11-11.45 6.58q.16 2.23-.28 3.62a.91.89 1.5 0 1-.66.61c-15.32 3.54-25.14 13.36-23.94 30.05.82 11.44 11.14 18.91 21.4 22.09q12.28 3.81 19.31 6.59c6.17 2.44 7.88 8.7 5.19 14.49-1.68 3.63-7.54 6.78-11.06 6.9q-7.38.25-9.98-.26-6.46-1.25-12.31-5.71c-3.44-2.64-6.13-7.6-11.27-3.6-5.4 4.21-3.66 9.25.4 13.29q9.05 9 22.24 11.31a1.28 1.28 0 0 1 1.06 1.33c-.3 5.2-.98 12.63 6.12 12.82 8.44.23 6.91-8.66 6.71-14.17a.68.68 0 0 1 .55-.69z" class="G"/><g class="D"><rect x="995.53" y="723.79" width="2.32" height="5.72" rx=".58"/><path d="M420.8 828.94h-18.25a1.03 1.03 0 0 1-1.02-.88l-13.27-91.45a1.03 1.03 0 0 1 1.11-1.18l18.48 1.62a1.03 1.03 0 0 1 .93.88l13.04 89.83a1.03 1.03 0 0 1-1.02 1.18zm-73.07-61.25h17.09a.68.68 0 0 1 .67.58l8.71 59.92a.68.68 0 0 1-.68.78h-17.09a.68.68 0 0 1-.67-.58l-8.71-59.92a.68.68 0 0 1 .68-.78zm-48.22 20.76h19.66a.56.56 0 0 1 .55.49l5.18 39.34a.56.56 0 0 1-.56.63h-19.67a.56.56 0 0 1-.55-.49l-5.17-39.34a.56.56 0 0 1 .56-.63zm-28.34 24.19l1.99 15.2a.98.98 0 0 1-.97 1.11h-18.92a.98.98 0 0 1-.97-.85l-1.85-14.1a.98.98 0 0 1 .91-1.1l18.78-1.11a.98.98 0 0 1 1.03.85z"/></g><path d="M1348.39 841.18a.68.68 0 0 0-.55.69c.2 5.51 1.73 14.4-6.71 14.17-7.1-.19-6.42-7.62-6.12-12.82a1.28 1.28 0 0 0-1.06-1.33q-13.19-2.31-22.24-11.31c-4.06-4.04-5.8-9.08-.4-13.29 5.14-4 7.83.96 11.27 3.6q5.85 4.46 12.31 5.71 2.6.51 9.98.26c3.52-.12 9.38-3.27 11.06-6.9 2.69-5.79.98-12.05-5.19-14.49q-7.03-2.78-19.31-6.59c-10.26-3.18-20.58-10.65-21.4-22.09-1.2-16.69 8.62-26.51 23.94-30.05a.91.89 1.5 0 0 .66-.61q.44-1.39.28-3.62c-.5-6.69 5.78-11.11 11.45-6.58 2.57 2.05 1.78 8.07 1.57 10.96a1 .99-82.9 0 0 .81 1.05c7.94 1.42 17.39 5.91 22 12.85 4.1 6.19-5.72 15.35-11.15 9.26q-9.81-10.97-25.01-7.66c-3.95.86-7.83 5.52-7.67 9.88q.29 7.71 8.07 10.57c8.69 3.19 21.39 5.97 30.96 12.2 10.83 7.05 10.79 21.94 4.47 31.89q-7.31 11.52-22.02 14.25z" class="E"/></svg>