<svg xmlns="http://www.w3.org/2000/svg" fill="none" viewBox="-10.715 -10.715 300 300" id="Screwdriver-Wrench--Streamline-Flex" height="300" width="300"><desc>Screwdriver Wrench Streamline Icon: https://streamlinehq.com</desc><g id="screwdriver-wrench--tools-construction-tools-wrench-screwdriver-preferences-setting-edit-adjust"><path id="Intersect" fill="#d76424" d="M10.465675921428572 231.73641364285712c1.0073489157142856 18.948729357142856 15.530078521428571 36.73741364285714 34.50547100714285 36.88067821428571 0.17350931428571428 0.0019897857142857143 0.34681965 0.0019897857142857143 0.5205279428571428 0.0019897857142857143 0.17350931428571428 0 0.34701862857142857 0 0.5203289642857143 -0.0019897857142857143 18.975392485714284 -0.1432645714285714 33.49824147857143 -17.931948857142856 34.50547100714285 -36.88067821428571 0.31000861428571425 -5.8300721428571425 0.5167473499999999 -11.743715285714284 0.5167473499999999 -17.728990714285715 0 -11.638256642857142 -0.7823837428571428 -23.01107587142857 -1.5834714714285714 -34.011606192857144 -0.6890627928571428 -9.463022899999999 -7.885520785714285 -17.327054 -17.344365135714284 -18.068647135714286 -11.314717485714285 -0.8868474928571427 -21.91490292142857 -0.8868474928571427 -33.22942142857143 0 -9.459003532857142 0.7415931357142856 -16.655461525714284 8.605624235714284 -17.34454421642857 18.068647135714286C10.731372007857143 190.99634705714283 9.94892857142857 202.36916628571427 9.94892857142857 214.0074229285714c0 5.985275428571429 0.20685812285714286 11.89891857142857 0.5167473499999999 17.728990714285715Z" stroke-width="21.43"></path><path id="Intersect_2" fill="#4d6a7f" d="M20.757046614285713 53.31630821428571c0.31756979999999996 13.65948097142857 11.06877997142857 25.108906949999998 24.732240514285714 25.108906949999998 13.663261564285714 0 24.414471735714283 -11.449425978571428 24.732041535714284 -25.108906949999998 0.19579491428571427 -8.41699255 0.12097897142857143 -16.735888664285714 -0.22464680714285712 -25.22809511428571 -0.38999799999999996 -9.587603383571428 -7.9091992357142855 -17.445864105 -17.491609278571428 -17.947648266428573 -4.872985214285714 -0.25517012 -9.158784664285713 -0.25552828142857137 -14.0315709 -0.0009351992857142856 -9.58260902142857 0.5006897792857142 -17.101810257142855 8.359149479285714 -17.491808257142857 17.94679265857143 -0.34562577857142857 8.492803385714284 -0.4204417214285714 16.812097457142855 -0.22464680714285712 25.229885921428572Z" stroke-width="21.43"></path><path id="Intersect_3" stroke="#060644" stroke-linecap="round" stroke-linejoin="round" d="M20.757046614285713 53.31630821428571c0.31756979999999996 13.65948097142857 11.06877997142857 25.108906949999998 24.732240514285714 25.108906949999998 13.663261564285714 0 24.414471735714283 -11.449425978571428 24.732041535714284 -25.108906949999998 0.19579491428571427 -8.41699255 0.12097897142857143 -16.735888664285714 -0.22464680714285712 -25.22809511428571 -0.38999799999999996 -9.587603383571428 -7.9091992357142855 -17.445864105 -17.491609278571428 -17.947648266428573 -4.872985214285714 -0.25517012 -9.158784664285713 -0.25552828142857137 -14.0315709 -0.0009351992857142856 -9.58260902142857 0.5006897792857142 -17.101810257142855 8.359149479285714 -17.491808257142857 17.94679265857143 -0.34562577857142857 8.492803385714284 -0.4204417214285714 16.812097457142855 -0.22464680714285712 25.229885921428572Z" stroke-width="21.43"></path><path id="Vector 188" stroke="#060644" stroke-linecap="round" stroke-linejoin="round" d="m45.48908814999999 161.26198423571427 0 -82.3118636" stroke-width="21.43"></path><path id="Intersect_4" stroke="#060644" stroke-linecap="round" stroke-linejoin="round" d="M10.465675921428572 231.73641364285712c1.0073489157142856 18.948729357142856 15.530078521428571 36.73741364285714 34.50547100714285 36.88067821428571 0.17350931428571428 0.0019897857142857143 0.34681965 0.0019897857142857143 0.5205279428571428 0.0019897857142857143 0.17350931428571428 0 0.34701862857142857 0 0.5203289642857143 -0.0019897857142857143 18.975392485714284 -0.1432645714285714 33.49824147857143 -17.931948857142856 34.50547100714285 -36.88067821428571 0.31000861428571425 -5.8300721428571425 0.5167473499999999 -11.743715285714284 0.5167473499999999 -17.728990714285715 0 -11.638256642857142 -0.7823837428571428 -23.01107587142857 -1.5834714714285714 -34.011606192857144 -0.6890627928571428 -9.463022899999999 -7.885520785714285 -17.327054 -17.344365135714284 -18.068647135714286 -11.314717485714285 -0.8868474928571427 -21.91490292142857 -0.8868474928571427 -33.22942142857143 0 -9.459003532857142 0.7415931357142856 -16.655461525714284 8.605624235714284 -17.34454421642857 18.068647135714286C10.731372007857143 190.99634705714283 9.94892857142857 202.36916628571427 9.94892857142857 214.0074229285714c0 5.985275428571429 0.20685812285714286 11.89891857142857 0.5167473499999999 17.728990714285715Z" stroke-width="21.43"></path><path id="Union" fill="#d76424" d="M190.02294388571428 268.1295943571429c2.139019642857143 0.06566292857142857 4.236452764285714 0.19897857142857142 6.284738178571429 -0.03183657142857143 19.77110779285714 -2.2166212857142855 32.99522365 -21.674735785714283 34.03588157857143 -39.91311164285714 0.724282 -12.7167205 1.3848908571428569 -20.99820864285714 1.3848908571428569 -49.4985063642857 0 -12.04238212142857 -0.5193340714285715 -33.78059207142857 -1.142137 -45.16634490714285 11.357696857142855 -4.824036485714285 20.586322999999997 -11.997015007142856 27.13072821428571 -21.50998152857143 7.326391 -10.648736207142857 10.904025714285714 -23.6673072 10.904025714285714 -38.40306326428571 0 -15.197386349999999 -3.806460071428571 -28.563373928571426 -11.592491571428571 -39.38163987857143 -7.792000857142857 -10.826026114285714 -19.135769214285713 -18.494998520714283 -33.1637585 -23.032625250714283 -6.3951712857142855 -2.0692975514285714 -12.577435499999998 2.8290773285714286 -12.577435499999998 9.174961622142856 0 5.903495235714286 0.1810705 11.936127564285714 0.3521920714285714 17.558665057142857l0 0.0013928499999999997c0.10744842857142857 3.533262492857143 0.2089275 6.90714315 0.25668235714285714 9.98235697142857 0.13331564285714284 8.414803785714286 -0.09948928571428571 15.320952042857142 -1.259534357142857 20.847183907142853 -1.142137 5.427538492857143 -3.010545785714285 8.711878792857142 -5.547522571428571 10.775087599999999 -2.552895071428571 2.077734242857143 -6.94614295 3.862771007142857 -15.066657428571427 3.862771007142857 -8.120713457142855 0 -12.512966442857142 -1.7852357428571426 -15.06625947142857 -3.862771007142857 -2.535782914285714 -2.063208807142857 -4.4055845499999995 -5.347748085714286 -5.546328699999999 -10.775087599999999 -1.1614379214285713 -5.526231864285713 -1.3942428499999997 -12.4325791 -1.260927207142857 -20.847183907142853 0.04855077142857142 -3.074815864285714 0.15062677857142856 -6.4482985642857145 0.25747827142857144 -9.98096412142857l0 -0.0013928499999999997 0 -0.0015918285714285713c0.16992770000000001 -5.622338514285714 0.35239105 -11.654970842857143 0.35239105 -17.558665057142857 0 -6.345745008571428 -6.181667278571428 -11.24411988857143 -12.578828349999998 -9.174842234999998 -14.027591328571429 4.537646627857143 -25.370961728571427 12.206678727857142 -33.16296258571428 23.032505863571426 -7.786628435714285 10.818464928571426 -11.592093614285712 24.184452507142854 -11.592093614285712 39.38183885714285 0 14.735756064285713 3.5770377785714285 27.754128078571426 10.9032298 38.40306326428571 6.545002149999999 9.51296652142857 15.774225228571428 16.685945042857142 27.132121064285712 21.50978255 -0.6232008857142857 11.385951814285713 -1.142932914285714 33.12396278571428 -1.142932914285714 45.16654388571428 0 28.50029772142857 0.6606088571428571 36.78178586428571 1.3854877928571427 49.4985063642857 1.0392650785714284 18.238375857142856 14.263579914285714 37.69649035714286 34.035284642857135 39.91311164285714 2.048285414285714 0.23081514285714283 4.145718535714286 0.09749949999999999 6.284738178571429 0.03183657142857143Z" stroke-width="21.43"></path><path id="Union_2" stroke="#060644" stroke-linecap="round" stroke-linejoin="round" d="M188.27412122142857 268.09775778571424c2.7467002 0 5.4299262357142855 0.2924985 8.033560842857142 0 19.77110779285714 -2.2166212857142855 32.99522365 -21.674735785714283 34.03588157857143 -39.91311164285714 0.724282 -12.7167205 1.3848908571428569 -20.99820864285714 1.3848908571428569 -49.4985063642857 0 -12.04238212142857 -0.5193340714285715 -33.78059207142857 -1.142137 -45.16634490714285 11.357696857142855 -4.824036485714285 20.586322999999997 -11.997015007142856 27.13072821428571 -21.50998152857143 7.326391 -10.648736207142857 10.904025714285714 -23.6673072 10.904025714285714 -38.40306326428571 0 -15.197386349999999 -3.806460071428571 -28.563373928571426 -11.592491571428571 -39.38163987857143 -7.792000857142857 -10.826026114285714 -19.135769214285713 -18.494998520714283 -33.1637585 -23.032625250714283 -6.3951712857142855 -2.0692975514285714 -12.577435499999998 2.8290773285714286 -12.577435499999998 9.174961622142856 0 5.90409217142857 0.1810705 11.937321435714285 0.3521920714285714 17.560057907142856 0.10744842857142857 3.533262492857143 0.2089275 6.90714315 0.25668235714285714 9.98235697142857 0.13331564285714284 8.414803785714286 -0.09948928571428571 15.320952042857142 -1.259534357142857 20.847183907142853 -1.142137 5.427538492857143 -3.010545785714285 8.711878792857142 -5.547522571428571 10.775087599999999 -2.552895071428571 2.077734242857143 -6.94614295 3.862771007142857 -15.066657428571427 3.862771007142857 -8.120713457142855 0 -12.512966442857142 -1.7852357428571426 -15.06625947142857 -3.862771007142857 -2.535782914285714 -2.063208807142857 -4.4055845499999995 -5.347748085714286 -5.546328699999999 -10.775087599999999 -1.1614379214285713 -5.526231864285713 -1.3942428499999997 -12.4325791 -1.260927207142857 -20.847183907142853 0.04855077142857142 -3.0754127999999996 0.15062677857142856 -6.449094478571428 0.25747827142857144 -9.98235697142857 0.16992770000000001 -5.62293545 0.35239105 -11.655965735714286 0.35239105 -17.560256885714285 0 -6.345745008571428 -6.181667278571428 -11.24411988857143 -12.578828349999998 -9.174842234999998 -14.027591328571429 4.537646627857143 -25.370961728571427 12.206678727857142 -33.16296258571428 23.032505863571426 -7.786628435714285 10.818464928571426 -11.592093614285712 24.184452507142854 -11.592093614285712 39.38183885714285 0 14.735756064285713 3.5770377785714285 27.754128078571426 10.9032298 38.40306326428571 6.545002149999999 9.51296652142857 15.774225228571428 16.685945042857142 27.132121064285712 21.50978255 -0.6232008857142857 11.385951814285713 -1.142932914285714 33.12396278571428 -1.142932914285714 45.16654388571428 0 28.50029772142857 0.6606088571428571 36.78178586428571 1.3854877928571427 49.4985063642857 1.0392650785714284 18.238375857142856 14.263579914285714 37.69649035714286 34.035284642857135 39.91311164285714 2.603634607142857 0.2924985 5.2868606428571425 0 8.033560842857142 0" stroke-width="21.43"></path></g></svg>