<svg xmlns="http://www.w3.org/2000/svg" fill="none" viewBox="0 0 14 14" id="Seo--Streamline-Flex" height="14" width="14"><desc>Seo Streamline Icon: https://streamlinehq.com</desc><g id="seo--seo-optimization-search-engine-internet-website"><path id="Vector" fill="#d76424" d="M7.22357 13.0619c4.01693 0 6.27643 -2.2612 6.27643 -6.28097C13.5 2.76113 11.2405 0.5 7.22357 0.5 3.20666 0.5 0.947143 2.76113 0.947143 6.78093c0 1.22718 0.210587 2.29047 0.617467 3.17554L0.532523 12.7968c-0.149527 0.4115 0.241855 0.8138 0.656947 0.6754l2.95528 -0.9858c0.86531 0.3794 1.89586 0.5755 3.07882 0.5755Z" stroke-width="1"></path><path id="Vector_2" fill="#4d6a7f" d="M7.26491 11.0708c2.74769 0 4.29319 -1.54553 4.29319 -4.2932 0 -2.74766 -1.5455 -4.29322 -4.29319 -4.29322 -2.74767 0 -4.29323 1.54556 -4.29323 4.29322 0 2.74767 1.54556 4.2932 4.29323 4.2932Z" stroke-width="1"></path><path id="Vector 393" fill="#d76424" d="M7.26562 4.79102c-1.54166 0 -2.3125 1.54166 -2.3125 1.92708 0 0.38542 0.77084 1.92708 2.3125 1.92708 1.54167 0 2.3125 -1.54166 2.3125 -1.92708 0 -0.38542 -0.77083 -1.92708 -2.3125 -1.92708Z" stroke-width="1"></path><path id="Vector_3" stroke="#060644" stroke-linecap="round" stroke-linejoin="round" d="m13.5 13.0126 -3.0322 -3.03213" stroke-width="1"></path><path id="Vector_4" stroke="#060644" stroke-linecap="round" stroke-linejoin="round" d="M7.26491 11.0708c2.74769 0 4.29319 -1.54553 4.29319 -4.2932 0 -2.74766 -1.5455 -4.29322 -4.29319 -4.29322 -2.74767 0 -4.29323 1.54556 -4.29323 4.29322 0 2.74767 1.54556 4.2932 4.29323 4.2932Z" stroke-width="1"></path><path id="Vector_5" stroke="#060644" stroke-linecap="round" stroke-linejoin="round" d="M10.0534 12.5887c-0.81191 0.3123 -1.75835 0.4732 -2.82983 0.4732 -1.18296 0 -2.21351 -0.1961 -3.07882 -0.5755l-2.95528 0.9858c-0.415092 0.1384 -0.806474 -0.2639 -0.656947 -0.6754L1.56461 9.95647C1.15773 9.0714 0.947143 8.00811 0.947143 6.78093 0.947143 2.76113 3.20666 0.5 7.22357 0.5 11.2405 0.5 13.5 2.76113 13.5 6.78093c0 1.07377 -0.1612 2.02206 -0.4741 2.83528" stroke-width="1"></path><path id="Vector 392" stroke="#060644" stroke-linecap="round" stroke-linejoin="round" d="M7.26562 4.79102c-1.54166 0 -2.3125 1.54166 -2.3125 1.92708 0 0.38542 0.77084 1.92708 2.3125 1.92708 1.54167 0 2.3125 -1.54166 2.3125 -1.92708 0 -0.38542 -0.77083 -1.92708 -2.3125 -1.92708Z" stroke-width="1"></path><path id="Union" stroke="#060644" stroke-linecap="round" stroke-linejoin="round" d="M7.26367 7.00781c-0.185 0 -0.28906 -0.10406 -0.28906 -0.28906s0.10406 -0.28906 0.28906 -0.28906" stroke-width="1"></path><path id="Union_2" stroke="#060644" stroke-linecap="round" stroke-linejoin="round" d="M7.26758 7.00781c0.185 0 0.28906 -0.10406 0.28906 -0.28906s-0.10406 -0.28906 -0.28906 -0.28906" stroke-width="1"></path></g></svg>