<svg xmlns="http://www.w3.org/2000/svg" fill="none" viewBox="-10.715 -10.715 300 300" id="Sprout--Streamline-Flex" height="300" width="300"><desc>Sprout Streamline Icon: https://streamlinehq.com</desc><g id="sprout"><path id="Vector 158" fill="#d76424" d="M41.9219993 108.71811083571427C16.031265747142857 87.45446477857142 6.986097847142857 41.66750570714285 22.62386357142857 19.83880030285714 46.07488106428571 6.758585748571429 90.55196419999999 20.90230097142857 108.76467182142856 49.022947578571426c15.30045725 23.624128849999998 6.166942864285714 42.25588534285714 -9.6914503 56.41858312142857 -15.958280407142857 14.252039157142857 -35.40027764285714 21.140080364285712 -57.15122222142857 3.2765801357142856Z" stroke-width="21.43"></path><path id="Vector 159" fill="#d76424" d="M187.75896569999998 70.53173523571428c16.030907585714285 -21.834117621428568 52.59918944285714 -31.143529064285712 70.9072078 -19.475823592857143 11.588512 18.35875789285714 2.1191217857142854 54.88585118571428 -19.784439357142855 70.82204497142857 -18.401538285714285 13.38787522142857 -33.84426521428571 6.830934357142857 -45.97220812142857 -5.3511307214285715 -12.20534557142857 -12.258472849999999 -18.618623907142858 -27.652450028571426 -5.150560321428571 -45.99509065714285Z" stroke-width="21.43"></path><path id="Vector 732" stroke="#060644" stroke-linecap="round" stroke-linejoin="round" d="M41.9219993 108.71811083571427C16.031265747142857 87.45446477857142 6.986097847142857 41.66750570714285 22.62386357142857 19.83880030285714 46.07488106428571 6.758585748571429 90.55196419999999 20.90230097142857 108.76467182142856 49.022947578571426c15.30045725 23.624128849999998 6.166942864285714 42.25588534285714 -9.6914503 56.41858312142857 -15.958280407142857 14.252039157142857 -35.40027764285714 21.140080364285712 -57.15122222142857 3.2765801357142856Z" stroke-width="21.43"></path><path id="Vector 733" stroke="#060644" stroke-linecap="round" stroke-linejoin="round" d="M187.75896569999998 70.53173523571428c16.030907585714285 -21.834117621428568 52.59918944285714 -31.143529064285712 70.9072078 -19.475823592857143 11.588512 18.35875789285714 2.1191217857142854 54.88585118571428 -19.784439357142855 70.82204497142857 -18.401538285714285 13.38787522142857 -33.84426521428571 6.830934357142857 -45.97220812142857 -5.3511307214285715 -12.20534557142857 -12.258472849999999 -18.618623907142858 -27.652450028571426 -5.150560321428571 -45.99509065714285Z" stroke-width="21.43"></path><path id="Vector 731" fill="#4d6a7f" d="M14.923392857142856 263.64660714285714C36.41506835714286 247.1572529285714 86.20129773571428 228.82535714285711 139.285 228.82535714285711s102.86993164285714 18.331895785714284 124.36160714285714 34.82125c0 0 -75.75651456428571 4.974464285714285 -124.36160714285714 4.974464285714285s-124.36160714285714 -4.974464285714285 -124.36160714285714 -4.974464285714285Z" stroke-width="21.43"></path><path id="Vector 730" stroke="#060644" stroke-linecap="round" stroke-linejoin="round" d="M14.923392857142856 263.64660714285714C36.41506835714286 247.1572529285714 86.20129773571428 228.82535714285711 139.285 228.82535714285711s102.86993164285714 18.331895785714284 124.36160714285714 34.82125" stroke-width="21.43"></path><path id="Vector" stroke="#060644" stroke-linecap="round" stroke-linejoin="round" d="M142.86044594999998 228.82535714285711c3.109040178571428 -56.89533577857143 -12.01989754285714 -100.86860517142857 -67.16581372142856 -151.68992107857142" stroke-width="21.43"></path><path id="Vector_2" stroke="#060644" stroke-linecap="round" stroke-linejoin="round" d="M142.70484470714285 228.67015385714285c8.39450797142857 -38.863300699999996 25.14512105 -85.90860025714285 49.82105062857142 -111.90335980714285" stroke-width="21.43"></path></g></svg>