<svg xmlns="http://www.w3.org/2000/svg" fill="none" viewBox="0 0 14 14" id="Startup--Streamline-Flex" height="14" width="14"><desc>Startup Streamline Icon: https://streamlinehq.com</desc><g id="startup--shop-rocket-launch-startup"><path id="Vector" fill="#4d6a7f" d="M3.73419 12.6602c-0.30936 0.2987 -1.12754 0.5822 -1.90497 0.7984 -0.80028 0.2225 -1.510413 -0.4877 -1.28793 -1.288 0.216131 -0.7774 0.49971 -1.5956 0.79841 -1.9049 0.15511 -0.1665 0.34215 -0.29999 0.54997 -0.39259 0.20782 -0.0926 0.43217 -0.14239 0.65965 -0.14641 0.22748 -0.00401 0.45345 0.03784 0.66441 0.12305 0.21096 0.08521 0.40259 0.21205 0.56347 0.37295 0.16088 0.1608 0.28771 0.3525 0.37292 0.5634 0.08521 0.211 0.12706 0.437 0.12304 0.6644 -0.00401 0.2275 -0.0538 0.4519 -0.1464 0.6597 -0.0926 0.2078 -0.22611 0.3949 -0.39257 0.55Z" stroke-width="1"></path><path id="Vector_2" fill="#d76424" d="m3.61534 7.6781 0.02534 0.01564c1.09246 0.67429 2.01096 1.59612 2.6813 2.69096 2.16531 -1.2971 4.62682 -2.55339 5.75032 -3.71776C14.5032 4.23608 13.0937 0.906402 13.0937 0.906402S9.764 -0.503093 7.33314 1.92777C6.16877 3.05128 4.90227 5.52301 3.61534 7.6781Z" stroke-width="1"></path><path id="Vector_3" fill="#4d6a7f" d="m6.31556 10.3886 1.66725 3.0155c2.29679 -1.2035 2.85649 -3.56381 2.35429 -5.38834L6.31556 10.3886Z" stroke-width="1"></path><path id="Vector_4" fill="#4d6a7f" d="M3.61532 7.68833 0.599853 6.02108C1.80159 3.71651 4.16798 3.15881 5.9938 3.66558L3.61532 7.68833Z" stroke-width="1"></path><path id="Vector_5" stroke="#060644" stroke-linecap="round" stroke-linejoin="round" d="M3.61532 7.68833 0.599853 6.02108C1.80159 3.71651 4.16798 3.15881 5.9938 3.66558" stroke-width="1"></path><path id="Vector_6" stroke="#060644" stroke-linecap="round" stroke-linejoin="round" d="m6.31556 10.3886 1.66725 3.0155c2.29679 -1.2035 2.85649 -3.56381 2.35429 -5.38834" stroke-width="1"></path><path id="Vector_7" stroke="#060644" stroke-linecap="round" stroke-linejoin="round" d="m3.61534 7.6781 0.02534 0.01564c1.09246 0.67429 2.01096 1.59612 2.6813 2.69096v0c2.16531 -1.2971 4.62682 -2.55339 5.75032 -3.71776C14.5032 4.23608 13.0937 0.906402 13.0937 0.906402S9.764 -0.503093 7.33314 1.92777C6.16877 3.05128 4.90227 5.52301 3.61534 7.6781Z" stroke-width="1"></path><path id="Vector_8" stroke="#060644" stroke-linecap="round" stroke-linejoin="round" d="M3.73419 12.6602c-0.30936 0.2987 -1.12754 0.5822 -1.90497 0.7984 -0.80028 0.2225 -1.510413 -0.4877 -1.28793 -1.288 0.216131 -0.7774 0.49971 -1.5956 0.79841 -1.9049 0.15511 -0.1665 0.34215 -0.29999 0.54997 -0.39259 0.20782 -0.0926 0.43217 -0.14239 0.65965 -0.14641 0.22748 -0.00401 0.45345 0.03784 0.66441 0.12305 0.21096 0.08521 0.40259 0.21205 0.56347 0.37295 0.16088 0.1608 0.28771 0.3525 0.37292 0.5634 0.08521 0.211 0.12706 0.437 0.12304 0.6644 -0.00401 0.2275 -0.0538 0.4519 -0.1464 0.6597 -0.0926 0.2078 -0.22611 0.3949 -0.39257 0.55Z" stroke-width="1"></path><path id="Vector_9" stroke="#060644" stroke-linecap="round" stroke-linejoin="round" d="m9.86063 4.1394 0.37547 -0.37549" stroke-width="1"></path></g></svg>