<?xml version="1.0" encoding="UTF-8" standalone="no"?>
<!DOCTYPE svg PUBLIC "-//W3C//DTD SVG 1.0//EN" "http://www.w3.org/TR/2001/REC-SVG-20010904/DTD/svg10.dtd">
<svg xmlns="http://www.w3.org/2000/svg" version="1.0" viewBox="0.00 0.00 1024.00 1024.00">
<g stroke-width="2.00" fill="none" stroke-linecap="butt">
<path stroke="#74423d" d="
  M 798.61 358.50
  Q 794.62 361.15 790.66 366.98"
/>
<path stroke="#74423d" d="
  M 732.18 417.83
  Q 729.01 412.94 724.30 408.97"
/>
<path stroke="#74423d" d="
  M 665.04 425.09
  Q 662.03 428.37 658.93 432.40
  Q 657.42 434.36 653.64 438.69
  Q 650.70 442.04 648.88 445.38"
/>
<path stroke="#74423d" d="
  M 610.27 490.99
  L 601.78 500.09"
/>
<path stroke="#74423d" d="
  M 595.51 502.48
  L 582.07 491.03"
/>
<path stroke="#74423d" d="
  M 534.24 482.23
  Q 526.51 490.17 520.69 499.94"
/>
<path stroke="#74423d" d="
  M 477.48 557.27
  L 471.43 565.88"
/>
<path stroke="#74423d" d="
  M 469.13 569.53
  L 460.18 579.86"
/>
<path stroke="#74423d" d="
  M 405.55 596.64
  L 396.64 609.47"
/>
<path stroke="#74423d" d="
  M 387.46 622.88
  Q 384.93 625.40 382.83 630.56"
/>
<path stroke="#74423d" d="
  M 375.45 642.16
  L 374.37 640.58
  A 14.23 14.03 17.2 0 1 372.94 637.91
  Q 369.39 629.02 365.69 620.13
  Q 364.31 616.81 360.19 609.85
  Q 357.22 604.83 354.56 599.63"
/>
<path stroke="#74423d" d="
  M 397.00 536.87
  Q 402.31 531.08 405.75 525.29"
/>
<path stroke="#74423d" d="
  M 460.59 508.13
  Q 466.57 501.22 470.12 494.02"
/>
<path stroke="#74423d" d="
  M 517.13 433.92
  Q 518.93 431.61 521.36 429.12
  Q 525.10 425.28 534.48 412.42"
/>
<path stroke="#74423d" d="
  M 586.98 436.53
  L 593.40 442.77
  A 0.66 0.66 0.0 0 0 594.44 442.61
  L 595.89 439.95"
/>
<path stroke="#74423d" d="
  M 649.74 374.52
  Q 654.85 369.50 658.39 363.15"
/>
<path stroke="#74423d" d="
  M 800.75 485.82
  L 797.41 484.83
  A 3.73 3.14 28.1 0 1 796.92 484.64
  Q 793.95 483.24 791.41 482.62"
/>
<path stroke="#74423d" d="
  M 750.42 491.73
  L 746.47 500.19"
/>
<path stroke="#74423d" d="
  M 732.28 524.67
  Q 729.39 530.67 724.34 536.29"
/>
<path stroke="#74423d" d="
  M 705.57 557.20
  Q 701.95 563.41 697.19 566.05"
/>
<path stroke="#74423d" d="
  M 657.73 596.66
  L 648.64 603.32"
/>
<path stroke="#74423d" d="
  M 648.90 614.34
  Q 653.87 615.97 657.92 619.62"
/>
<path stroke="#74423d" d="
  M 663.87 623.72
  Q 668.90 625.68 673.40 629.90"
/>
<path stroke="#74423d" d="
  M 436.19 684.02
  L 436.81 693.01"
/>
<path stroke="#74423d" d="
  M 863.52 554.28
  Q 862.24 555.79 861.08 558.09
  Q 858.47 563.27 857.61 567.77"
/>
<path stroke="#74423d" d="
  M 824.17 622.40
  Q 821.71 626.80 817.18 630.90"
/>
<path stroke="#74423d" d="
  M 568.13 683.87
  L 571.98 693.09"
/>
<path stroke="#74423d" d="
  M 603.56 739.72
  Q 607.14 743.89 611.10 746.90
  Q 611.39 747.12 611.99 747.06"
/>
<path stroke="#eca571" d="
  M 611.99 747.06
  Q 611.74 747.41 612.13 747.86
  Q 616.26 752.51 622.74 757.90
  Q 637.97 770.58 656.58 783.06
  C 659.29 784.88 661.72 787.97 657.78 790.55
  Q 655.26 792.20 650.18 794.91
  Q 639.73 800.47 625.03 807.86
  Q 613.54 813.64 602.53 819.42"
/>
<path stroke="#74423d" d="
  M 599.74 820.98
  L 590.79 825.17"
/>
<path stroke="#74423d" d="
  M 404.73 278.02
  Q 406.10 283.14 408.85 287.92"
/>
<path stroke="#74423d" d="
  M 346.23 338.53
  Q 343.28 333.35 338.85 328.65
  Q 338.26 328.01 336.16 326.39"
/>
<path stroke="#868187" d="
  M 601.03 821.29
  Q 600.81 822.23 601.77 823.48
  Q 621.82 849.58 629.37 858.88
  Q 656.74 892.56 688.82 922.21
  A 1.61 1.60 -38.5 0 0 690.70 922.42
  Q 749.60 889.08 804.34 849.51
  A 1.72 1.72 0.0 0 0 804.40 846.77
  C 782.15 829.08 760.95 808.32 740.86 786.90
  Q 710.23 754.25 683.19 720.69
  A 1.75 1.72 -29.9 0 0 681.21 720.17
  L 611.99 747.06"
/>
<path stroke="#868187" d="
  M 198.53 507.58
  A 0.98 0.98 0.0 0 0 199.63 506.42
  Q 195.17 483.26 195.13 482.95
  C 194.49 478.23 193.92 472.47 199.38 471.78
  C 202.57 471.38 204.43 476.91 204.89 479.34
  Q 207.52 493.34 211.14 507.49
  A 2.07 2.06 -7.2 0 0 213.14 509.03
  L 227.85 509.03
  A 2.32 2.31 7.5 0 0 230.09 507.32
  Q 233.57 494.48 237.04 478.81
  Q 237.36 477.41 238.42 475.76
  C 240.20 472.99 244.15 473.45 246.12 475.68
  C 247.58 477.33 246.80 481.30 246.45 482.98
  Q 243.43 497.41 241.17 507.48
  A 0.78 0.78 0.0 0 0 241.95 508.43
  C 249.80 508.25 259.87 507.72 264.77 500.50
  Q 280.41 477.42 289.76 454.99
  Q 289.95 454.54 289.95 453.72
  A 1.40 1.40 0.0 0 0 288.73 452.33
  Q 282.14 451.46 278.26 450.73
  C 269.52 449.09 262.80 444.76 254.93 439.24
  Q 248.27 434.57 239.86 433.34
  C 230.26 431.93 224.22 435.13 213.48 439.28
  Q 208.13 441.35 205.25 441.53
  Q 199.62 441.89 196.76 441.00
  Q 186.63 437.87 179.64 435.90
  Q 170.53 433.31 163.84 439.00
  C 162.51 440.13 160.98 442.50 161.10 444.04
  Q 162.09 455.97 167.17 468.87
  Q 174.08 486.45 177.42 493.11
  C 179.26 496.80 181.48 502.02 184.93 503.59
  Q 191.63 506.64 198.53 507.58"
/>
<path stroke="#868187" d="
  M 252.20 802.30
  Q 253.29 798.90 253.64 797.44
  C 258.29 778.42 269.15 762.24 284.59 750.29
  C 294.01 743.00 305.06 736.89 316.39 734.15
  Q 339.52 728.57 362.79 733.90
  A 1.72 1.72 0.0 0 0 364.72 733.00
  Q 365.34 731.77 365.99 729.74
  Q 371.65 712.16 372.80 695.47
  C 374.62 668.96 366.95 642.00 354.49 618.57
  Q 344.89 600.53 327.81 582.46
  C 310.95 564.60 289.78 549.09 267.98 535.68
  A 2.04 2.02 51.0 0 0 266.26 535.49
  Q 257.90 538.38 248.26 539.78
  Q 220.39 543.83 192.92 539.33
  C 187.84 538.49 184.23 537.34 178.86 535.56
  Q 177.13 535.00 174.24 536.74
  C 143.49 555.25 116.53 580.59 98.58 612.11
  Q 86.66 633.02 81.82 655.62
  C 73.73 693.40 77.18 738.46 105.15 767.87
  Q 115.93 779.20 126.97 785.32
  Q 144.26 794.92 160.20 798.76
  Q 188.67 805.63 220.49 804.66
  Q 234.32 804.24 245.81 803.22
  C 247.41 803.08 250.38 803.51 251.53 803.03
  A 1.17 1.15 -3.0 0 0 252.20 802.30"
/>
<path stroke="#74423d" d="
  M 823.1641 546.9203
  A 3.80 3.80 0.0 0 0 820.9869 542.0071
  L 771.6523 522.9705
  A 3.80 3.80 0.0 0 0 766.7391 525.1477
  L 766.6959 525.2597
  A 3.80 3.80 0.0 0 0 768.8731 530.1729
  L 818.2077 549.2095
  A 3.80 3.80 0.0 0 0 823.1209 547.0323
  L 823.1641 546.9203"
/>
<path stroke="#74423d" d="
  M 770.27 574.83
  Q 782.87 580.76 795.45 587.26
  Q 799.19 589.19 800.63 585.57
  Q 801.44 583.55 800.05 581.98
  Q 798.30 580.01 795.88 578.75
  Q 784.72 572.93 773.62 567.70
  Q 762.52 562.48 750.92 557.59
  Q 748.41 556.53 745.77 556.44
  Q 743.68 556.37 742.64 558.28
  Q 740.77 561.70 744.64 563.35
  Q 757.66 568.90 770.27 574.83"
/>
<path stroke="#74423d" d="
  M 773.6242 624.9637
  A 3.84 3.84 0.0 0 0 772.3749 619.6788
  L 720.3733 587.5619
  A 3.84 3.84 0.0 0 0 715.0884 588.8112
  L 715.0358 588.8963
  A 3.84 3.84 0.0 0 0 716.2851 594.1812
  L 768.2867 626.2981
  A 3.84 3.84 0.0 0 0 773.5716 625.0488
  L 773.6242 624.9637"
/>
<path stroke="#868187" d="
  M 216.57 756.81
  Q 225.08 755.87 225.07 747.00
  Q 225.07 740.01 225.20 737.80
  A 0.72 0.72 0.0 0 1 225.85 737.12
  Q 232.41 736.51 239.01 734.80
  C 261.44 728.97 273.30 710.19 269.59 687.19
  C 267.27 672.78 254.79 661.36 241.35 657.07
  Q 233.04 654.42 227.62 653.88
  A 0.61 0.60 3.2 0 1 227.08 653.28
  L 227.08 613.54
  A 0.94 0.93 3.8 0 1 228.14 612.62
  C 235.78 613.64 240.95 617.27 246.19 622.74
  C 249.25 625.94 252.65 627.49 256.53 625.77
  C 265.29 621.89 264.06 612.50 258.63 606.33
  Q 246.57 592.65 228.09 591.92
  A 1.02 1.02 0.0 0 1 227.11 590.91
  C 227.06 586.45 227.14 582.21 224.13 578.66
  Q 222.05 576.21 219.59 576.07
  C 210.77 575.59 210.92 586.10 211.00 592.21
  A 1.64 1.63 -4.0 0 1 209.58 593.84
  C 205.12 594.44 199.61 595.27 195.47 597.17
  Q 178.53 604.91 173.81 622.51
  C 170.30 635.58 173.40 652.64 184.97 661.53
  Q 196.01 670.02 209.47 672.01
  A 1.22 1.21 4.4 0 1 210.50 673.21
  L 210.50 713.04
  A 0.80 0.80 0.0 0 1 209.60 713.83
  C 199.94 712.60 194.65 707.58 187.89 699.76
  C 184.26 695.57 181.32 692.93 176.19 694.24
  C 168.15 696.29 166.73 705.42 170.03 712.12
  Q 173.75 719.69 178.67 723.65
  C 182.91 727.06 185.24 729.39 189.10 731.29
  Q 198.74 736.03 209.04 737.20
  A 1.47 1.46 -86.1 0 1 210.34 738.69
  Q 210.16 745.50 210.81 751.91
  Q 210.97 753.51 213.18 756.44"
/>
<path stroke="#868187" d="
  M 210.89 649.20
  L 211.25 614.80
  A 0.11 0.11 0.0 0 0 211.14 614.69
  L 211.02 614.69
  A 17.28 17.01 -89.4 0 0 193.83 631.79
  L 193.83 631.85
  A 17.28 17.01 -89.4 0 0 210.66 649.31
  L 210.78 649.31
  A 0.11 0.11 0.0 0 0 210.89 649.20"
/>
<path stroke="#868187" d="
  M 226.04 676.87
  L 225.84 714.86
  A 0.87 0.87 0.0 0 0 226.71 715.74
  L 226.87 715.74
  A 19.97 19.84 0.3 0 0 246.94 696.00
  L 246.94 695.94
  A 19.97 19.84 0.3 0 0 227.07 676.00
  L 226.91 676.00
  A 0.87 0.87 0.0 0 0 226.04 676.87"
/>
<path stroke="#74423d" d="
  M 544.6625 705.3693
  A 3.80 3.80 0.0 0 0 540.0226 702.6579
  L 481.6384 717.9748
  A 3.80 3.80 0.0 0 0 478.9270 722.6147
  L 478.9575 722.7307
  A 3.80 3.80 0.0 0 0 483.5974 725.4421
  L 541.9816 710.1252
  A 3.80 3.80 0.0 0 0 544.6930 705.4853
  L 544.6625 705.3693"
/>
<path stroke="#74423d" d="
  M 561.7689 738.5033
  A 3.67 3.67 0.0 0 0 557.0961 736.2444
  L 499.6780 756.2395
  A 3.67 3.67 0.0 0 0 497.4191 760.9123
  L 497.5111 761.1767
  A 3.67 3.67 0.0 0 0 502.1839 763.4356
  L 559.6020 743.4405
  A 3.67 3.67 0.0 0 0 561.8609 738.7677
  L 561.7689 738.5033"
/>
<path stroke="#74423d" d="
  M 582.2446 769.0652
  A 3.81 3.81 0.0 0 0 577.1531 767.3021
  L 528.7748 790.7933
  A 3.81 3.81 0.0 0 0 527.0117 795.8848
  L 527.0554 795.9748
  A 3.81 3.81 0.0 0 0 532.1469 797.7379
  L 580.5252 774.2467
  A 3.81 3.81 0.0 0 0 582.2883 769.1552
  L 582.2446 769.0652"
/>
<path stroke="#868187" d="
  M 720.98 749.61
  A 0.80 0.80 0.0 0 0 720.79 750.81
  Q 757.03 792.56 797.52 829.89
  C 798.59 830.87 799.92 832.21 801.33 831.34
  C 841.22 806.85 879.49 779.62 915.31 749.06
  Q 916.36 748.16 916.89 747.32
  A 1.41 1.40 -59.3 0 0 916.39 745.35
  L 817.63 689.10
  A 3.10 3.09 -49.6 0 0 814.16 689.38
  Q 796.27 703.76 777.94 715.43
  Q 751.91 731.99 739.94 738.68
  Q 728.70 744.97 720.98 749.61"
/>
<path stroke="#868187" d="
  M 867.9768 750.6998
  A 4.32 4.32 0.0 0 0 866.5091 744.7693
  L 820.9557 717.2898
  A 4.32 4.32 0.0 0 0 815.0252 718.7574
  L 814.9632 718.8602
  A 4.32 4.32 0.0 0 0 816.4309 724.7907
  L 861.9843 752.2702
  A 4.32 4.32 0.0 0 0 867.9148 750.8026
  L 867.9768 750.6998"
/>
<path stroke="#868187" d="
  M 841.1990 767.6370
  A 4.46 4.46 0.0 0 0 840.0388 761.4372
  L 795.6311 731.0307
  A 4.46 4.46 0.0 0 0 789.4314 732.1910
  L 789.3410 732.3230
  A 4.46 4.46 0.0 0 0 790.5012 738.5228
  L 834.9089 768.9293
  A 4.46 4.46 0.0 0 0 841.1086 767.7690
  L 841.1990 767.6370"
/>
<path stroke="#868187" d="
  M 813.5196 788.2070
  A 4.42 4.42 0.0 0 0 812.6281 782.0201
  L 772.1911 751.7694
  A 4.42 4.42 0.0 0 0 766.0042 752.6609
  L 765.9204 752.7730
  A 4.42 4.42 0.0 0 0 766.8119 758.9599
  L 807.2489 789.2106
  A 4.42 4.42 0.0 0 0 813.4358 788.3191
  L 813.5196 788.2070"
/>
<path stroke="#868187" d="
  M 707.7362 787.5624
  A 4.41 4.41 0.0 0 0 701.7351 785.8642
  L 642.6034 818.9118
  A 4.41 4.41 0.0 0 0 640.9053 824.9129
  L 640.9638 825.0176
  A 4.41 4.41 0.0 0 0 646.9649 826.7158
  L 706.0966 793.6682
  A 4.41 4.41 0.0 0 0 707.7947 787.6671
  L 707.7362 787.5624"
/>
<path stroke="#868187" d="
  M 728.0703 812.7879
  A 4.48 4.48 0.0 0 0 721.8970 811.3627
  L 670.4713 843.4970
  A 4.48 4.48 0.0 0 0 669.0461 849.6703
  L 669.1097 849.7721
  A 4.48 4.48 0.0 0 0 675.2830 851.1973
  L 726.7087 819.0630
  A 4.48 4.48 0.0 0 0 728.1339 812.8897
  L 728.0703 812.7879"
/>
<path stroke="#868187" d="
  M 690.44 874.67
  C 694.45 879.98 699.52 875.06 704.20 871.96
  Q 730.08 854.78 750.20 840.91
  Q 752.79 839.13 753.89 837.15
  A 2.27 2.21 -30.2 0 0 754.17 836.15
  Q 754.25 833.47 751.66 832.22
  C 749.35 831.11 747.17 832.35 744.99 833.79
  Q 718.79 851.09 694.98 867.46
  Q 691.04 870.17 690.06 873.03"
/>
</g>
<g>
<path fill="#0e1e53" d="
  M 258.97 129.45
  A 0.65 0.64 38.5 0 0 257.95 129.56
  Q 249.34 143.75 235.41 152.46
  C 223.03 160.20 208.55 166.50 193.74 162.40
  C 184.61 159.87 181.04 150.69 183.01 142.03
  Q 183.71 138.93 186.53 134.65
  C 194.22 122.97 204.99 116.64 218.51 112.53
  Q 226.84 109.99 236.24 110.29
  Q 243.52 110.52 252.54 113.77
  A 0.77 0.77 0.0 0 0 253.40 113.52
  Q 254.51 112.11 254.74 110.91
  C 257.21 97.62 247.15 87.86 234.83 85.12
  Q 225.72 83.10 222.76 82.99
  C 216.40 82.76 208.81 82.79 201.16 84.22
  Q 174.45 89.21 153.28 107.55
  Q 148.90 111.34 144.41 117.63
  Q 143.12 119.44 140.63 119.11
  C 137.30 118.66 135.87 114.58 137.17 111.91
  Q 138.75 108.64 142.14 105.10
  C 159.56 86.92 183.79 75.68 208.73 73.12
  Q 228.11 71.14 245.74 78.94
  Q 264.29 87.15 264.24 108.67
  C 264.23 111.52 263.23 114.14 262.27 116.69
  A 3.31 3.29 33.1 0 0 263.01 120.15
  C 268.70 125.91 272.37 130.55 274.62 138.03
  Q 279.13 153.11 271.90 167.02
  A 2.49 2.48 34.7 0 0 272.45 170.02
  C 275.92 173.13 278.31 176.39 279.76 181.05
  C 285.40 199.19 274.35 215.15 258.65 224.26
  A 5.36 5.35 -35.4 0 1 251.90 223.13
  L 251.76 222.97
  A 3.83 3.83 0.0 0 1 252.52 217.29
  Q 256.85 214.38 259.89 212.17
  C 270.51 204.49 276.59 188.52 267.13 177.20
  A 0.79 0.78 -48.5 0 0 265.87 177.28
  Q 256.99 190.98 242.16 197.12
  C 233.74 200.61 219.10 201.38 218.38 188.45
  Q 218.00 181.65 223.05 175.22
  C 231.99 163.85 248.32 159.67 262.07 163.06
  A 2.07 2.06 18.5 0 0 264.45 161.88
  Q 272.46 143.50 258.97 129.45
  Z
  M 249.90 123.63
  A 0.98 0.98 0.0 0 0 249.34 122.28
  Q 238.91 118.73 227.78 120.23
  C 213.34 122.18 198.98 129.82 192.58 143.07
  Q 192.09 144.09 191.60 147.00
  C 190.95 150.91 195.80 153.75 199.02 154.23
  C 209.26 155.76 220.42 151.53 228.80 145.81
  Q 237.34 139.98 240.58 136.82
  Q 246.30 131.24 249.90 123.63
  Z
  M 257.64 171.31
  Q 255.93 170.52 253.51 170.51
  Q 240.71 170.44 231.84 179.03
  Q 228.00 182.75 227.58 187.77
  A 2.08 2.08 0.0 0 0 229.25 189.99
  C 239.82 192.05 251.97 181.62 258.19 173.59
  A 1.50 1.50 0.0 0 0 257.64 171.31
  Z"
/>
<path fill="#d96626" d="
  M 589.89 195.35
  A 3.83 3.69 -25.3 0 1 588.47 199.09
  Q 585.59 201.30 581.79 203.05
  Q 542.60 221.15 500.20 234.40
  C 496.02 235.70 494.67 234.50 491.65 231.39
  Q 469.51 208.58 457.52 179.97
  Q 443.43 146.33 441.07 110.53
  Q 440.34 99.55 442.85 89.44
  C 444.02 84.72 449.49 83.98 453.44 82.89
  Q 465.72 79.50 475.51 78.28
  Q 479.29 77.80 490.50 76.65
  C 503.96 75.26 517.47 76.27 531.13 77.82
  Q 539.27 78.74 548.30 80.94
  Q 555.84 82.77 554.49 89.96
  Q 554.25 91.21 554.10 92.51
  Q 551.65 113.15 555.60 133.23
  Q 561.75 164.45 582.59 185.98
  C 585.11 188.58 589.23 192.26 589.89 195.35
  Z
  M 576.52 193.62
  Q 575.50 193.20 574.34 192.09
  C 557.78 176.14 547.37 151.58 544.18 129.01
  C 542.45 116.80 542.92 105.92 543.14 91.73
  A 1.17 1.16 6.4 0 0 542.22 90.58
  Q 537.23 89.53 533.06 89.20
  Q 528.08 88.80 511.00 88.14
  Q 482.34 87.03 454.41 93.78
  A 2.33 2.33 0.0 0 0 452.66 95.65
  C 451.13 104.61 451.83 114.35 453.12 123.98
  C 457.04 153.28 466.41 180.06 482.92 204.61
  Q 490.19 215.41 498.22 222.79
  Q 499.72 224.17 501.36 223.59
  Q 539.16 210.26 576.52 194.75
  A 0.61 0.61 0.0 0 0 576.52 193.62
  Z"
/>
<path fill="#d96626" d="
  M 841.97 144.80
  Q 830.22 150.13 817.22 148.32
  Q 800.10 145.93 793.49 130.09
  A 1.42 1.41 65.2 0 0 791.55 129.37
  Q 781.22 134.58 770.08 132.49
  Q 751.86 129.06 747.17 111.91
  Q 743.95 100.13 746.38 88.82
  C 747.05 85.71 750.16 77.93 754.60 80.18
  Q 757.68 81.75 757.57 85.23
  A 2.39 2.34 55.7 0 1 757.45 85.91
  Q 753.94 96.62 756.57 106.69
  C 758.98 115.92 764.80 121.92 774.47 122.16
  Q 782.21 122.35 789.05 119.07
  A 1.86 1.86 0.0 0 0 790.10 117.22
  C 788.89 103.79 793.47 89.58 803.77 80.63
  C 810.36 74.91 821.61 75.11 823.77 85.26
  C 826.86 99.71 814.21 115.21 802.92 122.56
  A 1.81 1.80 64.2 0 0 802.20 124.65
  C 805.37 133.92 815.10 138.67 824.48 137.92
  Q 831.97 137.33 839.14 134.22
  A 1.12 1.11 -14.2 0 0 839.81 133.10
  C 838.55 117.03 845.95 96.81 858.41 86.38
  C 864.76 81.07 876.15 78.91 880.42 88.61
  C 884.25 97.28 880.16 108.74 875.50 116.26
  Q 866.96 130.05 853.37 138.75
  A 1.21 1.21 0.0 0 0 853.00 140.42
  C 862.68 155.53 879.25 150.50 890.21 140.69
  Q 900.07 131.87 906.06 119.60
  C 907.46 116.72 911.81 115.42 914.28 118.02
  C 919.41 123.42 908.43 136.20 903.87 141.86
  C 893.30 154.96 874.90 166.35 857.68 158.83
  Q 848.52 154.83 842.87 145.09
  A 0.71 0.71 0.0 0 0 841.97 144.80
  Z
  M 800.93 111.34
  Q 801.58 111.67 802.79 110.53
  Q 811.61 102.26 813.98 90.83
  Q 814.37 88.92 812.83 88.14
  Q 811.30 87.35 809.98 88.78
  Q 802.08 97.37 800.50 109.36
  Q 800.29 111.01 800.93 111.34
  Z
  M 850.54 129.11
  C 859.93 120.39 867.99 110.94 871.11 99.37
  Q 871.88 96.50 871.15 93.40
  A 1.40 1.40 0.0 0 0 869.80 92.32
  C 867.36 92.28 862.66 97.19 860.46 99.93
  C 855.28 106.40 851.60 115.04 850.67 123.72
  Q 850.59 124.44 849.67 128.61
  A 0.53 0.52 74.8 0 0 850.54 129.11
  Z"
/>
<path fill="#d96626" d="
  M 404.93 166.96
  Q 403.68 168.78 402.85 169.34
  Q 384.65 181.63 363.93 197.77
  A 3.63 3.62 -55.5 0 1 360.66 198.38
  Q 359.48 198.03 357.45 196.91
  C 342.99 189.00 328.91 181.63 315.68 173.36
  C 310.09 169.86 312.11 166.75 316.26 163.51
  Q 333.56 150.00 351.80 137.80
  C 355.28 135.48 357.96 133.85 361.89 136.37
  C 368.13 140.36 374.24 144.03 379.19 147.43
  Q 391.20 155.67 400.85 161.87
  Q 403.39 163.50 404.95 165.98
  A 0.88 0.87 46.5 0 1 404.93 166.96
  Z"
/>
<path fill="#0e1e53" d="
  M 721.18 284.25
  Q 718.91 284.11 717.04 283.21
  Q 711.54 280.57 703.46 276.81
  Q 679.99 265.90 653.68 260.60
  Q 625.10 254.84 597.02 261.31
  C 593.73 262.07 588.06 263.16 588.09 258.08
  Q 588.10 255.06 590.05 249.84
  Q 605.79 207.54 623.23 160.11
  Q 623.72 158.78 626.69 150.70
  Q 627.89 147.44 631.80 145.80
  Q 649.93 138.21 668.77 136.32
  Q 679.22 135.26 693.39 136.11
  Q 703.94 136.75 717.74 139.63
  Q 747.58 145.87 774.20 157.35
  Q 778.44 159.18 783.31 162.01
  C 786.43 163.82 785.84 166.68 784.70 169.47
  Q 782.89 173.90 780.67 177.94
  Q 773.19 191.58 754.71 227.42
  Q 738.68 258.53 726.93 279.41
  Q 726.01 281.05 724.49 282.84
  A 4.03 4.02 21.8 0 1 721.18 284.25
  Z
  M 601.26 251.22
  C 619.44 246.67 639.47 247.49 657.41 251.66
  Q 671.38 254.90 674.22 255.81
  Q 697.04 263.12 717.85 274.04
  A 1.46 1.46 0.0 0 0 719.82 273.43
  L 774.55 169.43
  A 1.59 1.59 0.0 0 0 773.86 167.27
  C 767.72 164.16 761.30 161.88 755.25 159.68
  Q 731.27 150.94 711.04 147.47
  Q 700.49 145.66 685.70 145.07
  C 669.23 144.42 652.45 147.69 636.74 153.06
  Q 634.76 153.74 633.60 157.11
  Q 627.67 174.36 602.93 241.70
  Q 601.18 246.47 600.10 250.01
  A 0.96 0.96 0.0 0 0 601.26 251.22
  Z"
/>
<path fill="#d96626" d="
  M 796.57 185.09
  C 795.15 186.24 793.35 186.30 791.79 185.22
  Q 787.90 182.50 790.93 178.38
  C 793.13 175.38 802.37 163.74 807.59 166.37
  C 812.16 168.67 810.38 172.54 807.56 175.30
  Q 802.29 180.46 796.57 185.09
  Z"
/>
<path fill="#d96626" d="
  M 798.61 358.50
  Q 794.62 361.15 790.66 366.98
  Q 777.52 382.88 764.50 398.51
  Q 754.61 410.38 746.50 418.50
  C 744.30 420.70 740.64 423.39 737.49 421.25
  Q 734.91 419.50 732.18 417.83
  Q 729.01 412.94 724.30 408.97
  Q 723.92 406.86 723.01 405.49
  Q 713.77 391.62 704.58 378.08
  A 0.81 0.81 0.0 0 0 703.28 378.02
  L 665.04 425.09
  Q 662.03 428.37 658.93 432.40
  Q 657.42 434.36 653.64 438.69
  Q 650.70 442.04 648.88 445.38
  Q 647.51 446.41 647.13 446.88
  Q 636.48 459.97 625.71 472.97
  Q 618.21 482.03 610.27 490.99
  L 601.78 500.09
  L 595.51 502.48
  L 582.07 491.03
  L 549.33 462.60
  A 0.35 0.34 38.6 0 0 548.82 462.65
  L 534.24 482.23
  Q 526.51 490.17 520.69 499.94
  Q 519.28 501.01 518.52 502.01
  Q 501.05 524.87 477.48 557.27
  L 471.43 565.88
  Q 469.96 567.45 469.13 569.53
  L 460.18 579.86
  Q 458.90 580.41 456.21 582.49
  C 451.42 586.20 443.07 580.48 439.02 577.48
  Q 430.73 571.34 426.39 568.53
  A 1.20 1.19 -44.7 0 0 425.08 568.53
  Q 423.95 569.25 422.84 570.85
  Q 413.75 583.90 405.55 596.64
  L 396.64 609.47
  L 387.46 622.88
  Q 384.93 625.40 382.83 630.56
  Q 378.63 635.13 375.45 642.16
  L 374.37 640.58
  A 14.23 14.03 17.2 0 1 372.94 637.91
  Q 369.39 629.02 365.69 620.13
  Q 364.31 616.81 360.19 609.85
  Q 357.22 604.83 354.56 599.63
  Q 355.65 598.85 355.91 598.43
  Q 379.46 561.14 387.31 550.57
  Q 394.92 540.32 397.00 536.87
  Q 402.31 531.08 405.75 525.29
  C 409.80 522.16 411.87 517.83 416.65 515.63
  A 4.50 4.50 0.0 0 1 420.36 515.61
  Q 425.22 517.78 429.71 520.80
  Q 433.25 523.18 443.89 529.78
  A 1.14 1.13 -56.4 0 0 445.42 529.47
  L 460.59 508.13
  Q 466.57 501.22 470.12 494.02
  C 472.55 491.31 475.01 488.70 477.15 485.85
  Q 496.70 459.80 517.13 433.92
  Q 518.93 431.61 521.36 429.12
  Q 525.10 425.28 534.48 412.42
  C 537.07 410.25 539.00 407.71 541.44 405.70
  C 542.91 404.49 544.84 403.67 546.64 404.35
  C 551.67 406.27 556.19 410.22 560.67 414.34
  Q 573.18 425.82 586.98 436.53
  L 593.40 442.77
  A 0.66 0.66 0.0 0 0 594.44 442.61
  L 595.89 439.95
  Q 610.34 422.93 641.21 385.97
  Q 646.41 379.74 649.74 374.52
  Q 654.85 369.50 658.39 363.15
  Q 679.28 338.35 699.56 313.55
  Q 700.94 311.86 702.02 311.26
  A 2.90 2.87 45.3 0 1 704.88 311.29
  Q 708.54 313.41 711.96 317.55
  Q 729.59 338.88 743.12 358.58
  A 0.71 0.71 0.0 0 0 744.29 358.59
  C 757.30 340.35 767.34 328.11 786.80 303.78
  Q 812.97 271.08 840.28 239.68
  A 1.54 1.54 0.0 0 0 840.00 237.41
  Q 830.55 230.76 823.55 224.72
  C 818.35 220.24 821.57 216.33 826.60 214.33
  C 839.03 209.39 856.09 202.23 870.31 196.88
  Q 882.09 192.45 897.80 185.79
  Q 899.55 185.05 903.96 183.50
  C 907.78 182.16 913.05 179.68 915.92 182.10
  Q 918.45 184.25 917.95 187.25
  C 914.83 205.97 912.67 220.29 909.18 239.58
  Q 905.23 261.47 903.21 274.19
  Q 902.51 278.57 900.98 281.75
  A 2.08 2.07 24.8 0 1 898.29 282.74
  Q 894.19 280.95 890.21 278.03
  Q 882.77 272.56 875.43 267.10
  A 1.08 1.07 38.2 0 0 873.96 267.27
  Q 819.49 332.54 801.41 354.13
  Q 800.25 355.52 798.61 358.50
  Z"
/>
<path fill="#0e1e53" d="
  M 287.70 280.91
  Q 288.96 284.49 286.61 287.87
  Q 284.02 291.61 274.52 308.72
  Q 254.37 345.01 229.99 382.23
  C 228.41 384.65 226.41 386.51 223.22 386.01
  Q 218.30 385.24 216.52 384.74
  Q 190.66 377.42 167.75 362.26
  C 155.53 354.18 142.79 343.71 129.65 334.53
  C 115.89 324.90 99.66 317.48 84.51 311.99
  Q 80.41 310.50 80.76 306.75
  Q 80.96 304.52 84.45 301.06
  Q 88.86 296.68 95.46 288.98
  Q 123.00 256.83 136.65 217.24
  Q 136.67 217.21 137.15 215.53
  C 139.24 208.36 146.60 210.14 151.76 211.73
  Q 178.60 220.04 203.71 234.56
  C 213.16 240.02 226.10 249.05 236.72 254.81
  C 243.57 258.53 250.83 262.92 257.31 266.13
  Q 271.17 273.01 286.16 279.28
  A 2.77 2.75 -88.6 0 1 287.70 280.91
  Z
  M 274.69 284.93
  Q 268.73 282.20 262.04 279.17
  Q 250.43 273.90 232.73 263.74
  C 222.59 257.92 211.78 250.30 203.12 245.14
  Q 184.76 234.18 166.68 226.77
  C 160.37 224.18 153.21 222.37 147.09 219.92
  A 1.26 1.25 -70.7 0 0 145.42 220.73
  C 138.52 243.84 126.26 264.42 112.45 283.71
  Q 107.56 290.54 98.76 300.37
  C 97.63 301.63 95.96 302.77 94.79 303.95
  A 1.03 1.03 0.0 0 0 95.12 305.62
  Q 102.03 308.54 111.78 312.98
  C 121.65 317.46 131.35 324.18 139.97 330.23
  Q 143.45 332.67 153.73 340.61
  Q 168.45 351.97 179.88 358.89
  Q 197.03 369.29 220.17 375.80
  A 1.85 1.83 43.5 0 0 221.20 375.78
  Q 222.30 375.42 223.35 373.88
  Q 239.01 351.05 252.73 327.08
  C 261.51 311.74 268.12 301.39 275.52 287.38
  A 1.78 1.77 -63.8 0 0 274.69 284.93
  Z"
/>
<path fill="#d96626" d="
  M 804.79 216.88
  A 2.33 2.33 0.0 0 1 806.39 219.77
  L 805.78 221.86
  A 8.70 5.45 16.1 0 1 795.91 224.69
  L 785.79 221.76
  A 8.70 5.45 16.1 0 1 778.94 214.11
  L 779.54 212.02
  A 2.33 2.33 0.0 0 1 782.43 210.43
  L 804.79 216.88
  Z"
/>
<path fill="#d96626" d="
  M 404.73 278.02
  Q 406.10 283.14 408.85 287.92
  Q 414.57 302.46 424.96 314.20
  C 427.34 316.89 430.54 319.37 432.43 322.40
  A 1.92 1.92 0.0 0 1 432.28 324.65
  Q 430.76 326.46 428.33 327.35
  Q 369.08 348.91 368.26 349.27
  C 366.99 349.83 361.49 351.72 358.96 351.30
  A 1.49 1.43 -16.3 0 1 358.15 350.88
  L 346.23 338.53
  Q 343.28 333.35 338.85 328.65
  Q 338.26 328.01 336.16 326.39
  Q 317.98 299.70 312.46 267.50
  Q 310.45 255.79 308.96 240.74
  Q 308.47 235.76 313.24 235.47
  C 320.41 235.04 330.13 235.08 338.66 234.35
  C 353.37 233.09 362.92 232.41 375.32 230.83
  Q 386.57 229.41 391.00 229.19
  Q 393.41 229.08 394.98 229.66
  A 3.05 3.03 6.5 0 1 396.93 232.10
  Q 399.39 250.51 402.40 268.84
  Q 402.88 271.81 404.73 278.02
  Z"
/>
<rect fill="#d96626" x="-4.99" y="-12.63" transform="translate(772.96,253.41) rotate(-44.9)" width="9.98" height="25.26" rx="4.79"/>
<path fill="#0e1e53" d="
  M 408.85 287.92
  Q 406.10 283.14 404.73 278.02
  Q 531.44 278.05 657.94 278.04
  Q 659.29 278.04 662.23 279.21
  A 1.71 1.70 -0.8 0 1 663.17 280.12
  C 665.01 284.32 661.97 287.23 658.11 287.84
  Q 657.52 287.93 653.37 287.93
  Q 531.34 287.98 408.85 287.92
  Z"
/>
<path fill="#0e1e53" d="
  M 658.39 363.15
  Q 654.85 369.50 649.74 374.52
  L 649.06 369.43
  A 1.75 1.74 -3.8 0 0 647.33 367.92
  L 596.95 367.92
  A 1.28 1.27 -0.0 0 0 595.67 369.19
  L 595.89 439.95
  L 594.44 442.61
  A 0.66 0.66 0.0 0 1 593.40 442.77
  L 586.98 436.53
  L 587.05 369.47
  A 1.55 1.54 -0.0 0 0 585.50 367.93
  L 535.72 367.93
  A 1.31 1.30 -90.0 0 0 534.42 369.24
  L 534.48 412.42
  Q 525.10 425.28 521.36 429.12
  Q 518.93 431.61 517.13 433.92
  L 470.23 433.91
  A 1.06 1.06 0.0 0 0 469.17 434.97
  Q 469.21 461.50 469.16 487.79
  Q 469.16 490.93 470.12 494.02
  Q 466.57 501.22 460.59 508.13
  L 460.17 501.71
  A 1.71 1.70 88.2 0 0 458.47 500.11
  L 406.82 500.11
  A 0.93 0.93 0.0 0 0 405.89 501.04
  L 405.75 525.29
  Q 402.31 531.08 397.00 536.87
  L 396.62 501.61
  A 1.51 1.51 0.0 0 0 395.11 500.12
  L 376.50 500.12
  A 4.59 4.58 88.1 0 1 371.93 495.84
  L 371.90 495.47
  A 4.04 4.04 0.0 0 1 375.93 491.16
  L 395.30 491.16
  A 1.29 1.29 0.0 0 0 396.59 489.87
  L 396.59 435.44
  A 1.52 1.52 0.0 0 0 395.07 433.92
  L 376.28 433.92
  A 4.97 4.96 85.3 0 1 371.37 429.75
  L 371.29 429.31
  A 3.57 3.57 0.0 0 1 374.81 425.17
  L 395.15 425.17
  A 1.41 1.41 0.0 0 0 396.56 423.76
  L 396.56 369.23
  A 1.34 1.34 0.0 0 0 395.22 367.89
  L 376.81 367.89
  A 4.69 4.69 0.0 0 1 372.13 363.48
  L 372.11 363.19
  A 4.02 4.01 -1.7 0 1 376.12 358.94
  L 395.27 358.94
  A 1.45 1.44 85.4 0 0 396.69 357.26
  Q 396.07 353.51 397.16 349.01
  C 398.41 343.90 405.25 343.56 405.72 349.62
  Q 406.03 353.49 405.84 358.08
  A 0.87 0.87 0.0 0 0 406.71 358.98
  L 458.79 358.98
  A 1.32 1.31 -90.0 0 0 460.10 357.66
  L 460.10 315.04
  A 5.54 5.53 -6.2 0 1 464.44 309.64
  L 464.80 309.56
  A 3.63 3.62 83.7 0 1 469.21 313.10
  L 469.21 357.54
  A 1.44 1.43 0.0 0 0 470.65 358.97
  L 524.19 358.97
  A 0.97 0.96 -90.0 0 0 525.15 358.00
  L 525.15 313.84
  A 4.55 4.55 0.0 0 1 529.66 309.29
  L 529.94 309.29
  A 4.31 4.30 -1.2 0 1 534.42 313.59
  L 534.39 357.74
  A 1.23 1.23 0.0 0 0 535.62 358.97
  L 585.88 358.97
  A 1.17 1.16 -90.0 0 0 587.04 357.80
  L 586.98 313.57
  A 4.36 4.36 0.0 0 1 591.16 309.21
  L 591.40 309.20
  A 3.98 3.98 0.0 0 1 595.64 313.15
  Q 595.75 341.56 595.44 356.78
  Q 595.39 359.00 597.48 358.99
  Q 622.57 358.88 647.77 359.01
  A 1.33 1.32 -89.8 0 0 649.10 357.68
  L 649.10 313.65
  A 4.32 4.32 0.0 0 1 653.15 309.34
  L 653.53 309.32
  A 3.73 3.73 0.0 0 1 657.52 312.99
  Q 657.85 340.39 657.61 356.50
  Q 657.56 359.60 658.39 363.15
  Z
  M 460.09 369.17
  A 1.25 1.25 0.0 0 0 458.84 367.92
  L 407.12 367.92
  A 1.25 1.25 0.0 0 0 405.87 369.17
  L 405.87 423.89
  A 1.25 1.25 0.0 0 0 407.12 425.14
  L 458.84 425.14
  A 1.25 1.25 0.0 0 0 460.09 423.89
  L 460.09 369.17
  Z
  M 525.1368 369.7388
  A 1.77 1.77 0.0 0 0 523.3699 367.9657
  L 471.0699 367.8744
  A 1.77 1.77 0.0 0 0 469.2969 369.6413
  L 469.2032 423.2812
  A 1.77 1.77 0.0 0 0 470.9701 425.0543
  L 523.2701 425.1456
  A 1.77 1.77 0.0 0 0 525.0431 423.3787
  L 525.1368 369.7388
  Z
  M 460.08 435.08
  A 1.15 1.15 0.0 0 0 458.93 433.93
  L 407.01 433.93
  A 1.15 1.15 0.0 0 0 405.86 435.08
  L 405.86 490.00
  A 1.15 1.15 0.0 0 0 407.01 491.15
  L 458.93 491.15
  A 1.15 1.15 0.0 0 0 460.08 490.00
  L 460.08 435.08
  Z"
/>
<rect fill="#0e1e53" x="857.77" y="309.00" width="9.46" height="191.14" rx="4.64"/>
<path fill="#0e1e53" d="
  M 346.23 338.53
  Q 346.34 340.95 346.51 343.18
  Q 346.71 345.81 346.71 347.82
  Q 346.84 451.18 346.83 566.75
  Q 346.83 579.10 346.33 586.47
  Q 346.23 587.81 348.04 590.22
  Q 351.52 594.86 354.56 599.63
  Q 357.22 604.83 360.19 609.85
  Q 364.31 616.81 365.69 620.13
  Q 369.39 629.02 372.94 637.91
  A 14.23 14.03 17.2 0 0 374.37 640.58
  L 375.45 642.16
  Q 382.12 661.53 383.15 682.72
  A 1.30 1.29 -1.2 0 0 384.44 683.95
  L 436.19 684.02
  L 436.81 693.01
  L 384.30 693.02
  A 1.28 1.27 -88.1 0 0 383.03 694.21
  Q 382.26 706.57 379.94 716.99
  C 378.54 723.28 377.09 729.82 374.19 735.82
  A 1.08 1.07 19.4 0 0 374.92 737.34
  Q 377.06 737.82 379.53 738.75
  C 403.44 747.70 422.48 768.09 434.41 790.87
  Q 447.78 816.43 446.39 845.24
  C 445.39 865.80 438.78 883.37 425.89 898.92
  Q 416.76 909.94 402.72 917.73
  Q 391.88 923.74 382.42 926.39
  Q 379.75 927.14 373.17 929.36
  Q 367.22 931.38 360.25 931.77
  C 345.31 932.61 331.45 931.56 317.63 926.19
  Q 281.83 912.25 263.52 877.97
  Q 249.37 851.46 250.21 821.81
  Q 250.32 817.89 251.06 814.43
  A 0.83 0.82 -86.9 0 0 250.17 813.43
  Q 247.01 813.76 231.23 814.85
  Q 204.30 816.70 177.52 812.87
  Q 162.49 810.72 146.27 805.45
  C 106.28 792.45 76.39 759.75 69.85 717.92
  Q 64.42 683.20 72.72 648.24
  Q 76.89 630.65 84.48 616.00
  Q 109.62 567.48 155.86 536.58
  Q 158.79 534.62 166.78 529.57
  A 1.20 1.20 0.0 0 0 167.11 527.86
  Q 162.43 521.28 163.83 512.92
  C 164.45 509.21 166.50 506.64 169.07 504.27
  A 2.10 2.10 0.0 0 0 169.53 501.78
  Q 160.99 484.65 155.05 466.24
  Q 151.88 456.42 151.23 451.02
  C 150.72 446.86 150.21 443.55 151.24 439.71
  C 153.47 431.41 159.35 428.29 167.11 425.73
  Q 169.23 425.04 172.62 424.99
  Q 180.27 424.89 186.71 427.04
  C 194.93 429.80 202.58 432.55 210.87 429.28
  C 222.30 424.78 228.03 421.42 237.50 422.24
  C 249.93 423.31 259.23 429.72 270.24 436.76
  C 277.80 441.61 288.79 439.80 297.46 444.78
  C 302.98 447.94 300.99 454.72 298.74 460.01
  Q 292.37 474.96 287.12 485.00
  Q 283.57 491.77 281.04 495.78
  Q 276.49 502.98 274.87 506.49
  A 2.59 2.58 -51.3 0 0 275.16 509.15
  Q 277.53 512.20 278.17 514.30
  C 279.41 518.29 278.10 523.66 276.19 527.48
  A 1.42 1.42 0.0 0 0 276.71 529.31
  Q 283.35 533.44 287.26 535.98
  Q 314.03 553.35 334.57 575.94
  A 0.88 0.88 0.0 0 0 336.10 575.35
  L 336.16 326.39
  Q 338.26 328.01 338.85 328.65
  Q 343.28 333.35 346.23 338.53
  Z
  M 198.53 507.58
  A 0.98 0.98 0.0 0 0 199.63 506.42
  Q 195.17 483.26 195.13 482.95
  C 194.49 478.23 193.92 472.47 199.38 471.78
  C 202.57 471.38 204.43 476.91 204.89 479.34
  Q 207.52 493.34 211.14 507.49
  A 2.07 2.06 -7.2 0 0 213.14 509.03
  L 227.85 509.03
  A 2.32 2.31 7.5 0 0 230.09 507.32
  Q 233.57 494.48 237.04 478.81
  Q 237.36 477.41 238.42 475.76
  C 240.20 472.99 244.15 473.45 246.12 475.68
  C 247.58 477.33 246.80 481.30 246.45 482.98
  Q 243.43 497.41 241.17 507.48
  A 0.78 0.78 0.0 0 0 241.95 508.43
  C 249.80 508.25 259.87 507.72 264.77 500.50
  Q 280.41 477.42 289.76 454.99
  Q 289.95 454.54 289.95 453.72
  A 1.40 1.40 0.0 0 0 288.73 452.33
  Q 282.14 451.46 278.26 450.73
  C 269.52 449.09 262.80 444.76 254.93 439.24
  Q 248.27 434.57 239.86 433.34
  C 230.26 431.93 224.22 435.13 213.48 439.28
  Q 208.13 441.35 205.25 441.53
  Q 199.62 441.89 196.76 441.00
  Q 186.63 437.87 179.64 435.90
  Q 170.53 433.31 163.84 439.00
  C 162.51 440.13 160.98 442.50 161.10 444.04
  Q 162.09 455.97 167.17 468.87
  Q 174.08 486.45 177.42 493.11
  C 179.26 496.80 181.48 502.02 184.93 503.59
  Q 191.63 506.64 198.53 507.58
  Z
  M 252.20 802.30
  Q 253.29 798.90 253.64 797.44
  C 258.29 778.42 269.15 762.24 284.59 750.29
  C 294.01 743.00 305.06 736.89 316.39 734.15
  Q 339.52 728.57 362.79 733.90
  A 1.72 1.72 0.0 0 0 364.72 733.00
  Q 365.34 731.77 365.99 729.74
  Q 371.65 712.16 372.80 695.47
  C 374.62 668.96 366.95 642.00 354.49 618.57
  Q 344.89 600.53 327.81 582.46
  C 310.95 564.60 289.78 549.09 267.98 535.68
  A 2.04 2.02 51.0 0 0 266.26 535.49
  Q 257.90 538.38 248.26 539.78
  Q 220.39 543.83 192.92 539.33
  C 187.84 538.49 184.23 537.34 178.86 535.56
  Q 177.13 535.00 174.24 536.74
  C 143.49 555.25 116.53 580.59 98.58 612.11
  Q 86.66 633.02 81.82 655.62
  C 73.73 693.40 77.18 738.46 105.15 767.87
  Q 115.93 779.20 126.97 785.32
  Q 144.26 794.92 160.20 798.76
  Q 188.67 805.63 220.49 804.66
  Q 234.32 804.24 245.81 803.22
  C 247.41 803.08 250.38 803.51 251.53 803.03
  A 1.17 1.15 -3.0 0 0 252.20 802.30
  Z
  M 274.06 821.26
  C 276.30 867.66 307.84 909.71 355.91 914.81
  Q 374.04 916.73 389.66 911.29
  C 408.21 904.85 423.08 890.42 430.29 872.09
  Q 434.68 860.93 435.58 851.88
  C 436.31 844.53 437.23 839.82 436.50 833.72
  Q 434.69 818.60 431.46 809.81
  C 424.40 790.60 412.66 773.55 396.11 760.41
  C 376.16 744.57 349.66 738.84 324.96 743.46
  C 305.87 747.04 289.28 763.58 281.76 780.51
  C 276.18 793.07 273.37 807.01 274.06 821.26
  Z"
/>
<rect fill="#0e1e53" x="-21.87" y="-5.24" transform="translate(912.70,337.93) rotate(-21.3)" width="43.74" height="10.48" rx="5.11"/>
<rect fill="#d96626" x="-4.98" y="-16.85" transform="translate(291.70,370.11) rotate(-27.3)" width="9.96" height="33.70" rx="4.55"/>
<path fill="#0e1e53" d="
  M 798.61 358.50
  Q 813.74 359.21 828.00 358.98
  C 830.06 358.94 833.51 359.39 833.78 362.18
  C 834.16 366.13 831.41 367.83 827.75 367.86
  Q 816.83 367.93 801.85 367.87
  A 1.17 1.16 0.0 0 0 800.68 369.03
  L 800.68 424.04
  A 1.09 1.09 0.0 0 0 801.77 425.13
  L 829.85 425.13
  A 3.88 3.88 0.0 0 1 833.72 429.24
  L 833.69 429.78
  A 4.39 4.38 1.7 0 1 829.31 433.91
  L 802.00 433.91
  A 1.19 1.18 -89.8 0 0 800.82 435.09
  L 800.75 485.82
  L 797.41 484.83
  A 3.73 3.14 28.1 0 1 796.92 484.64
  Q 793.95 483.24 791.41 482.62
  L 791.10 435.27
  A 1.34 1.34 0.0 0 0 789.76 433.94
  L 733.41 433.94
  A 1.03 1.03 0.0 0 0 732.38 434.97
  L 732.38 489.96
  A 1.35 1.34 0.9 0 0 733.69 491.30
  L 750.42 491.73
  L 746.47 500.19
  L 733.43 500.06
  A 1.23 1.22 -89.8 0 0 732.20 501.29
  L 732.28 524.67
  Q 729.39 530.67 724.34 536.29
  L 723.76 501.52
  A 1.39 1.39 0.0 0 0 722.37 500.15
  L 658.83 500.15
  A 1.24 1.24 0.0 0 0 657.59 501.39
  L 657.59 556.13
  A 0.99 0.99 0.0 0 0 658.57 557.12
  L 705.57 557.20
  Q 701.95 563.41 697.19 566.05
  L 658.84 565.97
  A 1.22 1.21 -0.2 0 0 657.62 567.19
  L 657.73 596.66
  L 648.64 603.32
  L 648.99 566.86
  A 0.91 0.90 -89.7 0 0 648.09 565.94
  L 596.59 565.94
  A 0.94 0.94 0.0 0 0 595.65 566.88
  L 595.65 620.99
  A 1.51 1.51 0.0 0 0 597.18 622.50
  Q 621.73 622.31 646.72 622.48
  Q 649.37 622.50 649.20 620.00
  Q 649.03 617.30 648.90 614.34
  Q 653.87 615.97 657.92 619.62
  Q 657.11 620.86 658.18 622.38
  A 1.78 1.70 -5.8 0 0 658.94 622.97
  Q 661.36 623.94 663.87 623.72
  Q 668.90 625.68 673.40 629.90
  Q 670.81 631.10 669.39 631.16
  Q 664.30 631.37 659.00 631.26
  A 1.51 1.50 0.4 0 0 657.46 632.77
  Q 657.54 644.67 657.70 650.50
  C 657.75 652.49 657.49 656.90 655.07 657.36
  C 650.46 658.23 648.82 654.31 649.13 650.20
  Q 649.14 650.13 649.05 632.67
  A 1.27 1.27 0.0 0 0 647.78 631.41
  L 596.93 631.41
  A 1.36 1.36 0.0 0 0 595.57 632.78
  Q 595.67 642.50 595.58 652.99
  C 595.57 655.50 594.71 658.11 592.22 658.80
  C 588.55 659.81 587.38 655.71 587.27 652.74
  Q 586.90 642.34 587.10 632.84
  A 1.42 1.42 0.0 0 0 585.68 631.39
  L 535.81 631.39
  A 1.44 1.43 -0.2 0 0 534.37 632.83
  L 534.37 652.79
  A 3.93 3.93 0.0 0 1 529.95 656.69
  L 529.44 656.65
  A 4.71 4.71 0.0 0 1 525.18 651.96
  L 525.18 632.55
  A 1.17 1.16 89.8 0 0 524.01 631.38
  Q 499.23 631.47 471.49 631.31
  Q 469.24 631.30 469.23 633.46
  Q 469.18 642.91 469.45 652.60
  A 4.58 4.57 -0.8 0 1 464.86 657.31
  L 464.84 657.31
  A 4.55 4.54 89.9 0 1 460.31 652.79
  L 460.19 632.68
  A 1.31 1.30 -0.0 0 0 458.88 631.38
  L 407.03 631.38
  A 1.14 1.13 -0.0 0 0 405.89 632.51
  L 405.89 651.12
  A 4.23 4.23 0.0 0 1 401.37 655.34
  L 401.09 655.32
  A 4.78 4.78 0.0 0 1 396.63 650.55
  L 396.63 632.94
  A 1.63 1.63 0.0 0 0 394.84 631.32
  Q 389.14 631.90 382.83 630.56
  Q 384.93 625.40 387.46 622.88
  L 396.03 622.25
  A 0.91 0.90 87.7 0 0 396.87 621.33
  L 396.64 609.47
  L 405.55 596.64
  L 405.86 621.25
  A 1.32 1.31 89.6 0 0 407.17 622.55
  L 458.78 622.55
  A 1.39 1.39 0.0 0 0 460.17 621.16
  L 460.18 579.86
  L 469.13 569.53
  L 469.22 620.72
  A 1.73 1.73 0.0 0 0 470.95 622.45
  L 523.86 622.45
  A 1.28 1.28 0.0 0 0 525.14 621.17
  L 525.14 567.51
  A 1.54 1.53 90.0 0 0 523.61 565.97
  L 471.43 565.88
  L 477.48 557.27
  L 524.10 557.03
  A 1.11 1.11 0.0 0 0 525.21 555.91
  Q 525.14 529.73 525.20 503.18
  Q 525.21 500.84 524.07 500.22
  Q 522.88 499.56 520.69 499.94
  Q 526.51 490.17 534.24 482.23
  L 534.34 490.22
  A 1.05 1.05 0.0 0 0 535.40 491.25
  L 582.07 491.03
  L 595.51 502.48
  L 595.59 555.40
  A 1.58 1.58 0.0 0 0 597.17 556.98
  L 647.90 556.98
  A 1.17 1.17 0.0 0 0 649.07 555.81
  L 649.07 501.71
  A 1.58 1.57 -0.0 0 0 647.49 500.14
  L 601.78 500.09
  L 610.27 490.99
  Q 611.40 491.58 612.82 491.43
  Q 615.12 491.19 615.21 491.19
  Q 631.43 491.13 647.94 491.15
  A 1.10 1.09 -90.0 0 0 649.03 490.05
  L 648.88 445.38
  Q 650.70 442.04 653.64 438.69
  Q 657.42 434.36 658.93 432.40
  Q 662.03 428.37 665.04 425.09
  L 722.78 425.08
  A 1.18 1.17 0.5 0 0 723.96 423.93
  L 724.30 408.97
  Q 729.01 412.94 732.18 417.83
  L 732.37 423.78
  A 1.37 1.37 0.0 0 0 733.74 425.11
  L 790.33 425.11
  A 0.81 0.80 -90.0 0 0 791.13 424.30
  Q 791.07 399.15 791.14 372.00
  Q 791.15 369.39 790.66 366.98
  Q 794.62 361.15 798.61 358.50
  Z
  M 723.67 435.23
  A 1.29 1.29 0.0 0 0 722.38 433.94
  L 658.92 433.94
  A 1.29 1.29 0.0 0 0 657.63 435.23
  L 657.63 489.83
  A 1.29 1.29 0.0 0 0 658.92 491.12
  L 722.38 491.12
  A 1.29 1.29 0.0 0 0 723.67 489.83
  L 723.67 435.23
  Z
  M 586.9427 501.4342
  A 1.35 1.35 0.0 0 0 585.5904 500.0865
  L 535.7104 500.1736
  A 1.35 1.35 0.0 0 0 534.3628 501.5259
  L 534.4573 555.6658
  A 1.35 1.35 0.0 0 0 535.8096 557.0135
  L 585.6896 556.9264
  A 1.35 1.35 0.0 0 0 587.0372 555.5741
  L 586.9427 501.4342
  Z
  M 587.02 567.02
  A 1.10 1.10 0.0 0 0 585.92 565.92
  L 535.52 565.92
  A 1.10 1.10 0.0 0 0 534.42 567.02
  L 534.42 621.34
  A 1.10 1.10 0.0 0 0 535.52 622.44
  L 585.92 622.44
  A 1.10 1.10 0.0 0 0 587.02 621.34
  L 587.02 567.02
  Z"
/>
<rect fill="#d96626" x="-4.82" y="-18.19" transform="translate(267.36,395.33) rotate(-35.5)" width="9.64" height="36.38" rx="4.70"/>
<rect fill="#0e1e53" x="-19.45" y="-4.79" transform="translate(910.96,395.14) rotate(13.7)" width="38.90" height="9.58" rx="4.66"/>
<path fill="#d96626" d="
  M 937.37 454.61
  A 3.21 3.20 5.4 0 1 935.10 456.48
  Q 931.89 457.17 927.76 457.12
  C 917.21 456.98 902.83 460.90 895.95 470.12
  C 893.85 472.94 891.75 476.65 887.90 474.61
  Q 883.67 472.37 885.80 468.31
  C 893.83 453.08 912.79 445.77 929.07 446.44
  C 933.72 446.62 940.06 448.30 937.37 454.61
  Z"
/>
<path fill="#d96626" d="
  M 791.41 482.62
  Q 793.95 483.24 796.92 484.64
  A 3.73 3.14 28.1 0 0 797.41 484.83
  L 800.75 485.82
  Q 832.30 498.67 864.26 511.22
  Q 869.34 513.21 872.60 515.64
  C 875.46 517.76 873.40 524.86 872.25 528.77
  Q 869.05 539.53 864.52 550.93
  Q 863.99 552.27 863.52 554.28
  Q 862.24 555.79 861.08 558.09
  Q 858.47 563.27 857.61 567.77
  Q 855.99 569.05 854.86 571.37
  Q 842.54 596.84 824.17 622.40
  Q 821.71 626.80 817.18 630.90
  Q 799.88 653.92 777.70 672.71
  Q 773.35 676.39 764.63 682.63
  Q 761.65 684.76 758.45 685.77
  A 4.12 4.10 -34.7 0 1 754.71 685.10
  C 741.56 674.88 725.79 664.97 699.04 647.02
  Q 698.98 646.98 686.66 638.22
  Q 680.23 633.65 673.40 629.90
  Q 668.90 625.68 663.87 623.72
  Q 660.96 620.75 657.92 619.62
  Q 653.87 615.97 648.90 614.34
  C 647.20 612.73 644.41 610.50 645.23 607.84
  Q 646.05 605.19 648.64 603.32
  L 657.73 596.66
  Q 672.67 586.40 686.52 575.53
  Q 691.80 571.38 697.19 566.05
  Q 701.95 563.41 705.57 557.20
  Q 716.80 548.76 724.34 536.29
  Q 729.39 530.67 732.28 524.67
  Q 737.78 517.36 742.95 507.46
  Q 745.69 502.19 746.47 500.19
  L 750.42 491.73
  L 760.57 472.88
  A 2.25 2.25 0.0 0 1 763.37 471.84
  L 791.41 482.62
  Z
  M 823.1641 546.9203
  A 3.80 3.80 0.0 0 0 820.9869 542.0071
  L 771.6523 522.9705
  A 3.80 3.80 0.0 0 0 766.7391 525.1477
  L 766.6959 525.2597
  A 3.80 3.80 0.0 0 0 768.8731 530.1729
  L 818.2077 549.2095
  A 3.80 3.80 0.0 0 0 823.1209 547.0323
  L 823.1641 546.9203
  Z
  M 770.27 574.83
  Q 782.87 580.76 795.45 587.26
  Q 799.19 589.19 800.63 585.57
  Q 801.44 583.55 800.05 581.98
  Q 798.30 580.01 795.88 578.75
  Q 784.72 572.93 773.62 567.70
  Q 762.52 562.48 750.92 557.59
  Q 748.41 556.53 745.77 556.44
  Q 743.68 556.37 742.64 558.28
  Q 740.77 561.70 744.64 563.35
  Q 757.66 568.90 770.27 574.83
  Z
  M 773.6242 624.9637
  A 3.84 3.84 0.0 0 0 772.3749 619.6788
  L 720.3733 587.5619
  A 3.84 3.84 0.0 0 0 715.0884 588.8112
  L 715.0358 588.8963
  A 3.84 3.84 0.0 0 0 716.2851 594.1812
  L 768.2867 626.2981
  A 3.84 3.84 0.0 0 0 773.5716 625.0488
  L 773.6242 624.9637
  Z"
/>
<path fill="#d96626" d="
  M 928.65 567.80
  A 1.03 1.03 0.0 0 0 930.35 567.70
  C 935.58 559.01 938.76 551.36 937.36 541.10
  A 0.78 0.77 -23.1 0 0 936.11 540.60
  C 923.78 550.51 903.45 540.02 909.72 523.78
  C 913.86 513.06 927.80 513.16 936.81 517.37
  A 1.51 1.50 8.4 0 0 938.94 515.79
  C 937.72 507.61 933.58 501.28 925.48 498.80
  C 915.99 495.90 906.54 497.98 898.09 503.55
  Q 896.13 504.84 893.94 503.30
  C 887.65 498.87 895.79 493.33 899.36 491.15
  Q 906.56 486.76 915.02 486.44
  C 919.98 486.26 926.12 486.70 931.10 488.79
  Q 948.03 495.89 949.23 514.93
  Q 949.70 522.45 946.09 528.70
  A 2.91 2.89 -41.1 0 0 945.91 531.22
  Q 950.90 543.66 947.29 556.77
  Q 944.06 568.49 935.47 577.36
  A 2.08 2.07 -33.9 0 0 935.03 579.55
  C 937.13 584.94 939.29 590.94 938.61 596.33
  Q 935.96 617.12 916.51 626.27
  Q 910.58 629.06 903.32 631.51
  C 895.05 634.30 893.30 624.31 899.58 622.06
  Q 905.42 619.97 910.11 617.88
  C 920.04 613.46 928.29 603.85 927.40 592.40
  Q 927.06 587.95 926.93 586.69
  A 0.93 0.92 -16.8 0 0 925.58 585.97
  C 918.69 589.57 908.57 590.73 901.95 586.34
  C 896.95 583.03 894.00 576.05 895.98 570.21
  C 898.17 563.76 904.44 558.74 911.43 559.06
  Q 922.27 559.55 928.65 567.80
  Z
  M 918.67 530.27
  C 919.06 532.73 920.37 534.12 922.97 534.37
  Q 927.54 534.81 931.64 530.94
  Q 933.50 529.19 933.31 527.94
  Q 933.11 526.70 930.80 525.61
  Q 925.70 523.20 921.49 525.03
  C 919.10 526.08 918.28 527.81 918.67 530.27
  Z
  M 921.63 575.10
  C 919.82 572.07 912.99 568.03 909.52 569.28
  C 906.36 570.41 903.59 574.05 906.42 577.25
  C 909.43 580.66 917.37 579.02 920.97 577.28
  A 1.54 1.54 0.0 0 0 921.63 575.10
  Z"
/>
<path fill="#0e1e53" d="
  M 863.52 554.28
  Q 867.09 556.57 867.09 560.75
  Q 867.11 619.25 867.05 682.33
  A 1.51 1.51 0.0 0 0 868.56 683.84
  L 915.17 683.84
  A 4.58 4.57 89.6 0 1 919.74 688.35
  L 919.75 688.62
  A 4.29 4.29 0.0 0 1 915.53 692.95
  Q 902.20 693.16 864.98 693.10
  C 858.93 693.09 857.75 692.31 857.74 686.00
  Q 857.71 627.10 857.61 567.77
  Q 858.47 563.27 861.08 558.09
  Q 862.24 555.79 863.52 554.28
  Z"
/>
<path fill="#0e1e53" d="
  M 824.17 622.40
  Q 825.32 622.72 827.76 622.98
  Q 831.11 623.33 830.93 626.99
  Q 830.69 631.47 826.07 631.50
  Q 822.26 631.52 817.18 630.90
  Q 821.71 626.80 824.17 622.40
  Z"
/>
<path fill="#d96626" d="
  M 568.13 683.87
  L 571.98 693.09
  Q 577.88 704.60 582.92 712.57
  Q 591.72 726.49 603.56 739.72
  Q 607.14 743.89 611.10 746.90
  Q 611.39 747.12 611.99 747.06
  Q 611.74 747.41 612.13 747.86
  Q 616.26 752.51 622.74 757.90
  Q 637.97 770.58 656.58 783.06
  C 659.29 784.88 661.72 787.97 657.78 790.55
  Q 655.26 792.20 650.18 794.91
  Q 639.73 800.47 625.03 807.86
  Q 613.54 813.64 602.53 819.42
  Q 601.49 819.21 599.74 820.98
  L 590.79 825.17
  Q 564.94 839.11 538.65 852.41
  Q 534.11 854.71 530.24 855.77
  A 1.38 1.37 -40.4 0 1 529.29 855.70
  Q 527.77 855.01 526.22 853.28
  Q 494.66 818.19 473.85 782.70
  Q 462.38 763.13 449.95 734.45
  C 446.25 725.90 442.24 714.38 440.34 706.39
  Q 438.01 696.60 436.81 693.01
  L 436.19 684.02
  Q 439.44 680.92 442.94 680.15
  Q 455.26 677.45 474.85 674.18
  Q 509.52 668.41 554.52 659.76
  Q 560.38 658.63 561.96 664.29
  Q 563.59 670.12 565.19 676.53
  Q 565.69 678.53 568.13 683.87
  Z
  M 544.6625 705.3693
  A 3.80 3.80 0.0 0 0 540.0226 702.6579
  L 481.6384 717.9748
  A 3.80 3.80 0.0 0 0 478.9270 722.6147
  L 478.9575 722.7307
  A 3.80 3.80 0.0 0 0 483.5974 725.4421
  L 541.9816 710.1252
  A 3.80 3.80 0.0 0 0 544.6930 705.4853
  L 544.6625 705.3693
  Z
  M 561.7689 738.5033
  A 3.67 3.67 0.0 0 0 557.0961 736.2444
  L 499.6780 756.2395
  A 3.67 3.67 0.0 0 0 497.4191 760.9123
  L 497.5111 761.1767
  A 3.67 3.67 0.0 0 0 502.1839 763.4356
  L 559.6020 743.4405
  A 3.67 3.67 0.0 0 0 561.8609 738.7677
  L 561.7689 738.5033
  Z
  M 582.2446 769.0652
  A 3.81 3.81 0.0 0 0 577.1531 767.3021
  L 528.7748 790.7933
  A 3.81 3.81 0.0 0 0 527.0117 795.8848
  L 527.0554 795.9748
  A 3.81 3.81 0.0 0 0 532.1469 797.7379
  L 580.5252 774.2467
  A 3.81 3.81 0.0 0 0 582.2883 769.1552
  L 582.2446 769.0652
  Z"
/>
<path fill="#0e1e53" d="
  M 590.79 825.17
  L 599.74 820.98
  Q 599.48 821.49 600.12 821.64
  Q 600.63 821.75 601.03 821.29
  Q 600.81 822.23 601.77 823.48
  Q 621.82 849.58 629.37 858.88
  Q 656.74 892.56 688.82 922.21
  A 1.61 1.60 -38.5 0 0 690.70 922.42
  Q 749.60 889.08 804.34 849.51
  A 1.72 1.72 0.0 0 0 804.40 846.77
  C 782.15 829.08 760.95 808.32 740.86 786.90
  Q 710.23 754.25 683.19 720.69
  A 1.75 1.72 -29.9 0 0 681.21 720.17
  L 611.99 747.06
  Q 611.39 747.12 611.10 746.90
  Q 607.14 743.89 603.56 739.72
  Q 617.72 734.23 631.02 729.39
  Q 661.76 718.20 682.03 710.05
  Q 685.44 708.68 687.39 711.14
  Q 699.55 726.51 713.49 742.68
  A 0.56 0.56 0.0 0 0 714.17 742.81
  Q 715.27 742.24 754.36 719.08
  Q 784.35 701.31 810.87 680.84
  Q 814.45 678.07 818.69 680.26
  C 823.24 682.61 829.32 685.50 834.69 688.43
  Q 854.00 698.98 883.07 715.93
  C 896.83 723.96 909.79 730.99 926.45 740.30
  Q 929.13 741.79 930.55 743.48
  A 2.54 2.53 -46.5 0 1 930.63 746.63
  Q 928.22 749.80 924.53 753.03
  Q 870.34 800.45 808.90 837.16
  A 0.78 0.78 0.0 0 0 808.83 838.46
  C 812.58 841.28 816.51 844.10 817.68 848.56
  A 1.43 1.41 56.4 0 1 817.45 849.76
  Q 815.56 852.30 812.85 854.34
  C 775.23 882.74 734.95 908.03 693.24 931.74
  Q 688.77 934.27 685.29 931.34
  C 671.46 919.67 658.17 905.52 647.91 894.65
  Q 637.47 883.62 623.06 865.96
  Q 606.71 845.93 590.79 825.17
  Z
  M 720.98 749.61
  A 0.80 0.80 0.0 0 0 720.79 750.81
  Q 757.03 792.56 797.52 829.89
  C 798.59 830.87 799.92 832.21 801.33 831.34
  C 841.22 806.85 879.49 779.62 915.31 749.06
  Q 916.36 748.16 916.89 747.32
  A 1.41 1.40 -59.3 0 0 916.39 745.35
  L 817.63 689.10
  A 3.10 3.09 -49.6 0 0 814.16 689.38
  Q 796.27 703.76 777.94 715.43
  Q 751.91 731.99 739.94 738.68
  Q 728.70 744.97 720.98 749.61
  Z"
/>
<path fill="#0e1e53" d="
  M 571.98 693.09
  L 568.13 683.87
  L 700.84 683.87
  A 4.96 4.94 87.3 0 1 705.76 688.37
  L 705.78 688.55
  A 4.11 4.11 0.0 0 1 701.69 693.04
  L 571.98 693.09
  Z"
/>
<path fill="#fee4bb" d="
  M 601.03 821.29
  L 602.53 819.42
  Q 613.54 813.64 625.03 807.86
  Q 639.73 800.47 650.18 794.91
  Q 655.26 792.20 657.78 790.55
  C 661.72 787.97 659.29 784.88 656.58 783.06
  Q 637.97 770.58 622.74 757.90
  Q 616.26 752.51 612.13 747.86
  Q 611.74 747.41 611.99 747.06
  L 681.21 720.17
  A 1.75 1.72 -29.9 0 1 683.19 720.69
  Q 710.23 754.25 740.86 786.90
  C 760.95 808.32 782.15 829.08 804.40 846.77
  A 1.72 1.72 0.0 0 1 804.34 849.51
  Q 749.60 889.08 690.70 922.42
  A 1.61 1.60 -38.5 0 1 688.82 922.21
  Q 656.74 892.56 629.37 858.88
  Q 621.82 849.58 601.77 823.48
  Q 600.81 822.23 601.03 821.29
  Z
  M 707.7362 787.5624
  A 4.41 4.41 0.0 0 0 701.7351 785.8642
  L 642.6034 818.9118
  A 4.41 4.41 0.0 0 0 640.9053 824.9129
  L 640.9638 825.0176
  A 4.41 4.41 0.0 0 0 646.9649 826.7158
  L 706.0966 793.6682
  A 4.41 4.41 0.0 0 0 707.7947 787.6671
  L 707.7362 787.5624
  Z
  M 728.0703 812.7879
  A 4.48 4.48 0.0 0 0 721.8970 811.3627
  L 670.4713 843.4970
  A 4.48 4.48 0.0 0 0 669.0461 849.6703
  L 669.1097 849.7721
  A 4.48 4.48 0.0 0 0 675.2830 851.1973
  L 726.7087 819.0630
  A 4.48 4.48 0.0 0 0 728.1339 812.8897
  L 728.0703 812.7879
  Z
  M 690.06 873.03
  Q 689.71 873.93 689.89 874.44
  Q 690.03 874.80 690.44 874.67
  C 694.45 879.98 699.52 875.06 704.20 871.96
  Q 730.08 854.78 750.20 840.91
  Q 752.79 839.13 753.89 837.15
  A 2.27 2.21 -30.2 0 0 754.17 836.15
  Q 754.25 833.47 751.66 832.22
  C 749.35 831.11 747.17 832.35 744.99 833.79
  Q 718.79 851.09 694.98 867.46
  Q 691.04 870.17 690.06 873.03
  Z"
/>
<path fill="#d96626" d="
  M 825.89 879.16
  Q 827.40 875.71 830.54 871.74
  Q 833.14 868.45 833.15 868.43
  Q 833.43 867.42 866.67 826.18
  Q 870.60 821.30 876.04 824.05
  Q 894.76 833.51 924.61 847.62
  Q 926.89 848.70 928.52 850.73
  C 930.20 852.83 928.29 855.74 926.96 857.71
  C 920.32 867.59 910.81 880.37 903.59 890.99
  Q 893.53 905.81 888.97 911.70
  C 887.18 914.01 885.23 915.60 882.11 914.62
  Q 879.34 913.76 877.27 912.53
  C 859.73 902.15 846.25 893.29 830.90 884.60
  Q 828.48 883.23 826.46 881.55
  A 2.05 2.05 0.0 0 1 825.89 879.16
  Z"
/>
<path fill="#d96626" d="
  M 89.25 871.00
  A 1.89 1.89 0.0 0 1 89.79 868.38
  Q 112.76 853.26 133.84 841.08
  Q 140.06 837.48 146.79 833.06
  C 150.83 830.41 154.95 832.60 159.26 834.58
  Q 161.73 835.71 165.75 837.29
  Q 202.18 851.64 212.87 855.88
  Q 216.21 857.21 218.57 858.99
  A 1.66 1.66 0.0 0 1 218.98 861.18
  Q 217.43 863.71 214.87 865.87
  Q 177.88 897.09 168.58 904.82
  Q 165.79 907.13 161.93 909.49
  A 3.79 3.77 -53.4 0 1 159.01 909.93
  Q 155.30 908.96 151.17 907.16
  C 130.65 898.19 117.50 892.25 102.49 882.64
  C 97.50 879.45 92.19 875.44 89.25 871.00
  Z"
/>
<path fill="#0e1e53" d="
  M 497.95 889.30
  A 0.81 0.80 0.7 0 0 497.12 888.46
  Q 487.73 888.64 480.01 883.25
  C 475.99 880.44 472.79 874.81 476.71 870.44
  C 480.04 866.71 483.01 871.83 484.86 874.37
  C 486.36 876.43 489.89 877.77 493.01 878.17
  C 499.64 879.02 505.41 878.94 507.72 885.23
  Q 508.21 886.56 506.72 893.84
  Q 505.48 899.87 505.12 905.48
  A 1.47 1.47 0.0 0 0 506.70 907.04
  Q 507.92 906.94 509.65 906.15
  Q 517.58 902.51 527.03 894.31
  Q 534.74 887.61 543.97 885.72
  C 560.49 882.34 556.02 905.56 553.50 913.77
  Q 553.31 914.38 553.39 914.63
  A 1.18 1.18 0.0 0 0 555.11 915.30
  Q 563.71 910.28 570.79 907.03
  C 577.63 903.89 585.04 902.54 591.97 906.27
  Q 595.08 907.94 595.98 910.42
  C 597.44 914.42 595.16 918.55 590.27 916.69
  Q 586.24 915.16 584.12 914.37
  A 4.59 4.49 53.8 0 0 582.37 914.08
  C 573.06 914.37 566.43 921.46 555.83 925.61
  C 550.58 927.66 545.50 926.50 544.29 920.45
  C 543.09 914.44 544.52 909.80 545.90 901.26
  Q 546.23 899.26 545.94 896.99
  A 1.43 1.43 0.0 0 0 543.98 895.84
  C 530.52 901.28 522.45 914.04 508.27 916.76
  Q 505.68 917.25 502.10 916.13
  C 491.78 912.90 495.38 898.46 497.73 890.74
  Q 497.92 890.09 497.95 889.30
  Z"
/>
</g>
<g>
<path fill="#fee4bb" d="
  M 198.53 507.58
  Q 191.63 506.64 184.93 503.59
  C 181.48 502.02 179.26 496.80 177.42 493.11
  Q 174.08 486.45 167.17 468.87
  Q 162.09 455.97 161.10 444.04
  C 160.98 442.50 162.51 440.13 163.84 439.00
  Q 170.53 433.31 179.64 435.90
  Q 186.63 437.87 196.76 441.00
  Q 199.62 441.89 205.25 441.53
  Q 208.13 441.35 213.48 439.28
  C 224.22 435.13 230.26 431.93 239.86 433.34
  Q 248.27 434.57 254.93 439.24
  C 262.80 444.76 269.52 449.09 278.26 450.73
  Q 282.14 451.46 288.73 452.33
  A 1.40 1.40 0.0 0 1 289.95 453.72
  Q 289.95 454.54 289.76 454.99
  Q 280.41 477.42 264.77 500.50
  C 259.87 507.72 249.80 508.25 241.95 508.43
  A 0.78 0.78 0.0 0 1 241.17 507.48
  Q 243.43 497.41 246.45 482.98
  C 246.80 481.30 247.58 477.33 246.12 475.68
  C 244.15 473.45 240.20 472.99 238.42 475.76
  Q 237.36 477.41 237.04 478.81
  Q 233.57 494.48 230.09 507.32
  A 2.32 2.31 7.5 0 1 227.85 509.03
  L 213.14 509.03
  A 2.07 2.06 -7.2 0 1 211.14 507.49
  Q 207.52 493.34 204.89 479.34
  C 204.43 476.91 202.57 471.38 199.38 471.78
  C 193.92 472.47 194.49 478.23 195.13 482.95
  Q 195.17 483.26 199.63 506.42
  A 0.98 0.98 0.0 0 1 198.53 507.58
  Z"
/>
<rect fill="#0e1e53" x="-30.24" y="-3.86" transform="translate(794.93,536.09) rotate(21.1)" width="60.48" height="7.72" rx="3.80"/>
<path fill="#fee4bb" d="
  M 251.53 803.03
  C 250.38 803.51 247.41 803.08 245.81 803.22
  Q 234.32 804.24 220.49 804.66
  Q 188.67 805.63 160.20 798.76
  Q 144.26 794.92 126.97 785.32
  Q 115.93 779.20 105.15 767.87
  C 77.18 738.46 73.73 693.40 81.82 655.62
  Q 86.66 633.02 98.58 612.11
  C 116.53 580.59 143.49 555.25 174.24 536.74
  Q 177.13 535.00 178.86 535.56
  C 184.23 537.34 187.84 538.49 192.92 539.33
  Q 220.39 543.83 248.26 539.78
  Q 257.90 538.38 266.26 535.49
  A 2.04 2.02 51.0 0 1 267.98 535.68
  C 289.78 549.09 310.95 564.60 327.81 582.46
  Q 344.89 600.53 354.49 618.57
  C 366.95 642.00 374.62 668.96 372.80 695.47
  Q 371.65 712.16 365.99 729.74
  Q 365.34 731.77 364.72 733.00
  A 1.72 1.72 0.0 0 1 362.79 733.90
  Q 339.52 728.57 316.39 734.15
  C 305.06 736.89 294.01 743.00 284.59 750.29
  C 269.15 762.24 258.29 778.42 253.64 797.44
  Q 253.29 798.90 252.20 802.30
  A 1.17 1.15 -3.0 0 1 251.53 803.03
  Z
  M 213.18 756.44
  Q 212.98 758.13 214.23 758.07
  Q 214.87 758.04 216.57 756.81
  Q 225.08 755.87 225.07 747.00
  Q 225.07 740.01 225.20 737.80
  A 0.72 0.72 0.0 0 1 225.85 737.12
  Q 232.41 736.51 239.01 734.80
  C 261.44 728.97 273.30 710.19 269.59 687.19
  C 267.27 672.78 254.79 661.36 241.35 657.07
  Q 233.04 654.42 227.62 653.88
  A 0.61 0.60 3.2 0 1 227.08 653.28
  L 227.08 613.54
  A 0.94 0.93 3.8 0 1 228.14 612.62
  C 235.78 613.64 240.95 617.27 246.19 622.74
  C 249.25 625.94 252.65 627.49 256.53 625.77
  C 265.29 621.89 264.06 612.50 258.63 606.33
  Q 246.57 592.65 228.09 591.92
  A 1.02 1.02 0.0 0 1 227.11 590.91
  C 227.06 586.45 227.14 582.21 224.13 578.66
  Q 222.05 576.21 219.59 576.07
  C 210.77 575.59 210.92 586.10 211.00 592.21
  A 1.64 1.63 -4.0 0 1 209.58 593.84
  C 205.12 594.44 199.61 595.27 195.47 597.17
  Q 178.53 604.91 173.81 622.51
  C 170.30 635.58 173.40 652.64 184.97 661.53
  Q 196.01 670.02 209.47 672.01
  A 1.22 1.21 4.4 0 1 210.50 673.21
  L 210.50 713.04
  A 0.80 0.80 0.0 0 1 209.60 713.83
  C 199.94 712.60 194.65 707.58 187.89 699.76
  C 184.26 695.57 181.32 692.93 176.19 694.24
  C 168.15 696.29 166.73 705.42 170.03 712.12
  Q 173.75 719.69 178.67 723.65
  C 182.91 727.06 185.24 729.39 189.10 731.29
  Q 198.74 736.03 209.04 737.20
  A 1.47 1.46 -86.1 0 1 210.34 738.69
  Q 210.16 745.50 210.81 751.91
  Q 210.97 753.51 213.18 756.44
  Z"
/>
<path fill="#0e1e53" d="
  M 773.62 567.70
  Q 784.72 572.93 795.88 578.75
  Q 798.30 580.01 800.05 581.98
  Q 801.44 583.55 800.63 585.57
  Q 799.19 589.19 795.45 587.26
  Q 782.87 580.76 770.27 574.83
  Q 757.66 568.90 744.64 563.35
  Q 740.77 561.70 742.64 558.28
  Q 743.68 556.37 745.77 556.44
  Q 748.41 556.53 750.92 557.59
  Q 762.52 562.48 773.62 567.70
  Z"
/>
<rect fill="#0e1e53" x="-34.40" y="-3.89" transform="translate(744.33,606.93) rotate(31.7)" width="68.80" height="7.78" rx="3.84"/>
<path fill="#fee4bb" d="
  M 720.98 749.61
  Q 728.70 744.97 739.94 738.68
  Q 751.91 731.99 777.94 715.43
  Q 796.27 703.76 814.16 689.38
  A 3.10 3.09 -49.6 0 1 817.63 689.10
  L 916.39 745.35
  A 1.41 1.40 -59.3 0 1 916.89 747.32
  Q 916.36 748.16 915.31 749.06
  C 879.49 779.62 841.22 806.85 801.33 831.34
  C 799.92 832.21 798.59 830.87 797.52 829.89
  Q 757.03 792.56 720.79 750.81
  A 0.80 0.80 0.0 0 1 720.98 749.61
  Z
  M 867.9768 750.6998
  A 4.32 4.32 0.0 0 0 866.5091 744.7693
  L 820.9557 717.2898
  A 4.32 4.32 0.0 0 0 815.0252 718.7574
  L 814.9632 718.8602
  A 4.32 4.32 0.0 0 0 816.4309 724.7907
  L 861.9843 752.2702
  A 4.32 4.32 0.0 0 0 867.9148 750.8026
  L 867.9768 750.6998
  Z
  M 841.1990 767.6370
  A 4.46 4.46 0.0 0 0 840.0388 761.4372
  L 795.6311 731.0307
  A 4.46 4.46 0.0 0 0 789.4314 732.1910
  L 789.3410 732.3230
  A 4.46 4.46 0.0 0 0 790.5012 738.5228
  L 834.9089 768.9293
  A 4.46 4.46 0.0 0 0 841.1086 767.7690
  L 841.1990 767.6370
  Z
  M 813.5196 788.2070
  A 4.42 4.42 0.0 0 0 812.6281 782.0201
  L 772.1911 751.7694
  A 4.42 4.42 0.0 0 0 766.0042 752.6609
  L 765.9204 752.7730
  A 4.42 4.42 0.0 0 0 766.8119 758.9599
  L 807.2489 789.2106
  A 4.42 4.42 0.0 0 0 813.4358 788.3191
  L 813.5196 788.2070
  Z"
/>
<rect fill="#0e1e53" x="-33.98" y="-3.86" transform="translate(511.81,714.05) rotate(-14.7)" width="67.96" height="7.72" rx="3.80"/>
<rect fill="#0e1e53" x="-34.07" y="-3.81" transform="translate(529.64,749.84) rotate(-19.2)" width="68.14" height="7.62" rx="3.67"/>
<rect fill="#0e1e53" x="-30.70" y="-3.86" transform="translate(554.65,782.52) rotate(-25.9)" width="61.40" height="7.72" rx="3.81"/>
<rect fill="#0e1e53" x="-38.28" y="-4.47" transform="translate(674.35,806.29) rotate(-29.2)" width="76.56" height="8.94" rx="4.41"/>
<rect fill="#0e1e53" x="-34.80" y="-4.54" transform="translate(698.59,831.28) rotate(-32.0)" width="69.60" height="9.08" rx="4.48"/>
<path fill="#0e1e53" d="
  M 690.44 874.67
  Q 690.71 873.97 690.06 873.03
  Q 691.04 870.17 694.98 867.46
  Q 718.79 851.09 744.99 833.79
  C 747.17 832.35 749.35 831.11 751.66 832.22
  Q 754.25 833.47 754.17 836.15
  A 2.27 2.21 -30.2 0 1 753.89 837.15
  Q 752.79 839.13 750.20 840.91
  Q 730.08 854.78 704.20 871.96
  C 699.52 875.06 694.45 879.98 690.44 874.67
  Z"
/>
</g>
<g>
<rect fill="#d96626" x="-20.91" y="-5.33" transform="translate(506.08,115.28) rotate(0.3)" width="41.82" height="10.66" rx="5.17"/>
<rect fill="#d96626" x="-25.51" y="-5.18" transform="translate(505.37,149.83) rotate(-12.0)" width="51.02" height="10.36" rx="5.07"/>
<path fill="#0e1e53" d="
  M 690.79 193.61
  A 1.23 1.23 0.0 0 0 691.39 195.25
  C 699.97 199.23 706.73 208.19 703.01 217.99
  C 698.50 229.88 686.65 235.43 674.52 233.66
  A 1.60 1.59 23.0 0 0 673.02 234.26
  Q 672.14 235.39 671.41 236.55
  C 669.46 239.65 666.44 239.05 663.76 236.83
  A 2.40 2.39 -58.6 0 1 663.09 234.04
  L 663.99 231.94
  A 2.08 2.07 29.3 0 0 663.28 229.43
  Q 655.50 223.92 652.09 214.66
  C 650.97 211.63 650.77 206.37 654.93 206.12
  C 657.41 205.97 658.89 207.37 659.94 209.75
  C 662.12 214.69 663.45 218.00 666.31 221.10
  A 1.33 1.32 35.2 0 0 668.50 220.73
  L 677.06 200.84
  A 1.20 1.19 25.9 0 0 676.53 199.32
  C 668.72 195.13 664.77 189.50 667.33 180.26
  C 670.00 170.65 682.17 165.31 691.35 165.71
  A 2.33 2.33 0.0 0 0 693.59 164.31
  C 694.59 162.01 698.13 155.29 701.73 157.71
  C 704.85 159.81 703.00 163.53 702.38 166.21
  A 1.01 1.00 -71.9 0 0 702.96 167.36
  Q 706.16 168.73 708.31 169.94
  C 713.25 172.72 716.96 178.30 714.11 183.71
  C 712.67 186.44 707.66 188.00 706.57 184.06
  Q 704.98 178.33 700.83 175.78
  A 1.41 1.40 -61.7 0 0 698.81 176.39
  L 690.79 193.61
  Z
  M 688.51 174.97
  Q 687.99 174.68 687.23 174.94
  C 683.64 176.16 679.67 177.50 677.48 180.44
  Q 673.81 185.36 679.71 190.79
  A 1.65 1.64 -47.0 0 0 682.02 190.70
  L 682.06 190.66
  A 1.47 1.28 81.7 0 0 682.33 190.24
  L 688.79 175.80
  A 0.65 0.65 0.0 0 0 688.51 174.97
  Z
  M 677.23 223.49
  A 1.12 1.11 -71.2 0 0 677.99 225.05
  C 683.80 226.36 689.77 222.42 693.18 217.93
  C 697.29 212.50 693.38 206.68 688.33 203.93
  A 1.71 1.70 -63.2 0 0 685.97 204.71
  L 677.23 223.49
  Z"
/>
<path fill="#d96626" d="
  M 495.45 188.85
  A 1.72 1.70 54.1 0 1 495.72 187.12
  Q 497.09 185.46 499.45 184.66
  Q 512.67 180.13 533.42 172.67
  Q 537.76 171.11 540.56 174.13
  C 544.54 178.42 540.22 181.19 536.18 182.67
  Q 522.56 187.63 509.81 191.87
  Q 502.61 194.26 501.50 194.21
  Q 497.53 194.05 495.45 188.85
  Z"
/>
<path fill="#0e1e53" d="
  M 162.29 311.83
  A 1.35 1.34 36.1 0 0 164.30 311.52
  L 173.16 297.20
  A 1.59 1.57 -54.0 0 0 172.85 295.18
  C 167.88 290.89 164.12 286.79 163.87 279.97
  C 163.40 267.26 176.36 258.81 188.31 263.70
  Q 189.84 264.33 191.29 264.83
  A 2.16 2.15 -55.6 0 0 193.39 264.43
  C 195.79 262.38 198.91 258.97 201.63 262.40
  C 203.80 265.15 201.55 267.03 202.27 269.73
  A 1.63 1.62 -78.5 0 0 202.85 270.61
  Q 211.19 277.13 210.91 288.05
  A 5.25 5.25 0.0 0 1 207.05 292.98
  L 206.87 293.03
  A 3.09 3.09 0.0 0 1 202.98 290.22
  Q 202.62 283.36 197.93 277.77
  A 0.97 0.96 -49.3 0 0 196.37 277.89
  L 185.69 295.17
  A 1.39 1.38 33.9 0 0 186.06 297.03
  C 193.78 302.58 201.01 312.17 194.22 321.57
  Q 192.39 324.11 188.41 325.86
  C 180.59 329.30 174.44 328.34 166.65 325.74
  A 3.58 3.56 41.4 0 0 164.00 325.90
  L 161.55 327.04
  A 1.05 1.05 0.0 0 1 161.15 327.14
  Q 157.15 327.29 155.78 324.34
  A 1.60 1.59 43.9 0 1 155.75 323.03
  L 156.95 320.25
  A 2.31 2.29 -56.6 0 0 156.43 317.68
  Q 151.05 312.55 148.58 304.90
  Q 146.51 298.48 150.99 293.02
  C 152.60 291.07 155.43 291.92 156.54 293.70
  Q 157.03 294.50 157.15 297.38
  C 157.41 303.84 157.82 308.02 162.29 311.83
  Z
  M 179.97 287.66
  L 187.89 274.80
  A 1.19 1.19 0.0 0 0 187.50 273.16
  L 187.38 273.09
  A 10.27 8.64 31.6 0 0 174.10 275.07
  L 174.00 275.24
  A 10.27 8.64 31.6 0 0 178.22 287.98
  L 178.34 288.05
  A 1.19 1.19 0.0 0 0 179.97 287.66
  Z
  M 172.04 318.28
  Q 176.44 319.52 180.38 318.86
  C 185.60 317.99 189.69 314.06 186.28 308.74
  A 3.23 3.16 -84.2 0 0 185.84 308.19
  L 181.18 303.66
  A 0.85 0.85 0.0 0 0 179.89 303.79
  L 171.31 316.27
  A 1.32 1.31 -65.0 0 0 172.04 318.28
  Z"
/>
<path fill="#0e1e53" d="
  M 216.57 756.81
  Q 214.30 755.31 213.18 756.44
  Q 210.97 753.51 210.81 751.91
  Q 210.16 745.50 210.34 738.69
  A 1.47 1.46 -86.1 0 0 209.04 737.20
  Q 198.74 736.03 189.10 731.29
  C 185.24 729.39 182.91 727.06 178.67 723.65
  Q 173.75 719.69 170.03 712.12
  C 166.73 705.42 168.15 696.29 176.19 694.24
  C 181.32 692.93 184.26 695.57 187.89 699.76
  C 194.65 707.58 199.94 712.60 209.60 713.83
  A 0.80 0.80 0.0 0 0 210.50 713.04
  L 210.50 673.21
  A 1.22 1.21 4.4 0 0 209.47 672.01
  Q 196.01 670.02 184.97 661.53
  C 173.40 652.64 170.30 635.58 173.81 622.51
  Q 178.53 604.91 195.47 597.17
  C 199.61 595.27 205.12 594.44 209.58 593.84
  A 1.64 1.63 -4.0 0 0 211.00 592.21
  C 210.92 586.10 210.77 575.59 219.59 576.07
  Q 222.05 576.21 224.13 578.66
  C 227.14 582.21 227.06 586.45 227.11 590.91
  A 1.02 1.02 0.0 0 0 228.09 591.92
  Q 246.57 592.65 258.63 606.33
  C 264.06 612.50 265.29 621.89 256.53 625.77
  C 252.65 627.49 249.25 625.94 246.19 622.74
  C 240.95 617.27 235.78 613.64 228.14 612.62
  A 0.94 0.93 3.8 0 0 227.08 613.54
  L 227.08 653.28
  A 0.61 0.60 3.2 0 0 227.62 653.88
  Q 233.04 654.42 241.35 657.07
  C 254.79 661.36 267.27 672.78 269.59 687.19
  C 273.30 710.19 261.44 728.97 239.01 734.80
  Q 232.41 736.51 225.85 737.12
  A 0.72 0.72 0.0 0 0 225.20 737.80
  Q 225.07 740.01 225.07 747.00
  Q 225.08 755.87 216.57 756.81
  Z
  M 210.89 649.20
  L 211.25 614.80
  A 0.11 0.11 0.0 0 0 211.14 614.69
  L 211.02 614.69
  A 17.28 17.01 -89.4 0 0 193.83 631.79
  L 193.83 631.85
  A 17.28 17.01 -89.4 0 0 210.66 649.31
  L 210.78 649.31
  A 0.11 0.11 0.0 0 0 210.89 649.20
  Z
  M 226.04 676.87
  L 225.84 714.86
  A 0.87 0.87 0.0 0 0 226.71 715.74
  L 226.87 715.74
  A 19.97 19.84 0.3 0 0 246.94 696.00
  L 246.94 695.94
  A 19.97 19.84 0.3 0 0 227.07 676.00
  L 226.91 676.00
  A 0.87 0.87 0.0 0 0 226.04 676.87
  Z"
/>
<rect fill="#0e1e53" x="-30.92" y="-4.38" transform="translate(841.47,734.78) rotate(31.1)" width="61.84" height="8.76" rx="4.32"/>
<rect fill="#0e1e53" x="-31.37" y="-4.54" transform="translate(815.27,749.98) rotate(34.4)" width="62.74" height="9.08" rx="4.46"/>
<rect fill="#0e1e53" x="-29.67" y="-4.49" transform="translate(789.72,770.49) rotate(36.8)" width="59.34" height="8.98" rx="4.42"/>
<path fill="#0e1e53" d="
  M 362.48 822.09
  C 370.46 821.69 376.74 821.12 382.67 823.19
  C 397.40 828.33 403.76 842.90 399.09 857.34
  C 396.11 866.55 385.96 873.06 376.58 874.68
  A 1.49 1.49 0.0 0 0 375.38 876.50
  L 376.53 881.40
  A 1.02 0.98 -43.9 0 1 376.51 881.92
  C 375.50 885.02 371.88 887.61 368.69 885.51
  Q 365.03 883.11 364.84 878.50
  A 1.53 1.53 0.0 0 0 363.15 877.03
  Q 343.42 878.97 327.65 867.08
  C 324.17 864.47 321.38 860.62 325.03 856.80
  Q 328.13 853.55 331.80 855.90
  Q 335.86 858.51 339.52 860.58
  Q 348.64 865.73 359.77 866.03
  A 1.29 1.28 84.1 0 0 361.05 864.45
  L 354.22 835.42
  A 1.40 1.40 0.0 0 0 352.46 834.40
  Q 346.95 836.07 340.29 836.07
  C 328.42 836.09 317.78 831.46 312.48 820.52
  C 307.63 810.50 311.03 797.80 318.61 790.45
  C 322.72 786.48 328.88 782.52 335.00 781.10
  Q 339.41 780.08 340.06 779.89
  A 1.29 1.29 0.0 0 0 340.92 778.32
  C 340.16 775.57 339.51 773.00 341.45 770.47
  C 344.42 766.57 348.94 768.21 350.61 772.16
  Q 351.55 774.39 352.35 777.56
  A 1.46 1.46 0.0 0 0 353.83 778.66
  Q 368.47 778.01 380.49 787.05
  C 383.84 789.57 385.72 792.63 382.63 796.17
  Q 379.76 799.45 375.11 796.57
  C 367.51 791.88 363.14 789.56 355.37 789.68
  A 1.06 1.06 0.0 0 0 354.36 790.99
  L 361.50 821.36
  A 0.96 0.96 0.0 0 0 362.48 822.09
  Z
  M 351.02 822.32
  L 343.77 791.40
  A 0.92 0.92 0.0 0 0 342.66 790.72
  L 341.70 790.94
  A 22.67 16.05 -13.2 0 0 323.29 811.75
  L 323.64 813.21
  A 22.67 16.05 -13.2 0 0 349.37 823.66
  L 350.34 823.43
  A 0.92 0.92 0.0 0 0 351.02 822.32
  Z
  M 365.35 834.91
  L 372.21 863.25
  A 0.99 0.99 0.0 0 0 373.40 863.98
  L 373.58 863.94
  A 18.73 15.54 -13.6 0 0 388.13 844.43
  L 388.11 844.37
  A 18.73 15.54 -13.6 0 0 366.26 833.67
  L 366.08 833.71
  A 0.99 0.99 0.0 0 0 365.35 834.91
  Z"
/>
</g>
<g>
<path fill="#fee4bb" d="
  M 210.89 649.20
  A 0.11 0.11 0.0 0 1 210.78 649.31
  L 210.66 649.31
  A 17.28 17.01 -89.4 0 1 193.83 631.85
  L 193.83 631.79
  A 17.28 17.01 -89.4 0 1 211.02 614.69
  L 211.14 614.69
  A 0.11 0.11 0.0 0 1 211.25 614.80
  L 210.89 649.20
  Z"
/>
<path fill="#fee4bb" d="
  M 226.04 676.87
  A 0.87 0.87 0.0 0 1 226.91 676.00
  L 227.07 676.00
  A 19.97 19.84 0.3 0 1 246.94 695.94
  L 246.94 696.00
  A 19.97 19.84 0.3 0 1 226.87 715.74
  L 226.71 715.74
  A 0.87 0.87 0.0 0 1 225.84 714.86
  L 226.04 676.87
  Z"
/>
</g>
</svg>
