<?xml version="1.0" encoding="UTF-8" standalone="no"?>
<!DOCTYPE svg PUBLIC "-//W3C//DTD SVG 1.0//EN" "http://www.w3.org/TR/2001/REC-SVG-20010904/DTD/svg10.dtd">
<svg xmlns="http://www.w3.org/2000/svg" version="1.0" viewBox="0.00 0.00 1024.00 1024.00">
<g stroke-width="2.00" fill="none" stroke-linecap="butt">
<path stroke="#713339" d="
  M 585.70 218.20
  Q 583.99 218.24 583.42 218.91
  Q 579.60 223.46 575.78 228.00
  Q 566.68 238.83 561.02 251.55"
/>
<path stroke="#713339" d="
  M 464.62 249.65
  Q 464.30 249.05 464.11 248.03
  Q 461.31 233.24 457.32 218.73
  Q 456.77 216.72 455.61 215.93"
/>
<path stroke="#713339" d="
  M 690.00 250.03
  Q 682.80 260.59 678.57 272.36
  Q 677.65 274.94 676.12 285.50
  Q 676.06 285.89 675.54 286.12"
/>
<path stroke="#713339" d="
  M 794.47 318.43
  Q 793.93 318.74 793.64 319.13
  Q 788.45 326.01 786.76 328.49
  Q 785.58 330.21 785.64 332.27
  Q 786.06 349.08 785.07 363.50
  Q 785.02 364.29 785.59 364.93"
/>
<path stroke="#713339" d="
  M 302.44 265.03
  Q 303.92 266.14 305.56 267.03
  Q 313.35 271.30 315.67 279.43
  Q 318.28 288.56 312.33 296.71
  A 1.27 1.26 61.4 0 0 312.09 297.54
  Q 312.18 299.00 314.06 300.12"
/>
<path stroke="#713339" d="
  M 215.27 397.48
  Q 197.92 396.20 181.75 394.64
  Q 178.55 394.33 170.69 396.60"
/>
<path stroke="#713339" d="
  M 780.03 720.88
  Q 780.52 720.24 780.22 719.30
  Q 773.44 697.83 769.08 678.44
  Q 768.82 677.31 768.15 676.74"
/>
<path stroke="#713339" d="
  M 175.47 539.99
  Q 174.43 540.06 173.93 539.90
  Q 155.69 534.00 137.47 528.09
  Q 137.04 527.95 136.07 526.99"
/>
<path stroke="#713339" d="
  M 690.77 738.57
  Q 690.18 739.35 690.18 740.75
  Q 690.14 756.62 690.00 772.50
  Q 689.96 776.82 689.93 781.30"
/>
<path stroke="#713339" d="
  M 301.26 778.58
  Q 302.14 756.59 301.58 734.84"
/>
<path stroke="#713339" d="
  M 210.32 652.32
  Q 209.03 653.58 208.40 654.93
  Q 200.02 673.02 192.01 691.29
  Q 191.86 691.65 191.73 693.12"
/>
<path stroke="#713339" d="
  M 883.09 510.96
  L 883.03 511.78
  A 4.49 4.48 60.9 0 1 882.54 513.50
  Q 877.49 523.21 878.10 534.41
  A 2.38 2.38 0.0 0 1 876.36 536.84
  L 871.30 538.26
  A 0.96 0.96 0.0 0 1 870.15 537.69
  Q 864.24 523.22 848.47 519.45
  Q 847.12 519.13 842.27 519.11
  Q 841.97 519.10 841.75 518.96
  Q 841.46 518.76 841.37 518.55"
/>
<path stroke="#713339" d="
  M 849.56 385.91
  Q 833.26 385.97 815.49 386.12
  Q 809.35 386.18 807.22 381.99
  Q 806.08 379.75 806.16 372.35
  Q 806.41 350.68 806.34 329.27"
/>
<path stroke="#7b6f84" d="
  M 539.41 196.57
  L 526.17 260.82
  A 0.64 0.63 6.3 0 0 526.79 261.58
  Q 534.09 261.59 541.14 260.17
  Q 544.76 259.44 546.27 256.03
  Q 546.44 255.65 551.43 245.55
  C 558.13 231.97 567.68 219.64 577.74 208.51
  C 593.34 191.26 605.13 173.24 607.78 149.94
  Q 609.65 133.52 604.20 118.55
  Q 598.55 103.06 587.42 91.65
  Q 565.27 68.94 532.89 67.15
  C 483.90 64.46 443.85 105.23 449.13 154.28
  Q 450.71 168.99 455.91 182.34
  Q 462.08 198.19 464.14 203.86
  C 469.10 217.57 472.24 232.16 475.00 246.75
  Q 475.75 250.70 479.35 252.10
  Q 487.35 255.21 495.51 257.10
  A 0.47 0.47 0.0 0 0 496.08 256.73
  L 507.36 196.32
  A 0.95 0.95 0.0 0 0 506.52 195.20
  Q 489.05 193.48 482.83 178.39
  C 480.36 172.41 480.62 166.01 484.17 160.95
  Q 491.30 150.76 503.38 154.76
  C 506.06 155.65 509.68 158.80 511.13 160.96
  Q 518.04 171.20 517.93 184.33
  A 1.45 1.44 -89.2 0 0 519.34 185.79
  L 531.43 186.01
  A 1.24 1.24 0.0 0 0 532.64 185.09
  C 535.42 174.49 539.53 163.56 547.50 157.25
  C 554.75 151.49 565.65 152.39 570.72 160.55
  C 576.22 169.38 572.89 179.51 565.86 186.39
  C 559.04 193.05 549.89 195.27 540.19 195.89
  A 0.85 0.85 0.0 0 0 539.41 196.57"
/>
<path stroke="#7b6f84" d="
  M 544.82 184.20
  Q 550.28 183.35 554.51 181.04
  C 559.10 178.54 563.62 173.12 561.91 167.56
  C 560.27 162.22 553.85 165.16 551.63 168.00
  Q 546.39 174.73 544.30 183.64
  A 0.46 0.46 0.0 0 0 544.82 184.20"
/>
<path stroke="#7b6f84" d="
  M 508.06 184.30
  C 506.92 177.68 505.06 164.07 495.62 164.81
  A 2.71 2.70 10.3 0 0 493.37 166.36
  Q 491.18 171.10 494.19 176.09
  Q 498.65 183.47 507.60 184.77
  A 0.41 0.41 0.0 0 0 508.06 184.30"
/>
<path stroke="#7b6f84" d="
  M 515.79 260.54
  A 0.34 0.34 0.0 0 0 516.16 260.27
  L 529.08 197.58
  A 0.34 0.34 0.0 0 0 528.75 197.17
  L 517.72 196.98
  A 0.34 0.34 0.0 0 0 517.38 197.25
  L 505.88 258.85
  A 0.34 0.34 0.0 0 0 506.16 259.25
  L 515.79 260.54"
/>
<path stroke="#293c70" d="
  M 538.06 272.68
  C 535.42 272.17 530.26 272.78 526.67 272.46
  Q 511.05 271.08 496.83 267.99
  C 489.35 266.37 483.91 264.35 475.89 261.84
  Q 474.95 261.54 473.83 261.69
  A 1.11 1.09 -89.3 0 0 472.88 262.63
  L 471.00 276.69
  A 0.99 0.97 -75.5 0 0 471.60 277.73
  Q 495.96 287.60 522.38 288.60
  Q 527.81 288.81 533.52 288.31
  A 2.99 2.99 0.0 0 0 536.11 286.25
  Q 538.14 280.02 538.67 273.48
  A 0.76 0.75 8.1 0 0 538.06 272.68"
/>
<path stroke="#293c70" d="
  M 531.59 297.45
  Q 530.97 297.26 530.01 297.34
  Q 521.56 298.06 513.78 297.47
  Q 492.96 295.87 472.29 288.72
  A 1.12 1.12 0.0 0 0 470.81 289.68
  C 470.52 293.11 470.95 301.10 474.48 303.03
  Q 495.03 314.28 518.43 310.93
  Q 529.99 309.28 531.95 298.05
  A 0.54 0.53 -76.3 0 0 531.59 297.45"
/>
<path stroke="#7b6f84" d="
  M 918.23 376.59
  A 1.17 1.17 0.0 0 0 919.39 375.45
  L 922.44 207.71
  A 1.17 1.17 0.0 0 0 921.28 206.52
  L 877.77 206.27
  A 1.17 1.17 0.0 0 0 876.59 207.43
  L 875.61 375.59
  A 1.17 1.17 0.0 0 0 876.78 376.77
  L 918.23 376.59"
/>
<path stroke="#8180a8" d="
  M 183.64 385.53
  Q 197.69 386.35 212.37 387.45
  Q 221.02 388.09 227.14 388.16
  C 239.15 388.29 251.66 389.45 262.57 388.96
  Q 277.46 388.29 283.21 387.90
  C 290.35 387.41 299.39 386.83 304.07 381.13
  C 306.38 378.32 306.79 374.98 303.76 372.70
  C 301.34 370.90 291.82 371.84 287.68 372.25
  Q 275.41 373.47 266.52 372.79
  Q 261.86 372.44 261.17 368.36
  C 260.35 363.47 264.31 361.99 268.27 362.05
  C 279.81 362.21 290.20 362.98 300.24 359.71
  C 305.99 357.84 310.50 351.02 307.65 344.99
  Q 304.89 339.13 298.02 339.59
  Q 288.72 340.21 279.00 340.88
  Q 270.65 341.44 264.66 340.84
  C 258.76 340.25 258.23 331.48 264.76 330.98
  C 267.85 330.74 273.36 330.16 277.42 330.18
  C 286.22 330.22 292.73 329.99 300.73 327.70
  Q 306.39 326.08 308.67 320.82
  C 309.64 318.60 310.44 316.59 309.74 314.47
  Q 306.57 304.90 295.74 306.48
  Q 288.34 307.56 271.33 308.88
  C 266.68 309.24 260.53 309.30 259.26 304.10
  C 258.18 299.68 261.99 297.58 265.78 297.49
  Q 279.65 297.18 284.62 296.82
  C 292.92 296.22 302.14 295.32 304.97 287.26
  C 308.29 277.80 297.02 274.79 290.00 275.31
  Q 270.21 276.76 249.22 279.63
  C 240.45 280.83 233.74 279.61 236.52 268.78
  C 239.47 257.33 241.72 245.93 241.40 233.96
  Q 241.15 224.77 236.06 217.92
  C 233.41 214.35 229.76 211.84 225.14 213.48
  C 223.12 214.20 222.36 216.08 221.93 217.96
  C 220.43 224.46 220.23 232.17 218.60 238.94
  Q 216.43 247.99 215.62 250.64
  C 210.76 266.46 200.93 285.12 183.29 289.09
  A 1.52 1.52 0.0 0 0 182.10 290.59
  L 183.07 384.94
  A 0.60 0.60 0.0 0 0 183.64 385.53"
/>
<path stroke="#293c70" d="
  M 171.8884 290.3166
  A 1.80 1.80 0.0 0 0 170.0759 288.5293
  L 132.2768 288.7931
  A 1.80 1.80 0.0 0 0 130.4894 290.6057
  L 131.1516 385.4634
  A 1.80 1.80 0.0 0 0 132.9641 387.2507
  L 170.7632 386.9869
  A 1.80 1.80 0.0 0 0 172.5506 385.1743
  L 171.8884 290.3166"
/>
<path stroke="#8180a8" d="
  M 711.7253 338.7568
  A 56.33 52.26 118.6 0 0 784.5734 314.3164
  A 56.33 52.26 118.6 0 0 765.6547 239.8432
  A 56.33 52.26 118.6 0 0 692.8066 264.2836
  A 56.33 52.26 118.6 0 0 711.7253 338.7568"
/>
<path stroke="#7b6f84" d="
  M 775.22 339.50
  Q 774.83 339.64 774.71 339.74
  Q 762.59 349.86 748.39 353.07
  A 1.47 1.47 0.0 0 0 747.24 354.52
  Q 747.32 367.46 747.20 375.50
  Q 747.16 377.89 749.43 377.89
  Q 755.24 377.90 769.00 377.82
  Q 773.08 377.80 774.67 377.26
  A 1.86 1.86 0.0 0 0 775.92 375.52
  L 776.13 340.15
  A 0.69 0.68 80.4 0 0 775.22 339.50"
/>
<path stroke="#8180a8" d="
  M 702.10 363.00
  A 0.79 0.79 0.0 0 0 703.21 362.65
  L 709.87 348.37
  A 0.79 0.79 0.0 0 0 709.49 347.32
  L 703.34 344.45
  A 0.79 0.79 0.0 0 0 702.35 344.72
  L 693.88 357.28
  A 0.79 0.79 0.0 0 0 694.14 358.40
  L 702.10 363.00"
/>
<path stroke="#8180a8" d="
  M 695.36 371.23
  L 690.35 368.01
  A 2.83 2.83 0.0 0 0 686.43 368.85
  L 672.70 390.17
  A 21.99 4.91 -57.2 0 0 664.91 411.31
  L 666.43 412.29
  A 21.99 4.91 -57.2 0 0 682.46 396.46
  L 696.20 375.15
  A 2.83 2.83 0.0 0 0 695.36 371.23"
/>
<path stroke="#8180a8" d="
  M 719.5534 332.8089
  A 47.60 44.15 113.6 0 0 779.0674 306.8654
  A 47.60 44.15 113.6 0 0 757.6666 245.5711
  A 47.60 44.15 113.6 0 0 698.1526 271.5146
  A 47.60 44.15 113.6 0 0 719.5534 332.8089"
/>
<path stroke="#7b6f84" d="
  M 724.1707 324.8419
  A 38.22 34.90 112.1 0 0 770.8858 302.5602
  A 38.22 34.90 112.1 0 0 752.9293 254.0181
  A 38.22 34.90 112.1 0 0 706.2142 276.2998
  A 38.22 34.90 112.1 0 0 724.1707 324.8419"
/>
<path stroke="#e9a16c" d="
  M 760.83 275.45
  C 755.71 272.62 754.13 279.56 754.05 282.95
  Q 753.93 288.37 752.68 294.47
  Q 751.75 299.02 748.95 302.46
  A 3.79 3.46 -0.5 0 1 748.23 303.13
  Q 744.18 305.92 743.61 306.57
  C 740.94 309.59 741.93 313.27 745.97 313.91
  C 753.70 315.13 760.36 305.42 762.49 299.27
  C 765.05 291.90 765.62 286.15 763.35 278.54
  Q 762.74 276.50 760.83 275.45"
/>
<path stroke="#713339" d="
  M 849.49 269.16
  A 2.07 2.07 0.0 0 0 847.42 267.09
  L 817.62 267.09
  A 2.07 2.07 0.0 0 0 815.55 269.16
  L 815.55 375.24
  A 2.07 2.07 0.0 0 0 817.62 377.31
  L 847.42 377.31
  A 2.07 2.07 0.0 0 0 849.49 375.24
  L 849.49 269.16"
/>
<path stroke="#8180a8" d="
  M 887.91 533.28
  Q 890.42 532.25 896.10 531.02
  C 900.85 530.00 908.98 527.42 913.38 526.38
  Q 915.55 525.86 918.06 526.06
  A 0.56 0.55 88.7 0 0 918.65 525.44
  Q 917.60 516.83 911.32 512.72
  C 905.82 509.12 898.47 510.02 893.75 514.20
  C 888.30 519.02 888.00 525.74 887.45 532.94
  A 0.34 0.33 80.9 0 0 887.91 533.28"
/>
<path stroke="#8180a8" d="
  M 841.05 528.45
  Q 838.34 528.77 834.74 530.77
  Q 828.81 534.05 828.60 540.46
  Q 828.46 544.76 829.01 548.66
  A 0.92 0.92 0.0 0 0 830.17 549.43
  L 841.76 546.23"
/>
<path stroke="#713339" d="
  M 841.76 546.23
  L 860.21 541.10
  A 1.21 1.21 0.0 0 0 860.98 539.41
  C 859.32 535.99 855.31 532.72 852.31 530.71
  Q 847.19 527.27 841.05 528.45"
/>
<path stroke="#efb290" d="
  M 841.76 546.23
  L 842.25 528.98
  A 0.48 0.48 0.0 0 0 841.79 528.49
  L 841.05 528.45"
/>
<path stroke="#713339" d="
  M 862.26 551.11
  A 0.74 0.74 0.0 0 0 861.34 550.23
  L 812.21 563.96
  A 1.43 1.42 86.3 0 0 811.18 565.14
  C 810.81 567.88 807.56 588.91 800.55 583.30
  Q 797.83 581.12 798.80 578.47
  Q 800.86 572.87 802.15 567.66
  A 0.84 0.83 -89.7 0 0 801.15 566.64
  Q 786.73 570.08 774.64 575.33
  A 1.67 1.66 68.0 0 0 773.75 577.45
  Q 774.27 578.85 775.19 580.10
  C 780.30 587.07 783.93 594.50 786.83 602.23
  A 1.65 1.65 0.0 0 0 788.64 603.27
  Q 790.78 602.92 792.82 602.35
  Q 877.61 578.93 900.83 572.62
  C 904.47 571.62 912.04 570.09 915.31 569.05
  Q 917.56 568.34 918.96 566.94
  C 922.23 563.64 924.55 560.99 928.04 558.76
  Q 936.65 553.24 947.03 550.89
  A 2.11 2.11 0.0 0 0 948.68 548.88
  Q 948.84 541.24 944.09 535.99
  C 940.76 532.32 932.82 532.68 928.52 533.36
  A 1.96 1.95 -0.4 0 0 926.90 535.00
  Q 925.74 542.93 921.20 550.56
  A 4.48 4.48 0.0 0 1 915.61 552.39
  L 915.53 552.35
  A 3.61 3.61 0.0 0 1 913.77 547.28
  Q 916.95 541.44 918.06 535.71
  A 0.76 0.76 0.0 0 0 917.13 534.82
  Q 893.94 540.44 871.75 547.29
  A 1.26 1.26 0.0 0 0 870.87 548.46
  C 870.78 552.33 868.44 566.85 863.15 567.08
  Q 861.03 567.18 859.65 565.71
  A 2.14 2.07 17.5 0 1 859.15 564.79
  Q 858.59 562.55 859.18 560.98
  Q 861.20 555.61 862.26 551.11"
/>
<path stroke="#8180a8" d="
  M 771.27 567.02
  Q 771.90 566.97 772.45 566.70
  Q 784.83 560.70 799.50 557.66
  A 1.84 1.84 0.0 0 0 800.67 554.86
  C 797.12 549.37 792.23 544.81 785.50 544.63
  Q 774.29 544.33 771.46 553.57
  C 770.33 557.25 770.59 562.25 770.86 566.67
  A 0.38 0.37 -3.7 0 0 771.27 567.02"
/>
<path stroke="#6a244c" d="
  M 930.83 622.67
  Q 939.90 628.90 947.02 629.99
  Q 956.35 631.43 965.20 626.51
  C 986.98 614.42 989.26 589.01 974.71 570.22
  C 969.81 563.89 960.48 558.06 951.88 558.90
  Q 942.76 559.79 935.89 564.03
  C 932.81 565.94 929.64 567.95 927.28 571.01
  Q 922.97 576.62 922.39 577.63
  C 918.80 584.01 918.29 590.13 918.78 597.70
  C 919.36 606.67 924.26 615.04 930.01 621.93
  A 3.73 3.54 -1.5 0 0 930.83 622.67"
/>
<path stroke="#8180a8" d="
  M 911.17 579.37
  C 901.69 581.96 894.67 583.53 885.68 586.04
  Q 817.43 605.12 794.65 611.33
  C 793.33 611.69 791.22 611.81 790.29 612.12
  A 0.72 0.71 80.8 0 0 789.79 612.82
  C 789.82 614.86 791.13 617.71 791.77 620.35
  Q 799.98 654.16 802.49 661.77
  Q 809.16 681.99 812.74 691.54
  Q 817.01 702.91 823.02 713.49
  Q 824.33 715.79 825.66 717.46
  A 1.42 1.42 0.0 0 0 827.18 717.93
  Q 886.56 699.47 937.18 683.57
  C 941.71 682.15 946.69 680.14 951.10 678.86
  Q 965.40 674.71 978.28 669.52
  Q 983.79 667.30 987.66 664.68
  C 990.97 662.44 989.11 656.17 987.89 653.23
  Q 983.15 641.82 976.57 630.91
  A 1.20 1.19 59.3 0 0 974.95 630.49
  C 969.16 633.88 961.82 637.41 954.98 638.11
  Q 953.34 638.27 947.75 639.12
  A 8.67 8.62 -62.3 0 0 945.23 639.91
  Q 938.09 643.44 932.67 646.65
  C 922.40 652.74 914.97 656.24 904.45 662.47
  C 895.54 667.74 882.32 675.13 874.02 679.76
  Q 867.96 683.14 865.03 683.79
  Q 856.78 685.63 853.77 678.29
  Q 846.98 661.75 839.96 650.71
  C 834.69 642.41 828.55 636.07 819.63 632.12
  C 816.76 630.85 813.10 630.36 810.69 629.67
  A 1.92 1.86 -11.3 0 1 809.79 629.09
  Q 808.26 627.29 808.81 624.87
  C 810.02 619.57 818.59 621.74 821.97 623.10
  C 832.12 627.19 838.82 633.18 845.31 642.56
  Q 853.72 654.71 860.26 670.99
  Q 860.65 671.96 862.39 674.13
  A 0.89 0.88 64.8 0 0 863.26 674.45
  Q 865.18 674.06 866.51 673.29
  Q 894.00 657.44 919.55 643.27
  C 924.99 640.25 928.79 638.58 934.64 635.91
  Q 935.00 635.74 935.14 635.52
  A 0.74 0.73 28.1 0 0 934.81 634.46
  C 926.24 630.61 919.87 624.74 915.38 616.29
  Q 907.90 602.21 910.23 586.09
  C 910.60 583.53 911.60 581.90 911.83 579.94
  A 0.53 0.52 85.6 0 0 911.17 579.37"
/>
<path stroke="#7b6f84" d="
  M 974.80 681.93
  A 0.78 0.78 0.0 0 0 973.75 681.14
  Q 960.79 685.88 946.42 690.40
  Q 856.37 718.68 831.60 726.10
  Q 820.81 729.33 815.46 719.50
  C 797.01 685.54 788.89 646.62 779.01 609.28
  Q 774.92 593.85 764.65 582.25
  A 1.01 1.01 0.0 0 0 762.98 582.49
  Q 760.94 586.80 760.19 590.54
  Q 759.63 593.35 760.76 598.96
  Q 770.10 645.48 782.77 694.48
  Q 786.45 708.70 793.53 731.27
  Q 795.42 737.29 797.95 741.91
  C 802.21 749.70 811.85 747.56 819.00 745.54
  Q 898.99 722.99 956.86 705.06
  Q 962.24 703.39 966.65 701.90
  C 972.39 699.97 972.74 695.91 973.84 689.96
  Q 974.42 686.83 974.80 681.93"
/>
<path stroke="#8180a8" d="
  M 197.03 556.52
  C 193.77 555.20 190.20 554.81 186.44 553.65
  Q 160.09 545.45 133.60 537.19
  Q 111.75 530.38 104.06 528.19
  Q 97.59 526.35 92.34 525.91
  A 2.45 2.45 0.0 0 0 90.00 527.16
  Q 87.76 531.18 84.96 537.69
  Q 64.95 584.17 47.89 635.91
  C 42.75 651.50 37.64 670.74 33.03 684.56
  C 31.84 688.14 34.02 688.68 37.06 690.10
  Q 39.70 691.34 42.50 692.25
  Q 109.46 713.93 114.79 715.83
  C 121.39 718.18 128.87 719.81 135.79 721.93
  C 140.25 723.29 141.42 718.71 142.79 715.54
  Q 145.33 709.65 153.83 686.61
  Q 170.30 641.98 185.32 599.57
  Q 192.43 579.49 198.22 558.94
  A 2.02 2.02 0.0 0 0 197.03 556.52"
/>
<path stroke="#7b6f84" d="
  M 52.73 706.51
  L 48.89 719.42
  A 1.24 1.23 18.4 0 0 49.65 720.93
  Q 60.52 724.83 60.62 724.87
  Q 88.52 735.80 135.97 753.38
  Q 136.38 753.53 144.13 755.98
  C 148.84 757.47 151.23 757.68 153.49 752.74
  Q 189.38 674.44 210.00 628.52
  Q 220.57 604.98 222.97 598.23
  Q 223.87 595.71 221.60 594.93
  Q 210.03 590.98 200.13 586.80
  A 0.74 0.74 0.0 0 0 199.12 587.29
  Q 198.42 589.91 197.83 591.61
  C 184.26 630.77 170.45 670.59 155.78 708.29
  Q 151.48 719.35 151.37 719.65
  C 148.05 728.66 141.54 733.89 131.76 730.81
  Q 94.31 719.00 90.31 717.75
  C 78.02 713.93 66.64 709.85 53.72 705.97
  A 0.80 0.80 0.0 0 0 52.73 706.51"
/>
<path stroke="#8180a8" d="
  M 107.1902 578.3884
  A 8.93 8.60 45.4 0 0 107.0434 565.9915
  A 8.93 8.60 45.4 0 0 94.6498 565.6716
  A 8.93 8.60 45.4 0 0 94.7966 578.0685
  A 8.93 8.60 45.4 0 0 107.1902 578.3884"
/>
<path stroke="#8180a8" d="
  M 163.7305 589.5957
  A 4.51 4.51 0.0 0 0 160.6383 584.0172
  L 125.1486 573.8407
  A 4.51 4.51 0.0 0 0 119.5701 576.9329
  L 119.5095 577.1443
  A 4.51 4.51 0.0 0 0 122.6017 582.7228
  L 158.0914 592.8993
  A 4.51 4.51 0.0 0 0 163.6699 589.8071
  L 163.7305 589.5957"
/>
<path stroke="#8180a8" d="
  M 94.1044 617.5007
  A 9.05 8.81 23.1 0 0 89.2365 605.8464
  A 9.05 8.81 23.1 0 0 77.4556 610.3993
  A 9.05 8.81 23.1 0 0 82.3235 622.0536
  A 9.05 8.81 23.1 0 0 94.1044 617.5007"
/>
<path stroke="#8180a8" d="
  M 149.8155 633.8188
  A 4.50 4.50 0.0 0 0 146.9759 628.1235
  L 109.4033 615.5519
  A 4.50 4.50 0.0 0 0 103.7080 618.3915
  L 103.6445 618.5812
  A 4.50 4.50 0.0 0 0 106.4841 624.2765
  L 144.0567 636.8481
  A 4.50 4.50 0.0 0 0 149.7520 634.0085
  L 149.8155 633.8188"
/>
<path stroke="#8180a8" d="
  M 79.93 654.78
  A 8.93 8.93 0.0 0 0 71.00 645.85
  A 8.93 8.93 0.0 0 0 62.07 654.78
  A 8.93 8.93 0.0 0 0 71.00 663.71
  A 8.93 8.93 0.0 0 0 79.93 654.78"
/>
<path stroke="#8180a8" d="
  M 132.5901 674.9784
  A 4.56 4.56 0.0 0 0 129.7631 669.1822
  L 92.8312 656.4655
  A 4.56 4.56 0.0 0 0 87.0350 659.2925
  L 86.9699 659.4816
  A 4.56 4.56 0.0 0 0 89.7969 665.2778
  L 126.7288 677.9945
  A 4.56 4.56 0.0 0 0 132.5250 675.1675
  L 132.5901 674.9784"
/>
<path stroke="#6a244c" d="
  M 955.29 601.06
  C 958.02 601.29 961.87 603.92 965.97 606.12
  A 4.19 4.19 0.0 0 0 971.43 604.77
  L 971.70 604.38
  A 3.69 3.69 0.0 0 0 970.48 599.12
  L 959.51 592.79
  A 1.49 1.48 -64.2 0 1 958.88 590.95
  L 963.02 580.71
  A 3.80 3.79 22.0 0 0 960.92 575.78
  L 960.50 575.61
  A 3.98 3.98 0.0 0 0 955.32 577.81
  L 950.93 588.69
  A 1.27 1.27 0.0 0 1 949.04 589.26
  L 940.44 583.46
  A 5.08 5.07 -49.4 0 0 934.16 583.95
  L 933.87 584.22
  A 3.31 3.31 0.0 0 0 934.21 589.28
  Q 939.85 593.41 945.89 595.73
  A 2.11 2.10 23.0 0 1 947.05 598.59
  L 941.44 610.63
  A 4.68 4.68 0.0 0 0 943.08 616.49
  L 943.57 616.82
  A 3.68 3.68 0.0 0 0 949.03 615.14
  L 954.53 601.52
  A 0.75 0.75 0.0 0 1 955.29 601.06"
/>
<path stroke="#7b6f84" d="
  M 672.0506 622.1945
  A 0.69 0.69 0.0 0 0 671.3582 621.5069
  L 320.0604 622.7332
  A 0.69 0.69 0.0 0 0 319.3728 623.4256
  L 319.4494 645.3655
  A 0.69 0.69 0.0 0 0 320.1418 646.0531
  L 671.4396 644.8268
  A 0.69 0.69 0.0 0 0 672.1272 644.1344
  L 672.0506 622.1945"
/>
<path stroke="#8180a8" d="
  M 319.45 768.72
  A 0.59 0.59 0.0 0 0 320.05 769.32
  L 670.38 767.89
  A 0.59 0.59 0.0 0 0 670.96 767.31
  L 671.63 654.45
  A 0.59 0.59 0.0 0 0 671.03 653.85
  L 320.70 655.27
  A 0.59 0.59 0.0 0 0 320.12 655.85
  L 319.45 768.72"
/>
<path stroke="#7b6f84" d="
  M 671.1267 777.3438
  A 0.43 0.43 0.0 0 0 670.6959 776.9146
  L 320.6965 777.5255
  A 0.43 0.43 0.0 0 0 320.2672 777.9562
  L 320.3133 804.3562
  A 0.43 0.43 0.0 0 0 320.7441 804.7854
  L 670.7435 804.1745
  A 0.43 0.43 0.0 0 0 671.1728 803.7438
  L 671.1267 777.3438"
/>
<path stroke="#8180a8" d="
  M 310.95 815.82
  Q 310.99 827.60 311.05 850.73
  C 311.06 855.82 311.76 859.88 317.21 860.80
  Q 323.86 861.92 329.50 861.92
  Q 389.73 861.93 427.50 861.53
  Q 438.78 861.41 554.75 861.14
  Q 605.86 861.02 660.75 860.07
  Q 661.27 860.06 671.12 859.66
  Q 679.62 859.32 679.80 851.01
  Q 680.21 832.42 679.92 815.00
  A 0.88 0.88 0.0 0 0 679.04 814.14
  C 648.06 814.15 616.13 814.88 584.34 814.89
  Q 432.25 814.96 311.59 815.18
  A 0.64 0.64 0.0 0 0 310.95 815.82"
/>
<path stroke="#7b6f84" d="
  M 347.7890 632.7433
  A 4.29 4.07 -4.1 0 0 343.2190 628.9904
  A 4.29 4.07 -4.1 0 0 339.2310 633.3567
  A 4.29 4.07 -4.1 0 0 343.8010 637.1096
  A 4.29 4.07 -4.1 0 0 347.7890 632.7433"
/>
<path stroke="#7b6f84" d="
  M 364.99 633.20
  A 4.13 4.13 0.0 0 0 360.86 629.07
  A 4.13 4.13 0.0 0 0 356.73 633.20
  A 4.13 4.13 0.0 0 0 360.86 637.33
  A 4.13 4.13 0.0 0 0 364.99 633.20"
/>
<path stroke="#8180a8" d="
  M 650.8869 675.0464
  A 7.62 7.62 0.0 0 0 643.2536 667.4397
  L 551.2137 667.6004
  A 7.62 7.62 0.0 0 0 543.6070 675.2337
  L 543.7331 747.4936
  A 7.62 7.62 0.0 0 0 551.3664 755.1003
  L 643.4063 754.9396
  A 7.62 7.62 0.0 0 0 651.0130 747.3063
  L 650.8869 675.0464"
/>
<path stroke="#8180a8" d="
  M 481.7198 678.4510
  A 4.29 4.29 0.0 0 0 477.4223 674.1685
  L 349.6025 674.3916
  A 4.29 4.29 0.0 0 0 345.3200 678.6890
  L 345.3202 678.7690
  A 4.29 4.29 0.0 0 0 349.6177 683.0515
  L 477.4375 682.8284
  A 4.29 4.29 0.0 0 0 481.7200 678.5310
  L 481.7198 678.4510"
/>
<path stroke="#8180a8" d="
  M 514.8097 701.2919
  A 4.31 4.31 0.0 0 0 510.4922 696.9895
  L 349.4525 697.2705
  A 4.31 4.31 0.0 0 0 345.1500 701.5881
  L 345.1503 701.7281
  A 4.31 4.31 0.0 0 0 349.4678 706.0305
  L 510.5075 705.7495
  A 4.31 4.31 0.0 0 0 514.8100 701.4319
  L 514.8097 701.2919"
/>
<path stroke="#8180a8" d="
  M 480.7393 722.5611
  A 3.77 3.77 0.0 0 0 476.9627 718.7977
  L 348.2629 719.0223
  A 3.77 3.77 0.0 0 0 344.4995 722.7989
  L 344.5007 723.4989
  A 3.77 3.77 0.0 0 0 348.2773 727.2623
  L 476.9771 727.0377
  A 3.77 3.77 0.0 0 0 480.7405 723.2611
  L 480.7393 722.5611"
/>
<path stroke="#8180a8" d="
  M 443.55 745.04
  A 3.84 3.84 0.0 0 0 439.71 741.20
  L 348.83 741.20
  A 3.84 3.84 0.0 0 0 344.99 745.04
  L 344.99 745.86
  A 3.84 3.84 0.0 0 0 348.83 749.70
  L 439.71 749.70
  A 3.84 3.84 0.0 0 0 443.55 745.86
  L 443.55 745.04"
/>
<path stroke="#7b6f84" d="
  M 642.8892 676.4505
  A 1.01 1.01 0.0 0 0 641.8774 675.4422
  L 552.7176 675.5979
  A 1.01 1.01 0.0 0 0 551.7093 676.6096
  L 551.8308 746.1895
  A 1.01 1.01 0.0 0 0 552.8426 747.1978
  L 642.0024 747.0421
  A 1.01 1.01 0.0 0 0 643.0107 746.0304
  L 642.8892 676.4505"
/>
<path stroke="#8180a8" d="
  M 509.1842 837.8710
  A 13.18 10.54 1.7 0 0 496.3227 826.9446
  A 13.18 10.54 1.7 0 0 482.8358 837.0890
  A 13.18 10.54 1.7 0 0 495.6973 848.0154
  A 13.18 10.54 1.7 0 0 509.1842 837.8710"
/>
</g>
<g>
<path fill="#030151" d="
  M 585.70 218.20
  Q 583.99 218.24 583.42 218.91
  Q 579.60 223.46 575.78 228.00
  Q 566.68 238.83 561.02 251.55
  Q 560.10 254.06 558.16 257.65
  Q 554.70 264.05 550.00 267.82
  A 3.07 3.07 0.0 0 0 549.00 269.28
  Q 548.36 271.23 548.02 274.69
  Q 547.75 277.31 546.86 281.00
  C 543.95 293.10 542.53 300.68 538.56 309.05
  C 535.30 315.92 528.41 319.43 521.00 320.75
  Q 510.68 322.60 500.95 321.56
  C 489.73 320.35 480.35 318.09 470.66 312.07
  C 461.82 306.57 458.77 296.39 460.71 286.65
  C 461.31 283.63 460.90 281.02 461.35 278.20
  Q 461.96 274.44 463.23 264.30
  C 463.57 261.66 464.33 258.92 464.99 256.29
  Q 465.87 252.75 464.62 249.65
  Q 464.30 249.05 464.11 248.03
  Q 461.31 233.24 457.32 218.73
  Q 456.77 216.72 455.61 215.93
  Q 456.10 215.36 455.73 214.31
  Q 451.57 202.63 447.50 192.52
  Q 442.28 179.54 440.80 172.78
  Q 437.59 158.16 437.44 148.78
  C 437.16 131.54 441.06 114.68 449.97 99.73
  C 460.69 81.76 478.43 66.82 498.55 60.38
  Q 510.81 56.46 521.03 55.54
  Q 536.03 54.19 552.34 58.40
  Q 586.56 67.23 606.34 96.41
  C 617.90 113.48 622.40 136.98 618.69 156.89
  Q 613.96 182.28 597.74 202.55
  Q 590.87 211.14 585.99 216.75
  Q 585.45 217.38 585.70 218.20
  Z
  M 539.41 196.57
  L 526.17 260.82
  A 0.64 0.63 6.3 0 0 526.79 261.58
  Q 534.09 261.59 541.14 260.17
  Q 544.76 259.44 546.27 256.03
  Q 546.44 255.65 551.43 245.55
  C 558.13 231.97 567.68 219.64 577.74 208.51
  C 593.34 191.26 605.13 173.24 607.78 149.94
  Q 609.65 133.52 604.20 118.55
  Q 598.55 103.06 587.42 91.65
  Q 565.27 68.94 532.89 67.15
  C 483.90 64.46 443.85 105.23 449.13 154.28
  Q 450.71 168.99 455.91 182.34
  Q 462.08 198.19 464.14 203.86
  C 469.10 217.57 472.24 232.16 475.00 246.75
  Q 475.75 250.70 479.35 252.10
  Q 487.35 255.21 495.51 257.10
  A 0.47 0.47 0.0 0 0 496.08 256.73
  L 507.36 196.32
  A 0.95 0.95 0.0 0 0 506.52 195.20
  Q 489.05 193.48 482.83 178.39
  C 480.36 172.41 480.62 166.01 484.17 160.95
  Q 491.30 150.76 503.38 154.76
  C 506.06 155.65 509.68 158.80 511.13 160.96
  Q 518.04 171.20 517.93 184.33
  A 1.45 1.44 -89.2 0 0 519.34 185.79
  L 531.43 186.01
  A 1.24 1.24 0.0 0 0 532.64 185.09
  C 535.42 174.49 539.53 163.56 547.50 157.25
  C 554.75 151.49 565.65 152.39 570.72 160.55
  C 576.22 169.38 572.89 179.51 565.86 186.39
  C 559.04 193.05 549.89 195.27 540.19 195.89
  A 0.85 0.85 0.0 0 0 539.41 196.57
  Z
  M 544.82 184.20
  Q 550.28 183.35 554.51 181.04
  C 559.10 178.54 563.62 173.12 561.91 167.56
  C 560.27 162.22 553.85 165.16 551.63 168.00
  Q 546.39 174.73 544.30 183.64
  A 0.46 0.46 0.0 0 0 544.82 184.20
  Z
  M 508.06 184.30
  C 506.92 177.68 505.06 164.07 495.62 164.81
  A 2.71 2.70 10.3 0 0 493.37 166.36
  Q 491.18 171.10 494.19 176.09
  Q 498.65 183.47 507.60 184.77
  A 0.41 0.41 0.0 0 0 508.06 184.30
  Z
  M 515.79 260.54
  A 0.34 0.34 0.0 0 0 516.16 260.27
  L 529.08 197.58
  A 0.34 0.34 0.0 0 0 528.75 197.17
  L 517.72 196.98
  A 0.34 0.34 0.0 0 0 517.38 197.25
  L 505.88 258.85
  A 0.34 0.34 0.0 0 0 506.16 259.25
  L 515.79 260.54
  Z
  M 538.06 272.68
  C 535.42 272.17 530.26 272.78 526.67 272.46
  Q 511.05 271.08 496.83 267.99
  C 489.35 266.37 483.91 264.35 475.89 261.84
  Q 474.95 261.54 473.83 261.69
  A 1.11 1.09 -89.3 0 0 472.88 262.63
  L 471.00 276.69
  A 0.99 0.97 -75.5 0 0 471.60 277.73
  Q 495.96 287.60 522.38 288.60
  Q 527.81 288.81 533.52 288.31
  A 2.99 2.99 0.0 0 0 536.11 286.25
  Q 538.14 280.02 538.67 273.48
  A 0.76 0.75 8.1 0 0 538.06 272.68
  Z
  M 531.59 297.45
  Q 530.97 297.26 530.01 297.34
  Q 521.56 298.06 513.78 297.47
  Q 492.96 295.87 472.29 288.72
  A 1.12 1.12 0.0 0 0 470.81 289.68
  C 470.52 293.11 470.95 301.10 474.48 303.03
  Q 495.03 314.28 518.43 310.93
  Q 529.99 309.28 531.95 298.05
  A 0.54 0.53 -76.3 0 0 531.59 297.45
  Z"
/>
<path fill="#030151" d="
  M 919.48 385.66
  L 875.97 386.11
  A 9.52 9.52 0.0 0 1 866.35 376.53
  L 867.34 206.54
  A 9.52 9.52 0.0 0 1 876.92 197.08
  L 922.51 197.34
  A 9.52 9.52 0.0 0 1 931.97 207.04
  L 928.90 376.31
  A 9.52 9.52 0.0 0 1 919.48 385.66
  Z
  M 918.23 376.59
  A 1.17 1.17 0.0 0 0 919.39 375.45
  L 922.44 207.71
  A 1.17 1.17 0.0 0 0 921.28 206.52
  L 877.77 206.27
  A 1.17 1.17 0.0 0 0 876.59 207.43
  L 875.61 375.59
  A 1.17 1.17 0.0 0 0 876.78 376.77
  L 918.23 376.59
  Z"
/>
<path fill="#030151" d="
  M 302.44 265.03
  Q 303.92 266.14 305.56 267.03
  Q 313.35 271.30 315.67 279.43
  Q 318.28 288.56 312.33 296.71
  A 1.27 1.26 61.4 0 0 312.09 297.54
  Q 312.18 299.00 314.06 300.12
  Q 317.83 304.41 318.86 307.36
  Q 323.93 321.90 313.76 332.71
  A 1.55 1.55 0.0 0 0 313.71 334.77
  C 318.21 340.04 321.21 346.88 319.21 353.81
  Q 317.35 360.24 312.82 364.27
  A 1.38 1.38 0.0 0 0 312.73 366.24
  C 319.72 373.73 317.61 384.87 309.94 391.08
  Q 303.11 396.61 292.74 397.68
  Q 281.21 398.86 276.00 398.89
  C 262.65 398.95 245.55 399.32 230.42 398.33
  Q 222.59 397.82 215.27 397.48
  Q 197.92 396.20 181.75 394.64
  Q 178.55 394.33 170.69 396.60
  Q 147.19 397.21 132.24 396.86
  C 123.41 396.66 122.12 387.79 122.13 380.38
  Q 122.17 334.87 121.30 290.53
  C 121.10 280.44 129.15 279.25 137.25 279.22
  Q 162.39 279.11 172.75 278.34
  Q 173.24 278.30 178.53 279.16
  C 180.59 279.49 184.29 277.82 186.10 276.50
  C 197.92 267.86 204.79 252.56 207.40 238.88
  Q 209.11 229.90 211.75 213.78
  C 214.04 199.80 228.82 198.01 238.86 204.89
  Q 240.38 205.93 243.90 209.62
  C 252.01 218.10 252.99 234.23 251.97 245.01
  Q 251.00 255.35 248.24 266.81
  A 1.15 1.15 0.0 0 0 249.40 268.23
  Q 249.92 268.21 250.87 268.12
  Q 259.62 267.28 284.00 264.47
  Q 292.81 263.46 300.78 265.09
  Q 301.72 265.28 302.44 265.03
  Z
  M 183.64 385.53
  Q 197.69 386.35 212.37 387.45
  Q 221.02 388.09 227.14 388.16
  C 239.15 388.29 251.66 389.45 262.57 388.96
  Q 277.46 388.29 283.21 387.90
  C 290.35 387.41 299.39 386.83 304.07 381.13
  C 306.38 378.32 306.79 374.98 303.76 372.70
  C 301.34 370.90 291.82 371.84 287.68 372.25
  Q 275.41 373.47 266.52 372.79
  Q 261.86 372.44 261.17 368.36
  C 260.35 363.47 264.31 361.99 268.27 362.05
  C 279.81 362.21 290.20 362.98 300.24 359.71
  C 305.99 357.84 310.50 351.02 307.65 344.99
  Q 304.89 339.13 298.02 339.59
  Q 288.72 340.21 279.00 340.88
  Q 270.65 341.44 264.66 340.84
  C 258.76 340.25 258.23 331.48 264.76 330.98
  C 267.85 330.74 273.36 330.16 277.42 330.18
  C 286.22 330.22 292.73 329.99 300.73 327.70
  Q 306.39 326.08 308.67 320.82
  C 309.64 318.60 310.44 316.59 309.74 314.47
  Q 306.57 304.90 295.74 306.48
  Q 288.34 307.56 271.33 308.88
  C 266.68 309.24 260.53 309.30 259.26 304.10
  C 258.18 299.68 261.99 297.58 265.78 297.49
  Q 279.65 297.18 284.62 296.82
  C 292.92 296.22 302.14 295.32 304.97 287.26
  C 308.29 277.80 297.02 274.79 290.00 275.31
  Q 270.21 276.76 249.22 279.63
  C 240.45 280.83 233.74 279.61 236.52 268.78
  C 239.47 257.33 241.72 245.93 241.40 233.96
  Q 241.15 224.77 236.06 217.92
  C 233.41 214.35 229.76 211.84 225.14 213.48
  C 223.12 214.20 222.36 216.08 221.93 217.96
  C 220.43 224.46 220.23 232.17 218.60 238.94
  Q 216.43 247.99 215.62 250.64
  C 210.76 266.46 200.93 285.12 183.29 289.09
  A 1.52 1.52 0.0 0 0 182.10 290.59
  L 183.07 384.94
  A 0.60 0.60 0.0 0 0 183.64 385.53
  Z
  M 171.8884 290.3166
  A 1.80 1.80 0.0 0 0 170.0759 288.5293
  L 132.2768 288.7931
  A 1.80 1.80 0.0 0 0 130.4894 290.6057
  L 131.1516 385.4634
  A 1.80 1.80 0.0 0 0 132.9641 387.2507
  L 170.7632 386.9869
  A 1.80 1.80 0.0 0 0 172.5506 385.1743
  L 171.8884 290.3166
  Z"
/>
<path fill="#de6521" d="
  M 455.61 215.93
  Q 456.77 216.72 457.32 218.73
  Q 461.31 233.24 464.11 248.03
  Q 464.30 249.05 464.62 249.65
  Q 455.95 250.38 447.75 251.79
  Q 389.76 261.76 337.27 287.92
  C 330.80 291.14 321.97 296.20 314.06 300.12
  Q 312.18 299.00 312.09 297.54
  A 1.27 1.26 61.4 0 1 312.33 296.71
  Q 318.28 288.56 315.67 279.43
  Q 313.35 271.30 305.56 267.03
  Q 303.92 266.14 302.44 265.03
  C 346.90 239.98 396.48 224.14 446.84 216.65
  C 449.64 216.23 452.64 216.21 455.61 215.93
  Z"
/>
<path fill="#de6521" d="
  M 585.70 218.20
  Q 586.51 218.76 586.95 218.82
  Q 599.40 220.38 614.75 224.04
  Q 645.34 231.32 669.44 241.57
  Q 683.38 247.50 690.00 250.03
  Q 682.80 260.59 678.57 272.36
  Q 677.65 274.94 676.12 285.50
  Q 676.06 285.89 675.54 286.12
  Q 656.12 277.08 644.31 272.46
  Q 610.93 259.41 573.33 253.19
  Q 571.26 252.85 567.18 252.38
  Q 564.24 252.05 561.02 251.55
  Q 566.68 238.83 575.78 228.00
  Q 579.60 223.46 583.42 218.91
  Q 583.99 218.24 585.70 218.20
  Z"
/>
<path fill="#030151" d="
  M 794.47 318.43
  Q 793.93 318.74 793.64 319.13
  Q 788.45 326.01 786.76 328.49
  Q 785.58 330.21 785.64 332.27
  Q 786.06 349.08 785.07 363.50
  Q 785.02 364.29 785.59 364.93
  Q 784.85 365.37 784.86 365.75
  Q 785.02 374.63 784.57 378.61
  Q 783.73 386.17 776.25 386.40
  Q 757.42 386.99 748.75 386.73
  C 743.49 386.58 739.36 384.64 739.15 378.93
  Q 738.71 366.43 739.15 354.25
  A 1.13 1.13 0.0 0 0 738.01 353.08
  Q 734.38 353.08 728.08 352.92
  C 724.69 352.83 722.69 352.13 718.97 351.03
  A 1.33 1.33 0.0 0 0 717.28 352.05
  Q 716.68 355.10 715.54 358.06
  Q 712.97 364.80 704.13 380.66
  Q 700.87 386.52 684.82 410.56
  C 680.16 417.55 671.45 424.04 662.51 421.02
  Q 658.24 419.58 655.90 416.39
  C 653.12 412.60 653.57 405.98 655.56 401.77
  C 665.83 380.12 679.76 359.92 693.95 339.99
  A 1.74 1.73 39.6 0 0 693.73 337.73
  Q 684.17 328.61 679.89 315.90
  Q 676.35 305.37 676.23 300.49
  Q 676.21 300.08 675.84 287.26
  Q 675.82 286.63 675.54 286.12
  Q 676.06 285.89 676.12 285.50
  Q 677.65 274.94 678.57 272.36
  Q 682.80 260.59 690.00 250.03
  Q 691.32 248.20 692.57 246.81
  Q 707.12 230.54 726.97 225.84
  Q 737.34 223.38 747.11 224.23
  C 780.08 227.12 802.46 254.41 801.81 286.58
  C 801.72 291.01 801.00 294.43 800.36 299.25
  Q 799.30 307.20 794.68 317.19
  Q 794.38 317.86 794.47 318.43
  Z
  M 711.7253 338.7568
  A 56.33 52.26 118.6 0 0 784.5734 314.3164
  A 56.33 52.26 118.6 0 0 765.6547 239.8432
  A 56.33 52.26 118.6 0 0 692.8066 264.2836
  A 56.33 52.26 118.6 0 0 711.7253 338.7568
  Z
  M 775.22 339.50
  Q 774.83 339.64 774.71 339.74
  Q 762.59 349.86 748.39 353.07
  A 1.47 1.47 0.0 0 0 747.24 354.52
  Q 747.32 367.46 747.20 375.50
  Q 747.16 377.89 749.43 377.89
  Q 755.24 377.90 769.00 377.82
  Q 773.08 377.80 774.67 377.26
  A 1.86 1.86 0.0 0 0 775.92 375.52
  L 776.13 340.15
  A 0.69 0.68 80.4 0 0 775.22 339.50
  Z
  M 702.10 363.00
  A 0.79 0.79 0.0 0 0 703.21 362.65
  L 709.87 348.37
  A 0.79 0.79 0.0 0 0 709.49 347.32
  L 703.34 344.45
  A 0.79 0.79 0.0 0 0 702.35 344.72
  L 693.88 357.28
  A 0.79 0.79 0.0 0 0 694.14 358.40
  L 702.10 363.00
  Z
  M 695.36 371.23
  L 690.35 368.01
  A 2.83 2.83 0.0 0 0 686.43 368.85
  L 672.70 390.17
  A 21.99 4.91 -57.2 0 0 664.91 411.31
  L 666.43 412.29
  A 21.99 4.91 -57.2 0 0 682.46 396.46
  L 696.20 375.15
  A 2.83 2.83 0.0 0 0 695.36 371.23
  Z"
/>
<path fill="#030151" d="
  M 849.56 385.91
  Q 833.26 385.97 815.49 386.12
  Q 809.35 386.18 807.22 381.99
  Q 806.08 379.75 806.16 372.35
  Q 806.41 350.68 806.34 329.27
  Q 807.07 322.74 807.07 316.50
  Q 807.04 286.26 807.63 274.75
  Q 807.88 269.85 807.95 268.72
  C 808.32 262.47 810.74 258.93 817.75 258.76
  Q 842.32 258.16 849.74 258.81
  Q 857.64 259.50 857.82 268.01
  Q 857.88 271.14 857.79 374.68
  C 857.79 378.20 855.89 383.17 852.29 384.72
  Q 851.08 385.24 849.56 385.91
  Z
  M 849.49 269.16
  A 2.07 2.07 0.0 0 0 847.42 267.09
  L 817.62 267.09
  A 2.07 2.07 0.0 0 0 815.55 269.16
  L 815.55 375.24
  A 2.07 2.07 0.0 0 0 817.62 377.31
  L 847.42 377.31
  A 2.07 2.07 0.0 0 0 849.49 375.24
  L 849.49 269.16
  Z"
/>
<path fill="#de6521" d="
  M 794.47 318.43
  Q 799.14 324.46 806.34 329.27
  Q 806.41 350.68 806.16 372.35
  Q 806.08 379.75 807.22 381.99
  Q 809.35 386.18 815.49 386.12
  Q 833.26 385.97 849.56 385.91
  Q 859.89 406.46 866.48 424.51
  Q 877.28 454.06 881.23 487.76
  C 881.99 494.23 881.78 502.23 882.57 509.72
  Q 882.64 510.38 883.09 510.96
  L 883.03 511.78
  A 4.49 4.48 60.9 0 1 882.54 513.50
  Q 877.49 523.21 878.10 534.41
  A 2.38 2.38 0.0 0 1 876.36 536.84
  L 871.30 538.26
  A 0.96 0.96 0.0 0 1 870.15 537.69
  Q 864.24 523.22 848.47 519.45
  Q 847.12 519.13 842.27 519.11
  Q 841.97 519.10 841.75 518.96
  Q 841.46 518.76 841.37 518.55
  C 841.28 511.70 841.42 504.42 840.63 497.92
  C 840.14 493.80 840.27 490.01 839.67 485.71
  Q 837.45 469.70 835.30 460.72
  Q 826.58 424.40 805.20 390.64
  C 800.73 383.59 793.66 374.71 789.08 368.16
  Q 787.45 365.84 785.59 364.93
  Q 785.02 364.29 785.07 363.50
  Q 786.06 349.08 785.64 332.27
  Q 785.58 330.21 786.76 328.49
  Q 788.45 326.01 793.64 319.13
  Q 793.93 318.74 794.47 318.43
  Z"
/>
<path fill="#de6521" d="
  M 215.27 397.48
  Q 187.51 442.75 179.08 494.70
  Q 175.84 514.60 175.28 536.50
  Q 175.23 538.72 175.47 539.99
  Q 174.43 540.06 173.93 539.90
  Q 155.69 534.00 137.47 528.09
  Q 137.04 527.95 136.07 526.99
  Q 137.75 460.75 168.33 402.35
  Q 169.69 399.76 170.69 396.60
  Q 178.55 394.33 181.75 394.64
  Q 197.92 396.20 215.27 397.48
  Z"
/>
<path fill="#030151" d="
  M 780.03 720.88
  Q 780.52 720.24 780.22 719.30
  Q 773.44 697.83 769.08 678.44
  Q 768.82 677.31 768.15 676.74
  Q 768.27 674.77 768.11 674.11
  Q 760.74 643.86 753.50 608.27
  Q 752.12 601.46 751.22 594.22
  Q 749.97 584.14 756.84 576.07
  Q 758.59 574.01 761.09 572.63
  A 2.36 2.36 0.0 0 0 762.23 569.95
  C 758.93 557.55 762.07 542.25 775.69 537.40
  C 783.56 534.60 788.99 534.29 796.65 537.69
  C 802.56 540.32 807.69 547.16 810.52 553.02
  A 2.28 2.28 0.0 0 0 813.18 554.22
  L 818.84 552.64
  A 1.27 1.26 77.1 0 0 819.74 551.20
  C 817.64 539.42 820.12 527.35 831.62 521.69
  Q 836.10 519.48 840.98 518.95
  Q 841.27 518.92 841.37 518.55
  Q 841.46 518.76 841.75 518.96
  Q 841.97 519.10 842.27 519.11
  Q 847.12 519.13 848.47 519.45
  Q 864.24 523.22 870.15 537.69
  A 0.96 0.96 0.0 0 0 871.30 538.26
  L 876.36 536.84
  A 2.38 2.38 0.0 0 0 878.10 534.41
  Q 877.49 523.21 882.54 513.50
  A 4.49 4.48 60.9 0 0 883.03 511.78
  L 883.09 510.96
  Q 883.97 510.60 884.15 510.41
  C 891.17 502.75 901.81 498.57 911.69 503.03
  Q 922.81 508.06 926.58 519.36
  C 927.00 520.60 927.16 522.29 927.69 523.59
  A 0.90 0.89 77.5 0 0 928.54 524.14
  Q 930.85 524.08 935.52 524.17
  C 942.42 524.30 950.00 527.05 953.63 533.13
  Q 958.26 540.87 957.87 550.07
  A 0.85 0.85 0.0 0 0 958.61 550.96
  C 973.76 553.06 985.20 566.06 989.96 579.94
  Q 997.71 602.55 984.39 621.87
  A 3.26 3.26 0.0 0 0 984.21 625.28
  C 989.54 635.02 993.62 642.40 996.88 651.26
  Q 999.64 658.78 998.70 663.22
  C 997.14 670.64 990.55 674.60 983.97 677.15
  A 1.06 1.05 77.5 0 0 983.31 678.20
  Q 984.01 688.40 981.44 698.14
  C 978.87 707.86 969.66 710.32 959.93 713.44
  Q 941.19 719.45 924.04 724.51
  Q 873.53 739.42 823.43 753.68
  C 819.42 754.81 809.12 757.81 803.80 756.69
  C 794.08 754.65 790.88 748.64 787.10 739.36
  Q 784.13 732.07 781.41 722.15
  Q 781.13 721.11 780.03 720.88
  Z
  M 887.91 533.28
  Q 890.42 532.25 896.10 531.02
  C 900.85 530.00 908.98 527.42 913.38 526.38
  Q 915.55 525.86 918.06 526.06
  A 0.56 0.55 88.7 0 0 918.65 525.44
  Q 917.60 516.83 911.32 512.72
  C 905.82 509.12 898.47 510.02 893.75 514.20
  C 888.30 519.02 888.00 525.74 887.45 532.94
  A 0.34 0.33 80.9 0 0 887.91 533.28
  Z
  M 841.05 528.45
  Q 838.34 528.77 834.74 530.77
  Q 828.81 534.05 828.60 540.46
  Q 828.46 544.76 829.01 548.66
  A 0.92 0.92 0.0 0 0 830.17 549.43
  L 841.76 546.23
  L 860.21 541.10
  A 1.21 1.21 0.0 0 0 860.98 539.41
  C 859.32 535.99 855.31 532.72 852.31 530.71
  Q 847.19 527.27 841.05 528.45
  Z
  M 862.26 551.11
  A 0.74 0.74 0.0 0 0 861.34 550.23
  L 812.21 563.96
  A 1.43 1.42 86.3 0 0 811.18 565.14
  C 810.81 567.88 807.56 588.91 800.55 583.30
  Q 797.83 581.12 798.80 578.47
  Q 800.86 572.87 802.15 567.66
  A 0.84 0.83 -89.7 0 0 801.15 566.64
  Q 786.73 570.08 774.64 575.33
  A 1.67 1.66 68.0 0 0 773.75 577.45
  Q 774.27 578.85 775.19 580.10
  C 780.30 587.07 783.93 594.50 786.83 602.23
  A 1.65 1.65 0.0 0 0 788.64 603.27
  Q 790.78 602.92 792.82 602.35
  Q 877.61 578.93 900.83 572.62
  C 904.47 571.62 912.04 570.09 915.31 569.05
  Q 917.56 568.34 918.96 566.94
  C 922.23 563.64 924.55 560.99 928.04 558.76
  Q 936.65 553.24 947.03 550.89
  A 2.11 2.11 0.0 0 0 948.68 548.88
  Q 948.84 541.24 944.09 535.99
  C 940.76 532.32 932.82 532.68 928.52 533.36
  A 1.96 1.95 -0.4 0 0 926.90 535.00
  Q 925.74 542.93 921.20 550.56
  A 4.48 4.48 0.0 0 1 915.61 552.39
  L 915.53 552.35
  A 3.61 3.61 0.0 0 1 913.77 547.28
  Q 916.95 541.44 918.06 535.71
  A 0.76 0.76 0.0 0 0 917.13 534.82
  Q 893.94 540.44 871.75 547.29
  A 1.26 1.26 0.0 0 0 870.87 548.46
  C 870.78 552.33 868.44 566.85 863.15 567.08
  Q 861.03 567.18 859.65 565.71
  A 2.14 2.07 17.5 0 1 859.15 564.79
  Q 858.59 562.55 859.18 560.98
  Q 861.20 555.61 862.26 551.11
  Z
  M 771.27 567.02
  Q 771.90 566.97 772.45 566.70
  Q 784.83 560.70 799.50 557.66
  A 1.84 1.84 0.0 0 0 800.67 554.86
  C 797.12 549.37 792.23 544.81 785.50 544.63
  Q 774.29 544.33 771.46 553.57
  C 770.33 557.25 770.59 562.25 770.86 566.67
  A 0.38 0.37 -3.7 0 0 771.27 567.02
  Z
  M 930.83 622.67
  Q 939.90 628.90 947.02 629.99
  Q 956.35 631.43 965.20 626.51
  C 986.98 614.42 989.26 589.01 974.71 570.22
  C 969.81 563.89 960.48 558.06 951.88 558.90
  Q 942.76 559.79 935.89 564.03
  C 932.81 565.94 929.64 567.95 927.28 571.01
  Q 922.97 576.62 922.39 577.63
  C 918.80 584.01 918.29 590.13 918.78 597.70
  C 919.36 606.67 924.26 615.04 930.01 621.93
  A 3.73 3.54 -1.5 0 0 930.83 622.67
  Z
  M 911.17 579.37
  C 901.69 581.96 894.67 583.53 885.68 586.04
  Q 817.43 605.12 794.65 611.33
  C 793.33 611.69 791.22 611.81 790.29 612.12
  A 0.72 0.71 80.8 0 0 789.79 612.82
  C 789.82 614.86 791.13 617.71 791.77 620.35
  Q 799.98 654.16 802.49 661.77
  Q 809.16 681.99 812.74 691.54
  Q 817.01 702.91 823.02 713.49
  Q 824.33 715.79 825.66 717.46
  A 1.42 1.42 0.0 0 0 827.18 717.93
  Q 886.56 699.47 937.18 683.57
  C 941.71 682.15 946.69 680.14 951.10 678.86
  Q 965.40 674.71 978.28 669.52
  Q 983.79 667.30 987.66 664.68
  C 990.97 662.44 989.11 656.17 987.89 653.23
  Q 983.15 641.82 976.57 630.91
  A 1.20 1.19 59.3 0 0 974.95 630.49
  C 969.16 633.88 961.82 637.41 954.98 638.11
  Q 953.34 638.27 947.75 639.12
  A 8.67 8.62 -62.3 0 0 945.23 639.91
  Q 938.09 643.44 932.67 646.65
  C 922.40 652.74 914.97 656.24 904.45 662.47
  C 895.54 667.74 882.32 675.13 874.02 679.76
  Q 867.96 683.14 865.03 683.79
  Q 856.78 685.63 853.77 678.29
  Q 846.98 661.75 839.96 650.71
  C 834.69 642.41 828.55 636.07 819.63 632.12
  C 816.76 630.85 813.10 630.36 810.69 629.67
  A 1.92 1.86 -11.3 0 1 809.79 629.09
  Q 808.26 627.29 808.81 624.87
  C 810.02 619.57 818.59 621.74 821.97 623.10
  C 832.12 627.19 838.82 633.18 845.31 642.56
  Q 853.72 654.71 860.26 670.99
  Q 860.65 671.96 862.39 674.13
  A 0.89 0.88 64.8 0 0 863.26 674.45
  Q 865.18 674.06 866.51 673.29
  Q 894.00 657.44 919.55 643.27
  C 924.99 640.25 928.79 638.58 934.64 635.91
  Q 935.00 635.74 935.14 635.52
  A 0.74 0.73 28.1 0 0 934.81 634.46
  C 926.24 630.61 919.87 624.74 915.38 616.29
  Q 907.90 602.21 910.23 586.09
  C 910.60 583.53 911.60 581.90 911.83 579.94
  A 0.53 0.52 85.6 0 0 911.17 579.37
  Z
  M 974.80 681.93
  A 0.78 0.78 0.0 0 0 973.75 681.14
  Q 960.79 685.88 946.42 690.40
  Q 856.37 718.68 831.60 726.10
  Q 820.81 729.33 815.46 719.50
  C 797.01 685.54 788.89 646.62 779.01 609.28
  Q 774.92 593.85 764.65 582.25
  A 1.01 1.01 0.0 0 0 762.98 582.49
  Q 760.94 586.80 760.19 590.54
  Q 759.63 593.35 760.76 598.96
  Q 770.10 645.48 782.77 694.48
  Q 786.45 708.70 793.53 731.27
  Q 795.42 737.29 797.95 741.91
  C 802.21 749.70 811.85 747.56 819.00 745.54
  Q 898.99 722.99 956.86 705.06
  Q 962.24 703.39 966.65 701.90
  C 972.39 699.97 972.74 695.91 973.84 689.96
  Q 974.42 686.83 974.80 681.93
  Z"
/>
<path fill="#030151" d="
  M 136.07 526.99
  Q 137.04 527.95 137.47 528.09
  Q 155.69 534.00 173.93 539.90
  Q 174.43 540.06 175.47 539.99
  Q 175.49 540.31 175.79 540.40
  Q 186.48 543.50 199.19 548.08
  C 205.46 550.33 209.78 552.39 207.93 560.25
  Q 207.30 562.98 203.14 576.27
  A 2.11 2.10 -73.4 0 0 204.56 578.92
  Q 216.48 582.33 228.48 588.27
  C 232.64 590.32 234.81 593.39 233.38 598.05
  Q 231.20 605.11 229.08 609.81
  Q 219.96 629.97 210.93 649.74
  Q 210.34 651.03 210.32 652.32
  Q 209.03 653.58 208.40 654.93
  Q 200.02 673.02 192.01 691.29
  Q 191.86 691.65 191.73 693.12
  Q 191.13 693.08 190.96 693.46
  Q 176.72 725.57 163.24 754.71
  C 160.26 761.14 157.33 766.33 149.52 766.90
  A 4.55 4.50 50.1 0 1 148.06 766.76
  Q 139.87 764.57 137.76 763.78
  Q 101.28 750.31 96.89 748.60
  Q 75.18 740.14 48.50 730.25
  C 43.75 728.48 37.82 726.09 39.40 719.90
  Q 41.24 712.69 44.20 705.13
  Q 45.23 702.51 42.54 701.69
  Q 32.84 698.75 28.13 696.49
  Q 22.21 693.64 23.21 687.01
  Q 23.74 683.47 26.04 675.51
  Q 41.72 621.31 58.50 577.17
  Q 70.47 545.66 77.25 531.24
  Q 81.20 522.84 83.77 519.74
  Q 86.29 516.69 92.28 516.12
  A 3.06 2.88 -36.9 0 1 93.44 516.25
  C 95.62 516.97 99.48 517.42 102.42 518.30
  Q 116.80 522.60 134.80 527.35
  Q 135.57 527.55 136.07 526.99
  Z
  M 197.03 556.52
  C 193.77 555.20 190.20 554.81 186.44 553.65
  Q 160.09 545.45 133.60 537.19
  Q 111.75 530.38 104.06 528.19
  Q 97.59 526.35 92.34 525.91
  A 2.45 2.45 0.0 0 0 90.00 527.16
  Q 87.76 531.18 84.96 537.69
  Q 64.95 584.17 47.89 635.91
  C 42.75 651.50 37.64 670.74 33.03 684.56
  C 31.84 688.14 34.02 688.68 37.06 690.10
  Q 39.70 691.34 42.50 692.25
  Q 109.46 713.93 114.79 715.83
  C 121.39 718.18 128.87 719.81 135.79 721.93
  C 140.25 723.29 141.42 718.71 142.79 715.54
  Q 145.33 709.65 153.83 686.61
  Q 170.30 641.98 185.32 599.57
  Q 192.43 579.49 198.22 558.94
  A 2.02 2.02 0.0 0 0 197.03 556.52
  Z
  M 52.73 706.51
  L 48.89 719.42
  A 1.24 1.23 18.4 0 0 49.65 720.93
  Q 60.52 724.83 60.62 724.87
  Q 88.52 735.80 135.97 753.38
  Q 136.38 753.53 144.13 755.98
  C 148.84 757.47 151.23 757.68 153.49 752.74
  Q 189.38 674.44 210.00 628.52
  Q 220.57 604.98 222.97 598.23
  Q 223.87 595.71 221.60 594.93
  Q 210.03 590.98 200.13 586.80
  A 0.74 0.74 0.0 0 0 199.12 587.29
  Q 198.42 589.91 197.83 591.61
  C 184.26 630.77 170.45 670.59 155.78 708.29
  Q 151.48 719.35 151.37 719.65
  C 148.05 728.66 141.54 733.89 131.76 730.81
  Q 94.31 719.00 90.31 717.75
  C 78.02 713.93 66.64 709.85 53.72 705.97
  A 0.80 0.80 0.0 0 0 52.73 706.51
  Z"
/>
<path fill="#030151" d="
  M 690.77 738.57
  Q 690.18 739.35 690.18 740.75
  Q 690.14 756.62 690.00 772.50
  Q 689.96 776.82 689.93 781.30
  Q 690.45 834.58 690.42 851.43
  Q 690.39 864.18 678.09 868.35
  Q 675.73 869.15 668.00 869.48
  Q 659.99 869.81 630.25 870.07
  Q 630.20 870.07 620.76 870.30
  Q 583.34 871.22 540.38 870.80
  A 1.03 1.02 88.2 0 0 539.35 871.90
  Q 540.14 882.72 542.34 893.93
  C 543.51 899.85 545.53 905.61 552.22 906.82
  Q 555.84 907.47 560.55 908.19
  C 567.02 909.18 571.70 914.16 569.32 920.76
  Q 567.50 925.83 561.47 925.71
  Q 555.06 925.58 539.26 925.67
  Q 487.20 925.97 433.31 925.94
  C 428.59 925.93 423.46 926.27 423.10 920.68
  Q 422.63 913.20 429.35 909.77
  Q 432.17 908.34 437.28 908.01
  C 447.51 907.37 449.53 899.63 450.87 890.72
  C 452.18 882.03 453.28 876.69 453.15 872.41
  A 0.77 0.77 0.0 0 0 452.36 871.67
  C 432.97 872.24 410.87 871.78 387.22 872.19
  Q 357.96 872.70 333.33 872.52
  C 328.28 872.49 323.22 871.99 318.05 871.75
  Q 315.25 871.62 310.95 869.88
  Q 301.05 865.89 300.85 855.38
  C 300.59 841.45 301.11 829.43 301.07 815.25
  Q 301.03 796.72 301.26 778.58
  Q 302.14 756.59 301.58 734.84
  C 302.10 733.22 301.35 731.73 301.33 730.41
  C 300.82 698.75 301.34 662.81 301.49 615.75
  C 301.52 605.63 306.50 598.28 317.24 598.33
  Q 363.12 598.53 405.25 598.22
  Q 539.26 597.23 669.57 597.10
  C 679.11 597.09 684.23 597.43 688.55 604.88
  Q 689.85 607.13 689.88 612.36
  Q 689.94 621.07 689.93 629.75
  Q 689.82 700.26 689.88 737.50
  Q 689.88 738.61 690.77 738.57
  Z
  M 672.0506 622.1945
  A 0.69 0.69 0.0 0 0 671.3582 621.5069
  L 320.0604 622.7332
  A 0.69 0.69 0.0 0 0 319.3728 623.4256
  L 319.4494 645.3655
  A 0.69 0.69 0.0 0 0 320.1418 646.0531
  L 671.4396 644.8268
  A 0.69 0.69 0.0 0 0 672.1272 644.1344
  L 672.0506 622.1945
  Z
  M 319.45 768.72
  A 0.59 0.59 0.0 0 0 320.05 769.32
  L 670.38 767.89
  A 0.59 0.59 0.0 0 0 670.96 767.31
  L 671.63 654.45
  A 0.59 0.59 0.0 0 0 671.03 653.85
  L 320.70 655.27
  A 0.59 0.59 0.0 0 0 320.12 655.85
  L 319.45 768.72
  Z
  M 671.1267 777.3438
  A 0.43 0.43 0.0 0 0 670.6959 776.9146
  L 320.6965 777.5255
  A 0.43 0.43 0.0 0 0 320.2672 777.9562
  L 320.3133 804.3562
  A 0.43 0.43 0.0 0 0 320.7441 804.7854
  L 670.7435 804.1745
  A 0.43 0.43 0.0 0 0 671.1728 803.7438
  L 671.1267 777.3438
  Z
  M 310.95 815.82
  Q 310.99 827.60 311.05 850.73
  C 311.06 855.82 311.76 859.88 317.21 860.80
  Q 323.86 861.92 329.50 861.92
  Q 389.73 861.93 427.50 861.53
  Q 438.78 861.41 554.75 861.14
  Q 605.86 861.02 660.75 860.07
  Q 661.27 860.06 671.12 859.66
  Q 679.62 859.32 679.80 851.01
  Q 680.21 832.42 679.92 815.00
  A 0.88 0.88 0.0 0 0 679.04 814.14
  C 648.06 814.15 616.13 814.88 584.34 814.89
  Q 432.25 814.96 311.59 815.18
  A 0.64 0.64 0.0 0 0 310.95 815.82
  Z"
/>
<path fill="#de6521" d="
  M 210.32 652.32
  Q 231.79 681.03 258.22 704.77
  Q 275.06 719.88 294.43 731.59
  Q 297.75 733.60 301.58 734.84
  Q 302.14 756.59 301.26 778.58
  Q 283.12 769.97 267.36 759.63
  C 239.63 741.44 214.58 719.92 193.31 694.45
  Q 192.61 693.62 191.73 693.12
  Q 191.86 691.65 192.01 691.29
  Q 200.02 673.02 208.40 654.93
  Q 209.03 653.58 210.32 652.32
  Z"
/>
<path fill="#de6521" d="
  M 780.03 720.88
  C 776.18 724.00 772.03 728.01 768.91 730.62
  Q 745.71 750.00 719.83 765.56
  C 710.92 770.91 699.99 776.17 689.93 781.30
  Q 689.96 776.82 690.00 772.50
  Q 690.14 756.62 690.18 740.75
  Q 690.18 739.35 690.77 738.57
  Q 700.42 732.43 709.99 726.21
  C 731.20 712.41 750.79 694.89 768.15 676.74
  Q 768.82 677.31 769.08 678.44
  Q 773.44 697.83 780.22 719.30
  Q 780.52 720.24 780.03 720.88
  Z"
/>
</g>
<g>
<path fill="#f3ddb7" d="
  M 539.41 196.57
  A 0.85 0.85 0.0 0 1 540.19 195.89
  C 549.89 195.27 559.04 193.05 565.86 186.39
  C 572.89 179.51 576.22 169.38 570.72 160.55
  C 565.65 152.39 554.75 151.49 547.50 157.25
  C 539.53 163.56 535.42 174.49 532.64 185.09
  A 1.24 1.24 0.0 0 1 531.43 186.01
  L 519.34 185.79
  A 1.45 1.44 -89.2 0 1 517.93 184.33
  Q 518.04 171.20 511.13 160.96
  C 509.68 158.80 506.06 155.65 503.38 154.76
  Q 491.30 150.76 484.17 160.95
  C 480.62 166.01 480.36 172.41 482.83 178.39
  Q 489.05 193.48 506.52 195.20
  A 0.95 0.95 0.0 0 1 507.36 196.32
  L 496.08 256.73
  A 0.47 0.47 0.0 0 1 495.51 257.10
  Q 487.35 255.21 479.35 252.10
  Q 475.75 250.70 475.00 246.75
  C 472.24 232.16 469.10 217.57 464.14 203.86
  Q 462.08 198.19 455.91 182.34
  Q 450.71 168.99 449.13 154.28
  C 443.85 105.23 483.90 64.46 532.89 67.15
  Q 565.27 68.94 587.42 91.65
  Q 598.55 103.06 604.20 118.55
  Q 609.65 133.52 607.78 149.94
  C 605.13 173.24 593.34 191.26 577.74 208.51
  C 567.68 219.64 558.13 231.97 551.43 245.55
  Q 546.44 255.65 546.27 256.03
  Q 544.76 259.44 541.14 260.17
  Q 534.09 261.59 526.79 261.58
  A 0.64 0.63 6.3 0 1 526.17 260.82
  L 539.41 196.57
  Z"
/>
<path fill="#f3ddb7" d="
  M 544.82 184.20
  A 0.46 0.46 0.0 0 1 544.30 183.64
  Q 546.39 174.73 551.63 168.00
  C 553.85 165.16 560.27 162.22 561.91 167.56
  C 563.62 173.12 559.10 178.54 554.51 181.04
  Q 550.28 183.35 544.82 184.20
  Z"
/>
<path fill="#f3ddb7" d="
  M 508.06 184.30
  A 0.41 0.41 0.0 0 1 507.60 184.77
  Q 498.65 183.47 494.19 176.09
  Q 491.18 171.10 493.37 166.36
  A 2.71 2.70 10.3 0 1 495.62 164.81
  C 505.06 164.07 506.92 177.68 508.06 184.30
  Z"
/>
<path fill="#f3ddb7" d="
  M 515.79 260.54
  L 506.16 259.25
  A 0.34 0.34 0.0 0 1 505.88 258.85
  L 517.38 197.25
  A 0.34 0.34 0.0 0 1 517.72 196.98
  L 528.75 197.17
  A 0.34 0.34 0.0 0 1 529.08 197.58
  L 516.16 260.27
  A 0.34 0.34 0.0 0 1 515.79 260.54
  Z"
/>
<path fill="#f3ddb7" d="
  M 918.23 376.59
  L 876.78 376.77
  A 1.17 1.17 0.0 0 1 875.61 375.59
  L 876.59 207.43
  A 1.17 1.17 0.0 0 1 877.77 206.27
  L 921.28 206.52
  A 1.17 1.17 0.0 0 1 922.44 207.71
  L 919.39 375.45
  A 1.17 1.17 0.0 0 1 918.23 376.59
  Z"
/>
<path fill="#ffffff" d="
  M 183.64 385.53
  A 0.60 0.60 0.0 0 1 183.07 384.94
  L 182.10 290.59
  A 1.52 1.52 0.0 0 1 183.29 289.09
  C 200.93 285.12 210.76 266.46 215.62 250.64
  Q 216.43 247.99 218.60 238.94
  C 220.23 232.17 220.43 224.46 221.93 217.96
  C 222.36 216.08 223.12 214.20 225.14 213.48
  C 229.76 211.84 233.41 214.35 236.06 217.92
  Q 241.15 224.77 241.40 233.96
  C 241.72 245.93 239.47 257.33 236.52 268.78
  C 233.74 279.61 240.45 280.83 249.22 279.63
  Q 270.21 276.76 290.00 275.31
  C 297.02 274.79 308.29 277.80 304.97 287.26
  C 302.14 295.32 292.92 296.22 284.62 296.82
  Q 279.65 297.18 265.78 297.49
  C 261.99 297.58 258.18 299.68 259.26 304.10
  C 260.53 309.30 266.68 309.24 271.33 308.88
  Q 288.34 307.56 295.74 306.48
  Q 306.57 304.90 309.74 314.47
  C 310.44 316.59 309.64 318.60 308.67 320.82
  Q 306.39 326.08 300.73 327.70
  C 292.73 329.99 286.22 330.22 277.42 330.18
  C 273.36 330.16 267.85 330.74 264.76 330.98
  C 258.23 331.48 258.76 340.25 264.66 340.84
  Q 270.65 341.44 279.00 340.88
  Q 288.72 340.21 298.02 339.59
  Q 304.89 339.13 307.65 344.99
  C 310.50 351.02 305.99 357.84 300.24 359.71
  C 290.20 362.98 279.81 362.21 268.27 362.05
  C 264.31 361.99 260.35 363.47 261.17 368.36
  Q 261.86 372.44 266.52 372.79
  Q 275.41 373.47 287.68 372.25
  C 291.82 371.84 301.34 370.90 303.76 372.70
  C 306.79 374.98 306.38 378.32 304.07 381.13
  C 299.39 386.83 290.35 387.41 283.21 387.90
  Q 277.46 388.29 262.57 388.96
  C 251.66 389.45 239.15 388.29 227.14 388.16
  Q 221.02 388.09 212.37 387.45
  Q 197.69 386.35 183.64 385.53
  Z"
/>
<path fill="#ffffff" d="
  M 711.7253 338.7568
  A 56.33 52.26 118.6 0 1 692.8066 264.2836
  A 56.33 52.26 118.6 0 1 765.6547 239.8432
  A 56.33 52.26 118.6 0 1 784.5734 314.3164
  A 56.33 52.26 118.6 0 1 711.7253 338.7568
  Z
  M 719.5534 332.8089
  A 47.60 44.15 113.6 0 0 779.0674 306.8654
  A 47.60 44.15 113.6 0 0 757.6666 245.5711
  A 47.60 44.15 113.6 0 0 698.1526 271.5146
  A 47.60 44.15 113.6 0 0 719.5534 332.8089
  Z"
/>
<path fill="#4f778f" d="
  M 538.06 272.68
  A 0.76 0.75 8.1 0 1 538.67 273.48
  Q 538.14 280.02 536.11 286.25
  A 2.99 2.99 0.0 0 1 533.52 288.31
  Q 527.81 288.81 522.38 288.60
  Q 495.96 287.60 471.60 277.73
  A 0.99 0.97 -75.5 0 1 471.00 276.69
  L 472.88 262.63
  A 1.11 1.09 -89.3 0 1 473.83 261.69
  Q 474.95 261.54 475.89 261.84
  C 483.91 264.35 489.35 266.37 496.83 267.99
  Q 511.05 271.08 526.67 272.46
  C 530.26 272.78 535.42 272.17 538.06 272.68
  Z"
/>
<rect fill="#de6521" x="815.55" y="267.09" width="33.94" height="110.22" rx="2.07"/>
<rect fill="#4f778f" x="-20.70" y="-49.23" transform="translate(151.52,337.89) rotate(-0.4)" width="41.40" height="98.46" rx="1.80"/>
<path fill="#4f778f" d="
  M 531.59 297.45
  A 0.54 0.53 -76.3 0 1 531.95 298.05
  Q 529.99 309.28 518.43 310.93
  Q 495.03 314.28 474.48 303.03
  C 470.95 301.10 470.52 293.11 470.81 289.68
  A 1.12 1.12 0.0 0 1 472.29 288.72
  Q 492.96 295.87 513.78 297.47
  Q 521.56 298.06 530.01 297.34
  Q 530.97 297.26 531.59 297.45
  Z"
/>
<path fill="#f3ddb7" d="
  M 775.22 339.50
  A 0.69 0.68 80.4 0 1 776.13 340.15
  L 775.92 375.52
  A 1.86 1.86 0.0 0 1 774.67 377.26
  Q 773.08 377.80 769.00 377.82
  Q 755.24 377.90 749.43 377.89
  Q 747.16 377.89 747.20 375.50
  Q 747.32 367.46 747.24 354.52
  A 1.47 1.47 0.0 0 1 748.39 353.07
  Q 762.59 349.86 774.71 339.74
  Q 774.83 339.64 775.22 339.50
  Z"
/>
<path fill="#ffffff" d="
  M 702.10 363.00
  L 694.14 358.40
  A 0.79 0.79 0.0 0 1 693.88 357.28
  L 702.35 344.72
  A 0.79 0.79 0.0 0 1 703.34 344.45
  L 709.49 347.32
  A 0.79 0.79 0.0 0 1 709.87 348.37
  L 703.21 362.65
  A 0.79 0.79 0.0 0 1 702.10 363.00
  Z"
/>
<path fill="#ffffff" d="
  M 695.36 371.23
  A 2.83 2.83 0.0 0 1 696.20 375.15
  L 682.46 396.46
  A 21.99 4.91 -57.2 0 1 666.43 412.29
  L 664.91 411.31
  A 21.99 4.91 -57.2 0 1 672.70 390.17
  L 686.43 368.85
  A 2.83 2.83 0.0 0 1 690.35 368.01
  L 695.36 371.23
  Z"
/>
<path fill="#ffffff" d="
  M 887.91 533.28
  A 0.34 0.33 80.9 0 1 887.45 532.94
  C 888.00 525.74 888.30 519.02 893.75 514.20
  C 898.47 510.02 905.82 509.12 911.32 512.72
  Q 917.60 516.83 918.65 525.44
  A 0.56 0.55 88.7 0 1 918.06 526.06
  Q 915.55 525.86 913.38 526.38
  C 908.98 527.42 900.85 530.00 896.10 531.02
  Q 890.42 532.25 887.91 533.28
  Z"
/>
<path fill="#ffffff" d="
  M 197.03 556.52
  A 2.02 2.02 0.0 0 1 198.22 558.94
  Q 192.43 579.49 185.32 599.57
  Q 170.30 641.98 153.83 686.61
  Q 145.33 709.65 142.79 715.54
  C 141.42 718.71 140.25 723.29 135.79 721.93
  C 128.87 719.81 121.39 718.18 114.79 715.83
  Q 109.46 713.93 42.50 692.25
  Q 39.70 691.34 37.06 690.10
  C 34.02 688.68 31.84 688.14 33.03 684.56
  C 37.64 670.74 42.75 651.50 47.89 635.91
  Q 64.95 584.17 84.96 537.69
  Q 87.76 531.18 90.00 527.16
  A 2.45 2.45 0.0 0 1 92.34 525.91
  Q 97.59 526.35 104.06 528.19
  Q 111.75 530.38 133.60 537.19
  Q 160.09 545.45 186.44 553.65
  C 190.20 554.81 193.77 555.20 197.03 556.52
  Z
  M 107.1902 578.3884
  A 8.93 8.60 45.4 0 0 107.0434 565.9915
  A 8.93 8.60 45.4 0 0 94.6498 565.6716
  A 8.93 8.60 45.4 0 0 94.7966 578.0685
  A 8.93 8.60 45.4 0 0 107.1902 578.3884
  Z
  M 163.7305 589.5957
  A 4.51 4.51 0.0 0 0 160.6383 584.0172
  L 125.1486 573.8407
  A 4.51 4.51 0.0 0 0 119.5701 576.9329
  L 119.5095 577.1443
  A 4.51 4.51 0.0 0 0 122.6017 582.7228
  L 158.0914 592.8993
  A 4.51 4.51 0.0 0 0 163.6699 589.8071
  L 163.7305 589.5957
  Z
  M 94.1044 617.5007
  A 9.05 8.81 23.1 0 0 89.2365 605.8464
  A 9.05 8.81 23.1 0 0 77.4556 610.3993
  A 9.05 8.81 23.1 0 0 82.3235 622.0536
  A 9.05 8.81 23.1 0 0 94.1044 617.5007
  Z
  M 149.8155 633.8188
  A 4.50 4.50 0.0 0 0 146.9759 628.1235
  L 109.4033 615.5519
  A 4.50 4.50 0.0 0 0 103.7080 618.3915
  L 103.6445 618.5812
  A 4.50 4.50 0.0 0 0 106.4841 624.2765
  L 144.0567 636.8481
  A 4.50 4.50 0.0 0 0 149.7520 634.0085
  L 149.8155 633.8188
  Z
  M 79.93 654.78
  A 8.93 8.93 0.0 0 0 71.00 645.85
  A 8.93 8.93 0.0 0 0 62.07 654.78
  A 8.93 8.93 0.0 0 0 71.00 663.71
  A 8.93 8.93 0.0 0 0 79.93 654.78
  Z
  M 132.5901 674.9784
  A 4.56 4.56 0.0 0 0 129.7631 669.1822
  L 92.8312 656.4655
  A 4.56 4.56 0.0 0 0 87.0350 659.2925
  L 86.9699 659.4816
  A 4.56 4.56 0.0 0 0 89.7969 665.2778
  L 126.7288 677.9945
  A 4.56 4.56 0.0 0 0 132.5250 675.1675
  L 132.5901 674.9784
  Z"
/>
<path fill="#de6521" d="
  M 841.76 546.23
  L 842.25 528.98
  A 0.48 0.48 0.0 0 0 841.79 528.49
  L 841.05 528.45
  Q 847.19 527.27 852.31 530.71
  C 855.31 532.72 859.32 535.99 860.98 539.41
  A 1.21 1.21 0.0 0 1 860.21 541.10
  L 841.76 546.23
  Z"
/>
<path fill="#ffffff" d="
  M 841.05 528.45
  L 841.79 528.49
  A 0.48 0.48 0.0 0 1 842.25 528.98
  L 841.76 546.23
  L 830.17 549.43
  A 0.92 0.92 0.0 0 1 829.01 548.66
  Q 828.46 544.76 828.60 540.46
  Q 828.81 534.05 834.74 530.77
  Q 838.34 528.77 841.05 528.45
  Z"
/>
<path fill="#de6521" d="
  M 862.26 551.11
  Q 861.20 555.61 859.18 560.98
  Q 858.59 562.55 859.15 564.79
  A 2.14 2.07 17.5 0 0 859.65 565.71
  Q 861.03 567.18 863.15 567.08
  C 868.44 566.85 870.78 552.33 870.87 548.46
  A 1.26 1.26 0.0 0 1 871.75 547.29
  Q 893.94 540.44 917.13 534.82
  A 0.76 0.76 0.0 0 1 918.06 535.71
  Q 916.95 541.44 913.77 547.28
  A 3.61 3.61 0.0 0 0 915.53 552.35
  L 915.61 552.39
  A 4.48 4.48 0.0 0 0 921.20 550.56
  Q 925.74 542.93 926.90 535.00
  A 1.96 1.95 -0.4 0 1 928.52 533.36
  C 932.82 532.68 940.76 532.32 944.09 535.99
  Q 948.84 541.24 948.68 548.88
  A 2.11 2.11 0.0 0 1 947.03 550.89
  Q 936.65 553.24 928.04 558.76
  C 924.55 560.99 922.23 563.64 918.96 566.94
  Q 917.56 568.34 915.31 569.05
  C 912.04 570.09 904.47 571.62 900.83 572.62
  Q 877.61 578.93 792.82 602.35
  Q 790.78 602.92 788.64 603.27
  A 1.65 1.65 0.0 0 1 786.83 602.23
  C 783.93 594.50 780.30 587.07 775.19 580.10
  Q 774.27 578.85 773.75 577.45
  A 1.67 1.66 68.0 0 1 774.64 575.33
  Q 786.73 570.08 801.15 566.64
  A 0.84 0.83 -89.7 0 1 802.15 567.66
  Q 800.86 572.87 798.80 578.47
  Q 797.83 581.12 800.55 583.30
  C 807.56 588.91 810.81 567.88 811.18 565.14
  A 1.43 1.42 86.3 0 1 812.21 563.96
  L 861.34 550.23
  A 0.74 0.74 0.0 0 1 862.26 551.11
  Z"
/>
<path fill="#ffffff" d="
  M 771.27 567.02
  A 0.38 0.37 -3.7 0 1 770.86 566.67
  C 770.59 562.25 770.33 557.25 771.46 553.57
  Q 774.29 544.33 785.50 544.63
  C 792.23 544.81 797.12 549.37 800.67 554.86
  A 1.84 1.84 0.0 0 1 799.50 557.66
  Q 784.83 560.70 772.45 566.70
  Q 771.90 566.97 771.27 567.02
  Z"
/>
<path fill="#d14646" d="
  M 930.01 621.93
  C 924.26 615.04 919.36 606.67 918.78 597.70
  C 918.29 590.13 918.80 584.01 922.39 577.63
  Q 922.97 576.62 927.28 571.01
  C 929.64 567.95 932.81 565.94 935.89 564.03
  Q 942.76 559.79 951.88 558.90
  C 960.48 558.06 969.81 563.89 974.71 570.22
  C 989.26 589.01 986.98 614.42 965.20 626.51
  Q 956.35 631.43 947.02 629.99
  Q 939.90 628.90 930.83 622.67
  A 3.73 3.54 -1.5 0 1 930.01 621.93
  Z
  M 955.29 601.06
  C 958.02 601.29 961.87 603.92 965.97 606.12
  A 4.19 4.19 0.0 0 0 971.43 604.77
  L 971.70 604.38
  A 3.69 3.69 0.0 0 0 970.48 599.12
  L 959.51 592.79
  A 1.49 1.48 -64.2 0 1 958.88 590.95
  L 963.02 580.71
  A 3.80 3.79 22.0 0 0 960.92 575.78
  L 960.50 575.61
  A 3.98 3.98 0.0 0 0 955.32 577.81
  L 950.93 588.69
  A 1.27 1.27 0.0 0 1 949.04 589.26
  L 940.44 583.46
  A 5.08 5.07 -49.4 0 0 934.16 583.95
  L 933.87 584.22
  A 3.31 3.31 0.0 0 0 934.21 589.28
  Q 939.85 593.41 945.89 595.73
  A 2.11 2.10 23.0 0 1 947.05 598.59
  L 941.44 610.63
  A 4.68 4.68 0.0 0 0 943.08 616.49
  L 943.57 616.82
  A 3.68 3.68 0.0 0 0 949.03 615.14
  L 954.53 601.52
  A 0.75 0.75 0.0 0 1 955.29 601.06
  Z"
/>
<path fill="#ffffff" d="
  M 911.83 579.94
  C 911.60 581.90 910.60 583.53 910.23 586.09
  Q 907.90 602.21 915.38 616.29
  C 919.87 624.74 926.24 630.61 934.81 634.46
  A 0.74 0.73 28.1 0 1 935.14 635.52
  Q 935.00 635.74 934.64 635.91
  C 928.79 638.58 924.99 640.25 919.55 643.27
  Q 894.00 657.44 866.51 673.29
  Q 865.18 674.06 863.26 674.45
  A 0.89 0.88 64.8 0 1 862.39 674.13
  Q 860.65 671.96 860.26 670.99
  Q 853.72 654.71 845.31 642.56
  C 838.82 633.18 832.12 627.19 821.97 623.10
  C 818.59 621.74 810.02 619.57 808.81 624.87
  Q 808.26 627.29 809.79 629.09
  A 1.92 1.86 -11.3 0 0 810.69 629.67
  C 813.10 630.36 816.76 630.85 819.63 632.12
  C 828.55 636.07 834.69 642.41 839.96 650.71
  Q 846.98 661.75 853.77 678.29
  Q 856.78 685.63 865.03 683.79
  Q 867.96 683.14 874.02 679.76
  C 882.32 675.13 895.54 667.74 904.45 662.47
  C 914.97 656.24 922.40 652.74 932.67 646.65
  Q 938.09 643.44 945.23 639.91
  A 8.67 8.62 -62.3 0 1 947.75 639.12
  Q 953.34 638.27 954.98 638.11
  C 961.82 637.41 969.16 633.88 974.95 630.49
  A 1.20 1.19 59.3 0 1 976.57 630.91
  Q 983.15 641.82 987.89 653.23
  C 989.11 656.17 990.97 662.44 987.66 664.68
  Q 983.79 667.30 978.28 669.52
  Q 965.40 674.71 951.10 678.86
  C 946.69 680.14 941.71 682.15 937.18 683.57
  Q 886.56 699.47 827.18 717.93
  A 1.42 1.42 0.0 0 1 825.66 717.46
  Q 824.33 715.79 823.02 713.49
  Q 817.01 702.91 812.74 691.54
  Q 809.16 681.99 802.49 661.77
  Q 799.98 654.16 791.77 620.35
  C 791.13 617.71 789.82 614.86 789.79 612.82
  A 0.72 0.71 80.8 0 1 790.29 612.12
  C 791.22 611.81 793.33 611.69 794.65 611.33
  Q 817.43 605.12 885.68 586.04
  C 894.67 583.53 901.69 581.96 911.17 579.37
  A 0.53 0.52 85.6 0 1 911.83 579.94
  Z"
/>
<path fill="#f3ddb7" d="
  M 974.80 681.93
  Q 974.42 686.83 973.84 689.96
  C 972.74 695.91 972.39 699.97 966.65 701.90
  Q 962.24 703.39 956.86 705.06
  Q 898.99 722.99 819.00 745.54
  C 811.85 747.56 802.21 749.70 797.95 741.91
  Q 795.42 737.29 793.53 731.27
  Q 786.45 708.70 782.77 694.48
  Q 770.10 645.48 760.76 598.96
  Q 759.63 593.35 760.19 590.54
  Q 760.94 586.80 762.98 582.49
  A 1.01 1.01 0.0 0 1 764.65 582.25
  Q 774.92 593.85 779.01 609.28
  C 788.89 646.62 797.01 685.54 815.46 719.50
  Q 820.81 729.33 831.60 726.10
  Q 856.37 718.68 946.42 690.40
  Q 960.79 685.88 973.75 681.14
  A 0.78 0.78 0.0 0 1 974.80 681.93
  Z"
/>
<path fill="#f3ddb7" d="
  M 52.73 706.51
  A 0.80 0.80 0.0 0 1 53.72 705.97
  C 66.64 709.85 78.02 713.93 90.31 717.75
  Q 94.31 719.00 131.76 730.81
  C 141.54 733.89 148.05 728.66 151.37 719.65
  Q 151.48 719.35 155.78 708.29
  C 170.45 670.59 184.26 630.77 197.83 591.61
  Q 198.42 589.91 199.12 587.29
  A 0.74 0.74 0.0 0 1 200.13 586.80
  Q 210.03 590.98 221.60 594.93
  Q 223.87 595.71 222.97 598.23
  Q 220.57 604.98 210.00 628.52
  Q 189.38 674.44 153.49 752.74
  C 151.23 757.68 148.84 757.47 144.13 755.98
  Q 136.38 753.53 135.97 753.38
  Q 88.52 735.80 60.62 724.87
  Q 60.52 724.83 49.65 720.93
  A 1.24 1.23 18.4 0 1 48.89 719.42
  L 52.73 706.51
  Z"
/>
<path fill="#f3ddb7" d="
  M 672.1272 644.1344
  A 0.69 0.69 0.0 0 1 671.4396 644.8268
  L 320.1418 646.0531
  A 0.69 0.69 0.0 0 1 319.4494 645.3655
  L 319.3728 623.4256
  A 0.69 0.69 0.0 0 1 320.0604 622.7332
  L 671.3582 621.5069
  A 0.69 0.69 0.0 0 1 672.0506 622.1945
  L 672.1272 644.1344
  Z
  M 347.7890 632.7433
  A 4.29 4.07 -4.1 0 0 343.2190 628.9904
  A 4.29 4.07 -4.1 0 0 339.2310 633.3567
  A 4.29 4.07 -4.1 0 0 343.8010 637.1096
  A 4.29 4.07 -4.1 0 0 347.7890 632.7433
  Z
  M 364.99 633.20
  A 4.13 4.13 0.0 0 0 360.86 629.07
  A 4.13 4.13 0.0 0 0 356.73 633.20
  A 4.13 4.13 0.0 0 0 360.86 637.33
  A 4.13 4.13 0.0 0 0 364.99 633.20
  Z"
/>
<path fill="#ffffff" d="
  M 319.45 768.72
  L 320.12 655.85
  A 0.59 0.59 0.0 0 1 320.70 655.27
  L 671.03 653.85
  A 0.59 0.59 0.0 0 1 671.63 654.45
  L 670.96 767.31
  A 0.59 0.59 0.0 0 1 670.38 767.89
  L 320.05 769.32
  A 0.59 0.59 0.0 0 1 319.45 768.72
  Z
  M 650.8869 675.0464
  A 7.62 7.62 0.0 0 0 643.2536 667.4397
  L 551.2137 667.6004
  A 7.62 7.62 0.0 0 0 543.6070 675.2337
  L 543.7331 747.4936
  A 7.62 7.62 0.0 0 0 551.3664 755.1003
  L 643.4063 754.9396
  A 7.62 7.62 0.0 0 0 651.0130 747.3063
  L 650.8869 675.0464
  Z
  M 481.7198 678.4510
  A 4.29 4.29 0.0 0 0 477.4223 674.1685
  L 349.6025 674.3916
  A 4.29 4.29 0.0 0 0 345.3200 678.6890
  L 345.3202 678.7690
  A 4.29 4.29 0.0 0 0 349.6177 683.0515
  L 477.4375 682.8284
  A 4.29 4.29 0.0 0 0 481.7200 678.5310
  L 481.7198 678.4510
  Z
  M 514.8097 701.2919
  A 4.31 4.31 0.0 0 0 510.4922 696.9895
  L 349.4525 697.2705
  A 4.31 4.31 0.0 0 0 345.1500 701.5881
  L 345.1503 701.7281
  A 4.31 4.31 0.0 0 0 349.4678 706.0305
  L 510.5075 705.7495
  A 4.31 4.31 0.0 0 0 514.8100 701.4319
  L 514.8097 701.2919
  Z
  M 480.7393 722.5611
  A 3.77 3.77 0.0 0 0 476.9627 718.7977
  L 348.2629 719.0223
  A 3.77 3.77 0.0 0 0 344.4995 722.7989
  L 344.5007 723.4989
  A 3.77 3.77 0.0 0 0 348.2773 727.2623
  L 476.9771 727.0377
  A 3.77 3.77 0.0 0 0 480.7405 723.2611
  L 480.7393 722.5611
  Z
  M 443.55 745.04
  A 3.84 3.84 0.0 0 0 439.71 741.20
  L 348.83 741.20
  A 3.84 3.84 0.0 0 0 344.99 745.04
  L 344.99 745.86
  A 3.84 3.84 0.0 0 0 348.83 749.70
  L 439.71 749.70
  A 3.84 3.84 0.0 0 0 443.55 745.86
  L 443.55 745.04
  Z"
/>
<rect fill="#f3ddb7" x="-175.43" y="-13.63" transform="translate(495.72,790.85) rotate(-0.1)" width="350.86" height="27.26" rx="0.43"/>
<path fill="#ffffff" d="
  M 310.95 815.82
  A 0.64 0.64 0.0 0 1 311.59 815.18
  Q 432.25 814.96 584.34 814.89
  C 616.13 814.88 648.06 814.15 679.04 814.14
  A 0.88 0.88 0.0 0 1 679.92 815.00
  Q 680.21 832.42 679.80 851.01
  Q 679.62 859.32 671.12 859.66
  Q 661.27 860.06 660.75 860.07
  Q 605.86 861.02 554.75 861.14
  Q 438.78 861.41 427.50 861.53
  Q 389.73 861.93 329.50 861.92
  Q 323.86 861.92 317.21 860.80
  C 311.76 859.88 311.06 855.82 311.05 850.73
  Q 310.99 827.60 310.95 815.82
  Z
  M 509.1842 837.8710
  A 13.18 10.54 1.7 0 0 496.3227 826.9446
  A 13.18 10.54 1.7 0 0 482.8358 837.0890
  A 13.18 10.54 1.7 0 0 495.6973 848.0154
  A 13.18 10.54 1.7 0 0 509.1842 837.8710
  Z"
/>
</g>
<g>
<path fill="#030151" d="
  M 719.5534 332.8089
  A 47.60 44.15 113.6 0 1 698.1526 271.5146
  A 47.60 44.15 113.6 0 1 757.6666 245.5711
  A 47.60 44.15 113.6 0 1 779.0674 306.8654
  A 47.60 44.15 113.6 0 1 719.5534 332.8089
  Z
  M 724.1707 324.8419
  A 38.22 34.90 112.1 0 0 770.8858 302.5602
  A 38.22 34.90 112.1 0 0 752.9293 254.0181
  A 38.22 34.90 112.1 0 0 706.2142 276.2998
  A 38.22 34.90 112.1 0 0 724.1707 324.8419
  Z"
/>
<ellipse fill="#030151" cx="0.00" cy="0.00" transform="translate(100.92,572.03) rotate(45.4)" rx="8.93" ry="8.60"/>
<rect fill="#030151" x="-22.97" y="-4.62" transform="translate(141.62,583.37) rotate(16.0)" width="45.94" height="9.24" rx="4.51"/>
<path fill="#030151" d="
  M 955.29 601.06
  A 0.75 0.75 0.0 0 0 954.53 601.52
  L 949.03 615.14
  A 3.68 3.68 0.0 0 1 943.57 616.82
  L 943.08 616.49
  A 4.68 4.68 0.0 0 1 941.44 610.63
  L 947.05 598.59
  A 2.11 2.10 23.0 0 0 945.89 595.73
  Q 939.85 593.41 934.21 589.28
  A 3.31 3.31 0.0 0 1 933.87 584.22
  L 934.16 583.95
  A 5.08 5.07 -49.4 0 1 940.44 583.46
  L 949.04 589.26
  A 1.27 1.27 0.0 0 0 950.93 588.69
  L 955.32 577.81
  A 3.98 3.98 0.0 0 1 960.50 575.61
  L 960.92 575.78
  A 3.80 3.79 22.0 0 1 963.02 580.71
  L 958.88 590.95
  A 1.49 1.48 -64.2 0 0 959.51 592.79
  L 970.48 599.12
  A 3.69 3.69 0.0 0 1 971.70 604.38
  L 971.43 604.77
  A 4.19 4.19 0.0 0 1 965.97 606.12
  C 961.87 603.92 958.02 601.29 955.29 601.06
  Z"
/>
<ellipse fill="#030151" cx="0.00" cy="0.00" transform="translate(85.78,613.95) rotate(23.1)" rx="9.05" ry="8.81"/>
<rect fill="#030151" x="-24.31" y="-4.60" transform="translate(126.73,626.20) rotate(18.5)" width="48.62" height="9.20" rx="4.50"/>
<ellipse fill="#030151" cx="0.00" cy="0.00" transform="translate(343.51,633.05) rotate(-4.1)" rx="4.29" ry="4.07"/>
<circle fill="#030151" cx="360.86" cy="633.20" r="4.13"/>
<circle fill="#030151" cx="71.00" cy="654.78" r="8.93"/>
<rect fill="#030151" x="-24.09" y="-4.66" transform="translate(109.78,667.23) rotate(19.0)" width="48.18" height="9.32" rx="4.56"/>
<path fill="#030151" d="
  M 651.0130 747.3063
  A 7.62 7.62 0.0 0 1 643.4063 754.9396
  L 551.3664 755.1003
  A 7.62 7.62 0.0 0 1 543.7331 747.4936
  L 543.6070 675.2337
  A 7.62 7.62 0.0 0 1 551.2137 667.6004
  L 643.2536 667.4397
  A 7.62 7.62 0.0 0 1 650.8869 675.0464
  L 651.0130 747.3063
  Z
  M 642.8892 676.4505
  A 1.01 1.01 0.0 0 0 641.8774 675.4422
  L 552.7176 675.5979
  A 1.01 1.01 0.0 0 0 551.7093 676.6096
  L 551.8308 746.1895
  A 1.01 1.01 0.0 0 0 552.8426 747.1978
  L 642.0024 747.0421
  A 1.01 1.01 0.0 0 0 643.0107 746.0304
  L 642.8892 676.4505
  Z"
/>
<rect fill="#030151" x="-68.20" y="-4.33" transform="translate(413.52,678.61) rotate(-0.1)" width="136.40" height="8.66" rx="4.29"/>
<rect fill="#030151" x="-84.83" y="-4.38" transform="translate(429.98,701.51) rotate(-0.1)" width="169.66" height="8.76" rx="4.31"/>
<rect fill="#030151" x="-68.12" y="-4.12" transform="translate(412.62,723.03) rotate(-0.1)" width="136.24" height="8.24" rx="3.77"/>
<rect fill="#030151" x="344.99" y="741.20" width="98.56" height="8.50" rx="3.84"/>
<ellipse fill="#030151" cx="0.00" cy="0.00" transform="translate(496.01,837.48) rotate(1.7)" rx="13.18" ry="10.54"/>
</g>
<g>
<path fill="#f3ddb7" d="
  M 724.1707 324.8419
  A 38.22 34.90 112.1 0 1 706.2142 276.2998
  A 38.22 34.90 112.1 0 1 752.9293 254.0181
  A 38.22 34.90 112.1 0 1 770.8858 302.5602
  A 38.22 34.90 112.1 0 1 724.1707 324.8419
  Z
  M 760.83 275.45
  C 755.71 272.62 754.13 279.56 754.05 282.95
  Q 753.93 288.37 752.68 294.47
  Q 751.75 299.02 748.95 302.46
  A 3.79 3.46 -0.5 0 1 748.23 303.13
  Q 744.18 305.92 743.61 306.57
  C 740.94 309.59 741.93 313.27 745.97 313.91
  C 753.70 315.13 760.36 305.42 762.49 299.27
  C 765.05 291.90 765.62 286.15 763.35 278.54
  Q 762.74 276.50 760.83 275.45
  Z"
/>
<rect fill="#f3ddb7" x="-45.59" y="-35.80" transform="translate(597.36,711.32) rotate(-0.1)" width="91.18" height="71.60" rx="1.01"/>
</g>
<path fill="#de6521" d="
  M 754.05 282.95
  C 754.13 279.56 755.71 272.62 760.83 275.45
  Q 762.74 276.50 763.35 278.54
  C 765.62 286.15 765.05 291.90 762.49 299.27
  C 760.36 305.42 753.70 315.13 745.97 313.91
  C 741.93 313.27 740.94 309.59 743.61 306.57
  Q 744.18 305.92 748.23 303.13
  A 3.79 3.46 -0.5 0 0 748.95 302.46
  Q 751.75 299.02 752.68 294.47
  Q 753.93 288.37 754.05 282.95
  Z"
/>
</svg>
