<?xml version="1.0" encoding="UTF-8" standalone="no"?>
<!DOCTYPE svg PUBLIC "-//W3C//DTD SVG 1.0//EN" "http://www.w3.org/TR/2001/REC-SVG-20010904/DTD/svg10.dtd">
<svg xmlns="http://www.w3.org/2000/svg" version="1.0" viewBox="0.00 0.00 1375.00 945.00">
<g stroke-width="2.00" fill="none" stroke-linecap="butt">
<path stroke="#837283" d="
  M 464.22 314.27
  Q 464.00 314.05 463.89 313.80
  Q 463.74 313.45 463.58 313.33
  C 433.72 290.69 408.60 264.07 389.08 231.61
  Q 386.60 227.48 383.99 223.54"
/>
<path stroke="#837283" d="
  M 381.99 220.28
  Q 381.72 218.93 381.42 218.35
  C 367.05 190.38 357.10 162.21 349.97 132.01
  A 1.15 1.14 -13.0 0 0 348.60 131.16
  C 324.99 136.38 305.36 141.18 276.84 147.54
  Q 240.37 155.67 198.06 166.20
  A 1.69 1.69 0.0 0 0 196.78 167.83
  Q 196.60 188.11 200.39 209.19
  Q 210.93 267.83 246.42 317.30
  Q 273.26 354.72 310.98 383.06
  A 2.95 2.93 -38.0 0 0 313.89 383.41
  C 340.16 372.21 360.84 363.37 383.93 352.91
  Q 384.83 352.51 462.14 317.41
  Q 464.53 316.33 464.65 315.10"
/>
<path stroke="#837283" d="
  M 335.0060 201.9502
  A 5.41 5.41 0.0 0 0 328.3339 198.2060
  L 246.2933 221.2666
  A 5.41 5.41 0.0 0 0 242.5491 227.9387
  L 242.6140 228.1698
  A 5.41 5.41 0.0 0 0 249.2861 231.9140
  L 331.3267 208.8534
  A 5.41 5.41 0.0 0 0 335.0709 202.1813
  L 335.0060 201.9502"
/>
<path stroke="#837283" d="
  M 337.05 255.35
  Q 342.66 253.05 351.82 250.60
  Q 354.10 249.99 356.58 247.76
  A 1.68 1.60 -14.0 0 0 357.07 246.99
  C 358.32 242.89 354.98 239.13 350.81 240.09
  Q 346.72 241.04 333.38 244.91
  Q 295.08 256.03 262.92 265.90
  Q 258.89 267.14 260.02 271.07
  Q 261.79 277.18 268.34 275.32
  Q 292.80 268.37 332.58 256.56
  C 333.38 256.32 334.33 256.41 335.19 256.25"
/>
<path stroke="#837283" d="
  M 375.7261 283.3958
  A 5.36 5.36 0.0 0 0 369.0024 279.8957
  L 288.8520 305.1670
  A 5.36 5.36 0.0 0 0 285.3518 311.8907
  L 285.3939 312.0242
  A 5.36 5.36 0.0 0 0 292.1176 315.5243
  L 372.2680 290.2530
  A 5.36 5.36 0.0 0 0 375.7682 283.5293
  L 375.7261 283.3958"
/>
<path stroke="#837283" d="
  M 953.14 323.34
  L 1101.79 393.30
  A 3.74 3.72 43.7 0 0 1105.11 393.23
  Q 1109.16 391.12 1112.14 388.88
  Q 1150.61 359.89 1177.62 321.38
  Q 1192.69 299.90 1202.46 280.71
  Q 1221.07 244.18 1228.34 202.62
  A 0.89 0.89 0.0 0 0 1227.71 201.62
  Q 1201.74 194.20 1196.32 192.52
  C 1177.11 186.57 1157.66 181.56 1134.11 174.96
  C 1131.31 174.17 1129.08 174.06 1126.75 173.10
  Q 1125.04 172.40 1121.33 171.41
  Q 1094.55 164.26 1072.43 157.84
  A 1.32 1.32 0.0 0 0 1070.82 158.68
  Q 1064.71 176.52 1061.10 186.11
  C 1046.60 224.60 1025.70 259.53 996.59 288.59
  C 983.19 301.96 968.76 312.67 953.09 322.56
  A 0.45 0.44 41.6 0 0 953.14 323.34"
/>
<path stroke="#7f777a" d="
  M 783.54 253.68
  Q 776.09 254.39 765.49 256.74
  Q 763.58 257.16 748.93 259.12
  C 740.61 260.23 730.79 260.13 723.25 260.83
  C 719.73 261.16 712.47 261.05 706.92 260.55
  Q 704.07 260.30 695.79 259.63
  Q 690.22 259.18 678.99 256.74
  Q 671.38 255.08 666.53 252.71
  Q 653.70 246.42 642.12 238.16
  A 0.38 0.37 -62.2 0 0 641.55 238.34
  Q 634.85 257.29 630.07 275.55
  C 622.33 305.11 616.35 328.40 612.59 353.52
  C 607.64 386.60 607.86 421.62 637.52 444.01
  Q 654.75 457.01 673.98 460.23
  Q 706.02 465.61 737.15 450.14
  C 738.92 449.27 742.45 448.31 743.91 450.31
  C 747.70 455.48 733.64 461.45 730.34 462.86
  C 709.65 471.70 688.10 473.39 666.40 468.66
  A 0.79 0.78 15.9 0 0 665.49 469.16
  Q 661.92 479.34 662.54 489.87
  Q 663.13 499.95 669.21 508.78
  C 674.64 516.68 684.14 521.76 693.21 523.80
  C 707.14 526.93 719.77 526.03 733.83 523.14
  Q 745.33 520.77 754.35 515.64
  C 763.57 510.40 772.43 503.67 778.31 494.85
  Q 784.55 485.48 785.70 477.23
  C 788.33 458.39 789.44 439.63 791.93 406.30
  Q 792.20 402.69 793.72 399.71
  A 2.63 2.61 21.8 0 1 796.80 398.40
  Q 798.59 398.93 801.45 400.51
  Q 803.33 401.54 808.02 401.82
  C 823.42 402.73 837.23 391.16 844.80 378.35
  C 848.14 372.69 851.31 362.31 850.45 354.27
  Q 849.93 349.41 849.73 348.82
  Q 844.05 332.03 825.70 332.93
  C 817.70 333.32 810.18 338.78 804.47 344.62
  Q 797.37 351.89 791.54 343.83
  C 785.70 335.76 783.12 324.82 782.05 314.75
  Q 780.64 301.41 781.18 289.01
  C 781.79 275.04 782.21 265.19 784.16 254.36
  A 0.58 0.58 0.0 0 0 783.54 253.68"
/>
<path stroke="#837283" d="
  M 104.30 517.96
  Q 109.38 528.73 114.17 540.07
  Q 127.85 572.50 134.53 606.92
  A 0.95 0.94 -11.0 0 0 135.64 607.66
  L 210.50 593.14
  A 0.86 0.86 0.0 0 0 211.13 591.98
  Q 210.28 589.85 209.76 587.77
  C 205.99 572.61 226.78 570.31 236.18 571.63
  C 239.26 572.07 245.24 572.78 249.39 573.76
  A 2.71 2.64 43.9 0 0 250.66 573.75
  Q 252.56 573.26 253.79 572.79
  Q 284.15 561.31 309.59 550.63
  A 1.73 1.73 0.0 0 0 310.58 548.53
  Q 304.84 529.50 297.93 512.10
  Q 296.31 508.02 294.02 504.29"
/>
<path stroke="#837283" d="
  M 293.64 503.73
  C 293.00 502.01 292.68 500.16 291.94 498.54
  C 282.60 477.98 271.21 457.67 259.88 440.10
  Q 257.78 436.84 251.68 427.34
  Q 245.45 417.65 221.68 385.53
  C 218.39 381.09 213.38 375.56 210.01 370.71
  Q 209.51 369.98 205.78 365.45
  Q 203.73 362.96 200.26 363.98
  Q 120.94 387.29 47.39 424.87
  A 1.32 1.32 0.0 0 0 46.94 426.85
  Q 79.57 469.50 103.92 516.85"
/>
<path stroke="#7f777a" d="
  M 1152.02 628.99
  C 1152.88 618.86 1163.75 611.28 1173.00 608.96
  Q 1193.16 603.89 1200.52 601.77
  C 1239.48 590.53 1274.64 572.36 1310.05 551.05
  C 1315.83 547.58 1327.99 539.90 1327.35 532.70
  Q 1326.95 528.17 1321.99 529.20
  Q 1309.59 531.78 1297.43 536.98
  Q 1272.29 547.72 1250.32 557.70
  A 2.14 2.07 -84.3 0 0 1249.47 558.42
  Q 1248.86 559.33 1248.36 560.58
  C 1247.14 563.61 1244.38 564.48 1241.73 562.20
  C 1240.09 560.79 1239.08 556.29 1238.13 553.99
  Q 1229.24 532.68 1216.89 513.58
  C 1214.69 510.18 1216.78 508.91 1219.85 507.65
  C 1248.89 495.76 1284.61 478.84 1305.53 469.26
  C 1308.79 467.77 1311.79 464.21 1309.49 460.55
  A 1.96 1.90 -3.4 0 0 1308.64 459.82
  C 1304.34 457.94 1298.96 459.79 1294.58 461.35
  Q 1275.28 468.23 1252.55 477.57
  Q 1236.34 484.23 1208.75 494.51
  Q 1189.64 501.62 1170.22 506.22
  Q 1166.04 507.20 1161.90 506.05
  A 2.14 2.11 0.6 0 1 1160.42 504.56
  Q 1159.62 501.59 1161.32 498.81
  C 1168.62 486.86 1175.88 473.77 1179.04 459.80
  Q 1180.21 454.62 1178.53 450.30
  A 1.87 1.87 0.0 0 0 1176.03 449.27
  Q 1172.26 450.93 1169.66 454.15
  Q 1150.34 478.10 1133.36 495.36
  Q 1133.23 495.50 1124.11 505.62
  Q 1112.55 518.44 1106.69 533.69
  C 1100.44 549.95 1095.60 567.47 1087.57 583.15
  A 3.35 3.34 42.7 0 0 1087.71 586.44
  C 1091.72 592.84 1097.92 598.52 1102.16 602.73
  Q 1105.41 605.95 1110.91 610.03
  C 1122.68 618.75 1136.41 627.07 1150.56 630.07
  A 1.22 1.21 8.4 0 0 1152.02 628.99"
/>
<path stroke="#7f777a" d="
  M 1235.25 525.68
  Q 1242.09 522.65 1281.76 506.06
  Q 1313.25 492.89 1328.83 485.96
  C 1334.50 483.43 1338.24 482.09 1339.78 476.86
  C 1344.35 461.41 1299.91 481.64 1296.48 483.26
  Q 1265.15 498.04 1229.07 513.80
  A 1.04 1.03 63.3 0 0 1228.59 515.26
  L 1234.46 525.42
  A 0.63 0.63 0.0 0 0 1235.25 525.68"
/>
<path stroke="#703d39" d="
  M 1075.61 585.17
  Q 1075.25 585.22 1075.16 585.41
  Q 1074.96 585.81 1025.64 658.22
  C 1010.05 681.12 997.47 698.57 979.14 724.64
  Q 977.11 727.52 974.52 730.56
  C 972.87 732.51 971.12 733.16 969.01 731.58
  C 965.46 728.94 972.09 720.72 974.30 717.55
  Q 985.71 701.18 1003.84 675.35
  Q 1008.14 669.23 1013.40 661.22
  A 3.92 3.91 50.2 0 0 1013.73 657.54
  Q 1012.14 653.75 1011.26 650.81
  C 1000.82 615.87 994.23 592.89 982.18 564.06
  Q 974.58 545.90 964.41 530.85
  Q 940.73 495.79 900.80 483.22
  C 884.53 478.10 864.65 474.75 845.81 474.70
  Q 826.20 474.66 822.43 474.89
  Q 813.79 475.43 795.83 477.01
  A 0.61 0.59 4.0 0 0 795.30 477.46
  Q 794.16 481.88 792.40 486.92
  C 789.06 496.51 782.43 504.42 774.36 511.85
  C 758.07 526.83 736.16 533.49 714.32 534.70
  Q 709.35 534.97 703.70 534.42
  C 691.63 533.24 680.89 530.23 671.04 522.96
  Q 657.17 512.72 654.28 495.75
  Q 653.63 491.95 653.42 484.57
  A 1.56 1.55 -71.5 0 0 652.84 483.40
  Q 651.98 482.69 650.30 482.25
  Q 639.59 479.47 622.96 476.76
  Q 609.58 474.57 596.92 474.55
  Q 577.59 474.51 570.73 474.99
  Q 566.93 475.26 554.54 477.98
  Q 525.22 484.42 505.68 505.89
  Q 491.79 521.15 483.13 537.15
  Q 470.99 559.60 460.24 586.00
  Q 445.32 622.67 429.63 664.38
  Q 427.54 669.92 425.24 675.43
  A 2.11 2.10 33.4 0 0 425.72 677.75
  Q 429.36 681.28 434.32 685.22
  Q 448.32 696.38 470.98 713.68
  A 3.55 3.55 0.0 0 1 471.84 718.38
  L 471.77 718.49
  A 3.17 3.16 32.7 0 1 467.33 719.45
  C 447.13 706.10 429.49 692.10 409.67 677.07
  C 394.84 665.82 382.43 655.58 370.50 646.19
  A 1.24 1.24 0.0 0 0 368.57 646.75
  C 367.48 649.81 366.83 652.42 365.39 655.47
  C 356.40 674.44 343.34 689.18 326.53 701.30
  Q 312.93 711.11 296.58 714.38
  A 1.12 1.11 69.5 0 0 295.83 716.03
  Q 314.67 748.66 336.72 777.80
  C 351.70 797.60 367.52 815.40 386.39 829.72
  C 403.07 842.39 423.09 850.04 444.27 850.14
  C 465.92 850.25 488.66 839.44 502.30 822.71
  C 504.73 819.73 506.77 817.42 506.87 814.44
  Q 508.62 760.08 510.26 732.76
  Q 513.67 676.15 524.40 578.76
  C 524.73 575.85 525.57 566.66 530.05 567.35
  Q 534.36 568.00 533.79 572.76
  Q 526.32 634.88 521.02 699.53
  C 519.02 723.82 518.44 736.96 516.86 766.50
  Q 516.72 769.28 515.23 808.51
  C 514.70 822.34 514.81 830.66 514.25 845.24
  Q 513.58 862.73 513.58 885.14
  A 0.42 0.41 -87.8 0 0 513.96 885.56
  Q 620.75 896.12 728.00 898.09
  C 783.21 899.11 841.12 897.33 896.12 889.62
  A 1.75 1.75 0.0 0 0 897.63 887.97
  Q 897.81 884.38 897.86 879.63
  Q 898.02 862.91 898.23 819.04
  C 898.30 803.93 899.16 791.44 899.34 775.92
  Q 899.37 773.49 899.79 768.59
  Q 900.33 762.38 900.00 761.29
  Q 897.22 752.15 893.68 736.56
  Q 872.50 643.30 871.63 640.13
  C 870.99 637.79 869.26 630.65 873.87 630.44
  C 876.34 630.32 878.10 632.53 878.64 634.64
  C 887.79 670.66 898.32 717.52 903.84 741.64
  C 909.26 765.29 915.75 785.93 925.23 806.47
  C 932.24 821.65 942.30 836.56 955.68 847.34
  Q 964.14 854.16 976.09 858.95
  C 993.80 866.06 1012.99 865.74 1030.61 859.11
  Q 1038.55 856.12 1047.86 849.35
  C 1059.40 840.96 1069.19 830.53 1077.02 820.01
  C 1091.22 800.93 1102.25 780.73 1113.95 757.44
  Q 1122.56 740.31 1129.01 725.53
  Q 1147.18 683.86 1162.26 641.44
  A 1.27 1.27 0.0 0 0 1161.16 639.75
  C 1142.25 638.32 1125.18 631.49 1109.89 620.03
  Q 1099.13 611.96 1093.09 605.94
  Q 1083.27 596.15 1076.08 585.37
  A 0.48 0.47 -21.8 0 0 1075.61 585.17"
/>
<path stroke="#7f777a" d="
  M 1239.21 533.94
  A 0.39 0.38 -50.0 0 0 1239.23 534.21
  L 1245.87 548.93
  A 0.69 0.69 0.0 0 0 1246.78 549.28
  Q 1272.49 537.63 1294.59 528.52
  C 1301.35 525.74 1309.82 523.39 1315.40 520.91
  Q 1325.55 516.39 1334.64 507.64
  C 1336.94 505.42 1340.68 500.46 1341.06 496.82
  A 2.70 2.70 0.0 0 0 1339.00 493.92
  C 1336.28 493.27 1333.17 494.09 1330.42 495.26
  C 1313.04 502.70 1295.14 509.73 1277.57 517.50
  C 1270.30 520.72 1261.91 523.68 1254.55 527.04
  Q 1251.30 528.52 1243.12 532.13
  Q 1241.71 532.76 1241.37 532.80
  Q 1239.51 533.02 1239.21 533.94"
/>
<path stroke="#7f777a" d="
  M 299.00 704.02
  A 0.48 0.47 -13.2 0 0 299.59 704.38
  C 324.95 697.77 344.32 677.18 356.25 654.74
  Q 358.26 650.96 359.02 647.63
  A 1.72 1.70 -62.0 0 0 358.53 646.00
  Q 352.94 640.64 348.16 634.87
  Q 343.85 629.65 330.36 617.77
  C 311.47 601.14 286.16 592.29 260.32 585.47
  Q 247.95 582.21 235.74 581.09
  Q 230.39 580.60 226.73 580.99
  C 222.88 581.40 218.92 583.91 220.56 588.47
  C 221.96 592.36 228.23 595.08 231.97 596.53
  Q 245.54 601.78 261.19 606.78
  Q 262.67 607.25 264.34 608.90
  A 1.61 1.60 -75.1 0 1 264.80 609.70
  C 266.18 615.66 259.30 615.64 255.52 614.48
  Q 240.48 609.87 224.31 603.22
  C 220.98 601.85 216.46 602.90 213.58 603.39
  Q 178.35 609.42 158.62 612.89
  C 150.33 614.34 105.94 621.13 107.75 631.00
  Q 108.37 634.38 111.94 635.43
  A 2.52 2.44 -42.3 0 0 113.18 635.47
  Q 125.69 632.61 140.03 630.80
  C 158.79 628.44 177.13 625.79 196.80 623.74
  C 200.28 623.38 203.37 622.70 207.21 621.95
  A 3.36 3.35 67.6 0 1 210.63 623.38
  Q 212.72 626.49 214.63 630.62
  Q 224.63 652.23 230.67 676.06
  C 231.77 680.37 229.84 682.12 225.51 682.06
  Q 225.46 682.06 211.99 682.87
  C 202.78 683.43 194.88 684.51 184.11 685.63
  Q 163.11 687.79 144.28 691.30
  Q 140.64 691.97 138.01 693.43
  A 2.19 1.86 -27.3 0 0 136.95 696.00
  C 139.51 701.39 157.95 702.59 162.43 702.83
  Q 201.49 704.85 240.36 697.34
  Q 263.42 692.89 274.54 690.56
  C 279.56 689.51 285.33 688.89 289.83 687.98
  A 1.86 1.78 -41.4 0 1 290.75 688.02
  C 296.04 689.62 297.99 699.33 299.00 704.02"
/>
<path stroke="#7f777a" d="
  M 212.29 648.80
  L 206.01 633.59
  A 2.13 2.12 74.8 0 0 203.75 632.29
  Q 197.02 633.22 184.25 634.54
  C 158.42 637.21 134.84 639.90 110.06 646.06
  C 103.68 647.64 95.97 650.63 92.34 656.24
  A 2.03 2.02 28.6 0 0 93.21 659.19
  C 96.25 660.56 100.00 660.66 103.61 660.28
  Q 116.05 658.98 130.03 657.13
  Q 142.18 655.51 156.47 654.18
  Q 187.53 651.27 211.89 649.44
  A 0.47 0.46 77.2 0 0 212.29 648.80"
/>
<path stroke="#7f777a" d="
  M 219.66 672.83
  A 0.68 0.68 0.0 0 0 220.13 671.97
  L 215.90 658.66
  A 0.79 0.79 0.0 0 0 215.10 658.12
  Q 190.46 659.98 144.00 664.55
  Q 132.19 665.71 119.57 667.59
  C 116.21 668.09 108.38 669.20 107.60 672.96
  C 105.98 680.70 133.36 682.75 137.80 682.94
  A 12.94 12.37 40.0 0 0 140.41 682.77
  Q 171.62 677.37 205.03 674.33
  C 210.09 673.87 215.24 674.05 219.66 672.83"
/>
<path stroke="#837283" d="
  M 1168.3173 244.2973
  A 5.60 5.60 0.0 0 0 1164.7465 237.2284
  L 1091.5416 213.1599
  A 5.60 5.60 0.0 0 0 1084.4727 216.7307
  L 1084.4227 216.8827
  A 5.60 5.60 0.0 0 0 1087.9935 223.9516
  L 1161.1984 248.0201
  A 5.60 5.60 0.0 0 0 1168.2673 244.4493
  L 1168.3173 244.2973"
/>
<path stroke="#837283" d="
  M 1147.9862 286.3490
  A 5.53 5.53 0.0 0 0 1144.6440 279.2786
  L 1069.4582 252.3581
  A 5.53 5.53 0.0 0 0 1062.3877 255.7003
  L 1062.3338 255.8510
  A 5.53 5.53 0.0 0 0 1065.6760 262.9214
  L 1140.8618 289.8419
  A 5.53 5.53 0.0 0 0 1147.9323 286.4997
  L 1147.9862 286.3490"
/>
<path stroke="#837283" d="
  M 1113.4196 322.8521
  A 5.54 5.54 0.0 0 0 1110.2829 315.6726
  L 1044.8856 290.0437
  A 5.54 5.54 0.0 0 0 1037.7061 293.1803
  L 1037.6404 293.3479
  A 5.54 5.54 0.0 0 0 1040.7771 300.5274
  L 1106.1744 326.1563
  A 5.54 5.54 0.0 0 0 1113.3539 323.0197
  L 1113.4196 322.8521"
/>
<path stroke="#7f777a" d="
  M 679.66 279.02
  L 643.65 284.34
  A 2.27 2.27 0.0 0 0 641.73 286.92
  L 642.08 289.26
  A 11.75 5.04 -8.4 0 0 654.44 292.53
  L 671.69 289.98
  A 11.75 5.04 -8.4 0 0 682.58 283.28
  L 682.23 280.94
  A 2.27 2.27 0.0 0 0 679.66 279.02"
/>
<path stroke="#7f777a" d="
  M 715.46 285.78
  A 4.60 4.59 44.1 0 0 715.57 292.20
  Q 719.05 295.65 724.38 298.73
  Q 737.54 306.34 744.74 307.78
  C 752.02 309.22 752.61 301.40 746.94 299.05
  Q 738.72 295.64 734.35 293.67
  Q 729.18 291.35 722.03 285.20
  A 4.58 4.58 0.0 0 0 715.70 285.52
  L 715.46 285.78"
/>
<path stroke="#7f777a" d="
  M 685.73 313.58
  A 2.64 2.41 -12.2 0 0 683.28 312.16
  Q 679.06 312.33 677.56 316.04
  Q 676.85 317.80 674.46 325.09
  C 671.50 334.13 665.33 339.91 658.07 345.54
  C 651.87 350.35 647.35 360.69 653.75 367.76
  C 661.42 376.24 673.43 379.05 685.01 379.61
  A 3.93 3.92 -87.5 0 0 689.12 375.84
  L 689.13 375.64
  A 4.81 4.81 0.0 0 0 685.17 370.71
  Q 675.20 368.92 673.84 368.50
  Q 666.96 366.36 664.53 364.70
  C 660.91 362.22 657.85 358.44 661.94 354.61
  C 664.97 351.78 669.82 348.54 672.93 345.34
  Q 683.76 334.20 686.24 319.54
  Q 686.84 316.02 685.73 313.58"
/>
<path stroke="#7f777a" d="
  M 653.1102 334.6152
  A 11.10 6.25 98.6 0 0 660.9497 324.5746
  A 11.10 6.25 98.6 0 0 656.4298 312.6648
  A 11.10 6.25 98.6 0 0 648.5903 322.7054
  A 11.10 6.25 98.6 0 0 653.1102 334.6152"
/>
<path stroke="#7f777a" d="
  M 716.8107 343.9975
  A 12.63 6.84 99.2 0 0 725.5820 332.6236
  A 12.63 6.84 99.2 0 0 720.8493 319.0625
  A 12.63 6.84 99.2 0 0 712.0780 330.4364
  A 12.63 6.84 99.2 0 0 716.8107 343.9975"
/>
<path stroke="#7f777a" d="
  M 837.78 351.97
  C 839.58 346.79 833.48 344.44 829.25 344.90
  Q 819.93 345.92 812.98 351.16
  C 809.24 353.97 799.84 361.93 802.59 366.92
  C 804.27 369.98 808.46 369.83 810.39 367.06
  C 816.22 358.65 823.24 353.46 834.16 353.98
  Q 837.04 354.12 837.78 351.97"
/>
<path stroke="#7f777a" d="
  M 728.06 412.25
  C 730.40 403.08 710.85 396.38 704.31 395.33
  Q 684.60 392.19 666.95 401.37
  Q 664.50 402.65 662.40 405.13
  C 660.22 407.70 660.68 411.15 664.21 411.99
  A 3.10 3.02 -45.8 0 0 665.71 411.95
  Q 668.34 411.17 673.64 408.68
  C 688.86 401.50 708.20 402.02 720.92 412.83
  C 722.65 414.30 727.33 415.10 728.06 412.25"
/>
<path stroke="#837283" d="
  M 207.7999 420.8864
  A 5.50 5.50 0.0 0 0 200.5481 418.0737
  L 121.0564 453.1337
  A 5.50 5.50 0.0 0 0 118.2436 460.3855
  L 118.3001 460.5136
  A 5.50 5.50 0.0 0 0 125.5519 463.3263
  L 205.0436 428.2663
  A 5.50 5.50 0.0 0 0 207.8564 421.0145
  L 207.7999 420.8864"
/>
<path stroke="#837283" d="
  M 232.5463 465.4955
  A 5.45 5.45 0.0 0 0 225.4307 462.5335
  L 145.5499 495.4580
  A 5.45 5.45 0.0 0 0 142.5880 502.5736
  L 142.6337 502.6845
  A 5.45 5.45 0.0 0 0 149.7493 505.6465
  L 229.6301 472.7220
  A 5.45 5.45 0.0 0 0 232.5920 465.6064
  L 232.5463 465.4955"
/>
<path stroke="#837283" d="
  M 247.0962 511.6939
  A 5.27 5.27 0.0 0 0 240.2409 508.7699
  L 165.7356 538.7208
  A 5.27 5.27 0.0 0 0 162.8116 545.5762
  L 162.8638 545.7061
  A 5.27 5.27 0.0 0 0 169.7191 548.6301
  L 244.2244 518.6792
  A 5.27 5.27 0.0 0 0 247.1484 511.8238
  L 247.0962 511.6939"
/>
<path stroke="#7f777a" d="
  M 1210.84 553.68
  C 1211.77 551.55 1209.47 549.59 1207.78 548.69
  Q 1198.61 543.81 1188.21 542.84
  Q 1162.91 540.46 1142.06 554.83
  C 1138.72 557.13 1131.15 562.46 1135.36 566.84
  Q 1137.57 569.15 1139.83 567.52
  Q 1145.47 563.46 1147.40 562.13
  Q 1169.62 546.85 1196.26 553.64
  Q 1199.74 554.53 1203.17 555.59
  C 1206.35 556.57 1209.42 556.92 1210.84 553.68"
/>
<path stroke="#7f777a" d="
  M 248.23 657.10
  A 3.59 3.59 0.0 0 0 253.44 657.76
  Q 262.69 650.36 265.00 648.76
  Q 283.50 635.95 306.00 639.96
  C 308.00 640.31 311.31 640.37 312.44 638.31
  C 314.31 634.91 309.96 632.14 307.25 631.47
  Q 289.99 627.18 273.38 634.39
  C 264.71 638.15 254.70 644.08 248.46 651.26
  A 4.69 4.68 47.6 0 0 248.20 657.07
  L 248.23 657.10"
/>
</g>
<g>
<path fill="#da6621" d="
  M 892.82 146.00
  C 892.34 150.06 891.97 155.29 887.52 157.03
  C 880.46 159.78 871.40 158.47 869.44 150.01
  C 866.43 136.98 873.73 123.04 884.62 116.15
  C 890.78 112.24 898.02 109.13 906.18 104.92
  C 916.91 99.39 923.80 90.01 921.78 77.51
  C 919.97 66.31 909.72 59.46 898.58 59.86
  Q 886.45 60.29 880.14 70.35
  Q 879.80 70.90 875.47 77.69
  Q 874.26 79.57 871.44 80.44
  C 864.45 82.58 854.91 80.68 853.96 72.03
  C 852.46 58.35 865.01 45.89 877.31 41.07
  Q 897.37 33.21 918.81 39.76
  C 940.06 46.26 952.31 65.46 948.28 87.56
  Q 947.26 93.11 943.69 100.18
  C 939.53 108.41 931.38 115.25 923.44 119.70
  C 917.92 122.80 910.67 125.73 904.09 129.58
  C 898.14 133.06 893.61 139.39 892.82 146.00
  Z"
/>
<path fill="#da6621" d="
  M 497.74 96.02
  Q 495.63 103.61 487.46 104.55
  C 482.89 105.07 477.48 103.02 475.20 98.76
  C 471.50 91.82 471.28 83.84 473.67 76.30
  Q 480.15 55.88 500.66 46.04
  C 509.08 42.00 517.55 41.24 527.04 41.70
  C 537.18 42.20 546.95 46.54 553.76 53.08
  Q 568.81 67.52 563.96 88.61
  Q 561.41 99.71 555.10 108.87
  C 548.17 118.94 537.22 128.89 540.64 143.31
  Q 541.79 148.12 541.97 149.20
  A 3.50 3.47 44.8 0 1 541.98 150.40
  C 540.87 157.31 535.47 160.54 528.74 159.88
  C 521.32 159.16 518.28 153.31 517.26 146.50
  Q 514.82 130.19 524.19 116.62
  C 534.27 102.00 545.20 90.56 535.83 73.33
  C 531.81 65.93 521.09 63.50 513.33 65.98
  C 503.30 69.18 496.52 78.12 496.90 88.52
  C 496.99 90.82 497.68 92.79 497.85 94.82
  A 3.50 3.49 50.3 0 1 497.74 96.02
  Z"
/>
<path fill="#061351" d="
  M 482.85 314.01
  C 484.65 320.47 477.39 322.82 472.27 325.24
  Q 444.16 338.52 416.94 350.65
  Q 372.18 370.60 334.06 387.30
  Q 326.22 390.74 316.43 394.67
  Q 313.10 396.01 310.66 395.89
  C 308.68 395.78 304.36 393.00 302.46 391.54
  Q 248.40 350.18 216.24 291.07
  C 207.43 274.89 200.86 257.03 195.43 239.14
  Q 190.97 224.42 188.52 208.76
  Q 185.60 190.10 185.15 177.75
  Q 184.94 172.26 185.05 163.49
  Q 185.13 157.10 190.99 155.53
  Q 201.00 152.86 248.83 141.99
  C 266.13 138.07 286.60 132.77 306.36 128.47
  Q 323.42 124.75 336.54 121.71
  Q 346.52 119.40 350.60 118.47
  C 355.24 117.42 358.85 117.99 360.02 122.75
  Q 365.93 146.89 366.74 149.75
  Q 372.19 169.07 381.43 190.65
  C 402.56 240.02 436.49 281.23 481.07 311.62
  Q 482.45 312.56 482.85 314.01
  Z
  M 464.65 315.10
  Q 464.61 315.36 464.68 315.64
  A 0.35 0.35 0.0 0 0 465.29 315.78
  Q 465.73 315.25 465.33 314.39
  Q 465.04 313.78 464.43 313.44
  A 0.30 0.29 1.9 0 0 464.02 313.82
  L 464.22 314.27
  Q 464.00 314.05 463.89 313.80
  Q 463.74 313.45 463.58 313.33
  C 433.72 290.69 408.60 264.07 389.08 231.61
  Q 386.60 227.48 383.99 223.54
  Q 384.11 221.53 381.99 220.28
  Q 381.72 218.93 381.42 218.35
  C 367.05 190.38 357.10 162.21 349.97 132.01
  A 1.15 1.14 -13.0 0 0 348.60 131.16
  C 324.99 136.38 305.36 141.18 276.84 147.54
  Q 240.37 155.67 198.06 166.20
  A 1.69 1.69 0.0 0 0 196.78 167.83
  Q 196.60 188.11 200.39 209.19
  Q 210.93 267.83 246.42 317.30
  Q 273.26 354.72 310.98 383.06
  A 2.95 2.93 -38.0 0 0 313.89 383.41
  C 340.16 372.21 360.84 363.37 383.93 352.91
  Q 384.83 352.51 462.14 317.41
  Q 464.53 316.33 464.65 315.10
  Z"
/>
<path fill="#061351" d="
  M 935.27 321.76
  Q 936.55 319.18 938.70 317.95
  C 977.86 295.61 1010.62 261.28 1031.85 221.86
  Q 1045.45 196.60 1053.42 173.21
  Q 1058.94 157.00 1060.78 151.24
  C 1063.46 142.83 1068.83 144.93 1076.33 146.93
  C 1127.08 160.49 1177.46 174.72 1230.59 189.66
  C 1233.69 190.53 1240.78 192.25 1241.00 196.29
  Q 1241.18 199.42 1240.82 201.28
  C 1235.45 229.30 1227.53 256.71 1214.73 282.50
  Q 1190.12 332.09 1150.67 371.18
  Q 1132.40 389.28 1110.41 404.20
  Q 1105.18 407.75 1099.61 404.93
  Q 1097.88 404.06 1069.95 391.26
  C 1049.37 381.82 1027.59 370.93 1010.57 363.19
  C 995.84 356.51 979.07 348.10 962.35 340.15
  Q 952.80 335.60 938.97 328.33
  Q 935.35 326.41 935.08 322.76
  A 1.97 1.91 56.6 0 1 935.27 321.76
  Z
  M 953.14 323.34
  L 1101.79 393.30
  A 3.74 3.72 43.7 0 0 1105.11 393.23
  Q 1109.16 391.12 1112.14 388.88
  Q 1150.61 359.89 1177.62 321.38
  Q 1192.69 299.90 1202.46 280.71
  Q 1221.07 244.18 1228.34 202.62
  A 0.89 0.89 0.0 0 0 1227.71 201.62
  Q 1201.74 194.20 1196.32 192.52
  C 1177.11 186.57 1157.66 181.56 1134.11 174.96
  C 1131.31 174.17 1129.08 174.06 1126.75 173.10
  Q 1125.04 172.40 1121.33 171.41
  Q 1094.55 164.26 1072.43 157.84
  A 1.32 1.32 0.0 0 0 1070.82 158.68
  Q 1064.71 176.52 1061.10 186.11
  C 1046.60 224.60 1025.70 259.53 996.59 288.59
  C 983.19 301.96 968.76 312.67 953.09 322.56
  A 0.45 0.44 41.6 0 0 953.14 323.34
  Z"
/>
<path fill="#061351" d="
  M 908.77 791.49
  Q 908.25 792.20 908.24 793.27
  Q 908.04 838.67 907.11 892.62
  C 907.06 895.47 905.30 898.88 902.14 898.92
  C 900.15 898.95 898.74 898.90 896.98 899.15
  C 850.93 905.60 805.10 907.84 757.75 907.79
  Q 687.16 907.71 616.75 903.28
  Q 553.04 899.27 510.91 894.88
  Q 508.16 894.59 506.14 893.48
  A 4.00 4.00 0.0 0 1 504.08 890.14
  Q 503.82 884.41 504.05 873.50
  Q 504.22 864.98 505.16 833.78
  Q 505.18 833.18 505.02 832.86
  A 0.40 0.39 46.3 0 0 504.32 832.84
  Q 503.49 834.36 501.49 836.25
  Q 482.76 853.94 457.73 858.20
  C 450.97 859.35 442.19 859.07 436.24 858.91
  C 416.91 858.43 396.61 849.09 381.29 837.67
  Q 361.91 823.24 345.45 804.05
  Q 331.27 787.51 321.09 773.16
  Q 299.83 743.16 285.87 717.23
  Q 284.15 714.04 283.88 711.14
  A 3.70 3.70 0.0 0 1 285.71 707.58
  L 288.60 705.91
  A 1.69 1.68 -18.6 0 0 289.44 704.24
  C 288.46 696.29 283.87 697.97 277.47 699.32
  Q 268.90 701.12 260.23 702.94
  Q 232.28 708.83 204.32 711.48
  C 196.14 712.26 190.07 712.36 180.00 712.75
  Q 164.58 713.35 148.00 710.95
  C 140.67 709.89 131.71 707.70 127.74 701.05
  C 125.69 697.60 126.62 695.68 127.85 692.15
  A 0.85 0.85 0.0 0 0 127.07 691.02
  Q 114.68 690.63 104.05 685.06
  Q 95.64 680.65 98.22 671.62
  A 1.06 1.05 12.3 0 0 97.36 670.29
  C 90.08 669.23 83.25 665.06 82.21 657.49
  C 80.93 648.13 92.18 641.56 99.92 638.73
  A 0.91 0.90 64.8 0 0 100.39 637.42
  Q 99.26 635.52 98.61 633.74
  C 93.64 620.15 113.41 612.52 123.00 610.81
  A 1.38 1.38 0.0 0 0 124.09 609.09
  C 122.36 602.74 120.75 594.90 119.14 589.07
  C 105.65 539.97 81.87 495.44 52.55 453.70
  Q 45.23 443.28 35.20 429.58
  Q 29.66 421.99 37.26 417.55
  Q 53.12 408.26 75.56 398.09
  Q 117.94 378.87 162.96 363.70
  Q 180.66 357.74 200.73 352.47
  Q 203.33 351.78 205.40 351.54
  A 5.38 5.37 -25.3 0 1 209.87 353.14
  Q 212.08 355.43 213.40 356.98
  Q 220.02 364.81 237.02 386.97
  C 258.52 415.00 279.13 447.42 294.66 478.21
  Q 311.62 511.84 321.96 548.27
  Q 322.52 550.25 322.88 552.61
  C 323.38 555.82 320.08 557.81 317.46 558.98
  Q 297.59 567.88 277.53 575.57
  C 275.49 576.35 273.47 576.59 271.89 577.58
  A 0.65 0.65 0.0 0 0 272.14 578.78
  L 275.30 579.25
  A 1.47 1.35 -29.0 0 1 275.59 579.32
  C 302.29 587.32 327.15 600.17 346.78 620.19
  Q 353.01 626.54 360.26 635.33
  A 1.44 1.44 0.0 0 0 362.51 635.30
  L 364.56 632.69
  A 1.77 1.76 -51.8 0 1 367.03 632.39
  L 416.10 670.85
  A 0.78 0.78 0.0 0 0 417.33 670.46
  Q 417.95 668.36 418.44 667.14
  C 428.64 641.64 439.92 609.87 448.88 588.63
  Q 458.39 566.07 465.51 550.99
  C 474.44 532.09 485.75 513.12 500.50 497.53
  Q 516.70 480.40 539.19 472.43
  Q 556.66 466.25 572.00 465.29
  C 586.09 464.41 602.83 464.60 618.94 466.78
  Q 636.65 469.18 653.02 473.10
  A 2.51 2.51 0.0 0 0 656.03 471.32
  L 656.92 467.98
  A 2.45 2.44 -73.8 0 0 655.30 465.01
  C 634.88 458.56 616.08 441.91 607.79 422.21
  Q 602.37 409.32 601.28 396.48
  C 600.93 392.40 600.20 384.71 600.48 379.16
  Q 601.90 351.24 606.38 330.32
  Q 613.27 298.14 623.06 264.45
  A 3.42 3.42 0.0 0 0 622.25 261.12
  C 614.17 252.60 610.46 241.89 608.84 230.35
  Q 606.82 215.90 610.64 201.37
  C 614.66 186.08 625.84 173.28 639.09 164.98
  Q 657.71 153.32 681.32 152.62
  Q 697.85 152.13 711.82 155.91
  Q 741.24 163.85 765.20 180.80
  Q 790.16 198.46 809.90 220.58
  Q 813.41 224.52 819.30 231.39
  A 9.72 9.68 81.7 0 0 822.71 233.94
  Q 831.30 237.77 838.39 243.20
  C 850.80 252.69 856.36 269.20 856.10 284.50
  Q 855.95 293.80 853.96 302.45
  Q 851.07 315.05 844.61 325.74
  A 1.31 1.30 28.7 0 0 845.15 327.58
  C 855.18 332.58 860.34 344.57 860.63 355.25
  C 861.44 384.50 833.37 416.68 802.10 410.00
  A 0.83 0.82 -81.7 0 0 801.11 410.74
  L 796.40 467.03
  A 1.04 1.03 87.8 0 0 797.59 468.14
  Q 805.37 466.87 813.41 466.42
  Q 836.63 465.14 849.51 465.50
  C 880.52 466.38 911.33 472.92 936.83 489.84
  Q 952.22 500.05 964.89 515.64
  C 978.88 532.85 988.28 552.64 996.47 574.02
  C 1005.71 598.12 1013.20 623.46 1020.09 648.27
  A 0.55 0.55 0.0 0 0 1021.08 648.43
  Q 1028.72 637.34 1064.88 583.93
  C 1067.57 579.94 1070.28 576.77 1073.74 572.16
  A 3.54 3.52 -58.9 0 1 1078.06 571.08
  L 1080.83 572.39
  A 1.65 1.65 0.0 0 0 1083.07 571.50
  C 1085.88 564.39 1088.24 558.49 1090.10 552.73
  C 1096.04 534.29 1102.53 516.50 1114.64 501.87
  Q 1119.87 495.55 1128.32 487.07
  Q 1133.67 481.70 1149.75 463.62
  C 1155.21 457.48 1159.47 451.27 1164.66 445.15
  Q 1167.17 442.19 1171.07 439.86
  C 1177.98 435.73 1184.58 438.93 1187.54 445.80
  C 1193.55 459.71 1182.26 482.24 1174.38 493.64
  Q 1174.01 494.17 1173.89 494.80
  A 0.74 0.73 87.2 0 0 1174.82 495.65
  C 1188.28 491.51 1197.26 488.77 1209.83 483.93
  C 1236.67 473.61 1261.90 463.07 1291.21 451.96
  Q 1298.04 449.38 1304.50 448.98
  C 1312.67 448.49 1319.82 454.42 1319.44 462.90
  A 1.01 1.01 0.0 0 0 1320.72 463.92
  C 1327.99 461.87 1343.99 458.31 1347.92 467.70
  C 1350.20 473.14 1349.09 479.66 1345.59 484.41
  A 1.66 1.65 37.6 0 0 1345.89 486.69
  Q 1347.87 488.27 1348.85 489.83
  C 1351.49 494.04 1350.23 500.43 1348.07 504.61
  C 1344.39 511.75 1337.84 517.19 1331.85 521.98
  A 0.87 0.86 -43.6 0 0 1331.81 523.31
  C 1336.54 527.48 1339.71 532.80 1336.66 539.12
  C 1333.78 545.10 1328.59 549.35 1323.13 553.14
  Q 1314.51 559.13 1308.18 562.92
  C 1280.68 579.38 1251.27 594.18 1221.83 604.82
  C 1206.23 610.46 1187.37 614.44 1173.73 618.45
  Q 1166.77 620.49 1162.62 625.98
  A 1.54 1.54 0.0 0 0 1163.60 628.43
  Q 1168.62 629.26 1170.41 629.76
  C 1177.29 631.67 1173.03 640.01 1171.55 644.19
  Q 1154.78 691.47 1135.29 734.56
  Q 1125.17 756.92 1113.26 779.28
  C 1102.04 800.35 1088.81 821.73 1072.75 839.46
  Q 1056.29 857.63 1036.11 866.56
  Q 1022.95 872.39 1007.01 873.16
  C 982.46 874.33 959.59 865.27 942.10 848.10
  C 926.09 832.39 916.83 813.14 909.28 791.57
  A 0.29 0.29 0.0 0 0 908.77 791.49
  Z
  M 783.54 253.68
  Q 776.09 254.39 765.49 256.74
  Q 763.58 257.16 748.93 259.12
  C 740.61 260.23 730.79 260.13 723.25 260.83
  C 719.73 261.16 712.47 261.05 706.92 260.55
  Q 704.07 260.30 695.79 259.63
  Q 690.22 259.18 678.99 256.74
  Q 671.38 255.08 666.53 252.71
  Q 653.70 246.42 642.12 238.16
  A 0.38 0.37 -62.2 0 0 641.55 238.34
  Q 634.85 257.29 630.07 275.55
  C 622.33 305.11 616.35 328.40 612.59 353.52
  C 607.64 386.60 607.86 421.62 637.52 444.01
  Q 654.75 457.01 673.98 460.23
  Q 706.02 465.61 737.15 450.14
  C 738.92 449.27 742.45 448.31 743.91 450.31
  C 747.70 455.48 733.64 461.45 730.34 462.86
  C 709.65 471.70 688.10 473.39 666.40 468.66
  A 0.79 0.78 15.9 0 0 665.49 469.16
  Q 661.92 479.34 662.54 489.87
  Q 663.13 499.95 669.21 508.78
  C 674.64 516.68 684.14 521.76 693.21 523.80
  C 707.14 526.93 719.77 526.03 733.83 523.14
  Q 745.33 520.77 754.35 515.64
  C 763.57 510.40 772.43 503.67 778.31 494.85
  Q 784.55 485.48 785.70 477.23
  C 788.33 458.39 789.44 439.63 791.93 406.30
  Q 792.20 402.69 793.72 399.71
  A 2.63 2.61 21.8 0 1 796.80 398.40
  Q 798.59 398.93 801.45 400.51
  Q 803.33 401.54 808.02 401.82
  C 823.42 402.73 837.23 391.16 844.80 378.35
  C 848.14 372.69 851.31 362.31 850.45 354.27
  Q 849.93 349.41 849.73 348.82
  Q 844.05 332.03 825.70 332.93
  C 817.70 333.32 810.18 338.78 804.47 344.62
  Q 797.37 351.89 791.54 343.83
  C 785.70 335.76 783.12 324.82 782.05 314.75
  Q 780.64 301.41 781.18 289.01
  C 781.79 275.04 782.21 265.19 784.16 254.36
  A 0.58 0.58 0.0 0 0 783.54 253.68
  Z
  M 103.92 516.85
  Q 102.93 518.20 104.30 517.96
  Q 109.38 528.73 114.17 540.07
  Q 127.85 572.50 134.53 606.92
  A 0.95 0.94 -11.0 0 0 135.64 607.66
  L 210.50 593.14
  A 0.86 0.86 0.0 0 0 211.13 591.98
  Q 210.28 589.85 209.76 587.77
  C 205.99 572.61 226.78 570.31 236.18 571.63
  C 239.26 572.07 245.24 572.78 249.39 573.76
  A 2.71 2.64 43.9 0 0 250.66 573.75
  Q 252.56 573.26 253.79 572.79
  Q 284.15 561.31 309.59 550.63
  A 1.73 1.73 0.0 0 0 310.58 548.53
  Q 304.84 529.50 297.93 512.10
  Q 296.31 508.02 294.02 504.29
  Q 294.42 504.03 294.35 503.63
  A 0.42 0.42 0.0 0 0 293.65 503.40
  Q 293.58 503.47 293.64 503.73
  C 293.00 502.01 292.68 500.16 291.94 498.54
  C 282.60 477.98 271.21 457.67 259.88 440.10
  Q 257.78 436.84 251.68 427.34
  Q 245.45 417.65 221.68 385.53
  C 218.39 381.09 213.38 375.56 210.01 370.71
  Q 209.51 369.98 205.78 365.45
  Q 203.73 362.96 200.26 363.98
  Q 120.94 387.29 47.39 424.87
  A 1.32 1.32 0.0 0 0 46.94 426.85
  Q 79.57 469.50 103.92 516.85
  Z
  M 1152.02 628.99
  C 1152.88 618.86 1163.75 611.28 1173.00 608.96
  Q 1193.16 603.89 1200.52 601.77
  C 1239.48 590.53 1274.64 572.36 1310.05 551.05
  C 1315.83 547.58 1327.99 539.90 1327.35 532.70
  Q 1326.95 528.17 1321.99 529.20
  Q 1309.59 531.78 1297.43 536.98
  Q 1272.29 547.72 1250.32 557.70
  A 2.14 2.07 -84.3 0 0 1249.47 558.42
  Q 1248.86 559.33 1248.36 560.58
  C 1247.14 563.61 1244.38 564.48 1241.73 562.20
  C 1240.09 560.79 1239.08 556.29 1238.13 553.99
  Q 1229.24 532.68 1216.89 513.58
  C 1214.69 510.18 1216.78 508.91 1219.85 507.65
  C 1248.89 495.76 1284.61 478.84 1305.53 469.26
  C 1308.79 467.77 1311.79 464.21 1309.49 460.55
  A 1.96 1.90 -3.4 0 0 1308.64 459.82
  C 1304.34 457.94 1298.96 459.79 1294.58 461.35
  Q 1275.28 468.23 1252.55 477.57
  Q 1236.34 484.23 1208.75 494.51
  Q 1189.64 501.62 1170.22 506.22
  Q 1166.04 507.20 1161.90 506.05
  A 2.14 2.11 0.6 0 1 1160.42 504.56
  Q 1159.62 501.59 1161.32 498.81
  C 1168.62 486.86 1175.88 473.77 1179.04 459.80
  Q 1180.21 454.62 1178.53 450.30
  A 1.87 1.87 0.0 0 0 1176.03 449.27
  Q 1172.26 450.93 1169.66 454.15
  Q 1150.34 478.10 1133.36 495.36
  Q 1133.23 495.50 1124.11 505.62
  Q 1112.55 518.44 1106.69 533.69
  C 1100.44 549.95 1095.60 567.47 1087.57 583.15
  A 3.35 3.34 42.7 0 0 1087.71 586.44
  C 1091.72 592.84 1097.92 598.52 1102.16 602.73
  Q 1105.41 605.95 1110.91 610.03
  C 1122.68 618.75 1136.41 627.07 1150.56 630.07
  A 1.22 1.21 8.4 0 0 1152.02 628.99
  Z
  M 1235.25 525.68
  Q 1242.09 522.65 1281.76 506.06
  Q 1313.25 492.89 1328.83 485.96
  C 1334.50 483.43 1338.24 482.09 1339.78 476.86
  C 1344.35 461.41 1299.91 481.64 1296.48 483.26
  Q 1265.15 498.04 1229.07 513.80
  A 1.04 1.03 63.3 0 0 1228.59 515.26
  L 1234.46 525.42
  A 0.63 0.63 0.0 0 0 1235.25 525.68
  Z
  M 1075.61 585.17
  Q 1075.25 585.22 1075.16 585.41
  Q 1074.96 585.81 1025.64 658.22
  C 1010.05 681.12 997.47 698.57 979.14 724.64
  Q 977.11 727.52 974.52 730.56
  C 972.87 732.51 971.12 733.16 969.01 731.58
  C 965.46 728.94 972.09 720.72 974.30 717.55
  Q 985.71 701.18 1003.84 675.35
  Q 1008.14 669.23 1013.40 661.22
  A 3.92 3.91 50.2 0 0 1013.73 657.54
  Q 1012.14 653.75 1011.26 650.81
  C 1000.82 615.87 994.23 592.89 982.18 564.06
  Q 974.58 545.90 964.41 530.85
  Q 940.73 495.79 900.80 483.22
  C 884.53 478.10 864.65 474.75 845.81 474.70
  Q 826.20 474.66 822.43 474.89
  Q 813.79 475.43 795.83 477.01
  A 0.61 0.59 4.0 0 0 795.30 477.46
  Q 794.16 481.88 792.40 486.92
  C 789.06 496.51 782.43 504.42 774.36 511.85
  C 758.07 526.83 736.16 533.49 714.32 534.70
  Q 709.35 534.97 703.70 534.42
  C 691.63 533.24 680.89 530.23 671.04 522.96
  Q 657.17 512.72 654.28 495.75
  Q 653.63 491.95 653.42 484.57
  A 1.56 1.55 -71.5 0 0 652.84 483.40
  Q 651.98 482.69 650.30 482.25
  Q 639.59 479.47 622.96 476.76
  Q 609.58 474.57 596.92 474.55
  Q 577.59 474.51 570.73 474.99
  Q 566.93 475.26 554.54 477.98
  Q 525.22 484.42 505.68 505.89
  Q 491.79 521.15 483.13 537.15
  Q 470.99 559.60 460.24 586.00
  Q 445.32 622.67 429.63 664.38
  Q 427.54 669.92 425.24 675.43
  A 2.11 2.10 33.4 0 0 425.72 677.75
  Q 429.36 681.28 434.32 685.22
  Q 448.32 696.38 470.98 713.68
  A 3.55 3.55 0.0 0 1 471.84 718.38
  L 471.77 718.49
  A 3.17 3.16 32.7 0 1 467.33 719.45
  C 447.13 706.10 429.49 692.10 409.67 677.07
  C 394.84 665.82 382.43 655.58 370.50 646.19
  A 1.24 1.24 0.0 0 0 368.57 646.75
  C 367.48 649.81 366.83 652.42 365.39 655.47
  C 356.40 674.44 343.34 689.18 326.53 701.30
  Q 312.93 711.11 296.58 714.38
  A 1.12 1.11 69.5 0 0 295.83 716.03
  Q 314.67 748.66 336.72 777.80
  C 351.70 797.60 367.52 815.40 386.39 829.72
  C 403.07 842.39 423.09 850.04 444.27 850.14
  C 465.92 850.25 488.66 839.44 502.30 822.71
  C 504.73 819.73 506.77 817.42 506.87 814.44
  Q 508.62 760.08 510.26 732.76
  Q 513.67 676.15 524.40 578.76
  C 524.73 575.85 525.57 566.66 530.05 567.35
  Q 534.36 568.00 533.79 572.76
  Q 526.32 634.88 521.02 699.53
  C 519.02 723.82 518.44 736.96 516.86 766.50
  Q 516.72 769.28 515.23 808.51
  C 514.70 822.34 514.81 830.66 514.25 845.24
  Q 513.58 862.73 513.58 885.14
  A 0.42 0.41 -87.8 0 0 513.96 885.56
  Q 620.75 896.12 728.00 898.09
  C 783.21 899.11 841.12 897.33 896.12 889.62
  A 1.75 1.75 0.0 0 0 897.63 887.97
  Q 897.81 884.38 897.86 879.63
  Q 898.02 862.91 898.23 819.04
  C 898.30 803.93 899.16 791.44 899.34 775.92
  Q 899.37 773.49 899.79 768.59
  Q 900.33 762.38 900.00 761.29
  Q 897.22 752.15 893.68 736.56
  Q 872.50 643.30 871.63 640.13
  C 870.99 637.79 869.26 630.65 873.87 630.44
  C 876.34 630.32 878.10 632.53 878.64 634.64
  C 887.79 670.66 898.32 717.52 903.84 741.64
  C 909.26 765.29 915.75 785.93 925.23 806.47
  C 932.24 821.65 942.30 836.56 955.68 847.34
  Q 964.14 854.16 976.09 858.95
  C 993.80 866.06 1012.99 865.74 1030.61 859.11
  Q 1038.55 856.12 1047.86 849.35
  C 1059.40 840.96 1069.19 830.53 1077.02 820.01
  C 1091.22 800.93 1102.25 780.73 1113.95 757.44
  Q 1122.56 740.31 1129.01 725.53
  Q 1147.18 683.86 1162.26 641.44
  A 1.27 1.27 0.0 0 0 1161.16 639.75
  C 1142.25 638.32 1125.18 631.49 1109.89 620.03
  Q 1099.13 611.96 1093.09 605.94
  Q 1083.27 596.15 1076.08 585.37
  A 0.48 0.47 -21.8 0 0 1075.61 585.17
  Z
  M 1239.21 533.94
  A 0.39 0.38 -50.0 0 0 1239.23 534.21
  L 1245.87 548.93
  A 0.69 0.69 0.0 0 0 1246.78 549.28
  Q 1272.49 537.63 1294.59 528.52
  C 1301.35 525.74 1309.82 523.39 1315.40 520.91
  Q 1325.55 516.39 1334.64 507.64
  C 1336.94 505.42 1340.68 500.46 1341.06 496.82
  A 2.70 2.70 0.0 0 0 1339.00 493.92
  C 1336.28 493.27 1333.17 494.09 1330.42 495.26
  C 1313.04 502.70 1295.14 509.73 1277.57 517.50
  C 1270.30 520.72 1261.91 523.68 1254.55 527.04
  Q 1251.30 528.52 1243.12 532.13
  Q 1241.71 532.76 1241.37 532.80
  Q 1239.51 533.02 1239.21 533.94
  Z
  M 299.00 704.02
  A 0.48 0.47 -13.2 0 0 299.59 704.38
  C 324.95 697.77 344.32 677.18 356.25 654.74
  Q 358.26 650.96 359.02 647.63
  A 1.72 1.70 -62.0 0 0 358.53 646.00
  Q 352.94 640.64 348.16 634.87
  Q 343.85 629.65 330.36 617.77
  C 311.47 601.14 286.16 592.29 260.32 585.47
  Q 247.95 582.21 235.74 581.09
  Q 230.39 580.60 226.73 580.99
  C 222.88 581.40 218.92 583.91 220.56 588.47
  C 221.96 592.36 228.23 595.08 231.97 596.53
  Q 245.54 601.78 261.19 606.78
  Q 262.67 607.25 264.34 608.90
  A 1.61 1.60 -75.1 0 1 264.80 609.70
  C 266.18 615.66 259.30 615.64 255.52 614.48
  Q 240.48 609.87 224.31 603.22
  C 220.98 601.85 216.46 602.90 213.58 603.39
  Q 178.35 609.42 158.62 612.89
  C 150.33 614.34 105.94 621.13 107.75 631.00
  Q 108.37 634.38 111.94 635.43
  A 2.52 2.44 -42.3 0 0 113.18 635.47
  Q 125.69 632.61 140.03 630.80
  C 158.79 628.44 177.13 625.79 196.80 623.74
  C 200.28 623.38 203.37 622.70 207.21 621.95
  A 3.36 3.35 67.6 0 1 210.63 623.38
  Q 212.72 626.49 214.63 630.62
  Q 224.63 652.23 230.67 676.06
  C 231.77 680.37 229.84 682.12 225.51 682.06
  Q 225.46 682.06 211.99 682.87
  C 202.78 683.43 194.88 684.51 184.11 685.63
  Q 163.11 687.79 144.28 691.30
  Q 140.64 691.97 138.01 693.43
  A 2.19 1.86 -27.3 0 0 136.95 696.00
  C 139.51 701.39 157.95 702.59 162.43 702.83
  Q 201.49 704.85 240.36 697.34
  Q 263.42 692.89 274.54 690.56
  C 279.56 689.51 285.33 688.89 289.83 687.98
  A 1.86 1.78 -41.4 0 1 290.75 688.02
  C 296.04 689.62 297.99 699.33 299.00 704.02
  Z
  M 212.29 648.80
  L 206.01 633.59
  A 2.13 2.12 74.8 0 0 203.75 632.29
  Q 197.02 633.22 184.25 634.54
  C 158.42 637.21 134.84 639.90 110.06 646.06
  C 103.68 647.64 95.97 650.63 92.34 656.24
  A 2.03 2.02 28.6 0 0 93.21 659.19
  C 96.25 660.56 100.00 660.66 103.61 660.28
  Q 116.05 658.98 130.03 657.13
  Q 142.18 655.51 156.47 654.18
  Q 187.53 651.27 211.89 649.44
  A 0.47 0.46 77.2 0 0 212.29 648.80
  Z
  M 219.66 672.83
  A 0.68 0.68 0.0 0 0 220.13 671.97
  L 215.90 658.66
  A 0.79 0.79 0.0 0 0 215.10 658.12
  Q 190.46 659.98 144.00 664.55
  Q 132.19 665.71 119.57 667.59
  C 116.21 668.09 108.38 669.20 107.60 672.96
  C 105.98 680.70 133.36 682.75 137.80 682.94
  A 12.94 12.37 40.0 0 0 140.41 682.77
  Q 171.62 677.37 205.03 674.33
  C 210.09 673.87 215.24 674.05 219.66 672.83
  Z"
/>
<ellipse fill="#da6621" cx="0.00" cy="0.00" transform="translate(875.46,182.85) rotate(-1.0)" rx="14.54" ry="13.69"/>
<ellipse fill="#da6621" cx="0.00" cy="0.00" transform="translate(542.31,183.35) rotate(-4.2)" rx="14.33" ry="13.28"/>
<path fill="#061351" d="
  M 1285.31 680.66
  Q 1299.71 685.50 1307.10 688.55
  Q 1309.01 689.34 1310.01 690.30
  A 1.60 1.53 -71.7 0 1 1310.47 691.26
  Q 1310.82 694.51 1308.43 695.62
  Q 1306.46 696.54 1303.97 695.87
  Q 1292.99 692.93 1282.39 689.37
  Q 1271.78 685.81 1261.26 681.52
  Q 1258.87 680.55 1257.85 678.62
  Q 1256.62 676.30 1258.86 673.92
  A 1.60 1.53 -71.1 0 1 1259.81 673.43
  Q 1261.18 673.27 1263.18 673.80
  Q 1270.92 675.83 1285.31 680.66
  Z"
/>
<path fill="#061351" d="
  M 1212.39 680.78
  A 2.19 2.19 0.0 0 1 1215.42 680.14
  L 1254.66 705.62
  A 16.16 2.90 33.0 0 1 1266.63 716.86
  L 1264.70 719.84
  A 16.16 2.90 33.0 0 1 1249.56 713.47
  L 1210.32 687.99
  A 2.19 2.19 0.0 0 1 1209.68 684.96
  L 1212.39 680.78
  Z"
/>
<rect fill="#061351" x="-26.52" y="-4.59" transform="translate(1191.06,764.62) rotate(-5.5)" width="53.04" height="9.18" rx="4.49"/>
<rect fill="#061351" x="-28.95" y="-4.50" transform="translate(205.18,812.15) rotate(-43.0)" width="57.90" height="9.00" rx="4.43"/>
<path fill="#061351" d="
  M 243.99 862.99
  A 2.08 2.08 0.0 0 1 241.16 863.77
  L 239.26 862.69
  A 9.91 4.64 -60.3 0 1 240.14 851.78
  L 265.91 806.61
  A 9.91 4.64 -60.3 0 1 274.85 800.30
  L 276.74 801.38
  A 2.08 2.08 0.0 0 1 277.52 804.22
  L 243.99 862.99
  Z"
/>
</g>
<g>
<path fill="#ffd0b5" d="
  M 381.99 220.28
  Q 381.15 222.96 383.99 223.54
  Q 386.60 227.48 389.08 231.61
  C 408.60 264.07 433.72 290.69 463.58 313.33
  Q 463.74 313.45 463.89 313.80
  Q 464.00 314.05 464.22 314.27
  L 464.65 315.10
  Q 464.53 316.33 462.14 317.41
  Q 384.83 352.51 383.93 352.91
  C 360.84 363.37 340.16 372.21 313.89 383.41
  A 2.95 2.93 -38.0 0 1 310.98 383.06
  Q 273.26 354.72 246.42 317.30
  Q 210.93 267.83 200.39 209.19
  Q 196.60 188.11 196.78 167.83
  A 1.69 1.69 0.0 0 1 198.06 166.20
  Q 240.37 155.67 276.84 147.54
  C 305.36 141.18 324.99 136.38 348.60 131.16
  A 1.15 1.14 -13.0 0 1 349.97 132.01
  C 357.10 162.21 367.05 190.38 381.42 218.35
  Q 381.72 218.93 381.99 220.28
  Z
  M 335.0060 201.9502
  A 5.41 5.41 0.0 0 0 328.3339 198.2060
  L 246.2933 221.2666
  A 5.41 5.41 0.0 0 0 242.5491 227.9387
  L 242.6140 228.1698
  A 5.41 5.41 0.0 0 0 249.2861 231.9140
  L 331.3267 208.8534
  A 5.41 5.41 0.0 0 0 335.0709 202.1813
  L 335.0060 201.9502
  Z
  M 335.19 256.25
  Q 336.33 256.67 337.05 255.35
  Q 342.66 253.05 351.82 250.60
  Q 354.10 249.99 356.58 247.76
  A 1.68 1.60 -14.0 0 0 357.07 246.99
  C 358.32 242.89 354.98 239.13 350.81 240.09
  Q 346.72 241.04 333.38 244.91
  Q 295.08 256.03 262.92 265.90
  Q 258.89 267.14 260.02 271.07
  Q 261.79 277.18 268.34 275.32
  Q 292.80 268.37 332.58 256.56
  C 333.38 256.32 334.33 256.41 335.19 256.25
  Z
  M 375.7261 283.3958
  A 5.36 5.36 0.0 0 0 369.0024 279.8957
  L 288.8520 305.1670
  A 5.36 5.36 0.0 0 0 285.3518 311.8907
  L 285.3939 312.0242
  A 5.36 5.36 0.0 0 0 292.1176 315.5243
  L 372.2680 290.2530
  A 5.36 5.36 0.0 0 0 375.7682 283.5293
  L 375.7261 283.3958
  Z"
/>
<path fill="#ffd0b5" d="
  M 953.14 323.34
  A 0.45 0.44 41.6 0 1 953.09 322.56
  C 968.76 312.67 983.19 301.96 996.59 288.59
  C 1025.70 259.53 1046.60 224.60 1061.10 186.11
  Q 1064.71 176.52 1070.82 158.68
  A 1.32 1.32 0.0 0 1 1072.43 157.84
  Q 1094.55 164.26 1121.33 171.41
  Q 1125.04 172.40 1126.75 173.10
  C 1129.08 174.06 1131.31 174.17 1134.11 174.96
  C 1157.66 181.56 1177.11 186.57 1196.32 192.52
  Q 1201.74 194.20 1227.71 201.62
  A 0.89 0.89 0.0 0 1 1228.34 202.62
  Q 1221.07 244.18 1202.46 280.71
  Q 1192.69 299.90 1177.62 321.38
  Q 1150.61 359.89 1112.14 388.88
  Q 1109.16 391.12 1105.11 393.23
  A 3.74 3.72 43.7 0 1 1101.79 393.30
  L 953.14 323.34
  Z
  M 1168.3173 244.2973
  A 5.60 5.60 0.0 0 0 1164.7465 237.2284
  L 1091.5416 213.1599
  A 5.60 5.60 0.0 0 0 1084.4727 216.7307
  L 1084.4227 216.8827
  A 5.60 5.60 0.0 0 0 1087.9935 223.9516
  L 1161.1984 248.0201
  A 5.60 5.60 0.0 0 0 1168.2673 244.4493
  L 1168.3173 244.2973
  Z
  M 1147.9862 286.3490
  A 5.53 5.53 0.0 0 0 1144.6440 279.2786
  L 1069.4582 252.3581
  A 5.53 5.53 0.0 0 0 1062.3877 255.7003
  L 1062.3338 255.8510
  A 5.53 5.53 0.0 0 0 1065.6760 262.9214
  L 1140.8618 289.8419
  A 5.53 5.53 0.0 0 0 1147.9323 286.4997
  L 1147.9862 286.3490
  Z
  M 1113.4196 322.8521
  A 5.54 5.54 0.0 0 0 1110.2829 315.6726
  L 1044.8856 290.0437
  A 5.54 5.54 0.0 0 0 1037.7061 293.1803
  L 1037.6404 293.3479
  A 5.54 5.54 0.0 0 0 1040.7771 300.5274
  L 1106.1744 326.1563
  A 5.54 5.54 0.0 0 0 1113.3539 323.0197
  L 1113.4196 322.8521
  Z"
/>
<path fill="#f7daa2" d="
  M 783.54 253.68
  A 0.58 0.58 0.0 0 1 784.16 254.36
  C 782.21 265.19 781.79 275.04 781.18 289.01
  Q 780.64 301.41 782.05 314.75
  C 783.12 324.82 785.70 335.76 791.54 343.83
  Q 797.37 351.89 804.47 344.62
  C 810.18 338.78 817.70 333.32 825.70 332.93
  Q 844.05 332.03 849.73 348.82
  Q 849.93 349.41 850.45 354.27
  C 851.31 362.31 848.14 372.69 844.80 378.35
  C 837.23 391.16 823.42 402.73 808.02 401.82
  Q 803.33 401.54 801.45 400.51
  Q 798.59 398.93 796.80 398.40
  A 2.63 2.61 21.8 0 0 793.72 399.71
  Q 792.20 402.69 791.93 406.30
  C 789.44 439.63 788.33 458.39 785.70 477.23
  Q 784.55 485.48 778.31 494.85
  C 772.43 503.67 763.57 510.40 754.35 515.64
  Q 745.33 520.77 733.83 523.14
  C 719.77 526.03 707.14 526.93 693.21 523.80
  C 684.14 521.76 674.64 516.68 669.21 508.78
  Q 663.13 499.95 662.54 489.87
  Q 661.92 479.34 665.49 469.16
  A 0.79 0.78 15.9 0 1 666.40 468.66
  C 688.10 473.39 709.65 471.70 730.34 462.86
  C 733.64 461.45 747.70 455.48 743.91 450.31
  C 742.45 448.31 738.92 449.27 737.15 450.14
  Q 706.02 465.61 673.98 460.23
  Q 654.75 457.01 637.52 444.01
  C 607.86 421.62 607.64 386.60 612.59 353.52
  C 616.35 328.40 622.33 305.11 630.07 275.55
  Q 634.85 257.29 641.55 238.34
  A 0.38 0.37 -62.2 0 1 642.12 238.16
  Q 653.70 246.42 666.53 252.71
  Q 671.38 255.08 678.99 256.74
  Q 690.22 259.18 695.79 259.63
  Q 704.07 260.30 706.92 260.55
  C 712.47 261.05 719.73 261.16 723.25 260.83
  C 730.79 260.13 740.61 260.23 748.93 259.12
  Q 763.58 257.16 765.49 256.74
  Q 776.09 254.39 783.54 253.68
  Z
  M 679.66 279.02
  L 643.65 284.34
  A 2.27 2.27 0.0 0 0 641.73 286.92
  L 642.08 289.26
  A 11.75 5.04 -8.4 0 0 654.44 292.53
  L 671.69 289.98
  A 11.75 5.04 -8.4 0 0 682.58 283.28
  L 682.23 280.94
  A 2.27 2.27 0.0 0 0 679.66 279.02
  Z
  M 715.46 285.78
  A 4.60 4.59 44.1 0 0 715.57 292.20
  Q 719.05 295.65 724.38 298.73
  Q 737.54 306.34 744.74 307.78
  C 752.02 309.22 752.61 301.40 746.94 299.05
  Q 738.72 295.64 734.35 293.67
  Q 729.18 291.35 722.03 285.20
  A 4.58 4.58 0.0 0 0 715.70 285.52
  L 715.46 285.78
  Z
  M 685.73 313.58
  A 2.64 2.41 -12.2 0 0 683.28 312.16
  Q 679.06 312.33 677.56 316.04
  Q 676.85 317.80 674.46 325.09
  C 671.50 334.13 665.33 339.91 658.07 345.54
  C 651.87 350.35 647.35 360.69 653.75 367.76
  C 661.42 376.24 673.43 379.05 685.01 379.61
  A 3.93 3.92 -87.5 0 0 689.12 375.84
  L 689.13 375.64
  A 4.81 4.81 0.0 0 0 685.17 370.71
  Q 675.20 368.92 673.84 368.50
  Q 666.96 366.36 664.53 364.70
  C 660.91 362.22 657.85 358.44 661.94 354.61
  C 664.97 351.78 669.82 348.54 672.93 345.34
  Q 683.76 334.20 686.24 319.54
  Q 686.84 316.02 685.73 313.58
  Z
  M 653.1102 334.6152
  A 11.10 6.25 98.6 0 0 660.9497 324.5746
  A 11.10 6.25 98.6 0 0 656.4298 312.6648
  A 11.10 6.25 98.6 0 0 648.5903 322.7054
  A 11.10 6.25 98.6 0 0 653.1102 334.6152
  Z
  M 716.8107 343.9975
  A 12.63 6.84 99.2 0 0 725.5820 332.6236
  A 12.63 6.84 99.2 0 0 720.8493 319.0625
  A 12.63 6.84 99.2 0 0 712.0780 330.4364
  A 12.63 6.84 99.2 0 0 716.8107 343.9975
  Z
  M 837.78 351.97
  C 839.58 346.79 833.48 344.44 829.25 344.90
  Q 819.93 345.92 812.98 351.16
  C 809.24 353.97 799.84 361.93 802.59 366.92
  C 804.27 369.98 808.46 369.83 810.39 367.06
  C 816.22 358.65 823.24 353.46 834.16 353.98
  Q 837.04 354.12 837.78 351.97
  Z
  M 728.06 412.25
  C 730.40 403.08 710.85 396.38 704.31 395.33
  Q 684.60 392.19 666.95 401.37
  Q 664.50 402.65 662.40 405.13
  C 660.22 407.70 660.68 411.15 664.21 411.99
  A 3.10 3.02 -45.8 0 0 665.71 411.95
  Q 668.34 411.17 673.64 408.68
  C 688.86 401.50 708.20 402.02 720.92 412.83
  C 722.65 414.30 727.33 415.10 728.06 412.25
  Z"
/>
<path fill="#ffd0b5" d="
  M 293.64 503.73
  L 294.02 504.29
  Q 296.31 508.02 297.93 512.10
  Q 304.84 529.50 310.58 548.53
  A 1.73 1.73 0.0 0 1 309.59 550.63
  Q 284.15 561.31 253.79 572.79
  Q 252.56 573.26 250.66 573.75
  A 2.71 2.64 43.9 0 1 249.39 573.76
  C 245.24 572.78 239.26 572.07 236.18 571.63
  C 226.78 570.31 205.99 572.61 209.76 587.77
  Q 210.28 589.85 211.13 591.98
  A 0.86 0.86 0.0 0 1 210.50 593.14
  L 135.64 607.66
  A 0.95 0.94 -11.0 0 1 134.53 606.92
  Q 127.85 572.50 114.17 540.07
  Q 109.38 528.73 104.30 517.96
  Q 104.28 517.40 103.92 516.85
  Q 79.57 469.50 46.94 426.85
  A 1.32 1.32 0.0 0 1 47.39 424.87
  Q 120.94 387.29 200.26 363.98
  Q 203.73 362.96 205.78 365.45
  Q 209.51 369.98 210.01 370.71
  C 213.38 375.56 218.39 381.09 221.68 385.53
  Q 245.45 417.65 251.68 427.34
  Q 257.78 436.84 259.88 440.10
  C 271.21 457.67 282.60 477.98 291.94 498.54
  C 292.68 500.16 293.00 502.01 293.64 503.73
  Z
  M 207.7999 420.8864
  A 5.50 5.50 0.0 0 0 200.5481 418.0737
  L 121.0564 453.1337
  A 5.50 5.50 0.0 0 0 118.2436 460.3855
  L 118.3001 460.5136
  A 5.50 5.50 0.0 0 0 125.5519 463.3263
  L 205.0436 428.2663
  A 5.50 5.50 0.0 0 0 207.8564 421.0145
  L 207.7999 420.8864
  Z
  M 232.5463 465.4955
  A 5.45 5.45 0.0 0 0 225.4307 462.5335
  L 145.5499 495.4580
  A 5.45 5.45 0.0 0 0 142.5880 502.5736
  L 142.6337 502.6845
  A 5.45 5.45 0.0 0 0 149.7493 505.6465
  L 229.6301 472.7220
  A 5.45 5.45 0.0 0 0 232.5920 465.6064
  L 232.5463 465.4955
  Z
  M 247.0962 511.6939
  A 5.27 5.27 0.0 0 0 240.2409 508.7699
  L 165.7356 538.7208
  A 5.27 5.27 0.0 0 0 162.8116 545.5762
  L 162.8638 545.7061
  A 5.27 5.27 0.0 0 0 169.7191 548.6301
  L 244.2244 518.6792
  A 5.27 5.27 0.0 0 0 247.1484 511.8238
  L 247.0962 511.6939
  Z"
/>
<path fill="#f7daa2" d="
  M 1152.02 628.99
  A 1.22 1.21 8.4 0 1 1150.56 630.07
  C 1136.41 627.07 1122.68 618.75 1110.91 610.03
  Q 1105.41 605.95 1102.16 602.73
  C 1097.92 598.52 1091.72 592.84 1087.71 586.44
  A 3.35 3.34 42.7 0 1 1087.57 583.15
  C 1095.60 567.47 1100.44 549.95 1106.69 533.69
  Q 1112.55 518.44 1124.11 505.62
  Q 1133.23 495.50 1133.36 495.36
  Q 1150.34 478.10 1169.66 454.15
  Q 1172.26 450.93 1176.03 449.27
  A 1.87 1.87 0.0 0 1 1178.53 450.30
  Q 1180.21 454.62 1179.04 459.80
  C 1175.88 473.77 1168.62 486.86 1161.32 498.81
  Q 1159.62 501.59 1160.42 504.56
  A 2.14 2.11 0.6 0 0 1161.90 506.05
  Q 1166.04 507.20 1170.22 506.22
  Q 1189.64 501.62 1208.75 494.51
  Q 1236.34 484.23 1252.55 477.57
  Q 1275.28 468.23 1294.58 461.35
  C 1298.96 459.79 1304.34 457.94 1308.64 459.82
  A 1.96 1.90 -3.4 0 1 1309.49 460.55
  C 1311.79 464.21 1308.79 467.77 1305.53 469.26
  C 1284.61 478.84 1248.89 495.76 1219.85 507.65
  C 1216.78 508.91 1214.69 510.18 1216.89 513.58
  Q 1229.24 532.68 1238.13 553.99
  C 1239.08 556.29 1240.09 560.79 1241.73 562.20
  C 1244.38 564.48 1247.14 563.61 1248.36 560.58
  Q 1248.86 559.33 1249.47 558.42
  A 2.14 2.07 -84.3 0 1 1250.32 557.70
  Q 1272.29 547.72 1297.43 536.98
  Q 1309.59 531.78 1321.99 529.20
  Q 1326.95 528.17 1327.35 532.70
  C 1327.99 539.90 1315.83 547.58 1310.05 551.05
  C 1274.64 572.36 1239.48 590.53 1200.52 601.77
  Q 1193.16 603.89 1173.00 608.96
  C 1163.75 611.28 1152.88 618.86 1152.02 628.99
  Z
  M 1210.84 553.68
  C 1211.77 551.55 1209.47 549.59 1207.78 548.69
  Q 1198.61 543.81 1188.21 542.84
  Q 1162.91 540.46 1142.06 554.83
  C 1138.72 557.13 1131.15 562.46 1135.36 566.84
  Q 1137.57 569.15 1139.83 567.52
  Q 1145.47 563.46 1147.40 562.13
  Q 1169.62 546.85 1196.26 553.64
  Q 1199.74 554.53 1203.17 555.59
  C 1206.35 556.57 1209.42 556.92 1210.84 553.68
  Z"
/>
<path fill="#f7daa2" d="
  M 1235.25 525.68
  A 0.63 0.63 0.0 0 1 1234.46 525.42
  L 1228.59 515.26
  A 1.04 1.03 63.3 0 1 1229.07 513.80
  Q 1265.15 498.04 1296.48 483.26
  C 1299.91 481.64 1344.35 461.41 1339.78 476.86
  C 1338.24 482.09 1334.50 483.43 1328.83 485.96
  Q 1313.25 492.89 1281.76 506.06
  Q 1242.09 522.65 1235.25 525.68
  Z"
/>
<path fill="#da6621" d="
  M 1075.61 585.17
  A 0.48 0.47 -21.8 0 1 1076.08 585.37
  Q 1083.27 596.15 1093.09 605.94
  Q 1099.13 611.96 1109.89 620.03
  C 1125.18 631.49 1142.25 638.32 1161.16 639.75
  A 1.27 1.27 0.0 0 1 1162.26 641.44
  Q 1147.18 683.86 1129.01 725.53
  Q 1122.56 740.31 1113.95 757.44
  C 1102.25 780.73 1091.22 800.93 1077.02 820.01
  C 1069.19 830.53 1059.40 840.96 1047.86 849.35
  Q 1038.55 856.12 1030.61 859.11
  C 1012.99 865.74 993.80 866.06 976.09 858.95
  Q 964.14 854.16 955.68 847.34
  C 942.30 836.56 932.24 821.65 925.23 806.47
  C 915.75 785.93 909.26 765.29 903.84 741.64
  C 898.32 717.52 887.79 670.66 878.64 634.64
  C 878.10 632.53 876.34 630.32 873.87 630.44
  C 869.26 630.65 870.99 637.79 871.63 640.13
  Q 872.50 643.30 893.68 736.56
  Q 897.22 752.15 900.00 761.29
  Q 900.33 762.38 899.79 768.59
  Q 899.37 773.49 899.34 775.92
  C 899.16 791.44 898.30 803.93 898.23 819.04
  Q 898.02 862.91 897.86 879.63
  Q 897.81 884.38 897.63 887.97
  A 1.75 1.75 0.0 0 1 896.12 889.62
  C 841.12 897.33 783.21 899.11 728.00 898.09
  Q 620.75 896.12 513.96 885.56
  A 0.42 0.41 -87.8 0 1 513.58 885.14
  Q 513.58 862.73 514.25 845.24
  C 514.81 830.66 514.70 822.34 515.23 808.51
  Q 516.72 769.28 516.86 766.50
  C 518.44 736.96 519.02 723.82 521.02 699.53
  Q 526.32 634.88 533.79 572.76
  Q 534.36 568.00 530.05 567.35
  C 525.57 566.66 524.73 575.85 524.40 578.76
  Q 513.67 676.15 510.26 732.76
  Q 508.62 760.08 506.87 814.44
  C 506.77 817.42 504.73 819.73 502.30 822.71
  C 488.66 839.44 465.92 850.25 444.27 850.14
  C 423.09 850.04 403.07 842.39 386.39 829.72
  C 367.52 815.40 351.70 797.60 336.72 777.80
  Q 314.67 748.66 295.83 716.03
  A 1.12 1.11 69.5 0 1 296.58 714.38
  Q 312.93 711.11 326.53 701.30
  C 343.34 689.18 356.40 674.44 365.39 655.47
  C 366.83 652.42 367.48 649.81 368.57 646.75
  A 1.24 1.24 0.0 0 1 370.50 646.19
  C 382.43 655.58 394.84 665.82 409.67 677.07
  C 429.49 692.10 447.13 706.10 467.33 719.45
  A 3.17 3.16 32.7 0 0 471.77 718.49
  L 471.84 718.38
  A 3.55 3.55 0.0 0 0 470.98 713.68
  Q 448.32 696.38 434.32 685.22
  Q 429.36 681.28 425.72 677.75
  A 2.11 2.10 33.4 0 1 425.24 675.43
  Q 427.54 669.92 429.63 664.38
  Q 445.32 622.67 460.24 586.00
  Q 470.99 559.60 483.13 537.15
  Q 491.79 521.15 505.68 505.89
  Q 525.22 484.42 554.54 477.98
  Q 566.93 475.26 570.73 474.99
  Q 577.59 474.51 596.92 474.55
  Q 609.58 474.57 622.96 476.76
  Q 639.59 479.47 650.30 482.25
  Q 651.98 482.69 652.84 483.40
  A 1.56 1.55 -71.5 0 1 653.42 484.57
  Q 653.63 491.95 654.28 495.75
  Q 657.17 512.72 671.04 522.96
  C 680.89 530.23 691.63 533.24 703.70 534.42
  Q 709.35 534.97 714.32 534.70
  C 736.16 533.49 758.07 526.83 774.36 511.85
  C 782.43 504.42 789.06 496.51 792.40 486.92
  Q 794.16 481.88 795.30 477.46
  A 0.61 0.59 4.0 0 1 795.83 477.01
  Q 813.79 475.43 822.43 474.89
  Q 826.20 474.66 845.81 474.70
  C 864.65 474.75 884.53 478.10 900.80 483.22
  Q 940.73 495.79 964.41 530.85
  Q 974.58 545.90 982.18 564.06
  C 994.23 592.89 1000.82 615.87 1011.26 650.81
  Q 1012.14 653.75 1013.73 657.54
  A 3.92 3.91 50.2 0 1 1013.40 661.22
  Q 1008.14 669.23 1003.84 675.35
  Q 985.71 701.18 974.30 717.55
  C 972.09 720.72 965.46 728.94 969.01 731.58
  C 971.12 733.16 972.87 732.51 974.52 730.56
  Q 977.11 727.52 979.14 724.64
  C 997.47 698.57 1010.05 681.12 1025.64 658.22
  Q 1074.96 585.81 1075.16 585.41
  Q 1075.25 585.22 1075.61 585.17
  Z"
/>
<path fill="#f7daa2" d="
  M 1239.21 533.94
  Q 1239.51 533.02 1241.37 532.80
  Q 1241.71 532.76 1243.12 532.13
  Q 1251.30 528.52 1254.55 527.04
  C 1261.91 523.68 1270.30 520.72 1277.57 517.50
  C 1295.14 509.73 1313.04 502.70 1330.42 495.26
  C 1333.17 494.09 1336.28 493.27 1339.00 493.92
  A 2.70 2.70 0.0 0 1 1341.06 496.82
  C 1340.68 500.46 1336.94 505.42 1334.64 507.64
  Q 1325.55 516.39 1315.40 520.91
  C 1309.82 523.39 1301.35 525.74 1294.59 528.52
  Q 1272.49 537.63 1246.78 549.28
  A 0.69 0.69 0.0 0 1 1245.87 548.93
  L 1239.23 534.21
  A 0.39 0.38 -50.0 0 1 1239.21 533.94
  Z"
/>
<path fill="#f7daa2" d="
  M 299.00 704.02
  C 297.99 699.33 296.04 689.62 290.75 688.02
  A 1.86 1.78 -41.4 0 0 289.83 687.98
  C 285.33 688.89 279.56 689.51 274.54 690.56
  Q 263.42 692.89 240.36 697.34
  Q 201.49 704.85 162.43 702.83
  C 157.95 702.59 139.51 701.39 136.95 696.00
  A 2.19 1.86 -27.3 0 1 138.01 693.43
  Q 140.64 691.97 144.28 691.30
  Q 163.11 687.79 184.11 685.63
  C 194.88 684.51 202.78 683.43 211.99 682.87
  Q 225.46 682.06 225.51 682.06
  C 229.84 682.12 231.77 680.37 230.67 676.06
  Q 224.63 652.23 214.63 630.62
  Q 212.72 626.49 210.63 623.38
  A 3.36 3.35 67.6 0 0 207.21 621.95
  C 203.37 622.70 200.28 623.38 196.80 623.74
  C 177.13 625.79 158.79 628.44 140.03 630.80
  Q 125.69 632.61 113.18 635.47
  A 2.52 2.44 -42.3 0 1 111.94 635.43
  Q 108.37 634.38 107.75 631.00
  C 105.94 621.13 150.33 614.34 158.62 612.89
  Q 178.35 609.42 213.58 603.39
  C 216.46 602.90 220.98 601.85 224.31 603.22
  Q 240.48 609.87 255.52 614.48
  C 259.30 615.64 266.18 615.66 264.80 609.70
  A 1.61 1.60 -75.1 0 0 264.34 608.90
  Q 262.67 607.25 261.19 606.78
  Q 245.54 601.78 231.97 596.53
  C 228.23 595.08 221.96 592.36 220.56 588.47
  C 218.92 583.91 222.88 581.40 226.73 580.99
  Q 230.39 580.60 235.74 581.09
  Q 247.95 582.21 260.32 585.47
  C 286.16 592.29 311.47 601.14 330.36 617.77
  Q 343.85 629.65 348.16 634.87
  Q 352.94 640.64 358.53 646.00
  A 1.72 1.70 -62.0 0 1 359.02 647.63
  Q 358.26 650.96 356.25 654.74
  C 344.32 677.18 324.95 697.77 299.59 704.38
  A 0.48 0.47 -13.2 0 1 299.00 704.02
  Z
  M 248.23 657.10
  A 3.59 3.59 0.0 0 0 253.44 657.76
  Q 262.69 650.36 265.00 648.76
  Q 283.50 635.95 306.00 639.96
  C 308.00 640.31 311.31 640.37 312.44 638.31
  C 314.31 634.91 309.96 632.14 307.25 631.47
  Q 289.99 627.18 273.38 634.39
  C 264.71 638.15 254.70 644.08 248.46 651.26
  A 4.69 4.68 47.6 0 0 248.20 657.07
  L 248.23 657.10
  Z"
/>
<path fill="#f7daa2" d="
  M 212.29 648.80
  A 0.47 0.46 77.2 0 1 211.89 649.44
  Q 187.53 651.27 156.47 654.18
  Q 142.18 655.51 130.03 657.13
  Q 116.05 658.98 103.61 660.28
  C 100.00 660.66 96.25 660.56 93.21 659.19
  A 2.03 2.02 28.6 0 1 92.34 656.24
  C 95.97 650.63 103.68 647.64 110.06 646.06
  C 134.84 639.90 158.42 637.21 184.25 634.54
  Q 197.02 633.22 203.75 632.29
  A 2.13 2.12 74.8 0 1 206.01 633.59
  L 212.29 648.80
  Z"
/>
<path fill="#f7daa2" d="
  M 219.66 672.83
  C 215.24 674.05 210.09 673.87 205.03 674.33
  Q 171.62 677.37 140.41 682.77
  A 12.94 12.37 40.0 0 1 137.80 682.94
  C 133.36 682.75 105.98 680.70 107.60 672.96
  C 108.38 669.20 116.21 668.09 119.57 667.59
  Q 132.19 665.71 144.00 664.55
  Q 190.46 659.98 215.10 658.12
  A 0.79 0.79 0.0 0 1 215.90 658.66
  L 220.13 671.97
  A 0.68 0.68 0.0 0 1 219.66 672.83
  Z"
/>
</g>
<g>
<rect fill="#061351" x="-48.02" y="-5.53" transform="translate(288.81,215.06) rotate(-15.7)" width="96.04" height="11.06" rx="5.41"/>
<rect fill="#061351" x="-44.13" y="-5.68" transform="translate(1126.37,230.59) rotate(18.2)" width="88.26" height="11.36" rx="5.60"/>
<path fill="#061351" d="
  M 337.05 255.35
  Q 337.01 254.45 336.11 254.89
  Q 334.41 255.73 335.19 256.25
  C 334.33 256.41 333.38 256.32 332.58 256.56
  Q 292.80 268.37 268.34 275.32
  Q 261.79 277.18 260.02 271.07
  Q 258.89 267.14 262.92 265.90
  Q 295.08 256.03 333.38 244.91
  Q 346.72 241.04 350.81 240.09
  C 354.98 239.13 358.32 242.89 357.07 246.99
  A 1.68 1.60 -14.0 0 1 356.58 247.76
  Q 354.10 249.99 351.82 250.60
  Q 342.66 253.05 337.05 255.35
  Z"
/>
<path fill="#061351" d="
  M 1147.9323 286.4997
  A 5.53 5.53 0.0 0 1 1140.8618 289.8419
  L 1065.6760 262.9214
  A 5.53 5.53 0.0 0 1 1062.3338 255.8510
  L 1062.3877 255.7003
  A 5.53 5.53 0.0 0 1 1069.4582 252.3581
  L 1144.6440 279.2786
  A 5.53 5.53 0.0 0 1 1147.9862 286.3490
  L 1147.9323 286.4997
  Z
  M 1116.20 281.05
  Q 1116.45 280.86 1116.11 280.64
  Q 1115.75 280.41 1115.64 280.61
  A 0.37 0.36 -6.0 0 0 1116.20 281.05
  Z"
/>
<path fill="#061351" d="
  M 679.66 279.02
  A 2.27 2.27 0.0 0 1 682.23 280.94
  L 682.58 283.28
  A 11.75 5.04 -8.4 0 1 671.69 289.98
  L 654.44 292.53
  A 11.75 5.04 -8.4 0 1 642.08 289.26
  L 641.73 286.92
  A 2.27 2.27 0.0 0 1 643.65 284.34
  L 679.66 279.02
  Z"
/>
<rect fill="#061351" x="-47.38" y="-5.43" transform="translate(330.56,297.71) rotate(-17.5)" width="94.76" height="10.86" rx="5.36"/>
<path fill="#061351" d="
  M 715.46 285.78
  L 715.70 285.52
  A 4.58 4.58 0.0 0 1 722.03 285.20
  Q 729.18 291.35 734.35 293.67
  Q 738.72 295.64 746.94 299.05
  C 752.61 301.40 752.02 309.22 744.74 307.78
  Q 737.54 306.34 724.38 298.73
  Q 719.05 295.65 715.57 292.20
  A 4.60 4.59 44.1 0 1 715.46 285.78
  Z"
/>
<rect fill="#061351" x="-40.66" y="-5.63" transform="translate(1075.53,308.10) rotate(21.4)" width="81.32" height="11.26" rx="5.54"/>
<path fill="#061351" d="
  M 685.73 313.58
  Q 686.84 316.02 686.24 319.54
  Q 683.76 334.20 672.93 345.34
  C 669.82 348.54 664.97 351.78 661.94 354.61
  C 657.85 358.44 660.91 362.22 664.53 364.70
  Q 666.96 366.36 673.84 368.50
  Q 675.20 368.92 685.17 370.71
  A 4.81 4.81 0.0 0 1 689.13 375.64
  L 689.12 375.84
  A 3.93 3.92 -87.5 0 1 685.01 379.61
  C 673.43 379.05 661.42 376.24 653.75 367.76
  C 647.35 360.69 651.87 350.35 658.07 345.54
  C 665.33 339.91 671.50 334.13 674.46 325.09
  Q 676.85 317.80 677.56 316.04
  Q 679.06 312.33 683.28 312.16
  A 2.64 2.41 -12.2 0 1 685.73 313.58
  Z"
/>
<ellipse fill="#061351" cx="0.00" cy="0.00" transform="translate(654.77,323.64) rotate(98.6)" rx="11.10" ry="6.25"/>
<ellipse fill="#061351" cx="0.00" cy="0.00" transform="translate(718.83,331.53) rotate(99.2)" rx="12.63" ry="6.84"/>
<path fill="#061351" d="
  M 837.78 351.97
  Q 837.04 354.12 834.16 353.98
  C 823.24 353.46 816.22 358.65 810.39 367.06
  C 808.46 369.83 804.27 369.98 802.59 366.92
  C 799.84 361.93 809.24 353.97 812.98 351.16
  Q 819.93 345.92 829.25 344.90
  C 833.48 344.44 839.58 346.79 837.78 351.97
  Z"
/>
<path fill="#061351" d="
  M 728.06 412.25
  C 727.33 415.10 722.65 414.30 720.92 412.83
  C 708.20 402.02 688.86 401.50 673.64 408.68
  Q 668.34 411.17 665.71 411.95
  A 3.10 3.02 -45.8 0 1 664.21 411.99
  C 660.68 411.15 660.22 407.70 662.40 405.13
  Q 664.50 402.65 666.95 401.37
  Q 684.60 392.19 704.31 395.33
  C 710.85 396.38 730.40 403.08 728.06 412.25
  Z"
/>
<rect fill="#061351" x="-48.94" y="-5.57" transform="translate(163.05,440.70) rotate(-23.8)" width="97.88" height="11.14" rx="5.50"/>
<rect fill="#061351" x="-48.65" y="-5.51" transform="translate(187.59,484.09) rotate(-22.4)" width="97.30" height="11.02" rx="5.45"/>
<rect fill="#061351" x="-45.42" y="-5.34" transform="translate(204.98,528.70) rotate(-21.9)" width="90.84" height="10.68" rx="5.27"/>
<path fill="#061351" d="
  M 1207.78 548.69
  C 1209.47 549.59 1211.77 551.55 1210.84 553.68
  C 1209.42 556.92 1206.35 556.57 1203.17 555.59
  Q 1199.74 554.53 1196.26 553.64
  Q 1169.62 546.85 1147.40 562.13
  Q 1145.47 563.46 1139.83 567.52
  Q 1137.57 569.15 1135.36 566.84
  C 1131.15 562.46 1138.72 557.13 1142.06 554.83
  Q 1162.91 540.46 1188.21 542.84
  Q 1198.61 543.81 1207.78 548.69
  Z"
/>
<path fill="#061351" d="
  M 248.23 657.10
  L 248.20 657.07
  A 4.69 4.68 47.6 0 1 248.46 651.26
  C 254.70 644.08 264.71 638.15 273.38 634.39
  Q 289.99 627.18 307.25 631.47
  C 309.96 632.14 314.31 634.91 312.44 638.31
  C 311.31 640.37 308.00 640.31 306.00 639.96
  Q 283.50 635.95 265.00 648.76
  Q 262.69 650.36 253.44 657.76
  A 3.59 3.59 0.0 0 1 248.23 657.10
  Z"
/>
</g>
</svg>
