<svg xmlns="http://www.w3.org/2000/svg" fill="none" viewBox="0 0 14 14" id="Stock--Streamline-Flex" height="14" width="14"><desc>Stock Streamline Icon: https://streamlinehq.com</desc><g id="stock--price-stock-wallstreet-dollar-money-currency-fluctuate-candlestick-business"><path id="Intersect" fill="#d76424" d="M9 9.07149c0 -0.68831 -0.04656 -1.39289 -0.10676 -1.85514 -0.04315 -0.33133 -0.27435 -0.5799 -0.60225 -0.64409 -0.2121 -0.04152 -0.47566 -0.07222 -0.791 -0.07222s-0.57887 0.0307 -0.79095 0.07222c-0.32791 0.06419 -0.5591 0.31276 -0.60225 0.6441 -0.06019 0.46224 -0.10674 1.16682 -0.10677 1.85513 -0.00003 0.68831 0.04653 1.39291 0.10673 1.85511 0.04315 0.3314 0.27435 0.5799 0.60226 0.6441 0.2121 0.0415 0.47565 0.0722 0.791 0.0722s0.5789 -0.0307 0.791 -0.0722c0.32791 -0.0642 0.5591 -0.3127 0.60225 -0.6441C8.95345 10.4644 9 9.7598 9 9.07149Z" stroke-width="1"></path><path id="Intersect_2" fill="#d76424" d="M3.50006 6.42856c0 -1.26128 -0.05409 -2.36166 -0.12106 -2.97727 -0.03613 -0.33218 -0.26005 -0.58288 -0.58797 -0.64707C2.57892 2.7627 2.31536 2.73199 2 2.73199c-0.31534 0 -0.57888 0.03071 -0.79097 0.07223 -0.327915 0.06419 -0.551837 0.31489 -0.587971 0.64707C0.554095 4.0669 0.5 5.16728 0.5 6.42856c0 1.26127 0.054082 2.36165 0.121038 2.97726 0.03613 0.33218 0.260052 0.58288 0.587972 0.64708 0.2121 0.0415 0.47566 0.0722 0.79102 0.0722 0.31536 0 0.57892 -0.0307 0.79102 -0.0722 0.32792 -0.0642 0.55184 -0.3149 0.58797 -0.64708 0.06696 -0.61561 0.12104 -1.71599 0.12104 -2.97726Z" stroke-width="1"></path><path id="Vector 262" stroke="#060644" stroke-linecap="round" stroke-linejoin="round" d="M7.5 3.5v2.99219" stroke-width="1"></path><path id="Vector 265" stroke="#060644" stroke-linecap="round" stroke-linejoin="round" d="M7.5 11.6445V13.5" stroke-width="1"></path><path id="Vector 263" stroke="#060644" stroke-linecap="round" stroke-linejoin="round" d="M2.00006 0.5v2.22656" stroke-width="1"></path><path id="Intersect_3" stroke="#060644" stroke-linecap="round" stroke-linejoin="round" d="M9 9.07149c0 -0.68831 -0.04656 -1.39289 -0.10676 -1.85514 -0.04315 -0.33133 -0.27435 -0.5799 -0.60225 -0.64409 -0.2121 -0.04152 -0.47566 -0.07222 -0.791 -0.07222s-0.57887 0.0307 -0.79095 0.07222c-0.32791 0.06419 -0.5591 0.31276 -0.60225 0.6441 -0.06019 0.46224 -0.10674 1.16682 -0.10677 1.85513 -0.00003 0.68831 0.04653 1.39291 0.10673 1.85511 0.04315 0.3314 0.27435 0.5799 0.60226 0.6441 0.2121 0.0415 0.47565 0.0722 0.791 0.0722s0.5789 -0.0307 0.791 -0.0722c0.32791 -0.0642 0.5591 -0.3127 0.60225 -0.6441C8.95345 10.4644 9 9.7598 9 9.07149Z" stroke-width="1"></path><path id="Intersect_4" stroke="#060644" stroke-linecap="round" stroke-linejoin="round" d="M3.50006 6.42856c0 -1.26128 -0.05409 -2.36166 -0.12106 -2.97727 -0.03613 -0.33218 -0.26005 -0.58288 -0.58797 -0.64707C2.57892 2.7627 2.31536 2.73199 2 2.73199c-0.31534 0 -0.57888 0.03071 -0.79097 0.07223 -0.327915 0.06419 -0.551837 0.31489 -0.587971 0.64707C0.554095 4.0669 0.5 5.16728 0.5 6.42856c0 1.26127 0.054082 2.36165 0.121038 2.97726 0.03613 0.33218 0.260052 0.58288 0.587972 0.64708 0.2121 0.0415 0.47566 0.0722 0.79102 0.0722 0.31536 0 0.57892 -0.0307 0.79102 -0.0722 0.32792 -0.0642 0.55184 -0.3149 0.58797 -0.64708 0.06696 -0.61561 0.12104 -1.71599 0.12104 -2.97726Z" stroke-width="1"></path><path id="Vector 264" stroke="#060644" stroke-linecap="round" stroke-linejoin="round" d="M2.00006 10.125V11.5" stroke-width="1"></path><path id="Vector" stroke="#060644" stroke-linecap="round" stroke-linejoin="round" d="M13.5 2.009s-0.5141 -0.5731 -1.348 -0.50148c-0.8338 0.07162 -1.2358 0.58391 -1.2358 1.09762 0 1.49827 2.5838 0.45995 2.5838 1.99638 0 0.7921 -1.7139 1.35122 -2.7351 0.41934M12.2542 0.5v1.00132m0 3.99736V6.5" stroke-width="1"></path></g></svg>