<svg xmlns="http://www.w3.org/2000/svg" fill="none" viewBox="-10.715 -10.715 300 300" id="Sync-Location--Streamline-Flex" height="300" width="300"><desc>Sync Location Streamline Icon: https://streamlinehq.com</desc><g id="sync-location--sync-location-pin-navigation-map-gps-travel"><path id="Union" fill="#d76424" d="M138.48530512142855 9.94892857142857C101.96796177857142 9.94892857142857 71.65914782142856 38.170059357142854 69.057503 74.59447970714285c-1.238641607142857 17.339788628571426 2.6442262357142856 35.331630035714284 13.563175342857143 49.66922997857142 12.987132378571427 17.053657442857144 26.21284006428571 28.765735135714284 46.892881971428565 42.53525125714285 5.916428842857142 3.9393777571428568 13.631226014285714 3.9393777571428568 19.547654857142856 0C169.7410581 153.02944482142857 182.96676578571427 141.31736712857142 195.95409714285714 124.26370968571428c10.917954214285713 -14.33759994285714 14.802015928571427 -32.329441349999996 13.562379428571427 -49.66922997857142C206.91582664285713 38.170059357142854 176.60681370714283 9.94892857142857 140.08927138571428 9.94892857142857h-1.6039662642857142Z" stroke-width="21.43"></path><path id="Union_2" stroke="#060644" d="M138.48530512142855 9.94892857142857C101.96796177857142 9.94892857142857 71.65914782142856 38.170059357142854 69.057503 74.59447970714285c-1.238641607142857 17.339788628571426 2.6442262357142856 35.331630035714284 13.563175342857143 49.66922997857142 12.987132378571427 17.053657442857144 26.21303904285714 28.765735135714284 46.892881971428565 42.53525125714285 5.916428842857142 3.9395767357142852 13.631226014285714 3.9395767357142852 19.547654857142856 0C169.7410581 153.02944482142857 182.96676578571427 141.31736712857142 195.95409714285714 124.26370968571428c10.917954214285713 -14.33759994285714 14.802015928571427 -32.329441349999996 13.562379428571427 -49.66922997857142C206.91582664285713 38.170059357142854 176.60681370714283 9.94892857142857 140.08927138571428 9.94892857142857h-1.6039662642857142Z" stroke-width="21.43"></path><path id="Vector" fill="#4d6a7f" d="M139.29375505714285 103.01677782857142c13.946607049999999 0 21.791536207142855 -7.8449291571428565 21.791536207142855 -21.791536207142855 0 -13.946607049999999 -7.8449291571428565 -21.791536207142855 -21.791536207142855 -21.791536207142855 -13.946607049999999 0 -21.791536207142855 7.8449291571428565 -21.791536207142855 21.791536207142855 0 13.946607049999999 7.8449291571428565 21.791536207142855 21.791536207142855 21.791536207142855Z" stroke-width="21.43"></path><path id="Vector_2" stroke="#060644" stroke-linecap="round" stroke-linejoin="round" d="M139.29375505714285 103.01677782857142c13.946607049999999 0 21.791536207142855 -7.8449291571428565 21.791536207142855 -21.791536207142855 0 -13.946607049999999 -7.8449291571428565 -21.791536207142855 -21.791536207142855 -21.791536207142855 -13.946607049999999 0 -21.791536207142855 7.8449291571428565 -21.791536207142855 21.791536207142855 0 13.946607049999999 7.8449291571428565 21.791536207142855 21.791536207142855 21.791536207142855Z" stroke-width="21.43"></path><g id="Group 5809"><path id="Vector_3" stroke="#060644" stroke-linecap="round" stroke-linejoin="round" d="M158.17960718571427 206.81434757142856c12.361344771428572 6.180274428571428 24.722689542857143 18.54281307142857 30.903560907142854 30.903361928571424 -6.180871364285714 12.360548857142856 -18.542216135714284 24.7230875 -30.903560907142854 30.903361928571424" stroke-width="21.43"></path><path id="Vector_2_2" stroke="#060644" stroke-linecap="round" stroke-linejoin="round" d="M187.44298772857144 234.49226685714285c-14.318895957142857 1.5779000714285711 -30.40571652142857 2.3857530714285713 -48.15798772857142 2.3857530714285713 -82.77508571428571 0 -129.33607142857142 -17.571797642857142 -129.33607142857142 -48.81262722857142 0 -16.736286621428572 13.363002899999998 -29.549909685714283 38.498374 -37.84055084285714m185.4738957857143 74.36028192857142C256.60276571428574 216.281748 268.6210714285714 203.9371174285714 268.6210714285714 188.0653927c0 -16.736286621428572 -13.363400857142855 -29.549909685714283 -38.498374 -37.84055084285714" stroke-width="21.43"></path></g></g></svg>