<svg xmlns="http://www.w3.org/2000/svg" fill="none" viewBox="0 0 14 14" id="Triangle-Arrow-Curve-Up-Right--Streamline-Flex" height="14" width="14"><desc>Triangle Arrow Curve Up Right Streamline Icon: https://streamlinehq.com</desc><g id="triangle-arrow-curve-up-right--arrow-bend-curve-change-direction-up-to-right"><path id="Vector 2594" fill="#d76424" d="M10.0515 2.72917c1.1213 0.6581 2.0993 1.7162 2.6431 2.47416 0.2035 0.28356 0.2035 0.65918 0 0.94274 -0.5438 0.75796 -1.5218 1.81606 -2.6431 2.47416 -0.45719 0.26834 -1.00561 0.01705 -1.12477 -0.49953 -0.14208 -0.61599 -0.27048 -1.46398 -0.27048 -2.446 0 -0.98202 0.1284 -1.83001 0.27048 -2.44599 0.11916 -0.51659 0.66758 -0.76788 1.12477 -0.49954Z" stroke-width="1"></path><path id="Vector" stroke="#060644" stroke-linecap="round" stroke-linejoin="round" d="M1 11.6746v-1c0 -2.76146 2.23858 -5.00004 5 -5.00004h2.65219" stroke-width="1"></path><path id="Vector 2593" stroke="#060644" stroke-linecap="round" stroke-linejoin="round" d="M10.0515 2.72917c1.1213 0.6581 2.0993 1.7162 2.6431 2.47416 0.2035 0.28356 0.2035 0.65918 0 0.94274 -0.5438 0.75796 -1.5218 1.81606 -2.6431 2.47416 -0.45719 0.26834 -1.00561 0.01705 -1.12477 -0.49953 -0.14208 -0.61599 -0.27048 -1.46398 -0.27048 -2.446 0 -0.98202 0.1284 -1.83001 0.27048 -2.44599 0.11916 -0.51659 0.66758 -0.76788 1.12477 -0.49954Z" stroke-width="1"></path></g></svg>