<svg xmlns="http://www.w3.org/2000/svg" fill="none" viewBox="0 0 14 14" id="Triangle-Arrow-Reload-Horizontal-2--Streamline-Flex" height="14" width="14"><desc>Triangle Arrow Reload Horizontal 2 Streamline Icon: https://streamlinehq.com</desc><g id="triangle-arrow-reload-horizontal-2"><path id="Vector 2598" fill="#d76424" d="M8.71016 12.8972c-0.61038 -0.4429 -1.22952 -1.0556 -1.5789 -1.5362 -0.17505 -0.2408 -0.17505 -0.5641 0 -0.8049 0.34938 -0.4806 0.9214 -1.10562 1.5789 -1.53623 0.37493 -0.24555 0.8346 -0.0294 0.92373 0.41759 0.08081 0.40524 0.14736 0.92754 0.14736 1.52104 0 0.5936 -0.06655 1.1159 -0.14736 1.5211 -0.08914 0.447 -0.5488 0.6632 -0.92373 0.4176Z" stroke-width="1"></path><path id="Vector 2599" fill="#d76424" d="M5.28984 4.98022c0.61038 -0.44294 1.22953 -1.05566 1.5789 -1.5362 0.17505 -0.24078 0.17505 -0.56416 0 -0.80494 -0.34938 -0.48054 -0.9214 -1.10559 -1.5789 -1.5362 -0.37493 -0.245551 -0.83459 -0.0294 -0.92373 0.41758 -0.08081 0.40525 -0.14736 0.92755 -0.14736 1.52109 0 0.59354 0.06655 1.11584 0.14736 1.52109 0.08914 0.44698 0.5488 0.66313 0.92373 0.41758Z" stroke-width="1"></path><path id="Vector 1219" stroke="#060644" stroke-linecap="round" stroke-linejoin="round" d="m4.21875 3.04175 -0.71875 0c-1.65685 0 -3 1.34314 -3 3l0 1.91708c0 1.65686 1.34315 2.99997 3 2.99997l0.5 0" stroke-width="1"></path><path id="Vector 1220" stroke="#060644" stroke-linecap="round" stroke-linejoin="round" d="m9.78906 10.9587 0.71094 0c1.6569 0 3 -1.34311 3 -2.99996l0 -1.91708c0 -1.65686 -1.3431 -3 -3 -3l-0.5 0" stroke-width="1"></path><path id="Vector 2596" stroke="#060644" stroke-linecap="round" stroke-linejoin="round" d="M8.71016 12.8972c-0.61038 -0.4429 -1.22952 -1.0556 -1.5789 -1.5362 -0.17505 -0.2408 -0.17505 -0.5641 0 -0.8049 0.34938 -0.4806 0.9214 -1.10562 1.5789 -1.53623 0.37493 -0.24555 0.8346 -0.0294 0.92373 0.41759 0.08081 0.40524 0.14736 0.92754 0.14736 1.52104 0 0.5936 -0.06655 1.1159 -0.14736 1.5211 -0.08914 0.447 -0.5488 0.6632 -0.92373 0.4176Z" stroke-width="1"></path><path id="Vector 2597" stroke="#060644" stroke-linecap="round" stroke-linejoin="round" d="M5.28984 4.98022c0.61038 -0.44294 1.22952 -1.05566 1.5789 -1.5362 0.17505 -0.24078 0.17505 -0.56416 0 -0.80494 -0.34938 -0.48054 -0.9214 -1.10559 -1.5789 -1.5362 -0.37493 -0.245551 -0.83459 -0.0294 -0.92373 0.41758 -0.08081 0.40525 -0.14736 0.92755 -0.14736 1.52109 0 0.59354 0.06655 1.11584 0.14736 1.52109 0.08914 0.44698 0.5488 0.66313 0.92373 0.41758Z" stroke-width="1"></path></g></svg>