<svg xmlns="http://www.w3.org/2000/svg" fill="none" viewBox="-7.145 -7.145 200 200" height="200" width="200"><g id="users-group-check--users-group-check-team-person-user"><path id="Subtract" fill="#d76424" fill-rule="evenodd" d="M99.48750000000001 86.2225c-29.304242100000003 0 -53.06 23.7557579 -53.06 53.06h85.94512885l16.18343265 -20.228594400000002C140.6023675 99.7841054 121.62864210000001 86.2225 99.48750000000001 86.2225Z" clip-rule="evenodd" stroke-width="14.29"></path><path id="Subtract_2" fill="#d76424" fill-rule="evenodd" d="M50.8415614 7.96677329C38.67954615 11.738026055 29.84625 23.0768552 29.84625 36.478750000000005c0 13.402160100000001 8.833561450000001 24.74121475 20.99597465 28.512188950000002l5.84256925 -3.15189665C52.2755079 54.413030000000006 49.743750000000006 45.741566850000005 49.743750000000006 36.478750000000005c0 -9.2626842 2.53162525 -17.9340147 6.94091125 -25.359841290000002L50.8415614 7.96682635l0 -0.00005306Z" clip-rule="evenodd" stroke-width="14.29"></path><path id="Subtract_3" fill="#d76424" fill-rule="evenodd" d="m40.7336314 96.0234779 -5.356009050000001 -3.9119811500000004v-0.0013265000000000002C18.3043735 100.92807900000001 6.6325 118.74270870000001 6.6325 139.2838265h19.89789795c0 -16.19430995 5.27615375 -31.15616875 14.20323345 -43.2603486Z" clip-rule="evenodd" stroke-width="14.29"></path><path id="Vector" fill="#d76424" d="M99.48750000000001 66.325C83.0038804 66.325 69.64125 52.9623696 69.64125 36.478750000000005S83.0038804 6.6325 99.48750000000001 6.6325s29.84625 13.3626304 29.84625 29.84625S115.97111960000001 66.325 99.48750000000001 66.325Z" stroke-width="14.29"></path><path id="Vector_2" stroke="#060644" stroke-linecap="round" stroke-linejoin="round" d="M50.8415614 7.96677329C38.6791482 11.737813815 29.845586750000002 23.0768552 29.845586750000002 36.4790153c0 13.402160100000001 8.833561450000001 24.74121475 20.99597465 28.512188950000002" stroke-width="14.29"></path><path id="Vector_3" stroke="#060644" stroke-linecap="round" stroke-linejoin="round" d="M99.48750000000001 66.325C83.0038804 66.325 69.64125 52.9623696 69.64125 36.478750000000005S83.0038804 6.6325 99.48750000000001 6.6325s29.84625 13.3626304 29.84625 29.84625S115.97111960000001 66.325 99.48750000000001 66.325Z" stroke-width="14.29"></path><path id="Ellipse 2775" stroke="#060644" stroke-linecap="round" stroke-linejoin="round" d="M79.58880615 139.2825h-33.1625c0 -29.304242100000003 23.7557579 -53.06 53.06 -53.06 19.758748100000002 0 36.99462585 10.8000977 46.12757835000001 26.819044350000002" stroke-width="14.29"></path><path id="Ellipse 2776" stroke="#060644" stroke-linecap="round" stroke-linejoin="round" d="M19.8975 139.2838265h-13.265c0 -20.5411178 11.6718735 -38.35574750000001 28.745122350000003 -47.17365625" stroke-width="14.29"></path><path id="Vector_4" stroke="#060644" stroke-linecap="round" stroke-linejoin="round" d="m179.07750000000001 112.7525 -53.06 66.325 -26.53 -19.8975" stroke-width="14.29"></path></g></svg>