<svg xmlns="http://www.w3.org/2000/svg" fill="none" viewBox="0 0 14 14" id="Workflow--Streamline-Flex" height="14" width="14"><desc>Workflow Streamline Icon: https://streamlinehq.com</desc><g id="workflow--workflow-arrow-nodes-circle-diamond-direction-plan"><path id="Vector" fill="#d76424" d="M11.7474 13.5001c1.1217 0 1.7526 -0.6298 1.7526 -1.7495 0 -1.1196 -0.6309 -1.7494 -1.7526 -1.7494 -1.1216 0 -1.75257 0.6298 -1.75257 1.7494 0 1.1197 0.63097 1.7495 1.75257 1.7495Z" stroke-width="1"></path><path id="Vector_2" fill="#d76424" d="M11.7474 3.99883c1.1217 0 1.7526 -0.62979 1.7526 -1.74942C13.5 1.12979 12.8691 0.5 11.7474 0.5c-1.1216 0 -1.75257 0.62979 -1.75257 1.74941 0 1.11963 0.63097 1.74942 1.75257 1.74942Z" stroke-width="1"></path><path id="Intersect" fill="#d76424" d="M0.809185 12.6445c0.043221 0.4033 0.368135 0.7276 0.771925 0.7725 0.29991 0.0334 0.60785 0.0621 0.92182 0.0621 0.31396 0 0.6219 -0.0287 0.92181 -0.0621 0.40379 -0.0449 0.7287 -0.3692 0.77193 -0.7725 0.0319 -0.2977 0.05885 -0.6033 0.05885 -0.9149 0 -0.3115 -0.02695 -0.6172 -0.05885 -0.9148 -0.04323 -0.4033 -0.36814 -0.7276 -0.77193 -0.7725 -0.29991 -0.0334 -0.60785 -0.06208 -0.92181 -0.06208 -0.31397 0 -0.62191 0.02868 -0.92182 0.06208 -0.40379 0.0449 -0.728704 0.3692 -0.771925 0.7725 -0.031906 0.2976 -0.058849 0.6033 -0.058849 0.9148 0 0.3116 0.026943 0.6172 0.058849 0.9149Z" stroke-width="1"></path><path id="Intersect_2" fill="#d76424" d="M0.572875 2.26553c-0.097167 0.12087 -0.097092 0.29385 -0.000224 0.41496 0.242233 0.30286 0.488199 0.62621 0.781329 0.91881 0.29313 0.2926 0.61706 0.53812 0.92048 0.77991 0.12133 0.0967 0.29462 0.09677 0.41571 -0.00022 0.30158 -0.24155 0.62216 -0.48823 0.91414 -0.77969 0.29199 -0.29146 0.53912 -0.61145 0.78111 -0.91248 0.09717 -0.12088 0.09709 -0.29385 0.00022 -0.41496 -0.24223 -0.30287 -0.4882 -0.62622 -0.78133 -0.91882 -0.29312 -0.29259 -0.61706 -0.538115 -0.92048 -0.77991 -0.12133 -0.096692 -0.29461 -0.096768 -0.41571 0.000223 -0.30158 0.241549 -0.62215 0.488227 -0.91414 0.779687 -0.29199 0.29146 -0.539118 0.61146 -0.781105 0.91249Z" stroke-width="1"></path><path id="Vector_3" stroke="#060644" stroke-linecap="round" stroke-linejoin="round" d="M11.7474 13.5001c1.1217 0 1.7526 -0.6298 1.7526 -1.7495 0 -1.1196 -0.6309 -1.7494 -1.7526 -1.7494 -1.1216 0 -1.75257 0.6298 -1.75257 1.7494 0 1.1197 0.63097 1.7495 1.75257 1.7495Z" stroke-width="1"></path><path id="Vector_4" stroke="#060644" stroke-linecap="round" stroke-linejoin="round" d="M11.7474 3.99883c1.1217 0 1.7526 -0.62979 1.7526 -1.74942C13.5 1.12979 12.8691 0.5 11.7474 0.5c-1.1216 0 -1.75257 0.62979 -1.75257 1.74941 0 1.11963 0.63097 1.74942 1.75257 1.74942Z" stroke-width="1"></path><path id="Intersect_3" stroke="#060644" stroke-linecap="round" stroke-linejoin="round" d="M0.809185 12.6445c0.043221 0.4033 0.368135 0.7276 0.771925 0.7725 0.29991 0.0334 0.60785 0.0621 0.92182 0.0621 0.31396 0 0.6219 -0.0287 0.92181 -0.0621 0.40379 -0.0449 0.7287 -0.3692 0.77193 -0.7725 0.0319 -0.2977 0.05884 -0.6033 0.05884 -0.9149 0 -0.3115 -0.02694 -0.6172 -0.05884 -0.9148 -0.04323 -0.4033 -0.36814 -0.7276 -0.77193 -0.7725 -0.29991 -0.0334 -0.60785 -0.06208 -0.92181 -0.06208 -0.31397 0 -0.62191 0.02868 -0.92182 0.06208 -0.40379 0.0449 -0.728704 0.3692 -0.771925 0.7725 -0.031906 0.2976 -0.058849 0.6033 -0.058849 0.9148 0 0.3116 0.026943 0.6172 0.058849 0.9149Z" stroke-width="1"></path><path id="Intersect_4" stroke="#060644" stroke-linecap="round" stroke-linejoin="round" d="M0.572875 2.26553c-0.097167 0.12087 -0.097092 0.29385 -0.000224 0.41496 0.242233 0.30286 0.488199 0.62621 0.781329 0.91881 0.29313 0.2926 0.61706 0.53812 0.92048 0.77991 0.12133 0.0967 0.29462 0.09677 0.41571 -0.00022 0.30158 -0.24155 0.62215 -0.48823 0.91414 -0.77969 0.29199 -0.29146 0.53912 -0.61145 0.78111 -0.91248 0.09717 -0.12088 0.09709 -0.29385 0.00022 -0.41496 -0.24223 -0.30287 -0.4882 -0.62622 -0.78133 -0.91882 -0.29312 -0.29259 -0.61706 -0.538115 -0.92048 -0.77991 -0.12133 -0.096692 -0.29461 -0.096768 -0.41571 0.000223 -0.30158 0.241549 -0.62215 0.488227 -0.91414 0.779687 -0.29199 0.29146 -0.539118 0.61146 -0.781105 0.91249Z" stroke-width="1"></path><path id="Vector 3237" stroke="#060644" stroke-linecap="round" stroke-linejoin="round" d="m2.48695 8.49682 0 -3.99828" stroke-width="1"></path><path id="Vector 3238" stroke="#060644" stroke-linecap="round" stroke-linejoin="round" d="m9.99483 2.49951 -4.03653 0" stroke-width="1"></path><path id="Vector 3239" stroke="#060644" stroke-linecap="round" stroke-linejoin="round" d="m4.25551 11.7449 4.24032 0" stroke-width="1"></path><path id="Vector_5" stroke="#060644" stroke-linecap="round" stroke-linejoin="round" d="M7.3045 1.13232c-0.53848 0.26876 -1.07696 0.80626 -1.3462 1.34375 0.26924 0.53752 0.80772 1.07503 1.3462 1.34378" stroke-width="1"></path><path id="Vector_6" stroke="#060644" stroke-linecap="round" stroke-linejoin="round" d="M1.1571 7.15233c0.26925 0.53751 0.80773 1.07501 1.34619 1.34376 0.5385 -0.26875 1.07698 -0.80625 1.34622 -1.34376" stroke-width="1"></path><path id="Vector_7" stroke="#060644" stroke-linecap="round" stroke-linejoin="round" d="M7.1496 10.3857c0.53848 0.2688 1.07696 0.8063 1.3462 1.3438 -0.26924 0.5375 -0.80772 1.075 -1.3462 1.3438" stroke-width="1"></path></g></svg>